G04 #@! TF.FileFunction,Legend,Top*
%FSLAX46Y46*%
G04 Gerber Fmt 4.6, Leading zero omitted, Abs format (unit mm)*
G04 Created by KiCad (PCBNEW 4.0.7-e2-6376~61~ubuntu18.04.1) date Sun Sep 30 15:28:24 2018*
%MOMM*%
%LPD*%
G01*
G04 APERTURE LIST*
%ADD10C,0.100000*%
%ADD11C,0.150000*%
%ADD12C,0.120000*%
G04 APERTURE END LIST*
D10*
D11*
X93119048Y-69971429D02*
X93880953Y-69971429D01*
X79600000Y-53181445D02*
X79193414Y-53588031D01*
X86918555Y-60500000D02*
X86441258Y-60977297D01*
X79600000Y-67818555D02*
X80077297Y-67341258D01*
X72281445Y-60500000D02*
X72758742Y-60022703D01*
X79600000Y-53181445D02*
X80077297Y-53658742D01*
X72281445Y-60500000D02*
X72758742Y-60977297D01*
X79600000Y-67818555D02*
X79122703Y-67341258D01*
X86918555Y-60500000D02*
X86441258Y-60022703D01*
X79193414Y-53588031D02*
X78291852Y-52686470D01*
X48782540Y-52749100D02*
X48782540Y-61449100D01*
X55187540Y-52749100D02*
X55187540Y-61449100D01*
X55187540Y-61449100D02*
X48782540Y-61449100D01*
X50012540Y-61449100D02*
X50012540Y-52749100D01*
X48782540Y-52749100D02*
X55187540Y-52749100D01*
X70500000Y-63100000D02*
X63500000Y-63100000D01*
X70500000Y-57900000D02*
X63500000Y-57900000D01*
X63500000Y-57900000D02*
X63500000Y-58900000D01*
X93700000Y-55225000D02*
X92000000Y-55225000D01*
X92000000Y-55225000D02*
X92000000Y-52025000D01*
X92000000Y-52025000D02*
X88100000Y-52025000D01*
X88100000Y-52025000D02*
X88100000Y-68975000D01*
X88100000Y-68975000D02*
X92000000Y-68975000D01*
X92000000Y-68975000D02*
X92000000Y-67975000D01*
X94200000Y-56125000D02*
X94700000Y-55625000D01*
X94700000Y-55625000D02*
X94700000Y-56625000D01*
X94700000Y-56625000D02*
X94200000Y-56125000D01*
X56174000Y-68506000D02*
X59222000Y-68506000D01*
X59222000Y-68506000D02*
X59222000Y-61394000D01*
X59222000Y-61394000D02*
X56174000Y-61394000D01*
X53126000Y-68506000D02*
X52364000Y-68506000D01*
X52364000Y-68506000D02*
X50078000Y-66982000D01*
X50078000Y-66982000D02*
X50078000Y-62918000D01*
X50078000Y-62918000D02*
X52364000Y-61394000D01*
X52364000Y-61394000D02*
X53126000Y-61394000D01*
X67300000Y-66950000D02*
X67300000Y-66250000D01*
X68500000Y-66250000D02*
X68500000Y-66950000D01*
X68850000Y-64800000D02*
X68150000Y-64800000D01*
X68150000Y-63600000D02*
X68850000Y-63600000D01*
X57550000Y-52950000D02*
X61800000Y-52950000D01*
X57550000Y-55050000D02*
X61800000Y-55050000D01*
X57550000Y-52950000D02*
X57550000Y-55050000D01*
X85050000Y-54100000D02*
X84350000Y-54100000D01*
X84350000Y-52900000D02*
X85050000Y-52900000D01*
X58600000Y-59550000D02*
X58600000Y-60250000D01*
X57400000Y-60250000D02*
X57400000Y-59550000D01*
X87600000Y-54650000D02*
X87600000Y-55350000D01*
X86400000Y-55350000D02*
X86400000Y-54650000D01*
X60850000Y-63150000D02*
X60850000Y-58900000D01*
X62950000Y-63150000D02*
X62950000Y-58900000D01*
X60850000Y-63150000D02*
X62950000Y-63150000D01*
X63750000Y-66500000D02*
X64450000Y-66500000D01*
X64450000Y-67700000D02*
X63750000Y-67700000D01*
X64450000Y-66100000D02*
X63750000Y-66100000D01*
X63750000Y-64900000D02*
X64450000Y-64900000D01*
X67750000Y-55100000D02*
X68450000Y-55100000D01*
X68450000Y-56300000D02*
X67750000Y-56300000D01*
X65000000Y-56350000D02*
X65000000Y-55650000D01*
X66200000Y-55650000D02*
X66200000Y-56350000D01*
X61000000Y-65850000D02*
X61000000Y-66550000D01*
X59800000Y-66550000D02*
X59800000Y-65850000D01*
X62600000Y-65850000D02*
X62600000Y-66550000D01*
X61400000Y-66550000D02*
X61400000Y-65850000D01*
X70650000Y-53400000D02*
X71350000Y-53400000D01*
X71350000Y-54600000D02*
X70650000Y-54600000D01*
X72100000Y-64875000D02*
X71100000Y-64875000D01*
X71100000Y-63525000D02*
X72100000Y-63525000D01*
X58200000Y-56925000D02*
X59200000Y-56925000D01*
X59200000Y-58275000D02*
X58200000Y-58275000D01*
X58200000Y-55325000D02*
X59200000Y-55325000D01*
X59200000Y-56675000D02*
X58200000Y-56675000D01*
X55725000Y-60500000D02*
X55725000Y-59500000D01*
X57075000Y-59500000D02*
X57075000Y-60500000D01*
X87275000Y-66000000D02*
X87275000Y-67000000D01*
X85925000Y-67000000D02*
X85925000Y-66000000D01*
X68700000Y-54675000D02*
X67700000Y-54675000D01*
X67700000Y-53325000D02*
X68700000Y-53325000D01*
X71400000Y-56375000D02*
X70400000Y-56375000D01*
X70400000Y-55025000D02*
X71400000Y-55025000D01*
X72400000Y-67900000D02*
X69200000Y-67900000D01*
X69200000Y-67900000D02*
X69200000Y-65300000D01*
X69200000Y-65300000D02*
X72400000Y-65300000D01*
X72400000Y-65300000D02*
X72400000Y-67900000D01*
D12*
X85650000Y-52630000D02*
X85650000Y-49970000D01*
X52570000Y-52630000D02*
X85650000Y-52630000D01*
X52570000Y-49970000D02*
X85650000Y-49970000D01*
X52570000Y-52630000D02*
X52570000Y-49970000D01*
X51300000Y-52630000D02*
X49970000Y-52630000D01*
X49970000Y-52630000D02*
X49970000Y-51300000D01*
X85650000Y-71030000D02*
X85650000Y-68370000D01*
X52570000Y-71030000D02*
X85650000Y-71030000D01*
X52570000Y-68370000D02*
X85650000Y-68370000D01*
X52570000Y-71030000D02*
X52570000Y-68370000D01*
X51300000Y-71030000D02*
X49970000Y-71030000D01*
X49970000Y-71030000D02*
X49970000Y-69700000D01*
D11*
X53340381Y-65711905D02*
X54149905Y-65711905D01*
X54245143Y-65664286D01*
X54292762Y-65616667D01*
X54340381Y-65521429D01*
X54340381Y-65330952D01*
X54292762Y-65235714D01*
X54245143Y-65188095D01*
X54149905Y-65140476D01*
X53340381Y-65140476D01*
X53435619Y-64711905D02*
X53388000Y-64664286D01*
X53340381Y-64569048D01*
X53340381Y-64330952D01*
X53388000Y-64235714D01*
X53435619Y-64188095D01*
X53530857Y-64140476D01*
X53626095Y-64140476D01*
X53768952Y-64188095D01*
X54340381Y-64759524D01*
X54340381Y-64140476D01*
X66757143Y-65766666D02*
X66804762Y-65814285D01*
X66852381Y-65957142D01*
X66852381Y-66052380D01*
X66804762Y-66195238D01*
X66709524Y-66290476D01*
X66614286Y-66338095D01*
X66423810Y-66385714D01*
X66280952Y-66385714D01*
X66090476Y-66338095D01*
X65995238Y-66290476D01*
X65900000Y-66195238D01*
X65852381Y-66052380D01*
X65852381Y-65957142D01*
X65900000Y-65814285D01*
X65947619Y-65766666D01*
X66852381Y-64814285D02*
X66852381Y-65385714D01*
X66852381Y-65100000D02*
X65852381Y-65100000D01*
X65995238Y-65195238D01*
X66090476Y-65290476D01*
X66138095Y-65385714D01*
X65933334Y-64557143D02*
X65885715Y-64604762D01*
X65742858Y-64652381D01*
X65647620Y-64652381D01*
X65504762Y-64604762D01*
X65409524Y-64509524D01*
X65361905Y-64414286D01*
X65314286Y-64223810D01*
X65314286Y-64080952D01*
X65361905Y-63890476D01*
X65409524Y-63795238D01*
X65504762Y-63700000D01*
X65647620Y-63652381D01*
X65742858Y-63652381D01*
X65885715Y-63700000D01*
X65933334Y-63747619D01*
X66314286Y-63747619D02*
X66361905Y-63700000D01*
X66457143Y-63652381D01*
X66695239Y-63652381D01*
X66790477Y-63700000D01*
X66838096Y-63747619D01*
X66885715Y-63842857D01*
X66885715Y-63938095D01*
X66838096Y-64080952D01*
X66266667Y-64652381D01*
X66885715Y-64652381D01*
X63433334Y-54357143D02*
X63385715Y-54404762D01*
X63242858Y-54452381D01*
X63147620Y-54452381D01*
X63004762Y-54404762D01*
X62909524Y-54309524D01*
X62861905Y-54214286D01*
X62814286Y-54023810D01*
X62814286Y-53880952D01*
X62861905Y-53690476D01*
X62909524Y-53595238D01*
X63004762Y-53500000D01*
X63147620Y-53452381D01*
X63242858Y-53452381D01*
X63385715Y-53500000D01*
X63433334Y-53547619D01*
X63766667Y-53452381D02*
X64385715Y-53452381D01*
X64052381Y-53833333D01*
X64195239Y-53833333D01*
X64290477Y-53880952D01*
X64338096Y-53928571D01*
X64385715Y-54023810D01*
X64385715Y-54261905D01*
X64338096Y-54357143D01*
X64290477Y-54404762D01*
X64195239Y-54452381D01*
X63909524Y-54452381D01*
X63814286Y-54404762D01*
X63766667Y-54357143D01*
X84733334Y-55257143D02*
X84685715Y-55304762D01*
X84542858Y-55352381D01*
X84447620Y-55352381D01*
X84304762Y-55304762D01*
X84209524Y-55209524D01*
X84161905Y-55114286D01*
X84114286Y-54923810D01*
X84114286Y-54780952D01*
X84161905Y-54590476D01*
X84209524Y-54495238D01*
X84304762Y-54400000D01*
X84447620Y-54352381D01*
X84542858Y-54352381D01*
X84685715Y-54400000D01*
X84733334Y-54447619D01*
X85590477Y-54685714D02*
X85590477Y-55352381D01*
X85352381Y-54304762D02*
X85114286Y-55019048D01*
X85733334Y-55019048D01*
X60057143Y-60666666D02*
X60104762Y-60714285D01*
X60152381Y-60857142D01*
X60152381Y-60952380D01*
X60104762Y-61095238D01*
X60009524Y-61190476D01*
X59914286Y-61238095D01*
X59723810Y-61285714D01*
X59580952Y-61285714D01*
X59390476Y-61238095D01*
X59295238Y-61190476D01*
X59200000Y-61095238D01*
X59152381Y-60952380D01*
X59152381Y-60857142D01*
X59200000Y-60714285D01*
X59247619Y-60666666D01*
X59152381Y-59761904D02*
X59152381Y-60238095D01*
X59628571Y-60285714D01*
X59580952Y-60238095D01*
X59533333Y-60142857D01*
X59533333Y-59904761D01*
X59580952Y-59809523D01*
X59628571Y-59761904D01*
X59723810Y-59714285D01*
X59961905Y-59714285D01*
X60057143Y-59761904D01*
X60104762Y-59809523D01*
X60152381Y-59904761D01*
X60152381Y-60142857D01*
X60104762Y-60238095D01*
X60057143Y-60285714D01*
X87357143Y-52866666D02*
X87404762Y-52914285D01*
X87452381Y-53057142D01*
X87452381Y-53152380D01*
X87404762Y-53295238D01*
X87309524Y-53390476D01*
X87214286Y-53438095D01*
X87023810Y-53485714D01*
X86880952Y-53485714D01*
X86690476Y-53438095D01*
X86595238Y-53390476D01*
X86500000Y-53295238D01*
X86452381Y-53152380D01*
X86452381Y-53057142D01*
X86500000Y-52914285D01*
X86547619Y-52866666D01*
X86452381Y-52009523D02*
X86452381Y-52200000D01*
X86500000Y-52295238D01*
X86547619Y-52342857D01*
X86690476Y-52438095D01*
X86880952Y-52485714D01*
X87261905Y-52485714D01*
X87357143Y-52438095D01*
X87404762Y-52390476D01*
X87452381Y-52295238D01*
X87452381Y-52104761D01*
X87404762Y-52009523D01*
X87357143Y-51961904D01*
X87261905Y-51914285D01*
X87023810Y-51914285D01*
X86928571Y-51961904D01*
X86880952Y-52009523D01*
X86833333Y-52104761D01*
X86833333Y-52295238D01*
X86880952Y-52390476D01*
X86928571Y-52438095D01*
X87023810Y-52485714D01*
X61733334Y-57657143D02*
X61685715Y-57704762D01*
X61542858Y-57752381D01*
X61447620Y-57752381D01*
X61304762Y-57704762D01*
X61209524Y-57609524D01*
X61161905Y-57514286D01*
X61114286Y-57323810D01*
X61114286Y-57180952D01*
X61161905Y-56990476D01*
X61209524Y-56895238D01*
X61304762Y-56800000D01*
X61447620Y-56752381D01*
X61542858Y-56752381D01*
X61685715Y-56800000D01*
X61733334Y-56847619D01*
X62066667Y-56752381D02*
X62733334Y-56752381D01*
X62304762Y-57752381D01*
X66233334Y-67457143D02*
X66185715Y-67504762D01*
X66042858Y-67552381D01*
X65947620Y-67552381D01*
X65804762Y-67504762D01*
X65709524Y-67409524D01*
X65661905Y-67314286D01*
X65614286Y-67123810D01*
X65614286Y-66980952D01*
X65661905Y-66790476D01*
X65709524Y-66695238D01*
X65804762Y-66600000D01*
X65947620Y-66552381D01*
X66042858Y-66552381D01*
X66185715Y-66600000D01*
X66233334Y-66647619D01*
X66804762Y-66980952D02*
X66709524Y-66933333D01*
X66661905Y-66885714D01*
X66614286Y-66790476D01*
X66614286Y-66742857D01*
X66661905Y-66647619D01*
X66709524Y-66600000D01*
X66804762Y-66552381D01*
X66995239Y-66552381D01*
X67090477Y-66600000D01*
X67138096Y-66647619D01*
X67185715Y-66742857D01*
X67185715Y-66790476D01*
X67138096Y-66885714D01*
X67090477Y-66933333D01*
X66995239Y-66980952D01*
X66804762Y-66980952D01*
X66709524Y-67028571D01*
X66661905Y-67076190D01*
X66614286Y-67171429D01*
X66614286Y-67361905D01*
X66661905Y-67457143D01*
X66709524Y-67504762D01*
X66804762Y-67552381D01*
X66995239Y-67552381D01*
X67090477Y-67504762D01*
X67138096Y-67457143D01*
X67185715Y-67361905D01*
X67185715Y-67171429D01*
X67138096Y-67076190D01*
X67090477Y-67028571D01*
X66995239Y-66980952D01*
X64033334Y-64457143D02*
X63985715Y-64504762D01*
X63842858Y-64552381D01*
X63747620Y-64552381D01*
X63604762Y-64504762D01*
X63509524Y-64409524D01*
X63461905Y-64314286D01*
X63414286Y-64123810D01*
X63414286Y-63980952D01*
X63461905Y-63790476D01*
X63509524Y-63695238D01*
X63604762Y-63600000D01*
X63747620Y-63552381D01*
X63842858Y-63552381D01*
X63985715Y-63600000D01*
X64033334Y-63647619D01*
X64509524Y-64552381D02*
X64700000Y-64552381D01*
X64795239Y-64504762D01*
X64842858Y-64457143D01*
X64938096Y-64314286D01*
X64985715Y-64123810D01*
X64985715Y-63742857D01*
X64938096Y-63647619D01*
X64890477Y-63600000D01*
X64795239Y-63552381D01*
X64604762Y-63552381D01*
X64509524Y-63600000D01*
X64461905Y-63647619D01*
X64414286Y-63742857D01*
X64414286Y-63980952D01*
X64461905Y-64076190D01*
X64509524Y-64123810D01*
X64604762Y-64171429D01*
X64795239Y-64171429D01*
X64890477Y-64123810D01*
X64938096Y-64076190D01*
X64985715Y-63980952D01*
X67457143Y-57357143D02*
X67409524Y-57404762D01*
X67266667Y-57452381D01*
X67171429Y-57452381D01*
X67028571Y-57404762D01*
X66933333Y-57309524D01*
X66885714Y-57214286D01*
X66838095Y-57023810D01*
X66838095Y-56880952D01*
X66885714Y-56690476D01*
X66933333Y-56595238D01*
X67028571Y-56500000D01*
X67171429Y-56452381D01*
X67266667Y-56452381D01*
X67409524Y-56500000D01*
X67457143Y-56547619D01*
X68409524Y-57452381D02*
X67838095Y-57452381D01*
X68123809Y-57452381D02*
X68123809Y-56452381D01*
X68028571Y-56595238D01*
X67933333Y-56690476D01*
X67838095Y-56738095D01*
X69028571Y-56452381D02*
X69123810Y-56452381D01*
X69219048Y-56500000D01*
X69266667Y-56547619D01*
X69314286Y-56642857D01*
X69361905Y-56833333D01*
X69361905Y-57071429D01*
X69314286Y-57261905D01*
X69266667Y-57357143D01*
X69219048Y-57404762D01*
X69123810Y-57452381D01*
X69028571Y-57452381D01*
X68933333Y-57404762D01*
X68885714Y-57357143D01*
X68838095Y-57261905D01*
X68790476Y-57071429D01*
X68790476Y-56833333D01*
X68838095Y-56642857D01*
X68885714Y-56547619D01*
X68933333Y-56500000D01*
X69028571Y-56452381D01*
X64657143Y-56642857D02*
X64704762Y-56690476D01*
X64752381Y-56833333D01*
X64752381Y-56928571D01*
X64704762Y-57071429D01*
X64609524Y-57166667D01*
X64514286Y-57214286D01*
X64323810Y-57261905D01*
X64180952Y-57261905D01*
X63990476Y-57214286D01*
X63895238Y-57166667D01*
X63800000Y-57071429D01*
X63752381Y-56928571D01*
X63752381Y-56833333D01*
X63800000Y-56690476D01*
X63847619Y-56642857D01*
X64752381Y-55690476D02*
X64752381Y-56261905D01*
X64752381Y-55976191D02*
X63752381Y-55976191D01*
X63895238Y-56071429D01*
X63990476Y-56166667D01*
X64038095Y-56261905D01*
X64752381Y-54738095D02*
X64752381Y-55309524D01*
X64752381Y-55023810D02*
X63752381Y-55023810D01*
X63895238Y-55119048D01*
X63990476Y-55214286D01*
X64038095Y-55309524D01*
X60257143Y-64042857D02*
X60304762Y-64090476D01*
X60352381Y-64233333D01*
X60352381Y-64328571D01*
X60304762Y-64471429D01*
X60209524Y-64566667D01*
X60114286Y-64614286D01*
X59923810Y-64661905D01*
X59780952Y-64661905D01*
X59590476Y-64614286D01*
X59495238Y-64566667D01*
X59400000Y-64471429D01*
X59352381Y-64328571D01*
X59352381Y-64233333D01*
X59400000Y-64090476D01*
X59447619Y-64042857D01*
X60352381Y-63090476D02*
X60352381Y-63661905D01*
X60352381Y-63376191D02*
X59352381Y-63376191D01*
X59495238Y-63471429D01*
X59590476Y-63566667D01*
X59638095Y-63661905D01*
X59447619Y-62709524D02*
X59400000Y-62661905D01*
X59352381Y-62566667D01*
X59352381Y-62328571D01*
X59400000Y-62233333D01*
X59447619Y-62185714D01*
X59542857Y-62138095D01*
X59638095Y-62138095D01*
X59780952Y-62185714D01*
X60352381Y-62757143D01*
X60352381Y-62138095D01*
X61257143Y-64557143D02*
X61209524Y-64604762D01*
X61066667Y-64652381D01*
X60971429Y-64652381D01*
X60828571Y-64604762D01*
X60733333Y-64509524D01*
X60685714Y-64414286D01*
X60638095Y-64223810D01*
X60638095Y-64080952D01*
X60685714Y-63890476D01*
X60733333Y-63795238D01*
X60828571Y-63700000D01*
X60971429Y-63652381D01*
X61066667Y-63652381D01*
X61209524Y-63700000D01*
X61257143Y-63747619D01*
X62209524Y-64652381D02*
X61638095Y-64652381D01*
X61923809Y-64652381D02*
X61923809Y-63652381D01*
X61828571Y-63795238D01*
X61733333Y-63890476D01*
X61638095Y-63938095D01*
X62542857Y-63652381D02*
X63161905Y-63652381D01*
X62828571Y-64033333D01*
X62971429Y-64033333D01*
X63066667Y-64080952D01*
X63114286Y-64128571D01*
X63161905Y-64223810D01*
X63161905Y-64461905D01*
X63114286Y-64557143D01*
X63066667Y-64604762D01*
X62971429Y-64652381D01*
X62685714Y-64652381D01*
X62590476Y-64604762D01*
X62542857Y-64557143D01*
X73157143Y-54357143D02*
X73109524Y-54404762D01*
X72966667Y-54452381D01*
X72871429Y-54452381D01*
X72728571Y-54404762D01*
X72633333Y-54309524D01*
X72585714Y-54214286D01*
X72538095Y-54023810D01*
X72538095Y-53880952D01*
X72585714Y-53690476D01*
X72633333Y-53595238D01*
X72728571Y-53500000D01*
X72871429Y-53452381D01*
X72966667Y-53452381D01*
X73109524Y-53500000D01*
X73157143Y-53547619D01*
X74109524Y-54452381D02*
X73538095Y-54452381D01*
X73823809Y-54452381D02*
X73823809Y-53452381D01*
X73728571Y-53595238D01*
X73633333Y-53690476D01*
X73538095Y-53738095D01*
X74966667Y-53785714D02*
X74966667Y-54452381D01*
X74728571Y-53404762D02*
X74490476Y-54119048D01*
X75109524Y-54119048D01*
X71333334Y-63152381D02*
X71000000Y-62676190D01*
X70761905Y-63152381D02*
X70761905Y-62152381D01*
X71142858Y-62152381D01*
X71238096Y-62200000D01*
X71285715Y-62247619D01*
X71333334Y-62342857D01*
X71333334Y-62485714D01*
X71285715Y-62580952D01*
X71238096Y-62628571D01*
X71142858Y-62676190D01*
X70761905Y-62676190D01*
X72285715Y-63152381D02*
X71714286Y-63152381D01*
X72000000Y-63152381D02*
X72000000Y-62152381D01*
X71904762Y-62295238D01*
X71809524Y-62390476D01*
X71714286Y-62438095D01*
X59533334Y-59452381D02*
X59200000Y-58976190D01*
X58961905Y-59452381D02*
X58961905Y-58452381D01*
X59342858Y-58452381D01*
X59438096Y-58500000D01*
X59485715Y-58547619D01*
X59533334Y-58642857D01*
X59533334Y-58785714D01*
X59485715Y-58880952D01*
X59438096Y-58928571D01*
X59342858Y-58976190D01*
X58961905Y-58976190D01*
X59914286Y-58547619D02*
X59961905Y-58500000D01*
X60057143Y-58452381D01*
X60295239Y-58452381D01*
X60390477Y-58500000D01*
X60438096Y-58547619D01*
X60485715Y-58642857D01*
X60485715Y-58738095D01*
X60438096Y-58880952D01*
X59866667Y-59452381D01*
X60485715Y-59452381D01*
X60933334Y-56552381D02*
X60600000Y-56076190D01*
X60361905Y-56552381D02*
X60361905Y-55552381D01*
X60742858Y-55552381D01*
X60838096Y-55600000D01*
X60885715Y-55647619D01*
X60933334Y-55742857D01*
X60933334Y-55885714D01*
X60885715Y-55980952D01*
X60838096Y-56028571D01*
X60742858Y-56076190D01*
X60361905Y-56076190D01*
X61266667Y-55552381D02*
X61885715Y-55552381D01*
X61552381Y-55933333D01*
X61695239Y-55933333D01*
X61790477Y-55980952D01*
X61838096Y-56028571D01*
X61885715Y-56123810D01*
X61885715Y-56361905D01*
X61838096Y-56457143D01*
X61790477Y-56504762D01*
X61695239Y-56552381D01*
X61409524Y-56552381D01*
X61314286Y-56504762D01*
X61266667Y-56457143D01*
X56852381Y-57966666D02*
X56376190Y-58300000D01*
X56852381Y-58538095D02*
X55852381Y-58538095D01*
X55852381Y-58157142D01*
X55900000Y-58061904D01*
X55947619Y-58014285D01*
X56042857Y-57966666D01*
X56185714Y-57966666D01*
X56280952Y-58014285D01*
X56328571Y-58061904D01*
X56376190Y-58157142D01*
X56376190Y-58538095D01*
X56185714Y-57109523D02*
X56852381Y-57109523D01*
X55804762Y-57347619D02*
X56519048Y-57585714D01*
X56519048Y-56966666D01*
X85652381Y-66666666D02*
X85176190Y-67000000D01*
X85652381Y-67238095D02*
X84652381Y-67238095D01*
X84652381Y-66857142D01*
X84700000Y-66761904D01*
X84747619Y-66714285D01*
X84842857Y-66666666D01*
X84985714Y-66666666D01*
X85080952Y-66714285D01*
X85128571Y-66761904D01*
X85176190Y-66857142D01*
X85176190Y-67238095D01*
X84652381Y-65809523D02*
X84652381Y-66000000D01*
X84700000Y-66095238D01*
X84747619Y-66142857D01*
X84890476Y-66238095D01*
X85080952Y-66285714D01*
X85461905Y-66285714D01*
X85557143Y-66238095D01*
X85604762Y-66190476D01*
X85652381Y-66095238D01*
X85652381Y-65904761D01*
X85604762Y-65809523D01*
X85557143Y-65761904D01*
X85461905Y-65714285D01*
X85223810Y-65714285D01*
X85128571Y-65761904D01*
X85080952Y-65809523D01*
X85033333Y-65904761D01*
X85033333Y-66095238D01*
X85080952Y-66190476D01*
X85128571Y-66238095D01*
X85223810Y-66285714D01*
X65833334Y-54452381D02*
X65500000Y-53976190D01*
X65261905Y-54452381D02*
X65261905Y-53452381D01*
X65642858Y-53452381D01*
X65738096Y-53500000D01*
X65785715Y-53547619D01*
X65833334Y-53642857D01*
X65833334Y-53785714D01*
X65785715Y-53880952D01*
X65738096Y-53928571D01*
X65642858Y-53976190D01*
X65261905Y-53976190D01*
X66166667Y-53452381D02*
X66833334Y-53452381D01*
X66404762Y-54452381D01*
X72933334Y-56152381D02*
X72600000Y-55676190D01*
X72361905Y-56152381D02*
X72361905Y-55152381D01*
X72742858Y-55152381D01*
X72838096Y-55200000D01*
X72885715Y-55247619D01*
X72933334Y-55342857D01*
X72933334Y-55485714D01*
X72885715Y-55580952D01*
X72838096Y-55628571D01*
X72742858Y-55676190D01*
X72361905Y-55676190D01*
X73504762Y-55580952D02*
X73409524Y-55533333D01*
X73361905Y-55485714D01*
X73314286Y-55390476D01*
X73314286Y-55342857D01*
X73361905Y-55247619D01*
X73409524Y-55200000D01*
X73504762Y-55152381D01*
X73695239Y-55152381D01*
X73790477Y-55200000D01*
X73838096Y-55247619D01*
X73885715Y-55342857D01*
X73885715Y-55390476D01*
X73838096Y-55485714D01*
X73790477Y-55533333D01*
X73695239Y-55580952D01*
X73504762Y-55580952D01*
X73409524Y-55628571D01*
X73361905Y-55676190D01*
X73314286Y-55771429D01*
X73314286Y-55961905D01*
X73361905Y-56057143D01*
X73409524Y-56104762D01*
X73504762Y-56152381D01*
X73695239Y-56152381D01*
X73790477Y-56104762D01*
X73838096Y-56057143D01*
X73885715Y-55961905D01*
X73885715Y-55771429D01*
X73838096Y-55676190D01*
X73790477Y-55628571D01*
X73695239Y-55580952D01*
X73223809Y-66576190D02*
X73223809Y-67052381D01*
X72890476Y-66052381D02*
X73223809Y-66576190D01*
X73557143Y-66052381D01*
X74414286Y-67052381D02*
X73842857Y-67052381D01*
X74128571Y-67052381D02*
X74128571Y-66052381D01*
X74033333Y-66195238D01*
X73938095Y-66290476D01*
X73842857Y-66338095D01*
X49422381Y-52038095D02*
X48422381Y-52038095D01*
X48422381Y-51657142D01*
X48470000Y-51561904D01*
X48517619Y-51514285D01*
X48612857Y-51466666D01*
X48755714Y-51466666D01*
X48850952Y-51514285D01*
X48898571Y-51561904D01*
X48946190Y-51657142D01*
X48946190Y-52038095D01*
X48422381Y-51133333D02*
X48422381Y-50514285D01*
X48803333Y-50847619D01*
X48803333Y-50704761D01*
X48850952Y-50609523D01*
X48898571Y-50561904D01*
X48993810Y-50514285D01*
X49231905Y-50514285D01*
X49327143Y-50561904D01*
X49374762Y-50609523D01*
X49422381Y-50704761D01*
X49422381Y-50990476D01*
X49374762Y-51085714D01*
X49327143Y-51133333D01*
X49422381Y-70438095D02*
X48422381Y-70438095D01*
X48422381Y-70057142D01*
X48470000Y-69961904D01*
X48517619Y-69914285D01*
X48612857Y-69866666D01*
X48755714Y-69866666D01*
X48850952Y-69914285D01*
X48898571Y-69961904D01*
X48946190Y-70057142D01*
X48946190Y-70438095D01*
X48755714Y-69009523D02*
X49422381Y-69009523D01*
X48374762Y-69247619D02*
X49089048Y-69485714D01*
X49089048Y-68866666D01*
M02*
