G04 #@! TF.FileFunction,Soldermask,Top*
%FSLAX46Y46*%
G04 Gerber Fmt 4.6, Leading zero omitted, Abs format (unit mm)*
G04 Created by KiCad (PCBNEW 4.0.7-e2-6376~61~ubuntu18.04.1) date Sun Sep 30 15:28:24 2018*
%MOMM*%
%LPD*%
G01*
G04 APERTURE LIST*
%ADD10C,0.100000*%
%ADD11R,1.350000X0.400000*%
%ADD12O,1.250000X1.250000*%
%ADD13O,1.550000X1.800000*%
%ADD14R,1.600000X1.000000*%
%ADD15R,1.600000X0.800000*%
%ADD16R,3.000000X2.100000*%
%ADD17R,2.032000X3.657600*%
%ADD18R,2.032000X1.016000*%
%ADD19R,0.750000X0.800000*%
%ADD20R,0.800000X0.750000*%
%ADD21R,1.950000X1.500000*%
%ADD22R,1.500000X1.950000*%
%ADD23R,0.500000X0.900000*%
%ADD24R,0.900000X0.500000*%
%ADD25R,1.400000X1.200000*%
%ADD26R,1.700000X1.700000*%
%ADD27O,1.700000X1.700000*%
G04 APERTURE END LIST*
D10*
G36*
X77673134Y-53305188D02*
X78062042Y-52916280D01*
X79122702Y-53976940D01*
X78733794Y-54365848D01*
X77673134Y-53305188D01*
X77673134Y-53305188D01*
G37*
G36*
X77107449Y-53870874D02*
X77496357Y-53481966D01*
X78557017Y-54542626D01*
X78168109Y-54931534D01*
X77107449Y-53870874D01*
X77107449Y-53870874D01*
G37*
G36*
X76541764Y-54436559D02*
X76930672Y-54047651D01*
X77991332Y-55108311D01*
X77602424Y-55497219D01*
X76541764Y-54436559D01*
X76541764Y-54436559D01*
G37*
G36*
X75976078Y-55002244D02*
X76364986Y-54613336D01*
X77425646Y-55673996D01*
X77036738Y-56062904D01*
X75976078Y-55002244D01*
X75976078Y-55002244D01*
G37*
G36*
X75410393Y-55567930D02*
X75799301Y-55179022D01*
X76859961Y-56239682D01*
X76471053Y-56628590D01*
X75410393Y-55567930D01*
X75410393Y-55567930D01*
G37*
G36*
X74844707Y-56133615D02*
X75233615Y-55744707D01*
X76294275Y-56805367D01*
X75905367Y-57194275D01*
X74844707Y-56133615D01*
X74844707Y-56133615D01*
G37*
G36*
X74279022Y-56699301D02*
X74667930Y-56310393D01*
X75728590Y-57371053D01*
X75339682Y-57759961D01*
X74279022Y-56699301D01*
X74279022Y-56699301D01*
G37*
G36*
X73713336Y-57264986D02*
X74102244Y-56876078D01*
X75162904Y-57936738D01*
X74773996Y-58325646D01*
X73713336Y-57264986D01*
X73713336Y-57264986D01*
G37*
G36*
X73147651Y-57830672D02*
X73536559Y-57441764D01*
X74597219Y-58502424D01*
X74208311Y-58891332D01*
X73147651Y-57830672D01*
X73147651Y-57830672D01*
G37*
G36*
X72581966Y-58396357D02*
X72970874Y-58007449D01*
X74031534Y-59068109D01*
X73642626Y-59457017D01*
X72581966Y-58396357D01*
X72581966Y-58396357D01*
G37*
G36*
X72016280Y-58962042D02*
X72405188Y-58573134D01*
X73465848Y-59633794D01*
X73076940Y-60022702D01*
X72016280Y-58962042D01*
X72016280Y-58962042D01*
G37*
G36*
X72405188Y-62426866D02*
X72016280Y-62037958D01*
X73076940Y-60977298D01*
X73465848Y-61366206D01*
X72405188Y-62426866D01*
X72405188Y-62426866D01*
G37*
G36*
X72970874Y-62992551D02*
X72581966Y-62603643D01*
X73642626Y-61542983D01*
X74031534Y-61931891D01*
X72970874Y-62992551D01*
X72970874Y-62992551D01*
G37*
G36*
X73536559Y-63558236D02*
X73147651Y-63169328D01*
X74208311Y-62108668D01*
X74597219Y-62497576D01*
X73536559Y-63558236D01*
X73536559Y-63558236D01*
G37*
G36*
X74102244Y-64123922D02*
X73713336Y-63735014D01*
X74773996Y-62674354D01*
X75162904Y-63063262D01*
X74102244Y-64123922D01*
X74102244Y-64123922D01*
G37*
G36*
X74667930Y-64689607D02*
X74279022Y-64300699D01*
X75339682Y-63240039D01*
X75728590Y-63628947D01*
X74667930Y-64689607D01*
X74667930Y-64689607D01*
G37*
G36*
X75233615Y-65255293D02*
X74844707Y-64866385D01*
X75905367Y-63805725D01*
X76294275Y-64194633D01*
X75233615Y-65255293D01*
X75233615Y-65255293D01*
G37*
G36*
X75799301Y-65820978D02*
X75410393Y-65432070D01*
X76471053Y-64371410D01*
X76859961Y-64760318D01*
X75799301Y-65820978D01*
X75799301Y-65820978D01*
G37*
G36*
X76364986Y-66386664D02*
X75976078Y-65997756D01*
X77036738Y-64937096D01*
X77425646Y-65326004D01*
X76364986Y-66386664D01*
X76364986Y-66386664D01*
G37*
G36*
X76930672Y-66952349D02*
X76541764Y-66563441D01*
X77602424Y-65502781D01*
X77991332Y-65891689D01*
X76930672Y-66952349D01*
X76930672Y-66952349D01*
G37*
G36*
X77496357Y-67518034D02*
X77107449Y-67129126D01*
X78168109Y-66068466D01*
X78557017Y-66457374D01*
X77496357Y-67518034D01*
X77496357Y-67518034D01*
G37*
G36*
X78062042Y-68083720D02*
X77673134Y-67694812D01*
X78733794Y-66634152D01*
X79122702Y-67023060D01*
X78062042Y-68083720D01*
X78062042Y-68083720D01*
G37*
G36*
X80077298Y-67023060D02*
X80466206Y-66634152D01*
X81526866Y-67694812D01*
X81137958Y-68083720D01*
X80077298Y-67023060D01*
X80077298Y-67023060D01*
G37*
G36*
X80642983Y-66457374D02*
X81031891Y-66068466D01*
X82092551Y-67129126D01*
X81703643Y-67518034D01*
X80642983Y-66457374D01*
X80642983Y-66457374D01*
G37*
G36*
X81208668Y-65891689D02*
X81597576Y-65502781D01*
X82658236Y-66563441D01*
X82269328Y-66952349D01*
X81208668Y-65891689D01*
X81208668Y-65891689D01*
G37*
G36*
X81774354Y-65326004D02*
X82163262Y-64937096D01*
X83223922Y-65997756D01*
X82835014Y-66386664D01*
X81774354Y-65326004D01*
X81774354Y-65326004D01*
G37*
G36*
X82340039Y-64760318D02*
X82728947Y-64371410D01*
X83789607Y-65432070D01*
X83400699Y-65820978D01*
X82340039Y-64760318D01*
X82340039Y-64760318D01*
G37*
G36*
X82905725Y-64194633D02*
X83294633Y-63805725D01*
X84355293Y-64866385D01*
X83966385Y-65255293D01*
X82905725Y-64194633D01*
X82905725Y-64194633D01*
G37*
G36*
X83471410Y-63628947D02*
X83860318Y-63240039D01*
X84920978Y-64300699D01*
X84532070Y-64689607D01*
X83471410Y-63628947D01*
X83471410Y-63628947D01*
G37*
G36*
X84037096Y-63063262D02*
X84426004Y-62674354D01*
X85486664Y-63735014D01*
X85097756Y-64123922D01*
X84037096Y-63063262D01*
X84037096Y-63063262D01*
G37*
G36*
X84602781Y-62497576D02*
X84991689Y-62108668D01*
X86052349Y-63169328D01*
X85663441Y-63558236D01*
X84602781Y-62497576D01*
X84602781Y-62497576D01*
G37*
G36*
X85168466Y-61931891D02*
X85557374Y-61542983D01*
X86618034Y-62603643D01*
X86229126Y-62992551D01*
X85168466Y-61931891D01*
X85168466Y-61931891D01*
G37*
G36*
X85734152Y-61366206D02*
X86123060Y-60977298D01*
X87183720Y-62037958D01*
X86794812Y-62426866D01*
X85734152Y-61366206D01*
X85734152Y-61366206D01*
G37*
G36*
X86123060Y-60022702D02*
X85734152Y-59633794D01*
X86794812Y-58573134D01*
X87183720Y-58962042D01*
X86123060Y-60022702D01*
X86123060Y-60022702D01*
G37*
G36*
X85557374Y-59457017D02*
X85168466Y-59068109D01*
X86229126Y-58007449D01*
X86618034Y-58396357D01*
X85557374Y-59457017D01*
X85557374Y-59457017D01*
G37*
G36*
X84991689Y-58891332D02*
X84602781Y-58502424D01*
X85663441Y-57441764D01*
X86052349Y-57830672D01*
X84991689Y-58891332D01*
X84991689Y-58891332D01*
G37*
G36*
X84426004Y-58325646D02*
X84037096Y-57936738D01*
X85097756Y-56876078D01*
X85486664Y-57264986D01*
X84426004Y-58325646D01*
X84426004Y-58325646D01*
G37*
G36*
X83860318Y-57759961D02*
X83471410Y-57371053D01*
X84532070Y-56310393D01*
X84920978Y-56699301D01*
X83860318Y-57759961D01*
X83860318Y-57759961D01*
G37*
G36*
X83294633Y-57194275D02*
X82905725Y-56805367D01*
X83966385Y-55744707D01*
X84355293Y-56133615D01*
X83294633Y-57194275D01*
X83294633Y-57194275D01*
G37*
G36*
X82728947Y-56628590D02*
X82340039Y-56239682D01*
X83400699Y-55179022D01*
X83789607Y-55567930D01*
X82728947Y-56628590D01*
X82728947Y-56628590D01*
G37*
G36*
X82163262Y-56062904D02*
X81774354Y-55673996D01*
X82835014Y-54613336D01*
X83223922Y-55002244D01*
X82163262Y-56062904D01*
X82163262Y-56062904D01*
G37*
G36*
X81597576Y-55497219D02*
X81208668Y-55108311D01*
X82269328Y-54047651D01*
X82658236Y-54436559D01*
X81597576Y-55497219D01*
X81597576Y-55497219D01*
G37*
G36*
X81031891Y-54931534D02*
X80642983Y-54542626D01*
X81703643Y-53481966D01*
X82092551Y-53870874D01*
X81031891Y-54931534D01*
X81031891Y-54931534D01*
G37*
G36*
X80466206Y-54365848D02*
X80077298Y-53976940D01*
X81137958Y-52916280D01*
X81526866Y-53305188D01*
X80466206Y-54365848D01*
X80466206Y-54365848D01*
G37*
D11*
X54162540Y-55799100D03*
X54162540Y-56449100D03*
X54162540Y-57099100D03*
X54162540Y-57749100D03*
X54162540Y-58399100D03*
D12*
X54162540Y-54599100D03*
X54162540Y-59599100D03*
D13*
X51462540Y-53599100D03*
X51462540Y-60599100D03*
D14*
X64500000Y-58900000D03*
X64500000Y-62100000D03*
X69500000Y-58900000D03*
X69500000Y-62100000D03*
D15*
X92900000Y-56125000D03*
X92900000Y-57375000D03*
X92900000Y-58625000D03*
X92900000Y-59875000D03*
X92900000Y-61125000D03*
X92900000Y-62375000D03*
X92900000Y-63625000D03*
X92900000Y-64875000D03*
D16*
X90000000Y-53575000D03*
X90000000Y-67425000D03*
D17*
X51348000Y-64950000D03*
D18*
X57952000Y-64950000D03*
X57952000Y-62664000D03*
X57952000Y-67236000D03*
D19*
X67900000Y-67350000D03*
X67900000Y-65850000D03*
D20*
X69250000Y-64200000D03*
X67750000Y-64200000D03*
D21*
X58825000Y-54000000D03*
X61575000Y-54000000D03*
D20*
X85450000Y-53500000D03*
X83950000Y-53500000D03*
D19*
X58000000Y-59150000D03*
X58000000Y-60650000D03*
X87000000Y-54250000D03*
X87000000Y-55750000D03*
D22*
X61900000Y-61875000D03*
X61900000Y-59125000D03*
D20*
X63350000Y-67100000D03*
X64850000Y-67100000D03*
X64850000Y-65500000D03*
X63350000Y-65500000D03*
X67350000Y-55700000D03*
X68850000Y-55700000D03*
D19*
X65600000Y-56750000D03*
X65600000Y-55250000D03*
X60400000Y-65450000D03*
X60400000Y-66950000D03*
X62000000Y-65450000D03*
X62000000Y-66950000D03*
D20*
X70250000Y-54000000D03*
X71750000Y-54000000D03*
D23*
X70850000Y-64200000D03*
X72350000Y-64200000D03*
X59450000Y-57600000D03*
X57950000Y-57600000D03*
X59450000Y-56000000D03*
X57950000Y-56000000D03*
D24*
X56400000Y-59250000D03*
X56400000Y-60750000D03*
X86600000Y-67250000D03*
X86600000Y-65750000D03*
D23*
X67450000Y-54000000D03*
X68950000Y-54000000D03*
X70150000Y-55700000D03*
X71650000Y-55700000D03*
D25*
X71900000Y-65800000D03*
X69700000Y-65800000D03*
X71900000Y-67400000D03*
X69700000Y-67400000D03*
D26*
X51300000Y-51300000D03*
D27*
X53840000Y-51300000D03*
X56380000Y-51300000D03*
X58920000Y-51300000D03*
X61460000Y-51300000D03*
X64000000Y-51300000D03*
X66540000Y-51300000D03*
X69080000Y-51300000D03*
X71620000Y-51300000D03*
X74160000Y-51300000D03*
X76700000Y-51300000D03*
X79240000Y-51300000D03*
X81780000Y-51300000D03*
X84320000Y-51300000D03*
D26*
X51300000Y-69700000D03*
D27*
X53840000Y-69700000D03*
X56380000Y-69700000D03*
X58920000Y-69700000D03*
X61460000Y-69700000D03*
X64000000Y-69700000D03*
X66540000Y-69700000D03*
X69080000Y-69700000D03*
X71620000Y-69700000D03*
X74160000Y-69700000D03*
X76700000Y-69700000D03*
X79240000Y-69700000D03*
X81780000Y-69700000D03*
X84320000Y-69700000D03*
M02*
