G04 #@! TF.FileFunction,Copper,L2,Bot,Signal*
%FSLAX46Y46*%
G04 Gerber Fmt 4.6, Leading zero omitted, Abs format (unit mm)*
G04 Created by KiCad (PCBNEW 4.0.7-e2-6376~61~ubuntu18.04.1) date Sun Sep 30 15:28:24 2018*
%MOMM*%
%LPD*%
G01*
G04 APERTURE LIST*
%ADD10C,0.100000*%
%ADD11O,1.250000X1.250000*%
%ADD12O,1.550000X1.800000*%
%ADD13R,0.320000X3.000000*%
%ADD14R,1.700000X1.700000*%
%ADD15O,1.700000X1.700000*%
%ADD16C,0.600000*%
%ADD17C,0.240000*%
%ADD18C,0.254000*%
G04 APERTURE END LIST*
D10*
D11*
X54162540Y-54599100D03*
X54162540Y-59599100D03*
D12*
X51462540Y-53599100D03*
X51462540Y-60599100D03*
D13*
X55700000Y-60500000D03*
X56320000Y-60500000D03*
X56940000Y-60500000D03*
X57560000Y-60500000D03*
X58180000Y-60500000D03*
X58800000Y-60500000D03*
X59420000Y-60500000D03*
X60040000Y-60500000D03*
X60660000Y-60500000D03*
X61280000Y-60500000D03*
X61900000Y-60500000D03*
X62520000Y-60500000D03*
X63140000Y-60500000D03*
X63760000Y-60500000D03*
D14*
X51300000Y-51300000D03*
D15*
X53840000Y-51300000D03*
X56380000Y-51300000D03*
X58920000Y-51300000D03*
X61460000Y-51300000D03*
X64000000Y-51300000D03*
X66540000Y-51300000D03*
X69080000Y-51300000D03*
X71620000Y-51300000D03*
X74160000Y-51300000D03*
X76700000Y-51300000D03*
X79240000Y-51300000D03*
X81780000Y-51300000D03*
X84320000Y-51300000D03*
D14*
X51300000Y-69700000D03*
D15*
X53840000Y-69700000D03*
X56380000Y-69700000D03*
X58920000Y-69700000D03*
X61460000Y-69700000D03*
X64000000Y-69700000D03*
X66540000Y-69700000D03*
X69080000Y-69700000D03*
X71620000Y-69700000D03*
X74160000Y-69700000D03*
X76700000Y-69700000D03*
X79240000Y-69700000D03*
X81780000Y-69700000D03*
X84320000Y-69700000D03*
D16*
X89700000Y-57900000D03*
X89700000Y-51300000D03*
X53800000Y-63600000D03*
X77500000Y-59100000D03*
X67000000Y-59600000D03*
X51700000Y-56100000D03*
X84780600Y-59418600D03*
X87836900Y-63711700D03*
X76759800Y-62643900D03*
X72659300Y-53592100D03*
X70329000Y-63308300D03*
X75967200Y-63154600D03*
X81337300Y-59719700D03*
X88266600Y-64796600D03*
X67780200Y-57058300D03*
X60319100Y-63919200D03*
X75105800Y-62017900D03*
X64122600Y-56350600D03*
X64724200Y-56930500D03*
X56329500Y-65563500D03*
X59452400Y-66498700D03*
X62022000Y-64538500D03*
X61054900Y-64621300D03*
X66824300Y-56909700D03*
X80956200Y-63978600D03*
X66272500Y-62228300D03*
X75092300Y-66210700D03*
X62318800Y-67977300D03*
X63503200Y-63791600D03*
X73129300Y-66544900D03*
X63246000Y-56327900D03*
X80756000Y-65003200D03*
X83055500Y-63200400D03*
X83287200Y-57922000D03*
X82666800Y-57303000D03*
X81923300Y-56597200D03*
X80524400Y-55895700D03*
X85241900Y-56290400D03*
X74477000Y-61380600D03*
X74338100Y-59618000D03*
X71887300Y-57626100D03*
X70848700Y-58798100D03*
X78654900Y-65437600D03*
X78967800Y-56716400D03*
X77745900Y-64935600D03*
X84693300Y-65248300D03*
X85599500Y-64517500D03*
X80375800Y-60760300D03*
D17*
X89700000Y-51300000D02*
X89700000Y-57900000D01*
X88181400Y-59418600D02*
X89700000Y-57900000D01*
X88181400Y-59418600D02*
X84780600Y-59418600D01*
X53840000Y-69700000D02*
X53840000Y-63640000D01*
X53840000Y-63640000D02*
X53800000Y-63600000D01*
X76759800Y-62643900D02*
X76759800Y-59840200D01*
X76759800Y-59840200D02*
X77500000Y-59100000D01*
X53840000Y-51300000D02*
X53840000Y-52760000D01*
X52900000Y-54900000D02*
X51700000Y-56100000D01*
X52900000Y-53700000D02*
X52900000Y-54900000D01*
X53840000Y-52760000D02*
X52900000Y-53700000D01*
X69080000Y-51300000D02*
X71372100Y-53592100D01*
X71372100Y-53592100D02*
X72659300Y-53592100D01*
X53840000Y-51300000D02*
X53840000Y-52470300D01*
X53840000Y-69700000D02*
X53840000Y-68529700D01*
X55406800Y-54037100D02*
X55406800Y-58679000D01*
X53840000Y-52470300D02*
X55406800Y-54037100D01*
X55219600Y-58866200D02*
X55406800Y-58679000D01*
X55219600Y-67150100D02*
X55219600Y-58866200D01*
X53840000Y-68529700D02*
X55219600Y-67150100D01*
X59419300Y-58679000D02*
X59420000Y-58679700D01*
X55406800Y-58679000D02*
X59419300Y-58679000D01*
X59420000Y-60500000D02*
X59420000Y-58679700D01*
X84780600Y-60655400D02*
X84780600Y-59418600D01*
X87836900Y-63711700D02*
X84780600Y-60655400D01*
X76759800Y-56776500D02*
X76759800Y-62643900D01*
X75843700Y-56776500D02*
X76759800Y-56776500D01*
X72659300Y-53592100D02*
X75843700Y-56776500D01*
X84256900Y-58894900D02*
X84780600Y-59418600D01*
X82430600Y-58894900D02*
X84256900Y-58894900D01*
X79626600Y-56090900D02*
X82430600Y-58894900D01*
X77445400Y-56090900D02*
X79626600Y-56090900D01*
X76759800Y-56776500D02*
X77445400Y-56090900D01*
X75813500Y-63308300D02*
X75967200Y-63154600D01*
X70329000Y-63308300D02*
X75813500Y-63308300D01*
X88044600Y-64796600D02*
X88266600Y-64796600D01*
X82967700Y-59719700D02*
X88044600Y-64796600D01*
X81337300Y-59719700D02*
X82967700Y-59719700D01*
X58920000Y-51300000D02*
X58920000Y-52470300D01*
X58180000Y-60500000D02*
X58180000Y-62320300D01*
X60040000Y-60500000D02*
X60040000Y-58679700D01*
X60040000Y-60500000D02*
X60040000Y-62320300D01*
X58180000Y-62320300D02*
X60040000Y-62320300D01*
X60040000Y-63640100D02*
X60319100Y-63919200D01*
X60040000Y-62320300D02*
X60040000Y-63640100D01*
X70168100Y-59446200D02*
X67780200Y-57058300D01*
X71484200Y-59446200D02*
X70168100Y-59446200D01*
X74055900Y-62017900D02*
X71484200Y-59446200D01*
X75105800Y-62017900D02*
X74055900Y-62017900D01*
X60152800Y-53703100D02*
X58920000Y-52470300D01*
X66631000Y-53703100D02*
X60152800Y-53703100D01*
X71484200Y-58556300D02*
X66631000Y-53703100D01*
X71484200Y-59446200D02*
X71484200Y-58556300D01*
X60040000Y-57990400D02*
X60040000Y-58679700D01*
X62763100Y-55267300D02*
X60040000Y-57990400D01*
X66116000Y-55267300D02*
X62763100Y-55267300D01*
X67780200Y-56931500D02*
X66116000Y-55267300D01*
X67780200Y-57058300D02*
X67780200Y-56931500D01*
X63140000Y-57333200D02*
X64122600Y-56350600D01*
X63140000Y-60500000D02*
X63140000Y-57333200D01*
X63760000Y-60500000D02*
X63760000Y-58679700D01*
X64724200Y-57715500D02*
X64724200Y-56930500D01*
X63760000Y-58679700D02*
X64724200Y-57715500D01*
X55700000Y-64934000D02*
X55700000Y-60500000D01*
X56329500Y-65563500D02*
X55700000Y-64934000D01*
X56320000Y-63366300D02*
X56320000Y-60500000D01*
X59452400Y-66498700D02*
X56320000Y-63366300D01*
X56940000Y-62389400D02*
X56940000Y-60500000D01*
X59835500Y-65284900D02*
X56940000Y-62389400D01*
X61275600Y-65284900D02*
X59835500Y-65284900D01*
X62022000Y-64538500D02*
X61275600Y-65284900D01*
X57560000Y-62354800D02*
X57560000Y-60500000D01*
X59826500Y-64621300D02*
X57560000Y-62354800D01*
X61054900Y-64621300D02*
X59826500Y-64621300D01*
X60660000Y-60500000D02*
X60660000Y-58679700D01*
X60660000Y-57997100D02*
X60660000Y-58679700D01*
X62949500Y-55707600D02*
X60660000Y-57997100D01*
X65622200Y-55707600D02*
X62949500Y-55707600D01*
X66824300Y-56909700D02*
X65622200Y-55707600D01*
X68002100Y-63957900D02*
X66272500Y-62228300D01*
X72353600Y-63957900D02*
X68002100Y-63957900D01*
X72456900Y-63854600D02*
X72353600Y-63957900D01*
X80832200Y-63854600D02*
X72456900Y-63854600D01*
X80956200Y-63978600D02*
X80832200Y-63854600D01*
X64000000Y-69700000D02*
X66524900Y-67175100D01*
X66524900Y-67175100D02*
X74127900Y-67175100D01*
X74127900Y-67175100D02*
X75092300Y-66210700D01*
X61280000Y-60500000D02*
X61280000Y-62320300D01*
X75230000Y-66073000D02*
X75092300Y-66210700D01*
X78959200Y-66073000D02*
X75230000Y-66073000D01*
X79294400Y-65737800D02*
X78959200Y-66073000D01*
X79294400Y-65185900D02*
X79294400Y-65737800D01*
X78420500Y-64312000D02*
X79294400Y-65185900D01*
X72804600Y-64312000D02*
X78420500Y-64312000D01*
X72684200Y-64432400D02*
X72804600Y-64312000D01*
X63255300Y-64432400D02*
X72684200Y-64432400D01*
X61280000Y-62457100D02*
X63255300Y-64432400D01*
X61280000Y-62320300D02*
X61280000Y-62457100D01*
X61460000Y-69700000D02*
X61460000Y-68836100D01*
X61460000Y-68836100D02*
X62318800Y-67977300D01*
X61900000Y-60500000D02*
X61900000Y-62320300D01*
X63371300Y-63791600D02*
X63503200Y-63791600D01*
X61900000Y-62320300D02*
X63371300Y-63791600D01*
X63751200Y-66544900D02*
X73129300Y-66544900D01*
X62318800Y-67977300D02*
X63751200Y-66544900D01*
X62520000Y-57053900D02*
X62520000Y-60500000D01*
X63246000Y-56327900D02*
X62520000Y-57053900D01*
X66540000Y-69700000D02*
X68624600Y-67615400D01*
X68624600Y-67615400D02*
X74565100Y-67615400D01*
X74565100Y-67615400D02*
X75557100Y-66623400D01*
X75557100Y-66623400D02*
X79135800Y-66623400D01*
X79135800Y-66623400D02*
X80756000Y-65003200D01*
X69080000Y-69700000D02*
X70724300Y-68055700D01*
X70724300Y-68055700D02*
X74747500Y-68055700D01*
X74747500Y-68055700D02*
X75739400Y-67063800D01*
X75739400Y-67063800D02*
X79572700Y-67063800D01*
X79572700Y-67063800D02*
X83055500Y-63581000D01*
X83055500Y-63581000D02*
X83055500Y-63200400D01*
X79240000Y-51300000D02*
X79240000Y-52470300D01*
X83287200Y-56444400D02*
X83287200Y-57922000D01*
X79313100Y-52470300D02*
X83287200Y-56444400D01*
X79240000Y-52470300D02*
X79313100Y-52470300D01*
X76700000Y-51300000D02*
X76700000Y-52502081D01*
X76700000Y-52502081D02*
X78630009Y-54432090D01*
X78630009Y-54432090D02*
X80640990Y-54432090D01*
X80640990Y-54432090D02*
X82666700Y-56457800D01*
X82666700Y-56457800D02*
X82666700Y-57303000D01*
X82666700Y-57303000D02*
X82666800Y-57303000D01*
X74160000Y-51300000D02*
X77732100Y-54872100D01*
X77732100Y-54872100D02*
X80398900Y-54872100D01*
X80398900Y-54872100D02*
X81923300Y-56396500D01*
X81923300Y-56396500D02*
X81923300Y-56597200D01*
X71620000Y-51300000D02*
X75632500Y-55312500D01*
X75632500Y-55312500D02*
X79941200Y-55312500D01*
X79941200Y-55312500D02*
X80524400Y-55895700D01*
X85241900Y-55932200D02*
X85241900Y-56290400D01*
X81780000Y-52470300D02*
X85241900Y-55932200D01*
X81780000Y-51300000D02*
X81780000Y-52470300D01*
X72300000Y-56538600D02*
X75012100Y-59250700D01*
X71778600Y-56538600D02*
X72300000Y-56538600D01*
X66540000Y-51300000D02*
X71778600Y-56538600D01*
X75012100Y-59250700D02*
X75012100Y-60845500D01*
X75012100Y-60845500D02*
X74477000Y-61380600D01*
X72138500Y-57000000D02*
X74338100Y-59199600D01*
X67145350Y-52823082D02*
X71322268Y-57000000D01*
X71322268Y-57000000D02*
X72138500Y-57000000D01*
X64000000Y-51300000D02*
X65523081Y-52823081D01*
X65523081Y-52823081D02*
X67145350Y-52823082D01*
X74338100Y-59199600D02*
X74338100Y-59618000D01*
X61460000Y-51300000D02*
X63423090Y-53263090D01*
X63423090Y-53263090D02*
X66963091Y-53263091D01*
X66963091Y-53263091D02*
X71326100Y-57626100D01*
X71326100Y-57626100D02*
X71887300Y-57626100D01*
X56380000Y-51300000D02*
X59223110Y-54143110D01*
X59223110Y-54143110D02*
X66193710Y-54143110D01*
X66193710Y-54143110D02*
X66421900Y-54371300D01*
X66421900Y-54371300D02*
X70848700Y-58798100D01*
X58920000Y-69700000D02*
X59769999Y-68850001D01*
X60568899Y-68850001D02*
X63828500Y-65590400D01*
X78502100Y-65590400D02*
X78654900Y-65437600D01*
X59769999Y-68850001D02*
X60568899Y-68850001D01*
X63828500Y-65590400D02*
X78502100Y-65590400D01*
X71620000Y-69700000D02*
X72790300Y-68529700D01*
X72790300Y-68529700D02*
X75519100Y-68529700D01*
X83679800Y-63579400D02*
X83679800Y-62937900D01*
X75519100Y-68529700D02*
X76399900Y-67648900D01*
X76399900Y-67648900D02*
X79610300Y-67648900D01*
X79610300Y-67648900D02*
X83679800Y-63579400D01*
X83679800Y-62937900D02*
X82829300Y-62087400D01*
X78967900Y-60250500D02*
X78967900Y-56716400D01*
X82829300Y-62087400D02*
X80804800Y-62087400D01*
X80804800Y-62087400D02*
X78967900Y-60250500D01*
X78967900Y-56716400D02*
X78967800Y-56716400D01*
X56380000Y-69700000D02*
X58080000Y-68000000D01*
X58957600Y-68000000D02*
X60893700Y-66063900D01*
X58080000Y-68000000D02*
X58957600Y-68000000D01*
X60893700Y-66063900D02*
X61516300Y-66063900D01*
X61516300Y-66063900D02*
X62644600Y-64935600D01*
X62644600Y-64935600D02*
X77745900Y-64935600D01*
X74160000Y-69700000D02*
X75362081Y-69700000D01*
X75362081Y-69700000D02*
X75529999Y-69532082D01*
X75529999Y-69214901D02*
X76655600Y-68089300D01*
X75529999Y-69532082D02*
X75529999Y-69214901D01*
X79792600Y-68089300D02*
X82633600Y-65248300D01*
X76655600Y-68089300D02*
X79792600Y-68089300D01*
X82633600Y-65248300D02*
X84693300Y-65248300D01*
X76700000Y-69700000D02*
X77870300Y-68529700D01*
X77870300Y-68529700D02*
X80059300Y-68529700D01*
X80059300Y-68529700D02*
X82526400Y-66062600D01*
X85599500Y-65240100D02*
X85599500Y-64517500D01*
X82526400Y-66062600D02*
X84777000Y-66062600D01*
X84777000Y-66062600D02*
X85599500Y-65240100D01*
X79240000Y-69700000D02*
X80124200Y-69700000D01*
X80124200Y-69700000D02*
X82818400Y-67005800D01*
X82818400Y-67005800D02*
X84477200Y-67005800D01*
X84477200Y-67005800D02*
X86246700Y-65236300D01*
X86246700Y-65236300D02*
X86246700Y-64254100D01*
X86246700Y-64254100D02*
X82752900Y-60760300D01*
X82752900Y-60760300D02*
X80375800Y-60760300D01*
D18*
G36*
X93315000Y-70315000D02*
X85680186Y-70315000D01*
X85691961Y-70297378D01*
X85805000Y-69729093D01*
X85805000Y-69670907D01*
X85691961Y-69102622D01*
X85370054Y-68620853D01*
X84888285Y-68298946D01*
X84320000Y-68185907D01*
X83751715Y-68298946D01*
X83269946Y-68620853D01*
X83050000Y-68950026D01*
X82830054Y-68620853D01*
X82494972Y-68396959D01*
X83131131Y-67760800D01*
X84477195Y-67760800D01*
X84477200Y-67760801D01*
X84766126Y-67703329D01*
X85011066Y-67539666D01*
X86780566Y-65770166D01*
X86944229Y-65525226D01*
X87001701Y-65236300D01*
X87001700Y-65236295D01*
X87001700Y-64821432D01*
X87450720Y-65270452D01*
X87473483Y-65325543D01*
X87736273Y-65588792D01*
X88079801Y-65731438D01*
X88451767Y-65731762D01*
X88795543Y-65589717D01*
X89058792Y-65326927D01*
X89201438Y-64983399D01*
X89201762Y-64611433D01*
X89059717Y-64267657D01*
X88796927Y-64004408D01*
X88453399Y-63861762D01*
X88177253Y-63861521D01*
X83501566Y-59185834D01*
X83256626Y-59022171D01*
X82967700Y-58964699D01*
X82967695Y-58964700D01*
X81904754Y-58964700D01*
X81867627Y-58927508D01*
X81524099Y-58784862D01*
X81152133Y-58784538D01*
X80808357Y-58926583D01*
X80545108Y-59189373D01*
X80402462Y-59532901D01*
X80402207Y-59825322D01*
X80190633Y-59825138D01*
X79846857Y-59967183D01*
X79799545Y-60014413D01*
X79722900Y-59937768D01*
X79722900Y-57283754D01*
X79759992Y-57246727D01*
X79902638Y-56903199D01*
X79902905Y-56596565D01*
X79994073Y-56687892D01*
X80337601Y-56830538D01*
X80709567Y-56830862D01*
X80988196Y-56715735D01*
X80988138Y-56782367D01*
X81130183Y-57126143D01*
X81392973Y-57389392D01*
X81736501Y-57532038D01*
X81749770Y-57532050D01*
X81873683Y-57831943D01*
X82136473Y-58095192D01*
X82390710Y-58200761D01*
X82494083Y-58450943D01*
X82756873Y-58714192D01*
X83100401Y-58856838D01*
X83472367Y-58857162D01*
X83816143Y-58715117D01*
X84079392Y-58452327D01*
X84222038Y-58108799D01*
X84222362Y-57736833D01*
X84080317Y-57393057D01*
X84042200Y-57354873D01*
X84042200Y-56444400D01*
X83984729Y-56155474D01*
X83821066Y-55910534D01*
X80289829Y-52379297D01*
X80290054Y-52379147D01*
X80510000Y-52049974D01*
X80729946Y-52379147D01*
X81049315Y-52592542D01*
X81082471Y-52759226D01*
X81246134Y-53004166D01*
X84318360Y-56076392D01*
X84307062Y-56103601D01*
X84306738Y-56475567D01*
X84448783Y-56819343D01*
X84711573Y-57082592D01*
X85055101Y-57225238D01*
X85427067Y-57225562D01*
X85770843Y-57083517D01*
X86034092Y-56820727D01*
X86176738Y-56477199D01*
X86177062Y-56105233D01*
X86035017Y-55761457D01*
X85945000Y-55671283D01*
X85939429Y-55643274D01*
X85775766Y-55398334D01*
X82786009Y-52408577D01*
X82830054Y-52379147D01*
X83050000Y-52049974D01*
X83269946Y-52379147D01*
X83751715Y-52701054D01*
X84320000Y-52814093D01*
X84888285Y-52701054D01*
X85370054Y-52379147D01*
X85691961Y-51897378D01*
X85805000Y-51329093D01*
X85805000Y-51270907D01*
X85691961Y-50702622D01*
X85680186Y-50685000D01*
X93315000Y-50685000D01*
X93315000Y-70315000D01*
X93315000Y-70315000D01*
G37*
X93315000Y-70315000D02*
X85680186Y-70315000D01*
X85691961Y-70297378D01*
X85805000Y-69729093D01*
X85805000Y-69670907D01*
X85691961Y-69102622D01*
X85370054Y-68620853D01*
X84888285Y-68298946D01*
X84320000Y-68185907D01*
X83751715Y-68298946D01*
X83269946Y-68620853D01*
X83050000Y-68950026D01*
X82830054Y-68620853D01*
X82494972Y-68396959D01*
X83131131Y-67760800D01*
X84477195Y-67760800D01*
X84477200Y-67760801D01*
X84766126Y-67703329D01*
X85011066Y-67539666D01*
X86780566Y-65770166D01*
X86944229Y-65525226D01*
X87001701Y-65236300D01*
X87001700Y-65236295D01*
X87001700Y-64821432D01*
X87450720Y-65270452D01*
X87473483Y-65325543D01*
X87736273Y-65588792D01*
X88079801Y-65731438D01*
X88451767Y-65731762D01*
X88795543Y-65589717D01*
X89058792Y-65326927D01*
X89201438Y-64983399D01*
X89201762Y-64611433D01*
X89059717Y-64267657D01*
X88796927Y-64004408D01*
X88453399Y-63861762D01*
X88177253Y-63861521D01*
X83501566Y-59185834D01*
X83256626Y-59022171D01*
X82967700Y-58964699D01*
X82967695Y-58964700D01*
X81904754Y-58964700D01*
X81867627Y-58927508D01*
X81524099Y-58784862D01*
X81152133Y-58784538D01*
X80808357Y-58926583D01*
X80545108Y-59189373D01*
X80402462Y-59532901D01*
X80402207Y-59825322D01*
X80190633Y-59825138D01*
X79846857Y-59967183D01*
X79799545Y-60014413D01*
X79722900Y-59937768D01*
X79722900Y-57283754D01*
X79759992Y-57246727D01*
X79902638Y-56903199D01*
X79902905Y-56596565D01*
X79994073Y-56687892D01*
X80337601Y-56830538D01*
X80709567Y-56830862D01*
X80988196Y-56715735D01*
X80988138Y-56782367D01*
X81130183Y-57126143D01*
X81392973Y-57389392D01*
X81736501Y-57532038D01*
X81749770Y-57532050D01*
X81873683Y-57831943D01*
X82136473Y-58095192D01*
X82390710Y-58200761D01*
X82494083Y-58450943D01*
X82756873Y-58714192D01*
X83100401Y-58856838D01*
X83472367Y-58857162D01*
X83816143Y-58715117D01*
X84079392Y-58452327D01*
X84222038Y-58108799D01*
X84222362Y-57736833D01*
X84080317Y-57393057D01*
X84042200Y-57354873D01*
X84042200Y-56444400D01*
X83984729Y-56155474D01*
X83821066Y-55910534D01*
X80289829Y-52379297D01*
X80290054Y-52379147D01*
X80510000Y-52049974D01*
X80729946Y-52379147D01*
X81049315Y-52592542D01*
X81082471Y-52759226D01*
X81246134Y-53004166D01*
X84318360Y-56076392D01*
X84307062Y-56103601D01*
X84306738Y-56475567D01*
X84448783Y-56819343D01*
X84711573Y-57082592D01*
X85055101Y-57225238D01*
X85427067Y-57225562D01*
X85770843Y-57083517D01*
X86034092Y-56820727D01*
X86176738Y-56477199D01*
X86177062Y-56105233D01*
X86035017Y-55761457D01*
X85945000Y-55671283D01*
X85939429Y-55643274D01*
X85775766Y-55398334D01*
X82786009Y-52408577D01*
X82830054Y-52379147D01*
X83050000Y-52049974D01*
X83269946Y-52379147D01*
X83751715Y-52701054D01*
X84320000Y-52814093D01*
X84888285Y-52701054D01*
X85370054Y-52379147D01*
X85691961Y-51897378D01*
X85805000Y-51329093D01*
X85805000Y-51270907D01*
X85691961Y-50702622D01*
X85680186Y-50685000D01*
X93315000Y-50685000D01*
X93315000Y-70315000D01*
G36*
X53967000Y-51173000D02*
X53987000Y-51173000D01*
X53987000Y-51427000D01*
X53967000Y-51427000D01*
X53967000Y-52620155D01*
X54196890Y-52741476D01*
X54606924Y-52571645D01*
X55035183Y-52181358D01*
X55102298Y-52038447D01*
X55329946Y-52379147D01*
X55811715Y-52701054D01*
X56380000Y-52814093D01*
X56752305Y-52740037D01*
X58689242Y-54676973D01*
X58689244Y-54676976D01*
X58841387Y-54778634D01*
X58934184Y-54840639D01*
X59223110Y-54898111D01*
X59223115Y-54898110D01*
X62064558Y-54898110D01*
X59506134Y-57456534D01*
X59342471Y-57701474D01*
X59284999Y-57990400D01*
X59285000Y-57990405D01*
X59285000Y-58453523D01*
X59236924Y-58420674D01*
X59181250Y-58365000D01*
X59133691Y-58365000D01*
X59096829Y-58380269D01*
X58960000Y-58352560D01*
X58640000Y-58352560D01*
X58484493Y-58381821D01*
X58340000Y-58352560D01*
X58020000Y-58352560D01*
X57864493Y-58381821D01*
X57720000Y-58352560D01*
X57400000Y-58352560D01*
X57244493Y-58381821D01*
X57100000Y-58352560D01*
X56780000Y-58352560D01*
X56624493Y-58381821D01*
X56480000Y-58352560D01*
X56160000Y-58352560D01*
X56004493Y-58381821D01*
X55860000Y-58352560D01*
X55540000Y-58352560D01*
X55304683Y-58396838D01*
X55088559Y-58535910D01*
X55004510Y-58658920D01*
X54669406Y-58435012D01*
X54187225Y-58339100D01*
X54137855Y-58339100D01*
X53655674Y-58435012D01*
X53246900Y-58708145D01*
X52973767Y-59116919D01*
X52877855Y-59599100D01*
X52973767Y-60081281D01*
X53246900Y-60490055D01*
X53655674Y-60763188D01*
X54137855Y-60859100D01*
X54187225Y-60859100D01*
X54669406Y-60763188D01*
X54892560Y-60614082D01*
X54892560Y-62000000D01*
X54936838Y-62235317D01*
X54945000Y-62248001D01*
X54945000Y-64933995D01*
X54944999Y-64934000D01*
X55002471Y-65222926D01*
X55166134Y-65467866D01*
X55394384Y-65696115D01*
X55394338Y-65748667D01*
X55536383Y-66092443D01*
X55799173Y-66355692D01*
X56142701Y-66498338D01*
X56514667Y-66498662D01*
X56858443Y-66356617D01*
X57121692Y-66093827D01*
X57264338Y-65750299D01*
X57264662Y-65378693D01*
X58517284Y-66631315D01*
X58517238Y-66683867D01*
X58659283Y-67027643D01*
X58760665Y-67129203D01*
X58644868Y-67245000D01*
X58080000Y-67245000D01*
X57791074Y-67302471D01*
X57546134Y-67466134D01*
X56752305Y-68259963D01*
X56380000Y-68185907D01*
X55811715Y-68298946D01*
X55329946Y-68620853D01*
X55102298Y-68961553D01*
X55035183Y-68818642D01*
X54606924Y-68428355D01*
X54196890Y-68258524D01*
X53967000Y-68379845D01*
X53967000Y-69573000D01*
X53987000Y-69573000D01*
X53987000Y-69827000D01*
X53967000Y-69827000D01*
X53967000Y-69847000D01*
X53713000Y-69847000D01*
X53713000Y-69827000D01*
X53693000Y-69827000D01*
X53693000Y-69573000D01*
X53713000Y-69573000D01*
X53713000Y-68379845D01*
X53483110Y-68258524D01*
X53073076Y-68428355D01*
X52770063Y-68704501D01*
X52753162Y-68614683D01*
X52614090Y-68398559D01*
X52401890Y-68253569D01*
X52150000Y-68202560D01*
X50685000Y-68202560D01*
X50685000Y-61897845D01*
X50922956Y-62056842D01*
X51462540Y-62164172D01*
X52002124Y-62056842D01*
X52459561Y-61751193D01*
X52765210Y-61293756D01*
X52872540Y-60754172D01*
X52872540Y-60444028D01*
X52765210Y-59904444D01*
X52459561Y-59447007D01*
X52002124Y-59141358D01*
X51462540Y-59034028D01*
X50922956Y-59141358D01*
X50685000Y-59300355D01*
X50685000Y-54897845D01*
X50922956Y-55056842D01*
X51462540Y-55164172D01*
X52002124Y-55056842D01*
X52459561Y-54751193D01*
X52561186Y-54599100D01*
X52877855Y-54599100D01*
X52973767Y-55081281D01*
X53246900Y-55490055D01*
X53655674Y-55763188D01*
X54137855Y-55859100D01*
X54187225Y-55859100D01*
X54669406Y-55763188D01*
X55078180Y-55490055D01*
X55351313Y-55081281D01*
X55447225Y-54599100D01*
X55351313Y-54116919D01*
X55078180Y-53708145D01*
X54669406Y-53435012D01*
X54187225Y-53339100D01*
X54137855Y-53339100D01*
X53655674Y-53435012D01*
X53246900Y-53708145D01*
X52973767Y-54116919D01*
X52877855Y-54599100D01*
X52561186Y-54599100D01*
X52765210Y-54293756D01*
X52872540Y-53754172D01*
X52872540Y-53444028D01*
X52765210Y-52904444D01*
X52580294Y-52627698D01*
X52601441Y-52614090D01*
X52746431Y-52401890D01*
X52768301Y-52293893D01*
X53073076Y-52571645D01*
X53483110Y-52741476D01*
X53713000Y-52620155D01*
X53713000Y-51427000D01*
X53693000Y-51427000D01*
X53693000Y-51173000D01*
X53713000Y-51173000D01*
X53713000Y-51153000D01*
X53967000Y-51153000D01*
X53967000Y-51173000D01*
X53967000Y-51173000D01*
G37*
X53967000Y-51173000D02*
X53987000Y-51173000D01*
X53987000Y-51427000D01*
X53967000Y-51427000D01*
X53967000Y-52620155D01*
X54196890Y-52741476D01*
X54606924Y-52571645D01*
X55035183Y-52181358D01*
X55102298Y-52038447D01*
X55329946Y-52379147D01*
X55811715Y-52701054D01*
X56380000Y-52814093D01*
X56752305Y-52740037D01*
X58689242Y-54676973D01*
X58689244Y-54676976D01*
X58841387Y-54778634D01*
X58934184Y-54840639D01*
X59223110Y-54898111D01*
X59223115Y-54898110D01*
X62064558Y-54898110D01*
X59506134Y-57456534D01*
X59342471Y-57701474D01*
X59284999Y-57990400D01*
X59285000Y-57990405D01*
X59285000Y-58453523D01*
X59236924Y-58420674D01*
X59181250Y-58365000D01*
X59133691Y-58365000D01*
X59096829Y-58380269D01*
X58960000Y-58352560D01*
X58640000Y-58352560D01*
X58484493Y-58381821D01*
X58340000Y-58352560D01*
X58020000Y-58352560D01*
X57864493Y-58381821D01*
X57720000Y-58352560D01*
X57400000Y-58352560D01*
X57244493Y-58381821D01*
X57100000Y-58352560D01*
X56780000Y-58352560D01*
X56624493Y-58381821D01*
X56480000Y-58352560D01*
X56160000Y-58352560D01*
X56004493Y-58381821D01*
X55860000Y-58352560D01*
X55540000Y-58352560D01*
X55304683Y-58396838D01*
X55088559Y-58535910D01*
X55004510Y-58658920D01*
X54669406Y-58435012D01*
X54187225Y-58339100D01*
X54137855Y-58339100D01*
X53655674Y-58435012D01*
X53246900Y-58708145D01*
X52973767Y-59116919D01*
X52877855Y-59599100D01*
X52973767Y-60081281D01*
X53246900Y-60490055D01*
X53655674Y-60763188D01*
X54137855Y-60859100D01*
X54187225Y-60859100D01*
X54669406Y-60763188D01*
X54892560Y-60614082D01*
X54892560Y-62000000D01*
X54936838Y-62235317D01*
X54945000Y-62248001D01*
X54945000Y-64933995D01*
X54944999Y-64934000D01*
X55002471Y-65222926D01*
X55166134Y-65467866D01*
X55394384Y-65696115D01*
X55394338Y-65748667D01*
X55536383Y-66092443D01*
X55799173Y-66355692D01*
X56142701Y-66498338D01*
X56514667Y-66498662D01*
X56858443Y-66356617D01*
X57121692Y-66093827D01*
X57264338Y-65750299D01*
X57264662Y-65378693D01*
X58517284Y-66631315D01*
X58517238Y-66683867D01*
X58659283Y-67027643D01*
X58760665Y-67129203D01*
X58644868Y-67245000D01*
X58080000Y-67245000D01*
X57791074Y-67302471D01*
X57546134Y-67466134D01*
X56752305Y-68259963D01*
X56380000Y-68185907D01*
X55811715Y-68298946D01*
X55329946Y-68620853D01*
X55102298Y-68961553D01*
X55035183Y-68818642D01*
X54606924Y-68428355D01*
X54196890Y-68258524D01*
X53967000Y-68379845D01*
X53967000Y-69573000D01*
X53987000Y-69573000D01*
X53987000Y-69827000D01*
X53967000Y-69827000D01*
X53967000Y-69847000D01*
X53713000Y-69847000D01*
X53713000Y-69827000D01*
X53693000Y-69827000D01*
X53693000Y-69573000D01*
X53713000Y-69573000D01*
X53713000Y-68379845D01*
X53483110Y-68258524D01*
X53073076Y-68428355D01*
X52770063Y-68704501D01*
X52753162Y-68614683D01*
X52614090Y-68398559D01*
X52401890Y-68253569D01*
X52150000Y-68202560D01*
X50685000Y-68202560D01*
X50685000Y-61897845D01*
X50922956Y-62056842D01*
X51462540Y-62164172D01*
X52002124Y-62056842D01*
X52459561Y-61751193D01*
X52765210Y-61293756D01*
X52872540Y-60754172D01*
X52872540Y-60444028D01*
X52765210Y-59904444D01*
X52459561Y-59447007D01*
X52002124Y-59141358D01*
X51462540Y-59034028D01*
X50922956Y-59141358D01*
X50685000Y-59300355D01*
X50685000Y-54897845D01*
X50922956Y-55056842D01*
X51462540Y-55164172D01*
X52002124Y-55056842D01*
X52459561Y-54751193D01*
X52561186Y-54599100D01*
X52877855Y-54599100D01*
X52973767Y-55081281D01*
X53246900Y-55490055D01*
X53655674Y-55763188D01*
X54137855Y-55859100D01*
X54187225Y-55859100D01*
X54669406Y-55763188D01*
X55078180Y-55490055D01*
X55351313Y-55081281D01*
X55447225Y-54599100D01*
X55351313Y-54116919D01*
X55078180Y-53708145D01*
X54669406Y-53435012D01*
X54187225Y-53339100D01*
X54137855Y-53339100D01*
X53655674Y-53435012D01*
X53246900Y-53708145D01*
X52973767Y-54116919D01*
X52877855Y-54599100D01*
X52561186Y-54599100D01*
X52765210Y-54293756D01*
X52872540Y-53754172D01*
X52872540Y-53444028D01*
X52765210Y-52904444D01*
X52580294Y-52627698D01*
X52601441Y-52614090D01*
X52746431Y-52401890D01*
X52768301Y-52293893D01*
X53073076Y-52571645D01*
X53483110Y-52741476D01*
X53713000Y-52620155D01*
X53713000Y-51427000D01*
X53693000Y-51427000D01*
X53693000Y-51173000D01*
X53713000Y-51173000D01*
X53713000Y-51153000D01*
X53967000Y-51153000D01*
X53967000Y-51173000D01*
G36*
X70569946Y-52379147D02*
X71051715Y-52701054D01*
X71620000Y-52814093D01*
X71992305Y-52740037D01*
X75098634Y-55846366D01*
X75343574Y-56010029D01*
X75632500Y-56067501D01*
X75632505Y-56067500D01*
X78294388Y-56067500D01*
X78175608Y-56186073D01*
X78032962Y-56529601D01*
X78032638Y-56901567D01*
X78174683Y-57245343D01*
X78212900Y-57283627D01*
X78212900Y-60250495D01*
X78212899Y-60250500D01*
X78270371Y-60539426D01*
X78434034Y-60784366D01*
X80270934Y-62621266D01*
X80515874Y-62784929D01*
X80804800Y-62842401D01*
X80804805Y-62842400D01*
X82191751Y-62842400D01*
X82120662Y-63013601D01*
X82120338Y-63385567D01*
X82138718Y-63430050D01*
X81857438Y-63711330D01*
X81749317Y-63449657D01*
X81486527Y-63186408D01*
X81142999Y-63043762D01*
X80771033Y-63043438D01*
X80635110Y-63099600D01*
X76902249Y-63099600D01*
X76902362Y-62969433D01*
X76760317Y-62625657D01*
X76497527Y-62362408D01*
X76153999Y-62219762D01*
X76034427Y-62219658D01*
X76040638Y-62204699D01*
X76040962Y-61832733D01*
X75898917Y-61488957D01*
X75643621Y-61233215D01*
X75709629Y-61134426D01*
X75719846Y-61083062D01*
X75767101Y-60845500D01*
X75767100Y-60845495D01*
X75767100Y-59250705D01*
X75767101Y-59250700D01*
X75709629Y-58961774D01*
X75650773Y-58873690D01*
X75545966Y-58716834D01*
X75545963Y-58716832D01*
X72833866Y-56004734D01*
X72588926Y-55841071D01*
X72300000Y-55783599D01*
X72299995Y-55783600D01*
X72091332Y-55783600D01*
X69092732Y-52785000D01*
X69207002Y-52785000D01*
X69207002Y-52620156D01*
X69436890Y-52741476D01*
X69846924Y-52571645D01*
X70275183Y-52181358D01*
X70342298Y-52038447D01*
X70569946Y-52379147D01*
X70569946Y-52379147D01*
G37*
X70569946Y-52379147D02*
X71051715Y-52701054D01*
X71620000Y-52814093D01*
X71992305Y-52740037D01*
X75098634Y-55846366D01*
X75343574Y-56010029D01*
X75632500Y-56067501D01*
X75632505Y-56067500D01*
X78294388Y-56067500D01*
X78175608Y-56186073D01*
X78032962Y-56529601D01*
X78032638Y-56901567D01*
X78174683Y-57245343D01*
X78212900Y-57283627D01*
X78212900Y-60250495D01*
X78212899Y-60250500D01*
X78270371Y-60539426D01*
X78434034Y-60784366D01*
X80270934Y-62621266D01*
X80515874Y-62784929D01*
X80804800Y-62842401D01*
X80804805Y-62842400D01*
X82191751Y-62842400D01*
X82120662Y-63013601D01*
X82120338Y-63385567D01*
X82138718Y-63430050D01*
X81857438Y-63711330D01*
X81749317Y-63449657D01*
X81486527Y-63186408D01*
X81142999Y-63043762D01*
X80771033Y-63043438D01*
X80635110Y-63099600D01*
X76902249Y-63099600D01*
X76902362Y-62969433D01*
X76760317Y-62625657D01*
X76497527Y-62362408D01*
X76153999Y-62219762D01*
X76034427Y-62219658D01*
X76040638Y-62204699D01*
X76040962Y-61832733D01*
X75898917Y-61488957D01*
X75643621Y-61233215D01*
X75709629Y-61134426D01*
X75719846Y-61083062D01*
X75767101Y-60845500D01*
X75767100Y-60845495D01*
X75767100Y-59250705D01*
X75767101Y-59250700D01*
X75709629Y-58961774D01*
X75650773Y-58873690D01*
X75545966Y-58716834D01*
X75545963Y-58716832D01*
X72833866Y-56004734D01*
X72588926Y-55841071D01*
X72300000Y-55783599D01*
X72299995Y-55783600D01*
X72091332Y-55783600D01*
X69092732Y-52785000D01*
X69207002Y-52785000D01*
X69207002Y-52620156D01*
X69436890Y-52741476D01*
X69846924Y-52571645D01*
X70275183Y-52181358D01*
X70342298Y-52038447D01*
X70569946Y-52379147D01*
G36*
X65889184Y-57042316D02*
X65889138Y-57094867D01*
X66031183Y-57438643D01*
X66293973Y-57701892D01*
X66637501Y-57844538D01*
X67009467Y-57844862D01*
X67175691Y-57776180D01*
X67249873Y-57850492D01*
X67593401Y-57993138D01*
X67647353Y-57993185D01*
X69634232Y-59980063D01*
X69634234Y-59980066D01*
X69879174Y-60143729D01*
X70168100Y-60201201D01*
X70168105Y-60201200D01*
X71171468Y-60201200D01*
X73522034Y-62551766D01*
X73524330Y-62553300D01*
X70896454Y-62553300D01*
X70859327Y-62516108D01*
X70515799Y-62373462D01*
X70143833Y-62373138D01*
X69800057Y-62515183D01*
X69536808Y-62777973D01*
X69394162Y-63121501D01*
X69394091Y-63202900D01*
X68314831Y-63202900D01*
X67207616Y-62095684D01*
X67207662Y-62043133D01*
X67065617Y-61699357D01*
X66802827Y-61436108D01*
X66459299Y-61293462D01*
X66087333Y-61293138D01*
X65743557Y-61435183D01*
X65480308Y-61697973D01*
X65337662Y-62041501D01*
X65337338Y-62413467D01*
X65479383Y-62757243D01*
X65742173Y-63020492D01*
X66085701Y-63163138D01*
X66139653Y-63163185D01*
X66653869Y-63677400D01*
X64438300Y-63677400D01*
X64438362Y-63606433D01*
X64296317Y-63262657D01*
X64033527Y-62999408D01*
X63689999Y-62856762D01*
X63504031Y-62856600D01*
X63294871Y-62647440D01*
X63300000Y-62647440D01*
X63455507Y-62618179D01*
X63600000Y-62647440D01*
X63920000Y-62647440D01*
X64155317Y-62603162D01*
X64371441Y-62464090D01*
X64516431Y-62251890D01*
X64567440Y-62000000D01*
X64567440Y-59000000D01*
X64557937Y-58949495D01*
X65258063Y-58249368D01*
X65258066Y-58249366D01*
X65421729Y-58004426D01*
X65426156Y-57982171D01*
X65479201Y-57715500D01*
X65479200Y-57715495D01*
X65479200Y-57497954D01*
X65516392Y-57460827D01*
X65659038Y-57117299D01*
X65659304Y-56812436D01*
X65889184Y-57042316D01*
X65889184Y-57042316D01*
G37*
X65889184Y-57042316D02*
X65889138Y-57094867D01*
X66031183Y-57438643D01*
X66293973Y-57701892D01*
X66637501Y-57844538D01*
X67009467Y-57844862D01*
X67175691Y-57776180D01*
X67249873Y-57850492D01*
X67593401Y-57993138D01*
X67647353Y-57993185D01*
X69634232Y-59980063D01*
X69634234Y-59980066D01*
X69879174Y-60143729D01*
X70168100Y-60201201D01*
X70168105Y-60201200D01*
X71171468Y-60201200D01*
X73522034Y-62551766D01*
X73524330Y-62553300D01*
X70896454Y-62553300D01*
X70859327Y-62516108D01*
X70515799Y-62373462D01*
X70143833Y-62373138D01*
X69800057Y-62515183D01*
X69536808Y-62777973D01*
X69394162Y-63121501D01*
X69394091Y-63202900D01*
X68314831Y-63202900D01*
X67207616Y-62095684D01*
X67207662Y-62043133D01*
X67065617Y-61699357D01*
X66802827Y-61436108D01*
X66459299Y-61293462D01*
X66087333Y-61293138D01*
X65743557Y-61435183D01*
X65480308Y-61697973D01*
X65337662Y-62041501D01*
X65337338Y-62413467D01*
X65479383Y-62757243D01*
X65742173Y-63020492D01*
X66085701Y-63163138D01*
X66139653Y-63163185D01*
X66653869Y-63677400D01*
X64438300Y-63677400D01*
X64438362Y-63606433D01*
X64296317Y-63262657D01*
X64033527Y-62999408D01*
X63689999Y-62856762D01*
X63504031Y-62856600D01*
X63294871Y-62647440D01*
X63300000Y-62647440D01*
X63455507Y-62618179D01*
X63600000Y-62647440D01*
X63920000Y-62647440D01*
X64155317Y-62603162D01*
X64371441Y-62464090D01*
X64516431Y-62251890D01*
X64567440Y-62000000D01*
X64567440Y-59000000D01*
X64557937Y-58949495D01*
X65258063Y-58249368D01*
X65258066Y-58249366D01*
X65421729Y-58004426D01*
X65426156Y-57982171D01*
X65479201Y-57715500D01*
X65479200Y-57715495D01*
X65479200Y-57497954D01*
X65516392Y-57460827D01*
X65659038Y-57117299D01*
X65659304Y-56812436D01*
X65889184Y-57042316D01*
G36*
X69207000Y-51173000D02*
X69227000Y-51173000D01*
X69227000Y-51427000D01*
X69207000Y-51427000D01*
X69207000Y-51447000D01*
X68953000Y-51447000D01*
X68953000Y-51427000D01*
X68933000Y-51427000D01*
X68933000Y-51173000D01*
X68953000Y-51173000D01*
X68953000Y-51153000D01*
X69207000Y-51153000D01*
X69207000Y-51173000D01*
X69207000Y-51173000D01*
G37*
X69207000Y-51173000D02*
X69227000Y-51173000D01*
X69227000Y-51427000D01*
X69207000Y-51427000D01*
X69207000Y-51447000D01*
X68953000Y-51447000D01*
X68953000Y-51427000D01*
X68933000Y-51427000D01*
X68933000Y-51173000D01*
X68953000Y-51173000D01*
X68953000Y-51153000D01*
X69207000Y-51153000D01*
X69207000Y-51173000D01*
M02*
