G04 #@! TF.FileFunction,Copper,L1,Top,Signal*
%FSLAX46Y46*%
G04 Gerber Fmt 4.6, Leading zero omitted, Abs format (unit mm)*
G04 Created by KiCad (PCBNEW 4.0.7-e2-6376~61~ubuntu18.04.1) date Sun Sep 30 15:28:24 2018*
%MOMM*%
%LPD*%
G01*
G04 APERTURE LIST*
%ADD10C,0.100000*%
%ADD11R,1.350000X0.400000*%
%ADD12O,1.250000X1.250000*%
%ADD13O,1.550000X1.800000*%
%ADD14R,1.600000X1.000000*%
%ADD15R,1.600000X0.800000*%
%ADD16R,3.000000X2.100000*%
%ADD17R,2.032000X3.657600*%
%ADD18R,2.032000X1.016000*%
%ADD19R,0.750000X0.800000*%
%ADD20R,0.800000X0.750000*%
%ADD21R,1.950000X1.500000*%
%ADD22R,1.500000X1.950000*%
%ADD23R,0.500000X0.900000*%
%ADD24R,0.900000X0.500000*%
%ADD25R,1.400000X1.200000*%
%ADD26R,1.700000X1.700000*%
%ADD27O,1.700000X1.700000*%
%ADD28C,0.600000*%
%ADD29C,0.240000*%
%ADD30C,0.254000*%
G04 APERTURE END LIST*
D10*
G36*
X77673134Y-53305188D02*
X78062042Y-52916280D01*
X79122702Y-53976940D01*
X78733794Y-54365848D01*
X77673134Y-53305188D01*
X77673134Y-53305188D01*
G37*
G36*
X77107449Y-53870874D02*
X77496357Y-53481966D01*
X78557017Y-54542626D01*
X78168109Y-54931534D01*
X77107449Y-53870874D01*
X77107449Y-53870874D01*
G37*
G36*
X76541764Y-54436559D02*
X76930672Y-54047651D01*
X77991332Y-55108311D01*
X77602424Y-55497219D01*
X76541764Y-54436559D01*
X76541764Y-54436559D01*
G37*
G36*
X75976078Y-55002244D02*
X76364986Y-54613336D01*
X77425646Y-55673996D01*
X77036738Y-56062904D01*
X75976078Y-55002244D01*
X75976078Y-55002244D01*
G37*
G36*
X75410393Y-55567930D02*
X75799301Y-55179022D01*
X76859961Y-56239682D01*
X76471053Y-56628590D01*
X75410393Y-55567930D01*
X75410393Y-55567930D01*
G37*
G36*
X74844707Y-56133615D02*
X75233615Y-55744707D01*
X76294275Y-56805367D01*
X75905367Y-57194275D01*
X74844707Y-56133615D01*
X74844707Y-56133615D01*
G37*
G36*
X74279022Y-56699301D02*
X74667930Y-56310393D01*
X75728590Y-57371053D01*
X75339682Y-57759961D01*
X74279022Y-56699301D01*
X74279022Y-56699301D01*
G37*
G36*
X73713336Y-57264986D02*
X74102244Y-56876078D01*
X75162904Y-57936738D01*
X74773996Y-58325646D01*
X73713336Y-57264986D01*
X73713336Y-57264986D01*
G37*
G36*
X73147651Y-57830672D02*
X73536559Y-57441764D01*
X74597219Y-58502424D01*
X74208311Y-58891332D01*
X73147651Y-57830672D01*
X73147651Y-57830672D01*
G37*
G36*
X72581966Y-58396357D02*
X72970874Y-58007449D01*
X74031534Y-59068109D01*
X73642626Y-59457017D01*
X72581966Y-58396357D01*
X72581966Y-58396357D01*
G37*
G36*
X72016280Y-58962042D02*
X72405188Y-58573134D01*
X73465848Y-59633794D01*
X73076940Y-60022702D01*
X72016280Y-58962042D01*
X72016280Y-58962042D01*
G37*
G36*
X72405188Y-62426866D02*
X72016280Y-62037958D01*
X73076940Y-60977298D01*
X73465848Y-61366206D01*
X72405188Y-62426866D01*
X72405188Y-62426866D01*
G37*
G36*
X72970874Y-62992551D02*
X72581966Y-62603643D01*
X73642626Y-61542983D01*
X74031534Y-61931891D01*
X72970874Y-62992551D01*
X72970874Y-62992551D01*
G37*
G36*
X73536559Y-63558236D02*
X73147651Y-63169328D01*
X74208311Y-62108668D01*
X74597219Y-62497576D01*
X73536559Y-63558236D01*
X73536559Y-63558236D01*
G37*
G36*
X74102244Y-64123922D02*
X73713336Y-63735014D01*
X74773996Y-62674354D01*
X75162904Y-63063262D01*
X74102244Y-64123922D01*
X74102244Y-64123922D01*
G37*
G36*
X74667930Y-64689607D02*
X74279022Y-64300699D01*
X75339682Y-63240039D01*
X75728590Y-63628947D01*
X74667930Y-64689607D01*
X74667930Y-64689607D01*
G37*
G36*
X75233615Y-65255293D02*
X74844707Y-64866385D01*
X75905367Y-63805725D01*
X76294275Y-64194633D01*
X75233615Y-65255293D01*
X75233615Y-65255293D01*
G37*
G36*
X75799301Y-65820978D02*
X75410393Y-65432070D01*
X76471053Y-64371410D01*
X76859961Y-64760318D01*
X75799301Y-65820978D01*
X75799301Y-65820978D01*
G37*
G36*
X76364986Y-66386664D02*
X75976078Y-65997756D01*
X77036738Y-64937096D01*
X77425646Y-65326004D01*
X76364986Y-66386664D01*
X76364986Y-66386664D01*
G37*
G36*
X76930672Y-66952349D02*
X76541764Y-66563441D01*
X77602424Y-65502781D01*
X77991332Y-65891689D01*
X76930672Y-66952349D01*
X76930672Y-66952349D01*
G37*
G36*
X77496357Y-67518034D02*
X77107449Y-67129126D01*
X78168109Y-66068466D01*
X78557017Y-66457374D01*
X77496357Y-67518034D01*
X77496357Y-67518034D01*
G37*
G36*
X78062042Y-68083720D02*
X77673134Y-67694812D01*
X78733794Y-66634152D01*
X79122702Y-67023060D01*
X78062042Y-68083720D01*
X78062042Y-68083720D01*
G37*
G36*
X80077298Y-67023060D02*
X80466206Y-66634152D01*
X81526866Y-67694812D01*
X81137958Y-68083720D01*
X80077298Y-67023060D01*
X80077298Y-67023060D01*
G37*
G36*
X80642983Y-66457374D02*
X81031891Y-66068466D01*
X82092551Y-67129126D01*
X81703643Y-67518034D01*
X80642983Y-66457374D01*
X80642983Y-66457374D01*
G37*
G36*
X81208668Y-65891689D02*
X81597576Y-65502781D01*
X82658236Y-66563441D01*
X82269328Y-66952349D01*
X81208668Y-65891689D01*
X81208668Y-65891689D01*
G37*
G36*
X81774354Y-65326004D02*
X82163262Y-64937096D01*
X83223922Y-65997756D01*
X82835014Y-66386664D01*
X81774354Y-65326004D01*
X81774354Y-65326004D01*
G37*
G36*
X82340039Y-64760318D02*
X82728947Y-64371410D01*
X83789607Y-65432070D01*
X83400699Y-65820978D01*
X82340039Y-64760318D01*
X82340039Y-64760318D01*
G37*
G36*
X82905725Y-64194633D02*
X83294633Y-63805725D01*
X84355293Y-64866385D01*
X83966385Y-65255293D01*
X82905725Y-64194633D01*
X82905725Y-64194633D01*
G37*
G36*
X83471410Y-63628947D02*
X83860318Y-63240039D01*
X84920978Y-64300699D01*
X84532070Y-64689607D01*
X83471410Y-63628947D01*
X83471410Y-63628947D01*
G37*
G36*
X84037096Y-63063262D02*
X84426004Y-62674354D01*
X85486664Y-63735014D01*
X85097756Y-64123922D01*
X84037096Y-63063262D01*
X84037096Y-63063262D01*
G37*
G36*
X84602781Y-62497576D02*
X84991689Y-62108668D01*
X86052349Y-63169328D01*
X85663441Y-63558236D01*
X84602781Y-62497576D01*
X84602781Y-62497576D01*
G37*
G36*
X85168466Y-61931891D02*
X85557374Y-61542983D01*
X86618034Y-62603643D01*
X86229126Y-62992551D01*
X85168466Y-61931891D01*
X85168466Y-61931891D01*
G37*
G36*
X85734152Y-61366206D02*
X86123060Y-60977298D01*
X87183720Y-62037958D01*
X86794812Y-62426866D01*
X85734152Y-61366206D01*
X85734152Y-61366206D01*
G37*
G36*
X86123060Y-60022702D02*
X85734152Y-59633794D01*
X86794812Y-58573134D01*
X87183720Y-58962042D01*
X86123060Y-60022702D01*
X86123060Y-60022702D01*
G37*
G36*
X85557374Y-59457017D02*
X85168466Y-59068109D01*
X86229126Y-58007449D01*
X86618034Y-58396357D01*
X85557374Y-59457017D01*
X85557374Y-59457017D01*
G37*
G36*
X84991689Y-58891332D02*
X84602781Y-58502424D01*
X85663441Y-57441764D01*
X86052349Y-57830672D01*
X84991689Y-58891332D01*
X84991689Y-58891332D01*
G37*
G36*
X84426004Y-58325646D02*
X84037096Y-57936738D01*
X85097756Y-56876078D01*
X85486664Y-57264986D01*
X84426004Y-58325646D01*
X84426004Y-58325646D01*
G37*
G36*
X83860318Y-57759961D02*
X83471410Y-57371053D01*
X84532070Y-56310393D01*
X84920978Y-56699301D01*
X83860318Y-57759961D01*
X83860318Y-57759961D01*
G37*
G36*
X83294633Y-57194275D02*
X82905725Y-56805367D01*
X83966385Y-55744707D01*
X84355293Y-56133615D01*
X83294633Y-57194275D01*
X83294633Y-57194275D01*
G37*
G36*
X82728947Y-56628590D02*
X82340039Y-56239682D01*
X83400699Y-55179022D01*
X83789607Y-55567930D01*
X82728947Y-56628590D01*
X82728947Y-56628590D01*
G37*
G36*
X82163262Y-56062904D02*
X81774354Y-55673996D01*
X82835014Y-54613336D01*
X83223922Y-55002244D01*
X82163262Y-56062904D01*
X82163262Y-56062904D01*
G37*
G36*
X81597576Y-55497219D02*
X81208668Y-55108311D01*
X82269328Y-54047651D01*
X82658236Y-54436559D01*
X81597576Y-55497219D01*
X81597576Y-55497219D01*
G37*
G36*
X81031891Y-54931534D02*
X80642983Y-54542626D01*
X81703643Y-53481966D01*
X82092551Y-53870874D01*
X81031891Y-54931534D01*
X81031891Y-54931534D01*
G37*
G36*
X80466206Y-54365848D02*
X80077298Y-53976940D01*
X81137958Y-52916280D01*
X81526866Y-53305188D01*
X80466206Y-54365848D01*
X80466206Y-54365848D01*
G37*
D11*
X54162540Y-55799100D03*
X54162540Y-56449100D03*
X54162540Y-57099100D03*
X54162540Y-57749100D03*
X54162540Y-58399100D03*
D12*
X54162540Y-54599100D03*
X54162540Y-59599100D03*
D13*
X51462540Y-53599100D03*
X51462540Y-60599100D03*
D14*
X64500000Y-58900000D03*
X64500000Y-62100000D03*
X69500000Y-58900000D03*
X69500000Y-62100000D03*
D15*
X92900000Y-56125000D03*
X92900000Y-57375000D03*
X92900000Y-58625000D03*
X92900000Y-59875000D03*
X92900000Y-61125000D03*
X92900000Y-62375000D03*
X92900000Y-63625000D03*
X92900000Y-64875000D03*
D16*
X90000000Y-53575000D03*
X90000000Y-67425000D03*
D17*
X51348000Y-64950000D03*
D18*
X57952000Y-64950000D03*
X57952000Y-62664000D03*
X57952000Y-67236000D03*
D19*
X67900000Y-67350000D03*
X67900000Y-65850000D03*
D20*
X69250000Y-64200000D03*
X67750000Y-64200000D03*
D21*
X58825000Y-54000000D03*
X61575000Y-54000000D03*
D20*
X85450000Y-53500000D03*
X83950000Y-53500000D03*
D19*
X58000000Y-59150000D03*
X58000000Y-60650000D03*
X87000000Y-54250000D03*
X87000000Y-55750000D03*
D22*
X61900000Y-61875000D03*
X61900000Y-59125000D03*
D20*
X63350000Y-67100000D03*
X64850000Y-67100000D03*
X64850000Y-65500000D03*
X63350000Y-65500000D03*
X67350000Y-55700000D03*
X68850000Y-55700000D03*
D19*
X65600000Y-56750000D03*
X65600000Y-55250000D03*
X60400000Y-65450000D03*
X60400000Y-66950000D03*
X62000000Y-65450000D03*
X62000000Y-66950000D03*
D20*
X70250000Y-54000000D03*
X71750000Y-54000000D03*
D23*
X70850000Y-64200000D03*
X72350000Y-64200000D03*
X59450000Y-57600000D03*
X57950000Y-57600000D03*
X59450000Y-56000000D03*
X57950000Y-56000000D03*
D24*
X56400000Y-59250000D03*
X56400000Y-60750000D03*
X86600000Y-67250000D03*
X86600000Y-65750000D03*
D23*
X67450000Y-54000000D03*
X68950000Y-54000000D03*
X70150000Y-55700000D03*
X71650000Y-55700000D03*
D25*
X71900000Y-65800000D03*
X69700000Y-65800000D03*
X71900000Y-67400000D03*
X69700000Y-67400000D03*
D26*
X51300000Y-51300000D03*
D27*
X53840000Y-51300000D03*
X56380000Y-51300000D03*
X58920000Y-51300000D03*
X61460000Y-51300000D03*
X64000000Y-51300000D03*
X66540000Y-51300000D03*
X69080000Y-51300000D03*
X71620000Y-51300000D03*
X74160000Y-51300000D03*
X76700000Y-51300000D03*
X79240000Y-51300000D03*
X81780000Y-51300000D03*
X84320000Y-51300000D03*
D26*
X51300000Y-69700000D03*
D27*
X53840000Y-69700000D03*
X56380000Y-69700000D03*
X58920000Y-69700000D03*
X61460000Y-69700000D03*
X64000000Y-69700000D03*
X66540000Y-69700000D03*
X69080000Y-69700000D03*
X71620000Y-69700000D03*
X74160000Y-69700000D03*
X76700000Y-69700000D03*
X79240000Y-69700000D03*
X81780000Y-69700000D03*
X84320000Y-69700000D03*
D28*
X89700000Y-57900000D03*
X89700000Y-51300000D03*
X53800000Y-63600000D03*
X77500000Y-59100000D03*
X67000000Y-59600000D03*
X51700000Y-56100000D03*
X84780600Y-59418600D03*
X87836900Y-63711700D03*
X76759800Y-62643900D03*
X72659300Y-53592100D03*
X70329000Y-63308300D03*
X75967200Y-63154600D03*
X81337300Y-59719700D03*
X88266600Y-64796600D03*
X67780200Y-57058300D03*
X60319100Y-63919200D03*
X75105800Y-62017900D03*
X64122600Y-56350600D03*
X64724200Y-56930500D03*
X56329500Y-65563500D03*
X59452400Y-66498700D03*
X62022000Y-64538500D03*
X61054900Y-64621300D03*
X66824300Y-56909700D03*
X80956200Y-63978600D03*
X66272500Y-62228300D03*
X75092300Y-66210700D03*
X62318800Y-67977300D03*
X63503200Y-63791600D03*
X73129300Y-66544900D03*
X63246000Y-56327900D03*
X80756000Y-65003200D03*
X83055500Y-63200400D03*
X83287200Y-57922000D03*
X82666800Y-57303000D03*
X81923300Y-56597200D03*
X80524400Y-55895700D03*
X85241900Y-56290400D03*
X74477000Y-61380600D03*
X74338100Y-59618000D03*
X71887300Y-57626100D03*
X70848700Y-58798100D03*
X78654900Y-65437600D03*
X78967800Y-56716400D03*
X77745900Y-64935600D03*
X84693300Y-65248300D03*
X85599500Y-64517500D03*
X80375800Y-60760300D03*
D29*
X71900000Y-65800000D02*
X74300000Y-65800000D01*
X74300000Y-65800000D02*
X74812700Y-65287300D01*
X74812700Y-65287300D02*
X75569500Y-64530500D01*
X68172400Y-68342700D02*
X67900000Y-68070300D01*
X70528200Y-68342700D02*
X68172400Y-68342700D01*
X70879700Y-67991200D02*
X70528200Y-68342700D01*
X70879700Y-65800000D02*
X70879700Y-67991200D01*
X71900000Y-65800000D02*
X70879700Y-65800000D01*
X67900000Y-67350000D02*
X67900000Y-68070300D01*
X64500000Y-58900000D02*
X66300000Y-58900000D01*
X66300000Y-58900000D02*
X67000000Y-59600000D01*
X76335536Y-62643900D02*
X75194900Y-62642300D01*
X76759800Y-62643900D02*
X76335536Y-62643900D01*
X86600000Y-67250000D02*
X87290000Y-67250000D01*
X87290000Y-67250000D02*
X87646200Y-66893800D01*
X87646200Y-66893800D02*
X87646200Y-63902400D01*
X87646200Y-63902400D02*
X87836900Y-63711700D01*
X53840000Y-69700000D02*
X56304000Y-67236000D01*
X56304000Y-67236000D02*
X57952000Y-67236000D01*
X69080000Y-51300000D02*
X67909600Y-52470400D01*
X67909600Y-52470400D02*
X62034300Y-52470400D01*
X62034300Y-52470400D02*
X61575000Y-52929700D01*
X53840000Y-51300000D02*
X54689999Y-52149999D01*
X54689999Y-52149999D02*
X55567599Y-52149999D01*
X55567599Y-52149999D02*
X56347300Y-52929700D01*
X63195300Y-58900000D02*
X62970300Y-59125000D01*
X63379700Y-58900000D02*
X63195300Y-58900000D01*
X61900000Y-59125000D02*
X62970300Y-59125000D01*
X63939900Y-58900000D02*
X63379700Y-58900000D01*
X64850000Y-67100000D02*
X64850000Y-66404700D01*
X92900000Y-63625000D02*
X91779700Y-63625000D01*
X57270300Y-59150000D02*
X57170300Y-59250000D01*
X58000000Y-59150000D02*
X57270300Y-59150000D01*
X63939900Y-58900000D02*
X64500000Y-58900000D01*
X57952000Y-67236000D02*
X59288300Y-67236000D01*
X64850000Y-67100000D02*
X64850000Y-67795300D01*
X64115800Y-68529500D02*
X64850000Y-67795300D01*
X62643900Y-68529500D02*
X64115800Y-68529500D01*
X62575800Y-68597600D02*
X62643900Y-68529500D01*
X62061900Y-68597600D02*
X62575800Y-68597600D01*
X61425100Y-67960800D02*
X62061900Y-68597600D01*
X60013100Y-67960800D02*
X61425100Y-67960800D01*
X59288300Y-67236000D02*
X60013100Y-67960800D01*
X76135200Y-55903800D02*
X75378400Y-55146900D01*
X64850000Y-65500000D02*
X64850000Y-65850000D01*
X64850000Y-65850000D02*
X64850000Y-66404700D01*
X67750000Y-64200000D02*
X67750000Y-65850000D01*
X67900000Y-65850000D02*
X67750000Y-65850000D01*
X67750000Y-65850000D02*
X67204700Y-65850000D01*
X85893300Y-58732200D02*
X85136500Y-59489000D01*
X91693000Y-63711700D02*
X91779700Y-63625000D01*
X87836900Y-63711700D02*
X91693000Y-63711700D01*
X56400000Y-59250000D02*
X56785200Y-59250000D01*
X56785200Y-59250000D02*
X57170300Y-59250000D01*
X54162500Y-57749100D02*
X55157800Y-57749100D01*
X55157800Y-58399100D02*
X55157800Y-57749100D01*
X55934300Y-58399100D02*
X55157800Y-58399100D01*
X56785200Y-59250000D02*
X55934300Y-58399100D01*
X55157800Y-58399100D02*
X54162500Y-58399100D01*
X67747000Y-58900000D02*
X64500000Y-58900000D01*
X68614500Y-58032500D02*
X67747000Y-58900000D01*
X70341700Y-58032500D02*
X68614500Y-58032500D01*
X70687200Y-57687000D02*
X70341700Y-58032500D01*
X70754400Y-57687000D02*
X70687200Y-57687000D01*
X71106800Y-57334600D02*
X70754400Y-57687000D01*
X71152400Y-57334600D02*
X71106800Y-57334600D01*
X71455000Y-57032000D02*
X71152400Y-57334600D01*
X71604200Y-57032000D02*
X71455000Y-57032000D01*
X71630400Y-57005800D02*
X71604200Y-57032000D01*
X72721700Y-57005800D02*
X71630400Y-57005800D01*
X72942100Y-56785400D02*
X72721700Y-57005800D01*
X72980600Y-56785400D02*
X72942100Y-56785400D01*
X73046900Y-56719100D02*
X72980600Y-56785400D01*
X73128800Y-56719100D02*
X73046900Y-56719100D01*
X73955500Y-55892400D02*
X73128800Y-56719100D01*
X74442200Y-55892400D02*
X73955500Y-55892400D01*
X74913800Y-55420800D02*
X74442200Y-55892400D01*
X75104500Y-55420800D02*
X74913800Y-55420800D01*
X75378400Y-55146900D02*
X75104500Y-55420800D01*
X85066000Y-59418600D02*
X84780600Y-59418600D01*
X85136500Y-59489000D02*
X85066000Y-59418600D01*
X81367800Y-54206700D02*
X82124700Y-53449800D01*
X58000000Y-59150000D02*
X58695300Y-59150000D01*
X61900000Y-59125000D02*
X60829700Y-59125000D01*
X61575000Y-54000000D02*
X61575000Y-55070300D01*
X58695300Y-58917900D02*
X58878600Y-58734600D01*
X58695300Y-59150000D02*
X58695300Y-58917900D01*
X60439300Y-58734600D02*
X60829700Y-59125000D01*
X58878600Y-58734600D02*
X60439300Y-58734600D01*
X56347300Y-52929700D02*
X61575000Y-52929700D01*
X61575000Y-54000000D02*
X61575000Y-52929700D01*
X68950000Y-54000000D02*
X70250000Y-54000000D01*
X68850000Y-55700000D02*
X68850000Y-55004700D01*
X68950000Y-54000000D02*
X68950000Y-54770300D01*
X80802100Y-67358900D02*
X80045300Y-66602100D01*
X64850000Y-65850000D02*
X67204700Y-65850000D01*
X74438100Y-63399100D02*
X75194900Y-62642300D01*
X59174400Y-55070300D02*
X61575000Y-55070300D01*
X58878600Y-55366100D02*
X59174400Y-55070300D01*
X58878600Y-58734600D02*
X58878600Y-55366100D01*
X70250000Y-54000000D02*
X70970300Y-54000000D01*
X70970300Y-53481100D02*
X70970300Y-54000000D01*
X71194800Y-53256600D02*
X70970300Y-53481100D01*
X72323800Y-53256600D02*
X71194800Y-53256600D01*
X72659300Y-53592100D02*
X72323800Y-53256600D01*
X68850000Y-54870300D02*
X68950000Y-54770300D01*
X68850000Y-55004700D02*
X68850000Y-54870300D01*
X65600000Y-55250000D02*
X66295300Y-55250000D01*
X66540600Y-55004700D02*
X66295300Y-55250000D01*
X68850000Y-55004700D02*
X66540600Y-55004700D01*
X80045300Y-65929400D02*
X76759800Y-62643900D01*
X80045300Y-66602100D02*
X80045300Y-65929400D01*
X81367800Y-54206700D02*
X80611000Y-54963500D01*
X87000000Y-54250000D02*
X87000000Y-53529700D01*
X82174800Y-53500000D02*
X83950000Y-53500000D01*
X82124700Y-53449800D02*
X82174800Y-53500000D01*
X86275000Y-52804700D02*
X87000000Y-53529700D01*
X83950000Y-52804700D02*
X86275000Y-52804700D01*
X83950000Y-53500000D02*
X83950000Y-52804700D01*
X83737300Y-59418600D02*
X84780600Y-59418600D01*
X83213700Y-58895000D02*
X83737300Y-59418600D01*
X82946600Y-58895000D02*
X83213700Y-58895000D01*
X80567600Y-56516000D02*
X82946600Y-58895000D01*
X80267500Y-56516000D02*
X80567600Y-56516000D01*
X79904100Y-56152600D02*
X80267500Y-56516000D01*
X79904100Y-55638800D02*
X79904100Y-56152600D01*
X80579400Y-54963500D02*
X79904100Y-55638800D01*
X80610900Y-54963500D02*
X80579400Y-54963500D01*
X80611000Y-54963500D02*
X80610900Y-54963500D01*
X69250000Y-64200000D02*
X69437300Y-64200000D01*
X69437300Y-64200000D02*
X70329000Y-63308300D01*
X75003800Y-63964800D02*
X75760700Y-63207900D01*
X68679700Y-64770300D02*
X69250000Y-64200000D01*
X68679700Y-67400000D02*
X68679700Y-64770300D01*
X69700000Y-67400000D02*
X68679700Y-67400000D01*
X75905800Y-63154600D02*
X75967200Y-63154600D01*
X75852400Y-63208000D02*
X75905800Y-63154600D01*
X75760700Y-63208000D02*
X75852400Y-63208000D01*
X75760700Y-63207900D02*
X75760700Y-63208000D01*
X74500000Y-60320000D02*
X74200000Y-60320000D01*
X69500000Y-62100000D02*
X71452206Y-62100000D01*
X71452206Y-62100000D02*
X73232206Y-60320000D01*
X73232206Y-60320000D02*
X74200000Y-60320000D01*
X74800000Y-60320000D02*
X74500000Y-60320000D01*
X75604846Y-58095154D02*
X74958101Y-58741899D01*
X74958101Y-58741899D02*
X74958101Y-59915601D01*
X74958101Y-59915601D02*
X74553702Y-60320000D01*
X74553702Y-60320000D02*
X74500000Y-60320000D01*
X75003806Y-57035177D02*
X75604846Y-57636217D01*
X75604846Y-57636217D02*
X75604846Y-58095154D01*
X79080618Y-61137880D02*
X75774150Y-61137880D01*
X75774150Y-61137880D02*
X74956270Y-60320000D01*
X74956270Y-60320000D02*
X74800000Y-60320000D01*
X81337300Y-59719700D02*
X80498798Y-59719700D01*
X80498798Y-59719700D02*
X79080618Y-61137880D01*
X54957800Y-53800000D02*
X55157800Y-54000000D01*
X51300000Y-51300000D02*
X52470001Y-52470001D01*
X52470001Y-52470001D02*
X53627801Y-52470001D01*
X53627801Y-52470001D02*
X54957800Y-53800000D01*
X58825000Y-54000000D02*
X58177400Y-54000000D01*
X54162500Y-55799100D02*
X55157800Y-55799100D01*
X55157800Y-54000000D02*
X55157800Y-55799100D01*
X55157800Y-54000000D02*
X58177400Y-54000000D01*
X54162500Y-55799100D02*
X53167200Y-55799100D01*
X57952000Y-62664000D02*
X59288300Y-62664000D01*
X58000000Y-60650000D02*
X58695300Y-60650000D01*
X92900000Y-64875000D02*
X91779700Y-64875000D01*
X91701300Y-64796600D02*
X88266600Y-64796600D01*
X91779700Y-64875000D02*
X91701300Y-64796600D01*
X61900000Y-61875000D02*
X60829700Y-61875000D01*
X60829700Y-61875000D02*
X59347100Y-61875000D01*
X59347100Y-61301800D02*
X59347100Y-61875000D01*
X58695300Y-60650000D02*
X59347100Y-61301800D01*
X59347100Y-62605200D02*
X59288300Y-62664000D01*
X59347100Y-61875000D02*
X59347100Y-62605200D01*
X63565700Y-61279600D02*
X62970300Y-61875000D01*
X67559300Y-61279600D02*
X63565700Y-61279600D01*
X68379700Y-62100000D02*
X67559300Y-61279600D01*
X69500000Y-62100000D02*
X68379700Y-62100000D01*
X61900000Y-61875000D02*
X62970300Y-61875000D01*
X53913000Y-60750000D02*
X56400000Y-60750000D01*
X53167200Y-60004200D02*
X53913000Y-60750000D01*
X53167200Y-55799100D02*
X53167200Y-60004200D01*
X57204700Y-60750000D02*
X57304700Y-60650000D01*
X56400000Y-60750000D02*
X57204700Y-60750000D01*
X58000000Y-60650000D02*
X57304700Y-60650000D01*
X82869900Y-54195300D02*
X82690300Y-54015600D01*
X85450000Y-54195300D02*
X82869900Y-54195300D01*
X85450000Y-53500000D02*
X85450000Y-54195300D01*
X81933500Y-54772400D02*
X82690300Y-54015600D01*
X73200000Y-63505900D02*
X74629300Y-62076600D01*
X72350000Y-64200000D02*
X72350000Y-64000000D01*
X72844100Y-63505900D02*
X73200000Y-63505900D01*
X72350000Y-64000000D02*
X72844100Y-63505900D01*
X75047000Y-62076700D02*
X75105800Y-62017900D01*
X74629300Y-62076600D02*
X74629300Y-62076700D01*
X74629300Y-62076700D02*
X75047000Y-62076700D01*
X57952000Y-64950000D02*
X56900000Y-64950000D01*
X51300000Y-69700000D02*
X51300000Y-68610000D01*
X51300000Y-68610000D02*
X54966501Y-64943499D01*
X54966501Y-64943499D02*
X56893499Y-64943499D01*
X56893499Y-64943499D02*
X56900000Y-64950000D01*
X63350000Y-67100000D02*
X63350000Y-66404700D01*
X87161200Y-56631500D02*
X87000000Y-56470300D01*
X87161200Y-58486500D02*
X87161200Y-56631500D01*
X87215800Y-58541000D02*
X87161200Y-58486500D01*
X86458900Y-59297900D02*
X87215800Y-58541000D01*
X87000000Y-55750000D02*
X87000000Y-56470300D01*
X63350000Y-65500000D02*
X63350000Y-66195300D01*
X71079700Y-55988500D02*
X71079700Y-55700000D01*
X70009900Y-57058300D02*
X71079700Y-55988500D01*
X67780200Y-57058300D02*
X70009900Y-57058300D01*
X63350000Y-66404700D02*
X63350000Y-66195300D01*
X63350000Y-65500000D02*
X63350000Y-64804700D01*
X57952000Y-64950000D02*
X59288300Y-64950000D01*
X59288300Y-64950000D02*
X60319100Y-63919200D01*
X62429200Y-63883900D02*
X63350000Y-64804700D01*
X60354400Y-63883900D02*
X62429200Y-63883900D01*
X60319100Y-63919200D02*
X60354400Y-63883900D01*
X71650000Y-55700000D02*
X71079700Y-55700000D01*
X86458900Y-59297900D02*
X85702100Y-60054700D01*
X80802100Y-53641100D02*
X80045300Y-54397900D01*
X75569500Y-56469500D02*
X76326400Y-57226300D01*
X78327100Y-55225500D02*
X78589100Y-54963500D01*
X78327100Y-55470600D02*
X78327100Y-55225500D01*
X77769200Y-56028500D02*
X78327100Y-55470600D01*
X77769200Y-57050700D02*
X77769200Y-56028500D01*
X76502000Y-57050700D02*
X76326400Y-57226300D01*
X77769200Y-57050700D02*
X76502000Y-57050700D01*
X77832200Y-54206700D02*
X78589100Y-54963500D01*
X81960600Y-60054700D02*
X85702100Y-60054700D01*
X81367800Y-66793300D02*
X80611000Y-66036400D01*
X80611000Y-65747200D02*
X80611000Y-66036400D01*
X79997400Y-65133600D02*
X80611000Y-65747200D01*
X79997400Y-62017900D02*
X79997400Y-65133600D01*
X75105800Y-62017900D02*
X79997400Y-62017900D01*
X79997400Y-62017900D02*
X81960600Y-60054700D01*
X81960600Y-59456500D02*
X81960600Y-60054700D01*
X79718400Y-57214200D02*
X81960600Y-59456500D01*
X79595900Y-57336700D02*
X79718400Y-57214200D01*
X78055200Y-57336700D02*
X79595900Y-57336700D01*
X77769200Y-57050700D02*
X78055200Y-57336700D01*
X80045300Y-54874900D02*
X80045300Y-54397900D01*
X79463800Y-55456400D02*
X80045300Y-54874900D01*
X79463800Y-56335000D02*
X79463800Y-55456400D01*
X79718400Y-56589600D02*
X79463800Y-56335000D01*
X79718400Y-57214200D02*
X79718400Y-56589600D01*
X67350000Y-55700000D02*
X66629700Y-55700000D01*
X64502900Y-55970300D02*
X64122600Y-56350600D01*
X66359400Y-55970300D02*
X64502900Y-55970300D01*
X66629700Y-55700000D02*
X66359400Y-55970300D01*
X65600000Y-56750000D02*
X64904700Y-56750000D01*
X64904700Y-56750000D02*
X64724200Y-56930500D01*
X56615600Y-65849600D02*
X56329500Y-65563500D01*
X59305100Y-65849600D02*
X56615600Y-65849600D01*
X59704700Y-65450000D02*
X59305100Y-65849600D01*
X60400000Y-65450000D02*
X59704700Y-65450000D01*
X59704700Y-66751000D02*
X59452400Y-66498700D01*
X59704700Y-66950000D02*
X59704700Y-66751000D01*
X60400000Y-66950000D02*
X59704700Y-66950000D01*
X62022000Y-64707700D02*
X62022000Y-64538500D01*
X62000000Y-64729700D02*
X62022000Y-64707700D01*
X62000000Y-65450000D02*
X62000000Y-64729700D01*
X61304700Y-64871100D02*
X61054900Y-64621300D01*
X61304700Y-66950000D02*
X61304700Y-64871100D01*
X62000000Y-66950000D02*
X61304700Y-66950000D01*
X70150000Y-55700000D02*
X70239200Y-55700000D01*
X69501200Y-56438000D02*
X70239200Y-55700000D01*
X67296000Y-56438000D02*
X69501200Y-56438000D01*
X66824300Y-56909700D02*
X67296000Y-56438000D01*
X71243900Y-54695300D02*
X71750000Y-54695300D01*
X70239200Y-55700000D02*
X71243900Y-54695300D01*
X71750000Y-54000000D02*
X71750000Y-54695300D01*
X56930600Y-56449100D02*
X54162500Y-56449100D01*
X57379700Y-56000000D02*
X56930600Y-56449100D01*
X57950000Y-56000000D02*
X57379700Y-56000000D01*
X56878800Y-57099100D02*
X54162500Y-57099100D01*
X57379700Y-57600000D02*
X56878800Y-57099100D01*
X57950000Y-57600000D02*
X57379700Y-57600000D01*
X81947200Y-63978600D02*
X80956200Y-63978600D01*
X83064800Y-65096200D02*
X81947200Y-63978600D01*
X65748600Y-62228300D02*
X65620300Y-62100000D01*
X66272500Y-62228300D02*
X65748600Y-62228300D01*
X64500000Y-62100000D02*
X65620300Y-62100000D01*
X76135200Y-65096200D02*
X75378400Y-65853000D01*
X75107800Y-66195200D02*
X75092300Y-66210700D01*
X75107800Y-66123600D02*
X75107800Y-66195200D01*
X75378400Y-65853000D02*
X75107800Y-66123600D01*
X64070400Y-64358800D02*
X63503200Y-63791600D01*
X64070400Y-67628300D02*
X64070400Y-64358800D01*
X63721400Y-67977300D02*
X64070400Y-67628300D01*
X62318800Y-67977300D02*
X63721400Y-67977300D01*
X73453700Y-66869300D02*
X73129300Y-66544900D01*
X75493500Y-66869300D02*
X73453700Y-66869300D01*
X76700900Y-65661900D02*
X75493500Y-66869300D01*
X65573900Y-54000000D02*
X63246000Y-56327900D01*
X67450000Y-54000000D02*
X65573900Y-54000000D01*
X80756100Y-65003200D02*
X80756000Y-65003200D01*
X80756100Y-65050200D02*
X80756100Y-65003200D01*
X81933500Y-66227600D02*
X80756100Y-65050200D01*
X85327600Y-62833500D02*
X84570800Y-62076600D01*
X83079800Y-63200400D02*
X83055500Y-63200400D01*
X83259900Y-63020300D02*
X83079800Y-63200400D01*
X83589100Y-63020300D02*
X83259900Y-63020300D01*
X84307500Y-62301900D02*
X83589100Y-63020300D01*
X84345500Y-62301900D02*
X84307500Y-62301900D01*
X84570800Y-62076600D02*
X84345500Y-62301900D01*
X84196200Y-57035200D02*
X83439400Y-57792000D01*
X83309400Y-57922000D02*
X83287200Y-57922000D01*
X83439400Y-57792000D02*
X83309400Y-57922000D01*
X82797000Y-57303000D02*
X82666800Y-57303000D01*
X83630500Y-56469500D02*
X82797000Y-57303000D01*
X83064800Y-55903800D02*
X82308000Y-56660600D01*
X82244500Y-56597200D02*
X82308000Y-56660600D01*
X81923300Y-56597200D02*
X82244500Y-56597200D01*
X81941500Y-55895700D02*
X80524400Y-55895700D01*
X82499100Y-55338100D02*
X81941500Y-55895700D01*
X84761900Y-57600900D02*
X85518800Y-56844000D01*
X85241900Y-56567200D02*
X85518800Y-56844000D01*
X85241900Y-56290400D02*
X85241900Y-56567200D01*
X86255200Y-57238900D02*
X85327600Y-58166500D01*
X86255200Y-55246800D02*
X86255200Y-57238900D01*
X86531600Y-54970400D02*
X86255200Y-55246800D01*
X87515200Y-54970400D02*
X86531600Y-54970400D01*
X87726300Y-54759300D02*
X87515200Y-54970400D01*
X87726300Y-53536000D02*
X87726300Y-54759300D01*
X85490300Y-51300000D02*
X87726300Y-53536000D01*
X84320000Y-51300000D02*
X85490300Y-51300000D01*
X70850000Y-64200000D02*
X70850000Y-63704902D01*
X70850000Y-63704902D02*
X71554902Y-63000000D01*
X71554902Y-63000000D02*
X72574500Y-63000000D01*
X72574500Y-63000000D02*
X74063600Y-61510900D01*
X74346600Y-61511000D02*
X74477000Y-61380600D01*
X74063600Y-61510900D02*
X74063600Y-61511000D01*
X74063600Y-61511000D02*
X74346600Y-61511000D01*
X74192500Y-59618000D02*
X73306700Y-58732200D01*
X74338100Y-59618000D02*
X74192500Y-59618000D01*
X72899300Y-57626100D02*
X73115700Y-57409700D01*
X71887300Y-57626100D02*
X72899300Y-57626100D01*
X73872400Y-58166500D02*
X73115700Y-57409700D01*
X71727200Y-58798100D02*
X71984300Y-58541000D01*
X70848700Y-58798100D02*
X71727200Y-58798100D01*
X72741100Y-59297900D02*
X71984300Y-58541000D01*
X77832200Y-66793300D02*
X78589100Y-66036400D01*
X78589000Y-65503500D02*
X78654900Y-65437600D01*
X78589000Y-66036400D02*
X78589000Y-65503500D01*
X78589100Y-66036400D02*
X78589000Y-66036400D01*
X78397900Y-53641100D02*
X79154700Y-54397900D01*
X78967800Y-55329700D02*
X78967800Y-56716400D01*
X79154700Y-55142800D02*
X78967800Y-55329700D01*
X79154700Y-54397900D02*
X79154700Y-55142800D01*
X77266500Y-66227600D02*
X78023400Y-65470700D01*
X77745900Y-65193300D02*
X77745900Y-64935600D01*
X78023400Y-65470700D02*
X77745900Y-65193300D01*
X92900000Y-59875000D02*
X91779700Y-59875000D01*
X83496300Y-64530500D02*
X83630500Y-64530500D01*
X82423100Y-63457300D02*
X83496300Y-64530500D01*
X82423100Y-62940900D02*
X82423100Y-63457300D01*
X84868900Y-60495100D02*
X82423100Y-62940900D01*
X91159600Y-60495100D02*
X84868900Y-60495100D01*
X91779700Y-59875000D02*
X91159600Y-60495100D01*
X84196200Y-63964800D02*
X84953100Y-64721600D01*
X84693300Y-64981400D02*
X84953100Y-64721600D01*
X84693300Y-65248300D02*
X84693300Y-64981400D01*
X84761900Y-63399100D02*
X85518800Y-64155900D01*
X85518700Y-64156000D02*
X85518800Y-64155900D01*
X85518700Y-64436700D02*
X85518700Y-64156000D01*
X85599500Y-64517500D02*
X85518700Y-64436700D01*
X72741064Y-61702082D02*
X73682846Y-60760300D01*
X73682846Y-60760300D02*
X74774302Y-60760300D01*
X80375800Y-60760300D02*
X79558210Y-61577890D01*
X79558210Y-61577890D02*
X75591892Y-61577890D01*
X75591892Y-61577890D02*
X74774302Y-60760300D01*
X81780000Y-69700000D02*
X83100178Y-68379822D01*
X83100178Y-68379822D02*
X83100178Y-66262920D01*
X83100178Y-66262920D02*
X82499138Y-65661880D01*
X86246700Y-64801400D02*
X86298600Y-64801400D01*
X86298600Y-64801400D02*
X86650200Y-64449800D01*
X86650200Y-64449800D02*
X86650200Y-63024600D01*
X85893300Y-62267800D02*
X86650200Y-63024600D01*
X84320000Y-66728100D02*
X86246700Y-64801400D01*
X84320000Y-69700000D02*
X84320000Y-66728100D01*
X59450000Y-57600000D02*
X60020300Y-57600000D01*
X76700900Y-55338100D02*
X75944100Y-54581200D01*
X60107400Y-57687100D02*
X60020300Y-57600000D01*
X68135000Y-57687100D02*
X60107400Y-57687100D01*
X68229900Y-57592200D02*
X68135000Y-57687100D01*
X70159300Y-57592200D02*
X68229900Y-57592200D01*
X71159800Y-56591700D02*
X70159300Y-57592200D01*
X71421800Y-56591700D02*
X71159800Y-56591700D01*
X71448000Y-56565500D02*
X71421800Y-56591700D01*
X72401600Y-56565500D02*
X71448000Y-56565500D01*
X74293000Y-54674100D02*
X72401600Y-56565500D01*
X75851200Y-54674100D02*
X74293000Y-54674100D01*
X75944100Y-54581200D02*
X75851200Y-54674100D01*
X61933300Y-56000000D02*
X59450000Y-56000000D01*
X64731700Y-53201600D02*
X61933300Y-56000000D01*
X70627000Y-53201600D02*
X64731700Y-53201600D01*
X71012300Y-52816300D02*
X70627000Y-53201600D01*
X75310400Y-52816300D02*
X71012300Y-52816300D01*
X77266500Y-54772400D02*
X75310400Y-52816300D01*
X86458900Y-61702100D02*
X87100000Y-62343115D01*
X87120400Y-64659300D02*
X87120400Y-62363546D01*
X87120400Y-62363546D02*
X87100000Y-62343146D01*
X87100000Y-62343146D02*
X87100000Y-62343115D01*
X86600000Y-65179700D02*
X87120400Y-64659300D01*
X86600000Y-65750000D02*
X86600000Y-65179700D01*
D30*
G36*
X87736273Y-65588792D02*
X88079801Y-65731438D01*
X88451767Y-65731762D01*
X88795543Y-65589717D01*
X88833727Y-65551600D01*
X91459451Y-65551600D01*
X91473032Y-65560674D01*
X91490774Y-65572529D01*
X91543637Y-65583044D01*
X91635910Y-65726441D01*
X91695485Y-65767147D01*
X91500000Y-65727560D01*
X88500000Y-65727560D01*
X88264683Y-65771838D01*
X88048559Y-65910910D01*
X87903569Y-66123110D01*
X87852560Y-66375000D01*
X87852560Y-68475000D01*
X87896838Y-68710317D01*
X88035910Y-68926441D01*
X88248110Y-69071431D01*
X88500000Y-69122440D01*
X91500000Y-69122440D01*
X91735317Y-69078162D01*
X91951441Y-68939090D01*
X92096431Y-68726890D01*
X92147440Y-68475000D01*
X92147440Y-66375000D01*
X92103162Y-66139683D01*
X91964090Y-65923559D01*
X91904515Y-65882853D01*
X92100000Y-65922440D01*
X93315000Y-65922440D01*
X93315000Y-70315000D01*
X85680186Y-70315000D01*
X85691961Y-70297378D01*
X85805000Y-69729093D01*
X85805000Y-69670907D01*
X85691961Y-69102622D01*
X85370054Y-68620853D01*
X85075000Y-68423705D01*
X85075000Y-67533750D01*
X85515000Y-67533750D01*
X85515000Y-67626309D01*
X85611673Y-67859698D01*
X85790301Y-68038327D01*
X86023690Y-68135000D01*
X86314250Y-68135000D01*
X86473000Y-67976250D01*
X86473000Y-67375000D01*
X86727000Y-67375000D01*
X86727000Y-67976250D01*
X86885750Y-68135000D01*
X87176310Y-68135000D01*
X87409699Y-68038327D01*
X87588327Y-67859698D01*
X87685000Y-67626309D01*
X87685000Y-67533750D01*
X87526250Y-67375000D01*
X86727000Y-67375000D01*
X86473000Y-67375000D01*
X85673750Y-67375000D01*
X85515000Y-67533750D01*
X85075000Y-67533750D01*
X85075000Y-67040832D01*
X85677484Y-66438347D01*
X85685910Y-66451441D01*
X85754006Y-66497969D01*
X85611673Y-66640302D01*
X85515000Y-66873691D01*
X85515000Y-66966250D01*
X85673750Y-67125000D01*
X86473000Y-67125000D01*
X86473000Y-67103000D01*
X86727000Y-67103000D01*
X86727000Y-67125000D01*
X87526250Y-67125000D01*
X87685000Y-66966250D01*
X87685000Y-66873691D01*
X87588327Y-66640302D01*
X87447090Y-66499064D01*
X87501441Y-66464090D01*
X87646431Y-66251890D01*
X87697440Y-66000000D01*
X87697440Y-65549891D01*
X87736273Y-65588792D01*
X87736273Y-65588792D01*
G37*
X87736273Y-65588792D02*
X88079801Y-65731438D01*
X88451767Y-65731762D01*
X88795543Y-65589717D01*
X88833727Y-65551600D01*
X91459451Y-65551600D01*
X91473032Y-65560674D01*
X91490774Y-65572529D01*
X91543637Y-65583044D01*
X91635910Y-65726441D01*
X91695485Y-65767147D01*
X91500000Y-65727560D01*
X88500000Y-65727560D01*
X88264683Y-65771838D01*
X88048559Y-65910910D01*
X87903569Y-66123110D01*
X87852560Y-66375000D01*
X87852560Y-68475000D01*
X87896838Y-68710317D01*
X88035910Y-68926441D01*
X88248110Y-69071431D01*
X88500000Y-69122440D01*
X91500000Y-69122440D01*
X91735317Y-69078162D01*
X91951441Y-68939090D01*
X92096431Y-68726890D01*
X92147440Y-68475000D01*
X92147440Y-66375000D01*
X92103162Y-66139683D01*
X91964090Y-65923559D01*
X91904515Y-65882853D01*
X92100000Y-65922440D01*
X93315000Y-65922440D01*
X93315000Y-70315000D01*
X85680186Y-70315000D01*
X85691961Y-70297378D01*
X85805000Y-69729093D01*
X85805000Y-69670907D01*
X85691961Y-69102622D01*
X85370054Y-68620853D01*
X85075000Y-68423705D01*
X85075000Y-67533750D01*
X85515000Y-67533750D01*
X85515000Y-67626309D01*
X85611673Y-67859698D01*
X85790301Y-68038327D01*
X86023690Y-68135000D01*
X86314250Y-68135000D01*
X86473000Y-67976250D01*
X86473000Y-67375000D01*
X86727000Y-67375000D01*
X86727000Y-67976250D01*
X86885750Y-68135000D01*
X87176310Y-68135000D01*
X87409699Y-68038327D01*
X87588327Y-67859698D01*
X87685000Y-67626309D01*
X87685000Y-67533750D01*
X87526250Y-67375000D01*
X86727000Y-67375000D01*
X86473000Y-67375000D01*
X85673750Y-67375000D01*
X85515000Y-67533750D01*
X85075000Y-67533750D01*
X85075000Y-67040832D01*
X85677484Y-66438347D01*
X85685910Y-66451441D01*
X85754006Y-66497969D01*
X85611673Y-66640302D01*
X85515000Y-66873691D01*
X85515000Y-66966250D01*
X85673750Y-67125000D01*
X86473000Y-67125000D01*
X86473000Y-67103000D01*
X86727000Y-67103000D01*
X86727000Y-67125000D01*
X87526250Y-67125000D01*
X87685000Y-66966250D01*
X87685000Y-66873691D01*
X87588327Y-66640302D01*
X87447090Y-66499064D01*
X87501441Y-66464090D01*
X87646431Y-66251890D01*
X87697440Y-66000000D01*
X87697440Y-65549891D01*
X87736273Y-65588792D01*
G36*
X55394338Y-65748667D02*
X55536383Y-66092443D01*
X55799173Y-66355692D01*
X56142701Y-66498338D01*
X56253798Y-66498435D01*
X56276214Y-66513413D01*
X56324267Y-66545520D01*
X56301000Y-66601691D01*
X56301000Y-66950250D01*
X56459750Y-67109000D01*
X57825000Y-67109000D01*
X57825000Y-67089000D01*
X58079000Y-67089000D01*
X58079000Y-67109000D01*
X58099000Y-67109000D01*
X58099000Y-67363000D01*
X58079000Y-67363000D01*
X58079000Y-68220250D01*
X58235409Y-68376659D01*
X57869946Y-68620853D01*
X57650000Y-68950026D01*
X57430054Y-68620853D01*
X57068095Y-68379000D01*
X57666250Y-68379000D01*
X57825000Y-68220250D01*
X57825000Y-67363000D01*
X56459750Y-67363000D01*
X56301000Y-67521750D01*
X56301000Y-67870309D01*
X56397673Y-68103698D01*
X56504682Y-68210708D01*
X56380000Y-68185907D01*
X55811715Y-68298946D01*
X55329946Y-68620853D01*
X55102298Y-68961553D01*
X55035183Y-68818642D01*
X54606924Y-68428355D01*
X54196890Y-68258524D01*
X53967000Y-68379845D01*
X53967000Y-69573000D01*
X53987000Y-69573000D01*
X53987000Y-69827000D01*
X53967000Y-69827000D01*
X53967000Y-69847000D01*
X53713000Y-69847000D01*
X53713000Y-69827000D01*
X53693000Y-69827000D01*
X53693000Y-69573000D01*
X53713000Y-69573000D01*
X53713000Y-68379845D01*
X53483110Y-68258524D01*
X53073076Y-68428355D01*
X52770063Y-68704501D01*
X52753162Y-68614683D01*
X52614090Y-68398559D01*
X52593346Y-68384385D01*
X55279232Y-65698499D01*
X55394382Y-65698499D01*
X55394338Y-65748667D01*
X55394338Y-65748667D01*
G37*
X55394338Y-65748667D02*
X55536383Y-66092443D01*
X55799173Y-66355692D01*
X56142701Y-66498338D01*
X56253798Y-66498435D01*
X56276214Y-66513413D01*
X56324267Y-66545520D01*
X56301000Y-66601691D01*
X56301000Y-66950250D01*
X56459750Y-67109000D01*
X57825000Y-67109000D01*
X57825000Y-67089000D01*
X58079000Y-67089000D01*
X58079000Y-67109000D01*
X58099000Y-67109000D01*
X58099000Y-67363000D01*
X58079000Y-67363000D01*
X58079000Y-68220250D01*
X58235409Y-68376659D01*
X57869946Y-68620853D01*
X57650000Y-68950026D01*
X57430054Y-68620853D01*
X57068095Y-68379000D01*
X57666250Y-68379000D01*
X57825000Y-68220250D01*
X57825000Y-67363000D01*
X56459750Y-67363000D01*
X56301000Y-67521750D01*
X56301000Y-67870309D01*
X56397673Y-68103698D01*
X56504682Y-68210708D01*
X56380000Y-68185907D01*
X55811715Y-68298946D01*
X55329946Y-68620853D01*
X55102298Y-68961553D01*
X55035183Y-68818642D01*
X54606924Y-68428355D01*
X54196890Y-68258524D01*
X53967000Y-68379845D01*
X53967000Y-69573000D01*
X53987000Y-69573000D01*
X53987000Y-69827000D01*
X53967000Y-69827000D01*
X53967000Y-69847000D01*
X53713000Y-69847000D01*
X53713000Y-69827000D01*
X53693000Y-69827000D01*
X53693000Y-69573000D01*
X53713000Y-69573000D01*
X53713000Y-68379845D01*
X53483110Y-68258524D01*
X53073076Y-68428355D01*
X52770063Y-68704501D01*
X52753162Y-68614683D01*
X52614090Y-68398559D01*
X52593346Y-68384385D01*
X55279232Y-65698499D01*
X55394382Y-65698499D01*
X55394338Y-65748667D01*
G36*
X67845832Y-62633863D02*
X67845834Y-62633866D01*
X68055903Y-62774229D01*
X68089577Y-62796729D01*
X68096838Y-62835317D01*
X68235910Y-63051441D01*
X68448110Y-63196431D01*
X68604843Y-63228170D01*
X68511354Y-63288329D01*
X68509698Y-63286673D01*
X68276309Y-63190000D01*
X68035750Y-63190000D01*
X67877000Y-63348750D01*
X67877000Y-64073000D01*
X67897000Y-64073000D01*
X67897000Y-64327000D01*
X67877000Y-64327000D01*
X67877000Y-64347000D01*
X67623000Y-64347000D01*
X67623000Y-64327000D01*
X66873750Y-64327000D01*
X66715000Y-64485750D01*
X66715000Y-64701310D01*
X66811673Y-64934699D01*
X66980992Y-65104017D01*
X66890000Y-65323691D01*
X66890000Y-65564250D01*
X67048750Y-65723000D01*
X67773000Y-65723000D01*
X67773000Y-65703000D01*
X67924700Y-65703000D01*
X67924700Y-65997000D01*
X67773000Y-65997000D01*
X67773000Y-65977000D01*
X67048750Y-65977000D01*
X66890000Y-66135750D01*
X66890000Y-66376309D01*
X66986673Y-66609698D01*
X66988043Y-66611068D01*
X66928569Y-66698110D01*
X66877560Y-66950000D01*
X66877560Y-67750000D01*
X66921838Y-67985317D01*
X67060910Y-68201441D01*
X67188415Y-68288561D01*
X67202471Y-68359226D01*
X67205673Y-68364019D01*
X67108285Y-68298946D01*
X66540000Y-68185907D01*
X65971715Y-68298946D01*
X65489946Y-68620853D01*
X65270000Y-68950026D01*
X65050054Y-68620853D01*
X64568285Y-68298946D01*
X64484209Y-68282222D01*
X64604263Y-68162168D01*
X64604266Y-68162166D01*
X64767929Y-67917226D01*
X64768875Y-67912471D01*
X64825401Y-67628300D01*
X64825400Y-67628295D01*
X64825400Y-67227000D01*
X64977000Y-67227000D01*
X64977000Y-67951250D01*
X65135750Y-68110000D01*
X65376309Y-68110000D01*
X65609698Y-68013327D01*
X65788327Y-67834699D01*
X65885000Y-67601310D01*
X65885000Y-67385750D01*
X65726250Y-67227000D01*
X64977000Y-67227000D01*
X64825400Y-67227000D01*
X64825400Y-65627000D01*
X64977000Y-65627000D01*
X64977000Y-66973000D01*
X65726250Y-66973000D01*
X65885000Y-66814250D01*
X65885000Y-66598690D01*
X65788327Y-66365301D01*
X65723026Y-66300000D01*
X65788327Y-66234699D01*
X65885000Y-66001310D01*
X65885000Y-65785750D01*
X65726250Y-65627000D01*
X64977000Y-65627000D01*
X64825400Y-65627000D01*
X64825400Y-64648750D01*
X64977000Y-64648750D01*
X64977000Y-65373000D01*
X65726250Y-65373000D01*
X65885000Y-65214250D01*
X65885000Y-64998690D01*
X65788327Y-64765301D01*
X65609698Y-64586673D01*
X65376309Y-64490000D01*
X65135750Y-64490000D01*
X64977000Y-64648750D01*
X64825400Y-64648750D01*
X64825400Y-64358805D01*
X64825401Y-64358800D01*
X64767929Y-64069874D01*
X64604266Y-63824934D01*
X64478022Y-63698690D01*
X66715000Y-63698690D01*
X66715000Y-63914250D01*
X66873750Y-64073000D01*
X67623000Y-64073000D01*
X67623000Y-63348750D01*
X67464250Y-63190000D01*
X67223691Y-63190000D01*
X66990302Y-63286673D01*
X66811673Y-63465301D01*
X66715000Y-63698690D01*
X64478022Y-63698690D01*
X64438316Y-63658984D01*
X64438362Y-63606433D01*
X64296317Y-63262657D01*
X64281127Y-63247440D01*
X65300000Y-63247440D01*
X65535317Y-63203162D01*
X65751441Y-63064090D01*
X65772598Y-63033126D01*
X66085701Y-63163138D01*
X66457667Y-63163462D01*
X66801443Y-63021417D01*
X67064692Y-62758627D01*
X67207338Y-62415099D01*
X67207662Y-62043133D01*
X67204136Y-62034600D01*
X67246568Y-62034600D01*
X67845832Y-62633863D01*
X67845832Y-62633863D01*
G37*
X67845832Y-62633863D02*
X67845834Y-62633866D01*
X68055903Y-62774229D01*
X68089577Y-62796729D01*
X68096838Y-62835317D01*
X68235910Y-63051441D01*
X68448110Y-63196431D01*
X68604843Y-63228170D01*
X68511354Y-63288329D01*
X68509698Y-63286673D01*
X68276309Y-63190000D01*
X68035750Y-63190000D01*
X67877000Y-63348750D01*
X67877000Y-64073000D01*
X67897000Y-64073000D01*
X67897000Y-64327000D01*
X67877000Y-64327000D01*
X67877000Y-64347000D01*
X67623000Y-64347000D01*
X67623000Y-64327000D01*
X66873750Y-64327000D01*
X66715000Y-64485750D01*
X66715000Y-64701310D01*
X66811673Y-64934699D01*
X66980992Y-65104017D01*
X66890000Y-65323691D01*
X66890000Y-65564250D01*
X67048750Y-65723000D01*
X67773000Y-65723000D01*
X67773000Y-65703000D01*
X67924700Y-65703000D01*
X67924700Y-65997000D01*
X67773000Y-65997000D01*
X67773000Y-65977000D01*
X67048750Y-65977000D01*
X66890000Y-66135750D01*
X66890000Y-66376309D01*
X66986673Y-66609698D01*
X66988043Y-66611068D01*
X66928569Y-66698110D01*
X66877560Y-66950000D01*
X66877560Y-67750000D01*
X66921838Y-67985317D01*
X67060910Y-68201441D01*
X67188415Y-68288561D01*
X67202471Y-68359226D01*
X67205673Y-68364019D01*
X67108285Y-68298946D01*
X66540000Y-68185907D01*
X65971715Y-68298946D01*
X65489946Y-68620853D01*
X65270000Y-68950026D01*
X65050054Y-68620853D01*
X64568285Y-68298946D01*
X64484209Y-68282222D01*
X64604263Y-68162168D01*
X64604266Y-68162166D01*
X64767929Y-67917226D01*
X64768875Y-67912471D01*
X64825401Y-67628300D01*
X64825400Y-67628295D01*
X64825400Y-67227000D01*
X64977000Y-67227000D01*
X64977000Y-67951250D01*
X65135750Y-68110000D01*
X65376309Y-68110000D01*
X65609698Y-68013327D01*
X65788327Y-67834699D01*
X65885000Y-67601310D01*
X65885000Y-67385750D01*
X65726250Y-67227000D01*
X64977000Y-67227000D01*
X64825400Y-67227000D01*
X64825400Y-65627000D01*
X64977000Y-65627000D01*
X64977000Y-66973000D01*
X65726250Y-66973000D01*
X65885000Y-66814250D01*
X65885000Y-66598690D01*
X65788327Y-66365301D01*
X65723026Y-66300000D01*
X65788327Y-66234699D01*
X65885000Y-66001310D01*
X65885000Y-65785750D01*
X65726250Y-65627000D01*
X64977000Y-65627000D01*
X64825400Y-65627000D01*
X64825400Y-64648750D01*
X64977000Y-64648750D01*
X64977000Y-65373000D01*
X65726250Y-65373000D01*
X65885000Y-65214250D01*
X65885000Y-64998690D01*
X65788327Y-64765301D01*
X65609698Y-64586673D01*
X65376309Y-64490000D01*
X65135750Y-64490000D01*
X64977000Y-64648750D01*
X64825400Y-64648750D01*
X64825400Y-64358805D01*
X64825401Y-64358800D01*
X64767929Y-64069874D01*
X64604266Y-63824934D01*
X64478022Y-63698690D01*
X66715000Y-63698690D01*
X66715000Y-63914250D01*
X66873750Y-64073000D01*
X67623000Y-64073000D01*
X67623000Y-63348750D01*
X67464250Y-63190000D01*
X67223691Y-63190000D01*
X66990302Y-63286673D01*
X66811673Y-63465301D01*
X66715000Y-63698690D01*
X64478022Y-63698690D01*
X64438316Y-63658984D01*
X64438362Y-63606433D01*
X64296317Y-63262657D01*
X64281127Y-63247440D01*
X65300000Y-63247440D01*
X65535317Y-63203162D01*
X65751441Y-63064090D01*
X65772598Y-63033126D01*
X66085701Y-63163138D01*
X66457667Y-63163462D01*
X66801443Y-63021417D01*
X67064692Y-62758627D01*
X67207338Y-62415099D01*
X67207662Y-62043133D01*
X67204136Y-62034600D01*
X67246568Y-62034600D01*
X67845832Y-62633863D01*
G36*
X53379132Y-61283863D02*
X53379134Y-61283866D01*
X53624074Y-61447529D01*
X53913000Y-61505000D01*
X55564296Y-61505000D01*
X55698110Y-61596431D01*
X55950000Y-61647440D01*
X56553667Y-61647440D01*
X56484559Y-61691910D01*
X56339569Y-61904110D01*
X56288560Y-62156000D01*
X56288560Y-63172000D01*
X56332838Y-63407317D01*
X56471910Y-63623441D01*
X56684110Y-63768431D01*
X56872314Y-63806543D01*
X56700683Y-63838838D01*
X56484559Y-63977910D01*
X56340670Y-64188499D01*
X54966501Y-64188499D01*
X54677575Y-64245970D01*
X54432635Y-64409633D01*
X54432633Y-64409636D01*
X53011440Y-65830829D01*
X53011440Y-63121200D01*
X52967162Y-62885883D01*
X52828090Y-62669759D01*
X52615890Y-62524769D01*
X52364000Y-62473760D01*
X50685000Y-62473760D01*
X50685000Y-61897845D01*
X50922956Y-62056842D01*
X51462540Y-62164172D01*
X52002124Y-62056842D01*
X52459561Y-61751193D01*
X52765210Y-61293756D01*
X52868708Y-60773439D01*
X53379132Y-61283863D01*
X53379132Y-61283863D01*
G37*
X53379132Y-61283863D02*
X53379134Y-61283866D01*
X53624074Y-61447529D01*
X53913000Y-61505000D01*
X55564296Y-61505000D01*
X55698110Y-61596431D01*
X55950000Y-61647440D01*
X56553667Y-61647440D01*
X56484559Y-61691910D01*
X56339569Y-61904110D01*
X56288560Y-62156000D01*
X56288560Y-63172000D01*
X56332838Y-63407317D01*
X56471910Y-63623441D01*
X56684110Y-63768431D01*
X56872314Y-63806543D01*
X56700683Y-63838838D01*
X56484559Y-63977910D01*
X56340670Y-64188499D01*
X54966501Y-64188499D01*
X54677575Y-64245970D01*
X54432635Y-64409633D01*
X54432633Y-64409636D01*
X53011440Y-65830829D01*
X53011440Y-63121200D01*
X52967162Y-62885883D01*
X52828090Y-62669759D01*
X52615890Y-62524769D01*
X52364000Y-62473760D01*
X50685000Y-62473760D01*
X50685000Y-61897845D01*
X50922956Y-62056842D01*
X51462540Y-62164172D01*
X52002124Y-62056842D01*
X52459561Y-61751193D01*
X52765210Y-61293756D01*
X52868708Y-60773439D01*
X53379132Y-61283863D01*
G36*
X91452560Y-61525000D02*
X91496451Y-61758260D01*
X91452560Y-61975000D01*
X91452560Y-62775000D01*
X91496838Y-63010317D01*
X91499739Y-63014825D01*
X91465000Y-63098691D01*
X91465000Y-63339250D01*
X91623750Y-63498000D01*
X92773000Y-63498000D01*
X92773000Y-63478000D01*
X93027000Y-63478000D01*
X93027000Y-63498000D01*
X93047000Y-63498000D01*
X93047000Y-63752000D01*
X93027000Y-63752000D01*
X93027000Y-63772000D01*
X92773000Y-63772000D01*
X92773000Y-63752000D01*
X91623750Y-63752000D01*
X91465000Y-63910750D01*
X91465000Y-64041600D01*
X88834054Y-64041600D01*
X88796927Y-64004408D01*
X88453399Y-63861762D01*
X88081433Y-63861438D01*
X87875400Y-63946569D01*
X87875400Y-62363551D01*
X87875401Y-62363546D01*
X87821352Y-62091829D01*
X87831098Y-62046902D01*
X87783574Y-61794331D01*
X87641529Y-61580149D01*
X87311480Y-61250100D01*
X91159595Y-61250100D01*
X91159600Y-61250101D01*
X91448526Y-61192629D01*
X91452560Y-61189934D01*
X91452560Y-61525000D01*
X91452560Y-61525000D01*
G37*
X91452560Y-61525000D02*
X91496451Y-61758260D01*
X91452560Y-61975000D01*
X91452560Y-62775000D01*
X91496838Y-63010317D01*
X91499739Y-63014825D01*
X91465000Y-63098691D01*
X91465000Y-63339250D01*
X91623750Y-63498000D01*
X92773000Y-63498000D01*
X92773000Y-63478000D01*
X93027000Y-63478000D01*
X93027000Y-63498000D01*
X93047000Y-63498000D01*
X93047000Y-63752000D01*
X93027000Y-63752000D01*
X93027000Y-63772000D01*
X92773000Y-63772000D01*
X92773000Y-63752000D01*
X91623750Y-63752000D01*
X91465000Y-63910750D01*
X91465000Y-64041600D01*
X88834054Y-64041600D01*
X88796927Y-64004408D01*
X88453399Y-63861762D01*
X88081433Y-63861438D01*
X87875400Y-63946569D01*
X87875400Y-62363551D01*
X87875401Y-62363546D01*
X87821352Y-62091829D01*
X87831098Y-62046902D01*
X87783574Y-61794331D01*
X87641529Y-61580149D01*
X87311480Y-61250100D01*
X91159595Y-61250100D01*
X91159600Y-61250101D01*
X91448526Y-61192629D01*
X91452560Y-61189934D01*
X91452560Y-61525000D01*
G36*
X68052560Y-59400000D02*
X68096838Y-59635317D01*
X68235910Y-59851441D01*
X68448110Y-59996431D01*
X68700000Y-60047440D01*
X70300000Y-60047440D01*
X70535317Y-60003162D01*
X70751441Y-59864090D01*
X70840947Y-59733094D01*
X71033867Y-59733262D01*
X71377643Y-59591217D01*
X71415827Y-59553100D01*
X71691720Y-59553100D01*
X72311547Y-60172927D01*
X71139474Y-61345000D01*
X70890496Y-61345000D01*
X70764090Y-61148559D01*
X70551890Y-61003569D01*
X70300000Y-60952560D01*
X68700000Y-60952560D01*
X68464683Y-60996838D01*
X68391416Y-61043984D01*
X68093166Y-60745734D01*
X67848226Y-60582071D01*
X67559300Y-60524599D01*
X67559295Y-60524600D01*
X63565705Y-60524600D01*
X63565700Y-60524599D01*
X63306038Y-60576250D01*
X63276774Y-60582071D01*
X63223086Y-60617944D01*
X63147518Y-60500507D01*
X63188327Y-60459698D01*
X63285000Y-60226309D01*
X63285000Y-59883025D01*
X63340302Y-59938327D01*
X63573691Y-60035000D01*
X64214250Y-60035000D01*
X64373000Y-59876250D01*
X64373000Y-59027000D01*
X64627000Y-59027000D01*
X64627000Y-59876250D01*
X64785750Y-60035000D01*
X65426309Y-60035000D01*
X65659698Y-59938327D01*
X65838327Y-59759699D01*
X65935000Y-59526310D01*
X65935000Y-59185750D01*
X65776250Y-59027000D01*
X64627000Y-59027000D01*
X64373000Y-59027000D01*
X64353000Y-59027000D01*
X64353000Y-58773000D01*
X64373000Y-58773000D01*
X64373000Y-58753000D01*
X64627000Y-58753000D01*
X64627000Y-58773000D01*
X65776250Y-58773000D01*
X65935000Y-58614250D01*
X65935000Y-58442100D01*
X68052560Y-58442100D01*
X68052560Y-59400000D01*
X68052560Y-59400000D01*
G37*
X68052560Y-59400000D02*
X68096838Y-59635317D01*
X68235910Y-59851441D01*
X68448110Y-59996431D01*
X68700000Y-60047440D01*
X70300000Y-60047440D01*
X70535317Y-60003162D01*
X70751441Y-59864090D01*
X70840947Y-59733094D01*
X71033867Y-59733262D01*
X71377643Y-59591217D01*
X71415827Y-59553100D01*
X71691720Y-59553100D01*
X72311547Y-60172927D01*
X71139474Y-61345000D01*
X70890496Y-61345000D01*
X70764090Y-61148559D01*
X70551890Y-61003569D01*
X70300000Y-60952560D01*
X68700000Y-60952560D01*
X68464683Y-60996838D01*
X68391416Y-61043984D01*
X68093166Y-60745734D01*
X67848226Y-60582071D01*
X67559300Y-60524599D01*
X67559295Y-60524600D01*
X63565705Y-60524600D01*
X63565700Y-60524599D01*
X63306038Y-60576250D01*
X63276774Y-60582071D01*
X63223086Y-60617944D01*
X63147518Y-60500507D01*
X63188327Y-60459698D01*
X63285000Y-60226309D01*
X63285000Y-59883025D01*
X63340302Y-59938327D01*
X63573691Y-60035000D01*
X64214250Y-60035000D01*
X64373000Y-59876250D01*
X64373000Y-59027000D01*
X64627000Y-59027000D01*
X64627000Y-59876250D01*
X64785750Y-60035000D01*
X65426309Y-60035000D01*
X65659698Y-59938327D01*
X65838327Y-59759699D01*
X65935000Y-59526310D01*
X65935000Y-59185750D01*
X65776250Y-59027000D01*
X64627000Y-59027000D01*
X64373000Y-59027000D01*
X64353000Y-59027000D01*
X64353000Y-58773000D01*
X64373000Y-58773000D01*
X64373000Y-58753000D01*
X64627000Y-58753000D01*
X64627000Y-58773000D01*
X65776250Y-58773000D01*
X65935000Y-58614250D01*
X65935000Y-58442100D01*
X68052560Y-58442100D01*
X68052560Y-59400000D01*
G36*
X56845832Y-58133863D02*
X56845834Y-58133866D01*
X57046241Y-58267773D01*
X57090774Y-58297529D01*
X57106740Y-58300705D01*
X57133963Y-58343011D01*
X57086673Y-58390302D01*
X57079456Y-58407725D01*
X56976310Y-58365000D01*
X56685750Y-58365000D01*
X56527000Y-58523750D01*
X56527000Y-59125000D01*
X57326250Y-59125000D01*
X57428250Y-59023000D01*
X57873000Y-59023000D01*
X57873000Y-59003000D01*
X58127000Y-59003000D01*
X58127000Y-59023000D01*
X58851250Y-59023000D01*
X59010000Y-58864250D01*
X59010000Y-58658964D01*
X59200000Y-58697440D01*
X59700000Y-58697440D01*
X59935317Y-58653162D01*
X60151441Y-58514090D01*
X60200630Y-58442100D01*
X60515000Y-58442100D01*
X60515000Y-58839250D01*
X60673750Y-58998000D01*
X61773000Y-58998000D01*
X61773000Y-58978000D01*
X62027000Y-58978000D01*
X62027000Y-58998000D01*
X62047000Y-58998000D01*
X62047000Y-59252000D01*
X62027000Y-59252000D01*
X62027000Y-59272000D01*
X61773000Y-59272000D01*
X61773000Y-59252000D01*
X60673750Y-59252000D01*
X60515000Y-59410750D01*
X60515000Y-60226309D01*
X60611673Y-60459698D01*
X60653634Y-60501660D01*
X60553569Y-60648110D01*
X60502560Y-60900000D01*
X60502560Y-61120000D01*
X60065938Y-61120000D01*
X60044629Y-61012874D01*
X59880966Y-60767934D01*
X59880963Y-60767932D01*
X59229166Y-60116134D01*
X58984226Y-59952471D01*
X58931363Y-59941956D01*
X58911671Y-59911354D01*
X58913327Y-59909698D01*
X59010000Y-59676309D01*
X59010000Y-59435750D01*
X58851250Y-59277000D01*
X58127000Y-59277000D01*
X58127000Y-59297000D01*
X57873000Y-59297000D01*
X57873000Y-59277000D01*
X57148750Y-59277000D01*
X57050750Y-59375000D01*
X56527000Y-59375000D01*
X56527000Y-59397000D01*
X56273000Y-59397000D01*
X56273000Y-59375000D01*
X56253000Y-59375000D01*
X56253000Y-59125000D01*
X56273000Y-59125000D01*
X56273000Y-58523750D01*
X56114250Y-58365000D01*
X55823690Y-58365000D01*
X55590301Y-58461673D01*
X55433332Y-58618642D01*
X55313790Y-58499100D01*
X55169057Y-58499100D01*
X55197238Y-58487427D01*
X55375867Y-58308799D01*
X55426620Y-58186270D01*
X55472540Y-58140350D01*
X55472540Y-58007850D01*
X55426620Y-57961930D01*
X55391069Y-57876102D01*
X55472540Y-57876102D01*
X55472540Y-57854100D01*
X56566068Y-57854100D01*
X56845832Y-58133863D01*
X56845832Y-58133863D01*
G37*
X56845832Y-58133863D02*
X56845834Y-58133866D01*
X57046241Y-58267773D01*
X57090774Y-58297529D01*
X57106740Y-58300705D01*
X57133963Y-58343011D01*
X57086673Y-58390302D01*
X57079456Y-58407725D01*
X56976310Y-58365000D01*
X56685750Y-58365000D01*
X56527000Y-58523750D01*
X56527000Y-59125000D01*
X57326250Y-59125000D01*
X57428250Y-59023000D01*
X57873000Y-59023000D01*
X57873000Y-59003000D01*
X58127000Y-59003000D01*
X58127000Y-59023000D01*
X58851250Y-59023000D01*
X59010000Y-58864250D01*
X59010000Y-58658964D01*
X59200000Y-58697440D01*
X59700000Y-58697440D01*
X59935317Y-58653162D01*
X60151441Y-58514090D01*
X60200630Y-58442100D01*
X60515000Y-58442100D01*
X60515000Y-58839250D01*
X60673750Y-58998000D01*
X61773000Y-58998000D01*
X61773000Y-58978000D01*
X62027000Y-58978000D01*
X62027000Y-58998000D01*
X62047000Y-58998000D01*
X62047000Y-59252000D01*
X62027000Y-59252000D01*
X62027000Y-59272000D01*
X61773000Y-59272000D01*
X61773000Y-59252000D01*
X60673750Y-59252000D01*
X60515000Y-59410750D01*
X60515000Y-60226309D01*
X60611673Y-60459698D01*
X60653634Y-60501660D01*
X60553569Y-60648110D01*
X60502560Y-60900000D01*
X60502560Y-61120000D01*
X60065938Y-61120000D01*
X60044629Y-61012874D01*
X59880966Y-60767934D01*
X59880963Y-60767932D01*
X59229166Y-60116134D01*
X58984226Y-59952471D01*
X58931363Y-59941956D01*
X58911671Y-59911354D01*
X58913327Y-59909698D01*
X59010000Y-59676309D01*
X59010000Y-59435750D01*
X58851250Y-59277000D01*
X58127000Y-59277000D01*
X58127000Y-59297000D01*
X57873000Y-59297000D01*
X57873000Y-59277000D01*
X57148750Y-59277000D01*
X57050750Y-59375000D01*
X56527000Y-59375000D01*
X56527000Y-59397000D01*
X56273000Y-59397000D01*
X56273000Y-59375000D01*
X56253000Y-59375000D01*
X56253000Y-59125000D01*
X56273000Y-59125000D01*
X56273000Y-58523750D01*
X56114250Y-58365000D01*
X55823690Y-58365000D01*
X55590301Y-58461673D01*
X55433332Y-58618642D01*
X55313790Y-58499100D01*
X55169057Y-58499100D01*
X55197238Y-58487427D01*
X55375867Y-58308799D01*
X55426620Y-58186270D01*
X55472540Y-58140350D01*
X55472540Y-58007850D01*
X55426620Y-57961930D01*
X55391069Y-57876102D01*
X55472540Y-57876102D01*
X55472540Y-57854100D01*
X56566068Y-57854100D01*
X56845832Y-58133863D01*
G36*
X77521334Y-57870566D02*
X77766274Y-58034229D01*
X78055200Y-58091700D01*
X79528153Y-58091700D01*
X80417320Y-58980907D01*
X80209872Y-59022171D01*
X79964932Y-59185834D01*
X79964930Y-59185837D01*
X78767886Y-60382880D01*
X76086882Y-60382880D01*
X75697589Y-59993587D01*
X75713102Y-59915601D01*
X75713101Y-59915596D01*
X75713101Y-59054631D01*
X76138709Y-58629022D01*
X76138712Y-58629020D01*
X76302375Y-58384080D01*
X76312387Y-58333746D01*
X76359847Y-58095154D01*
X76359846Y-58095149D01*
X76359846Y-57974656D01*
X76472974Y-57952145D01*
X76615326Y-57923829D01*
X76615347Y-57923815D01*
X76615372Y-57923810D01*
X76741360Y-57839616D01*
X76792119Y-57805700D01*
X77456468Y-57805700D01*
X77521334Y-57870566D01*
X77521334Y-57870566D01*
G37*
X77521334Y-57870566D02*
X77766274Y-58034229D01*
X78055200Y-58091700D01*
X79528153Y-58091700D01*
X80417320Y-58980907D01*
X80209872Y-59022171D01*
X79964932Y-59185834D01*
X79964930Y-59185837D01*
X78767886Y-60382880D01*
X76086882Y-60382880D01*
X75697589Y-59993587D01*
X75713102Y-59915601D01*
X75713101Y-59915596D01*
X75713101Y-59054631D01*
X76138709Y-58629022D01*
X76138712Y-58629020D01*
X76302375Y-58384080D01*
X76312387Y-58333746D01*
X76359847Y-58095154D01*
X76359846Y-58095149D01*
X76359846Y-57974656D01*
X76472974Y-57952145D01*
X76615326Y-57923829D01*
X76615347Y-57923815D01*
X76615372Y-57923810D01*
X76741360Y-57839616D01*
X76792119Y-57805700D01*
X77456468Y-57805700D01*
X77521334Y-57870566D01*
G36*
X88500000Y-55272440D02*
X91500000Y-55272440D01*
X91684629Y-55237700D01*
X91648559Y-55260910D01*
X91503569Y-55473110D01*
X91452560Y-55725000D01*
X91452560Y-56525000D01*
X91496451Y-56758260D01*
X91452560Y-56975000D01*
X91452560Y-57775000D01*
X91496451Y-58008260D01*
X91452560Y-58225000D01*
X91452560Y-59025000D01*
X91482313Y-59183124D01*
X91245834Y-59341134D01*
X91245832Y-59341137D01*
X90846868Y-59740100D01*
X87321280Y-59740100D01*
X87641529Y-59419851D01*
X87776614Y-59222148D01*
X87831098Y-58970986D01*
X87828458Y-58956953D01*
X87831360Y-58952601D01*
X87913329Y-58829926D01*
X87913398Y-58829578D01*
X87913593Y-58829286D01*
X87942097Y-58685298D01*
X87970800Y-58541000D01*
X87970731Y-58540655D01*
X87970800Y-58540308D01*
X87941958Y-58396001D01*
X87916200Y-58266507D01*
X87916200Y-56631500D01*
X87893279Y-56516269D01*
X87971431Y-56401890D01*
X88022440Y-56150000D01*
X88022440Y-55522057D01*
X88049066Y-55504266D01*
X88260163Y-55293168D01*
X88260166Y-55293166D01*
X88300948Y-55232131D01*
X88500000Y-55272440D01*
X88500000Y-55272440D01*
G37*
X88500000Y-55272440D02*
X91500000Y-55272440D01*
X91684629Y-55237700D01*
X91648559Y-55260910D01*
X91503569Y-55473110D01*
X91452560Y-55725000D01*
X91452560Y-56525000D01*
X91496451Y-56758260D01*
X91452560Y-56975000D01*
X91452560Y-57775000D01*
X91496451Y-58008260D01*
X91452560Y-58225000D01*
X91452560Y-59025000D01*
X91482313Y-59183124D01*
X91245834Y-59341134D01*
X91245832Y-59341137D01*
X90846868Y-59740100D01*
X87321280Y-59740100D01*
X87641529Y-59419851D01*
X87776614Y-59222148D01*
X87831098Y-58970986D01*
X87828458Y-58956953D01*
X87831360Y-58952601D01*
X87913329Y-58829926D01*
X87913398Y-58829578D01*
X87913593Y-58829286D01*
X87942097Y-58685298D01*
X87970800Y-58541000D01*
X87970731Y-58540655D01*
X87970800Y-58540308D01*
X87941958Y-58396001D01*
X87916200Y-58266507D01*
X87916200Y-56631500D01*
X87893279Y-56516269D01*
X87971431Y-56401890D01*
X88022440Y-56150000D01*
X88022440Y-55522057D01*
X88049066Y-55504266D01*
X88260163Y-55293168D01*
X88260166Y-55293166D01*
X88300948Y-55232131D01*
X88500000Y-55272440D01*
G36*
X53577389Y-53487320D02*
X53246900Y-53708145D01*
X52973767Y-54116919D01*
X52877855Y-54599100D01*
X52973767Y-55081281D01*
X52974531Y-55082424D01*
X52878274Y-55101571D01*
X52633334Y-55265234D01*
X52469671Y-55510174D01*
X52412200Y-55799100D01*
X52412200Y-59415361D01*
X52002124Y-59141358D01*
X51462540Y-59034028D01*
X50922956Y-59141358D01*
X50685000Y-59300355D01*
X50685000Y-54897845D01*
X50922956Y-55056842D01*
X51462540Y-55164172D01*
X52002124Y-55056842D01*
X52459561Y-54751193D01*
X52765210Y-54293756D01*
X52872540Y-53754172D01*
X52872540Y-53444028D01*
X52828973Y-53225001D01*
X53315069Y-53225001D01*
X53577389Y-53487320D01*
X53577389Y-53487320D01*
G37*
X53577389Y-53487320D02*
X53246900Y-53708145D01*
X52973767Y-54116919D01*
X52877855Y-54599100D01*
X52973767Y-55081281D01*
X52974531Y-55082424D01*
X52878274Y-55101571D01*
X52633334Y-55265234D01*
X52469671Y-55510174D01*
X52412200Y-55799100D01*
X52412200Y-59415361D01*
X52002124Y-59141358D01*
X51462540Y-59034028D01*
X50922956Y-59141358D01*
X50685000Y-59300355D01*
X50685000Y-54897845D01*
X50922956Y-55056842D01*
X51462540Y-55164172D01*
X52002124Y-55056842D01*
X52459561Y-54751193D01*
X52765210Y-54293756D01*
X52872540Y-53754172D01*
X52872540Y-53444028D01*
X52828973Y-53225001D01*
X53315069Y-53225001D01*
X53577389Y-53487320D01*
G36*
X80988138Y-56782367D02*
X81130183Y-57126143D01*
X81392973Y-57389392D01*
X81736501Y-57532038D01*
X81749770Y-57532050D01*
X81873683Y-57831943D01*
X82136473Y-58095192D01*
X82390710Y-58200761D01*
X82494083Y-58450943D01*
X82756873Y-58714192D01*
X83100401Y-58856838D01*
X83472367Y-58857162D01*
X83816143Y-58715117D01*
X83858037Y-58673297D01*
X83968195Y-58783455D01*
X84077069Y-58857845D01*
X84144972Y-58960233D01*
X84484439Y-59299700D01*
X82684411Y-59299700D01*
X82658135Y-59167589D01*
X82658131Y-59167583D01*
X82658129Y-59167574D01*
X82564148Y-59026920D01*
X82494477Y-58922646D01*
X82494468Y-58922637D01*
X82494466Y-58922634D01*
X82494463Y-58922632D01*
X80473400Y-56901478D01*
X80473400Y-56830656D01*
X80709567Y-56830862D01*
X80988196Y-56715735D01*
X80988138Y-56782367D01*
X80988138Y-56782367D01*
G37*
X80988138Y-56782367D02*
X81130183Y-57126143D01*
X81392973Y-57389392D01*
X81736501Y-57532038D01*
X81749770Y-57532050D01*
X81873683Y-57831943D01*
X82136473Y-58095192D01*
X82390710Y-58200761D01*
X82494083Y-58450943D01*
X82756873Y-58714192D01*
X83100401Y-58856838D01*
X83472367Y-58857162D01*
X83816143Y-58715117D01*
X83858037Y-58673297D01*
X83968195Y-58783455D01*
X84077069Y-58857845D01*
X84144972Y-58960233D01*
X84484439Y-59299700D01*
X82684411Y-59299700D01*
X82658135Y-59167589D01*
X82658131Y-59167583D01*
X82658129Y-59167574D01*
X82564148Y-59026920D01*
X82494477Y-58922646D01*
X82494468Y-58922637D01*
X82494466Y-58922634D01*
X82494463Y-58922632D01*
X80473400Y-56901478D01*
X80473400Y-56830656D01*
X80709567Y-56830862D01*
X80988196Y-56715735D01*
X80988138Y-56782367D01*
G36*
X70397000Y-54127000D02*
X70377000Y-54127000D01*
X70377000Y-54147000D01*
X70123000Y-54147000D01*
X70123000Y-54127000D01*
X69075000Y-54127000D01*
X69075000Y-54750750D01*
X68977000Y-54848750D01*
X68977000Y-55573000D01*
X68997000Y-55573000D01*
X68997000Y-55683000D01*
X68703000Y-55683000D01*
X68703000Y-55573000D01*
X68723000Y-55573000D01*
X68723000Y-55028250D01*
X68825000Y-54926250D01*
X68825000Y-54127000D01*
X68803000Y-54127000D01*
X68803000Y-53956600D01*
X70397000Y-53956600D01*
X70397000Y-54127000D01*
X70397000Y-54127000D01*
G37*
X70397000Y-54127000D02*
X70377000Y-54127000D01*
X70377000Y-54147000D01*
X70123000Y-54147000D01*
X70123000Y-54127000D01*
X69075000Y-54127000D01*
X69075000Y-54750750D01*
X68977000Y-54848750D01*
X68977000Y-55573000D01*
X68997000Y-55573000D01*
X68997000Y-55683000D01*
X68703000Y-55683000D01*
X68703000Y-55573000D01*
X68723000Y-55573000D01*
X68723000Y-55028250D01*
X68825000Y-54926250D01*
X68825000Y-54127000D01*
X68803000Y-54127000D01*
X68803000Y-53956600D01*
X70397000Y-53956600D01*
X70397000Y-54127000D01*
G36*
X93315000Y-55077560D02*
X92100000Y-55077560D01*
X91915371Y-55112300D01*
X91951441Y-55089090D01*
X92096431Y-54876890D01*
X92147440Y-54625000D01*
X92147440Y-52525000D01*
X92103162Y-52289683D01*
X91964090Y-52073559D01*
X91751890Y-51928569D01*
X91500000Y-51877560D01*
X88500000Y-51877560D01*
X88264683Y-51921838D01*
X88048559Y-52060910D01*
X87903569Y-52273110D01*
X87852560Y-52525000D01*
X87852560Y-52594529D01*
X86024166Y-50766134D01*
X85902740Y-50685000D01*
X93315000Y-50685000D01*
X93315000Y-55077560D01*
X93315000Y-55077560D01*
G37*
X93315000Y-55077560D02*
X92100000Y-55077560D01*
X91915371Y-55112300D01*
X91951441Y-55089090D01*
X92096431Y-54876890D01*
X92147440Y-54625000D01*
X92147440Y-52525000D01*
X92103162Y-52289683D01*
X91964090Y-52073559D01*
X91751890Y-51928569D01*
X91500000Y-51877560D01*
X88500000Y-51877560D01*
X88264683Y-51921838D01*
X88048559Y-52060910D01*
X87903569Y-52273110D01*
X87852560Y-52525000D01*
X87852560Y-52594529D01*
X86024166Y-50766134D01*
X85902740Y-50685000D01*
X93315000Y-50685000D01*
X93315000Y-55077560D01*
G36*
X61702000Y-53873000D02*
X61722000Y-53873000D01*
X61722000Y-54127000D01*
X61702000Y-54127000D01*
X61702000Y-54147000D01*
X61448000Y-54147000D01*
X61448000Y-54127000D01*
X61428000Y-54127000D01*
X61428000Y-53873000D01*
X61448000Y-53873000D01*
X61448000Y-53853000D01*
X61702000Y-53853000D01*
X61702000Y-53873000D01*
X61702000Y-53873000D01*
G37*
X61702000Y-53873000D02*
X61722000Y-53873000D01*
X61722000Y-54127000D01*
X61702000Y-54127000D01*
X61702000Y-54147000D01*
X61448000Y-54147000D01*
X61448000Y-54127000D01*
X61428000Y-54127000D01*
X61428000Y-53873000D01*
X61448000Y-53873000D01*
X61448000Y-53853000D01*
X61702000Y-53853000D01*
X61702000Y-53873000D01*
G36*
X55329946Y-52379147D02*
X55811715Y-52701054D01*
X56380000Y-52814093D01*
X56948285Y-52701054D01*
X57430054Y-52379147D01*
X57650000Y-52049974D01*
X57869946Y-52379147D01*
X58204308Y-52602560D01*
X57850000Y-52602560D01*
X57614683Y-52646838D01*
X57398559Y-52785910D01*
X57253569Y-52998110D01*
X57203573Y-53245000D01*
X55470531Y-53245000D01*
X54706463Y-52480932D01*
X55035183Y-52181358D01*
X55102298Y-52038447D01*
X55329946Y-52379147D01*
X55329946Y-52379147D01*
G37*
X55329946Y-52379147D02*
X55811715Y-52701054D01*
X56380000Y-52814093D01*
X56948285Y-52701054D01*
X57430054Y-52379147D01*
X57650000Y-52049974D01*
X57869946Y-52379147D01*
X58204308Y-52602560D01*
X57850000Y-52602560D01*
X57614683Y-52646838D01*
X57398559Y-52785910D01*
X57253569Y-52998110D01*
X57203573Y-53245000D01*
X55470531Y-53245000D01*
X54706463Y-52480932D01*
X55035183Y-52181358D01*
X55102298Y-52038447D01*
X55329946Y-52379147D01*
G36*
X69207000Y-51173000D02*
X69227000Y-51173000D01*
X69227000Y-51427000D01*
X69207000Y-51427000D01*
X69207000Y-51447000D01*
X68953000Y-51447000D01*
X68953000Y-51427000D01*
X68933000Y-51427000D01*
X68933000Y-51173000D01*
X68953000Y-51173000D01*
X68953000Y-51153000D01*
X69207000Y-51153000D01*
X69207000Y-51173000D01*
X69207000Y-51173000D01*
G37*
X69207000Y-51173000D02*
X69227000Y-51173000D01*
X69227000Y-51427000D01*
X69207000Y-51427000D01*
X69207000Y-51447000D01*
X68953000Y-51447000D01*
X68953000Y-51427000D01*
X68933000Y-51427000D01*
X68933000Y-51173000D01*
X68953000Y-51173000D01*
X68953000Y-51153000D01*
X69207000Y-51153000D01*
X69207000Y-51173000D01*
G36*
X53967000Y-51173000D02*
X53987000Y-51173000D01*
X53987000Y-51427000D01*
X53967000Y-51427000D01*
X53967000Y-51447000D01*
X53713000Y-51447000D01*
X53713000Y-51427000D01*
X53693000Y-51427000D01*
X53693000Y-51173000D01*
X53713000Y-51173000D01*
X53713000Y-51153000D01*
X53967000Y-51153000D01*
X53967000Y-51173000D01*
X53967000Y-51173000D01*
G37*
X53967000Y-51173000D02*
X53987000Y-51173000D01*
X53987000Y-51427000D01*
X53967000Y-51427000D01*
X53967000Y-51447000D01*
X53713000Y-51447000D01*
X53713000Y-51427000D01*
X53693000Y-51427000D01*
X53693000Y-51173000D01*
X53713000Y-51173000D01*
X53713000Y-51153000D01*
X53967000Y-51153000D01*
X53967000Y-51173000D01*
M02*
