M48
;DRILL file {KiCad 4.0.7-e2-6376~61~ubuntu18.04.1} date Sun Sep 30 15:28:26 2018
;FORMAT={-:-/ absolute / inch / decimal}
FMAT,2
INCH,TZ
T1C0.016
T2C0.020
T3C0.022
T4C0.039
%
G90
G05
M72
T1
X2.0354Y-2.2087
X2.1181Y-2.5039
X2.2177Y-2.5812
X2.3406Y-2.6181
X2.3748Y-2.5165
X2.4037Y-2.5441
X2.4418Y-2.5409
X2.4535Y-2.6763
X2.49Y-2.2176
X2.5001Y-2.5115
X2.5245Y-2.2185
X2.5482Y-2.2414
X2.6092Y-2.4499
X2.6309Y-2.2405
X2.6378Y-2.3465
X2.6685Y-2.2464
X2.7689Y-2.4925
X2.7893Y-2.3149
X2.8302Y-2.2687
X2.8606Y-2.1099
X2.8791Y-2.6199
X2.9267Y-2.3472
X2.9322Y-2.4166
X2.9564Y-2.6067
X2.9569Y-2.4416
X2.9908Y-2.4864
X3.022Y-2.4663
X3.0512Y-2.3268
X3.0609Y-2.5565
X3.0966Y-2.5763
X3.109Y-2.2329
X3.1644Y-2.3921
X3.1703Y-2.2006
X3.1794Y-2.5592
X3.1873Y-2.5188
X3.2023Y-2.3512
X3.2253Y-2.2282
X3.2546Y-2.256
X3.2699Y-2.4882
X3.279Y-2.2804
X3.3344Y-2.5688
X3.3378Y-2.3393
X3.356Y-2.2162
X3.3701Y-2.5401
X3.4581Y-2.5083
X3.4751Y-2.551
X3.5315Y-2.0197
X3.5315Y-2.2795
T4
X2.0197Y-2.0197
X2.0197Y-2.7441
X2.1197Y-2.0197
X2.1197Y-2.7441
X2.2197Y-2.0197
X2.2197Y-2.7441
X2.3197Y-2.0197
X2.3197Y-2.7441
X2.4197Y-2.0197
X2.4197Y-2.7441
X2.5197Y-2.0197
X2.5197Y-2.7441
X2.6197Y-2.0197
X2.6197Y-2.7441
X2.7197Y-2.0197
X2.7197Y-2.7441
X2.8197Y-2.0197
X2.8197Y-2.7441
X2.9197Y-2.0197
X2.9197Y-2.7441
X3.0197Y-2.0197
X3.0197Y-2.7441
X3.1197Y-2.0197
X3.1197Y-2.7441
X3.2197Y-2.0197
X3.2197Y-2.7441
X3.3197Y-2.0197
X3.3197Y-2.7441
T2
X2.0133Y-2.1102G85X2.0389Y-2.1102
G05
X2.0133Y-2.3858G85X2.0389Y-2.3858
G05
T3
X2.1324Y-2.1437G85X2.1324Y-2.1555
G05
X2.1324Y-2.3405G85X2.1324Y-2.3523
G05
T0
M30
