  0
SECTION
  2
HEADER
  9
$ACADVER
  1
AC1032
  9
$ACADMAINTVER
 90
        4
  9
$DWGCODEPAGE
  3
ANSI_936
  9
$LASTSAVEDBY
  1
df4v
  9
$REQUIREDVERSIONS
160
                 0
  9
$INSBASE
 10
0.0
 20
0.0
 30
0.0
  9
$EXTMIN
 10
531.2457254087387
 20
74.07345769630359
 30
0.0
  9
$EXTMAX
 10
734.556943530093
 20
270.5282249697634
 30
0.0
  9
$LIMMIN
 10
0.0
 20
0.0
  9
$LIMMAX
 10
420.0
 20
297.0
  9
$ORTHOMODE
 70
     0
  9
$REGENMODE
 70
     1
  9
$FILLMODE
 70
     1
  9
$QTEXTMODE
 70
     0
  9
$MIRRTEXT
 70
     0
  9
$LTSCALE
 40
1.0
  9
$ATTMODE
 70
     1
  9
$TEXTSIZE
 40
2.5
  9
$TRACEWID
 40
1.0
  9
$TEXTSTYLE
  7
Standard
  9
$CLAYER
  8
0
  9
$CELTYPE
  6
ByLayer
  9
$CECOLOR
 62
   256
  9
$CELTSCALE
 40
1.0
  9
$DISPSILH
 70
     0
  9
$DIMSCALE
 40
1.0
  9
$DIMASZ
 40
2.5
  9
$DIMEXO
 40
0.625
  9
$DIMDLI
 40
3.75
  9
$DIMRND
 40
0.0
  9
$DIMDLE
 40
0.0
  9
$DIMEXE
 40
1.25
  9
$DIMTP
 40
0.0
  9
$DIMTM
 40
0.0
  9
$DIMTXT
 40
2.5
  9
$DIMCEN
 40
2.5
  9
$DIMTSZ
 40
0.0
  9
$DIMTOL
 70
     0
  9
$DIMLIM
 70
     0
  9
$DIMTIH
 70
     0
  9
$DIMTOH
 70
     0
  9
$DIMSE1
 70
     0
  9
$DIMSE2
 70
     0
  9
$DIMTAD
 70
     1
  9
$DIMZIN
 70
     8
  9
$DIMBLK
  1

  9
$DIMASO
 70
     1
  9
$DIMSHO
 70
     1
  9
$DIMPOST
  1

  9
$DIMAPOST
  1

  9
$DIMALT
 70
     0
  9
$DIMALTD
 70
     3
  9
$DIMALTF
 40
0.03937007874016
  9
$DIMLFAC
 40
1.0
  9
$DIMTOFL
 70
     1
  9
$DIMTVP
 40
0.0
  9
$DIMTIX
 70
     0
  9
$DIMSOXD
 70
     0
  9
$DIMSAH
 70
     0
  9
$DIMBLK1
  1

  9
$DIMBLK2
  1

  9
$DIMSTYLE
  2
ISO-25
  9
$DIMCLRD
 70
     0
  9
$DIMCLRE
 70
     0
  9
$DIMCLRT
 70
     0
  9
$DIMTFAC
 40
1.0
  9
$DIMGAP
 40
0.625
  9
$DIMJUST
 70
     0
  9
$DIMSD1
 70
     0
  9
$DIMSD2
 70
     0
  9
$DIMTOLJ
 70
     0
  9
$DIMTZIN
 70
     8
  9
$DIMALTZ
 70
     0
  9
$DIMALTTZ
 70
     0
  9
$DIMUPT
 70
     0
  9
$DIMDEC
 70
     2
  9
$DIMTDEC
 70
     2
  9
$DIMALTU
 70
     2
  9
$DIMALTTD
 70
     3
  9
$DIMTXSTY
  7
Standard
  9
$DIMAUNIT
 70
     0
  9
$DIMADEC
 70
     0
  9
$DIMALTRND
 40
0.0
  9
$DIMAZIN
 70
     0
  9
$DIMDSEP
 70
    44
  9
$DIMATFIT
 70
     3
  9
$DIMFRAC
 70
     0
  9
$DIMLDRBLK
  1

  9
$DIMLUNIT
 70
     2
  9
$DIMLWD
 70
    -2
  9
$DIMLWE
 70
    -2
  9
$DIMTMOVE
 70
     0
  9
$DIMFXL
 40
1.0
  9
$DIMFXLON
 70
     0
  9
$DIMJOGANG
 40
0.7853981633974483
  9
$DIMTFILL
 70
     0
  9
$DIMTFILLCLR
 70
     0
  9
$DIMARCSYM
 70
     0
  9
$DIMLTYPE
  6

  9
$DIMLTEX1
  6

  9
$DIMLTEX2
  6

  9
$DIMTXTDIRECTION
 70
     0
  9
$LUNITS
 70
     2
  9
$LUPREC
 70
     4
  9
$SKETCHINC
 40
1.0
  9
$FILLETRAD
 40
0.0
  9
$AUNITS
 70
     0
  9
$AUPREC
 70
     0
  9
$MENU
  1
.
  9
$ELEVATION
 40
0.0
  9
$PELEVATION
 40
0.0
  9
$THICKNESS
 40
0.0
  9
$LIMCHECK
 70
     0
  9
$CHAMFERA
 40
0.0
  9
$CHAMFERB
 40
0.0
  9
$CHAMFERC
 40
0.0
  9
$CHAMFERD
 40
0.0
  9
$SKPOLY
 70
     0
  9
$TDCREATE
 40
2457807.443425926
  9
$TDUCREATE
 40
2457807.110097269
  9
$TDUPDATE
 40
2458405.841145833
  9
$TDUUPDATE
 40
2458405.507812500
  9
$TDINDWG
 40
0.3105765741
  9
$TDUSRTIMER
 40
0.3105763889
  9
$USRTIMER
 70
     1
  9
$ANGBASE
 50
0.0
  9
$ANGDIR
 70
     0
  9
$PDMODE
 70
     0
  9
$PDSIZE
 40
0.0
  9
$PLINEWID
 40
0.0
  9
$SPLFRAME
 70
     0
  9
$SPLINETYPE
 70
     6
  9
$SPLINESEGS
 70
     8
  9
$HANDSEED
  5
B84
  9
$SURFTAB1
 70
     6
  9
$SURFTAB2
 70
     6
  9
$SURFTYPE
 70
     6
  9
$SURFU
 70
     6
  9
$SURFV
 70
     6
  9
$UCSBASE
  2

  9
$UCSNAME
  2

  9
$UCSORG
 10
0.0
 20
0.0
 30
0.0
  9
$UCSXDIR
 10
1.0
 20
0.0
 30
0.0
  9
$UCSYDIR
 10
0.0
 20
1.0
 30
0.0
  9
$UCSORTHOREF
  2

  9
$UCSORTHOVIEW
 70
     0
  9
$UCSORGTOP
 10
0.0
 20
0.0
 30
0.0
  9
$UCSORGBOTTOM
 10
0.0
 20
0.0
 30
0.0
  9
$UCSORGLEFT
 10
0.0
 20
0.0
 30
0.0
  9
$UCSORGRIGHT
 10
0.0
 20
0.0
 30
0.0
  9
$UCSORGFRONT
 10
0.0
 20
0.0
 30
0.0
  9
$UCSORGBACK
 10
0.0
 20
0.0
 30
0.0
  9
$PUCSBASE
  2

  9
$PUCSNAME
  2

  9
$PUCSORG
 10
0.0
 20
0.0
 30
0.0
  9
$PUCSXDIR
 10
1.0
 20
0.0
 30
0.0
  9
$PUCSYDIR
 10
0.0
 20
1.0
 30
0.0
  9
$PUCSORTHOREF
  2

  9
$PUCSORTHOVIEW
 70
     0
  9
$PUCSORGTOP
 10
0.0
 20
0.0
 30
0.0
  9
$PUCSORGBOTTOM
 10
0.0
 20
0.0
 30
0.0
  9
$PUCSORGLEFT
 10
0.0
 20
0.0
 30
0.0
  9
$PUCSORGRIGHT
 10
0.0
 20
0.0
 30
0.0
  9
$PUCSORGFRONT
 10
0.0
 20
0.0
 30
0.0
  9
$PUCSORGBACK
 10
0.0
 20
0.0
 30
0.0
  9
$USERI1
 70
     0
  9
$USERI2
 70
     0
  9
$USERI3
 70
     0
  9
$USERI4
 70
     0
  9
$USERI5
 70
     0
  9
$USERR1
 40
0.0
  9
$USERR2
 40
0.0
  9
$USERR3
 40
0.0
  9
$USERR4
 40
0.0
  9
$USERR5
 40
0.0
  9
$WORLDVIEW
 70
     1
  9
$SHADEDGE
 70
     3
  9
$SHADEDIF
 70
    70
  9
$TILEMODE
 70
     1
  9
$MAXACTVP
 70
    64
  9
$PINSBASE
 10
0.0
 20
0.0
 30
0.0
  9
$PLIMCHECK
 70
     0
  9
$PEXTMIN
 10
0.0
 20
0.0
 30
0.0
  9
$PEXTMAX
 10
0.0
 20
0.0
 30
0.0
  9
$PLIMMIN
 10
0.0
 20
0.0
  9
$PLIMMAX
 10
12.0
 20
9.0
  9
$UNITMODE
 70
     0
  9
$VISRETAIN
 70
     1
  9
$PLINEGEN
 70
     0
  9
$PSLTSCALE
 70
     1
  9
$TREEDEPTH
 70
  3020
  9
$CMLSTYLE
  2
Standard
  9
$CMLJUST
 70
     0
  9
$CMLSCALE
 40
20.0
  9
$PROXYGRAPHICS
 70
     1
  9
$MEASUREMENT
 70
     1
  9
$CELWEIGHT
370
    -1
  9
$ENDCAPS
280
     0
  9
$JOINSTYLE
280
     0
  9
$LWDISPLAY
290
     0
  9
$INSUNITS
 70
     4
  9
$HYPERLINKBASE
  1

  9
$STYLESHEET
  1

  9
$XEDIT
290
     1
  9
$CEPSNTYPE
380
     0
  9
$PSTYLEMODE
290
     1
  9
$FINGERPRINTGUID
  2
{990A3A60-F35C-4948-BC31-D613AE3ADA12}
  9
$VERSIONGUID
  2
{AEC99B8B-665C-B148-8A6E-83930B6D09C3}
  9
$EXTNAMES
290
     1
  9
$PSVPSCALE
 40
0.0
  9
$OLESTARTUP
290
     0
  9
$SORTENTS
280
   127
  9
$INDEXCTL
280
     0
  9
$HIDETEXT
280
     1
  9
$XCLIPFRAME
280
     0
  9
$HALOGAP
280
     0
  9
$OBSCOLOR
 70
   257
  9
$OBSLTYPE
280
     0
  9
$INTERSECTIONDISPLAY
280
     0
  9
$INTERSECTIONCOLOR
 70
   257
  9
$DIMASSOC
280
     2
  9
$PROJECTNAME
  1

  9
$CAMERADISPLAY
290
     0
  9
$LENSLENGTH
 40
50.0
  9
$CAMERAHEIGHT
 40
0.0
  9
$STEPSPERSEC
 40
2.0
  9
$STEPSIZE
 40
6.0
  9
$3DDWFPREC
 40
2.0
  9
$PSOLWIDTH
 40
5.0
  9
$PSOLHEIGHT
 40
80.0
  9
$LOFTANG1
 40
1.570796326794896
  9
$LOFTANG2
 40
1.570796326794896
  9
$LOFTMAG1
 40
0.0
  9
$LOFTMAG2
 40
0.0
  9
$LOFTPARAM
 70
     7
  9
$LOFTNORMALS
280
     1
  9
$LATITUDE
 40
37.795
  9
$LONGITUDE
 40
-122.394
  9
$NORTHDIRECTION
 40
0.0
  9
$TIMEZONE
 70
 -8000
  9
$LIGHTGLYPHDISPLAY
280
     1
  9
$TILEMODELIGHTSYNCH
280
     1
  9
$CMATERIAL
347
EC
  9
$SOLIDHIST
280
     1
  9
$SHOWHIST
280
     1
  9
$DWFFRAME
280
     2
  9
$DGNFRAME
280
     0
  9
$REALWORLDSCALE
290
     1
  9
$INTERFERECOLOR
 62
     1
  9
$INTERFEREOBJVS
345
F9
  9
$INTERFEREVPVS
346
F6
  9
$CSHADOW
280
     0
  9
$SHADOWPLANELOCATION
 40
0.0
  0
ENDSEC
  0
SECTION
  2
CLASSES
  0
CLASS
  1
ACDBDICTIONARYWDFLT
  2
AcDbDictionaryWithDefault
  3
ObjectDBX Classes
 90
        0
 91
        1
280
     0
281
     0
  0
CLASS
  1
DICTIONARYVAR
  2
AcDbDictionaryVar
  3
ObjectDBX Classes
 90
        0
 91
        9
280
     0
281
     0
  0
CLASS
  1
TABLESTYLE
  2
AcDbTableStyle
  3
ObjectDBX Classes
 90
     4095
 91
        1
280
     0
281
     0
  0
CLASS
  1
MATERIAL
  2
AcDbMaterial
  3
ObjectDBX Classes
 90
     1153
 91
        3
280
     0
281
     0
  0
CLASS
  1
VISUALSTYLE
  2
AcDbVisualStyle
  3
ObjectDBX Classes
 90
     4095
 91
       26
280
     0
281
     0
  0
CLASS
  1
SCALE
  2
AcDbScale
  3
ObjectDBX Classes
 90
     1153
 91
       17
280
     0
281
     0
  0
CLASS
  1
MLEADERSTYLE
  2
AcDbMLeaderStyle
  3
ACDB_MLEADERSTYLE_CLASS
 90
     4095
 91
        2
280
     0
281
     0
  0
CLASS
  1
CELLSTYLEMAP
  2
AcDbCellStyleMap
  3
ObjectDBX Classes
 90
     1152
 91
        1
280
     0
281
     0
  0
CLASS
  1
EXACXREFPANELOBJECT
  2
ExAcXREFPanelObject
  3
EXAC_ESW
 90
     1025
 91
        0
280
     0
281
     0
  0
CLASS
  1
NPOCOLLECTION
  2
AcDbImpNonPersistentObjectsCollection
  3
ObjectDBX Classes
 90
     1153
 91
        0
280
     0
281
     0
  0
CLASS
  1
LAYER_INDEX
  2
AcDbLayerIndex
  3
ObjectDBX Classes
 90
        0
 91
        0
280
     0
281
     0
  0
CLASS
  1
SPATIAL_INDEX
  2
AcDbSpatialIndex
  3
ObjectDBX Classes
 90
        0
 91
        0
280
     0
281
     0
  0
CLASS
  1
IDBUFFER
  2
AcDbIdBuffer
  3
ObjectDBX Classes
 90
        0
 91
        0
280
     0
281
     0
  0
CLASS
  1
ACDBSECTIONVIEWSTYLE
  2
AcDbSectionViewStyle
  3
ObjectDBX Classes
 90
     1025
 91
        1
280
     0
281
     0
  0
CLASS
  1
ACDBDETAILVIEWSTYLE
  2
AcDbDetailViewStyle
  3
ObjectDBX Classes
 90
     1025
 91
        1
280
     0
281
     0
  0
ENDSEC
  0
SECTION
  2
TABLES
  0
TABLE
  2
VPORT
  5
8
330
0
100
AcDbSymbolTable
 70
     1
  0
VPORT
  5
EA
330
8
100
AcDbSymbolTableRecord
100
AcDbViewportTableRecord
  2
*Active
 70
     0
 10
0.0
 20
0.0
 11
1.0
 21
1.0
 12
631.6398157737872
 22
135.6334143945835
 13
0.0
 23
0.0
 14
10.0
 24
10.0
 15
10.0
 25
10.0
 16
0.0
 26
0.0
 36
1.0
 17
0.0
 27
0.0
 37
0.0
 40
316.4340870494211
 41
2.01855976243504
 42
50.0
 43
0.0
 44
0.0
 50
0.0
 51
0.0
 71
     0
 72
  1000
 73
     1
 74
     3
 75
     0
 76
     0
 77
     0
 78
     0
281
     0
 65
     1
110
0.0
120
0.0
130
0.0
111
1.0
121
0.0
131
0.0
112
0.0
122
1.0
132
0.0
 79
     0
146
0.0
348
F5
 60
     2
 61
     5
292
     1
282
     1
141
0.0
142
0.0
 63
   250
421
  3355443
1001
ACAD_NAV_VCDISPLAY
1070
     3
  0
ENDTAB
  0
TABLE
  2
LTYPE
  5
5
330
0
100
AcDbSymbolTable
 70
     1
  0
LTYPE
  5
14
330
5
100
AcDbSymbolTableRecord
100
AcDbLinetypeTableRecord
  2
ByBlock
 70
     0
  3

 72
    65
 73
     0
 40
0.0
  0
LTYPE
  5
15
330
5
100
AcDbSymbolTableRecord
100
AcDbLinetypeTableRecord
  2
ByLayer
 70
     0
  3

 72
    65
 73
     0
 40
0.0
  0
LTYPE
  5
16
330
5
100
AcDbSymbolTableRecord
100
AcDbLinetypeTableRecord
  2
Continuous
 70
     0
  3
Solid line
 72
    65
 73
     0
 40
0.0
  0
ENDTAB
  0
TABLE
  2
LAYER
  5
2
102
{ACAD_XDICTIONARY
360
940
102
}
330
0
100
AcDbSymbolTable
 70
     1
  0
LAYER
  5
10
102
{ACAD_XDICTIONARY
360
13C
102
}
330
2
100
AcDbSymbolTableRecord
100
AcDbLayerTableRecord
  2
0
 70
     0
 62
     7
  6
Continuous
370
    -3
390
F
347
EE
348
0
  0
ENDTAB
  0
TABLE
  2
STYLE
  5
3
330
0
100
AcDbSymbolTable
 70
     2
  0
STYLE
  5
11
330
3
100
AcDbSymbolTableRecord
100
AcDbTextStyleTableRecord
  2
Standard
 70
     0
 40
0.0
 41
1.0
 50
0.0
 71
     0
 42
2.5
  3

  4

1001
ACAD
1000
SimSun
1071
       34
  0
STYLE
  5
132
330
3
100
AcDbSymbolTableRecord
100
AcDbTextStyleTableRecord
  2
Annotative
 70
     0
 40
0.0
 41
1.0
 50
0.0
 71
     0
 42
2.5
  3

  4

1001
AcadAnnotative
1000
AnnotativeData
1002
{
1070
     1
1070
     1
1002
}
1001
ACAD
1000
SimSun
1071
       34
  0
ENDTAB
  0
TABLE
  2
VIEW
  5
6
330
0
100
AcDbSymbolTable
 70
     1
  0
ENDTAB
  0
TABLE
  2
UCS
  5
7
330
0
100
AcDbSymbolTable
 70
     0
  0
ENDTAB
  0
TABLE
  2
APPID
  5
9
330
0
100
AcDbSymbolTable
 70
     9
  0
APPID
  5
12
330
9
100
AcDbSymbolTableRecord
100
AcDbRegAppTableRecord
  2
ACAD
 70
     0
  0
APPID
  5
9E
330
9
100
AcDbSymbolTableRecord
100
AcDbRegAppTableRecord
  2
ACAD_PSEXT
 70
     0
  0
APPID
  5
133
330
9
100
AcDbSymbolTableRecord
100
AcDbRegAppTableRecord
  2
AcadAnnoPO
 70
     0
  0
APPID
  5
134
330
9
100
AcDbSymbolTableRecord
100
AcDbRegAppTableRecord
  2
AcadAnnotative
 70
     0
  0
APPID
  5
135
330
9
100
AcDbSymbolTableRecord
100
AcDbRegAppTableRecord
  2
ACAD_DSTYLE_DIMJAG
 70
     0
  0
APPID
  5
136
330
9
100
AcDbSymbolTableRecord
100
AcDbRegAppTableRecord
  2
ACAD_DSTYLE_DIMTALN
 70
     0
  0
APPID
  5
165
330
9
100
AcDbSymbolTableRecord
100
AcDbRegAppTableRecord
  2
ACAD_MLEADERVER
 70
     0
  0
APPID
  5
1E7
330
9
100
AcDbSymbolTableRecord
100
AcDbRegAppTableRecord
  2
ACAD_EXEMPT_FROM_CAD_STANDARDS
 70
     0
  0
APPID
  5
85F
330
9
100
AcDbSymbolTableRecord
100
AcDbRegAppTableRecord
  2
ACAD_NAV_VCDISPLAY
 70
     0
  0
ENDTAB
  0
TABLE
  2
DIMSTYLE
  5
A
330
0
100
AcDbSymbolTable
 70
     3
100
AcDbDimStyleTable
 71
     2
340
27
340
137
  0
DIMSTYLE
105
1B0
330
A
100
AcDbSymbolTableRecord
100
AcDbDimStyleTableRecord
  2
Standard
 70
     0
340
11
  0
DIMSTYLE
105
137
330
A
100
AcDbSymbolTableRecord
100
AcDbDimStyleTableRecord
  2
Annotative
 70
     0
 40
0.0
 41
2.5
 42
0.625
 43
3.75
 44
1.25
 73
     0
 74
     0
 77
     1
 78
     8
140
2.5
141
2.5
143
0.03937007874016
147
0.625
171
     3
172
     1
271
     2
272
     2
274
     3
278
    44
283
     0
284
     8
340
11
1001
AcadAnnotative
1000
AnnotativeData
1002
{
1070
     1
1070
     1
1002
}
1001
ACAD_DSTYLE_DIMJAG
1070
   388
1040
1.5
1001
ACAD_DSTYLE_DIMTALN
1070
   392
1070
     0
  0
DIMSTYLE
105
27
330
A
100
AcDbSymbolTableRecord
100
AcDbDimStyleTableRecord
  2
ISO-25
 70
     0
 41
2.5
 42
0.625
 43
3.75
 44
1.25
 73
     0
 74
     0
 77
     1
 78
     8
140
2.5
141
2.5
143
0.03937007874016
147
0.625
171
     3
172
     1
271
     2
272
     2
274
     3
278
    44
283
     0
284
     8
340
11
  0
ENDTAB
  0
TABLE
  2
BLOCK_RECORD
  5
1
330
0
100
AcDbSymbolTable
 70
     1
  0
BLOCK_RECORD
  5
1F
102
{ACAD_XDICTIONARY
360
1CE
102
}
330
1
100
AcDbSymbolTableRecord
100
AcDbBlockTableRecord
  2
*Model_Space
340
22
 70
     0
280
     1
281
     0
  0
BLOCK_RECORD
  5
D2
330
1
100
AcDbSymbolTableRecord
100
AcDbBlockTableRecord
  2
*Paper_Space
340
D3
 70
     0
280
     1
281
     0
  0
BLOCK_RECORD
  5
D6
330
1
100
AcDbSymbolTableRecord
100
AcDbBlockTableRecord
  2
*Paper_Space0
340
D7
 70
     0
280
     1
281
     0
  0
ENDTAB
  0
ENDSEC
  0
SECTION
  2
BLOCKS
  0
BLOCK
  5
20
330
1F
100
AcDbEntity
  8
0
100
AcDbBlockBegin
  2
*Model_Space
 70
     0
 10
0.0
 20
0.0
 30
0.0
  3
*Model_Space
  1

  0
ENDBLK
  5
21
330
1F
100
AcDbEntity
  8
0
100
AcDbBlockEnd
  0
BLOCK
  5
D4
330
D2
100
AcDbEntity
 67
     1
  8
0
100
AcDbBlockBegin
  2
*Paper_Space
 70
     0
 10
0.0
 20
0.0
 30
0.0
  3
*Paper_Space
  1

  0
ENDBLK
  5
D5
330
D2
100
AcDbEntity
 67
     1
  8
0
100
AcDbBlockEnd
  0
BLOCK
  5
D8
330
D6
100
AcDbEntity
 67
     1
  8
0
100
AcDbBlockBegin
  2
*Paper_Space0
 70
     0
 10
0.0
 20
0.0
 30
0.0
  3
*Paper_Space0
  1

  0
ENDBLK
  5
D9
330
D6
100
AcDbEntity
 67
     1
  8
0
100
AcDbBlockEnd
  0
ENDSEC
  0
SECTION
  2
ENTITIES
  0
LINE
  5
2AE
330
1F
100
AcDbEntity
  8
0
 62
     7
420
 16777215
370
     0
100
AcDbLine
 10
661.2114254568007
 20
187.258406628393
 30
0.0
 11
661.2114254568007
 21
220.258406628393
 31
0.0
  0
LINE
  5
2AF
330
1F
100
AcDbEntity
  8
0
 62
     7
420
 16777215
370
     0
100
AcDbLine
 10
661.2114254568007
 20
220.258406628393
 30
0.0
 11
682.7114254568007
 21
220.258406628393
 31
0.0
  0
LINE
  5
2B0
330
1F
100
AcDbEntity
  8
0
 62
     7
420
 16777215
370
     0
100
AcDbLine
 10
682.7114254568007
 20
220.258406628393
 30
0.0
 11
682.7114254568007
 21
187.258406628393
 31
0.0
  0
LINE
  5
2B1
330
1F
100
AcDbEntity
  8
0
 62
     7
420
 16777215
370
     0
100
AcDbLine
 10
682.7114254568007
 20
187.258406628393
 30
0.0
 11
661.2114254568007
 21
187.258406628393
 31
0.0
  0
LINE
  5
596
330
1F
100
AcDbEntity
  8
0
 62
     7
420
 16777215
370
     0
100
AcDbLine
 10
536.2457254087387
 20
239.0852633871994
 30
0.0
 11
551.2457254087387
 21
239.0852633871994
 31
0.0
  0
LINE
  5
597
330
1F
100
AcDbEntity
  8
0
 62
     7
420
 16777215
370
     0
100
AcDbLine
 10
566.245725408739
 20
239.0852633871994
 30
0.0
 11
581.2457254087387
 21
239.0852633871994
 31
0.0
  0
LINE
  5
598
330
1F
100
AcDbEntity
  8
0
 62
     7
420
 16777215
370
     0
100
AcDbLine
 10
581.2457254087387
 20
239.0852633871994
 30
0.0
 11
581.2457254087387
 21
244.8352633871994
 31
0.0
  0
LINE
  5
599
330
1F
100
AcDbEntity
  8
0
 62
     7
420
 16777215
370
     0
100
AcDbLine
 10
581.2457254087387
 20
254.8352633871994
 30
0.0
 11
581.2457254087387
 21
260.5852633871994
 31
0.0
  0
LINE
  5
59A
330
1F
100
AcDbEntity
  8
0
 62
     7
420
 16777215
370
     0
100
AcDbLine
 10
581.2457254087387
 20
260.5852633871994
 30
0.0
 11
566.245725408739
 21
260.5852633871994
 31
0.0
  0
LINE
  5
59B
330
1F
100
AcDbEntity
  8
0
 62
     7
420
 16777215
370
     0
100
AcDbLine
 10
551.2457254087387
 20
260.5852633871994
 30
0.0
 11
536.2457254087387
 21
260.5852633871994
 31
0.0
  0
LINE
  5
59C
330
1F
100
AcDbEntity
  8
0
 62
     7
420
 16777215
370
     0
100
AcDbLine
 10
536.2457254087387
 20
260.5852633871994
 30
0.0
 11
536.2457254087387
 21
254.8352633871994
 31
0.0
  0
LINE
  5
59D
330
1F
100
AcDbEntity
  8
0
 62
     7
420
 16777215
370
     0
100
AcDbLine
 10
536.2457254087387
 20
244.8352633871994
 30
0.0
 11
536.2457254087387
 21
239.0852633871994
 31
0.0
  0
LINE
  5
5AB
330
1F
100
AcDbEntity
  8
0
 62
     7
420
 16777215
370
     0
100
AcDbLine
 10
545.245725408739
 20
253.8352633871994
 30
0.0
 11
573.2457254087387
 21
253.8352633871994
 31
0.0
  0
LINE
  5
5AC
330
1F
100
AcDbEntity
  8
0
 62
     7
420
 16777215
370
     0
100
AcDbLine
 10
573.2457254087387
 20
245.8352633871994
 30
0.0
 11
545.245725408739
 21
245.8352633871994
 31
0.0
  0
LINE
  5
5AD
330
1F
100
AcDbEntity
  8
0
 62
     7
420
 16777215
370
     0
100
AcDbLine
 10
545.245725408739
 20
253.8352633871994
 30
0.0
 11
545.245725408739
 21
245.8352633871994
 31
0.0
  0
LINE
  5
5B3
330
1F
100
AcDbEntity
  8
0
 62
     7
420
 16777215
370
     0
100
AcDbLine
 10
551.2457254087387
 20
260.5852633871994
 30
0.0
 11
551.2457254087387
 21
262.5852633871994
 31
0.0
  0
LINE
  5
5B4
330
1F
100
AcDbEntity
  8
0
 62
     7
420
 16777215
370
     0
100
AcDbLine
 10
551.2457254087387
 20
262.5852633871994
 30
0.0
 11
566.245725408739
 21
262.5852633871994
 31
0.0
  0
LINE
  5
5B5
330
1F
100
AcDbEntity
  8
0
 62
     7
420
 16777215
370
     0
100
AcDbLine
 10
566.245725408739
 20
262.5852633871994
 30
0.0
 11
566.245725408739
 21
260.5852633871994
 31
0.0
  0
LINE
  5
5B6
330
1F
100
AcDbEntity
  8
0
 62
     7
420
 16777215
370
     0
100
AcDbLine
 10
581.2457254087387
 20
254.8352633871994
 30
0.0
 11
583.245725408739
 21
254.8352633871994
 31
0.0
  0
LINE
  5
5B7
330
1F
100
AcDbEntity
  8
0
 62
     7
420
 16777215
370
     0
100
AcDbLine
 10
583.245725408739
 20
254.8352633871994
 30
0.0
 11
583.245725408739
 21
244.8352633871994
 31
0.0
  0
LINE
  5
5B8
330
1F
100
AcDbEntity
  8
0
 62
     7
420
 16777215
370
     0
100
AcDbLine
 10
583.245725408739
 20
244.8352633871994
 30
0.0
 11
581.2457254087387
 21
244.8352633871994
 31
0.0
  0
LINE
  5
5B9
330
1F
100
AcDbEntity
  8
0
 62
     7
420
 16777215
370
     0
100
AcDbLine
 10
536.2457254087387
 20
254.8352633871994
 30
0.0
 11
534.2457254087387
 21
254.8352633871994
 31
0.0
  0
LINE
  5
5BA
330
1F
100
AcDbEntity
  8
0
 62
     7
420
 16777215
370
     0
100
AcDbLine
 10
534.2457254087387
 20
254.8352633871994
 30
0.0
 11
534.2457254087387
 21
244.8352633871994
 31
0.0
  0
LINE
  5
5BB
330
1F
100
AcDbEntity
  8
0
 62
     7
420
 16777215
370
     0
100
AcDbLine
 10
534.2457254087387
 20
244.8352633871994
 30
0.0
 11
536.2457254087387
 21
244.8352633871994
 31
0.0
  0
LINE
  5
5BC
330
1F
100
AcDbEntity
  8
0
 62
     7
420
 16777215
370
     0
100
AcDbLine
 10
551.2457254087387
 20
239.0852633871994
 30
0.0
 11
551.2457254087387
 21
237.0852633871994
 31
0.0
  0
LINE
  5
5BD
330
1F
100
AcDbEntity
  8
0
 62
     7
420
 16777215
370
     0
100
AcDbLine
 10
551.2457254087387
 20
237.0852633871994
 30
0.0
 11
566.245725408739
 21
237.0852633871994
 31
0.0
  0
LINE
  5
5BE
330
1F
100
AcDbEntity
  8
0
 62
     7
420
 16777215
370
     0
100
AcDbLine
 10
566.245725408739
 20
237.0852633871994
 30
0.0
 11
566.245725408739
 21
239.0852633871994
 31
0.0
  0
LINE
  5
5BF
330
1F
100
AcDbEntity
  8
0
 62
     7
420
 16777215
370
     0
100
AcDbLine
 10
593.6358933458517
 20
239.0852633871994
 30
0.0
 11
608.6358933458519
 21
239.0852633871994
 31
0.0
  0
LINE
  5
5C0
330
1F
100
AcDbEntity
  8
0
 62
     7
420
 16777215
370
     0
100
AcDbLine
 10
623.6358933458517
 20
239.0852633871994
 30
0.0
 11
638.6358933458517
 21
239.0852633871994
 31
0.0
  0
LINE
  5
5C1
330
1F
100
AcDbEntity
  8
0
 62
     7
420
 16777215
370
     0
100
AcDbLine
 10
638.6358933458517
 20
239.0852633871994
 30
0.0
 11
638.6358933458517
 21
244.8352633871994
 31
0.0
  0
LINE
  5
5C2
330
1F
100
AcDbEntity
  8
0
 62
     7
420
 16777215
370
     0
100
AcDbLine
 10
638.6358933458517
 20
254.8352633871994
 30
0.0
 11
638.6358933458517
 21
260.5852633871994
 31
0.0
  0
LINE
  5
5C3
330
1F
100
AcDbEntity
  8
0
 62
     7
420
 16777215
370
     0
100
AcDbLine
 10
638.6358933458517
 20
260.5852633871994
 30
0.0
 11
623.6358933458517
 21
260.5852633871994
 31
0.0
  0
LINE
  5
5C4
330
1F
100
AcDbEntity
  8
0
 62
     7
420
 16777215
370
     0
100
AcDbLine
 10
608.6358933458519
 20
260.5852633871994
 30
0.0
 11
593.6358933458517
 21
260.5852633871994
 31
0.0
  0
LINE
  5
5C5
330
1F
100
AcDbEntity
  8
0
 62
     7
420
 16777215
370
     0
100
AcDbLine
 10
593.6358933458517
 20
260.5852633871994
 30
0.0
 11
593.6358933458517
 21
254.8352633871994
 31
0.0
  0
LINE
  5
5C6
330
1F
100
AcDbEntity
  8
0
 62
     7
420
 16777215
370
     0
100
AcDbLine
 10
593.6358933458517
 20
244.8352633871994
 30
0.0
 11
593.6358933458517
 21
239.0852633871994
 31
0.0
  0
LINE
  5
5C7
330
1F
100
AcDbEntity
  8
0
 62
     7
420
 16777215
370
     0
100
AcDbLine
 10
608.6358933458519
 20
260.5852633871994
 30
0.0
 11
608.6358933458519
 21
262.5852633871994
 31
0.0
  0
LINE
  5
5C8
330
1F
100
AcDbEntity
  8
0
 62
     7
420
 16777215
370
     0
100
AcDbLine
 10
608.6358933458519
 20
262.5852633871994
 30
0.0
 11
623.6358933458517
 21
262.5852633871994
 31
0.0
  0
LINE
  5
5C9
330
1F
100
AcDbEntity
  8
0
 62
     7
420
 16777215
370
     0
100
AcDbLine
 10
623.6358933458517
 20
262.5852633871994
 30
0.0
 11
623.6358933458517
 21
260.5852633871994
 31
0.0
  0
LINE
  5
5CA
330
1F
100
AcDbEntity
  8
0
 62
     7
420
 16777215
370
     0
100
AcDbLine
 10
638.6358933458517
 20
254.8352633871994
 30
0.0
 11
640.6358933458517
 21
254.8352633871994
 31
0.0
  0
LINE
  5
5CB
330
1F
100
AcDbEntity
  8
0
 62
     7
420
 16777215
370
     0
100
AcDbLine
 10
640.6358933458517
 20
254.8352633871994
 30
0.0
 11
640.6358933458517
 21
244.8352633871994
 31
0.0
  0
LINE
  5
5CC
330
1F
100
AcDbEntity
  8
0
 62
     7
420
 16777215
370
     0
100
AcDbLine
 10
640.6358933458517
 20
244.8352633871994
 30
0.0
 11
638.6358933458517
 21
244.8352633871994
 31
0.0
  0
LINE
  5
5CD
330
1F
100
AcDbEntity
  8
0
 62
     7
420
 16777215
370
     0
100
AcDbLine
 10
593.6358933458517
 20
254.8352633871994
 30
0.0
 11
591.6358933458517
 21
254.8352633871994
 31
0.0
  0
LINE
  5
5CE
330
1F
100
AcDbEntity
  8
0
 62
     7
420
 16777215
370
     0
100
AcDbLine
 10
591.6358933458517
 20
254.8352633871994
 30
0.0
 11
591.6358933458517
 21
244.8352633871994
 31
0.0
  0
LINE
  5
5CF
330
1F
100
AcDbEntity
  8
0
 62
     7
420
 16777215
370
     0
100
AcDbLine
 10
591.6358933458517
 20
244.8352633871994
 30
0.0
 11
593.6358933458517
 21
244.8352633871994
 31
0.0
  0
LINE
  5
5D0
330
1F
100
AcDbEntity
  8
0
 62
     7
420
 16777215
370
     0
100
AcDbLine
 10
608.6358933458519
 20
239.0852633871994
 30
0.0
 11
608.6358933458519
 21
237.0852633871994
 31
0.0
  0
LINE
  5
5D1
330
1F
100
AcDbEntity
  8
0
 62
     7
420
 16777215
370
     0
100
AcDbLine
 10
608.6358933458519
 20
237.0852633871994
 30
0.0
 11
623.6358933458517
 21
237.0852633871994
 31
0.0
  0
LINE
  5
5D2
330
1F
100
AcDbEntity
  8
0
 62
     7
420
 16777215
370
     0
100
AcDbLine
 10
623.6358933458517
 20
237.0852633871994
 30
0.0
 11
623.6358933458517
 21
239.0852633871994
 31
0.0
  0
LINE
  5
5E7
330
1F
100
AcDbEntity
  8
0
 62
     7
420
 16777215
370
     0
100
AcDbLine
 10
551.3457254087389
 20
157.4565945723515
 30
0.0
 11
551.3457254087389
 21
155.4565945723515
 31
0.0
  0
LINE
  5
5E9
330
1F
100
AcDbEntity
  8
0
 62
     7
420
 16777215
370
     0
100
AcDbLine
 10
566.1457254087387
 20
155.4565945723515
 30
0.0
 11
566.1457254087387
 21
157.4565945723515
 31
0.0
  0
LINE
  5
5EA
330
1F
100
AcDbEntity
  8
0
 62
     7
420
 16777215
370
     0
100
AcDbLine
 10
551.3457254087389
 20
215.4565945723517
 30
0.0
 11
551.3457254087389
 21
217.4565945723517
 31
0.0
  0
LINE
  5
5EC
330
1F
100
AcDbEntity
  8
0
 62
     7
420
 16777215
370
     0
100
AcDbLine
 10
566.1457254087387
 20
217.4565945723517
 30
0.0
 11
566.1457254087387
 21
215.4565945723517
 31
0.0
  0
LINE
  5
5F0
330
1F
100
AcDbEntity
  8
0
 62
     7
420
 16777215
370
     0
100
AcDbLine
 10
581.2457254087387
 20
206.3565945723517
 30
0.0
 11
583.245725408739
 21
206.3565945723517
 31
0.0
  0
LINE
  5
5F2
330
1F
100
AcDbEntity
  8
0
 62
     7
420
 16777215
370
     0
100
AcDbLine
 10
583.245725408739
 20
191.5565945723516
 30
0.0
 11
581.2457254087387
 21
191.5565945723516
 31
0.0
  0
LINE
  5
623
330
1F
100
AcDbEntity
  8
0
 62
     7
420
 16777215
370
     0
100
AcDbLine
 10
551.2457254087387
 20
207.9565945723516
 30
0.0
 11
566.245725408739
 21
207.9565945723517
 31
0.0
  0
LINE
  5
624
330
1F
100
AcDbEntity
  8
0
 62
     7
420
 16777215
370
     0
100
AcDbLine
 10
566.245725408739
 20
211.9565945723517
 30
0.0
 11
551.2457254087387
 21
211.9565945723517
 31
0.0
  0
LINE
  5
625
330
1F
100
AcDbEntity
  8
0
 62
     7
420
 16777215
370
     0
100
AcDbLine
 10
566.245725408739
 20
211.9565945723517
 30
0.0
 11
573.7457254087387
 21
211.9565945723517
 31
0.0
  0
LINE
  5
626
330
1F
100
AcDbEntity
  8
0
 62
     7
420
 16777215
370
     0
100
AcDbLine
 10
573.7457254087387
 20
211.9565945723517
 30
0.0
 11
573.7457254087387
 21
207.9565945723517
 31
0.0
  0
LINE
  5
627
330
1F
100
AcDbEntity
  8
0
 62
     7
420
 16777215
370
     0
100
AcDbLine
 10
573.7457254087387
 20
207.9565945723517
 30
0.0
 11
566.245725408739
 21
207.9565945723517
 31
0.0
  0
LINE
  5
628
330
1F
100
AcDbEntity
  8
0
 62
     7
420
 16777215
370
     0
100
AcDbLine
 10
551.2457254087387
 20
211.9565945723517
 30
0.0
 11
543.7457254087387
 21
211.9565945723517
 31
0.0
  0
LINE
  5
629
330
1F
100
AcDbEntity
  8
0
 62
     7
420
 16777215
370
     0
100
AcDbLine
 10
543.7457254087387
 20
211.9565945723517
 30
0.0
 11
543.7457254087387
 21
207.9565945723516
 31
0.0
  0
LINE
  5
62A
330
1F
100
AcDbEntity
  8
0
 62
     7
420
 16777215
370
     0
100
AcDbLine
 10
543.7457254087387
 20
207.9565945723516
 30
0.0
 11
551.2457254087387
 21
207.9565945723516
 31
0.0
  0
ARC
  5
633
330
1F
100
AcDbEntity
  8
0
 62
     7
420
 16777215
370
     0
100
AcDbCircle
 10
534.2457254087387
 20
217.4565945723517
 30
0.0
 40
3.0
100
AcDbArc
 50
90.0
 51
180.0
  0
ARC
  5
638
330
1F
100
AcDbEntity
  8
0
 62
     7
420
 16777215
370
     0
100
AcDbCircle
 10
534.2457254087387
 20
155.4565945723517
 30
0.0
 40
3.0
100
AcDbArc
 50
180.0000000000001
 51
270.0
  0
ARC
  5
63C
330
1F
100
AcDbEntity
  8
0
 62
     7
420
 16777215
370
     0
100
AcDbCircle
 10
583.245725408739
 20
155.4565945723515
 30
0.0
 40
3.0
100
AcDbArc
 50
270.0
 51
0.0
  0
ARC
  5
63F
330
1F
100
AcDbEntity
  8
0
 62
     7
420
 16777215
370
     0
100
AcDbCircle
 10
583.245725408739
 20
217.4565945723517
 30
0.0
 40
3.0
100
AcDbArc
 50
0.0000000000000254
 51
90.0
  0
LINE
  5
640
330
1F
100
AcDbEntity
  8
0
 62
     7
420
 16777215
370
     0
100
AcDbLine
 10
534.2457254087387
 20
220.4565945723517
 30
0.0
 11
583.245725408739
 21
220.4565945723516
 31
0.0
  0
LINE
  5
641
330
1F
100
AcDbEntity
  8
0
 62
     7
420
 16777215
370
     0
100
AcDbLine
 10
531.2457254087387
 20
217.4565945723517
 30
0.0
 11
531.2457254087387
 21
155.4565945723517
 31
0.0
  0
LINE
  5
642
330
1F
100
AcDbEntity
  8
0
 62
     7
420
 16777215
370
     0
100
AcDbLine
 10
534.2457254087387
 20
152.4565945723517
 30
0.0
 11
583.245725408739
 21
152.4565945723516
 31
0.0
  0
LINE
  5
643
330
1F
100
AcDbEntity
  8
0
 62
     7
420
 16777215
370
     0
100
AcDbLine
 10
586.2457254087387
 20
155.4565945723515
 30
0.0
 11
586.2457254087387
 21
217.4565945723517
 31
0.0
  0
LINE
  5
82B
330
1F
100
AcDbEntity
  8
0
 62
     7
420
 16777215
370
     0
100
AcDbLine
 10
534.2457254087387
 20
206.3565945723517
 30
0.0
 11
536.2457254087388
 21
206.3565945723517
 31
0.0
  0
LINE
  5
82D
330
1F
100
AcDbEntity
  8
0
 62
     7
420
 16777215
370
     0
100
AcDbLine
 10
536.2457254087388
 20
191.5565945723516
 30
0.0
 11
534.2457254087387
 21
191.5565945723516
 31
0.0
  0
LINE
  5
82F
330
1F
100
AcDbEntity
  8
0
 62
     7
420
 16777215
370
     0
100
AcDbLine
 10
534.2457254087387
 20
181.3565945723516
 30
0.0
 11
536.2457254087388
 21
181.3565945723516
 31
0.0
  0
LINE
  5
831
330
1F
100
AcDbEntity
  8
0
 62
     7
420
 16777215
370
     0
100
AcDbLine
 10
536.2457254087388
 20
166.5565945723515
 30
0.0
 11
534.2457254087387
 21
166.5565945723515
 31
0.0
  0
LINE
  5
833
330
1F
100
AcDbEntity
  8
0
 62
     7
420
 16777215
370
     0
100
AcDbLine
 10
581.2457254087387
 20
181.3565945723516
 30
0.0
 11
583.245725408739
 21
181.3565945723516
 31
0.0
  0
LINE
  5
835
330
1F
100
AcDbEntity
  8
0
 62
     7
420
 16777215
370
     0
100
AcDbLine
 10
583.245725408739
 20
166.5565945723515
 30
0.0
 11
581.2457254087387
 21
166.5565945723515
 31
0.0
  0
LINE
  5
83C
330
1F
100
AcDbEntity
  8
0
 62
     7
420
 16777215
370
     0
100
AcDbLine
 10
566.1457254087387
 20
157.4565945723515
 30
0.0
 11
551.3457254087389
 21
157.4565945723515
 31
0.0
  0
LINE
  5
83D
330
1F
100
AcDbEntity
  8
0
 62
     7
420
 16777215
370
     0
100
AcDbLine
 10
551.3457254087389
 20
155.4565945723515
 30
0.0
 11
566.1457254087387
 21
155.4565945723515
 31
0.0
  0
LINE
  5
83E
330
1F
100
AcDbEntity
  8
0
 62
     7
420
 16777215
370
     0
100
AcDbLine
 10
534.2457254087387
 20
181.3565945723516
 30
0.0
 11
534.2457254087387
 21
166.5565945723515
 31
0.0
  0
LINE
  5
83F
330
1F
100
AcDbEntity
  8
0
 62
     7
420
 16777215
370
     0
100
AcDbLine
 10
536.2457254087388
 20
166.5565945723515
 30
0.0
 11
536.2457254087388
 21
181.3565945723516
 31
0.0
  0
LINE
  5
840
330
1F
100
AcDbEntity
  8
0
 62
     7
420
 16777215
370
     0
100
AcDbLine
 10
581.2457254087387
 20
166.5565945723515
 30
0.0
 11
581.2457254087387
 21
181.3565945723516
 31
0.0
  0
LINE
  5
841
330
1F
100
AcDbEntity
  8
0
 62
     7
420
 16777215
370
     0
100
AcDbLine
 10
583.245725408739
 20
181.3565945723516
 30
0.0
 11
583.245725408739
 21
166.5565945723515
 31
0.0
  0
LINE
  5
842
330
1F
100
AcDbEntity
  8
0
 62
     7
420
 16777215
370
     0
100
AcDbLine
 10
581.2457254087387
 20
206.3565945723517
 30
0.0
 11
581.2457254087387
 21
191.5565945723516
 31
0.0
  0
LINE
  5
843
330
1F
100
AcDbEntity
  8
0
 62
     7
420
 16777215
370
     0
100
AcDbLine
 10
583.245725408739
 20
206.3565945723517
 30
0.0
 11
583.245725408739
 21
191.5565945723516
 31
0.0
  0
LINE
  5
844
330
1F
100
AcDbEntity
  8
0
 62
     7
420
 16777215
370
     0
100
AcDbLine
 10
534.2457254087387
 20
206.3565945723517
 30
0.0
 11
534.2457254087387
 21
191.5565945723516
 31
0.0
  0
LINE
  5
845
330
1F
100
AcDbEntity
  8
0
 62
     7
420
 16777215
370
     0
100
AcDbLine
 10
536.2457254087388
 20
206.3565945723517
 30
0.0
 11
536.2457254087388
 21
191.5565945723516
 31
0.0
  0
LINE
  5
846
330
1F
100
AcDbEntity
  8
0
 62
     7
420
 16777215
370
     0
100
AcDbLine
 10
551.3457254087389
 20
217.4565945723517
 30
0.0
 11
566.1457254087387
 21
217.4565945723517
 31
0.0
  0
LINE
  5
847
330
1F
100
AcDbEntity
  8
0
 62
     7
420
 16777215
370
     0
100
AcDbLine
 10
551.3457254087389
 20
215.4565945723517
 30
0.0
 11
566.1457254087387
 21
215.4565945723517
 31
0.0
  0
LINE
  5
849
330
1F
100
AcDbEntity
  8
0
 62
     7
420
 16777215
370
     0
100
AcDbLine
 10
573.2457254087387
 20
253.8352633871994
 30
0.0
 11
573.2457254087387
 21
245.8352633871994
 31
0.0
  0
LINE
  5
86C
330
1F
100
AcDbEntity
  8
0
 62
     7
420
 16777215
370
     0
100
AcDbLine
 10
609.0991700579357
 20
157.4565945723513
 30
0.0
 11
609.0991700579357
 21
155.4565945723514
 31
0.0
  0
LINE
  5
86D
330
1F
100
AcDbEntity
  8
0
 62
     7
420
 16777215
370
     0
100
AcDbLine
 10
623.8991700579356
 20
155.4565945723514
 30
0.0
 11
623.8991700579356
 21
157.4565945723513
 31
0.0
  0
LINE
  5
86E
330
1F
100
AcDbEntity
  8
0
 62
     7
420
 16777215
370
     0
100
AcDbLine
 10
609.0991700579357
 20
215.4565945723516
 30
0.0
 11
609.0991700579357
 21
217.4565945723516
 31
0.0
  0
LINE
  5
86F
330
1F
100
AcDbEntity
  8
0
 62
     7
420
 16777215
370
     0
100
AcDbLine
 10
623.8991700579356
 20
217.4565945723516
 30
0.0
 11
623.8991700579356
 21
215.4565945723516
 31
0.0
  0
LINE
  5
870
330
1F
100
AcDbEntity
  8
0
 62
     7
420
 16777215
370
     0
100
AcDbLine
 10
638.9991700579355
 20
206.3565945723516
 30
0.0
 11
640.9991700579357
 21
206.3565945723516
 31
0.0
  0
LINE
  5
871
330
1F
100
AcDbEntity
  8
0
 62
     7
420
 16777215
370
     0
100
AcDbLine
 10
640.9991700579357
 20
191.5565945723514
 30
0.0
 11
638.9991700579355
 21
191.5565945723514
 31
0.0
  0
LINE
  5
872
330
1F
100
AcDbEntity
  8
0
 62
     7
420
 16777215
370
     0
100
AcDbLine
 10
608.9991700579355
 20
207.9565945723515
 30
0.0
 11
623.9991700579357
 21
207.9565945723516
 31
0.0
  0
LINE
  5
873
330
1F
100
AcDbEntity
  8
0
 62
     7
420
 16777215
370
     0
100
AcDbLine
 10
623.9991700579357
 20
211.9565945723516
 30
0.0
 11
608.9991700579355
 21
211.9565945723516
 31
0.0
  0
LINE
  5
874
330
1F
100
AcDbEntity
  8
0
 62
     7
420
 16777215
370
     0
100
AcDbLine
 10
623.9991700579357
 20
211.9565945723516
 30
0.0
 11
631.4991700579355
 21
211.9565945723516
 31
0.0
  0
LINE
  5
875
330
1F
100
AcDbEntity
  8
0
 62
     7
420
 16777215
370
     0
100
AcDbLine
 10
631.4991700579355
 20
211.9565945723516
 30
0.0
 11
631.4991700579355
 21
207.9565945723516
 31
0.0
  0
LINE
  5
876
330
1F
100
AcDbEntity
  8
0
 62
     7
420
 16777215
370
     0
100
AcDbLine
 10
631.4991700579355
 20
207.9565945723516
 30
0.0
 11
623.9991700579357
 21
207.9565945723516
 31
0.0
  0
LINE
  5
877
330
1F
100
AcDbEntity
  8
0
 62
     7
420
 16777215
370
     0
100
AcDbLine
 10
608.9991700579355
 20
211.9565945723516
 30
0.0
 11
601.4991700579355
 21
211.9565945723516
 31
0.0
  0
LINE
  5
878
330
1F
100
AcDbEntity
  8
0
 62
     7
420
 16777215
370
     0
100
AcDbLine
 10
601.4991700579355
 20
211.9565945723516
 30
0.0
 11
601.4991700579355
 21
207.9565945723515
 31
0.0
  0
LINE
  5
879
330
1F
100
AcDbEntity
  8
0
 62
     7
420
 16777215
370
     0
100
AcDbLine
 10
601.4991700579355
 20
207.9565945723515
 30
0.0
 11
608.9991700579355
 21
207.9565945723515
 31
0.0
  0
ARC
  5
87A
330
1F
100
AcDbEntity
  8
0
 62
     7
420
 16777215
370
     0
100
AcDbCircle
 10
591.9991700579355
 20
217.4565945723516
 30
0.0
 40
3.0
100
AcDbArc
 50
90.0
 51
180.0
  0
ARC
  5
87B
330
1F
100
AcDbEntity
  8
0
 62
     7
420
 16777215
370
     0
100
AcDbCircle
 10
591.9991700579355
 20
155.4565945723515
 30
0.0
 40
3.0
100
AcDbArc
 50
180.0
 51
270.0
  0
ARC
  5
87C
330
1F
100
AcDbEntity
  8
0
 62
     7
420
 16777215
370
     0
100
AcDbCircle
 10
640.9991700579357
 20
155.4565945723514
 30
0.0
 40
3.0
100
AcDbArc
 50
270.0
 51
0.0
  0
ARC
  5
87D
330
1F
100
AcDbEntity
  8
0
 62
     7
420
 16777215
370
     0
100
AcDbCircle
 10
640.9991700579357
 20
217.4565945723516
 30
0.0
 40
3.0
100
AcDbArc
 50
0.0000000000000254
 51
90.0
  0
LINE
  5
87E
330
1F
100
AcDbEntity
  8
0
 62
     7
420
 16777215
370
     0
100
AcDbLine
 10
591.9991700579355
 20
220.4565945723516
 30
0.0
 11
640.9991700579357
 21
220.4565945723515
 31
0.0
  0
LINE
  5
87F
330
1F
100
AcDbEntity
  8
0
 62
     7
420
 16777215
370
     0
100
AcDbLine
 10
588.9991700579355
 20
217.4565945723516
 30
0.0
 11
588.9991700579355
 21
155.4565945723515
 31
0.0
  0
LINE
  5
880
330
1F
100
AcDbEntity
  8
0
 62
     7
420
 16777215
370
     0
100
AcDbLine
 10
591.9991700579355
 20
152.4565945723516
 30
0.0
 11
640.9991700579357
 21
152.4565945723514
 31
0.0
  0
LINE
  5
881
330
1F
100
AcDbEntity
  8
0
 62
     7
420
 16777215
370
     0
100
AcDbLine
 10
643.9991700579355
 20
155.4565945723514
 30
0.0
 11
643.9991700579355
 21
217.4565945723516
 31
0.0
  0
LINE
  5
882
330
1F
100
AcDbEntity
  8
0
 62
     7
420
 16777215
370
     0
100
AcDbLine
 10
591.9991700579355
 20
206.3565945723516
 30
0.0
 11
593.9991700579356
 21
206.3565945723516
 31
0.0
  0
LINE
  5
883
330
1F
100
AcDbEntity
  8
0
 62
     7
420
 16777215
370
     0
100
AcDbLine
 10
593.9991700579356
 20
191.5565945723514
 30
0.0
 11
591.9991700579355
 21
191.5565945723514
 31
0.0
  0
LINE
  5
884
330
1F
100
AcDbEntity
  8
0
 62
     7
420
 16777215
370
     0
100
AcDbLine
 10
591.9991700579355
 20
181.3565945723515
 30
0.0
 11
593.9991700579356
 21
181.3565945723515
 31
0.0
  0
LINE
  5
885
330
1F
100
AcDbEntity
  8
0
 62
     7
420
 16777215
370
     0
100
AcDbLine
 10
593.9991700579356
 20
166.5565945723513
 30
0.0
 11
591.9991700579355
 21
166.5565945723513
 31
0.0
  0
LINE
  5
886
330
1F
100
AcDbEntity
  8
0
 62
     7
420
 16777215
370
     0
100
AcDbLine
 10
638.9991700579355
 20
181.3565945723515
 30
0.0
 11
640.9991700579357
 21
181.3565945723515
 31
0.0
  0
LINE
  5
887
330
1F
100
AcDbEntity
  8
0
 62
     7
420
 16777215
370
     0
100
AcDbLine
 10
640.9991700579357
 20
166.5565945723513
 30
0.0
 11
638.9991700579355
 21
166.5565945723513
 31
0.0
  0
LINE
  5
888
330
1F
100
AcDbEntity
  8
0
 62
     7
420
 16777215
370
     0
100
AcDbLine
 10
623.8991700579356
 20
157.4565945723513
 30
0.0
 11
609.0991700579357
 21
157.4565945723513
 31
0.0
  0
LINE
  5
889
330
1F
100
AcDbEntity
  8
0
 62
     7
420
 16777215
370
     0
100
AcDbLine
 10
609.0991700579357
 20
155.4565945723514
 30
0.0
 11
623.8991700579356
 21
155.4565945723514
 31
0.0
  0
LINE
  5
88A
330
1F
100
AcDbEntity
  8
0
 62
     7
420
 16777215
370
     0
100
AcDbLine
 10
591.9991700579355
 20
181.3565945723515
 30
0.0
 11
591.9991700579355
 21
166.5565945723513
 31
0.0
  0
LINE
  5
88B
330
1F
100
AcDbEntity
  8
0
 62
     7
420
 16777215
370
     0
100
AcDbLine
 10
593.9991700579356
 20
166.5565945723513
 30
0.0
 11
593.9991700579356
 21
181.3565945723515
 31
0.0
  0
LINE
  5
88C
330
1F
100
AcDbEntity
  8
0
 62
     7
420
 16777215
370
     0
100
AcDbLine
 10
638.9991700579355
 20
166.5565945723513
 30
0.0
 11
638.9991700579355
 21
181.3565945723515
 31
0.0
  0
LINE
  5
88D
330
1F
100
AcDbEntity
  8
0
 62
     7
420
 16777215
370
     0
100
AcDbLine
 10
640.9991700579357
 20
181.3565945723515
 30
0.0
 11
640.9991700579357
 21
166.5565945723513
 31
0.0
  0
LINE
  5
88E
330
1F
100
AcDbEntity
  8
0
 62
     7
420
 16777215
370
     0
100
AcDbLine
 10
638.9991700579355
 20
206.3565945723516
 30
0.0
 11
638.9991700579355
 21
191.5565945723514
 31
0.0
  0
LINE
  5
88F
330
1F
100
AcDbEntity
  8
0
 62
     7
420
 16777215
370
     0
100
AcDbLine
 10
640.9991700579357
 20
206.3565945723516
 30
0.0
 11
640.9991700579357
 21
191.5565945723514
 31
0.0
  0
LINE
  5
890
330
1F
100
AcDbEntity
  8
0
 62
     7
420
 16777215
370
     0
100
AcDbLine
 10
591.9991700579355
 20
206.3565945723516
 30
0.0
 11
591.9991700579355
 21
191.5565945723514
 31
0.0
  0
LINE
  5
891
330
1F
100
AcDbEntity
  8
0
 62
     7
420
 16777215
370
     0
100
AcDbLine
 10
593.9991700579356
 20
206.3565945723516
 30
0.0
 11
593.9991700579356
 21
191.5565945723514
 31
0.0
  0
LINE
  5
892
330
1F
100
AcDbEntity
  8
0
 62
     7
420
 16777215
370
     0
100
AcDbLine
 10
609.0991700579357
 20
217.4565945723516
 30
0.0
 11
623.8991700579356
 21
217.4565945723516
 31
0.0
  0
LINE
  5
893
330
1F
100
AcDbEntity
  8
0
 62
     7
420
 16777215
370
     0
100
AcDbLine
 10
609.0991700579357
 20
215.4565945723516
 30
0.0
 11
623.8991700579356
 21
215.4565945723516
 31
0.0
  0
LINE
  5
894
330
1F
100
AcDbEntity
  8
0
 62
     7
420
 16777215
370
     0
100
AcDbLine
 10
539.2457254087385
 20
83.82425609554013
 30
0.0
 11
539.2457254087386
 21
93.82425609554013
 31
0.0
  0
LINE
  5
895
330
1F
100
AcDbEntity
  8
0
 62
     7
420
 16777215
370
     0
100
AcDbLine
 10
597.2457254087387
 20
128.2361425668266
 30
0.0
 11
597.2457254087387
 21
118.2361425668268
 31
0.0
  0
LINE
  5
896
330
1F
100
AcDbEntity
  8
0
 62
     7
420
 16777215
370
     0
100
AcDbLine
 10
539.2457254087386
 20
128.2361425668266
 30
0.0
 11
539.2457254087386
 21
118.2361425668268
 31
0.0
  0
LINE
  5
897
330
1F
100
AcDbEntity
  8
0
 62
     7
420
 16777215
370
     0
100
AcDbLine
 10
592.2457254087387
 20
92.07425609553956
 30
0.0
 11
592.2457254087387
 21
97.07425609553958
 31
0.0
  0
LINE
  5
898
330
1F
100
AcDbEntity
  8
0
 62
     7
420
 16777215
370
     0
100
AcDbLine
 10
592.2457254087387
 20
97.07425609553958
 30
0.0
 11
597.2457254087387
 21
97.07425609553958
 31
0.0
  0
LINE
  5
899
330
1F
100
AcDbEntity
  8
0
 62
     7
420
 16777215
370
     0
100
AcDbLine
 10
597.2457254087387
 20
97.07425609553958
 30
0.0
 11
597.2457254087387
 21
93.82425609553946
 31
0.0
  0
LINE
  5
89A
330
1F
100
AcDbEntity
  8
0
 62
     7
420
 16777215
370
     0
100
AcDbLine
 10
592.2457254087387
 20
92.07425609553956
 30
0.0
 11
592.2457254087386
 21
87.07425609553956
 31
0.0
  0
LINE
  5
89B
330
1F
100
AcDbEntity
  8
0
 62
     7
420
 16777215
370
     0
100
AcDbLine
 10
592.2457254087386
 20
87.07425609553956
 30
0.0
 11
597.2457254087386
 21
87.07425609553956
 31
0.0
  0
LINE
  5
89C
330
1F
100
AcDbEntity
  8
0
 62
     7
420
 16777215
370
     0
100
AcDbLine
 10
597.2457254087385
 20
83.82425609553957
 30
0.0
 11
597.2457254087386
 21
87.07425609553956
 31
0.0
  0
LINE
  5
89D
330
1F
100
AcDbEntity
  8
0
 62
     7
420
 16777215
370
     0
100
AcDbLine
 10
569.2457254087388
 20
99.57425609554015
 30
0.0
 11
569.2457254087387
 21
95.57425609554014
 31
0.0
  0
LINE
  5
89F
330
1F
100
AcDbEntity
  8
0
 62
     7
420
 16777215
370
     0
100
AcDbLine
 10
585.2457254087388
 20
95.57425609553968
 30
0.0
 11
585.2457254087388
 21
99.57425609553968
 31
0.0
  0
LINE
  5
8A0
330
1F
100
AcDbEntity
  8
0
 62
     7
420
 16777215
370
     0
100
AcDbLine
 10
597.2457254087385
 20
83.82425609553957
 30
0.0
 11
599.2457254087384
 21
83.82425609553957
 31
0.0
  0
LINE
  5
8A1
330
1F
100
AcDbEntity
  8
0
 62
     7
420
 16777215
370
     0
100
AcDbLine
 10
599.2457254087384
 20
83.82425609553957
 30
0.0
 11
599.2457254087387
 21
93.82425609553946
 31
0.0
  0
LINE
  5
8A2
330
1F
100
AcDbEntity
  8
0
 62
     7
420
 16777215
370
     0
100
AcDbLine
 10
599.2457254087387
 20
93.82425609553946
 30
0.0
 11
597.2457254087387
 21
93.82425609553946
 31
0.0
  0
LINE
  5
8A3
330
1F
100
AcDbEntity
  8
0
 62
     7
420
 16777215
370
     0
100
AcDbLine
 10
597.2457254087387
 20
128.2361425668266
 30
0.0
 11
599.2457254087387
 21
128.2361425668266
 31
0.0
  0
LINE
  5
8A4
330
1F
100
AcDbEntity
  8
0
 62
     7
420
 16777215
370
     0
100
AcDbLine
 10
599.2457254087387
 20
128.2361425668266
 30
0.0
 11
599.2457254087387
 21
118.2361425668268
 31
0.0
  0
LINE
  5
8A5
330
1F
100
AcDbEntity
  8
0
 62
     7
420
 16777215
370
     0
100
AcDbLine
 10
599.2457254087387
 20
118.2361425668268
 30
0.0
 11
597.2457254087387
 21
118.2361425668268
 31
0.0
  0
LINE
  5
8A6
330
1F
100
AcDbEntity
  8
0
 62
     7
420
 16777215
370
     0
100
AcDbLine
 10
539.2457254087385
 20
83.82425609554013
 30
0.0
 11
537.2457254087385
 21
83.82425609554037
 31
0.0
  0
LINE
  5
8A7
330
1F
100
AcDbEntity
  8
0
 62
     7
420
 16777215
370
     0
100
AcDbLine
 10
537.2457254087385
 20
83.82425609554037
 30
0.0
 11
537.2457254087386
 21
93.82425609554037
 31
0.0
  0
LINE
  5
8A8
330
1F
100
AcDbEntity
  8
0
 62
     7
420
 16777215
370
     0
100
AcDbLine
 10
537.2457254087386
 20
93.82425609554037
 30
0.0
 11
539.2457254087386
 21
93.82425609554013
 31
0.0
  0
LINE
  5
8A9
330
1F
100
AcDbEntity
  8
0
 62
     7
420
 16777215
370
     0
100
AcDbLine
 10
539.2457254087386
 20
128.2361425668266
 30
0.0
 11
537.2457254087386
 21
128.2361425668266
 31
0.0
  0
LINE
  5
8AA
330
1F
100
AcDbEntity
  8
0
 62
     7
420
 16777215
370
     0
100
AcDbLine
 10
537.2457254087386
 20
128.2361425668266
 30
0.0
 11
537.2457254087386
 21
118.2361425668268
 31
0.0
  0
LINE
  5
8AB
330
1F
100
AcDbEntity
  8
0
 62
     7
420
 16777215
370
     0
100
AcDbLine
 10
537.2457254087386
 20
118.2361425668268
 30
0.0
 11
539.2457254087386
 21
118.2361425668268
 31
0.0
  0
LINE
  5
8AC
330
1F
100
AcDbEntity
  8
0
 62
     7
420
 16777215
370
     0
100
AcDbLine
 10
602.2457254087385
 20
83.82425609553957
 30
0.0
 11
602.2457254087385
 21
78.07425609553956
 31
0.0
  0
LINE
  5
8AD
330
1F
100
AcDbEntity
  8
0
 62
     7
420
 16777215
370
     0
100
AcDbLine
 10
602.2457254087385
 20
83.82425609553957
 30
0.0
 11
602.2457254087387
 21
99.57425609553958
 31
0.0
  0
LINE
  5
8AE
330
1F
100
AcDbEntity
  8
0
 62
     7
420
 16777215
370
     0
100
AcDbLine
 10
602.2457254087387
 20
128.2361425668266
 30
0.0
 11
602.2457254087387
 21
133.9861425668266
 31
0.0
  0
LINE
  5
8AF
330
1F
100
AcDbEntity
  8
0
 62
     7
420
 16777215
370
     0
100
AcDbLine
 10
602.2457254087387
 20
128.2361425668266
 30
0.0
 11
602.2457254087387
 21
112.4861425668268
 31
0.0
  0
LINE
  5
8B0
330
1F
100
AcDbEntity
  8
0
 62
     7
420
 16777215
370
     0
100
AcDbLine
 10
534.2457254087385
 20
78.07425609554036
 30
0.0
 11
534.2457254087385
 21
83.82425609554037
 31
0.0
  0
LINE
  5
8B1
330
1F
100
AcDbEntity
  8
0
 62
     7
420
 16777215
370
     0
100
AcDbLine
 10
534.2457254087385
 20
83.82425609554037
 30
0.0
 11
534.2457254087387
 21
99.57425609554036
 31
0.0
  0
LINE
  5
8B2
330
1F
100
AcDbEntity
  8
0
 62
     7
420
 16777215
370
     0
100
AcDbLine
 10
534.2457254087387
 20
133.9861425668266
 30
0.0
 11
534.2457254087387
 21
112.4861425668268
 31
0.0
  0
LINE
  5
8B8
330
1F
100
AcDbEntity
  8
0
 62
     7
420
 16777215
370
     0
100
AcDbLine
 10
573.2457254087384
 20
76.07425609553968
 30
0.0
 11
573.2457254087384
 21
78.07425609553968
 31
0.0
  0
LINE
  5
8B9
330
1F
100
AcDbEntity
  8
0
 62
     7
420
 16777215
370
     0
100
AcDbLine
 10
573.2457254087384
 20
78.07425609553968
 30
0.0
 11
563.2457254087383
 21
78.07425609553991
 31
0.0
  0
LINE
  5
8BA
330
1F
100
AcDbEntity
  8
0
 62
     7
420
 16777215
370
     0
100
AcDbLine
 10
563.2457254087383
 20
78.07425609553991
 30
0.0
 11
563.2457254087383
 21
76.07425609554002
 31
0.0
  0
LINE
  5
8BC
330
1F
100
AcDbEntity
  8
0
 62
     7
420
 16777215
370
     0
100
AcDbLine
 10
548.2457254087385
 20
78.07425609554013
 30
0.0
 11
534.2457254087385
 21
78.07425609554036
 31
0.0
  0
LINE
  5
8BD
330
1F
100
AcDbEntity
  8
0
 62
     7
420
 16777215
370
     0
100
AcDbLine
 10
534.2457254087387
 20
99.57425609554036
 30
0.0
 11
548.2457254087388
 21
99.57425609554015
 31
0.0
  0
LINE
  5
8BF
330
1F
100
AcDbEntity
  8
0
 62
     7
420
 16777215
370
     0
100
AcDbLine
 10
573.2457254087387
 20
101.5742560955399
 30
0.0
 11
573.2457254087387
 21
99.57425609553991
 31
0.0
  0
LINE
  5
8C0
330
1F
100
AcDbEntity
  8
0
 62
     7
420
 16777215
370
     0
100
AcDbLine
 10
573.2457254087387
 20
99.57425609553991
 30
0.0
 11
585.2457254087388
 21
99.57425609553968
 31
0.0
  0
LINE
  5
8C1
330
1F
100
AcDbEntity
  8
0
 62
     7
420
 16777215
370
     0
100
AcDbLine
 10
563.2457254087387
 20
99.57425609554015
 30
0.0
 11
569.2457254087388
 21
99.57425609554015
 31
0.0
  0
LINE
  5
8C5
330
1F
100
AcDbEntity
  8
0
 62
     7
420
 16777215
370
     0
100
AcDbLine
 10
573.2457254087387
 20
133.9861425668266
 30
0.0
 11
563.2457254087387
 21
133.9861425668266
 31
0.0
  0
LINE
  5
8C6
330
1F
100
AcDbEntity
  8
0
 62
     7
420
 16777215
370
     0
100
AcDbLine
 10
573.2457254087387
 20
112.4861425668268
 30
0.0
 11
563.2457254087387
 21
112.4861425668268
 31
0.0
  0
LINE
  5
8CB
330
1F
100
AcDbEntity
  8
0
 62
     7
420
 16777215
370
     0
100
AcDbLine
 10
585.2457254087384
 20
76.07425609553968
 30
0.0
 11
576.2457254087384
 21
76.07425609553968
 31
0.0
  0
LINE
  5
8CC
330
1F
100
AcDbEntity
  8
0
 62
     7
420
 16777215
370
     0
100
AcDbLine
 10
585.745725408738
 20
76.07425609553968
 30
0.0
 11
585.2457254087384
 21
76.07425609553968
 31
0.0
  0
LINE
  5
8CE
330
1F
100
AcDbEntity
  8
0
 62
     7
420
 16777215
370
     0
100
AcDbLine
 10
560.2457254087384
 20
76.07425609554002
 30
0.0
 11
551.2457254087384
 21
76.07425609554013
 31
0.0
  0
LINE
  5
8CF
330
1F
100
AcDbEntity
  8
0
 62
     7
420
 16777215
370
     0
100
AcDbLine
 10
550.7457254087389
 20
76.07425609554036
 30
0.0
 11
551.2457254087384
 21
76.07425609554013
 31
0.0
  0
LINE
  5
8D1
330
1F
100
AcDbEntity
  8
0
 62
     7
420
 16777215
370
     0
100
AcDbLine
 10
585.2457254087387
 20
135.9861425668267
 30
0.0
 11
576.2457254087387
 21
135.9861425668267
 31
0.0
  0
LINE
  5
8D2
330
1F
100
AcDbEntity
  8
0
 62
     7
420
 16777215
370
     0
100
AcDbLine
 10
585.7457254087383
 20
135.9861425668267
 30
0.0
 11
585.2457254087387
 21
135.9861425668267
 31
0.0
  0
LINE
  5
8D4
330
1F
100
AcDbEntity
  8
0
 62
     7
420
 16777215
370
     0
100
AcDbLine
 10
560.2457254087387
 20
135.9861425668267
 30
0.0
 11
551.2457254087387
 21
135.9861425668267
 31
0.0
  0
LINE
  5
8D7
330
1F
100
AcDbEntity
  8
0
 62
     7
420
 16777215
370
     0
100
AcDbLine
 10
576.2457254087387
 20
110.4861425668266
 30
0.0
 11
585.2457254087388
 21
110.4861425668266
 31
0.0
  0
LINE
  5
8D8
330
1F
100
AcDbEntity
  8
0
 62
     7
420
 16777215
370
     0
100
AcDbLine
 10
585.7457254087383
 20
110.4861425668268
 30
0.0
 11
585.2457254087388
 21
110.4861425668266
 31
0.0
  0
LINE
  5
8DA
330
1F
100
AcDbEntity
  8
0
 62
     7
420
 16777215
370
     0
100
AcDbLine
 10
551.2457254087387
 20
110.4861425668266
 30
0.0
 11
560.2457254087387
 21
110.4861425668266
 31
0.0
  0
LINE
  5
8DD
330
1F
100
AcDbEntity
  8
0
 62
     7
420
 16777215
370
     0
100
AcDbLine
 10
576.2457254087388
 20
101.5742560955399
 30
0.0
 11
585.2457254087388
 21
101.5742560955396
 31
0.0
  0
LINE
  5
8DE
330
1F
100
AcDbEntity
  8
0
 62
     7
420
 16777215
370
     0
100
AcDbLine
 10
585.7457254087384
 20
101.5742560955395
 30
0.0
 11
585.2457254087388
 21
101.5742560955396
 31
0.0
  0
LINE
  5
8E0
330
1F
100
AcDbEntity
  8
0
 62
     7
420
 16777215
370
     0
100
AcDbLine
 10
551.2457254087388
 20
101.5742560955401
 30
0.0
 11
560.2457254087388
 21
101.5742560955401
 31
0.0
  0
LINE
  5
8E1
330
1F
100
AcDbEntity
  8
0
 62
     7
420
 16777215
370
     0
100
AcDbLine
 10
550.7457254087391
 20
101.5742560955401
 30
0.0
 11
551.2457254087388
 21
101.5742560955401
 31
0.0
  0
LINE
  5
8E3
330
1F
100
AcDbEntity
  8
0
 62
     7
420
 16777215
370
     0
100
AcDbLine
 10
576.2457254087388
 20
101.5742560955399
 30
0.0
 11
573.2457254087387
 21
101.5742560955399
 31
0.0
  0
LINE
  5
8E4
330
1F
100
AcDbEntity
  8
0
 62
     7
420
 16777215
370
     0
100
AcDbLine
 10
563.2457254087388
 20
101.57425609554
 30
0.0
 11
563.2457254087387
 21
99.57425609554015
 31
0.0
  0
LINE
  5
8E5
330
1F
100
AcDbEntity
  8
0
 62
     7
420
 16777215
370
     0
100
AcDbLine
 10
563.2457254087383
 20
76.07425609554002
 30
0.0
 11
560.2457254087384
 21
76.07425609554002
 31
0.0
  0
LINE
  5
8E6
330
1F
100
AcDbEntity
  8
0
 62
     7
420
 16777215
370
     0
100
AcDbLine
 10
576.2457254087384
 20
76.07425609553968
 30
0.0
 11
573.2457254087384
 21
76.07425609553968
 31
0.0
  0
LINE
  5
8E7
330
1F
100
AcDbEntity
  8
0
 62
     7
420
 16777215
370
     0
100
AcDbLine
 10
573.2457254087387
 20
133.9861425668266
 30
0.0
 11
573.2457254087387
 21
135.9861425668267
 31
0.0
  0
LINE
  5
8E8
330
1F
100
AcDbEntity
  8
0
 62
     7
420
 16777215
370
     0
100
AcDbLine
 10
573.2457254087387
 20
135.9861425668267
 30
0.0
 11
576.2457254087387
 21
135.9861425668267
 31
0.0
  0
LINE
  5
8E9
330
1F
100
AcDbEntity
  8
0
 62
     7
420
 16777215
370
     0
100
AcDbLine
 10
563.2457254087387
 20
133.9861425668266
 30
0.0
 11
563.2457254087387
 21
135.9861425668267
 31
0.0
  0
LINE
  5
8EA
330
1F
100
AcDbEntity
  8
0
 62
     7
420
 16777215
370
     0
100
AcDbLine
 10
563.2457254087387
 20
135.9861425668267
 30
0.0
 11
560.2457254087387
 21
135.9861425668267
 31
0.0
  0
LINE
  5
8EB
330
1F
100
AcDbEntity
  8
0
 62
     7
420
 16777215
370
     0
100
AcDbLine
 10
573.2457254087387
 20
112.4861425668268
 30
0.0
 11
573.2457254087387
 21
110.4861425668268
 31
0.0
  0
LINE
  5
8EC
330
1F
100
AcDbEntity
  8
0
 62
     7
420
 16777215
370
     0
100
AcDbLine
 10
573.2457254087387
 20
110.4861425668268
 30
0.0
 11
576.2457254087387
 21
110.4861425668266
 31
0.0
  0
LINE
  5
8ED
330
1F
100
AcDbEntity
  8
0
 62
     7
420
 16777215
370
     0
100
AcDbLine
 10
560.2457254087387
 20
110.4861425668266
 30
0.0
 11
563.2457254087387
 21
110.4861425668266
 31
0.0
  0
LINE
  5
8EE
330
1F
100
AcDbEntity
  8
0
 62
     7
420
 16777215
370
     0
100
AcDbLine
 10
563.2457254087387
 20
110.4861425668266
 30
0.0
 11
563.2457254087387
 21
112.4861425668268
 31
0.0
  0
LINE
  5
8F0
330
1F
100
AcDbEntity
  8
0
 62
     7
420
 16777215
370
     0
100
AcDbLine
 10
563.2457254087388
 20
101.57425609554
 30
0.0
 11
560.2457254087388
 21
101.5742560955401
 31
0.0
  0
LINE
  5
8F1
330
1F
100
AcDbEntity
  8
0
 62
     7
420
 16777215
370
     0
100
AcDbLine
 10
553.7457254087386
 20
86.82425609554014
 30
0.0
 11
562.7769213428328
 21
86.82425609554014
 31
0.0
  0
LINE
  5
8F2
330
1F
100
AcDbEntity
  8
0
 62
     7
420
 16777215
370
     0
100
AcDbLine
 10
553.7457254087386
 20
90.82425609554013
 30
0.0
 11
544.7145294746444
 21
90.82425609554013
 31
0.0
  0
LINE
  5
8F3
330
1F
100
AcDbEntity
  8
0
 62
     7
420
 16777215
370
     0
100
AcDbLine
 10
553.7457254087386
 20
86.82425609554014
 30
0.0
 11
544.7145294746444
 21
86.82425609554014
 31
0.0
  0
LINE
  5
8F4
330
1F
100
AcDbEntity
  8
0
 62
     7
420
 16777215
370
     0
100
AcDbLine
 10
553.7457254087386
 20
90.82425609554013
 30
0.0
 11
562.7769213428328
 21
90.82425609554013
 31
0.0
  0
ARC
  5
8F5
330
1F
100
AcDbEntity
  8
0
 62
     7
420
 16777215
370
     0
100
AcDbCircle
 10
553.7457254087386
 20
88.82425609554013
 30
0.0
 40
9.250000000000003
100
AcDbArc
 50
12.48688981415519
 51
167.5131101858384
  0
ARC
  5
8F6
330
1F
100
AcDbEntity
  8
0
 62
     7
420
 16777215
370
     0
100
AcDbCircle
 10
553.7457254087386
 20
88.82425609554013
 30
0.0
 40
9.250000000000003
100
AcDbArc
 50
192.4868898141615
 51
347.5131101858385
  0
LINE
  5
8F7
330
1F
100
AcDbEntity
  8
0
 62
     7
420
 16777215
370
     0
100
AcDbLine
 10
550.2457254087388
 20
101.5742560955401
 30
0.0
 11
550.2457254087388
 21
97.38652799031207
 31
0.0
  0
LINE
  5
8F8
330
1F
100
AcDbEntity
  8
0
 62
     7
420
 16777215
370
     0
100
AcDbLine
 10
550.7457254087391
 20
101.5742560955401
 30
0.0
 11
550.7457254087391
 21
97.57425609554037
 31
0.0
  0
LINE
  5
8F9
330
1F
100
AcDbEntity
  8
0
 62
     7
420
 16777215
370
     0
100
AcDbLine
 10
550.2457254087383
 20
76.07425609554013
 30
0.0
 11
550.2457254087383
 21
80.26198420076832
 31
0.0
  0
LINE
  5
8FA
330
1F
100
AcDbEntity
  8
0
 62
     7
420
 16777215
370
     0
100
AcDbLine
 10
550.7457254087389
 20
76.07425609554036
 30
0.0
 11
550.7457254087389
 21
80.07425609554013
 31
0.0
  0
LINE
  5
8FB
330
1F
100
AcDbEntity
  8
0
 62
     7
420
 16777215
370
     0
100
AcDbLine
 10
586.2457254087384
 20
76.07425609553956
 30
0.0
 11
586.2457254087384
 21
86.07425609553956
 31
0.0
  0
LINE
  5
8FC
330
1F
100
AcDbEntity
  8
0
 62
     7
420
 16777215
370
     0
100
AcDbLine
 10
586.2457254087384
 20
86.07425609553956
 30
0.0
 11
585.745725408738
 21
86.07425609553956
 31
0.0
  0
LINE
  5
8FD
330
1F
100
AcDbEntity
  8
0
 62
     7
420
 16777215
370
     0
100
AcDbLine
 10
585.745725408738
 20
86.07425609553956
 30
0.0
 11
585.745725408738
 21
76.07425609553968
 31
0.0
  0
LINE
  5
902
330
1F
100
AcDbEntity
  8
0
 62
     7
420
 16777215
370
     0
100
AcDbLine
 10
586.2457254087388
 20
120.4861425668268
 30
0.0
 11
585.7457254087383
 21
120.4861425668268
 31
0.0
  0
LINE
  5
903
330
1F
100
AcDbEntity
  8
0
 62
     7
420
 16777215
370
     0
100
AcDbLine
 10
585.7457254087383
 20
120.4861425668268
 30
0.0
 11
585.7457254087383
 21
110.4861425668268
 31
0.0
  0
LINE
  5
928
330
1F
100
AcDbEntity
  8
0
 62
     7
420
 16777215
370
     0
100
AcDbLine
 10
588.2457254087388
 20
110.6861425668269
 30
0.0
 11
588.7457254087388
 21
110.6861425668269
 31
0.0
  0
LINE
  5
988
330
1F
100
AcDbEntity
  8
0
 62
     7
420
 16777215
370
     0
100
AcDbLine
 10
588.2457254087388
 20
112.4861425668268
 30
0.0
 11
588.2457254087388
 21
110.6861425668269
 31
0.0
  0
LINE
  5
98C
330
1F
100
AcDbEntity
  8
0
 62
     7
420
 16777215
370
     0
100
AcDbLine
 10
583.745725408739
 20
110.1861425668264
 30
0.0
 11
586.2457254087389
 21
110.1861425668264
 31
0.0
  0
ARC
  5
98D
330
1F
100
AcDbEntity
  8
0
 62
     7
420
 16777215
370
     0
100
AcDbCircle
 10
586.1813664343799
 20
111.0797323104161
 30
0.0
 40
2.594388142825493
100
AcDbArc
 50
200.147113785368
 51
351.2740724896392
  0
LINE
  5
98E
330
1F
100
AcDbEntity
  8
0
 62
     7
420
 16777215
370
     0
100
AcDbLine
 10
586.2457254087388
 20
120.4861425668268
 30
0.0
 11
586.2457254087389
 21
110.1861425668264
 31
0.0
  0
LINE
  5
995
330
1F
100
AcDbEntity
  8
0
 62
     7
420
 16777215
370
     0
100
AcDbLine
 10
586.2457254087388
 20
125.9861425668266
 30
0.0
 11
585.7457254087383
 21
125.9861425668266
 31
0.0
  0
LINE
  5
996
330
1F
100
AcDbEntity
  8
0
 62
     7
420
 16777215
370
     0
100
AcDbLine
 10
585.7457254087383
 20
125.9861425668266
 30
0.0
 11
585.7457254087383
 21
135.9861425668266
 31
0.0
  0
LINE
  5
997
330
1F
100
AcDbEntity
  8
0
 62
     7
420
 16777215
370
     0
100
AcDbLine
 10
588.2457254087388
 20
135.7861425668266
 30
0.0
 11
588.7457254087388
 21
135.7861425668266
 31
0.0
  0
LINE
  5
998
330
1F
100
AcDbEntity
  8
0
 62
     7
420
 16777215
370
     0
100
AcDbLine
 10
588.2457254087388
 20
133.9861425668266
 30
0.0
 11
588.2457254087388
 21
135.7861425668266
 31
0.0
  0
LINE
  5
999
330
1F
100
AcDbEntity
  8
0
 62
     7
420
 16777215
370
     0
100
AcDbLine
 10
583.745725408739
 20
136.286142566827
 30
0.0
 11
586.2457254087389
 21
136.286142566827
 31
0.0
  0
ARC
  5
99A
330
1F
100
AcDbEntity
  8
0
 62
     7
420
 16777215
370
     0
100
AcDbCircle
 10
586.1813664343799
 20
135.3925528232373
 30
0.0
 40
2.594388142825493
100
AcDbArc
 50
8.725927510360849
 51
159.852886214632
  0
LINE
  5
99B
330
1F
100
AcDbEntity
  8
0
 62
     7
420
 16777215
370
     0
100
AcDbLine
 10
586.2457254087388
 20
125.9861425668266
 30
0.0
 11
586.2457254087389
 21
136.286142566827
 31
0.0
  0
LINE
  5
99E
330
1F
100
AcDbEntity
  8
0
 62
     7
420
 16777215
370
     0
100
AcDbLine
 10
550.2457254087387
 20
120.4861425668268
 30
0.0
 11
550.7457254087391
 21
120.4861425668268
 31
0.0
  0
LINE
  5
99F
330
1F
100
AcDbEntity
  8
0
 62
     7
420
 16777215
370
     0
100
AcDbLine
 10
550.7457254087391
 20
120.4861425668268
 30
0.0
 11
550.7457254087391
 21
110.4861425668268
 31
0.0
  0
LINE
  5
9A0
330
1F
100
AcDbEntity
  8
0
 62
     7
420
 16777215
370
     0
100
AcDbLine
 10
548.2457254087387
 20
110.6861425668269
 30
0.0
 11
547.7457254087387
 21
110.6861425668269
 31
0.0
  0
LINE
  5
9A1
330
1F
100
AcDbEntity
  8
0
 62
     7
420
 16777215
370
     0
100
AcDbLine
 10
548.2457254087387
 20
112.4861425668268
 30
0.0
 11
548.2457254087387
 21
110.6861425668269
 31
0.0
  0
LINE
  5
9A2
330
1F
100
AcDbEntity
  8
0
 62
     7
420
 16777215
370
     0
100
AcDbLine
 10
552.7457254087384
 20
110.1861425668264
 30
0.0
 11
550.2457254087386
 21
110.1861425668264
 31
0.0
  0
ARC
  5
9A3
330
1F
100
AcDbEntity
  8
0
 62
     7
420
 16777215
370
     0
100
AcDbCircle
 10
550.3100843830975
 20
111.0797323104161
 30
0.0
 40
2.594388142825493
100
AcDbArc
 50
188.7259275103608
 51
339.852886214632
  0
LINE
  5
9A4
330
1F
100
AcDbEntity
  8
0
 62
     7
420
 16777215
370
     0
100
AcDbLine
 10
550.2457254087387
 20
120.4861425668268
 30
0.0
 11
550.2457254087386
 21
110.1861425668264
 31
0.0
  0
LINE
  5
9A5
330
1F
100
AcDbEntity
  8
0
 62
     7
420
 16777215
370
     0
100
AcDbLine
 10
550.2457254087387
 20
125.9861425668266
 30
0.0
 11
550.7457254087391
 21
125.9861425668266
 31
0.0
  0
LINE
  5
9A6
330
1F
100
AcDbEntity
  8
0
 62
     7
420
 16777215
370
     0
100
AcDbLine
 10
550.7457254087391
 20
125.9861425668266
 30
0.0
 11
550.7457254087391
 21
135.9861425668266
 31
0.0
  0
LINE
  5
9A7
330
1F
100
AcDbEntity
  8
0
 62
     7
420
 16777215
370
     0
100
AcDbLine
 10
548.2457254087387
 20
135.7861425668266
 30
0.0
 11
547.7457254087387
 21
135.7861425668266
 31
0.0
  0
LINE
  5
9A8
330
1F
100
AcDbEntity
  8
0
 62
     7
420
 16777215
370
     0
100
AcDbLine
 10
548.2457254087387
 20
133.9861425668266
 30
0.0
 11
548.2457254087387
 21
135.7861425668266
 31
0.0
  0
LINE
  5
9A9
330
1F
100
AcDbEntity
  8
0
 62
     7
420
 16777215
370
     0
100
AcDbLine
 10
552.7457254087384
 20
136.286142566827
 30
0.0
 11
550.2457254087386
 21
136.286142566827
 31
0.0
  0
ARC
  5
9AA
330
1F
100
AcDbEntity
  8
0
 62
     7
420
 16777215
370
     0
100
AcDbCircle
 10
550.3100843830975
 20
135.3925528232373
 30
0.0
 40
2.594388142825493
100
AcDbArc
 50
20.14711378536797
 51
171.2740724896391
  0
LINE
  5
9AB
330
1F
100
AcDbEntity
  8
0
 62
     7
420
 16777215
370
     0
100
AcDbLine
 10
550.2457254087387
 20
125.9861425668266
 30
0.0
 11
550.2457254087386
 21
136.286142566827
 31
0.0
  0
LINE
  5
9AC
330
1F
100
AcDbEntity
  8
0
 62
     7
420
 16777215
370
     0
100
AcDbLine
 10
551.2457254087387
 20
110.4861425668266
 30
0.0
 11
550.7457254087391
 21
110.4861425668266
 31
0.0
  0
LINE
  5
9AD
330
1F
100
AcDbEntity
  8
0
 62
     7
420
 16777215
370
     0
100
AcDbLine
 10
551.2457254087387
 20
135.9861425668267
 30
0.0
 11
550.7457254087391
 21
135.9861425668266
 31
0.0
  0
LINE
  5
9AE
330
1F
100
AcDbEntity
  8
0
 62
     7
420
 16777215
370
     0
100
AcDbLine
 10
588.2457254087388
 20
76.27425609553984
 30
0.0
 11
588.7457254087388
 21
76.27425609553984
 31
0.0
  0
LINE
  5
9AF
330
1F
100
AcDbEntity
  8
0
 62
     7
420
 16777215
370
     0
100
AcDbLine
 10
588.2457254087388
 20
78.0742560955398
 30
0.0
 11
588.2457254087388
 21
76.27425609553984
 31
0.0
  0
LINE
  5
9B0
330
1F
100
AcDbEntity
  8
0
 62
     7
420
 16777215
370
     0
100
AcDbLine
 10
583.745725408739
 20
75.77425609553938
 30
0.0
 11
586.2457254087389
 21
75.77425609553938
 31
0.0
  0
ARC
  5
9B1
330
1F
100
AcDbEntity
  8
0
 62
     7
420
 16777215
370
     0
100
AcDbCircle
 10
586.1813664343799
 20
76.66784583912908
 30
0.0
 40
2.594388142825493
100
AcDbArc
 50
200.147113785368
 51
351.2740724896392
  0
LINE
  5
9B3
330
1F
100
AcDbEntity
  8
0
 62
     7
420
 16777215
370
     0
100
AcDbLine
 10
588.2457254087388
 20
101.3742560955395
 30
0.0
 11
588.7457254087388
 21
101.3742560955395
 31
0.0
  0
LINE
  5
9B4
330
1F
100
AcDbEntity
  8
0
 62
     7
420
 16777215
370
     0
100
AcDbLine
 10
588.2457254087388
 20
99.57425609553958
 30
0.0
 11
588.2457254087388
 21
101.3742560955395
 31
0.0
  0
LINE
  5
9B5
330
1F
100
AcDbEntity
  8
0
 62
     7
420
 16777215
370
     0
100
AcDbLine
 10
583.745725408739
 20
101.8742560955399
 30
0.0
 11
586.2457254087389
 21
101.8742560955399
 31
0.0
  0
ARC
  5
9B6
330
1F
100
AcDbEntity
  8
0
 62
     7
420
 16777215
370
     0
100
AcDbCircle
 10
586.1813664343799
 20
100.9806663519503
 30
0.0
 40
2.594388142825493
100
AcDbArc
 50
8.725927510360849
 51
159.852886214632
  0
LINE
  5
9B7
330
1F
100
AcDbEntity
  8
0
 62
     7
420
 16777215
370
     0
100
AcDbLine
 10
586.2457254087384
 20
76.07425609553956
 30
0.0
 11
586.2457254087389
 21
75.77425609553938
 31
0.0
  0
LINE
  5
9B8
330
1F
100
AcDbEntity
  8
0
 62
     7
420
 16777215
370
     0
100
AcDbLine
 10
586.2457254087389
 20
101.8742560955399
 30
0.0
 11
586.2457254087389
 21
101.5742560955395
 31
0.0
  0
LINE
  5
9B9
330
1F
100
AcDbEntity
  8
0
 62
     7
420
 16777215
370
     0
100
AcDbLine
 10
548.2457254087387
 20
76.27425609554041
 30
0.0
 11
547.7457254087387
 21
76.27425609554041
 31
0.0
  0
LINE
  5
9BA
330
1F
100
AcDbEntity
  8
0
 62
     7
420
 16777215
370
     0
100
AcDbLine
 10
548.2457254087387
 20
78.07425609554036
 30
0.0
 11
548.2457254087387
 21
76.27425609554041
 31
0.0
  0
LINE
  5
9BB
330
1F
100
AcDbEntity
  8
0
 62
     7
420
 16777215
370
     0
100
AcDbLine
 10
552.7457254087384
 20
75.77425609553995
 30
0.0
 11
550.2457254087386
 21
75.77425609553995
 31
0.0
  0
ARC
  5
9BC
330
1F
100
AcDbEntity
  8
0
 62
     7
420
 16777215
370
     0
100
AcDbCircle
 10
550.3100843830975
 20
76.66784583912965
 30
0.0
 40
2.594388142825493
100
AcDbArc
 50
188.7259275103608
 51
339.852886214632
  0
LINE
  5
9BD
330
1F
100
AcDbEntity
  8
0
 62
     7
420
 16777215
370
     0
100
AcDbLine
 10
548.2457254087387
 20
101.3742560955401
 30
0.0
 11
547.7457254087387
 21
101.3742560955401
 31
0.0
  0
LINE
  5
9BE
330
1F
100
AcDbEntity
  8
0
 62
     7
420
 16777215
370
     0
100
AcDbLine
 10
548.2457254087387
 20
99.57425609554015
 30
0.0
 11
548.2457254087387
 21
101.3742560955401
 31
0.0
  0
LINE
  5
9BF
330
1F
100
AcDbEntity
  8
0
 62
     7
420
 16777215
370
     0
100
AcDbLine
 10
552.7457254087384
 20
101.8742560955405
 30
0.0
 11
550.2457254087386
 21
101.8742560955405
 31
0.0
  0
ARC
  5
9C0
330
1F
100
AcDbEntity
  8
0
 62
     7
420
 16777215
370
     0
100
AcDbCircle
 10
550.3100843830975
 20
100.9806663519508
 30
0.0
 40
2.594388142825493
100
AcDbArc
 50
20.14711378536797
 51
171.2740724896391
  0
LINE
  5
9C1
330
1F
100
AcDbEntity
  8
0
 62
     7
420
 16777215
370
     0
100
AcDbLine
 10
550.2457254087383
 20
76.07425609554013
 30
0.0
 11
550.2457254087383
 21
75.77425609553995
 31
0.0
  0
LINE
  5
9C2
330
1F
100
AcDbEntity
  8
0
 62
     7
420
 16777215
370
     0
100
AcDbLine
 10
550.2457254087386
 20
101.8742560955405
 30
0.0
 11
550.2457254087388
 21
101.5742560955401
 31
0.0
  0
LINE
  5
B3E
330
1F
100
AcDbEntity
  8
0
 62
     7
420
 16777215
100
AcDbLine
 10
588.2457254087388
 20
133.9861425668266
 30
0.0
 11
588.2457254087388
 21
125.9861425668266
 31
0.0
  0
LINE
  5
B3F
330
1F
100
AcDbEntity
  8
0
 62
     7
420
 16777215
100
AcDbLine
 10
588.2457254087388
 20
125.9861425668266
 30
0.0
 11
588.7457254087388
 21
125.9861425668266
 31
0.0
  0
LINE
  5
B40
330
1F
100
AcDbEntity
  8
0
 62
     7
420
 16777215
100
AcDbLine
 10
588.7457254087388
 20
125.9861425668266
 30
0.0
 11
588.7457254087388
 21
133.9861425668266
 31
0.0
  0
LINE
  5
B41
330
1F
100
AcDbEntity
  8
0
 62
     7
420
 16777215
100
AcDbLine
 10
588.2457254087388
 20
112.4861425668268
 30
0.0
 11
588.2457254087388
 21
120.4861425668268
 31
0.0
  0
LINE
  5
B42
330
1F
100
AcDbEntity
  8
0
 62
     7
420
 16777215
100
AcDbLine
 10
588.2457254087388
 20
120.4861425668268
 30
0.0
 11
588.7457254087388
 21
120.4861425668268
 31
0.0
  0
LINE
  5
B43
330
1F
100
AcDbEntity
  8
0
 62
     7
420
 16777215
100
AcDbLine
 10
588.7457254087388
 20
120.4861425668268
 30
0.0
 11
588.7457254087388
 21
112.4861425668268
 31
0.0
  0
LINE
  5
B44
330
1F
100
AcDbEntity
  8
0
 62
     7
420
 16777215
100
AcDbLine
 10
548.2457254087387
 20
133.9861425668266
 30
0.0
 11
548.2457254087387
 21
125.9861425668266
 31
0.0
  0
LINE
  5
B45
330
1F
100
AcDbEntity
  8
0
 62
     7
420
 16777215
100
AcDbLine
 10
548.2457254087387
 20
125.9861425668266
 30
0.0
 11
547.7457254087387
 21
125.9861425668266
 31
0.0
  0
LINE
  5
B46
330
1F
100
AcDbEntity
  8
0
 62
     7
420
 16777215
100
AcDbLine
 10
547.7457254087387
 20
125.9861425668266
 30
0.0
 11
547.7457254087387
 21
133.9861425668265
 31
0.0
  0
LINE
  5
B47
330
1F
100
AcDbEntity
  8
0
 62
     7
420
 16777215
100
AcDbLine
 10
548.2457254087387
 20
112.4861425668268
 30
0.0
 11
548.2457254087387
 21
120.4861425668269
 31
0.0
  0
LINE
  5
B48
330
1F
100
AcDbEntity
  8
0
 62
     7
420
 16777215
100
AcDbLine
 10
548.2457254087387
 20
120.4861425668269
 30
0.0
 11
547.7457254087387
 21
120.4861425668269
 31
0.0
  0
LINE
  5
B49
330
1F
100
AcDbEntity
  8
0
 62
     7
420
 16777215
100
AcDbLine
 10
547.7457254087387
 20
120.4861425668269
 30
0.0
 11
547.7457254087387
 21
112.4861425668268
 31
0.0
  0
LINE
  5
B4A
330
1F
100
AcDbEntity
  8
0
 62
     7
420
 16777215
100
AcDbLine
 10
588.2457254087388
 20
78.0742560955398
 30
0.0
 11
588.2457254087388
 21
86.07425609553956
 31
0.0
  0
LINE
  5
B4B
330
1F
100
AcDbEntity
  8
0
 62
     7
420
 16777215
100
AcDbLine
 10
588.2457254087388
 20
86.07425609553956
 30
0.0
 11
588.7457254087388
 21
86.07425609553956
 31
0.0
  0
LINE
  5
B4C
330
1F
100
AcDbEntity
  8
0
 62
     7
420
 16777215
100
AcDbLine
 10
588.7457254087388
 20
86.07425609553956
 30
0.0
 11
588.7457254087388
 21
78.07425609553956
 31
0.0
  0
LINE
  5
B4D
330
1F
100
AcDbEntity
  8
0
 62
     7
420
 16777215
100
AcDbLine
 10
588.2457254087388
 20
99.57425609553958
 30
0.0
 11
588.2457254087388
 21
91.57425609553957
 31
0.0
  0
LINE
  5
B4E
330
1F
100
AcDbEntity
  8
0
 62
     7
420
 16777215
100
AcDbLine
 10
588.2457254087388
 20
91.57425609553957
 30
0.0
 11
588.7457254087388
 21
91.57425609553957
 31
0.0
  0
LINE
  5
B4F
330
1F
100
AcDbEntity
  8
0
 62
     7
420
 16777215
100
AcDbLine
 10
588.7457254087388
 20
91.57425609553957
 30
0.0
 11
588.7457254087388
 21
99.57425609553958
 31
0.0
  0
LINE
  5
B53
330
1F
100
AcDbEntity
  8
0
 62
     7
420
 16777215
100
AcDbLine
 10
588.7457254087388
 20
99.57425609553958
 30
0.0
 11
602.2457254087387
 21
99.57425609553958
 31
0.0
  0
LINE
  5
B54
330
1F
100
AcDbEntity
  8
0
 62
     7
420
 16777215
100
AcDbLine
 10
588.7457254087388
 20
78.07425609553956
 30
0.0
 11
602.2457254087385
 21
78.07425609553956
 31
0.0
  0
LINE
  5
B55
330
1F
100
AcDbEntity
  8
0
 62
     7
420
 16777215
100
AcDbLine
 10
588.7457254087388
 20
112.4861425668268
 30
0.0
 11
602.2457254087387
 21
112.4861425668268
 31
0.0
  0
LINE
  5
B56
330
1F
100
AcDbEntity
  8
0
 62
     7
420
 16777215
100
AcDbLine
 10
588.7457254087388
 20
133.9861425668266
 30
0.0
 11
602.2457254087387
 21
133.9861425668266
 31
0.0
  0
LINE
  5
B57
330
1F
100
AcDbEntity
  8
0
 62
     7
420
 16777215
100
AcDbLine
 10
547.7457254087387
 20
112.4861425668268
 30
0.0
 11
534.2457254087387
 21
112.4861425668268
 31
0.0
  0
LINE
  5
B58
330
1F
100
AcDbEntity
  8
0
 62
     7
420
 16777215
100
AcDbLine
 10
547.7457254087387
 20
133.9861425668265
 30
0.0
 11
534.2457254087387
 21
133.9861425668265
 31
0.0
  0
LINE
  5
B6A
330
1F
100
AcDbEntity
  8
0
 62
     7
420
 16777215
100
AcDbLine
 10
585.7457254087384
 20
101.5742560955395
 30
0.0
 11
586.2457254087389
 21
101.5742560955395
 31
0.0
  0
LINE
  5
B6B
330
1F
100
AcDbEntity
  8
0
 62
     7
420
 16777215
100
AcDbLine
 10
585.2457254087388
 20
95.57425609553968
 30
0.0
 11
585.2457254087388
 21
91.57425609553957
 31
0.0
  0
LINE
  5
B6D
330
1F
100
AcDbEntity
  8
0
 62
     7
420
 16777215
100
AcDbLine
 10
585.2457254087388
 20
91.57425609553957
 30
0.0
 11
584.7457254087388
 21
91.57425609553957
 31
0.0
  0
LINE
  5
B6E
330
1F
100
AcDbEntity
  8
0
 62
     7
420
 16777215
100
AcDbLine
 10
584.7457254087388
 20
91.57425609553957
 30
0.0
 11
584.7457254087388
 21
95.5742560955397
 31
0.0
  0
LINE
  5
B6F
330
1F
100
AcDbEntity
  8
0
 62
     7
420
 16777215
100
AcDbLine
 10
584.7457254087388
 20
95.5742560955397
 30
0.0
 11
569.2457254087387
 21
95.57425609554014
 31
0.0
  0
ENDSEC
  0
SECTION
  2
OBJECTS
  0
DICTIONARY
  5
C
330
0
100
AcDbDictionary
281
     1
  3
ACAD_CIP_PREVIOUS_PRODUCT_INFO
350
85E
  3
ACAD_COLOR
350
6B
  3
ACAD_DETAILVIEWSTYLE
350
85A
  3
ACAD_GROUP
350
D
  3
ACAD_LAYOUT
350
1A
  3
ACAD_MATERIAL
350
6A
  3
ACAD_MLEADERSTYLE
350
12D
  3
ACAD_MLINESTYLE
350
17
  3
ACAD_PLOTSETTINGS
350
19
  3
ACAD_PLOTSTYLENAME
350
E
  3
ACAD_SCALELIST
350
10C
  3
ACAD_SECTIONVIEWSTYLE
350
858
  3
ACAD_TABLESTYLE
350
7E
  3
ACAD_VISUALSTYLE
350
EF
  3
ACDB_RECOMPOSE_DATA
350
B83
  3
AcDbVariableDictionary
350
5E
  0
DICTIONARY
  5
940
330
2
100
AcDbDictionary
280
     1
281
     1
  3
ACAD_LAYERSTATES
360
941
  0
DICTIONARY
  5
13C
330
10
100
AcDbDictionary
280
     1
281
     1
  0
DICTIONARY
  5
1CE
330
1F
100
AcDbDictionary
280
     1
281
     1
  0
XRECORD
  5
85E
102
{ACAD_REACTORS
330
C
102
}
330
C
100
AcDbXrecord
280
     1
300
ACD
300
2018
300
ACD_F_S
  0
DICTIONARY
  5
6B
102
{ACAD_REACTORS
330
C
102
}
330
C
100
AcDbDictionary
281
     1
  0
DICTIONARY
  5
85A
102
{ACAD_REACTORS
330
C
102
}
330
C
100
AcDbDictionary
281
     1
  3
Metric50
350
85B
  0
DICTIONARY
  5
D
102
{ACAD_REACTORS
330
C
102
}
330
C
100
AcDbDictionary
281
     1
  0
DICTIONARY
  5
1A
102
{ACAD_REACTORS
330
C
102
}
330
C
100
AcDbDictionary
281
     1
  3
Model
350
22
  3
1
350
D3
  3
2
350
D7
  0
DICTIONARY
  5
6A
102
{ACAD_REACTORS
330
C
102
}
330
C
100
AcDbDictionary
281
     1
  3
ByBlock
350
ED
  3
ByLayer
350
EC
  3
Global
350
EE
  0
DICTIONARY
  5
12D
102
{ACAD_REACTORS
330
C
102
}
330
C
100
AcDbDictionary
281
     1
  3
Annotative
350
13B
  3
Standard
350
12E
  0
DICTIONARY
  5
17
102
{ACAD_REACTORS
330
C
102
}
330
C
100
AcDbDictionary
281
     1
  3
Standard
350
18
  0
DICTIONARY
  5
19
102
{ACAD_REACTORS
330
C
102
}
330
C
100
AcDbDictionary
281
     1
  0
ACDBDICTIONARYWDFLT
  5
E
102
{ACAD_REACTORS
330
C
102
}
330
C
100
AcDbDictionary
281
     1
  3
Normal
350
F
100
AcDbDictionaryWithDefault
340
F
  0
DICTIONARY
  5
10C
102
{ACAD_REACTORS
330
C
102
}
330
C
100
AcDbDictionary
281
     1
  3
A0
350
10D
  3
A1
350
1BE
  3
A2
350
1BF
  3
A3
350
1C0
  3
A4
350
1C1
  3
A5
350
1C2
  3
A6
350
1C3
  3
A7
350
1C4
  3
A8
350
1C5
  3
A9
350
1C6
  3
B0
350
1C7
  3
B1
350
1C8
  3
B2
350
1C9
  3
B3
350
1CA
  3
B4
350
1CB
  3
B5
350
1CC
  3
B6
350
1CD
  0
DICTIONARY
  5
858
102
{ACAD_REACTORS
330
C
102
}
330
C
100
AcDbDictionary
281
     1
  3
Metric50
350
859
  0
DICTIONARY
  5
7E
102
{ACAD_REACTORS
330
C
102
}
330
C
100
AcDbDictionary
281
     1
  3
Standard
350
7F
  0
DICTIONARY
  5
EF
102
{ACAD_REACTORS
330
C
102
}
330
C
100
AcDbDictionary
281
     1
  3
2dWireframe
350
F5
  3
3D Hidden
350
F7
  3
3dWireframe
350
F6
  3
Basic
350
F4
  3
Brighten
350
FB
  3
ColorChange
350
FF
  3
Conceptual
350
F8
  3
Dim
350
FA
  3
EdgeColorOff
350
857
  3
Facepattern
350
FE
  3
Flat
350
F0
  3
FlatWithEdges
350
F1
  3
Gouraud
350
F2
  3
GouraudWithEdges
350
F3
  3
Hidden
350
84F
  3
JitterOff
350
855
  3
Linepattern
350
FD
  3
OverhangOff
350
856
  3
Realistic
350
F9
  3
Shaded
350
854
  3
Shaded with edges
350
853
  3
Shades of Gray
350
850
  3
Sketchy
350
851
  3
Thicken
350
FC
  3
Wireframe
350
84E
  3
X-Ray
350
852
  0
XRECORD
  5
B83
102
{ACAD_REACTORS
330
C
102
}
330
C
100
AcDbXrecord
280
     1
 90
        1
330
7F
  0
DICTIONARY
  5
5E
102
{ACAD_REACTORS
330
C
102
}
330
C
100
AcDbDictionary
281
     1
  3
CANNOSCALE
350
146
  3
CMLEADERSTYLE
350
145
  3
CTABLESTYLE
350
84
  3
CVIEWDETAILSTYLE
350
860
  3
CVIEWSECTIONSTYLE
350
861
  3
DIMASSOC
350
5F
  3
HIDETEXT
350
63
  3
LAYEREVAL
350
1AE
  3
LAYERNOTIFY
350
1AF
  0
DICTIONARY
  5
941
102
{ACAD_REACTORS
330
940
102
}
330
940
100
AcDbDictionary
281
     1
  0
ACDBDETAILVIEWSTYLE
  5
85B
102
{ACAD_REACTORS
330
85A
102
}
330
85A
100
AcDbModelDocViewStyle
 70
     0
  3
Metric50
290
     0
300
Metric50
 90
        0
100
AcDbDetailViewStyle
 70
     0
 71
     0
 90
        3
 71
     1
340
11
 62
   256
 40
5.0
340
0
 62
   256
 40
5.0
300

 40
0.0
280
     1
 71
     2
340
16
 90
       25
 62
   256
 71
     3
340
11
 62
   256
 40
5.0
 90
        0
 40
15.0
 90
        1
300
%<\AcVar ViewDetailId>% (%<\AcVar ViewScale \f "%sn">%)
 71
     4
340
16
 90
       25
 62
   256
340
16
 90
       25
 62
   256
280
     0
  0
LAYOUT
  5
22
102
{ACAD_REACTORS
330
1A
102
}
330
1A
100
AcDbPlotSettings
  1

  2
none_device
  4
ISO_A4_(210.00_x_297.00_MM)
  6

 40
7.5
 41
20.0
 42
7.5
 43
20.0
 44
210.0
 45
297.0
 46
11.54999923706054
 47
-13.65000009536743
 48
0.0
 49
0.0
140
0.0
141
0.0
142
1.0
143
8.704084754739808
 70
 11952
 72
     1
 73
     0
 74
     0
  7

 75
     0
147
0.1148885871608098
 76
     0
 77
     2
 78
   300
148
0.0
149
0.0
100
AcDbLayout
  1
Model
 70
     1
 71
     0
 10
0.0
 20
0.0
 11
12.0
 21
9.0
 12
0.0
 22
0.0
 32
0.0
 14
0.0
 24
0.0
 34
0.0
 15
0.0
 25
0.0
 35
0.0
146
0.0
 13
0.0
 23
0.0
 33
0.0
 16
1.0
 26
0.0
 36
0.0
 17
0.0
 27
1.0
 37
0.0
 76
     0
330
1F
331
EA
1001
ACAD_PSEXT
1000
None
1000
None
1000
Not applicable
1000
The layout will not be plotted unless a new plotter configuration name is selected.
1070
     0
  0
LAYOUT
  5
D3
102
{ACAD_REACTORS
330
1A
102
}
330
1A
100
AcDbPlotSettings
  1

  2
C:\Documents and Settings\basas\Application Data\Autodesk\AutoCAD 2005\R16.1\enu\plotters\Default Windows System Printer.pc3
  4

  6

 40
0.0
 41
0.0
 42
0.0
 43
0.0
 44
0.0
 45
0.0
 46
0.0
 47
0.0
 48
0.0
 49
0.0
140
0.0
141
0.0
142
1.0
143
1.0
 70
   688
 72
     0
 73
     0
 74
     5
  7

 75
    16
147
1.0
 76
     0
 77
     2
 78
   300
148
0.0
149
0.0
100
AcDbLayout
  1
1
 70
     1
 71
     1
 10
0.0
 20
0.0
 11
12.0
 21
9.0
 12
0.0
 22
0.0
 32
0.0
 14
0.0
 24
0.0
 34
0.0
 15
0.0
 25
0.0
 35
0.0
146
0.0
 13
0.0
 23
0.0
 33
0.0
 16
1.0
 26
0.0
 36
0.0
 17
0.0
 27
1.0
 37
0.0
 76
     0
330
D2
  0
LAYOUT
  5
D7
102
{ACAD_REACTORS
330
1A
102
}
330
1A
100
AcDbPlotSettings
  1

  2
C:\Documents and Settings\basas\Application Data\Autodesk\AutoCAD 2005\R16.1\enu\plotters\Default Windows System Printer.pc3
  4

  6

 40
0.0
 41
0.0
 42
0.0
 43
0.0
 44
0.0
 45
0.0
 46
0.0
 47
0.0
 48
0.0
 49
0.0
140
0.0
141
0.0
142
1.0
143
1.0
 70
   688
 72
     0
 73
     0
 74
     5
  7

 75
    16
147
1.0
 76
     0
 77
     2
 78
   300
148
0.0
149
0.0
100
AcDbLayout
  1
2
 70
     1
 71
     2
 10
0.0
 20
0.0
 11
12.0
 21
9.0
 12
0.0
 22
0.0
 32
0.0
 14
0.0
 24
0.0
 34
0.0
 15
0.0
 25
0.0
 35
0.0
146
0.0
 13
0.0
 23
0.0
 33
0.0
 16
1.0
 26
0.0
 36
0.0
 17
0.0
 27
1.0
 37
0.0
 76
     0
330
D6
  0
MATERIAL
  5
ED
102
{ACAD_REACTORS
330
6A
102
}
330
6A
100
AcDbMaterial
  1
ByBlock
 94
       63
  0
MATERIAL
  5
EC
102
{ACAD_REACTORS
330
6A
102
}
330
6A
100
AcDbMaterial
  1
ByLayer
 94
       63
  0
MATERIAL
  5
EE
102
{ACAD_XDICTIONARY
360
173
102
}
102
{ACAD_REACTORS
330
6A
102
}
330
6A
100
AcDbMaterial
  1
Global
 43
0.0007999999797903
 43
0.0
 43
0.0
 43
0.0
 43
0.0
 43
0.0007999999797903
 43
0.0
 43
0.0
 43
0.0
 43
0.0
 43
1.0
 43
0.0
 43
0.0
 43
0.0
 43
0.0
 43
1.0
 49
0.0007999999797903
 49
0.0
 49
0.0
 49
0.0
 49
0.0
 49
0.0007999999797903
 49
0.0
 49
0.0
 49
0.0
 49
0.0
 49
1.0
 49
0.0
 49
0.0
 49
0.0
 49
0.0
 49
1.0
142
0.0007999999797903
142
0.0
142
0.0
142
0.0
142
0.0
142
0.0007999999797903
142
0.0
142
0.0
142
0.0
142
0.0
142
1.0
142
0.0
142
0.0
142
0.0
142
0.0
142
1.0
144
0.0007999999797903
144
0.0
144
0.0
144
0.0
144
0.0
144
0.0007999999797903
144
0.0
144
0.0
144
0.0
144
0.0
144
1.0
144
0.0
144
0.0
144
0.0
144
0.0
144
1.0
 94
       63
1001
ACAD
1070
    -1
1070
     3
1070
     0
1000

1071
        0
1070
     0
  0
MLEADERSTYLE
  5
13B
102
{ACAD_REACTORS
330
12D
102
}
330
12D
100
AcDbMLeaderStyle
179
     2
170
     2
171
     1
172
     0
 90
        2
 40
0.0
 41
0.0
173
     1
 91
-1056964608
340
14
 92
       -2
290
     1
 42
2.0
291
     1
 43
8.0
  3
Standard
 44
4.0
300

342
11
174
     1
178
     1
175
     1
176
     0
 93
-1056964608
 45
4.0
292
     0
297
     0
 46
4.0
 94
-1056964608
 47
1.0
 49
1.0
140
1.0
293
     1
141
0.0
294
     1
177
     0
142
1.0
295
     0
296
     1
143
3.75
271
     0
272
     9
273
     9
298
     0
1001
ACAD_MLEADERVER
1070
     2
  0
MLEADERSTYLE
  5
12E
102
{ACAD_REACTORS
330
12D
102
}
330
12D
100
AcDbMLeaderStyle
179
     2
170
     2
171
     1
172
     0
 90
        2
 40
0.0
 41
0.0
173
     1
 91
-1056964608
340
14
 92
       -2
290
     1
 42
2.0
291
     1
 43
8.0
  3
Standard
 44
4.0
300

342
11
174
     1
178
     1
175
     1
176
     0
 93
-1056964608
 45
4.0
292
     0
297
     0
 46
4.0
 94
-1056964608
 47
1.0
 49
1.0
140
1.0
293
     1
141
0.0
294
     1
177
     0
142
1.0
295
     0
296
     0
143
3.75
271
     0
272
     9
273
     9
298
     0
1001
ACAD_MLEADERVER
1070
     2
  0
MLINESTYLE
  5
18
102
{ACAD_REACTORS
330
17
102
}
330
17
100
AcDbMlineStyle
  2
STANDARD
 70
     0
  3

 62
   256
 51
90.0
 52
90.0
 71
     2
 49
0.5
 62
   256
  6
BYLAYER
 49
-0.5
 62
   256
  6
BYLAYER
  0
ACDBPLACEHOLDER
  5
F
102
{ACAD_REACTORS
330
E
102
}
330
E
  0
SCALE
  5
10D
102
{ACAD_REACTORS
330
10C
102
}
330
10C
100
AcDbScale
 70
     0
300
1:1
140
1.0
141
1.0
290
     1
  0
SCALE
  5
1BE
102
{ACAD_REACTORS
330
10C
102
}
330
10C
100
AcDbScale
 70
     0
300
1:2
140
1.0
141
2.0
290
     0
  0
SCALE
  5
1BF
102
{ACAD_REACTORS
330
10C
102
}
330
10C
100
AcDbScale
 70
     0
300
1:4
140
1.0
141
4.0
290
     0
  0
SCALE
  5
1C0
102
{ACAD_REACTORS
330
10C
102
}
330
10C
100
AcDbScale
 70
     0
300
1:5
140
1.0
141
5.0
290
     0
  0
SCALE
  5
1C1
102
{ACAD_REACTORS
330
10C
102
}
330
10C
100
AcDbScale
 70
     0
300
1:8
140
1.0
141
8.0
290
     0
  0
SCALE
  5
1C2
102
{ACAD_REACTORS
330
10C
102
}
330
10C
100
AcDbScale
 70
     0
300
1:10
140
1.0
141
10.0
290
     0
  0
SCALE
  5
1C3
102
{ACAD_REACTORS
330
10C
102
}
330
10C
100
AcDbScale
 70
     0
300
1:16
140
1.0
141
16.0
290
     0
  0
SCALE
  5
1C4
102
{ACAD_REACTORS
330
10C
102
}
330
10C
100
AcDbScale
 70
     0
300
1:20
140
1.0
141
20.0
290
     0
  0
SCALE
  5
1C5
102
{ACAD_REACTORS
330
10C
102
}
330
10C
100
AcDbScale
 70
     0
300
1:30
140
1.0
141
30.0
290
     0
  0
SCALE
  5
1C6
102
{ACAD_REACTORS
330
10C
102
}
330
10C
100
AcDbScale
 70
     0
300
1:40
140
1.0
141
40.0
290
     0
  0
SCALE
  5
1C7
102
{ACAD_REACTORS
330
10C
102
}
330
10C
100
AcDbScale
 70
     0
300
1:50
140
1.0
141
50.0
290
     0
  0
SCALE
  5
1C8
102
{ACAD_REACTORS
330
10C
102
}
330
10C
100
AcDbScale
 70
     0
300
1:100
140
1.0
141
100.0
290
     0
  0
SCALE
  5
1C9
102
{ACAD_REACTORS
330
10C
102
}
330
10C
100
AcDbScale
 70
     0
300
2:1
140
2.0
141
1.0
290
     0
  0
SCALE
  5
1CA
102
{ACAD_REACTORS
330
10C
102
}
330
10C
100
AcDbScale
 70
     0
300
4:1
140
4.0
141
1.0
290
     0
  0
SCALE
  5
1CB
102
{ACAD_REACTORS
330
10C
102
}
330
10C
100
AcDbScale
 70
     0
300
8:1
140
8.0
141
1.0
290
     0
  0
SCALE
  5
1CC
102
{ACAD_REACTORS
330
10C
102
}
330
10C
100
AcDbScale
 70
     0
300
10:1
140
10.0
141
1.0
290
     0
  0
SCALE
  5
1CD
102
{ACAD_REACTORS
330
10C
102
}
330
10C
100
AcDbScale
 70
     0
300
100:1
140
100.0
141
1.0
290
     0
  0
ACDBSECTIONVIEWSTYLE
  5
859
102
{ACAD_REACTORS
330
858
102
}
330
858
100
AcDbModelDocViewStyle
 70
     0
  3
Metric50
290
     0
300
Metric50
 90
        0
100
AcDbSectionViewStyle
 70
     0
 71
     0
 90
      102
 71
     1
340
11
 62
   256
 40
5.0
340
0
340
0
 62
   256
 40
5.0
300
I, O, Q, S, X, Z
 40
10.0
 90
        0
 40
2.5
 90
        0
 71
     2
340
16
 90
       25
 62
   256
340
16
 90
       50
 62
   256
 40
5.0
 40
2.5
 40
5.0
 71
     3
340
11
 62
   256
 40
5.0
 90
        0
 40
15.0
 90
        1
300
%<\AcVar ViewSectionStartId>%-%<\AcVar ViewSectionEndId>% (%<\AcVar ViewScale \f "%sn">%)
 71
     4
 62
   256
 62
   257
300
ANSI31
 40
1.0
 90
        0
290
     0
290
     0
 90
        6
 40
0.0
 40
1.570796326794896
 40
0.2617993877991494
 40
1.308996938995747
 40
-0.2617993877991494
 40
1.832595714594046
  0
TABLESTYLE
  5
7F
102
{ACAD_XDICTIONARY
360
162
102
}
102
{ACAD_REACTORS
330
7E
102
}
330
7E
100
AcDbTableStyle
280
     0
  3
Standard
 70
     0
 71
     0
 40
1.5
 41
1.5
280
     0
281
     0
  7
Standard
140
4.5
170
     2
 62
     0
 63
     7
283
     0
 90
      512
 91
        0
  1

274
    -2
284
     1
 64
     0
275
    -2
285
     1
 65
     0
276
    -2
286
     1
 66
     0
277
    -2
287
     1
 67
     0
278
    -2
288
     1
 68
     0
279
    -2
289
     1
 69
     0
  7
Standard
140
6.0
170
     5
 62
     0
 63
     7
283
     0
 90
      512
 91
        0
  1

274
    -2
284
     1
 64
     0
275
    -2
285
     1
 65
     0
276
    -2
286
     1
 66
     0
277
    -2
287
     1
 67
     0
278
    -2
288
     1
 68
     0
279
    -2
289
     1
 69
     0
  7
Standard
140
4.5
170
     5
 62
     0
 63
     7
283
     0
 90
      512
 91
        0
  1

274
    -2
284
     1
 64
     0
275
    -2
285
     1
 65
     0
276
    -2
286
     1
 66
     0
277
    -2
287
     1
 67
     0
278
    -2
288
     1
 68
     0
279
    -2
289
     1
 69
     0
  0
VISUALSTYLE
  5
F5
102
{ACAD_REACTORS
330
EF
102
}
330
EF
100
AcDbVisualStyle
  2

 70
     4
177
     3
291
     0
 70
    58
 90
        0
176
     1
 90
        2
176
     1
 90
        1
176
     1
 90
        0
176
     1
 40
0.6
176
     1
 40
30.0
176
     1
 62
     7
420
 16777215
176
     1
 90
        1
176
     1
 90
        4
176
     1
 62
     7
176
     1
 62
   257
176
     1
 90
        1
176
     1
 90
        1
176
     1
 40
1.0
176
     1
 90
        0
176
     1
 62
   257
176
     1
 40
1.0
176
     1
 90
        1
176
     1
 90
        6
176
     1
 90
        2
176
     1
 62
     7
176
     1
 90
        5
176
     1
 90
        0
176
     1
 90
        0
176
     1
290
     0
176
     1
 90
        1
176
     1
 40
0.0
176
     1
 90
        0
176
     1
290
     1
176
     1
290
     1
176
     1
290
     0
176
     1
290
     0
176
     1
290
     0
176
     1
290
     0
176
     1
290
     0
176
     1
290
     0
176
     1
290
     0
176
     1
 90
       50
176
     1
 40
0.0
176
     1
 40
1.0
176
     1
 90
        0
176
     1
 62
    18
420
        0
176
     1
 90
       50
176
     1
 90
        3
176
     1
 62
     5
420
      255
176
     1
290
     0
176
     1
 90
       50
176
     1
 90
       50
176
     1
 90
       50
176
     1
290
     0
176
     1
 90
       50
176
     1
 62
   256
176
     0
 40
1.0
176
     0
 90
        2
176
     1
  1
strokes_ogs.tif
176
     1
290
     0
176
     1
 40
1.0
176
     1
 40
1.0
176
     1
  0
VISUALSTYLE
  5
F7
102
{ACAD_REACTORS
330
EF
102
}
330
EF
100
AcDbVisualStyle
  2

 70
     6
177
     3
291
     0
 70
    58
 90
        1
176
     1
 90
        2
176
     1
 90
        2
176
     1
 90
        0
176
     1
 40
0.6
176
     1
 40
30.0
176
     1
 62
     7
420
 16777215
176
     1
 90
        2
176
     1
 90
        2
176
     1
 62
     7
176
     1
 62
   257
176
     1
 90
        2
176
     1
 90
        1
176
     1
 40
40.0
176
     1
 90
        0
176
     1
 62
   257
176
     1
 40
1.0
176
     1
 90
        1
176
     1
 90
        6
176
     1
 90
        2
176
     1
 62
     7
176
     1
 90
        3
176
     1
 90
        0
176
     1
 90
        0
176
     1
290
     0
176
     1
 90
        1
176
     1
 40
0.0
176
     1
 90
        0
176
     1
290
     0
176
     1
290
     1
176
     1
290
     1
176
     1
290
     0
176
     1
290
     0
176
     1
290
     0
176
     1
290
     0
176
     1
290
     0
176
     1
290
     0
176
     1
 90
       50
176
     1
 40
0.0
176
     1
 40
1.0
176
     1
 90
        0
176
     1
 62
    18
420
        0
176
     1
 90
       50
176
     1
 90
        3
176
     1
 62
     5
420
      255
176
     1
290
     0
176
     1
 90
       50
176
     1
 90
       50
176
     1
 90
       50
176
     1
290
     0
176
     1
 90
       50
176
     1
 62
   256
176
     0
 40
1.0
176
     0
 90
        2
176
     1
  1
strokes_ogs.tif
176
     1
290
     0
176
     1
 40
1.0
176
     1
 40
1.0
176
     1
  0
VISUALSTYLE
  5
F6
102
{ACAD_REACTORS
330
EF
102
}
330
EF
100
AcDbVisualStyle
  2

 70
     5
177
     3
291
     0
 70
    58
 90
        0
176
     1
 90
        2
176
     1
 90
        1
176
     1
 90
        0
176
     1
 40
0.6
176
     1
 40
30.0
176
     1
 62
     7
420
 16777215
176
     1
 90
        1
176
     1
 90
        4
176
     1
 62
     7
176
     1
 62
   257
176
     1
 90
        1
176
     1
 90
        1
176
     1
 40
1.0
176
     1
 90
        0
176
     1
 62
   257
176
     1
 40
1.0
176
     1
 90
        1
176
     1
 90
        6
176
     1
 90
        2
176
     1
 62
     7
176
     1
 90
        5
176
     1
 90
        0
176
     1
 90
        0
176
     1
290
     0
176
     1
 90
        1
176
     1
 40
0.0
176
     1
 90
        0
176
     1
290
     0
176
     1
290
     1
176
     1
290
     1
176
     1
290
     0
176
     1
290
     0
176
     1
290
     0
176
     1
290
     0
176
     1
290
     0
176
     1
290
     0
176
     1
 90
       50
176
     1
 40
0.0
176
     1
 40
1.0
176
     1
 90
        0
176
     1
 62
    18
420
        0
176
     1
 90
       50
176
     1
 90
        3
176
     1
 62
     5
420
      255
176
     1
290
     0
176
     1
 90
       50
176
     1
 90
       50
176
     1
 90
       50
176
     1
290
     0
176
     1
 90
       50
176
     1
 62
   256
176
     0
 40
1.0
176
     0
 90
        2
176
     1
  1
strokes_ogs.tif
176
     1
290
     0
176
     1
 40
1.0
176
     1
 40
1.0
176
     1
  0
VISUALSTYLE
  5
F4
102
{ACAD_REACTORS
330
EF
102
}
330
EF
100
AcDbVisualStyle
  2

 70
     7
177
     3
291
     1
 70
    58
 90
        1
176
     1
 90
        0
176
     1
 90
        1
176
     1
 90
        0
176
     1
 40
0.6
176
     1
 40
30.0
176
     1
 62
     7
420
 16777215
176
     1
 90
        0
176
     1
 90
        4
176
     1
 62
     7
176
     1
 62
   257
176
     1
 90
        1
176
     1
 90
        1
176
     1
 40
1.0
176
     1
 90
        8
176
     1
 62
     7
176
     1
 40
1.0
176
     1
 90
        1
176
     1
 90
        6
176
     1
 90
        2
176
     1
 62
     7
176
     1
 90
        5
176
     1
 90
        0
176
     1
 90
        0
176
     1
290
     0
176
     1
 90
        1
176
     1
 40
0.0
176
     1
 90
        0
176
     1
290
     0
176
     1
290
     1
176
     1
290
     1
176
     1
290
     0
176
     1
290
     0
176
     1
290
     0
176
     1
290
     0
176
     1
290
     0
176
     1
290
     0
176
     1
 90
       50
176
     1
 40
0.0
176
     1
 40
1.0
176
     1
 90
        0
176
     1
 62
    18
420
        0
176
     1
 90
       50
176
     1
 90
        3
176
     1
 62
     5
420
      255
176
     1
290
     0
176
     1
 90
       50
176
     1
 90
       50
176
     1
 90
       50
176
     1
290
     0
176
     1
 90
       50
176
     1
 62
   256
176
     0
 40
1.0
176
     0
 90
        2
176
     1
  1
strokes_ogs.tif
176
     1
290
     0
176
     1
 40
1.0
176
     1
 40
1.0
176
     1
  0
VISUALSTYLE
  5
FB
102
{ACAD_REACTORS
330
EF
102
}
330
EF
100
AcDbVisualStyle
  2

 70
    12
177
     3
291
     1
 70
    58
 90
        2
176
     1
 90
        2
176
     1
 90
        1
176
     1
 90
        0
176
     1
 40
0.6
176
     1
 40
30.0
176
     1
 62
     7
420
 16777215
176
     1
 90
        1
176
     1
 90
        4
176
     1
 62
     7
176
     1
 62
   257
176
     1
 90
        1
176
     1
 90
        1
176
     1
 40
1.0
176
     1
 90
        8
176
     1
 62
     7
176
     1
 40
1.0
176
     1
 90
        1
176
     1
 90
        6
176
     1
 90
        2
176
     1
 62
     7
176
     1
 90
        5
176
     1
 90
        0
176
     1
 90
        0
176
     1
290
     0
176
     1
 90
        1
176
     1
 40
50.0
176
     1
 90
        0
176
     1
290
     0
176
     1
290
     1
176
     1
290
     1
176
     1
290
     0
176
     1
290
     0
176
     1
290
     0
176
     1
290
     0
176
     1
290
     0
176
     1
290
     0
176
     1
 90
       50
176
     1
 40
0.0
176
     1
 40
1.0
176
     1
 90
        0
176
     1
 62
    18
420
        0
176
     1
 90
       50
176
     1
 90
        3
176
     1
 62
     5
420
      255
176
     1
290
     0
176
     1
 90
       50
176
     1
 90
       50
176
     1
 90
       50
176
     1
290
     0
176
     1
 90
       50
176
     1
 62
   256
176
     0
 40
1.0
176
     0
 90
        2
176
     1
  1
strokes_ogs.tif
176
     1
290
     0
176
     1
 40
1.0
176
     1
 40
1.0
176
     1
  0
VISUALSTYLE
  5
FF
102
{ACAD_REACTORS
330
EF
102
}
330
EF
100
AcDbVisualStyle
  2

 70
    16
177
     3
291
     1
 70
    58
 90
        2
176
     1
 90
        2
176
     1
 90
        3
176
     1
 90
        0
176
     1
 40
0.6
176
     1
 40
30.0
176
     1
 62
     8
420
  8421504
176
     1
 90
        1
176
     1
 90
        4
176
     1
 62
     7
176
     1
 62
   257
176
     1
 90
        1
176
     1
 90
        1
176
     1
 40
1.0
176
     1
 90
        8
176
     1
 62
     8
420
  8421504
176
     1
 40
1.0
176
     1
 90
        1
176
     1
 90
        6
176
     1
 90
        2
176
     1
 62
     7
176
     1
 90
        5
176
     1
 90
        0
176
     1
 90
        0
176
     1
290
     0
176
     1
 90
        1
176
     1
 40
0.0
176
     1
 90
        0
176
     1
290
     0
176
     1
290
     1
176
     1
290
     1
176
     1
290
     0
176
     1
290
     0
176
     1
290
     0
176
     1
290
     0
176
     1
290
     0
176
     1
290
     0
176
     1
 90
       50
176
     1
 40
0.0
176
     1
 40
1.0
176
     1
 90
        0
176
     1
 62
    18
420
        0
176
     1
 90
       50
176
     1
 90
        3
176
     1
 62
     5
420
      255
176
     1
290
     0
176
     1
 90
       50
176
     1
 90
       50
176
     1
 90
       50
176
     1
290
     0
176
     1
 90
       50
176
     1
 62
   256
176
     0
 40
1.0
176
     0
 90
        2
176
     1
  1
strokes_ogs.tif
176
     1
290
     0
176
     1
 40
1.0
176
     1
 40
1.0
176
     1
  0
VISUALSTYLE
  5
F8
102
{ACAD_REACTORS
330
EF
102
}
330
EF
100
AcDbVisualStyle
  2

 70
     9
177
     3
291
     0
 70
    58
 90
        3
176
     1
 90
        2
176
     1
 90
        1
176
     1
 90
        0
176
     1
 40
0.6
176
     1
 40
30.0
176
     1
 62
     7
420
 16777215
176
     1
 90
        2
176
     1
 90
        2
176
     1
 62
     7
176
     1
 62
   257
176
     1
 90
        1
176
     1
 90
        1
176
     1
 40
40.0
176
     1
 90
        8
176
     1
 62
     7
176
     1
 40
1.0
176
     1
 90
        1
176
     1
 90
        6
176
     1
 90
        2
176
     1
 62
     7
176
     1
 90
        3
176
     1
 90
        0
176
     1
 90
        0
176
     1
290
     0
176
     1
 90
        1
176
     1
 40
0.0
176
     1
 90
        0
176
     1
290
     0
176
     1
290
     1
176
     1
290
     1
176
     1
290
     0
176
     1
290
     0
176
     1
290
     0
176
     1
290
     0
176
     1
290
     0
176
     1
290
     0
176
     1
 90
       50
176
     1
 40
0.0
176
     1
 40
1.0
176
     1
 90
        0
176
     1
 62
    18
420
        0
176
     1
 90
       50
176
     1
 90
        3
176
     1
 62
     5
420
      255
176
     1
290
     0
176
     1
 90
       50
176
     1
 90
       50
176
     1
 90
       50
176
     1
290
     0
176
     1
 90
       50
176
     1
 62
   256
176
     0
 40
1.0
176
     0
 90
        2
176
     1
  1
strokes_ogs.tif
176
     1
290
     0
176
     1
 40
1.0
176
     1
 40
1.0
176
     1
  0
VISUALSTYLE
  5
FA
102
{ACAD_REACTORS
330
EF
102
}
330
EF
100
AcDbVisualStyle
  2

 70
    11
177
     3
291
     1
 70
    58
 90
        2
176
     1
 90
        2
176
     1
 90
        1
176
     1
 90
        0
176
     1
 40
0.6
176
     1
 40
30.0
176
     1
 62
     7
420
 16777215
176
     1
 90
        1
176
     1
 90
        4
176
     1
 62
     7
176
     1
 62
   257
176
     1
 90
        1
176
     1
 90
        1
176
     1
 40
1.0
176
     1
 90
        8
176
     1
 62
     7
176
     1
 40
1.0
176
     1
 90
        1
176
     1
 90
        6
176
     1
 90
        2
176
     1
 62
     7
176
     1
 90
        5
176
     1
 90
        0
176
     1
 90
        0
176
     1
290
     0
176
     1
 90
        1
176
     1
 40
-50.0
176
     1
 90
        0
176
     1
290
     0
176
     1
290
     1
176
     1
290
     1
176
     1
290
     0
176
     1
290
     0
176
     1
290
     0
176
     1
290
     0
176
     1
290
     0
176
     1
290
     0
176
     1
 90
       50
176
     1
 40
0.0
176
     1
 40
1.0
176
     1
 90
        0
176
     1
 62
    18
420
        0
176
     1
 90
       50
176
     1
 90
        3
176
     1
 62
     5
420
      255
176
     1
290
     0
176
     1
 90
       50
176
     1
 90
       50
176
     1
 90
       50
176
     1
290
     0
176
     1
 90
       50
176
     1
 62
   256
176
     0
 40
1.0
176
     0
 90
        2
176
     1
  1
strokes_ogs.tif
176
     1
290
     0
176
     1
 40
1.0
176
     1
 40
1.0
176
     1
  0
VISUALSTYLE
  5
857
102
{ACAD_REACTORS
330
EF
102
}
330
EF
100
AcDbVisualStyle
  2
EdgeColorOff
 70
    22
177
     3
291
     1
 70
    58
 90
        2
176
     0
 90
        2
176
     0
 90
        0
176
     0
 90
        0
176
     0
 40
0.6
176
     0
 40
30.0
176
     0
 62
     7
420
 16777215
176
     0
 90
        1
176
     0
 90
        4
176
     0
 62
     7
176
     0
 62
   257
176
     0
 90
        1
176
     0
 90
        1
176
     0
 40
1.0
176
     0
 90
        8
176
     2
 62
     7
176
     0
 40
1.0
176
     0
 90
        1
176
     0
 90
        6
176
     0
 90
        2
176
     0
 62
     7
176
     0
 90
        5
176
     0
 90
        0
176
     0
 90
        0
176
     0
290
     0
176
     0
 90
        1
176
     0
 40
0.0
176
     0
 90
        0
176
     0
290
     0
176
     1
290
     1
176
     1
290
     1
176
     1
290
     0
176
     1
290
     0
176
     1
290
     0
176
     1
290
     0
176
     1
290
     0
176
     1
290
     0
176
     1
 90
       50
176
     0
 40
0.0
176
     0
 40
1.0
176
     0
 90
        0
176
     0
 62
    18
420
        0
176
     0
 90
       50
176
     0
 90
        3
176
     0
 62
     5
420
      255
176
     0
290
     0
176
     1
 90
       50
176
     0
 90
       50
176
     0
 90
       50
176
     0
290
     0
176
     1
 90
       50
176
     0
 62
   256
176
     0
 40
1.0
176
     0
 90
        2
176
     0
  1
strokes_ogs.tif
176
     0
290
     0
176
     1
 40
1.0
176
     0
 40
1.0
176
     0
  0
VISUALSTYLE
  5
FE
102
{ACAD_REACTORS
330
EF
102
}
330
EF
100
AcDbVisualStyle
  2

 70
    15
177
     3
291
     1
 70
    58
 90
        2
176
     1
 90
        2
176
     1
 90
        1
176
     1
 90
        0
176
     1
 40
0.6
176
     1
 40
30.0
176
     1
 62
     7
420
 16777215
176
     1
 90
        1
176
     1
 90
        4
176
     1
 62
     7
176
     1
 62
   257
176
     1
 90
        1
176
     1
 90
        1
176
     1
 40
1.0
176
     1
 90
        8
176
     1
 62
     7
176
     1
 40
1.0
176
     1
 90
        1
176
     1
 90
        6
176
     1
 90
        2
176
     1
 62
     7
176
     1
 90
        5
176
     1
 90
        0
176
     1
 90
        0
176
     1
290
     0
176
     1
 90
        1
176
     1
 40
0.0
176
     1
 90
        0
176
     1
290
     0
176
     1
290
     1
176
     1
290
     1
176
     1
290
     0
176
     1
290
     0
176
     1
290
     0
176
     1
290
     0
176
     1
290
     0
176
     1
290
     0
176
     1
 90
       50
176
     1
 40
0.0
176
     1
 40
1.0
176
     1
 90
        0
176
     1
 62
    18
420
        0
176
     1
 90
       50
176
     1
 90
        3
176
     1
 62
     5
420
      255
176
     1
290
     0
176
     1
 90
       50
176
     1
 90
       50
176
     1
 90
       50
176
     1
290
     0
176
     1
 90
       50
176
     1
 62
   256
176
     0
 40
1.0
176
     0
 90
        2
176
     1
  1
strokes_ogs.tif
176
     1
290
     0
176
     1
 40
1.0
176
     1
 40
1.0
176
     1
  0
VISUALSTYLE
  5
F0
102
{ACAD_REACTORS
330
EF
102
}
330
EF
100
AcDbVisualStyle
  2

 70
     0
177
     3
291
     1
 70
    58
 90
        2
176
     1
 90
        1
176
     1
 90
        1
176
     1
 90
        2
176
     1
 40
0.6
176
     1
 40
30.0
176
     1
 62
     7
420
 16777215
176
     1
 90
        0
176
     1
 90
        4
176
     1
 62
     7
176
     1
 62
   257
176
     1
 90
        1
176
     1
 90
        1
176
     1
 40
1.0
176
     1
 90
        8
176
     1
 62
     7
176
     1
 40
1.0
176
     1
 90
        1
176
     1
 90
        6
176
     1
 90
        2
176
     1
 62
     7
176
     1
 90
        5
176
     1
 90
        0
176
     1
 90
        0
176
     1
290
     0
176
     1
 90
        1
176
     1
 40
0.0
176
     1
 90
        0
176
     1
290
     0
176
     1
290
     1
176
     1
290
     1
176
     1
290
     0
176
     1
290
     0
176
     1
290
     0
176
     1
290
     0
176
     1
290
     0
176
     1
290
     0
176
     1
 90
       50
176
     1
 40
0.0
176
     1
 40
1.0
176
     1
 90
        0
176
     1
 62
    18
420
        0
176
     1
 90
       50
176
     1
 90
        3
176
     1
 62
     5
420
      255
176
     1
290
     0
176
     1
 90
       50
176
     1
 90
       50
176
     1
 90
       50
176
     1
290
     0
176
     1
 90
       50
176
     1
 62
   256
176
     0
 40
1.0
176
     0
 90
        2
176
     1
  1
strokes_ogs.tif
176
     1
290
     0
176
     1
 40
1.0
176
     1
 40
1.0
176
     1
  0
VISUALSTYLE
  5
F1
102
{ACAD_REACTORS
330
EF
102
}
330
EF
100
AcDbVisualStyle
  2

 70
     1
177
     3
291
     1
 70
    58
 90
        2
176
     1
 90
        1
176
     1
 90
        1
176
     1
 90
        2
176
     1
 40
0.6
176
     1
 40
30.0
176
     1
 62
     7
420
 16777215
176
     1
 90
        1
176
     1
 90
        4
176
     1
 62
     7
176
     1
 62
   257
176
     1
 90
        1
176
     1
 90
        1
176
     1
 40
1.0
176
     1
 90
        0
176
     1
 62
   257
176
     1
 40
1.0
176
     1
 90
        1
176
     1
 90
        6
176
     1
 90
        2
176
     1
 62
     7
176
     1
 90
        5
176
     1
 90
        0
176
     1
 90
        0
176
     1
290
     0
176
     1
 90
        1
176
     1
 40
0.0
176
     1
 90
        0
176
     1
290
     0
176
     1
290
     1
176
     1
290
     1
176
     1
290
     0
176
     1
290
     0
176
     1
290
     0
176
     1
290
     0
176
     1
290
     0
176
     1
290
     0
176
     1
 90
       50
176
     1
 40
0.0
176
     1
 40
1.0
176
     1
 90
        0
176
     1
 62
    18
420
        0
176
     1
 90
       50
176
     1
 90
        3
176
     1
 62
     5
420
      255
176
     1
290
     0
176
     1
 90
       50
176
     1
 90
       50
176
     1
 90
       50
176
     1
290
     0
176
     1
 90
       50
176
     1
 62
   256
176
     0
 40
1.0
176
     0
 90
        2
176
     1
  1
strokes_ogs.tif
176
     1
290
     0
176
     1
 40
1.0
176
     1
 40
1.0
176
     1
  0
VISUALSTYLE
  5
F2
102
{ACAD_REACTORS
330
EF
102
}
330
EF
100
AcDbVisualStyle
  2

 70
     2
177
     3
291
     1
 70
    58
 90
        2
176
     1
 90
        2
176
     1
 90
        1
176
     1
 90
        2
176
     1
 40
0.6
176
     1
 40
30.0
176
     1
 62
     7
420
 16777215
176
     1
 90
        0
176
     1
 90
        4
176
     1
 62
     7
176
     1
 62
   257
176
     1
 90
        1
176
     1
 90
        1
176
     1
 40
1.0
176
     1
 90
        0
176
     1
 62
     7
176
     1
 40
1.0
176
     1
 90
        1
176
     1
 90
        6
176
     1
 90
        2
176
     1
 62
     7
176
     1
 90
        5
176
     1
 90
        0
176
     1
 90
        0
176
     1
290
     0
176
     1
 90
        1
176
     1
 40
0.0
176
     1
 90
        0
176
     1
290
     0
176
     1
290
     1
176
     1
290
     1
176
     1
290
     0
176
     1
290
     0
176
     1
290
     0
176
     1
290
     0
176
     1
290
     0
176
     1
290
     0
176
     1
 90
       50
176
     1
 40
0.0
176
     1
 40
1.0
176
     1
 90
        0
176
     1
 62
    18
420
        0
176
     1
 90
       50
176
     1
 90
        3
176
     1
 62
     5
420
      255
176
     1
290
     0
176
     1
 90
       50
176
     1
 90
       50
176
     1
 90
       50
176
     1
290
     0
176
     1
 90
       50
176
     1
 62
   256
176
     0
 40
1.0
176
     0
 90
        2
176
     1
  1
strokes_ogs.tif
176
     1
290
     0
176
     1
 40
1.0
176
     1
 40
1.0
176
     1
  0
VISUALSTYLE
  5
F3
102
{ACAD_REACTORS
330
EF
102
}
330
EF
100
AcDbVisualStyle
  2

 70
     3
177
     3
291
     1
 70
    58
 90
        2
176
     1
 90
        2
176
     1
 90
        1
176
     1
 90
        2
176
     1
 40
0.6
176
     1
 40
30.0
176
     1
 62
     7
420
 16777215
176
     1
 90
        1
176
     1
 90
        4
176
     1
 62
     7
176
     1
 62
   257
176
     1
 90
        1
176
     1
 90
        1
176
     1
 40
1.0
176
     1
 90
        0
176
     1
 62
   257
176
     1
 40
1.0
176
     1
 90
        1
176
     1
 90
        6
176
     1
 90
        2
176
     1
 62
     7
176
     1
 90
        5
176
     1
 90
        0
176
     1
 90
        0
176
     1
290
     0
176
     1
 90
        1
176
     1
 40
0.0
176
     1
 90
        0
176
     1
290
     0
176
     1
290
     1
176
     1
290
     1
176
     1
290
     0
176
     1
290
     0
176
     1
290
     0
176
     1
290
     0
176
     1
290
     0
176
     1
290
     0
176
     1
 90
       50
176
     1
 40
0.0
176
     1
 40
1.0
176
     1
 90
        0
176
     1
 62
    18
420
        0
176
     1
 90
       50
176
     1
 90
        3
176
     1
 62
     5
420
      255
176
     1
290
     0
176
     1
 90
       50
176
     1
 90
       50
176
     1
 90
       50
176
     1
290
     0
176
     1
 90
       50
176
     1
 62
   256
176
     0
 40
1.0
176
     0
 90
        2
176
     1
  1
strokes_ogs.tif
176
     1
290
     0
176
     1
 40
1.0
176
     1
 40
1.0
176
     1
  0
VISUALSTYLE
  5
84F
102
{ACAD_REACTORS
330
EF
102
}
330
EF
100
AcDbVisualStyle
  2
Hidden
 70
     6
177
     3
291
     0
 70
    58
 90
        1
176
     1
 90
        2
176
     1
 90
        2
176
     1
 90
        0
176
     1
 40
0.6
176
     1
 40
30.0
176
     1
 62
     7
420
 16777215
176
     1
 90
        2
176
     1
 90
        2
176
     1
 62
     7
176
     1
 62
   257
176
     1
 90
        2
176
     1
 90
        1
176
     1
 40
40.0
176
     1
 90
        0
176
     1
 62
   257
176
     1
 40
1.0
176
     1
 90
        1
176
     1
 90
        6
176
     1
 90
        2
176
     1
 62
     7
176
     1
 90
        3
176
     1
 90
        0
176
     1
 90
        0
176
     1
290
     0
176
     1
 90
        1
176
     1
 40
0.0
176
     1
 90
        0
176
     1
290
     0
176
     1
290
     1
176
     1
290
     1
176
     1
290
     0
176
     1
290
     0
176
     1
290
     0
176
     1
290
     0
176
     1
290
     0
176
     1
290
     0
176
     1
 90
       50
176
     1
 40
0.0
176
     1
 40
1.0
176
     1
 90
        0
176
     1
 62
    18
420
        0
176
     1
 90
       50
176
     1
 90
        3
176
     1
 62
     5
420
      255
176
     1
290
     0
176
     1
 90
       50
176
     1
 90
       50
176
     1
 90
       50
176
     1
290
     0
176
     1
 90
       50
176
     1
 62
   256
176
     0
 40
1.0
176
     0
 90
        2
176
     1
  1
strokes_ogs.tif
176
     1
290
     0
176
     1
 40
1.0
176
     1
 40
1.0
176
     1
  0
VISUALSTYLE
  5
855
102
{ACAD_REACTORS
330
EF
102
}
330
EF
100
AcDbVisualStyle
  2
JitterOff
 70
    20
177
     3
291
     1
 70
    58
 90
        2
176
     0
 90
        2
176
     0
 90
        0
176
     0
 90
        0
176
     0
 40
0.6
176
     0
 40
30.0
176
     0
 62
     7
420
 16777215
176
     0
 90
        1
176
     0
 90
        4
176
     0
 62
     7
176
     0
 62
   257
176
     0
 90
        1
176
     0
 90
        1
176
     0
 40
1.0
176
     0
 90
       10
176
     2
 62
     7
176
     0
 40
1.0
176
     0
 90
        1
176
     0
 90
        6
176
     0
 90
        2
176
     0
 62
     7
176
     0
 90
        5
176
     0
 90
        0
176
     0
 90
        0
176
     0
290
     0
176
     0
 90
        1
176
     0
 40
0.0
176
     0
 90
        0
176
     0
290
     0
176
     1
290
     1
176
     1
290
     1
176
     1
290
     0
176
     1
290
     0
176
     1
290
     0
176
     1
290
     0
176
     1
290
     0
176
     1
290
     0
176
     1
 90
       50
176
     0
 40
0.0
176
     0
 40
1.0
176
     0
 90
        0
176
     0
 62
    18
420
        0
176
     0
 90
       50
176
     0
 90
        3
176
     0
 62
     5
420
      255
176
     0
290
     0
176
     1
 90
       50
176
     0
 90
       50
176
     0
 90
       50
176
     0
290
     0
176
     1
 90
       50
176
     0
 62
   256
176
     0
 40
1.0
176
     0
 90
        2
176
     0
  1
strokes_ogs.tif
176
     0
290
     0
176
     1
 40
1.0
176
     0
 40
1.0
176
     0
  0
VISUALSTYLE
  5
FD
102
{ACAD_REACTORS
330
EF
102
}
330
EF
100
AcDbVisualStyle
  2

 70
    14
177
     3
291
     1
 70
    58
 90
        2
176
     1
 90
        2
176
     1
 90
        1
176
     1
 90
        0
176
     1
 40
0.6
176
     1
 40
30.0
176
     1
 62
     7
420
 16777215
176
     1
 90
        1
176
     1
 90
        4
176
     1
 62
     7
176
     1
 62
   257
176
     1
 90
        7
176
     1
 90
        7
176
     1
 40
1.0
176
     1
 90
        8
176
     1
 62
     7
176
     1
 40
1.0
176
     1
 90
        1
176
     1
 90
        6
176
     1
 90
        2
176
     1
 62
     7
176
     1
 90
        5
176
     1
 90
        0
176
     1
 90
        0
176
     1
290
     0
176
     1
 90
        1
176
     1
 40
0.0
176
     1
 90
        0
176
     1
290
     0
176
     1
290
     1
176
     1
290
     1
176
     1
290
     0
176
     1
290
     0
176
     1
290
     0
176
     1
290
     0
176
     1
290
     0
176
     1
290
     0
176
     1
 90
       50
176
     1
 40
0.0
176
     1
 40
1.0
176
     1
 90
        0
176
     1
 62
    18
420
        0
176
     1
 90
       50
176
     1
 90
        3
176
     1
 62
     5
420
      255
176
     1
290
     0
176
     1
 90
       50
176
     1
 90
       50
176
     1
 90
       50
176
     1
290
     0
176
     1
 90
       50
176
     1
 62
   256
176
     0
 40
1.0
176
     0
 90
        2
176
     1
  1
strokes_ogs.tif
176
     1
290
     0
176
     1
 40
1.0
176
     1
 40
1.0
176
     1
  0
VISUALSTYLE
  5
856
102
{ACAD_REACTORS
330
EF
102
}
330
EF
100
AcDbVisualStyle
  2
OverhangOff
 70
    21
177
     3
291
     1
 70
    58
 90
        2
176
     0
 90
        2
176
     0
 90
        0
176
     0
 90
        0
176
     0
 40
0.6
176
     0
 40
30.0
176
     0
 62
     7
420
 16777215
176
     0
 90
        1
176
     0
 90
        4
176
     0
 62
     7
176
     0
 62
   257
176
     0
 90
        1
176
     0
 90
        1
176
     0
 40
1.0
176
     0
 90
        9
176
     2
 62
     7
176
     0
 40
1.0
176
     0
 90
        1
176
     0
 90
        6
176
     0
 90
        2
176
     0
 62
     7
176
     0
 90
        5
176
     0
 90
        0
176
     0
 90
        0
176
     0
290
     0
176
     0
 90
        1
176
     0
 40
0.0
176
     0
 90
        0
176
     0
290
     0
176
     1
290
     1
176
     1
290
     1
176
     1
290
     0
176
     1
290
     0
176
     1
290
     0
176
     1
290
     0
176
     1
290
     0
176
     1
290
     0
176
     1
 90
       50
176
     0
 40
0.0
176
     0
 40
1.0
176
     0
 90
        0
176
     0
 62
    18
420
        0
176
     0
 90
       50
176
     0
 90
        3
176
     0
 62
     5
420
      255
176
     0
290
     0
176
     1
 90
       50
176
     0
 90
       50
176
     0
 90
       50
176
     0
290
     0
176
     1
 90
       50
176
     0
 62
   256
176
     0
 40
1.0
176
     0
 90
        2
176
     0
  1
strokes_ogs.tif
176
     0
290
     0
176
     1
 40
1.0
176
     0
 40
1.0
176
     0
  0
VISUALSTYLE
  5
F9
102
{ACAD_REACTORS
330
EF
102
}
330
EF
100
AcDbVisualStyle
  2

 70
     8
177
     3
291
     0
 70
    58
 90
        2
176
     1
 90
        2
176
     1
 90
        1
176
     1
 90
        0
176
     1
 40
0.6
176
     1
 40
30.0
176
     1
 62
     7
420
 16777215
176
     1
 90
        1
176
     1
 90
        0
176
     1
 62
     7
176
     1
 62
   257
176
     1
 90
        1
176
     1
 90
        1
176
     1
 40
1.0
176
     1
 90
        8
176
     1
 62
     8
420
  7895160
176
     1
 40
1.0
176
     1
 90
        1
176
     1
 90
        6
176
     1
 90
        2
176
     1
 62
     7
176
     1
 90
        5
176
     1
 90
        0
176
     1
 90
        0
176
     1
290
     0
176
     1
 90
       13
176
     1
 40
0.0
176
     1
 90
        0
176
     1
290
     0
176
     1
290
     1
176
     1
290
     1
176
     1
290
     0
176
     1
290
     0
176
     1
290
     0
176
     1
290
     0
176
     1
290
     0
176
     1
290
     0
176
     1
 90
       50
176
     1
 40
0.0
176
     1
 40
1.0
176
     1
 90
        0
176
     1
 62
    18
420
        0
176
     1
 90
       50
176
     1
 90
        3
176
     1
 62
     5
420
      255
176
     1
290
     0
176
     1
 90
       50
176
     1
 90
       50
176
     1
 90
       50
176
     1
290
     0
176
     1
 90
       50
176
     1
 62
   256
176
     0
 40
1.0
176
     0
 90
        2
176
     1
  1
strokes_ogs.tif
176
     1
290
     0
176
     1
 40
1.0
176
     1
 40
1.0
176
     1
  0
VISUALSTYLE
  5
854
102
{ACAD_REACTORS
330
EF
102
}
330
EF
100
AcDbVisualStyle
  2
Shaded
 70
    27
177
     3
291
     0
 70
    58
 90
        2
176
     1
 90
        2
176
     1
 90
        1
176
     1
 90
        2
176
     1
 40
0.6
176
     1
 40
30.0
176
     1
 62
     7
420
 16777215
176
     1
 90
        0
176
     1
 90
        4
176
     1
 62
     7
176
     1
 62
   257
176
     1
 90
        1
176
     1
 90
        1
176
     1
 40
1.0
176
     1
 90
        8
176
     1
 62
   257
176
     1
 40
1.0
176
     1
 90
        1
176
     1
 90
        6
176
     1
 90
        2
176
     1
 62
     8
420
  7895160
176
     1
 90
        3
176
     1
 90
        0
176
     1
 90
        0
176
     1
290
     0
176
     1
 90
        5
176
     1
 40
0.0
176
     1
 90
        0
176
     1
290
     0
176
     1
290
     1
176
     1
290
     1
176
     1
290
     0
176
     1
290
     0
176
     1
290
     0
176
     1
290
     0
176
     1
290
     0
176
     1
290
     0
176
     1
 90
       50
176
     1
 40
0.0
176
     1
 40
1.0
176
     1
 90
        0
176
     1
 62
    18
420
        0
176
     1
 90
       50
176
     1
 90
        3
176
     1
 62
     5
420
      255
176
     1
290
     0
176
     1
 90
       50
176
     1
 90
       50
176
     1
 90
       50
176
     1
290
     0
176
     1
 90
       50
176
     1
 62
   256
176
     0
 40
1.0
176
     0
 90
        2
176
     1
  1
strokes_ogs.tif
176
     1
290
     0
176
     1
 40
1.0
176
     1
 40
1.0
176
     1
  0
VISUALSTYLE
  5
853
102
{ACAD_REACTORS
330
EF
102
}
330
EF
100
AcDbVisualStyle
  2
Shaded with edges
 70
    26
177
     3
291
     0
 70
    58
 90
        2
176
     1
 90
        2
176
     1
 90
        1
176
     1
 90
        2
176
     1
 40
0.6
176
     1
 40
30.0
176
     1
 62
     7
420
 16777215
176
     1
 90
        1
176
     1
 90
        2
176
     1
 62
     7
176
     1
 62
   257
176
     1
 90
        2
176
     1
 90
        1
176
     1
 40
1.0
176
     1
 90
        8
176
     1
 62
   257
176
     1
 40
1.0
176
     1
 90
        1
176
     1
 90
        6
176
     1
 90
        2
176
     1
 62
     7
176
     1
 90
        3
176
     1
 90
        0
176
     1
 90
        0
176
     1
290
     0
176
     1
 90
        5
176
     1
 40
0.0
176
     1
 90
        0
176
     1
290
     0
176
     1
290
     1
176
     1
290
     1
176
     1
290
     0
176
     1
290
     0
176
     1
290
     0
176
     1
290
     0
176
     1
290
     0
176
     1
290
     0
176
     1
 90
       50
176
     1
 40
0.0
176
     1
 40
1.0
176
     1
 90
        0
176
     1
 62
    18
420
        0
176
     1
 90
       50
176
     1
 90
        3
176
     1
 62
     5
420
      255
176
     1
290
     0
176
     1
 90
       50
176
     1
 90
       50
176
     1
 90
       50
176
     1
290
     0
176
     1
 90
       50
176
     1
 62
   256
176
     0
 40
1.0
176
     0
 90
        2
176
     1
  1
strokes_ogs.tif
176
     1
290
     0
176
     1
 40
1.0
176
     1
 40
1.0
176
     1
  0
VISUALSTYLE
  5
850
102
{ACAD_REACTORS
330
EF
102
}
330
EF
100
AcDbVisualStyle
  2
Shades of Gray
 70
    23
177
     3
291
     0
 70
    58
 90
        2
176
     1
 90
        2
176
     1
 90
        3
176
     1
 90
        0
176
     1
 40
0.6
176
     1
 40
30.0
176
     1
 62
     7
420
 16777215
176
     1
 90
        2
176
     1
 90
        2
176
     1
 62
     7
176
     1
 62
     7
176
     1
 90
        1
176
     1
 90
        1
176
     1
 40
40.0
176
     1
 90
        8
176
     1
 62
     7
176
     1
 40
1.0
176
     1
 90
        1
176
     1
 90
        6
176
     1
 90
        2
176
     1
 62
     7
176
     1
 90
        3
176
     1
 90
        0
176
     1
 90
        0
176
     1
290
     0
176
     1
 90
        1
176
     1
 40
0.0
176
     1
 90
        0
176
     1
290
     0
176
     1
290
     1
176
     1
290
     1
176
     1
290
     0
176
     1
290
     0
176
     1
290
     0
176
     1
290
     0
176
     1
290
     0
176
     1
290
     0
176
     1
 90
       50
176
     1
 40
0.0
176
     1
 40
1.0
176
     1
 90
        0
176
     1
 62
    18
420
        0
176
     1
 90
       50
176
     1
 90
        3
176
     1
 62
     5
420
      255
176
     1
290
     0
176
     1
 90
       50
176
     1
 90
       50
176
     1
 90
       50
176
     1
290
     0
176
     1
 90
       50
176
     1
 62
   256
176
     0
 40
1.0
176
     0
 90
        2
176
     1
  1
strokes_ogs.tif
176
     1
290
     0
176
     1
 40
1.0
176
     1
 40
1.0
176
     1
  0
VISUALSTYLE
  5
851
102
{ACAD_REACTORS
330
EF
102
}
330
EF
100
AcDbVisualStyle
  2
Sketchy
 70
    24
177
     3
291
     0
 70
    58
 90
        1
176
     1
 90
        2
176
     1
 90
        2
176
     1
 90
        0
176
     1
 40
0.6
176
     1
 40
30.0
176
     1
 62
     7
420
 16777215
176
     1
 90
        2
176
     1
 90
        2
176
     1
 62
     7
176
     1
 62
     7
176
     1
 90
        1
176
     1
 90
        1
176
     1
 40
40.0
176
     1
 90
       11
176
     1
 62
     7
176
     1
 40
1.0
176
     1
 90
        1
176
     1
 90
        6
176
     1
 90
        2
176
     1
 62
     7
176
     1
 90
        6
176
     1
 90
        0
176
     1
 90
        0
176
     1
290
     0
176
     1
 90
        1
176
     1
 40
0.0
176
     1
 90
        0
176
     1
290
     0
176
     1
290
     1
176
     1
290
     1
176
     1
290
     0
176
     1
290
     0
176
     1
290
     0
176
     1
290
     0
176
     1
290
     0
176
     1
290
     0
176
     1
 90
       50
176
     1
 40
0.0
176
     1
 40
1.0
176
     1
 90
        0
176
     1
 62
    18
420
        0
176
     1
 90
       50
176
     1
 90
        3
176
     1
 62
     5
420
      255
176
     1
290
     0
176
     1
 90
       50
176
     1
 90
       50
176
     1
 90
       50
176
     1
290
     0
176
     1
 90
       50
176
     1
 62
   256
176
     0
 40
1.0
176
     0
 90
        2
176
     1
  1
strokes_ogs.tif
176
     1
290
     0
176
     1
 40
1.0
176
     1
 40
1.0
176
     1
  0
VISUALSTYLE
  5
FC
102
{ACAD_REACTORS
330
EF
102
}
330
EF
100
AcDbVisualStyle
  2

 70
    13
177
     3
291
     1
 70
    58
 90
        2
176
     1
 90
        2
176
     1
 90
        1
176
     1
 90
        0
176
     1
 40
0.6
176
     1
 40
30.0
176
     1
 62
     7
420
 16777215
176
     1
 90
        1
176
     1
 90
        4
176
     1
 62
     7
176
     1
 62
   257
176
     1
 90
        1
176
     1
 90
        1
176
     1
 40
1.0
176
     1
 90
       12
176
     1
 62
     7
176
     1
 40
1.0
176
     1
 90
        1
176
     1
 90
        6
176
     1
 90
        2
176
     1
 62
     7
176
     1
 90
        5
176
     1
 90
        0
176
     1
 90
        0
176
     1
290
     0
176
     1
 90
        1
176
     1
 40
0.0
176
     1
 90
        0
176
     1
290
     0
176
     1
290
     1
176
     1
290
     1
176
     1
290
     0
176
     1
290
     0
176
     1
290
     0
176
     1
290
     0
176
     1
290
     0
176
     1
290
     0
176
     1
 90
       50
176
     1
 40
0.0
176
     1
 40
1.0
176
     1
 90
        0
176
     1
 62
    18
420
        0
176
     1
 90
       50
176
     1
 90
        3
176
     1
 62
     5
420
      255
176
     1
290
     0
176
     1
 90
       50
176
     1
 90
       50
176
     1
 90
       50
176
     1
290
     0
176
     1
 90
       50
176
     1
 62
   256
176
     0
 40
1.0
176
     0
 90
        2
176
     1
  1
strokes_ogs.tif
176
     1
290
     0
176
     1
 40
1.0
176
     1
 40
1.0
176
     1
  0
VISUALSTYLE
  5
84E
102
{ACAD_REACTORS
330
EF
102
}
330
EF
100
AcDbVisualStyle
  2
Wireframe
 70
     5
177
     3
291
     0
 70
    58
 90
        0
176
     1
 90
        2
176
     1
 90
        0
176
     1
 90
        0
176
     1
 40
0.6
176
     1
 40
30.0
176
     1
 62
     7
420
 16777215
176
     1
 90
        1
176
     1
 90
        4
176
     1
 62
     7
176
     1
 62
   257
176
     1
 90
        1
176
     1
 90
        1
176
     1
 40
1.0
176
     1
 90
        0
176
     1
 62
   257
176
     1
 40
1.0
176
     1
 90
        1
176
     1
 90
        6
176
     1
 90
        2
176
     1
 62
     7
176
     1
 90
        3
176
     1
 90
        0
176
     1
 90
        0
176
     1
290
     0
176
     1
 90
        1
176
     1
 40
0.0
176
     1
 90
        0
176
     1
290
     0
176
     1
290
     1
176
     1
290
     1
176
     1
290
     0
176
     1
290
     0
176
     1
290
     0
176
     1
290
     0
176
     1
290
     0
176
     1
290
     0
176
     1
 90
       50
176
     1
 40
0.0
176
     1
 40
1.0
176
     1
 90
        0
176
     1
 62
    18
420
        0
176
     1
 90
       50
176
     1
 90
        3
176
     1
 62
     5
420
      255
176
     1
290
     0
176
     1
 90
       50
176
     1
 90
       50
176
     1
 90
       50
176
     1
290
     0
176
     1
 90
       50
176
     1
 62
   256
176
     0
 40
1.0
176
     0
 90
        2
176
     1
  1
strokes_ogs.tif
176
     1
290
     0
176
     1
 40
1.0
176
     1
 40
1.0
176
     1
  0
VISUALSTYLE
  5
852
102
{ACAD_REACTORS
330
EF
102
}
330
EF
100
AcDbVisualStyle
  2
X-Ray
 70
    25
177
     3
291
     0
 70
    58
 90
        2
176
     1
 90
        2
176
     1
 90
        1
176
     1
 90
        1
176
     1
 40
0.5
176
     1
 40
30.0
176
     1
 62
     7
420
 16777215
176
     1
 90
        1
176
     1
 90
        0
176
     1
 62
     7
176
     1
 62
   257
176
     1
 90
        1
176
     1
 90
        1
176
     1
 40
1.0
176
     1
 90
        8
176
     1
 62
     7
176
     1
 40
1.0
176
     1
 90
        1
176
     1
 90
        6
176
     1
 90
        2
176
     1
 62
     7
176
     1
 90
        3
176
     1
 90
        0
176
     1
 90
        0
176
     1
290
     0
176
     1
 90
       13
176
     1
 40
0.0
176
     1
 90
        0
176
     1
290
     0
176
     1
290
     1
176
     1
290
     1
176
     1
290
     0
176
     1
290
     0
176
     1
290
     0
176
     1
290
     0
176
     1
290
     0
176
     1
290
     0
176
     1
 90
       50
176
     1
 40
0.0
176
     1
 40
1.0
176
     1
 90
        0
176
     1
 62
    18
420
        0
176
     1
 90
       50
176
     1
 90
        3
176
     1
 62
     5
420
      255
176
     1
290
     0
176
     1
 90
       50
176
     1
 90
       50
176
     1
 90
       50
176
     1
290
     0
176
     1
 90
       50
176
     1
 62
   256
176
     0
 40
1.0
176
     0
 90
        2
176
     1
  1
strokes_ogs.tif
176
     1
290
     0
176
     1
 40
1.0
176
     1
 40
1.0
176
     1
  0
DICTIONARYVAR
  5
146
102
{ACAD_REACTORS
330
5E
102
}
330
5E
100
DictionaryVariables
280
     0
  1
1:1
  0
DICTIONARYVAR
  5
145
102
{ACAD_REACTORS
330
5E
102
}
330
5E
100
DictionaryVariables
280
     0
  1
STANDARD
  0
DICTIONARYVAR
  5
84
102
{ACAD_REACTORS
330
5E
102
}
330
5E
100
DictionaryVariables
280
     0
  1
STANDARD
  0
DICTIONARYVAR
  5
860
102
{ACAD_REACTORS
330
5E
102
}
330
5E
100
DictionaryVariables
280
     0
  1
Metric50
  0
DICTIONARYVAR
  5
861
102
{ACAD_REACTORS
330
5E
102
}
330
5E
100
DictionaryVariables
280
     0
  1
Metric50
  0
DICTIONARYVAR
  5
5F
102
{ACAD_REACTORS
330
5E
102
}
330
5E
100
DictionaryVariables
280
     0
  1
2
  0
DICTIONARYVAR
  5
63
102
{ACAD_REACTORS
330
5E
102
}
330
5E
100
DictionaryVariables
280
     0
  1
1
  0
DICTIONARYVAR
  5
1AE
102
{ACAD_REACTORS
330
5E
102
}
330
5E
100
DictionaryVariables
280
     0
  1
0
  0
DICTIONARYVAR
  5
1AF
102
{ACAD_REACTORS
330
5E
102
}
330
5E
100
DictionaryVariables
280
     0
  1
0
  0
DICTIONARY
  5
173
330
EE
100
AcDbDictionary
280
     1
281
     1
  3
BUMPTILE
360
175
  3
DIFFUSETILE
360
174
  3
OPACITYTILE
360
176
  3
REFLECTIONTILE
360
177
  0
DICTIONARY
  5
162
330
7F
100
AcDbDictionary
280
     1
281
     1
  3
ACAD_ROUNDTRIP_2008_TABLESTYLE_CELLSTYLEMAP
360
B82
  0
XRECORD
  5
175
102
{ACAD_REACTORS
330
173
102
}
330
173
100
AcDbXrecord
280
     1
270
     1
271
     1
  0
XRECORD
  5
174
102
{ACAD_REACTORS
330
173
102
}
330
173
100
AcDbXrecord
280
     1
270
     1
271
     1
  0
XRECORD
  5
176
102
{ACAD_REACTORS
330
173
102
}
330
173
100
AcDbXrecord
280
     1
270
     1
271
     1
  0
XRECORD
  5
177
102
{ACAD_REACTORS
330
173
102
}
330
173
100
AcDbXrecord
280
     1
270
     1
271
     1
  0
CELLSTYLEMAP
  5
B82
102
{ACAD_REACTORS
330
162
102
}
330
162
100
AcDbCellStyleMap
 90
        3
300
CELLSTYLE
  1
TABLEFORMAT_BEGIN
 90
        5
170
     1
 91
        0
 92
    32768
 62
   257
 93
        1
300
CONTENTFORMAT
  1
CONTENTFORMAT_BEGIN
 90
        0
 91
        0
 92
      512
 93
        0
300

 40
0.0
140
1.0
 94
        5
 62
     0
340
11
144
6.0
309
CONTENTFORMAT_END
171
     1
301
MARGIN
  1
CELLMARGIN_BEGIN
 40
1.5
 40
1.5
 40
1.5
 40
1.5
 40
0.18
 40
0.18
309
CELLMARGIN_END
 94
        6
 95
        1
302
GRIDFORMAT
  1
GRIDFORMAT_BEGIN
 90
        0
 91
        1
 62
     0
 92
       -2
340
14
 93
        0
 40
1.125
309
GRIDFORMAT_END
 95
        2
302
GRIDFORMAT
  1
GRIDFORMAT_BEGIN
 90
        0
 91
        1
 62
     0
 92
       -2
340
14
 93
        0
 40
1.125
309
GRIDFORMAT_END
 95
        4
302
GRIDFORMAT
  1
GRIDFORMAT_BEGIN
 90
        0
 91
        1
 62
     0
 92
       -2
340
14
 93
        0
 40
1.125
309
GRIDFORMAT_END
 95
        8
302
GRIDFORMAT
  1
GRIDFORMAT_BEGIN
 90
        0
 91
        1
 62
     0
 92
       -2
340
14
 93
        0
 40
1.125
309
GRIDFORMAT_END
 95
       16
302
GRIDFORMAT
  1
GRIDFORMAT_BEGIN
 90
        0
 91
        1
 62
     0
 92
       -2
340
14
 93
        0
 40
1.125
309
GRIDFORMAT_END
 95
       32
302
GRIDFORMAT
  1
GRIDFORMAT_BEGIN
 90
        0
 91
        1
 62
     0
 92
       -2
340
14
 93
        0
 40
1.125
309
GRIDFORMAT_END
309
TABLEFORMAT_END
  1
CELLSTYLE_BEGIN
 90
        1
 91
        1
300
_TITLE
309
CELLSTYLE_END
300
CELLSTYLE
  1
TABLEFORMAT_BEGIN
 90
        5
170
     1
 91
        0
 92
        0
 62
   257
 93
        1
300
CONTENTFORMAT
  1
CONTENTFORMAT_BEGIN
 90
        0
 91
        0
 92
      512
 93
        0
300

 40
0.0
140
1.0
 94
        5
 62
     0
340
11
144
4.5
309
CONTENTFORMAT_END
171
     1
301
MARGIN
  1
CELLMARGIN_BEGIN
 40
1.5
 40
1.5
 40
1.5
 40
1.5
 40
0.18
 40
0.18
309
CELLMARGIN_END
 94
        6
 95
        1
302
GRIDFORMAT
  1
GRIDFORMAT_BEGIN
 90
        0
 91
        1
 62
     0
 92
       -2
340
14
 93
        0
 40
1.125
309
GRIDFORMAT_END
 95
        2
302
GRIDFORMAT
  1
GRIDFORMAT_BEGIN
 90
        0
 91
        1
 62
     0
 92
       -2
340
14
 93
        0
 40
1.125
309
GRIDFORMAT_END
 95
        4
302
GRIDFORMAT
  1
GRIDFORMAT_BEGIN
 90
        0
 91
        1
 62
     0
 92
       -2
340
14
 93
        0
 40
1.125
309
GRIDFORMAT_END
 95
        8
302
GRIDFORMAT
  1
GRIDFORMAT_BEGIN
 90
        0
 91
        1
 62
     0
 92
       -2
340
14
 93
        0
 40
1.125
309
GRIDFORMAT_END
 95
       16
302
GRIDFORMAT
  1
GRIDFORMAT_BEGIN
 90
        0
 91
        1
 62
     0
 92
       -2
340
14
 93
        0
 40
1.125
309
GRIDFORMAT_END
 95
       32
302
GRIDFORMAT
  1
GRIDFORMAT_BEGIN
 90
        0
 91
        1
 62
     0
 92
       -2
340
14
 93
        0
 40
1.125
309
GRIDFORMAT_END
309
TABLEFORMAT_END
  1
CELLSTYLE_BEGIN
 90
        2
 91
        1
300
_HEADER
309
CELLSTYLE_END
300
CELLSTYLE
  1
TABLEFORMAT_BEGIN
 90
        5
170
     1
 91
        0
 92
        0
 62
   257
 93
        1
300
CONTENTFORMAT
  1
CONTENTFORMAT_BEGIN
 90
        0
 91
        0
 92
      512
 93
        0
300

 40
0.0
140
1.0
 94
        2
 62
     0
340
11
144
4.5
309
CONTENTFORMAT_END
171
     1
301
MARGIN
  1
CELLMARGIN_BEGIN
 40
1.5
 40
1.5
 40
1.5
 40
1.5
 40
0.18
 40
0.18
309
CELLMARGIN_END
 94
        6
 95
        1
302
GRIDFORMAT
  1
GRIDFORMAT_BEGIN
 90
        0
 91
        1
 62
     0
 92
       -2
340
14
 93
        0
 40
1.125
309
GRIDFORMAT_END
 95
        2
302
GRIDFORMAT
  1
GRIDFORMAT_BEGIN
 90
        0
 91
        1
 62
     0
 92
       -2
340
14
 93
        0
 40
1.125
309
GRIDFORMAT_END
 95
        4
302
GRIDFORMAT
  1
GRIDFORMAT_BEGIN
 90
        0
 91
        1
 62
     0
 92
       -2
340
14
 93
        0
 40
1.125
309
GRIDFORMAT_END
 95
        8
302
GRIDFORMAT
  1
GRIDFORMAT_BEGIN
 90
        0
 91
        1
 62
     0
 92
       -2
340
14
 93
        0
 40
1.125
309
GRIDFORMAT_END
 95
       16
302
GRIDFORMAT
  1
GRIDFORMAT_BEGIN
 90
        0
 91
        1
 62
     0
 92
       -2
340
14
 93
        0
 40
1.125
309
GRIDFORMAT_END
 95
       32
302
GRIDFORMAT
  1
GRIDFORMAT_BEGIN
 90
        0
 91
        1
 62
     0
 92
       -2
340
14
 93
        0
 40
1.125
309
GRIDFORMAT_END
309
TABLEFORMAT_END
  1
CELLSTYLE_BEGIN
 90
        3
 91
        2
300
_DATA
309
CELLSTYLE_END
  0
ENDSEC
  0
SECTION
  2
ACDSDATA
 70
     2
 71
     8
  0
ACDSSCHEMA
 90
        0
  1
AcDb_Thumbnail_Schema
  2
AcDbDs::ID
280
    10
 91
        8
  2
Thumbnail_Data
280
    15
 91
        0
101
ACDSRECORD
 95
        0
 90
        1
  2
AcDbDs::TreatedAsObjectData
280
     1
291
     1
101
ACDSRECORD
 95
        0
 90
        2
  2
AcDbDs::Legacy
280
     1
291
     1
101
ACDSRECORD
  1
AcDbDs::ID
 90
        3
  2
AcDs:Indexable
280
     1
291
     1
101
ACDSRECORD
  1
AcDbDs::ID
 90
        4
  2
AcDbDs::HandleAttribute
280
     7
282
     1
  0
ACDSSCHEMA
 90
        1
  1
AcDbDs::TreatedAsObjectDataSchema
  2
AcDbDs::TreatedAsObjectData
280
     1
 91
        0
  0
ACDSSCHEMA
 90
        2
  1
AcDbDs::LegacySchema
  2
AcDbDs::Legacy
280
     1
 91
        0
  0
ACDSSCHEMA
 90
        3
  1
AcDbDs::IndexedPropertySchema
  2
AcDs:Indexable
280
     1
 91
        0
  0
ACDSSCHEMA
 90
        4
  1
AcDbDs::HandleAttributeSchema
  2
AcDbDs::HandleAttribute
280
     7
 91
        1
284
     1
  0
ACDSRECORD
 90
        0
  2
AcDbDs::ID
280
    10
320
22
  2
Thumbnail_Data
280
    15
 94
     1395
310
89504E470D0A1A0A0000000D49484452000001000000007E0803000000FCF33F5100000300504C5445212830FFFFFF2128300000000000000000000000000000000000000000000000000000330000660000990000CC0000FF0033000033330033660033990033CC0033FF0066000066330066660066990066CC0066FF0099
310
000099330099660099990099CC0099FF00CC0000CC3300CC6600CC9900CCCC00CCFF00FF0000FF3300FF6600FF9900FFCC00FFFF3300003300333300663300993300CC3300FF3333003333333333663333993333CC3333FF3366003366333366663366993366CC3366FF3399003399333399663399993399CC3399FF33CC00
310
33CC3333CC6633CC9933CCCC33CCFF33FF0033FF3333FF6633FF9933FFCC33FFFF6600006600336600666600996600CC6600FF6633006633336633666633996633CC6633FF6666006666336666666666996666CC6666FF6699006699336699666699996699CC6699FF66CC0066CC3366CC6666CC9966CCCC66CCFF66FF0066
310
FF3366FF6666FF9966FFCC66FFFF9900009900339900669900999900CC9900FF9933009933339933669933999933CC9933FF9966009966339966669966999966CC9966FF9999009999339999669999999999CC9999FF99CC0099CC3399CC6699CC9999CCCC99CCFF99FF0099FF3399FF6699FF9999FFCC99FFFFCC0000CC00
310
33CC0066CC0099CC00CCCC00FFCC3300CC3333CC3366CC3399CC33CCCC33FFCC6600CC6633CC6666CC6699CC66CCCC66FFCC9900CC9933CC9966CC9999CC99CCCC99FFCCCC00CCCC33CCCC66CCCC99CCCCCCCCCCFFCCFF00CCFF33CCFF66CCFF99CCFFCCCCFFFFFF0000FF0033FF0066FF0099FF00CCFF00FFFF3300FF3333
310
FF3366FF3399FF33CCFF33FFFF6600FF6633FF6666FF6699FF66CCFF66FFFF9900FF9933FF9966FF9999FF99CCFF99FFFFCC00FFCC33FFCC66FFCC99FFCCCCFFCCFFFFFF00FFFF33FFFF66FFFF99FFFFCCFFFFFF0000000D0D0D1A1A1A2828283535354343435050505D5D5D6B6B6B787878868686939393A1A1A1AEAEAEBB
310
BBBBC9C9C9D6D6D6E4E4E4F1F1F1FFFFFF0000000000000000000000000000000000000000000000000000000000002E4550F1000001494944415478DAEDDB316EC3300C0550DDFFBEDC03347020C9749018E942BE37B96C3AE85B95281B19030000E0F7E2E9C372D9A14FD717E58A01E495F8E083650388EB72D100627294
310
469729B08D56003D0358FE051AAE017681D6019CBD290340F56D30AECBEB5F9418FE489E79EC835D5BA1A8D41A6D77F5D4F6F708206903F372D900CE89E46533A0620091EE0B795900021080000450B313CC1BE4FCC302287518BA1140ADC3F08D354000021080000420803201B4EF03042080A9BF3F05903D16AF15C08D17
310
23E522F8F6D5180035B782D1E33B22F936785CCE5B608F0092DEF7F8AA4C97199007D066060820BEFC85192000BB80008A3F0F888EFDE0D50FE034D865ECA3E72218CBBAF71A7AFE7EB0722738DFEFBFC1776A85F729FFBCFBBD4F83BD02C86640743B0D6E6B40B3D3E036DD3B1E865E97CB66A81304000000000000000000
310
FEDF032F212F926F9DD28F0000000049454E44AE42608200000038F3DB5D06443EAC803AF987F50644DEBF2437181304E016008F5775CF05170A103C4DA66BBD40E7861B0200807B03D49821028011A0C42C312B40857982B901E2A7CCF701F4F75254A1FDA701A2DA10D60B7002A45F2F901820AE1B6805C8BE66C80F907C
310
D55800807DA96D7A8088A5A6B9012E58139F0C207C45783E80A6BCED8F0130ED205108C0B387482900C72E32C500D6EF23540FA01DF7724E30233A14E07954A15D9E6B001205000000000080F9FAAED95879C57C224D7F03C6C723E7DE5A5B2DF43B460000604F802F021459CFDA3F5BAB0000000049454E44AE426082
  0
ENDSEC
  0
EOF
