G04 #@! TF.FileFunction,Copper,L1,Top,Signal*
%FSLAX46Y46*%
G04 Gerber Fmt 4.6, Leading zero omitted, Abs format (unit mm)*
G04 Created by KiCad (PCBNEW 4.0.5+dfsg1-4) date Thu Apr  6 17:37:01 2017*
%MOMM*%
%LPD*%
G01*
G04 APERTURE LIST*
%ADD10C,0.100000*%
%ADD11R,1.350000X0.400000*%
%ADD12O,1.250000X1.250000*%
%ADD13O,1.550000X1.800000*%
%ADD14R,1.000000X1.600000*%
%ADD15R,1.600000X0.800000*%
%ADD16R,3.000000X2.100000*%
%ADD17R,2.032000X3.657600*%
%ADD18R,2.032000X1.016000*%
%ADD19C,1.397000*%
%ADD20R,1.397000X1.397000*%
%ADD21R,0.750000X0.800000*%
%ADD22R,1.950000X1.500000*%
%ADD23R,0.800000X0.750000*%
%ADD24R,1.500000X1.950000*%
%ADD25R,0.797560X0.797560*%
%ADD26R,0.500000X0.900000*%
%ADD27R,0.900000X0.500000*%
%ADD28R,1.400000X1.200000*%
%ADD29C,0.600000*%
%ADD30C,0.250000*%
%ADD31C,0.254000*%
G04 APERTURE END LIST*
D10*
D11*
X54162540Y-55599100D03*
X54162540Y-56249100D03*
X54162540Y-56899100D03*
X54162540Y-57549100D03*
X54162540Y-58199100D03*
D12*
X54162540Y-54399100D03*
X54162540Y-59399100D03*
D13*
X51462540Y-53399100D03*
X51462540Y-60399100D03*
D14*
X69600000Y-58000000D03*
X66400000Y-58000000D03*
X69600000Y-63000000D03*
X66400000Y-63000000D03*
D15*
X92900000Y-56125000D03*
X92900000Y-57375000D03*
X92900000Y-58625000D03*
X92900000Y-59875000D03*
X92900000Y-61125000D03*
X92900000Y-62375000D03*
X92900000Y-63625000D03*
X92900000Y-64875000D03*
D16*
X90000000Y-53575000D03*
X90000000Y-67425000D03*
D10*
G36*
X77673134Y-53305188D02*
X78062042Y-52916280D01*
X79122702Y-53976940D01*
X78733794Y-54365848D01*
X77673134Y-53305188D01*
X77673134Y-53305188D01*
G37*
G36*
X77107449Y-53870874D02*
X77496357Y-53481966D01*
X78557017Y-54542626D01*
X78168109Y-54931534D01*
X77107449Y-53870874D01*
X77107449Y-53870874D01*
G37*
G36*
X76541764Y-54436559D02*
X76930672Y-54047651D01*
X77991332Y-55108311D01*
X77602424Y-55497219D01*
X76541764Y-54436559D01*
X76541764Y-54436559D01*
G37*
G36*
X75976078Y-55002244D02*
X76364986Y-54613336D01*
X77425646Y-55673996D01*
X77036738Y-56062904D01*
X75976078Y-55002244D01*
X75976078Y-55002244D01*
G37*
G36*
X75410393Y-55567930D02*
X75799301Y-55179022D01*
X76859961Y-56239682D01*
X76471053Y-56628590D01*
X75410393Y-55567930D01*
X75410393Y-55567930D01*
G37*
G36*
X74844707Y-56133615D02*
X75233615Y-55744707D01*
X76294275Y-56805367D01*
X75905367Y-57194275D01*
X74844707Y-56133615D01*
X74844707Y-56133615D01*
G37*
G36*
X74279022Y-56699301D02*
X74667930Y-56310393D01*
X75728590Y-57371053D01*
X75339682Y-57759961D01*
X74279022Y-56699301D01*
X74279022Y-56699301D01*
G37*
G36*
X73713336Y-57264986D02*
X74102244Y-56876078D01*
X75162904Y-57936738D01*
X74773996Y-58325646D01*
X73713336Y-57264986D01*
X73713336Y-57264986D01*
G37*
G36*
X73147651Y-57830672D02*
X73536559Y-57441764D01*
X74597219Y-58502424D01*
X74208311Y-58891332D01*
X73147651Y-57830672D01*
X73147651Y-57830672D01*
G37*
G36*
X72581966Y-58396357D02*
X72970874Y-58007449D01*
X74031534Y-59068109D01*
X73642626Y-59457017D01*
X72581966Y-58396357D01*
X72581966Y-58396357D01*
G37*
G36*
X72016280Y-58962042D02*
X72405188Y-58573134D01*
X73465848Y-59633794D01*
X73076940Y-60022702D01*
X72016280Y-58962042D01*
X72016280Y-58962042D01*
G37*
G36*
X72405188Y-62426866D02*
X72016280Y-62037958D01*
X73076940Y-60977298D01*
X73465848Y-61366206D01*
X72405188Y-62426866D01*
X72405188Y-62426866D01*
G37*
G36*
X72970874Y-62992551D02*
X72581966Y-62603643D01*
X73642626Y-61542983D01*
X74031534Y-61931891D01*
X72970874Y-62992551D01*
X72970874Y-62992551D01*
G37*
G36*
X73536559Y-63558236D02*
X73147651Y-63169328D01*
X74208311Y-62108668D01*
X74597219Y-62497576D01*
X73536559Y-63558236D01*
X73536559Y-63558236D01*
G37*
G36*
X74102244Y-64123922D02*
X73713336Y-63735014D01*
X74773996Y-62674354D01*
X75162904Y-63063262D01*
X74102244Y-64123922D01*
X74102244Y-64123922D01*
G37*
G36*
X74667930Y-64689607D02*
X74279022Y-64300699D01*
X75339682Y-63240039D01*
X75728590Y-63628947D01*
X74667930Y-64689607D01*
X74667930Y-64689607D01*
G37*
G36*
X75233615Y-65255293D02*
X74844707Y-64866385D01*
X75905367Y-63805725D01*
X76294275Y-64194633D01*
X75233615Y-65255293D01*
X75233615Y-65255293D01*
G37*
G36*
X75799301Y-65820978D02*
X75410393Y-65432070D01*
X76471053Y-64371410D01*
X76859961Y-64760318D01*
X75799301Y-65820978D01*
X75799301Y-65820978D01*
G37*
G36*
X76364986Y-66386664D02*
X75976078Y-65997756D01*
X77036738Y-64937096D01*
X77425646Y-65326004D01*
X76364986Y-66386664D01*
X76364986Y-66386664D01*
G37*
G36*
X76930672Y-66952349D02*
X76541764Y-66563441D01*
X77602424Y-65502781D01*
X77991332Y-65891689D01*
X76930672Y-66952349D01*
X76930672Y-66952349D01*
G37*
G36*
X77496357Y-67518034D02*
X77107449Y-67129126D01*
X78168109Y-66068466D01*
X78557017Y-66457374D01*
X77496357Y-67518034D01*
X77496357Y-67518034D01*
G37*
G36*
X78062042Y-68083720D02*
X77673134Y-67694812D01*
X78733794Y-66634152D01*
X79122702Y-67023060D01*
X78062042Y-68083720D01*
X78062042Y-68083720D01*
G37*
G36*
X80077298Y-67023060D02*
X80466206Y-66634152D01*
X81526866Y-67694812D01*
X81137958Y-68083720D01*
X80077298Y-67023060D01*
X80077298Y-67023060D01*
G37*
G36*
X80642983Y-66457374D02*
X81031891Y-66068466D01*
X82092551Y-67129126D01*
X81703643Y-67518034D01*
X80642983Y-66457374D01*
X80642983Y-66457374D01*
G37*
G36*
X81208668Y-65891689D02*
X81597576Y-65502781D01*
X82658236Y-66563441D01*
X82269328Y-66952349D01*
X81208668Y-65891689D01*
X81208668Y-65891689D01*
G37*
G36*
X81774354Y-65326004D02*
X82163262Y-64937096D01*
X83223922Y-65997756D01*
X82835014Y-66386664D01*
X81774354Y-65326004D01*
X81774354Y-65326004D01*
G37*
G36*
X82340039Y-64760318D02*
X82728947Y-64371410D01*
X83789607Y-65432070D01*
X83400699Y-65820978D01*
X82340039Y-64760318D01*
X82340039Y-64760318D01*
G37*
G36*
X82905725Y-64194633D02*
X83294633Y-63805725D01*
X84355293Y-64866385D01*
X83966385Y-65255293D01*
X82905725Y-64194633D01*
X82905725Y-64194633D01*
G37*
G36*
X83471410Y-63628947D02*
X83860318Y-63240039D01*
X84920978Y-64300699D01*
X84532070Y-64689607D01*
X83471410Y-63628947D01*
X83471410Y-63628947D01*
G37*
G36*
X84037096Y-63063262D02*
X84426004Y-62674354D01*
X85486664Y-63735014D01*
X85097756Y-64123922D01*
X84037096Y-63063262D01*
X84037096Y-63063262D01*
G37*
G36*
X84602781Y-62497576D02*
X84991689Y-62108668D01*
X86052349Y-63169328D01*
X85663441Y-63558236D01*
X84602781Y-62497576D01*
X84602781Y-62497576D01*
G37*
G36*
X85168466Y-61931891D02*
X85557374Y-61542983D01*
X86618034Y-62603643D01*
X86229126Y-62992551D01*
X85168466Y-61931891D01*
X85168466Y-61931891D01*
G37*
G36*
X85734152Y-61366206D02*
X86123060Y-60977298D01*
X87183720Y-62037958D01*
X86794812Y-62426866D01*
X85734152Y-61366206D01*
X85734152Y-61366206D01*
G37*
G36*
X86123060Y-60022702D02*
X85734152Y-59633794D01*
X86794812Y-58573134D01*
X87183720Y-58962042D01*
X86123060Y-60022702D01*
X86123060Y-60022702D01*
G37*
G36*
X85557374Y-59457017D02*
X85168466Y-59068109D01*
X86229126Y-58007449D01*
X86618034Y-58396357D01*
X85557374Y-59457017D01*
X85557374Y-59457017D01*
G37*
G36*
X84991689Y-58891332D02*
X84602781Y-58502424D01*
X85663441Y-57441764D01*
X86052349Y-57830672D01*
X84991689Y-58891332D01*
X84991689Y-58891332D01*
G37*
G36*
X84426004Y-58325646D02*
X84037096Y-57936738D01*
X85097756Y-56876078D01*
X85486664Y-57264986D01*
X84426004Y-58325646D01*
X84426004Y-58325646D01*
G37*
G36*
X83860318Y-57759961D02*
X83471410Y-57371053D01*
X84532070Y-56310393D01*
X84920978Y-56699301D01*
X83860318Y-57759961D01*
X83860318Y-57759961D01*
G37*
G36*
X83294633Y-57194275D02*
X82905725Y-56805367D01*
X83966385Y-55744707D01*
X84355293Y-56133615D01*
X83294633Y-57194275D01*
X83294633Y-57194275D01*
G37*
G36*
X82728947Y-56628590D02*
X82340039Y-56239682D01*
X83400699Y-55179022D01*
X83789607Y-55567930D01*
X82728947Y-56628590D01*
X82728947Y-56628590D01*
G37*
G36*
X82163262Y-56062904D02*
X81774354Y-55673996D01*
X82835014Y-54613336D01*
X83223922Y-55002244D01*
X82163262Y-56062904D01*
X82163262Y-56062904D01*
G37*
G36*
X81597576Y-55497219D02*
X81208668Y-55108311D01*
X82269328Y-54047651D01*
X82658236Y-54436559D01*
X81597576Y-55497219D01*
X81597576Y-55497219D01*
G37*
G36*
X81031891Y-54931534D02*
X80642983Y-54542626D01*
X81703643Y-53481966D01*
X82092551Y-53870874D01*
X81031891Y-54931534D01*
X81031891Y-54931534D01*
G37*
G36*
X80466206Y-54365848D02*
X80077298Y-53976940D01*
X81137958Y-52916280D01*
X81526866Y-53305188D01*
X80466206Y-54365848D01*
X80466206Y-54365848D01*
G37*
D17*
X51348000Y-64950000D03*
D18*
X57952000Y-64950000D03*
X57952000Y-62664000D03*
X57952000Y-67236000D03*
D19*
X58870000Y-69739040D03*
X56330000Y-69860960D03*
X61410000Y-69860960D03*
X53790000Y-69739040D03*
D20*
X63950000Y-69739040D03*
D19*
X51250000Y-69860960D03*
D21*
X68200000Y-69550000D03*
X68200000Y-68050000D03*
X69800000Y-69550000D03*
X69800000Y-68050000D03*
D22*
X57325000Y-53600000D03*
X60075000Y-53600000D03*
D23*
X85850000Y-52000000D03*
X84350000Y-52000000D03*
X61150000Y-51300000D03*
X59650000Y-51300000D03*
D21*
X74100000Y-51650000D03*
X74100000Y-53150000D03*
D24*
X61000000Y-63825000D03*
X61000000Y-66575000D03*
D23*
X63350000Y-67100000D03*
X64850000Y-67100000D03*
X64850000Y-65500000D03*
X63350000Y-65500000D03*
D21*
X70600000Y-53150000D03*
X70600000Y-51650000D03*
X72300000Y-53150000D03*
X72300000Y-51650000D03*
X61900000Y-56050000D03*
X61900000Y-57550000D03*
X63600000Y-56050000D03*
X63600000Y-57550000D03*
X65200000Y-51650000D03*
X65200000Y-53150000D03*
D25*
X91350700Y-70000000D03*
X92849300Y-70000000D03*
D26*
X73050000Y-65900000D03*
X71550000Y-65900000D03*
X57950000Y-57500000D03*
X56450000Y-57500000D03*
X57950000Y-55800000D03*
X56450000Y-55800000D03*
X56550000Y-51300000D03*
X58050000Y-51300000D03*
X89850000Y-70000000D03*
X88350000Y-70000000D03*
X85350000Y-67100000D03*
X86850000Y-67100000D03*
D27*
X68800000Y-53050000D03*
X68800000Y-51550000D03*
X67000000Y-53050000D03*
X67000000Y-51550000D03*
D28*
X74400000Y-67900000D03*
X72200000Y-67900000D03*
X74400000Y-69500000D03*
X72200000Y-69500000D03*
D29*
X68100000Y-57400000D03*
X82300000Y-62000000D03*
X75300000Y-59600000D03*
X71400000Y-55700000D03*
X80000000Y-69100000D03*
X66300000Y-69700000D03*
X69400000Y-64900000D03*
X66600000Y-66200000D03*
X85350000Y-66138300D03*
X67885900Y-59805000D03*
X79994100Y-66318600D03*
X75688100Y-58132000D03*
X90188600Y-65031200D03*
X59609000Y-64775000D03*
X63657200Y-53697700D03*
X64640800Y-64610200D03*
X67600500Y-55348800D03*
X68430300Y-55798900D03*
X58728800Y-56050000D03*
X60186300Y-57311000D03*
X59245500Y-57380900D03*
X58733800Y-58015700D03*
X64282600Y-53150000D03*
X80805300Y-64100600D03*
X68556900Y-58523500D03*
X76620100Y-63800500D03*
X75237900Y-65996800D03*
X65777000Y-55348700D03*
X66764200Y-61328700D03*
X68968900Y-60655000D03*
X70606400Y-62145300D03*
X73987600Y-56274900D03*
X75844100Y-54418400D03*
X65329400Y-54074100D03*
X76408200Y-53832300D03*
D30*
X68200000Y-69550000D02*
X68200000Y-70200000D01*
X75425300Y-68688400D02*
X74572500Y-67835600D01*
X68200000Y-70200000D02*
X68425400Y-70425400D01*
X75239300Y-70425400D02*
X75425300Y-70239400D01*
X68425400Y-70425400D02*
X75239300Y-70425400D01*
X75425300Y-70239400D02*
X75425300Y-68688400D01*
X74572500Y-65527500D02*
X75569500Y-64530500D01*
X74572500Y-67835600D02*
X74572500Y-65527500D01*
X74464400Y-67835600D02*
X74400000Y-67900000D01*
X74572500Y-67835600D02*
X74464400Y-67835600D01*
X69600000Y-58000000D02*
X69200000Y-58000000D01*
X69200000Y-58000000D02*
X68600000Y-57400000D01*
X68600000Y-57400000D02*
X68100000Y-57400000D01*
X64850000Y-65500000D02*
X65900000Y-65500000D01*
X65900000Y-65500000D02*
X66600000Y-66200000D01*
X92849300Y-70000000D02*
X92200520Y-70000000D01*
X92200520Y-70000000D02*
X92074481Y-69873961D01*
X92074481Y-69873961D02*
X92074481Y-69406181D01*
X92074481Y-69406181D02*
X91468600Y-68800300D01*
X91468600Y-68800300D02*
X88319400Y-68800300D01*
X88319400Y-68800300D02*
X87343200Y-67824000D01*
X85350000Y-67100000D02*
X85564998Y-67100000D01*
X85564998Y-67100000D02*
X86350498Y-67885500D01*
X86350498Y-67885500D02*
X87281700Y-67885500D01*
X87281700Y-67885500D02*
X87343200Y-67824000D01*
X65200000Y-51650000D02*
X65200000Y-51625000D01*
X65850300Y-50974700D02*
X68800000Y-50974700D01*
X65200000Y-51625000D02*
X65850300Y-50974700D01*
X68800000Y-50974700D02*
X68800000Y-51550000D01*
X61000000Y-66575000D02*
X62000000Y-66575000D01*
X62000000Y-66575000D02*
X62624999Y-67199999D01*
X62624999Y-67199999D02*
X62624999Y-67662399D01*
X62624999Y-67662399D02*
X62762900Y-67800300D01*
X61074900Y-50524600D02*
X61150000Y-50599700D01*
X57613000Y-50524600D02*
X61074900Y-50524600D01*
X57125300Y-51012300D02*
X57613000Y-50524600D01*
X57125300Y-51300000D02*
X57125300Y-51012300D01*
X61150000Y-51300000D02*
X61150000Y-50599700D01*
X60599400Y-52000300D02*
X61150000Y-52000300D01*
X60075000Y-52524700D02*
X60599400Y-52000300D01*
X60075000Y-53600000D02*
X60075000Y-52524700D01*
X61150000Y-51300000D02*
X61150000Y-52000300D01*
X64850000Y-65500000D02*
X64850000Y-67100000D01*
X56837700Y-51300000D02*
X57125300Y-51300000D01*
X56837700Y-51300000D02*
X56550000Y-51300000D01*
X53162200Y-54002500D02*
X53162200Y-57549100D01*
X55864700Y-51300000D02*
X53162200Y-54002500D01*
X56550000Y-51300000D02*
X55864700Y-51300000D01*
X54162500Y-57549100D02*
X53162200Y-57549100D01*
X55162800Y-58199100D02*
X55162800Y-57549100D01*
X54162500Y-57549100D02*
X55162800Y-57549100D01*
X55025200Y-58199100D02*
X55036600Y-58199100D01*
X54162500Y-58199100D02*
X55025200Y-58199100D01*
X85893300Y-58732200D02*
X85133000Y-59492500D01*
X81367800Y-54206700D02*
X80607500Y-54967000D01*
X64850000Y-67800300D02*
X62762900Y-67800300D01*
X59924700Y-66604600D02*
X59293300Y-67236000D01*
X59924700Y-66575000D02*
X59924700Y-66604600D01*
X57952000Y-67236000D02*
X59293300Y-67236000D01*
X61000000Y-66575000D02*
X59924700Y-66575000D01*
X64850000Y-67100000D02*
X64850000Y-67450100D01*
X64850000Y-67450100D02*
X64850000Y-67800300D01*
X66899800Y-67450100D02*
X67499700Y-68050000D01*
X64850000Y-67450100D02*
X66899800Y-67450100D01*
X68200000Y-68050000D02*
X67499700Y-68050000D01*
X72300000Y-51650000D02*
X70600000Y-51650000D01*
X69675300Y-51650000D02*
X69575300Y-51550000D01*
X70600000Y-51650000D02*
X69675300Y-51650000D01*
X68800000Y-51550000D02*
X69575300Y-51550000D01*
X69800000Y-68050000D02*
X68200000Y-68050000D01*
X84350000Y-52000000D02*
X83624700Y-52000000D01*
X81367800Y-54206700D02*
X82128200Y-53446300D01*
X55036600Y-58199100D02*
X55099700Y-58199100D01*
X55099700Y-58199100D02*
X55162800Y-58199100D01*
X57952000Y-67236000D02*
X56610700Y-67236000D01*
X55180000Y-58279400D02*
X55180000Y-66367400D01*
X55099700Y-58199100D02*
X55180000Y-58279400D01*
X55742100Y-66367400D02*
X55180000Y-66367400D01*
X56610700Y-67236000D02*
X55742100Y-66367400D01*
X54743600Y-66367400D02*
X51250000Y-69861000D01*
X55180000Y-66367400D02*
X54743600Y-66367400D01*
X80859100Y-55218700D02*
X80607500Y-54967000D01*
X80859100Y-55236000D02*
X80859100Y-55218700D01*
X84854400Y-59231300D02*
X80859100Y-55236000D01*
X84871700Y-59231300D02*
X84854400Y-59231300D01*
X85133000Y-59492500D02*
X84871700Y-59231300D01*
X90709100Y-63625000D02*
X92900000Y-63625000D01*
X87637600Y-66696500D02*
X90709100Y-63625000D01*
X87637600Y-67529600D02*
X87637600Y-66696500D01*
X87343200Y-67824000D02*
X87637600Y-67529600D01*
X69600000Y-58000000D02*
X69600000Y-59125300D01*
X64149400Y-52000300D02*
X61150000Y-52000300D01*
X64499700Y-51650000D02*
X64149400Y-52000300D01*
X65200000Y-51650000D02*
X64499700Y-51650000D01*
X74800000Y-54568600D02*
X74800000Y-52375000D01*
X76135200Y-55903800D02*
X74800000Y-54568600D01*
X83574500Y-52000000D02*
X82128200Y-53446300D01*
X83624700Y-52000000D02*
X83574500Y-52000000D01*
X81056900Y-52375000D02*
X82128200Y-53446300D01*
X74800000Y-52375000D02*
X81056900Y-52375000D01*
X80802100Y-67358900D02*
X80041800Y-66598600D01*
X85350000Y-66138300D02*
X85350000Y-67100000D01*
X74438100Y-63399100D02*
X75198400Y-62638800D01*
X80041800Y-66366300D02*
X80041800Y-66598600D01*
X79994100Y-66318600D02*
X80041800Y-66366300D01*
X76360200Y-62638800D02*
X75198400Y-62638800D01*
X79994100Y-66272700D02*
X76360200Y-62638800D01*
X79994100Y-66318600D02*
X79994100Y-66272700D01*
X68920300Y-59805000D02*
X67885900Y-59805000D01*
X69600000Y-59125300D02*
X68920300Y-59805000D01*
X74100000Y-51675000D02*
X74100000Y-51662500D01*
X74800000Y-52375000D02*
X74100000Y-51675000D01*
X74100000Y-51662500D02*
X74100000Y-51650000D01*
X73012800Y-51662500D02*
X73000300Y-51650000D01*
X74100000Y-51662500D02*
X73012800Y-51662500D01*
X72300000Y-51650000D02*
X73000300Y-51650000D01*
X69800000Y-69550000D02*
X70500300Y-69550000D01*
X70550300Y-69500000D02*
X72200000Y-69500000D01*
X70500300Y-69550000D02*
X70550300Y-69500000D01*
X72200000Y-69500000D02*
X73225300Y-69500000D01*
X73225300Y-67250100D02*
X73225300Y-69500000D01*
X73625400Y-66850000D02*
X73225300Y-67250100D01*
X73625400Y-65343200D02*
X73625400Y-66850000D01*
X74243500Y-64725100D02*
X73625400Y-65343200D01*
X75003800Y-63964800D02*
X74243500Y-64725100D01*
X58050000Y-51300000D02*
X58050000Y-51900000D01*
X57325000Y-52600000D02*
X57350000Y-52600000D01*
X57350000Y-52600000D02*
X58050000Y-51900000D01*
X57325000Y-52600000D02*
X57325000Y-53600000D01*
X59650000Y-51300000D02*
X58050000Y-51300000D01*
X57952000Y-62664000D02*
X57952000Y-63422000D01*
X57952000Y-63422000D02*
X58355000Y-63825000D01*
X58355000Y-63825000D02*
X60000000Y-63825000D01*
X60000000Y-63825000D02*
X61000000Y-63825000D01*
X57057100Y-60100000D02*
X57057100Y-55012000D01*
X57952000Y-62664000D02*
X57952000Y-61906000D01*
X57057100Y-61011100D02*
X57057100Y-60100000D01*
X57952000Y-61906000D02*
X57057100Y-61011100D01*
X66400000Y-63000000D02*
X66400000Y-63912800D01*
X61000000Y-63825000D02*
X62075300Y-63825000D01*
X54162500Y-55599100D02*
X55162800Y-55599100D01*
X57325000Y-54744100D02*
X57057100Y-55012000D01*
X57325000Y-53600000D02*
X57325000Y-54744100D01*
X55749900Y-55012000D02*
X55162800Y-55599100D01*
X57057100Y-55012000D02*
X55749900Y-55012000D01*
X91618500Y-65031200D02*
X91774700Y-64875000D01*
X90188600Y-65031200D02*
X91618500Y-65031200D01*
X92900000Y-64875000D02*
X91774700Y-64875000D01*
X75003800Y-57035200D02*
X75764200Y-57795500D01*
X75688100Y-57871600D02*
X75688100Y-58132000D01*
X75764200Y-57795500D02*
X75688100Y-57871600D01*
X62163100Y-63912800D02*
X66400000Y-63912800D01*
X62075300Y-63825000D02*
X62163100Y-63912800D01*
X68387200Y-65900000D02*
X71550000Y-65900000D01*
X66400000Y-63912800D02*
X68387200Y-65900000D01*
X75427800Y-58132000D02*
X75688100Y-58132000D01*
X71550000Y-62009800D02*
X75427800Y-58132000D01*
X71550000Y-65900000D02*
X71550000Y-62009800D01*
X84005600Y-52700300D02*
X81933500Y-54772400D01*
X85850000Y-52700300D02*
X84005600Y-52700300D01*
X85850000Y-52000000D02*
X85850000Y-52700300D01*
X63350000Y-65500000D02*
X63350000Y-67100000D01*
X57952000Y-64950000D02*
X59293300Y-64950000D01*
X63350000Y-65500000D02*
X63350000Y-65200000D01*
X59468300Y-64775000D02*
X59293300Y-64950000D01*
X59609000Y-64775000D02*
X59468300Y-64775000D01*
X86458900Y-59297900D02*
X85698600Y-60058200D01*
X80802100Y-53641100D02*
X80041800Y-54401400D01*
X77832200Y-54206700D02*
X78592600Y-54967000D01*
X80041800Y-55079200D02*
X80041800Y-54967000D01*
X85020800Y-60058200D02*
X80041800Y-55079200D01*
X85698600Y-60058200D02*
X85020800Y-60058200D01*
X80041800Y-54967000D02*
X80041800Y-54401400D01*
X73872400Y-62833500D02*
X74632800Y-62073100D01*
X81367800Y-66793300D02*
X80607500Y-66032900D01*
X75569500Y-56469500D02*
X76329900Y-57229800D01*
X78592600Y-54967000D02*
X80041800Y-54967000D01*
X76558100Y-57001600D02*
X76329900Y-57229800D01*
X76558200Y-57001600D02*
X76558100Y-57001600D01*
X78592600Y-54967200D02*
X76558200Y-57001600D01*
X78592600Y-54967000D02*
X78592600Y-54967200D01*
X76329900Y-62073100D02*
X74632800Y-62073100D01*
X76647600Y-62073100D02*
X76329900Y-62073100D01*
X80607500Y-66032900D02*
X76647600Y-62073100D01*
X74100000Y-55000000D02*
X74100000Y-53150000D01*
X75569500Y-56469500D02*
X74100000Y-55000000D01*
X74100000Y-53150000D02*
X73399700Y-53150000D01*
X67000000Y-51550000D02*
X67000000Y-52125300D01*
X76329900Y-57229900D02*
X76329900Y-62073100D01*
X76329900Y-57229800D02*
X76329900Y-57229900D01*
X63657200Y-52862600D02*
X63657200Y-53697700D01*
X64069100Y-52450700D02*
X63657200Y-52862600D01*
X64499600Y-52450700D02*
X64069100Y-52450700D01*
X64536900Y-52413400D02*
X64499600Y-52450700D01*
X66711900Y-52413400D02*
X64536900Y-52413400D01*
X67000000Y-52125300D02*
X66711900Y-52413400D01*
X67299300Y-52424600D02*
X67000000Y-52125300D01*
X72849400Y-52424600D02*
X67299300Y-52424600D01*
X73399700Y-52974900D02*
X72849400Y-52424600D01*
X73399700Y-53150000D02*
X73399700Y-52974900D01*
X60034000Y-65200000D02*
X59609000Y-64775000D01*
X63350000Y-65200000D02*
X60034000Y-65200000D01*
X63939800Y-64610200D02*
X64640800Y-64610200D01*
X63350000Y-65200000D02*
X63939800Y-64610200D01*
X70600000Y-53150000D02*
X69899700Y-53150000D01*
X67700900Y-55348800D02*
X67600500Y-55348800D01*
X69899700Y-53150000D02*
X67700900Y-55348800D01*
X68730299Y-55469701D02*
X70100000Y-54100000D01*
X72300000Y-53150000D02*
X72300000Y-53800000D01*
X72000000Y-54100000D02*
X70100000Y-54100000D01*
X72300000Y-53800000D02*
X72000000Y-54100000D01*
X68430300Y-55798900D02*
X68730299Y-55498901D01*
X68730299Y-55498901D02*
X68730299Y-55469701D01*
X61900000Y-56050000D02*
X61199700Y-56050000D01*
X61199700Y-56050000D02*
X58728800Y-56050000D01*
X60425300Y-57550000D02*
X60186300Y-57311000D01*
X61900000Y-57550000D02*
X60425300Y-57550000D01*
X63600000Y-56050000D02*
X62899700Y-56050000D01*
X59245500Y-57367500D02*
X59245500Y-57380900D01*
X59927300Y-56685700D02*
X59245500Y-57367500D01*
X60445400Y-56685700D02*
X59927300Y-56685700D01*
X60549300Y-56789600D02*
X60445400Y-56685700D01*
X62422700Y-56789600D02*
X60549300Y-56789600D01*
X62899700Y-56312600D02*
X62422700Y-56789600D01*
X62899700Y-56050000D02*
X62899700Y-56312600D01*
X63600000Y-57550000D02*
X62899700Y-57550000D01*
X58993500Y-58275400D02*
X58733800Y-58015700D01*
X62461700Y-58275400D02*
X58993500Y-58275400D01*
X62899700Y-57837400D02*
X62461700Y-58275400D01*
X62899700Y-57550000D02*
X62899700Y-57837400D01*
X65200000Y-53150000D02*
X64282600Y-53150000D01*
X66000300Y-53050000D02*
X65900300Y-53150000D01*
X67000000Y-53050000D02*
X66000300Y-53050000D01*
X65200000Y-53150000D02*
X65900300Y-53150000D01*
X55425600Y-56249100D02*
X54162500Y-56249100D01*
X55874700Y-55800000D02*
X55425600Y-56249100D01*
X56450000Y-55800000D02*
X55874700Y-55800000D01*
X55273800Y-56899100D02*
X54162500Y-56899100D01*
X55874700Y-57500000D02*
X55273800Y-56899100D01*
X56450000Y-57500000D02*
X55874700Y-57500000D01*
X82069200Y-64100600D02*
X80805300Y-64100600D01*
X83064800Y-65096200D02*
X82069200Y-64100600D01*
X66400000Y-58000000D02*
X66400000Y-59125300D01*
X67955100Y-59125300D02*
X68556900Y-58523500D01*
X66400000Y-59125300D02*
X67955100Y-59125300D01*
X76135200Y-65096200D02*
X76700000Y-64531400D01*
X76620100Y-63800500D02*
X76620100Y-64224764D01*
X76620100Y-64224764D02*
X76700000Y-64304664D01*
X76700000Y-64304664D02*
X76700000Y-64531400D01*
X76700900Y-65661900D02*
X76100000Y-66262800D01*
X75237900Y-65996800D02*
X75537899Y-66296799D01*
X75537899Y-66296799D02*
X76066001Y-66296799D01*
X76066001Y-66296799D02*
X76100000Y-66262800D01*
X66600000Y-54637000D02*
X65888300Y-55348700D01*
X68800000Y-53050000D02*
X68800000Y-53550000D01*
X68800000Y-53550000D02*
X67713000Y-54637000D01*
X67713000Y-54637000D02*
X66600000Y-54637000D01*
X65888300Y-55348700D02*
X65777000Y-55348700D01*
X71306800Y-66974600D02*
X71760402Y-66974600D01*
X71760402Y-66974600D02*
X72125001Y-66610001D01*
X72125001Y-66610001D02*
X72125001Y-66324999D01*
X73050000Y-65900000D02*
X72550000Y-65900000D01*
X72550000Y-65900000D02*
X72125001Y-66324999D01*
X72546300Y-64621000D02*
X72546300Y-63028200D01*
X73050000Y-65124700D02*
X72546300Y-64621000D01*
X73050000Y-65900000D02*
X73050000Y-65124700D01*
X73306700Y-62267800D02*
X72546300Y-63028200D01*
X70950900Y-67330500D02*
X71306800Y-66974600D01*
X70950900Y-68184600D02*
X70950900Y-67330500D01*
X70360100Y-68775400D02*
X70950900Y-68184600D01*
X66187900Y-68775400D02*
X70360100Y-68775400D01*
X66109000Y-68696500D02*
X66187900Y-68775400D01*
X54832500Y-68696500D02*
X66109000Y-68696500D01*
X53790000Y-69739000D02*
X54832500Y-68696500D01*
X73306700Y-58732200D02*
X72546300Y-57971800D01*
X69189400Y-61328700D02*
X72546300Y-57971800D01*
X66764200Y-61328700D02*
X69189400Y-61328700D01*
X73872400Y-58166500D02*
X73112200Y-57406200D01*
X69121000Y-60655000D02*
X68968900Y-60655000D01*
X72322900Y-57453100D02*
X69121000Y-60655000D01*
X73065300Y-57453100D02*
X72322900Y-57453100D01*
X73112200Y-57406200D02*
X73065300Y-57453100D01*
X70606400Y-61432600D02*
X70606400Y-62145300D01*
X72741100Y-59297900D02*
X70606400Y-61432600D01*
X92900000Y-59875000D02*
X91774700Y-59875000D01*
X91774700Y-59875000D02*
X91220700Y-60429000D01*
X91220700Y-60429000D02*
X86153000Y-60429000D01*
X83000082Y-63581918D02*
X83000082Y-63900000D01*
X86153000Y-60429000D02*
X83000082Y-63581918D01*
X83000082Y-63900000D02*
X83630500Y-64530500D01*
X86386700Y-62761200D02*
X85893300Y-62267800D01*
X86386700Y-63372300D02*
X86386700Y-62761200D01*
X84680700Y-65078300D02*
X86386700Y-63372300D01*
X84680700Y-67607600D02*
X84680700Y-65078300D01*
X87073100Y-70000000D02*
X84680700Y-67607600D01*
X88350000Y-70000000D02*
X87073100Y-70000000D01*
X76700900Y-55338100D02*
X75940600Y-54577700D01*
X75940600Y-54514900D02*
X75844100Y-54418400D01*
X75940600Y-54577700D02*
X75940600Y-54514900D01*
X57950000Y-57500000D02*
X57950000Y-58275300D01*
X58411600Y-58736900D02*
X57950000Y-58275300D01*
X63662300Y-58736900D02*
X58411600Y-58736900D01*
X65909800Y-56489400D02*
X63662300Y-58736900D01*
X73773100Y-56489400D02*
X65909800Y-56489400D01*
X73987600Y-56274900D02*
X73773100Y-56489400D01*
X64397500Y-55006000D02*
X65329400Y-54074100D01*
X58744000Y-55006000D02*
X64397500Y-55006000D01*
X57950000Y-55800000D02*
X58744000Y-55006000D01*
X77266500Y-54772400D02*
X76506300Y-54012100D01*
X76506300Y-53930400D02*
X76408200Y-53832300D01*
X76506300Y-54012100D02*
X76506300Y-53930400D01*
X87001500Y-66173200D02*
X87001500Y-63100000D01*
X86458900Y-61702100D02*
X87000000Y-62243129D01*
X87001500Y-63100000D02*
X87059976Y-63041524D01*
X87059976Y-63041524D02*
X87059976Y-62303105D01*
X87059976Y-62303105D02*
X87000000Y-62243129D01*
X86850000Y-66324700D02*
X87001500Y-66173200D01*
X86850000Y-67100000D02*
X86850000Y-66324700D01*
X89850000Y-70000000D02*
X91350700Y-70000000D01*
D31*
G36*
X65897060Y-69477548D02*
X65945314Y-69487146D01*
X66187900Y-69535400D01*
X67177560Y-69535400D01*
X67177560Y-69950000D01*
X67221838Y-70185317D01*
X67305287Y-70315000D01*
X65295940Y-70315000D01*
X65295940Y-69456500D01*
X65865559Y-69456500D01*
X65897060Y-69477548D01*
X65897060Y-69477548D01*
G37*
X65897060Y-69477548D02*
X65945314Y-69487146D01*
X66187900Y-69535400D01*
X67177560Y-69535400D01*
X67177560Y-69950000D01*
X67221838Y-70185317D01*
X67305287Y-70315000D01*
X65295940Y-70315000D01*
X65295940Y-69456500D01*
X65865559Y-69456500D01*
X65897060Y-69477548D01*
G36*
X80006586Y-66506790D02*
X80043129Y-66701001D01*
X80185174Y-66915183D01*
X81245834Y-67975843D01*
X81443537Y-68110928D01*
X81694699Y-68165412D01*
X81849827Y-68136223D01*
X81983481Y-68136223D01*
X82065194Y-68054510D01*
X82073663Y-68034065D01*
X82161452Y-67975843D01*
X82550360Y-67586935D01*
X82624751Y-67478060D01*
X82727137Y-67410158D01*
X83116045Y-67021250D01*
X83190435Y-66912376D01*
X83292823Y-66844473D01*
X83681731Y-66455565D01*
X83756124Y-66346688D01*
X83858508Y-66278787D01*
X83920700Y-66216595D01*
X83920700Y-67607600D01*
X83978552Y-67898439D01*
X84143299Y-68145001D01*
X86313298Y-70315000D01*
X76170262Y-70315000D01*
X76185300Y-70239400D01*
X76185300Y-68688400D01*
X76127448Y-68397561D01*
X76127448Y-68397560D01*
X75962701Y-68150999D01*
X75747440Y-67935738D01*
X75747440Y-67300000D01*
X75703162Y-67064683D01*
X75698089Y-67056799D01*
X76066001Y-67056799D01*
X76110627Y-67047922D01*
X76472863Y-67410158D01*
X76581738Y-67484549D01*
X76649640Y-67586935D01*
X77038548Y-67975843D01*
X77147422Y-68050233D01*
X77215325Y-68152621D01*
X77604233Y-68541529D01*
X77801936Y-68676614D01*
X78053098Y-68731098D01*
X78305669Y-68683574D01*
X78519851Y-68541529D01*
X79081427Y-67979953D01*
X80360671Y-67979953D01*
X80360671Y-68204459D01*
X80778259Y-68622047D01*
X81011648Y-68718720D01*
X81264267Y-68718721D01*
X81497656Y-68622048D01*
X81579369Y-68540335D01*
X81579369Y-68315828D01*
X80802082Y-67538541D01*
X80360671Y-67979953D01*
X79081427Y-67979953D01*
X79580511Y-67480869D01*
X79603474Y-67447262D01*
X79956559Y-67800347D01*
X80181065Y-67800347D01*
X80622477Y-67358936D01*
X79845190Y-66581649D01*
X79620683Y-66581649D01*
X79603068Y-66599264D01*
X79580511Y-66565251D01*
X79191603Y-66176343D01*
X79082729Y-66101953D01*
X79014826Y-65999565D01*
X78625918Y-65610657D01*
X78517043Y-65536266D01*
X78449141Y-65433880D01*
X78060233Y-65044972D01*
X77951356Y-64970579D01*
X77883455Y-64868195D01*
X77494547Y-64479287D01*
X77460000Y-64455682D01*
X77460000Y-64304664D01*
X77448067Y-64244672D01*
X77535014Y-64035280D01*
X80006586Y-66506790D01*
X80006586Y-66506790D01*
G37*
X80006586Y-66506790D02*
X80043129Y-66701001D01*
X80185174Y-66915183D01*
X81245834Y-67975843D01*
X81443537Y-68110928D01*
X81694699Y-68165412D01*
X81849827Y-68136223D01*
X81983481Y-68136223D01*
X82065194Y-68054510D01*
X82073663Y-68034065D01*
X82161452Y-67975843D01*
X82550360Y-67586935D01*
X82624751Y-67478060D01*
X82727137Y-67410158D01*
X83116045Y-67021250D01*
X83190435Y-66912376D01*
X83292823Y-66844473D01*
X83681731Y-66455565D01*
X83756124Y-66346688D01*
X83858508Y-66278787D01*
X83920700Y-66216595D01*
X83920700Y-67607600D01*
X83978552Y-67898439D01*
X84143299Y-68145001D01*
X86313298Y-70315000D01*
X76170262Y-70315000D01*
X76185300Y-70239400D01*
X76185300Y-68688400D01*
X76127448Y-68397561D01*
X76127448Y-68397560D01*
X75962701Y-68150999D01*
X75747440Y-67935738D01*
X75747440Y-67300000D01*
X75703162Y-67064683D01*
X75698089Y-67056799D01*
X76066001Y-67056799D01*
X76110627Y-67047922D01*
X76472863Y-67410158D01*
X76581738Y-67484549D01*
X76649640Y-67586935D01*
X77038548Y-67975843D01*
X77147422Y-68050233D01*
X77215325Y-68152621D01*
X77604233Y-68541529D01*
X77801936Y-68676614D01*
X78053098Y-68731098D01*
X78305669Y-68683574D01*
X78519851Y-68541529D01*
X79081427Y-67979953D01*
X80360671Y-67979953D01*
X80360671Y-68204459D01*
X80778259Y-68622047D01*
X81011648Y-68718720D01*
X81264267Y-68718721D01*
X81497656Y-68622048D01*
X81579369Y-68540335D01*
X81579369Y-68315828D01*
X80802082Y-67538541D01*
X80360671Y-67979953D01*
X79081427Y-67979953D01*
X79580511Y-67480869D01*
X79603474Y-67447262D01*
X79956559Y-67800347D01*
X80181065Y-67800347D01*
X80622477Y-67358936D01*
X79845190Y-66581649D01*
X79620683Y-66581649D01*
X79603068Y-66599264D01*
X79580511Y-66565251D01*
X79191603Y-66176343D01*
X79082729Y-66101953D01*
X79014826Y-65999565D01*
X78625918Y-65610657D01*
X78517043Y-65536266D01*
X78449141Y-65433880D01*
X78060233Y-65044972D01*
X77951356Y-64970579D01*
X77883455Y-64868195D01*
X77494547Y-64479287D01*
X77460000Y-64455682D01*
X77460000Y-64304664D01*
X77448067Y-64244672D01*
X77535014Y-64035280D01*
X80006586Y-66506790D01*
G36*
X92100000Y-65922440D02*
X93315000Y-65922440D01*
X93315000Y-68966220D01*
X93135050Y-68966220D01*
X92976300Y-69124970D01*
X92976300Y-69873000D01*
X92996300Y-69873000D01*
X92996300Y-70127000D01*
X92976300Y-70127000D01*
X92976300Y-70147000D01*
X92722300Y-70147000D01*
X92722300Y-70127000D01*
X92702300Y-70127000D01*
X92702300Y-69873000D01*
X92722300Y-69873000D01*
X92722300Y-69124970D01*
X92563550Y-68966220D01*
X92324211Y-68966220D01*
X92090822Y-69062893D01*
X92089030Y-69064685D01*
X92001370Y-69004789D01*
X91885733Y-68981372D01*
X91951441Y-68939090D01*
X92096431Y-68726890D01*
X92147440Y-68475000D01*
X92147440Y-66375000D01*
X92103162Y-66139683D01*
X91964090Y-65923559D01*
X91904515Y-65882853D01*
X92100000Y-65922440D01*
X92100000Y-65922440D01*
G37*
X92100000Y-65922440D02*
X93315000Y-65922440D01*
X93315000Y-68966220D01*
X93135050Y-68966220D01*
X92976300Y-69124970D01*
X92976300Y-69873000D01*
X92996300Y-69873000D01*
X92996300Y-70127000D01*
X92976300Y-70127000D01*
X92976300Y-70147000D01*
X92722300Y-70147000D01*
X92722300Y-70127000D01*
X92702300Y-70127000D01*
X92702300Y-69873000D01*
X92722300Y-69873000D01*
X92722300Y-69124970D01*
X92563550Y-68966220D01*
X92324211Y-68966220D01*
X92090822Y-69062893D01*
X92089030Y-69064685D01*
X92001370Y-69004789D01*
X91885733Y-68981372D01*
X91951441Y-68939090D01*
X92096431Y-68726890D01*
X92147440Y-68475000D01*
X92147440Y-66375000D01*
X92103162Y-66139683D01*
X91964090Y-65923559D01*
X91904515Y-65882853D01*
X92100000Y-65922440D01*
G36*
X55665000Y-50723690D02*
X55665000Y-51014250D01*
X55823750Y-51173000D01*
X56425000Y-51173000D01*
X56425000Y-51153000D01*
X56675000Y-51153000D01*
X56675000Y-51173000D01*
X56697000Y-51173000D01*
X56697000Y-51427000D01*
X56675000Y-51427000D01*
X56675000Y-51447000D01*
X56425000Y-51447000D01*
X56425000Y-51427000D01*
X55823750Y-51427000D01*
X55665000Y-51585750D01*
X55665000Y-51876310D01*
X55761673Y-52109699D01*
X55940302Y-52288327D01*
X56007166Y-52316023D01*
X55898559Y-52385910D01*
X55753569Y-52598110D01*
X55702560Y-52850000D01*
X55702560Y-54261417D01*
X55459061Y-54309852D01*
X55432944Y-54327303D01*
X55351313Y-53916919D01*
X55078180Y-53508145D01*
X54669406Y-53235012D01*
X54187225Y-53139100D01*
X54137855Y-53139100D01*
X53655674Y-53235012D01*
X53246900Y-53508145D01*
X52973767Y-53916919D01*
X52877855Y-54399100D01*
X52973767Y-54881281D01*
X53022736Y-54954568D01*
X52891109Y-55147210D01*
X52840100Y-55399100D01*
X52840100Y-55799100D01*
X52864484Y-55928689D01*
X52840100Y-56049100D01*
X52840100Y-56449100D01*
X52864484Y-56578689D01*
X52840100Y-56699100D01*
X52840100Y-57099100D01*
X52859990Y-57204805D01*
X52852540Y-57222790D01*
X52852540Y-57290350D01*
X52881544Y-57319354D01*
X52884378Y-57334417D01*
X53023450Y-57550541D01*
X53032138Y-57556477D01*
X52949213Y-57639401D01*
X52898460Y-57761930D01*
X52852540Y-57807850D01*
X52852540Y-57940350D01*
X52898460Y-57986270D01*
X52949213Y-58108799D01*
X53127842Y-58287427D01*
X53156023Y-58299100D01*
X53011290Y-58299100D01*
X52852540Y-58457850D01*
X52852540Y-58525410D01*
X52949213Y-58758799D01*
X53027266Y-58836852D01*
X52973767Y-58916919D01*
X52877855Y-59399100D01*
X52973767Y-59881281D01*
X53246900Y-60290055D01*
X53655674Y-60563188D01*
X54137855Y-60659100D01*
X54187225Y-60659100D01*
X54669406Y-60563188D01*
X55078180Y-60290055D01*
X55351313Y-59881281D01*
X55447225Y-59399100D01*
X55351313Y-58916919D01*
X55297814Y-58836852D01*
X55375867Y-58758799D01*
X55472540Y-58525410D01*
X55472540Y-58457850D01*
X55313790Y-58299100D01*
X55169057Y-58299100D01*
X55197238Y-58287427D01*
X55375867Y-58108799D01*
X55390670Y-58073062D01*
X55583861Y-58202148D01*
X55611163Y-58207579D01*
X55735910Y-58401441D01*
X55948110Y-58546431D01*
X56200000Y-58597440D01*
X56297100Y-58597440D01*
X56297100Y-61011100D01*
X56354952Y-61301939D01*
X56519699Y-61548501D01*
X56593200Y-61622002D01*
X56484559Y-61691910D01*
X56339569Y-61904110D01*
X56288560Y-62156000D01*
X56288560Y-63172000D01*
X56332838Y-63407317D01*
X56471910Y-63623441D01*
X56684110Y-63768431D01*
X56872314Y-63806543D01*
X56700683Y-63838838D01*
X56484559Y-63977910D01*
X56339569Y-64190110D01*
X56288560Y-64442000D01*
X56288560Y-65458000D01*
X56332838Y-65693317D01*
X56471910Y-65909441D01*
X56684110Y-66054431D01*
X56874569Y-66093000D01*
X56809690Y-66093000D01*
X56576301Y-66189673D01*
X56397673Y-66368302D01*
X56301000Y-66601691D01*
X56301000Y-66950250D01*
X56459750Y-67109000D01*
X57825000Y-67109000D01*
X57825000Y-67089000D01*
X58079000Y-67089000D01*
X58079000Y-67109000D01*
X59444250Y-67109000D01*
X59603000Y-66950250D01*
X59603000Y-66601691D01*
X59506327Y-66368302D01*
X59327699Y-66189673D01*
X59094310Y-66093000D01*
X59034113Y-66093000D01*
X59203317Y-66061162D01*
X59419441Y-65922090D01*
X59530264Y-65759895D01*
X59615000Y-65816514D01*
X59615000Y-66289250D01*
X59773750Y-66448000D01*
X60873000Y-66448000D01*
X60873000Y-66428000D01*
X61127000Y-66428000D01*
X61127000Y-66448000D01*
X61147000Y-66448000D01*
X61147000Y-66702000D01*
X61127000Y-66702000D01*
X61127000Y-66722000D01*
X60873000Y-66722000D01*
X60873000Y-66702000D01*
X59773750Y-66702000D01*
X59615000Y-66860750D01*
X59615000Y-67676309D01*
X59711673Y-67909698D01*
X59738475Y-67936500D01*
X59575583Y-67936500D01*
X59603000Y-67870309D01*
X59603000Y-67521750D01*
X59444250Y-67363000D01*
X58079000Y-67363000D01*
X58079000Y-67383000D01*
X57825000Y-67383000D01*
X57825000Y-67363000D01*
X56459750Y-67363000D01*
X56301000Y-67521750D01*
X56301000Y-67870309D01*
X56328417Y-67936500D01*
X54832500Y-67936500D01*
X54541661Y-67994352D01*
X54295099Y-68159099D01*
X54048433Y-68405765D01*
X53525914Y-68405309D01*
X53035620Y-68607894D01*
X52660173Y-68982687D01*
X52501405Y-69365043D01*
X52419800Y-69168031D01*
X52184188Y-69106377D01*
X51429605Y-69860960D01*
X51443748Y-69875103D01*
X51264143Y-70054708D01*
X51250000Y-70040565D01*
X51235858Y-70054708D01*
X51056253Y-69875103D01*
X51070395Y-69860960D01*
X51056253Y-69846818D01*
X51235858Y-69667213D01*
X51250000Y-69681355D01*
X52004583Y-68926772D01*
X51942929Y-68691160D01*
X51442520Y-68515033D01*
X50912801Y-68543812D01*
X50685000Y-68638170D01*
X50685000Y-67426240D01*
X52364000Y-67426240D01*
X52599317Y-67381962D01*
X52815441Y-67242890D01*
X52960431Y-67030690D01*
X53011440Y-66778800D01*
X53011440Y-63121200D01*
X52967162Y-62885883D01*
X52828090Y-62669759D01*
X52615890Y-62524769D01*
X52364000Y-62473760D01*
X50685000Y-62473760D01*
X50685000Y-61697845D01*
X50922956Y-61856842D01*
X51462540Y-61964172D01*
X52002124Y-61856842D01*
X52459561Y-61551193D01*
X52765210Y-61093756D01*
X52872540Y-60554172D01*
X52872540Y-60244028D01*
X52765210Y-59704444D01*
X52459561Y-59247007D01*
X52002124Y-58941358D01*
X51462540Y-58834028D01*
X50922956Y-58941358D01*
X50685000Y-59100355D01*
X50685000Y-54697845D01*
X50922956Y-54856842D01*
X51462540Y-54964172D01*
X52002124Y-54856842D01*
X52459561Y-54551193D01*
X52765210Y-54093756D01*
X52872540Y-53554172D01*
X52872540Y-53244028D01*
X52765210Y-52704444D01*
X52459561Y-52247007D01*
X52002124Y-51941358D01*
X51462540Y-51834028D01*
X50922956Y-51941358D01*
X50685000Y-52100355D01*
X50685000Y-50685000D01*
X55681026Y-50685000D01*
X55665000Y-50723690D01*
X55665000Y-50723690D01*
G37*
X55665000Y-50723690D02*
X55665000Y-51014250D01*
X55823750Y-51173000D01*
X56425000Y-51173000D01*
X56425000Y-51153000D01*
X56675000Y-51153000D01*
X56675000Y-51173000D01*
X56697000Y-51173000D01*
X56697000Y-51427000D01*
X56675000Y-51427000D01*
X56675000Y-51447000D01*
X56425000Y-51447000D01*
X56425000Y-51427000D01*
X55823750Y-51427000D01*
X55665000Y-51585750D01*
X55665000Y-51876310D01*
X55761673Y-52109699D01*
X55940302Y-52288327D01*
X56007166Y-52316023D01*
X55898559Y-52385910D01*
X55753569Y-52598110D01*
X55702560Y-52850000D01*
X55702560Y-54261417D01*
X55459061Y-54309852D01*
X55432944Y-54327303D01*
X55351313Y-53916919D01*
X55078180Y-53508145D01*
X54669406Y-53235012D01*
X54187225Y-53139100D01*
X54137855Y-53139100D01*
X53655674Y-53235012D01*
X53246900Y-53508145D01*
X52973767Y-53916919D01*
X52877855Y-54399100D01*
X52973767Y-54881281D01*
X53022736Y-54954568D01*
X52891109Y-55147210D01*
X52840100Y-55399100D01*
X52840100Y-55799100D01*
X52864484Y-55928689D01*
X52840100Y-56049100D01*
X52840100Y-56449100D01*
X52864484Y-56578689D01*
X52840100Y-56699100D01*
X52840100Y-57099100D01*
X52859990Y-57204805D01*
X52852540Y-57222790D01*
X52852540Y-57290350D01*
X52881544Y-57319354D01*
X52884378Y-57334417D01*
X53023450Y-57550541D01*
X53032138Y-57556477D01*
X52949213Y-57639401D01*
X52898460Y-57761930D01*
X52852540Y-57807850D01*
X52852540Y-57940350D01*
X52898460Y-57986270D01*
X52949213Y-58108799D01*
X53127842Y-58287427D01*
X53156023Y-58299100D01*
X53011290Y-58299100D01*
X52852540Y-58457850D01*
X52852540Y-58525410D01*
X52949213Y-58758799D01*
X53027266Y-58836852D01*
X52973767Y-58916919D01*
X52877855Y-59399100D01*
X52973767Y-59881281D01*
X53246900Y-60290055D01*
X53655674Y-60563188D01*
X54137855Y-60659100D01*
X54187225Y-60659100D01*
X54669406Y-60563188D01*
X55078180Y-60290055D01*
X55351313Y-59881281D01*
X55447225Y-59399100D01*
X55351313Y-58916919D01*
X55297814Y-58836852D01*
X55375867Y-58758799D01*
X55472540Y-58525410D01*
X55472540Y-58457850D01*
X55313790Y-58299100D01*
X55169057Y-58299100D01*
X55197238Y-58287427D01*
X55375867Y-58108799D01*
X55390670Y-58073062D01*
X55583861Y-58202148D01*
X55611163Y-58207579D01*
X55735910Y-58401441D01*
X55948110Y-58546431D01*
X56200000Y-58597440D01*
X56297100Y-58597440D01*
X56297100Y-61011100D01*
X56354952Y-61301939D01*
X56519699Y-61548501D01*
X56593200Y-61622002D01*
X56484559Y-61691910D01*
X56339569Y-61904110D01*
X56288560Y-62156000D01*
X56288560Y-63172000D01*
X56332838Y-63407317D01*
X56471910Y-63623441D01*
X56684110Y-63768431D01*
X56872314Y-63806543D01*
X56700683Y-63838838D01*
X56484559Y-63977910D01*
X56339569Y-64190110D01*
X56288560Y-64442000D01*
X56288560Y-65458000D01*
X56332838Y-65693317D01*
X56471910Y-65909441D01*
X56684110Y-66054431D01*
X56874569Y-66093000D01*
X56809690Y-66093000D01*
X56576301Y-66189673D01*
X56397673Y-66368302D01*
X56301000Y-66601691D01*
X56301000Y-66950250D01*
X56459750Y-67109000D01*
X57825000Y-67109000D01*
X57825000Y-67089000D01*
X58079000Y-67089000D01*
X58079000Y-67109000D01*
X59444250Y-67109000D01*
X59603000Y-66950250D01*
X59603000Y-66601691D01*
X59506327Y-66368302D01*
X59327699Y-66189673D01*
X59094310Y-66093000D01*
X59034113Y-66093000D01*
X59203317Y-66061162D01*
X59419441Y-65922090D01*
X59530264Y-65759895D01*
X59615000Y-65816514D01*
X59615000Y-66289250D01*
X59773750Y-66448000D01*
X60873000Y-66448000D01*
X60873000Y-66428000D01*
X61127000Y-66428000D01*
X61127000Y-66448000D01*
X61147000Y-66448000D01*
X61147000Y-66702000D01*
X61127000Y-66702000D01*
X61127000Y-66722000D01*
X60873000Y-66722000D01*
X60873000Y-66702000D01*
X59773750Y-66702000D01*
X59615000Y-66860750D01*
X59615000Y-67676309D01*
X59711673Y-67909698D01*
X59738475Y-67936500D01*
X59575583Y-67936500D01*
X59603000Y-67870309D01*
X59603000Y-67521750D01*
X59444250Y-67363000D01*
X58079000Y-67363000D01*
X58079000Y-67383000D01*
X57825000Y-67383000D01*
X57825000Y-67363000D01*
X56459750Y-67363000D01*
X56301000Y-67521750D01*
X56301000Y-67870309D01*
X56328417Y-67936500D01*
X54832500Y-67936500D01*
X54541661Y-67994352D01*
X54295099Y-68159099D01*
X54048433Y-68405765D01*
X53525914Y-68405309D01*
X53035620Y-68607894D01*
X52660173Y-68982687D01*
X52501405Y-69365043D01*
X52419800Y-69168031D01*
X52184188Y-69106377D01*
X51429605Y-69860960D01*
X51443748Y-69875103D01*
X51264143Y-70054708D01*
X51250000Y-70040565D01*
X51235858Y-70054708D01*
X51056253Y-69875103D01*
X51070395Y-69860960D01*
X51056253Y-69846818D01*
X51235858Y-69667213D01*
X51250000Y-69681355D01*
X52004583Y-68926772D01*
X51942929Y-68691160D01*
X51442520Y-68515033D01*
X50912801Y-68543812D01*
X50685000Y-68638170D01*
X50685000Y-67426240D01*
X52364000Y-67426240D01*
X52599317Y-67381962D01*
X52815441Y-67242890D01*
X52960431Y-67030690D01*
X53011440Y-66778800D01*
X53011440Y-63121200D01*
X52967162Y-62885883D01*
X52828090Y-62669759D01*
X52615890Y-62524769D01*
X52364000Y-62473760D01*
X50685000Y-62473760D01*
X50685000Y-61697845D01*
X50922956Y-61856842D01*
X51462540Y-61964172D01*
X52002124Y-61856842D01*
X52459561Y-61551193D01*
X52765210Y-61093756D01*
X52872540Y-60554172D01*
X52872540Y-60244028D01*
X52765210Y-59704444D01*
X52459561Y-59247007D01*
X52002124Y-58941358D01*
X51462540Y-58834028D01*
X50922956Y-58941358D01*
X50685000Y-59100355D01*
X50685000Y-54697845D01*
X50922956Y-54856842D01*
X51462540Y-54964172D01*
X52002124Y-54856842D01*
X52459561Y-54551193D01*
X52765210Y-54093756D01*
X52872540Y-53554172D01*
X52872540Y-53244028D01*
X52765210Y-52704444D01*
X52459561Y-52247007D01*
X52002124Y-51941358D01*
X51462540Y-51834028D01*
X50922956Y-51941358D01*
X50685000Y-52100355D01*
X50685000Y-50685000D01*
X55681026Y-50685000D01*
X55665000Y-50723690D01*
G36*
X91452560Y-61525000D02*
X91496451Y-61758260D01*
X91452560Y-61975000D01*
X91452560Y-62775000D01*
X91496838Y-63010317D01*
X91499739Y-63014825D01*
X91465000Y-63098691D01*
X91465000Y-63339250D01*
X91623750Y-63498000D01*
X92773000Y-63498000D01*
X92773000Y-63478000D01*
X93027000Y-63478000D01*
X93027000Y-63498000D01*
X93047000Y-63498000D01*
X93047000Y-63752000D01*
X93027000Y-63752000D01*
X93027000Y-63772000D01*
X92773000Y-63772000D01*
X92773000Y-63752000D01*
X91623750Y-63752000D01*
X91465000Y-63910750D01*
X91465000Y-64151309D01*
X91476078Y-64178053D01*
X91336672Y-64271200D01*
X90751063Y-64271200D01*
X90718927Y-64239008D01*
X90375399Y-64096362D01*
X90003433Y-64096038D01*
X89659657Y-64238083D01*
X89396408Y-64500873D01*
X89253762Y-64844401D01*
X89253438Y-65216367D01*
X89395483Y-65560143D01*
X89562608Y-65727560D01*
X88500000Y-65727560D01*
X88264683Y-65771838D01*
X88048559Y-65910910D01*
X87903569Y-66123110D01*
X87852560Y-66375000D01*
X87852560Y-68475000D01*
X87896838Y-68710317D01*
X88029125Y-68915896D01*
X87864683Y-68946838D01*
X87648559Y-69085910D01*
X87543274Y-69240000D01*
X87387902Y-69240000D01*
X86178322Y-68030420D01*
X86348110Y-68146431D01*
X86600000Y-68197440D01*
X87100000Y-68197440D01*
X87335317Y-68153162D01*
X87551441Y-68014090D01*
X87696431Y-67801890D01*
X87747440Y-67550000D01*
X87747440Y-66650000D01*
X87708171Y-66441302D01*
X87761500Y-66173200D01*
X87761500Y-63333297D01*
X87762124Y-63332363D01*
X87819976Y-63041524D01*
X87819976Y-62303105D01*
X87798711Y-62196200D01*
X87831098Y-62046902D01*
X87783574Y-61794331D01*
X87641529Y-61580149D01*
X87250380Y-61189000D01*
X91220700Y-61189000D01*
X91452560Y-61142880D01*
X91452560Y-61525000D01*
X91452560Y-61525000D01*
G37*
X91452560Y-61525000D02*
X91496451Y-61758260D01*
X91452560Y-61975000D01*
X91452560Y-62775000D01*
X91496838Y-63010317D01*
X91499739Y-63014825D01*
X91465000Y-63098691D01*
X91465000Y-63339250D01*
X91623750Y-63498000D01*
X92773000Y-63498000D01*
X92773000Y-63478000D01*
X93027000Y-63478000D01*
X93027000Y-63498000D01*
X93047000Y-63498000D01*
X93047000Y-63752000D01*
X93027000Y-63752000D01*
X93027000Y-63772000D01*
X92773000Y-63772000D01*
X92773000Y-63752000D01*
X91623750Y-63752000D01*
X91465000Y-63910750D01*
X91465000Y-64151309D01*
X91476078Y-64178053D01*
X91336672Y-64271200D01*
X90751063Y-64271200D01*
X90718927Y-64239008D01*
X90375399Y-64096362D01*
X90003433Y-64096038D01*
X89659657Y-64238083D01*
X89396408Y-64500873D01*
X89253762Y-64844401D01*
X89253438Y-65216367D01*
X89395483Y-65560143D01*
X89562608Y-65727560D01*
X88500000Y-65727560D01*
X88264683Y-65771838D01*
X88048559Y-65910910D01*
X87903569Y-66123110D01*
X87852560Y-66375000D01*
X87852560Y-68475000D01*
X87896838Y-68710317D01*
X88029125Y-68915896D01*
X87864683Y-68946838D01*
X87648559Y-69085910D01*
X87543274Y-69240000D01*
X87387902Y-69240000D01*
X86178322Y-68030420D01*
X86348110Y-68146431D01*
X86600000Y-68197440D01*
X87100000Y-68197440D01*
X87335317Y-68153162D01*
X87551441Y-68014090D01*
X87696431Y-67801890D01*
X87747440Y-67550000D01*
X87747440Y-66650000D01*
X87708171Y-66441302D01*
X87761500Y-66173200D01*
X87761500Y-63333297D01*
X87762124Y-63332363D01*
X87819976Y-63041524D01*
X87819976Y-62303105D01*
X87798711Y-62196200D01*
X87831098Y-62046902D01*
X87783574Y-61794331D01*
X87641529Y-61580149D01*
X87250380Y-61189000D01*
X91220700Y-61189000D01*
X91452560Y-61142880D01*
X91452560Y-61525000D01*
G36*
X67849799Y-66437401D02*
X68096360Y-66602148D01*
X68387200Y-66660000D01*
X70546598Y-66660000D01*
X70413499Y-66793099D01*
X70265230Y-67015000D01*
X70085750Y-67015000D01*
X69927000Y-67173750D01*
X69927000Y-67923000D01*
X69947000Y-67923000D01*
X69947000Y-68015400D01*
X69653000Y-68015400D01*
X69653000Y-67923000D01*
X69673000Y-67923000D01*
X69673000Y-67173750D01*
X69514250Y-67015000D01*
X69298690Y-67015000D01*
X69065301Y-67111673D01*
X69000000Y-67176974D01*
X68934699Y-67111673D01*
X68701310Y-67015000D01*
X68485750Y-67015000D01*
X68327000Y-67173750D01*
X68327000Y-67923000D01*
X68347000Y-67923000D01*
X68347000Y-68015400D01*
X68053000Y-68015400D01*
X68053000Y-67923000D01*
X68073000Y-67923000D01*
X68073000Y-67173750D01*
X67914250Y-67015000D01*
X67698690Y-67015000D01*
X67465301Y-67111673D01*
X67286673Y-67290302D01*
X67190000Y-67523691D01*
X67190000Y-67764250D01*
X67348748Y-67922998D01*
X67190000Y-67922998D01*
X67190000Y-68015400D01*
X66431340Y-68015400D01*
X66399839Y-67994352D01*
X66109000Y-67936500D01*
X65686525Y-67936500D01*
X65788327Y-67834699D01*
X65885000Y-67601310D01*
X65885000Y-67385750D01*
X65726250Y-67227000D01*
X64977000Y-67227000D01*
X64977000Y-67247000D01*
X64723000Y-67247000D01*
X64723000Y-67227000D01*
X64703000Y-67227000D01*
X64703000Y-66973000D01*
X64723000Y-66973000D01*
X64723000Y-65627000D01*
X64977000Y-65627000D01*
X64977000Y-66973000D01*
X65726250Y-66973000D01*
X65885000Y-66814250D01*
X65885000Y-66598690D01*
X65788327Y-66365301D01*
X65723026Y-66300000D01*
X65788327Y-66234699D01*
X65885000Y-66001310D01*
X65885000Y-65785750D01*
X65726250Y-65627000D01*
X64977000Y-65627000D01*
X64723000Y-65627000D01*
X64703000Y-65627000D01*
X64703000Y-65545255D01*
X64825967Y-65545362D01*
X65169743Y-65403317D01*
X65200113Y-65373000D01*
X65726250Y-65373000D01*
X65885000Y-65214250D01*
X65885000Y-64998690D01*
X65788327Y-64765301D01*
X65695825Y-64672800D01*
X66085198Y-64672800D01*
X67849799Y-66437401D01*
X67849799Y-66437401D01*
G37*
X67849799Y-66437401D02*
X68096360Y-66602148D01*
X68387200Y-66660000D01*
X70546598Y-66660000D01*
X70413499Y-66793099D01*
X70265230Y-67015000D01*
X70085750Y-67015000D01*
X69927000Y-67173750D01*
X69927000Y-67923000D01*
X69947000Y-67923000D01*
X69947000Y-68015400D01*
X69653000Y-68015400D01*
X69653000Y-67923000D01*
X69673000Y-67923000D01*
X69673000Y-67173750D01*
X69514250Y-67015000D01*
X69298690Y-67015000D01*
X69065301Y-67111673D01*
X69000000Y-67176974D01*
X68934699Y-67111673D01*
X68701310Y-67015000D01*
X68485750Y-67015000D01*
X68327000Y-67173750D01*
X68327000Y-67923000D01*
X68347000Y-67923000D01*
X68347000Y-68015400D01*
X68053000Y-68015400D01*
X68053000Y-67923000D01*
X68073000Y-67923000D01*
X68073000Y-67173750D01*
X67914250Y-67015000D01*
X67698690Y-67015000D01*
X67465301Y-67111673D01*
X67286673Y-67290302D01*
X67190000Y-67523691D01*
X67190000Y-67764250D01*
X67348748Y-67922998D01*
X67190000Y-67922998D01*
X67190000Y-68015400D01*
X66431340Y-68015400D01*
X66399839Y-67994352D01*
X66109000Y-67936500D01*
X65686525Y-67936500D01*
X65788327Y-67834699D01*
X65885000Y-67601310D01*
X65885000Y-67385750D01*
X65726250Y-67227000D01*
X64977000Y-67227000D01*
X64977000Y-67247000D01*
X64723000Y-67247000D01*
X64723000Y-67227000D01*
X64703000Y-67227000D01*
X64703000Y-66973000D01*
X64723000Y-66973000D01*
X64723000Y-65627000D01*
X64977000Y-65627000D01*
X64977000Y-66973000D01*
X65726250Y-66973000D01*
X65885000Y-66814250D01*
X65885000Y-66598690D01*
X65788327Y-66365301D01*
X65723026Y-66300000D01*
X65788327Y-66234699D01*
X65885000Y-66001310D01*
X65885000Y-65785750D01*
X65726250Y-65627000D01*
X64977000Y-65627000D01*
X64723000Y-65627000D01*
X64703000Y-65627000D01*
X64703000Y-65545255D01*
X64825967Y-65545362D01*
X65169743Y-65403317D01*
X65200113Y-65373000D01*
X65726250Y-65373000D01*
X65885000Y-65214250D01*
X65885000Y-64998690D01*
X65788327Y-64765301D01*
X65695825Y-64672800D01*
X66085198Y-64672800D01*
X67849799Y-66437401D01*
G36*
X68452560Y-62200000D02*
X68452560Y-63800000D01*
X68496838Y-64035317D01*
X68635910Y-64251441D01*
X68848110Y-64396431D01*
X69100000Y-64447440D01*
X70100000Y-64447440D01*
X70335317Y-64403162D01*
X70551441Y-64264090D01*
X70696431Y-64051890D01*
X70747440Y-63800000D01*
X70747440Y-63080424D01*
X70790000Y-63080461D01*
X70790000Y-65071614D01*
X70743274Y-65140000D01*
X68702002Y-65140000D01*
X67516212Y-63954210D01*
X67547440Y-63800000D01*
X67547440Y-62200000D01*
X67526497Y-62088700D01*
X68475099Y-62088700D01*
X68452560Y-62200000D01*
X68452560Y-62200000D01*
G37*
X68452560Y-62200000D02*
X68452560Y-63800000D01*
X68496838Y-64035317D01*
X68635910Y-64251441D01*
X68848110Y-64396431D01*
X69100000Y-64447440D01*
X70100000Y-64447440D01*
X70335317Y-64403162D01*
X70551441Y-64264090D01*
X70696431Y-64051890D01*
X70747440Y-63800000D01*
X70747440Y-63080424D01*
X70790000Y-63080461D01*
X70790000Y-65071614D01*
X70743274Y-65140000D01*
X68702002Y-65140000D01*
X67516212Y-63954210D01*
X67547440Y-63800000D01*
X67547440Y-62200000D01*
X67526497Y-62088700D01*
X68475099Y-62088700D01*
X68452560Y-62200000D01*
G36*
X84483399Y-60595601D02*
X84729960Y-60760348D01*
X84744048Y-60763150D01*
X82462681Y-63044517D01*
X82297934Y-63291079D01*
X82279753Y-63382482D01*
X82069200Y-63340600D01*
X81367763Y-63340600D01*
X81335627Y-63308408D01*
X80992099Y-63165762D01*
X80620133Y-63165438D01*
X80276357Y-63307483D01*
X80013108Y-63570273D01*
X79870462Y-63913801D01*
X79870195Y-64220824D01*
X77184994Y-61535692D01*
X77089900Y-61472154D01*
X77089900Y-57544602D01*
X77095300Y-57539202D01*
X77095601Y-57539001D01*
X78907602Y-55727000D01*
X79614798Y-55727000D01*
X84483399Y-60595601D01*
X84483399Y-60595601D01*
G37*
X84483399Y-60595601D02*
X84729960Y-60760348D01*
X84744048Y-60763150D01*
X82462681Y-63044517D01*
X82297934Y-63291079D01*
X82279753Y-63382482D01*
X82069200Y-63340600D01*
X81367763Y-63340600D01*
X81335627Y-63308408D01*
X80992099Y-63165762D01*
X80620133Y-63165438D01*
X80276357Y-63307483D01*
X80013108Y-63570273D01*
X79870462Y-63913801D01*
X79870195Y-64220824D01*
X77184994Y-61535692D01*
X77089900Y-61472154D01*
X77089900Y-57544602D01*
X77095300Y-57539202D01*
X77095601Y-57539001D01*
X78907602Y-55727000D01*
X79614798Y-55727000D01*
X84483399Y-60595601D01*
G36*
X75569900Y-59066898D02*
X75569900Y-61313100D01*
X74632800Y-61313100D01*
X74378871Y-61363610D01*
X74100435Y-61085174D01*
X73991558Y-61010781D01*
X73923657Y-60908397D01*
X73824931Y-60809671D01*
X75567706Y-59066896D01*
X75569900Y-59066898D01*
X75569900Y-59066898D01*
G37*
X75569900Y-59066898D02*
X75569900Y-61313100D01*
X74632800Y-61313100D01*
X74378871Y-61363610D01*
X74100435Y-61085174D01*
X73991558Y-61010781D01*
X73923657Y-60908397D01*
X73824931Y-60809671D01*
X75567706Y-59066896D01*
X75569900Y-59066898D01*
G36*
X93315000Y-55077560D02*
X92100000Y-55077560D01*
X91915371Y-55112300D01*
X91951441Y-55089090D01*
X92096431Y-54876890D01*
X92147440Y-54625000D01*
X92147440Y-52525000D01*
X92103162Y-52289683D01*
X91964090Y-52073559D01*
X91751890Y-51928569D01*
X91500000Y-51877560D01*
X88500000Y-51877560D01*
X88264683Y-51921838D01*
X88048559Y-52060910D01*
X87903569Y-52273110D01*
X87852560Y-52525000D01*
X87852560Y-54625000D01*
X87896838Y-54860317D01*
X88035910Y-55076441D01*
X88248110Y-55221431D01*
X88500000Y-55272440D01*
X91500000Y-55272440D01*
X91684629Y-55237700D01*
X91648559Y-55260910D01*
X91503569Y-55473110D01*
X91452560Y-55725000D01*
X91452560Y-56525000D01*
X91496451Y-56758260D01*
X91452560Y-56975000D01*
X91452560Y-57775000D01*
X91496451Y-58008260D01*
X91452560Y-58225000D01*
X91452560Y-59025000D01*
X91480769Y-59174917D01*
X91237299Y-59337599D01*
X90905898Y-59669000D01*
X87392380Y-59669000D01*
X87641529Y-59419851D01*
X87776614Y-59222148D01*
X87831098Y-58970986D01*
X87783574Y-58718415D01*
X87641529Y-58504233D01*
X87252621Y-58115325D01*
X87163812Y-58054644D01*
X87156362Y-58036659D01*
X87074649Y-57954946D01*
X86938317Y-57954946D01*
X86803756Y-57925756D01*
X86675819Y-57949829D01*
X86699727Y-57839616D01*
X86670537Y-57684483D01*
X86670537Y-57550834D01*
X86588824Y-57469121D01*
X86568380Y-57460653D01*
X86510158Y-57372863D01*
X86121250Y-56983955D01*
X86012376Y-56909565D01*
X85944473Y-56807177D01*
X85555565Y-56418269D01*
X85446688Y-56343876D01*
X85378787Y-56241492D01*
X84989879Y-55852584D01*
X84881005Y-55778194D01*
X84813102Y-55675806D01*
X84424194Y-55286898D01*
X84315317Y-55212505D01*
X84247416Y-55110121D01*
X83858508Y-54721213D01*
X83749634Y-54646823D01*
X83681731Y-54544435D01*
X83458999Y-54321703D01*
X84320402Y-53460300D01*
X85850000Y-53460300D01*
X86140839Y-53402448D01*
X86387401Y-53237701D01*
X86552148Y-52991139D01*
X86564918Y-52926940D01*
X86701441Y-52839090D01*
X86846431Y-52626890D01*
X86897440Y-52375000D01*
X86897440Y-51625000D01*
X86853162Y-51389683D01*
X86714090Y-51173559D01*
X86501890Y-51028569D01*
X86250000Y-50977560D01*
X85450000Y-50977560D01*
X85214683Y-51021838D01*
X85111354Y-51088329D01*
X85109698Y-51086673D01*
X84876309Y-50990000D01*
X84635750Y-50990000D01*
X84477000Y-51148750D01*
X84477000Y-51873000D01*
X84497000Y-51873000D01*
X84497000Y-51940300D01*
X84005600Y-51940300D01*
X83714761Y-51998152D01*
X83521926Y-52127000D01*
X83473750Y-52127000D01*
X83315000Y-52285750D01*
X83315000Y-52316098D01*
X82219828Y-53411270D01*
X82150336Y-53424346D01*
X82174244Y-53314132D01*
X82145054Y-53158999D01*
X82145054Y-53025351D01*
X82063341Y-52943638D01*
X82042898Y-52935170D01*
X81984675Y-52847379D01*
X81595767Y-52458471D01*
X81398064Y-52323386D01*
X81146902Y-52268902D01*
X80894331Y-52316426D01*
X80680149Y-52458471D01*
X79619489Y-53519131D01*
X79599709Y-53548079D01*
X79580511Y-53519131D01*
X78519851Y-52458471D01*
X78322148Y-52323386D01*
X78070986Y-52268902D01*
X77818415Y-52316426D01*
X77604233Y-52458471D01*
X77215325Y-52847379D01*
X77140932Y-52956256D01*
X77038548Y-53024157D01*
X76980525Y-53082180D01*
X76938527Y-53040108D01*
X76594999Y-52897462D01*
X76223033Y-52897138D01*
X75879257Y-53039183D01*
X75616008Y-53301973D01*
X75516261Y-53542189D01*
X75315157Y-53625283D01*
X75051908Y-53888073D01*
X74909262Y-54231601D01*
X74908938Y-54603567D01*
X75000876Y-54826074D01*
X74860000Y-54685198D01*
X74860000Y-54056844D01*
X74926441Y-54014090D01*
X75071431Y-53801890D01*
X75122440Y-53550000D01*
X75122440Y-52750000D01*
X75078162Y-52514683D01*
X75011671Y-52411354D01*
X75013327Y-52409698D01*
X75110000Y-52176309D01*
X75110000Y-51935750D01*
X74951250Y-51777000D01*
X74227000Y-51777000D01*
X74227000Y-51797000D01*
X73973000Y-51797000D01*
X73973000Y-51777000D01*
X73248750Y-51777000D01*
X73237986Y-51787764D01*
X73140239Y-51722452D01*
X72849400Y-51664600D01*
X68653000Y-51664600D01*
X68653000Y-51425000D01*
X68673000Y-51425000D01*
X68673000Y-51403000D01*
X68927000Y-51403000D01*
X68927000Y-51425000D01*
X69650750Y-51425000D01*
X69748750Y-51523000D01*
X70473000Y-51523000D01*
X70473000Y-51503000D01*
X70727000Y-51503000D01*
X70727000Y-51523000D01*
X72173000Y-51523000D01*
X72173000Y-51503000D01*
X72427000Y-51503000D01*
X72427000Y-51523000D01*
X73151250Y-51523000D01*
X73200000Y-51474250D01*
X73248750Y-51523000D01*
X73973000Y-51523000D01*
X73973000Y-51503000D01*
X74227000Y-51503000D01*
X74227000Y-51523000D01*
X74951250Y-51523000D01*
X74975560Y-51498690D01*
X83315000Y-51498690D01*
X83315000Y-51714250D01*
X83473750Y-51873000D01*
X84223000Y-51873000D01*
X84223000Y-51148750D01*
X84064250Y-50990000D01*
X83823691Y-50990000D01*
X83590302Y-51086673D01*
X83411673Y-51265301D01*
X83315000Y-51498690D01*
X74975560Y-51498690D01*
X75110000Y-51364250D01*
X75110000Y-51123691D01*
X75013327Y-50890302D01*
X74834699Y-50711673D01*
X74770305Y-50685000D01*
X93315000Y-50685000D01*
X93315000Y-55077560D01*
X93315000Y-55077560D01*
G37*
X93315000Y-55077560D02*
X92100000Y-55077560D01*
X91915371Y-55112300D01*
X91951441Y-55089090D01*
X92096431Y-54876890D01*
X92147440Y-54625000D01*
X92147440Y-52525000D01*
X92103162Y-52289683D01*
X91964090Y-52073559D01*
X91751890Y-51928569D01*
X91500000Y-51877560D01*
X88500000Y-51877560D01*
X88264683Y-51921838D01*
X88048559Y-52060910D01*
X87903569Y-52273110D01*
X87852560Y-52525000D01*
X87852560Y-54625000D01*
X87896838Y-54860317D01*
X88035910Y-55076441D01*
X88248110Y-55221431D01*
X88500000Y-55272440D01*
X91500000Y-55272440D01*
X91684629Y-55237700D01*
X91648559Y-55260910D01*
X91503569Y-55473110D01*
X91452560Y-55725000D01*
X91452560Y-56525000D01*
X91496451Y-56758260D01*
X91452560Y-56975000D01*
X91452560Y-57775000D01*
X91496451Y-58008260D01*
X91452560Y-58225000D01*
X91452560Y-59025000D01*
X91480769Y-59174917D01*
X91237299Y-59337599D01*
X90905898Y-59669000D01*
X87392380Y-59669000D01*
X87641529Y-59419851D01*
X87776614Y-59222148D01*
X87831098Y-58970986D01*
X87783574Y-58718415D01*
X87641529Y-58504233D01*
X87252621Y-58115325D01*
X87163812Y-58054644D01*
X87156362Y-58036659D01*
X87074649Y-57954946D01*
X86938317Y-57954946D01*
X86803756Y-57925756D01*
X86675819Y-57949829D01*
X86699727Y-57839616D01*
X86670537Y-57684483D01*
X86670537Y-57550834D01*
X86588824Y-57469121D01*
X86568380Y-57460653D01*
X86510158Y-57372863D01*
X86121250Y-56983955D01*
X86012376Y-56909565D01*
X85944473Y-56807177D01*
X85555565Y-56418269D01*
X85446688Y-56343876D01*
X85378787Y-56241492D01*
X84989879Y-55852584D01*
X84881005Y-55778194D01*
X84813102Y-55675806D01*
X84424194Y-55286898D01*
X84315317Y-55212505D01*
X84247416Y-55110121D01*
X83858508Y-54721213D01*
X83749634Y-54646823D01*
X83681731Y-54544435D01*
X83458999Y-54321703D01*
X84320402Y-53460300D01*
X85850000Y-53460300D01*
X86140839Y-53402448D01*
X86387401Y-53237701D01*
X86552148Y-52991139D01*
X86564918Y-52926940D01*
X86701441Y-52839090D01*
X86846431Y-52626890D01*
X86897440Y-52375000D01*
X86897440Y-51625000D01*
X86853162Y-51389683D01*
X86714090Y-51173559D01*
X86501890Y-51028569D01*
X86250000Y-50977560D01*
X85450000Y-50977560D01*
X85214683Y-51021838D01*
X85111354Y-51088329D01*
X85109698Y-51086673D01*
X84876309Y-50990000D01*
X84635750Y-50990000D01*
X84477000Y-51148750D01*
X84477000Y-51873000D01*
X84497000Y-51873000D01*
X84497000Y-51940300D01*
X84005600Y-51940300D01*
X83714761Y-51998152D01*
X83521926Y-52127000D01*
X83473750Y-52127000D01*
X83315000Y-52285750D01*
X83315000Y-52316098D01*
X82219828Y-53411270D01*
X82150336Y-53424346D01*
X82174244Y-53314132D01*
X82145054Y-53158999D01*
X82145054Y-53025351D01*
X82063341Y-52943638D01*
X82042898Y-52935170D01*
X81984675Y-52847379D01*
X81595767Y-52458471D01*
X81398064Y-52323386D01*
X81146902Y-52268902D01*
X80894331Y-52316426D01*
X80680149Y-52458471D01*
X79619489Y-53519131D01*
X79599709Y-53548079D01*
X79580511Y-53519131D01*
X78519851Y-52458471D01*
X78322148Y-52323386D01*
X78070986Y-52268902D01*
X77818415Y-52316426D01*
X77604233Y-52458471D01*
X77215325Y-52847379D01*
X77140932Y-52956256D01*
X77038548Y-53024157D01*
X76980525Y-53082180D01*
X76938527Y-53040108D01*
X76594999Y-52897462D01*
X76223033Y-52897138D01*
X75879257Y-53039183D01*
X75616008Y-53301973D01*
X75516261Y-53542189D01*
X75315157Y-53625283D01*
X75051908Y-53888073D01*
X74909262Y-54231601D01*
X74908938Y-54603567D01*
X75000876Y-54826074D01*
X74860000Y-54685198D01*
X74860000Y-54056844D01*
X74926441Y-54014090D01*
X75071431Y-53801890D01*
X75122440Y-53550000D01*
X75122440Y-52750000D01*
X75078162Y-52514683D01*
X75011671Y-52411354D01*
X75013327Y-52409698D01*
X75110000Y-52176309D01*
X75110000Y-51935750D01*
X74951250Y-51777000D01*
X74227000Y-51777000D01*
X74227000Y-51797000D01*
X73973000Y-51797000D01*
X73973000Y-51777000D01*
X73248750Y-51777000D01*
X73237986Y-51787764D01*
X73140239Y-51722452D01*
X72849400Y-51664600D01*
X68653000Y-51664600D01*
X68653000Y-51425000D01*
X68673000Y-51425000D01*
X68673000Y-51403000D01*
X68927000Y-51403000D01*
X68927000Y-51425000D01*
X69650750Y-51425000D01*
X69748750Y-51523000D01*
X70473000Y-51523000D01*
X70473000Y-51503000D01*
X70727000Y-51503000D01*
X70727000Y-51523000D01*
X72173000Y-51523000D01*
X72173000Y-51503000D01*
X72427000Y-51503000D01*
X72427000Y-51523000D01*
X73151250Y-51523000D01*
X73200000Y-51474250D01*
X73248750Y-51523000D01*
X73973000Y-51523000D01*
X73973000Y-51503000D01*
X74227000Y-51503000D01*
X74227000Y-51523000D01*
X74951250Y-51523000D01*
X74975560Y-51498690D01*
X83315000Y-51498690D01*
X83315000Y-51714250D01*
X83473750Y-51873000D01*
X84223000Y-51873000D01*
X84223000Y-51148750D01*
X84064250Y-50990000D01*
X83823691Y-50990000D01*
X83590302Y-51086673D01*
X83411673Y-51265301D01*
X83315000Y-51498690D01*
X74975560Y-51498690D01*
X75110000Y-51364250D01*
X75110000Y-51123691D01*
X75013327Y-50890302D01*
X74834699Y-50711673D01*
X74770305Y-50685000D01*
X93315000Y-50685000D01*
X93315000Y-55077560D01*
G36*
X68465000Y-57588419D02*
X68371733Y-57588338D01*
X68027957Y-57730383D01*
X67764708Y-57993173D01*
X67622062Y-58336701D01*
X67622037Y-58365300D01*
X67547440Y-58365300D01*
X67547440Y-57249400D01*
X68465000Y-57249400D01*
X68465000Y-57588419D01*
X68465000Y-57588419D01*
G37*
X68465000Y-57588419D02*
X68371733Y-57588338D01*
X68027957Y-57730383D01*
X67764708Y-57993173D01*
X67622062Y-58336701D01*
X67622037Y-58365300D01*
X67547440Y-58365300D01*
X67547440Y-57249400D01*
X68465000Y-57249400D01*
X68465000Y-57588419D01*
G36*
X69727000Y-57873000D02*
X69747000Y-57873000D01*
X69747000Y-58127000D01*
X69727000Y-58127000D01*
X69727000Y-58147000D01*
X69473000Y-58147000D01*
X69473000Y-58127000D01*
X69453000Y-58127000D01*
X69453000Y-57873000D01*
X69473000Y-57873000D01*
X69473000Y-57853000D01*
X69727000Y-57853000D01*
X69727000Y-57873000D01*
X69727000Y-57873000D01*
G37*
X69727000Y-57873000D02*
X69747000Y-57873000D01*
X69747000Y-58127000D01*
X69727000Y-58127000D01*
X69727000Y-58147000D01*
X69473000Y-58147000D01*
X69473000Y-58127000D01*
X69453000Y-58127000D01*
X69453000Y-57873000D01*
X69473000Y-57873000D01*
X69473000Y-57853000D01*
X69727000Y-57853000D01*
X69727000Y-57873000D01*
G36*
X73260910Y-54001441D02*
X73340000Y-54055481D01*
X73340000Y-55000000D01*
X73397852Y-55290839D01*
X73510988Y-55460160D01*
X73458657Y-55481783D01*
X73210608Y-55729400D01*
X69545402Y-55729400D01*
X70414802Y-54860000D01*
X72000000Y-54860000D01*
X72290839Y-54802148D01*
X72537401Y-54637401D01*
X72837401Y-54337401D01*
X72998360Y-54096508D01*
X73126441Y-54014090D01*
X73199884Y-53906603D01*
X73260910Y-54001441D01*
X73260910Y-54001441D01*
G37*
X73260910Y-54001441D02*
X73340000Y-54055481D01*
X73340000Y-55000000D01*
X73397852Y-55290839D01*
X73510988Y-55460160D01*
X73458657Y-55481783D01*
X73210608Y-55729400D01*
X69545402Y-55729400D01*
X70414802Y-54860000D01*
X72000000Y-54860000D01*
X72290839Y-54802148D01*
X72537401Y-54637401D01*
X72837401Y-54337401D01*
X72998360Y-54096508D01*
X73126441Y-54014090D01*
X73199884Y-53906603D01*
X73260910Y-54001441D01*
G36*
X64465301Y-50711673D02*
X64286673Y-50890302D01*
X64190000Y-51123691D01*
X64190000Y-51364250D01*
X64348750Y-51523000D01*
X65073000Y-51523000D01*
X65073000Y-51503000D01*
X65327000Y-51503000D01*
X65327000Y-51523000D01*
X65347000Y-51523000D01*
X65347000Y-51653400D01*
X64536900Y-51653400D01*
X64349381Y-51690700D01*
X64069100Y-51690700D01*
X63778261Y-51748552D01*
X63531699Y-51913299D01*
X63119799Y-52325199D01*
X62955052Y-52571761D01*
X62897200Y-52862600D01*
X62897200Y-53135237D01*
X62865008Y-53167373D01*
X62722362Y-53510901D01*
X62722038Y-53882867D01*
X62864083Y-54226643D01*
X62883406Y-54246000D01*
X61685000Y-54246000D01*
X61685000Y-53885750D01*
X61526250Y-53727000D01*
X60202000Y-53727000D01*
X60202000Y-53747000D01*
X59948000Y-53747000D01*
X59948000Y-53727000D01*
X59928000Y-53727000D01*
X59928000Y-53473000D01*
X59948000Y-53473000D01*
X59948000Y-53453000D01*
X60202000Y-53453000D01*
X60202000Y-53473000D01*
X61526250Y-53473000D01*
X61685000Y-53314250D01*
X61685000Y-52723690D01*
X61588327Y-52490301D01*
X61409698Y-52311673D01*
X61277002Y-52256708D01*
X61277002Y-52151252D01*
X61435750Y-52310000D01*
X61676309Y-52310000D01*
X61909698Y-52213327D01*
X62088327Y-52034699D01*
X62185000Y-51801310D01*
X62185000Y-51585750D01*
X62026250Y-51427000D01*
X61277000Y-51427000D01*
X61277000Y-51447000D01*
X61023000Y-51447000D01*
X61023000Y-51427000D01*
X61003000Y-51427000D01*
X61003000Y-51173000D01*
X61023000Y-51173000D01*
X61023000Y-51153000D01*
X61277000Y-51153000D01*
X61277000Y-51173000D01*
X62026250Y-51173000D01*
X62185000Y-51014250D01*
X62185000Y-50798690D01*
X62137908Y-50685000D01*
X64529695Y-50685000D01*
X64465301Y-50711673D01*
X64465301Y-50711673D01*
G37*
X64465301Y-50711673D02*
X64286673Y-50890302D01*
X64190000Y-51123691D01*
X64190000Y-51364250D01*
X64348750Y-51523000D01*
X65073000Y-51523000D01*
X65073000Y-51503000D01*
X65327000Y-51503000D01*
X65327000Y-51523000D01*
X65347000Y-51523000D01*
X65347000Y-51653400D01*
X64536900Y-51653400D01*
X64349381Y-51690700D01*
X64069100Y-51690700D01*
X63778261Y-51748552D01*
X63531699Y-51913299D01*
X63119799Y-52325199D01*
X62955052Y-52571761D01*
X62897200Y-52862600D01*
X62897200Y-53135237D01*
X62865008Y-53167373D01*
X62722362Y-53510901D01*
X62722038Y-53882867D01*
X62864083Y-54226643D01*
X62883406Y-54246000D01*
X61685000Y-54246000D01*
X61685000Y-53885750D01*
X61526250Y-53727000D01*
X60202000Y-53727000D01*
X60202000Y-53747000D01*
X59948000Y-53747000D01*
X59948000Y-53727000D01*
X59928000Y-53727000D01*
X59928000Y-53473000D01*
X59948000Y-53473000D01*
X59948000Y-53453000D01*
X60202000Y-53453000D01*
X60202000Y-53473000D01*
X61526250Y-53473000D01*
X61685000Y-53314250D01*
X61685000Y-52723690D01*
X61588327Y-52490301D01*
X61409698Y-52311673D01*
X61277002Y-52256708D01*
X61277002Y-52151252D01*
X61435750Y-52310000D01*
X61676309Y-52310000D01*
X61909698Y-52213327D01*
X62088327Y-52034699D01*
X62185000Y-51801310D01*
X62185000Y-51585750D01*
X62026250Y-51427000D01*
X61277000Y-51427000D01*
X61277000Y-51447000D01*
X61023000Y-51447000D01*
X61023000Y-51427000D01*
X61003000Y-51427000D01*
X61003000Y-51173000D01*
X61023000Y-51173000D01*
X61023000Y-51153000D01*
X61277000Y-51153000D01*
X61277000Y-51173000D01*
X62026250Y-51173000D01*
X62185000Y-51014250D01*
X62185000Y-50798690D01*
X62137908Y-50685000D01*
X64529695Y-50685000D01*
X64465301Y-50711673D01*
M02*
