G04 #@! TF.FileFunction,Legend,Top*
%FSLAX46Y46*%
G04 Gerber Fmt 4.6, Leading zero omitted, Abs format (unit mm)*
G04 Created by KiCad (PCBNEW 4.0.4+dfsg1-stable) date Sat Jan 21 21:23:35 2017*
%MOMM*%
%LPD*%
G01*
G04 APERTURE LIST*
%ADD10C,0.100000*%
%ADD11C,0.150000*%
G04 APERTURE END LIST*
D10*
D11*
X92969048Y-68571429D02*
X93730953Y-68571429D01*
X89100000Y-69275000D02*
X90100000Y-69275000D01*
X90100000Y-70625000D02*
X89100000Y-70625000D01*
X93500000Y-69400000D02*
X91600000Y-69400000D01*
X93500000Y-70500000D02*
X91600000Y-70500000D01*
X92600000Y-69950000D02*
X92150000Y-69950000D01*
X92650000Y-70200000D02*
X92650000Y-69700000D01*
X92650000Y-69950000D02*
X92400000Y-70200000D01*
X92400000Y-70200000D02*
X92400000Y-69700000D01*
X92400000Y-69700000D02*
X92650000Y-69950000D01*
X71000000Y-55400000D02*
X70300000Y-55400000D01*
X70300000Y-54200000D02*
X71000000Y-54200000D01*
X65850000Y-67200000D02*
X65850000Y-66500000D01*
X67050000Y-66500000D02*
X67050000Y-67200000D01*
X67650000Y-65100000D02*
X66950000Y-65100000D01*
X66950000Y-63900000D02*
X67650000Y-63900000D01*
X56849040Y-54898880D02*
X62050960Y-54898880D01*
X62050960Y-52501120D02*
X56849040Y-52501120D01*
X55850820Y-51401300D02*
X55850820Y-52501120D01*
X55251380Y-51901680D02*
X56450260Y-51901680D01*
X56353740Y-52501120D02*
X56353740Y-54898880D01*
X85850000Y-53900000D02*
X85150000Y-53900000D01*
X85150000Y-52700000D02*
X85850000Y-52700000D01*
X64650000Y-65100000D02*
X63950000Y-65100000D01*
X63950000Y-63900000D02*
X64650000Y-63900000D01*
X87750000Y-55200000D02*
X87750000Y-55900000D01*
X86550000Y-55900000D02*
X86550000Y-55200000D01*
X59751120Y-59499040D02*
X59751120Y-64700960D01*
X62148880Y-64700960D02*
X62148880Y-59499040D01*
X63248700Y-58500820D02*
X62148880Y-58500820D01*
X62748320Y-57901380D02*
X62748320Y-59100260D01*
X62148880Y-59003740D02*
X59751120Y-59003740D01*
X70300000Y-52700000D02*
X71000000Y-52700000D01*
X71000000Y-53900000D02*
X70300000Y-53900000D01*
X71000000Y-56950000D02*
X70300000Y-56950000D01*
X70300000Y-55750000D02*
X71000000Y-55750000D01*
X67200000Y-55750000D02*
X67900000Y-55750000D01*
X67900000Y-56950000D02*
X67200000Y-56950000D01*
X61200000Y-68250000D02*
X60500000Y-68250000D01*
X60500000Y-67050000D02*
X61200000Y-67050000D01*
X61100000Y-55300000D02*
X61800000Y-55300000D01*
X61800000Y-56500000D02*
X61100000Y-56500000D01*
X61800000Y-58050000D02*
X61100000Y-58050000D01*
X61100000Y-56850000D02*
X61800000Y-56850000D01*
X67900000Y-55450000D02*
X67200000Y-55450000D01*
X67200000Y-54250000D02*
X67900000Y-54250000D01*
X48782540Y-52549100D02*
X48782540Y-61249100D01*
X55187540Y-52549100D02*
X55187540Y-61249100D01*
X55187540Y-61249100D02*
X48782540Y-61249100D01*
X50012540Y-61249100D02*
X50012540Y-52549100D01*
X48782540Y-52549100D02*
X55187540Y-52549100D01*
X63100000Y-57900000D02*
X70100000Y-57900000D01*
X63100000Y-63100000D02*
X70100000Y-63100000D01*
X70100000Y-63100000D02*
X70100000Y-62100000D01*
X93700000Y-55225000D02*
X92000000Y-55225000D01*
X92000000Y-55225000D02*
X92000000Y-52025000D01*
X92000000Y-52025000D02*
X88100000Y-52025000D01*
X88100000Y-52025000D02*
X88100000Y-68975000D01*
X88100000Y-68975000D02*
X92000000Y-68975000D01*
X92000000Y-68975000D02*
X92000000Y-67975000D01*
X94200000Y-56125000D02*
X94700000Y-55625000D01*
X94700000Y-55625000D02*
X94700000Y-56625000D01*
X94700000Y-56625000D02*
X94200000Y-56125000D01*
X88100000Y-52400000D02*
X88100000Y-50000000D01*
X88100000Y-52400000D02*
X65300000Y-52400000D01*
X65300000Y-50000000D02*
X88100000Y-50000000D01*
X50000000Y-50000000D02*
X50000000Y-51300000D01*
X65300000Y-52400000D02*
X54300000Y-52400000D01*
X50000000Y-51200000D02*
X50000000Y-52400000D01*
X50000000Y-52400000D02*
X54500000Y-52400000D01*
X65300000Y-50000000D02*
X50000000Y-50000000D01*
X50000000Y-68550000D02*
X50000000Y-70950000D01*
X50000000Y-68550000D02*
X72800000Y-68550000D01*
X72800000Y-70950000D02*
X50000000Y-70950000D01*
X88100000Y-70950000D02*
X88100000Y-69650000D01*
X72800000Y-68550000D02*
X83800000Y-68550000D01*
X88100000Y-69750000D02*
X88100000Y-68550000D01*
X88100000Y-68550000D02*
X83600000Y-68550000D01*
X72800000Y-70950000D02*
X88100000Y-70950000D01*
X70725000Y-64400000D02*
X70725000Y-63400000D01*
X72075000Y-63400000D02*
X72075000Y-64400000D01*
X56300000Y-56675000D02*
X57300000Y-56675000D01*
X57300000Y-58025000D02*
X56300000Y-58025000D01*
X56300000Y-55075000D02*
X57300000Y-55075000D01*
X57300000Y-56425000D02*
X56300000Y-56425000D01*
X63800000Y-65525000D02*
X64800000Y-65525000D01*
X64800000Y-66875000D02*
X63800000Y-66875000D01*
X73050000Y-68275000D02*
X72050000Y-68275000D01*
X72050000Y-66925000D02*
X73050000Y-66925000D01*
X73050000Y-66675000D02*
X72050000Y-66675000D01*
X72050000Y-65325000D02*
X73050000Y-65325000D01*
X87200000Y-68325000D02*
X86200000Y-68325000D01*
X86200000Y-66975000D02*
X87200000Y-66975000D01*
X60200000Y-65425000D02*
X61200000Y-65425000D01*
X61200000Y-66775000D02*
X60200000Y-66775000D01*
X68200000Y-53975000D02*
X67200000Y-53975000D01*
X67200000Y-52625000D02*
X68200000Y-52625000D01*
X79600000Y-53181445D02*
X79193414Y-53588031D01*
X86918555Y-60500000D02*
X86441258Y-60977297D01*
X79600000Y-67818555D02*
X80077297Y-67341258D01*
X72281445Y-60500000D02*
X72758742Y-60022703D01*
X79600000Y-53181445D02*
X80077297Y-53658742D01*
X72281445Y-60500000D02*
X72758742Y-60977297D01*
X79600000Y-67818555D02*
X79122703Y-67341258D01*
X86918555Y-60500000D02*
X86441258Y-60022703D01*
X79193414Y-53588031D02*
X78291852Y-52686470D01*
X56174000Y-68506000D02*
X59222000Y-68506000D01*
X59222000Y-68506000D02*
X59222000Y-61394000D01*
X59222000Y-61394000D02*
X56174000Y-61394000D01*
X53126000Y-68506000D02*
X52364000Y-68506000D01*
X52364000Y-68506000D02*
X50078000Y-66982000D01*
X50078000Y-66982000D02*
X50078000Y-62918000D01*
X50078000Y-62918000D02*
X52364000Y-61394000D01*
X52364000Y-61394000D02*
X53126000Y-61394000D01*
X67600000Y-65550000D02*
X70800000Y-65550000D01*
X70800000Y-65550000D02*
X70800000Y-68150000D01*
X70800000Y-68150000D02*
X67600000Y-68150000D01*
X67600000Y-68150000D02*
X67600000Y-65550000D01*
X90102381Y-70016666D02*
X89626190Y-70350000D01*
X90102381Y-70588095D02*
X89102381Y-70588095D01*
X89102381Y-70207142D01*
X89150000Y-70111904D01*
X89197619Y-70064285D01*
X89292857Y-70016666D01*
X89435714Y-70016666D01*
X89530952Y-70064285D01*
X89578571Y-70111904D01*
X89626190Y-70207142D01*
X89626190Y-70588095D01*
X90102381Y-69540476D02*
X90102381Y-69350000D01*
X90054762Y-69254761D01*
X90007143Y-69207142D01*
X89864286Y-69111904D01*
X89673810Y-69064285D01*
X89292857Y-69064285D01*
X89197619Y-69111904D01*
X89150000Y-69159523D01*
X89102381Y-69254761D01*
X89102381Y-69445238D01*
X89150000Y-69540476D01*
X89197619Y-69588095D01*
X89292857Y-69635714D01*
X89530952Y-69635714D01*
X89626190Y-69588095D01*
X89673810Y-69540476D01*
X89721429Y-69445238D01*
X89721429Y-69254761D01*
X89673810Y-69159523D01*
X89626190Y-69111904D01*
X89530952Y-69064285D01*
X72807143Y-55157143D02*
X72759524Y-55204762D01*
X72616667Y-55252381D01*
X72521429Y-55252381D01*
X72378571Y-55204762D01*
X72283333Y-55109524D01*
X72235714Y-55014286D01*
X72188095Y-54823810D01*
X72188095Y-54680952D01*
X72235714Y-54490476D01*
X72283333Y-54395238D01*
X72378571Y-54300000D01*
X72521429Y-54252381D01*
X72616667Y-54252381D01*
X72759524Y-54300000D01*
X72807143Y-54347619D01*
X73759524Y-55252381D02*
X73188095Y-55252381D01*
X73473809Y-55252381D02*
X73473809Y-54252381D01*
X73378571Y-54395238D01*
X73283333Y-54490476D01*
X73188095Y-54538095D01*
X74664286Y-54252381D02*
X74188095Y-54252381D01*
X74140476Y-54728571D01*
X74188095Y-54680952D01*
X74283333Y-54633333D01*
X74521429Y-54633333D01*
X74616667Y-54680952D01*
X74664286Y-54728571D01*
X74711905Y-54823810D01*
X74711905Y-55061905D01*
X74664286Y-55157143D01*
X74616667Y-55204762D01*
X74521429Y-55252381D01*
X74283333Y-55252381D01*
X74188095Y-55204762D01*
X74140476Y-55157143D01*
X65507143Y-67916666D02*
X65554762Y-67964285D01*
X65602381Y-68107142D01*
X65602381Y-68202380D01*
X65554762Y-68345238D01*
X65459524Y-68440476D01*
X65364286Y-68488095D01*
X65173810Y-68535714D01*
X65030952Y-68535714D01*
X64840476Y-68488095D01*
X64745238Y-68440476D01*
X64650000Y-68345238D01*
X64602381Y-68202380D01*
X64602381Y-68107142D01*
X64650000Y-67964285D01*
X64697619Y-67916666D01*
X65602381Y-66964285D02*
X65602381Y-67535714D01*
X65602381Y-67250000D02*
X64602381Y-67250000D01*
X64745238Y-67345238D01*
X64840476Y-67440476D01*
X64888095Y-67535714D01*
X67133334Y-63657143D02*
X67085715Y-63704762D01*
X66942858Y-63752381D01*
X66847620Y-63752381D01*
X66704762Y-63704762D01*
X66609524Y-63609524D01*
X66561905Y-63514286D01*
X66514286Y-63323810D01*
X66514286Y-63180952D01*
X66561905Y-62990476D01*
X66609524Y-62895238D01*
X66704762Y-62800000D01*
X66847620Y-62752381D01*
X66942858Y-62752381D01*
X67085715Y-62800000D01*
X67133334Y-62847619D01*
X67514286Y-62847619D02*
X67561905Y-62800000D01*
X67657143Y-62752381D01*
X67895239Y-62752381D01*
X67990477Y-62800000D01*
X68038096Y-62847619D01*
X68085715Y-62942857D01*
X68085715Y-63038095D01*
X68038096Y-63180952D01*
X67466667Y-63752381D01*
X68085715Y-63752381D01*
X59283334Y-52407143D02*
X59235715Y-52454762D01*
X59092858Y-52502381D01*
X58997620Y-52502381D01*
X58854762Y-52454762D01*
X58759524Y-52359524D01*
X58711905Y-52264286D01*
X58664286Y-52073810D01*
X58664286Y-51930952D01*
X58711905Y-51740476D01*
X58759524Y-51645238D01*
X58854762Y-51550000D01*
X58997620Y-51502381D01*
X59092858Y-51502381D01*
X59235715Y-51550000D01*
X59283334Y-51597619D01*
X59616667Y-51502381D02*
X60235715Y-51502381D01*
X59902381Y-51883333D01*
X60045239Y-51883333D01*
X60140477Y-51930952D01*
X60188096Y-51978571D01*
X60235715Y-52073810D01*
X60235715Y-52311905D01*
X60188096Y-52407143D01*
X60140477Y-52454762D01*
X60045239Y-52502381D01*
X59759524Y-52502381D01*
X59664286Y-52454762D01*
X59616667Y-52407143D01*
X55469048Y-51971429D02*
X56230953Y-51971429D01*
X55850001Y-52352381D02*
X55850001Y-51590476D01*
X84183334Y-55057143D02*
X84135715Y-55104762D01*
X83992858Y-55152381D01*
X83897620Y-55152381D01*
X83754762Y-55104762D01*
X83659524Y-55009524D01*
X83611905Y-54914286D01*
X83564286Y-54723810D01*
X83564286Y-54580952D01*
X83611905Y-54390476D01*
X83659524Y-54295238D01*
X83754762Y-54200000D01*
X83897620Y-54152381D01*
X83992858Y-54152381D01*
X84135715Y-54200000D01*
X84183334Y-54247619D01*
X85040477Y-54485714D02*
X85040477Y-55152381D01*
X84802381Y-54104762D02*
X84564286Y-54819048D01*
X85183334Y-54819048D01*
X64233334Y-63757143D02*
X64185715Y-63804762D01*
X64042858Y-63852381D01*
X63947620Y-63852381D01*
X63804762Y-63804762D01*
X63709524Y-63709524D01*
X63661905Y-63614286D01*
X63614286Y-63423810D01*
X63614286Y-63280952D01*
X63661905Y-63090476D01*
X63709524Y-62995238D01*
X63804762Y-62900000D01*
X63947620Y-62852381D01*
X64042858Y-62852381D01*
X64185715Y-62900000D01*
X64233334Y-62947619D01*
X65138096Y-62852381D02*
X64661905Y-62852381D01*
X64614286Y-63328571D01*
X64661905Y-63280952D01*
X64757143Y-63233333D01*
X64995239Y-63233333D01*
X65090477Y-63280952D01*
X65138096Y-63328571D01*
X65185715Y-63423810D01*
X65185715Y-63661905D01*
X65138096Y-63757143D01*
X65090477Y-63804762D01*
X64995239Y-63852381D01*
X64757143Y-63852381D01*
X64661905Y-63804762D01*
X64614286Y-63757143D01*
X86257143Y-56216666D02*
X86304762Y-56264285D01*
X86352381Y-56407142D01*
X86352381Y-56502380D01*
X86304762Y-56645238D01*
X86209524Y-56740476D01*
X86114286Y-56788095D01*
X85923810Y-56835714D01*
X85780952Y-56835714D01*
X85590476Y-56788095D01*
X85495238Y-56740476D01*
X85400000Y-56645238D01*
X85352381Y-56502380D01*
X85352381Y-56407142D01*
X85400000Y-56264285D01*
X85447619Y-56216666D01*
X85352381Y-55359523D02*
X85352381Y-55550000D01*
X85400000Y-55645238D01*
X85447619Y-55692857D01*
X85590476Y-55788095D01*
X85780952Y-55835714D01*
X86161905Y-55835714D01*
X86257143Y-55788095D01*
X86304762Y-55740476D01*
X86352381Y-55645238D01*
X86352381Y-55454761D01*
X86304762Y-55359523D01*
X86257143Y-55311904D01*
X86161905Y-55264285D01*
X85923810Y-55264285D01*
X85828571Y-55311904D01*
X85780952Y-55359523D01*
X85733333Y-55454761D01*
X85733333Y-55645238D01*
X85780952Y-55740476D01*
X85828571Y-55788095D01*
X85923810Y-55835714D01*
X59407143Y-60566666D02*
X59454762Y-60614285D01*
X59502381Y-60757142D01*
X59502381Y-60852380D01*
X59454762Y-60995238D01*
X59359524Y-61090476D01*
X59264286Y-61138095D01*
X59073810Y-61185714D01*
X58930952Y-61185714D01*
X58740476Y-61138095D01*
X58645238Y-61090476D01*
X58550000Y-60995238D01*
X58502381Y-60852380D01*
X58502381Y-60757142D01*
X58550000Y-60614285D01*
X58597619Y-60566666D01*
X58502381Y-60233333D02*
X58502381Y-59566666D01*
X59502381Y-59995238D01*
X62822289Y-58881772D02*
X62822289Y-58119867D01*
X63203241Y-58500819D02*
X62441336Y-58500819D01*
X72883334Y-53657143D02*
X72835715Y-53704762D01*
X72692858Y-53752381D01*
X72597620Y-53752381D01*
X72454762Y-53704762D01*
X72359524Y-53609524D01*
X72311905Y-53514286D01*
X72264286Y-53323810D01*
X72264286Y-53180952D01*
X72311905Y-52990476D01*
X72359524Y-52895238D01*
X72454762Y-52800000D01*
X72597620Y-52752381D01*
X72692858Y-52752381D01*
X72835715Y-52800000D01*
X72883334Y-52847619D01*
X73454762Y-53180952D02*
X73359524Y-53133333D01*
X73311905Y-53085714D01*
X73264286Y-52990476D01*
X73264286Y-52942857D01*
X73311905Y-52847619D01*
X73359524Y-52800000D01*
X73454762Y-52752381D01*
X73645239Y-52752381D01*
X73740477Y-52800000D01*
X73788096Y-52847619D01*
X73835715Y-52942857D01*
X73835715Y-52990476D01*
X73788096Y-53085714D01*
X73740477Y-53133333D01*
X73645239Y-53180952D01*
X73454762Y-53180952D01*
X73359524Y-53228571D01*
X73311905Y-53276190D01*
X73264286Y-53371429D01*
X73264286Y-53561905D01*
X73311905Y-53657143D01*
X73359524Y-53704762D01*
X73454762Y-53752381D01*
X73645239Y-53752381D01*
X73740477Y-53704762D01*
X73788096Y-53657143D01*
X73835715Y-53561905D01*
X73835715Y-53371429D01*
X73788096Y-53276190D01*
X73740477Y-53228571D01*
X73645239Y-53180952D01*
X72833334Y-56707143D02*
X72785715Y-56754762D01*
X72642858Y-56802381D01*
X72547620Y-56802381D01*
X72404762Y-56754762D01*
X72309524Y-56659524D01*
X72261905Y-56564286D01*
X72214286Y-56373810D01*
X72214286Y-56230952D01*
X72261905Y-56040476D01*
X72309524Y-55945238D01*
X72404762Y-55850000D01*
X72547620Y-55802381D01*
X72642858Y-55802381D01*
X72785715Y-55850000D01*
X72833334Y-55897619D01*
X73309524Y-56802381D02*
X73500000Y-56802381D01*
X73595239Y-56754762D01*
X73642858Y-56707143D01*
X73738096Y-56564286D01*
X73785715Y-56373810D01*
X73785715Y-55992857D01*
X73738096Y-55897619D01*
X73690477Y-55850000D01*
X73595239Y-55802381D01*
X73404762Y-55802381D01*
X73309524Y-55850000D01*
X73261905Y-55897619D01*
X73214286Y-55992857D01*
X73214286Y-56230952D01*
X73261905Y-56326190D01*
X73309524Y-56373810D01*
X73404762Y-56421429D01*
X73595239Y-56421429D01*
X73690477Y-56373810D01*
X73738096Y-56326190D01*
X73785715Y-56230952D01*
X64057143Y-56657143D02*
X64009524Y-56704762D01*
X63866667Y-56752381D01*
X63771429Y-56752381D01*
X63628571Y-56704762D01*
X63533333Y-56609524D01*
X63485714Y-56514286D01*
X63438095Y-56323810D01*
X63438095Y-56180952D01*
X63485714Y-55990476D01*
X63533333Y-55895238D01*
X63628571Y-55800000D01*
X63771429Y-55752381D01*
X63866667Y-55752381D01*
X64009524Y-55800000D01*
X64057143Y-55847619D01*
X65009524Y-56752381D02*
X64438095Y-56752381D01*
X64723809Y-56752381D02*
X64723809Y-55752381D01*
X64628571Y-55895238D01*
X64533333Y-55990476D01*
X64438095Y-56038095D01*
X65628571Y-55752381D02*
X65723810Y-55752381D01*
X65819048Y-55800000D01*
X65866667Y-55847619D01*
X65914286Y-55942857D01*
X65961905Y-56133333D01*
X65961905Y-56371429D01*
X65914286Y-56561905D01*
X65866667Y-56657143D01*
X65819048Y-56704762D01*
X65723810Y-56752381D01*
X65628571Y-56752381D01*
X65533333Y-56704762D01*
X65485714Y-56657143D01*
X65438095Y-56561905D01*
X65390476Y-56371429D01*
X65390476Y-56133333D01*
X65438095Y-55942857D01*
X65485714Y-55847619D01*
X65533333Y-55800000D01*
X65628571Y-55752381D01*
X57207143Y-68207143D02*
X57159524Y-68254762D01*
X57016667Y-68302381D01*
X56921429Y-68302381D01*
X56778571Y-68254762D01*
X56683333Y-68159524D01*
X56635714Y-68064286D01*
X56588095Y-67873810D01*
X56588095Y-67730952D01*
X56635714Y-67540476D01*
X56683333Y-67445238D01*
X56778571Y-67350000D01*
X56921429Y-67302381D01*
X57016667Y-67302381D01*
X57159524Y-67350000D01*
X57207143Y-67397619D01*
X58159524Y-68302381D02*
X57588095Y-68302381D01*
X57873809Y-68302381D02*
X57873809Y-67302381D01*
X57778571Y-67445238D01*
X57683333Y-67540476D01*
X57588095Y-67588095D01*
X59111905Y-68302381D02*
X58540476Y-68302381D01*
X58826190Y-68302381D02*
X58826190Y-67302381D01*
X58730952Y-67445238D01*
X58635714Y-67540476D01*
X58540476Y-67588095D01*
X61107143Y-54957143D02*
X61059524Y-55004762D01*
X60916667Y-55052381D01*
X60821429Y-55052381D01*
X60678571Y-55004762D01*
X60583333Y-54909524D01*
X60535714Y-54814286D01*
X60488095Y-54623810D01*
X60488095Y-54480952D01*
X60535714Y-54290476D01*
X60583333Y-54195238D01*
X60678571Y-54100000D01*
X60821429Y-54052381D01*
X60916667Y-54052381D01*
X61059524Y-54100000D01*
X61107143Y-54147619D01*
X62059524Y-55052381D02*
X61488095Y-55052381D01*
X61773809Y-55052381D02*
X61773809Y-54052381D01*
X61678571Y-54195238D01*
X61583333Y-54290476D01*
X61488095Y-54338095D01*
X62440476Y-54147619D02*
X62488095Y-54100000D01*
X62583333Y-54052381D01*
X62821429Y-54052381D01*
X62916667Y-54100000D01*
X62964286Y-54147619D01*
X63011905Y-54242857D01*
X63011905Y-54338095D01*
X62964286Y-54480952D01*
X62392857Y-55052381D01*
X63011905Y-55052381D01*
X60407143Y-58807143D02*
X60359524Y-58854762D01*
X60216667Y-58902381D01*
X60121429Y-58902381D01*
X59978571Y-58854762D01*
X59883333Y-58759524D01*
X59835714Y-58664286D01*
X59788095Y-58473810D01*
X59788095Y-58330952D01*
X59835714Y-58140476D01*
X59883333Y-58045238D01*
X59978571Y-57950000D01*
X60121429Y-57902381D01*
X60216667Y-57902381D01*
X60359524Y-57950000D01*
X60407143Y-57997619D01*
X61359524Y-58902381D02*
X60788095Y-58902381D01*
X61073809Y-58902381D02*
X61073809Y-57902381D01*
X60978571Y-58045238D01*
X60883333Y-58140476D01*
X60788095Y-58188095D01*
X61692857Y-57902381D02*
X62311905Y-57902381D01*
X61978571Y-58283333D01*
X62121429Y-58283333D01*
X62216667Y-58330952D01*
X62264286Y-58378571D01*
X62311905Y-58473810D01*
X62311905Y-58711905D01*
X62264286Y-58807143D01*
X62216667Y-58854762D01*
X62121429Y-58902381D01*
X61835714Y-58902381D01*
X61740476Y-58854762D01*
X61692857Y-58807143D01*
X63857143Y-55157143D02*
X63809524Y-55204762D01*
X63666667Y-55252381D01*
X63571429Y-55252381D01*
X63428571Y-55204762D01*
X63333333Y-55109524D01*
X63285714Y-55014286D01*
X63238095Y-54823810D01*
X63238095Y-54680952D01*
X63285714Y-54490476D01*
X63333333Y-54395238D01*
X63428571Y-54300000D01*
X63571429Y-54252381D01*
X63666667Y-54252381D01*
X63809524Y-54300000D01*
X63857143Y-54347619D01*
X64809524Y-55252381D02*
X64238095Y-55252381D01*
X64523809Y-55252381D02*
X64523809Y-54252381D01*
X64428571Y-54395238D01*
X64333333Y-54490476D01*
X64238095Y-54538095D01*
X65666667Y-54585714D02*
X65666667Y-55252381D01*
X65428571Y-54204762D02*
X65190476Y-54919048D01*
X65809524Y-54919048D01*
X71652381Y-61766666D02*
X71176190Y-62100000D01*
X71652381Y-62338095D02*
X70652381Y-62338095D01*
X70652381Y-61957142D01*
X70700000Y-61861904D01*
X70747619Y-61814285D01*
X70842857Y-61766666D01*
X70985714Y-61766666D01*
X71080952Y-61814285D01*
X71128571Y-61861904D01*
X71176190Y-61957142D01*
X71176190Y-62338095D01*
X71652381Y-60814285D02*
X71652381Y-61385714D01*
X71652381Y-61100000D02*
X70652381Y-61100000D01*
X70795238Y-61195238D01*
X70890476Y-61290476D01*
X70938095Y-61385714D01*
X58833334Y-57802381D02*
X58500000Y-57326190D01*
X58261905Y-57802381D02*
X58261905Y-56802381D01*
X58642858Y-56802381D01*
X58738096Y-56850000D01*
X58785715Y-56897619D01*
X58833334Y-56992857D01*
X58833334Y-57135714D01*
X58785715Y-57230952D01*
X58738096Y-57278571D01*
X58642858Y-57326190D01*
X58261905Y-57326190D01*
X59214286Y-56897619D02*
X59261905Y-56850000D01*
X59357143Y-56802381D01*
X59595239Y-56802381D01*
X59690477Y-56850000D01*
X59738096Y-56897619D01*
X59785715Y-56992857D01*
X59785715Y-57088095D01*
X59738096Y-57230952D01*
X59166667Y-57802381D01*
X59785715Y-57802381D01*
X58783334Y-56302381D02*
X58450000Y-55826190D01*
X58211905Y-56302381D02*
X58211905Y-55302381D01*
X58592858Y-55302381D01*
X58688096Y-55350000D01*
X58735715Y-55397619D01*
X58783334Y-55492857D01*
X58783334Y-55635714D01*
X58735715Y-55730952D01*
X58688096Y-55778571D01*
X58592858Y-55826190D01*
X58211905Y-55826190D01*
X59116667Y-55302381D02*
X59735715Y-55302381D01*
X59402381Y-55683333D01*
X59545239Y-55683333D01*
X59640477Y-55730952D01*
X59688096Y-55778571D01*
X59735715Y-55873810D01*
X59735715Y-56111905D01*
X59688096Y-56207143D01*
X59640477Y-56254762D01*
X59545239Y-56302381D01*
X59259524Y-56302381D01*
X59164286Y-56254762D01*
X59116667Y-56207143D01*
X63533334Y-68102381D02*
X63200000Y-67626190D01*
X62961905Y-68102381D02*
X62961905Y-67102381D01*
X63342858Y-67102381D01*
X63438096Y-67150000D01*
X63485715Y-67197619D01*
X63533334Y-67292857D01*
X63533334Y-67435714D01*
X63485715Y-67530952D01*
X63438096Y-67578571D01*
X63342858Y-67626190D01*
X62961905Y-67626190D01*
X64390477Y-67435714D02*
X64390477Y-68102381D01*
X64152381Y-67054762D02*
X63914286Y-67769048D01*
X64533334Y-67769048D01*
X74583334Y-68052381D02*
X74250000Y-67576190D01*
X74011905Y-68052381D02*
X74011905Y-67052381D01*
X74392858Y-67052381D01*
X74488096Y-67100000D01*
X74535715Y-67147619D01*
X74583334Y-67242857D01*
X74583334Y-67385714D01*
X74535715Y-67480952D01*
X74488096Y-67528571D01*
X74392858Y-67576190D01*
X74011905Y-67576190D01*
X75488096Y-67052381D02*
X75011905Y-67052381D01*
X74964286Y-67528571D01*
X75011905Y-67480952D01*
X75107143Y-67433333D01*
X75345239Y-67433333D01*
X75440477Y-67480952D01*
X75488096Y-67528571D01*
X75535715Y-67623810D01*
X75535715Y-67861905D01*
X75488096Y-67957143D01*
X75440477Y-68004762D01*
X75345239Y-68052381D01*
X75107143Y-68052381D01*
X75011905Y-68004762D01*
X74964286Y-67957143D01*
X72983334Y-65002381D02*
X72650000Y-64526190D01*
X72411905Y-65002381D02*
X72411905Y-64002381D01*
X72792858Y-64002381D01*
X72888096Y-64050000D01*
X72935715Y-64097619D01*
X72983334Y-64192857D01*
X72983334Y-64335714D01*
X72935715Y-64430952D01*
X72888096Y-64478571D01*
X72792858Y-64526190D01*
X72411905Y-64526190D01*
X73840477Y-64002381D02*
X73650000Y-64002381D01*
X73554762Y-64050000D01*
X73507143Y-64097619D01*
X73411905Y-64240476D01*
X73364286Y-64430952D01*
X73364286Y-64811905D01*
X73411905Y-64907143D01*
X73459524Y-64954762D01*
X73554762Y-65002381D01*
X73745239Y-65002381D01*
X73840477Y-64954762D01*
X73888096Y-64907143D01*
X73935715Y-64811905D01*
X73935715Y-64573810D01*
X73888096Y-64478571D01*
X73840477Y-64430952D01*
X73745239Y-64383333D01*
X73554762Y-64383333D01*
X73459524Y-64430952D01*
X73411905Y-64478571D01*
X73364286Y-64573810D01*
X86007143Y-66752381D02*
X85673809Y-66276190D01*
X85435714Y-66752381D02*
X85435714Y-65752381D01*
X85816667Y-65752381D01*
X85911905Y-65800000D01*
X85959524Y-65847619D01*
X86007143Y-65942857D01*
X86007143Y-66085714D01*
X85959524Y-66180952D01*
X85911905Y-66228571D01*
X85816667Y-66276190D01*
X85435714Y-66276190D01*
X86959524Y-66752381D02*
X86388095Y-66752381D01*
X86673809Y-66752381D02*
X86673809Y-65752381D01*
X86578571Y-65895238D01*
X86483333Y-65990476D01*
X86388095Y-66038095D01*
X87911905Y-66752381D02*
X87340476Y-66752381D01*
X87626190Y-66752381D02*
X87626190Y-65752381D01*
X87530952Y-65895238D01*
X87435714Y-65990476D01*
X87340476Y-66038095D01*
X57157143Y-66452381D02*
X56823809Y-65976190D01*
X56585714Y-66452381D02*
X56585714Y-65452381D01*
X56966667Y-65452381D01*
X57061905Y-65500000D01*
X57109524Y-65547619D01*
X57157143Y-65642857D01*
X57157143Y-65785714D01*
X57109524Y-65880952D01*
X57061905Y-65928571D01*
X56966667Y-65976190D01*
X56585714Y-65976190D01*
X58109524Y-66452381D02*
X57538095Y-66452381D01*
X57823809Y-66452381D02*
X57823809Y-65452381D01*
X57728571Y-65595238D01*
X57633333Y-65690476D01*
X57538095Y-65738095D01*
X58490476Y-65547619D02*
X58538095Y-65500000D01*
X58633333Y-65452381D01*
X58871429Y-65452381D01*
X58966667Y-65500000D01*
X59014286Y-65547619D01*
X59061905Y-65642857D01*
X59061905Y-65738095D01*
X59014286Y-65880952D01*
X58442857Y-66452381D01*
X59061905Y-66452381D01*
X64307143Y-53702381D02*
X63973809Y-53226190D01*
X63735714Y-53702381D02*
X63735714Y-52702381D01*
X64116667Y-52702381D01*
X64211905Y-52750000D01*
X64259524Y-52797619D01*
X64307143Y-52892857D01*
X64307143Y-53035714D01*
X64259524Y-53130952D01*
X64211905Y-53178571D01*
X64116667Y-53226190D01*
X63735714Y-53226190D01*
X65259524Y-53702381D02*
X64688095Y-53702381D01*
X64973809Y-53702381D02*
X64973809Y-52702381D01*
X64878571Y-52845238D01*
X64783333Y-52940476D01*
X64688095Y-52988095D01*
X65592857Y-52702381D02*
X66211905Y-52702381D01*
X65878571Y-53083333D01*
X66021429Y-53083333D01*
X66116667Y-53130952D01*
X66164286Y-53178571D01*
X66211905Y-53273810D01*
X66211905Y-53511905D01*
X66164286Y-53607143D01*
X66116667Y-53654762D01*
X66021429Y-53702381D01*
X65735714Y-53702381D01*
X65640476Y-53654762D01*
X65592857Y-53607143D01*
X53340381Y-65711905D02*
X54149905Y-65711905D01*
X54245143Y-65664286D01*
X54292762Y-65616667D01*
X54340381Y-65521429D01*
X54340381Y-65330952D01*
X54292762Y-65235714D01*
X54245143Y-65188095D01*
X54149905Y-65140476D01*
X53340381Y-65140476D01*
X53435619Y-64711905D02*
X53388000Y-64664286D01*
X53340381Y-64569048D01*
X53340381Y-64330952D01*
X53388000Y-64235714D01*
X53435619Y-64188095D01*
X53530857Y-64140476D01*
X53626095Y-64140476D01*
X53768952Y-64188095D01*
X54340381Y-64759524D01*
X54340381Y-64140476D01*
X69273809Y-64576190D02*
X69273809Y-65052381D01*
X68940476Y-64052381D02*
X69273809Y-64576190D01*
X69607143Y-64052381D01*
X70464286Y-65052381D02*
X69892857Y-65052381D01*
X70178571Y-65052381D02*
X70178571Y-64052381D01*
X70083333Y-64195238D01*
X69988095Y-64290476D01*
X69892857Y-64338095D01*
M02*
