G04 #@! TF.FileFunction,Soldermask,Bot*
%FSLAX46Y46*%
G04 Gerber Fmt 4.6, Leading zero omitted, Abs format (unit mm)*
G04 Created by KiCad (PCBNEW 4.0.4+dfsg1-stable) date Sat Jan 21 21:23:35 2017*
%MOMM*%
%LPD*%
G01*
G04 APERTURE LIST*
%ADD10C,0.100000*%
%ADD11C,1.397000*%
%ADD12O,1.250000X1.250000*%
%ADD13O,1.550000X1.800000*%
%ADD14R,0.320000X3.000000*%
%ADD15R,1.397000X1.397000*%
%ADD16C,1.524000*%
%ADD17R,0.450000X0.630000*%
%ADD18R,1.300000X0.850000*%
G04 APERTURE END LIST*
D10*
D11*
X90770000Y-65200000D03*
X88230000Y-65200000D03*
D12*
X54162540Y-54399100D03*
X54162540Y-59399100D03*
D13*
X51462540Y-53399100D03*
X51462540Y-60399100D03*
D14*
X55700000Y-60500000D03*
X56320000Y-60500000D03*
X56940000Y-60500000D03*
X57560000Y-60500000D03*
X58180000Y-60500000D03*
X58800000Y-60500000D03*
X59420000Y-60500000D03*
X60040000Y-60500000D03*
X60660000Y-60500000D03*
X61280000Y-60500000D03*
X61900000Y-60500000D03*
X62520000Y-60500000D03*
X63140000Y-60500000D03*
X63760000Y-60500000D03*
D11*
X81780000Y-51260960D03*
X79240000Y-51139040D03*
X76700000Y-51260960D03*
X74160000Y-51139040D03*
X71620000Y-51260960D03*
X84320000Y-51139040D03*
X69080000Y-51139040D03*
D15*
X86860000Y-51260960D03*
D11*
X66540000Y-51260960D03*
D16*
X64000000Y-51139040D03*
X61460000Y-51260960D03*
X58920000Y-51139040D03*
X56380000Y-51260960D03*
X53840000Y-51139040D03*
X51300000Y-51260960D03*
D11*
X56320000Y-69689040D03*
X58860000Y-69810960D03*
X61400000Y-69689040D03*
X63940000Y-69810960D03*
X66480000Y-69689040D03*
X53780000Y-69810960D03*
X69020000Y-69810960D03*
D15*
X51240000Y-69689040D03*
D11*
X71560000Y-69689040D03*
D16*
X74100000Y-69810960D03*
X76640000Y-69689040D03*
X79180000Y-69810960D03*
X81720000Y-69689040D03*
X84260000Y-69810960D03*
X86800000Y-69689040D03*
D17*
X90950000Y-61840000D03*
X90000000Y-61840000D03*
X89050000Y-61840000D03*
X89050000Y-59160000D03*
X90000000Y-59160000D03*
X90950000Y-59160000D03*
D18*
X89350000Y-60075000D03*
X90650000Y-60075000D03*
X89350000Y-60925000D03*
X90650000Y-60925000D03*
M02*
