G04 #@! TF.FileFunction,Copper,L2,Bot,Signal*
%FSLAX46Y46*%
G04 Gerber Fmt 4.6, Leading zero omitted, Abs format (unit mm)*
G04 Created by KiCad (PCBNEW 4.0.4+dfsg1-stable) date Sat Jan 21 21:23:35 2017*
%MOMM*%
%LPD*%
G01*
G04 APERTURE LIST*
%ADD10C,0.100000*%
%ADD11C,1.397000*%
%ADD12O,1.250000X1.250000*%
%ADD13O,1.550000X1.800000*%
%ADD14R,0.320000X3.000000*%
%ADD15R,1.397000X1.397000*%
%ADD16C,1.524000*%
%ADD17R,0.450000X0.630000*%
%ADD18R,1.300000X0.850000*%
%ADD19C,0.600000*%
%ADD20C,0.250000*%
%ADD21C,0.254000*%
G04 APERTURE END LIST*
D10*
D11*
X90770000Y-65200000D03*
X88230000Y-65200000D03*
D12*
X54162540Y-54399100D03*
X54162540Y-59399100D03*
D13*
X51462540Y-53399100D03*
X51462540Y-60399100D03*
D14*
X55700000Y-60500000D03*
X56320000Y-60500000D03*
X56940000Y-60500000D03*
X57560000Y-60500000D03*
X58180000Y-60500000D03*
X58800000Y-60500000D03*
X59420000Y-60500000D03*
X60040000Y-60500000D03*
X60660000Y-60500000D03*
X61280000Y-60500000D03*
X61900000Y-60500000D03*
X62520000Y-60500000D03*
X63140000Y-60500000D03*
X63760000Y-60500000D03*
D11*
X81780000Y-51260960D03*
X79240000Y-51139040D03*
X76700000Y-51260960D03*
X74160000Y-51139040D03*
X71620000Y-51260960D03*
X84320000Y-51139040D03*
X69080000Y-51139040D03*
D15*
X86860000Y-51260960D03*
D11*
X66540000Y-51260960D03*
D16*
X64000000Y-51139040D03*
X61460000Y-51260960D03*
X58920000Y-51139040D03*
X56380000Y-51260960D03*
X53840000Y-51139040D03*
X51300000Y-51260960D03*
D11*
X56320000Y-69689040D03*
X58860000Y-69810960D03*
X61400000Y-69689040D03*
X63940000Y-69810960D03*
X66480000Y-69689040D03*
X53780000Y-69810960D03*
X69020000Y-69810960D03*
D15*
X51240000Y-69689040D03*
D11*
X71560000Y-69689040D03*
D16*
X74100000Y-69810960D03*
X76640000Y-69689040D03*
X79180000Y-69810960D03*
X81720000Y-69689040D03*
X84260000Y-69810960D03*
X86800000Y-69689040D03*
D17*
X90950000Y-61840000D03*
X90000000Y-61840000D03*
X89050000Y-61840000D03*
X89050000Y-59160000D03*
X90000000Y-59160000D03*
X90950000Y-59160000D03*
D18*
X89350000Y-60075000D03*
X90650000Y-60075000D03*
X89350000Y-60925000D03*
X90650000Y-60925000D03*
D19*
X65562200Y-67409300D03*
X76338500Y-63524900D03*
X86150000Y-63846200D03*
X88200000Y-57750000D03*
X77950000Y-58300000D03*
X82000000Y-58450000D03*
X92750000Y-54050000D03*
X92650000Y-67200000D03*
X83100000Y-68300000D03*
X62527500Y-53782000D03*
X68300000Y-57428100D03*
X75310000Y-61510700D03*
X89535400Y-63292000D03*
X89217542Y-56282458D03*
X62516900Y-67595100D03*
X93255700Y-65799200D03*
X86250000Y-54198800D03*
X59583700Y-64185800D03*
X65013900Y-68014000D03*
X73119100Y-64509800D03*
X65065300Y-57648100D03*
X62701000Y-65191900D03*
X58370200Y-55694100D03*
X63100700Y-55898000D03*
X62946800Y-56698400D03*
X59120000Y-57456300D03*
X64256400Y-57354500D03*
X82006300Y-61591300D03*
X70409000Y-59329000D03*
X77171100Y-64335800D03*
X77635600Y-63624600D03*
X62525400Y-64379100D03*
X83182700Y-60645200D03*
X87061100Y-59793700D03*
X85065100Y-56134400D03*
X84123300Y-55156800D03*
X82074600Y-56696800D03*
X81448300Y-56098400D03*
X85646100Y-56716700D03*
X74602100Y-61086600D03*
X72437000Y-57799900D03*
X71791900Y-57313000D03*
X70991500Y-57478300D03*
X74519600Y-67627800D03*
X79807700Y-63778600D03*
X75221300Y-66972600D03*
X82620100Y-63770100D03*
X84577900Y-65364200D03*
X83916500Y-66221800D03*
X83095700Y-66864100D03*
X73474100Y-56067000D03*
X65195300Y-56051700D03*
D20*
X76184500Y-63678900D02*
X76338500Y-63524900D01*
X69292600Y-63678900D02*
X76184500Y-63678900D01*
X65562200Y-67409300D02*
X69292600Y-63678900D01*
X89535400Y-63292000D02*
X90000000Y-62827400D01*
X90000000Y-62827400D02*
X90000000Y-61840000D01*
X83574300Y-61270500D02*
X86150000Y-63846200D01*
X86150000Y-63846200D02*
X86449000Y-64145200D01*
X87500000Y-58450000D02*
X88200000Y-57750000D01*
X77950000Y-58300000D02*
X81850000Y-58300000D01*
X75310000Y-60940000D02*
X77950000Y-58300000D01*
X75310000Y-61510700D02*
X75310000Y-60940000D01*
X81850000Y-58300000D02*
X82000000Y-58450000D01*
X82000000Y-58450000D02*
X87500000Y-58450000D01*
X92750000Y-54050000D02*
X92800000Y-54050000D01*
X56483000Y-53782000D02*
X53840000Y-51139000D01*
X62527500Y-53782000D02*
X56483000Y-53782000D01*
X59420000Y-60500000D02*
X59420000Y-58674700D01*
X63119600Y-57426100D02*
X64093900Y-56451800D01*
X60668600Y-57426100D02*
X63119600Y-57426100D01*
X59420000Y-58674700D02*
X60668600Y-57426100D01*
X64093900Y-55348400D02*
X62527500Y-53782000D01*
X64093900Y-56451800D02*
X64093900Y-55348400D01*
X64389100Y-56451800D02*
X64093900Y-56451800D01*
X64946500Y-57009200D02*
X64389100Y-56451800D01*
X67881100Y-57009200D02*
X64946500Y-57009200D01*
X68300000Y-57428100D02*
X67881100Y-57009200D01*
X75103300Y-61717400D02*
X75310000Y-61510700D01*
X73709200Y-61717400D02*
X75103300Y-61717400D01*
X70202700Y-58210900D02*
X73709200Y-61717400D01*
X69082800Y-58210900D02*
X70202700Y-58210900D01*
X68300000Y-57428100D02*
X69082800Y-58210900D01*
X88682200Y-64145200D02*
X86449000Y-64145200D01*
X89535400Y-63292000D02*
X88682200Y-64145200D01*
X75905200Y-55546200D02*
X71620000Y-51261000D01*
X75905200Y-60915500D02*
X75905200Y-55546200D01*
X75905200Y-60915500D02*
X75310000Y-61510700D01*
X82923700Y-61270500D02*
X83574300Y-61270500D01*
X82568700Y-60915500D02*
X82923700Y-61270500D01*
X75905200Y-60915500D02*
X82568700Y-60915500D01*
X89217542Y-56529932D02*
X89217542Y-56282458D01*
X90287610Y-57600000D02*
X89217542Y-56529932D01*
X93255700Y-58877100D02*
X93190210Y-58877100D01*
X93190210Y-58877100D02*
X91913110Y-57600000D01*
X91913110Y-57600000D02*
X90287610Y-57600000D01*
X61075900Y-67595100D02*
X62516900Y-67595100D01*
X58860000Y-69811000D02*
X61075900Y-67595100D01*
X93255700Y-58877100D02*
X93255700Y-65799200D01*
X92560000Y-58883300D02*
X92560000Y-63600000D01*
X89110960Y-69689040D02*
X92560000Y-66240000D01*
X92560000Y-66240000D02*
X92560000Y-63600000D01*
X86800000Y-69689040D02*
X89110960Y-69689040D01*
X86250000Y-54198800D02*
X90120890Y-58069690D01*
X90120890Y-58069690D02*
X91746390Y-58069690D01*
X91746390Y-58069690D02*
X92560000Y-58883300D01*
X73119100Y-64509800D02*
X73603400Y-64994100D01*
X73603400Y-64994100D02*
X77818100Y-64994100D01*
X77818100Y-64994100D02*
X79133500Y-63678700D01*
X79133500Y-63678700D02*
X79133500Y-63545000D01*
X83251000Y-63144400D02*
X87006600Y-66900000D01*
X79133500Y-63545000D02*
X79534100Y-63144400D01*
X92109990Y-62876190D02*
X92109700Y-62875900D01*
X79534100Y-63144400D02*
X83251000Y-63144400D01*
X91559400Y-58519700D02*
X90000000Y-58519700D01*
X87006600Y-66900000D02*
X91263590Y-66900000D01*
X91263590Y-66900000D02*
X92109990Y-66053600D01*
X92109990Y-66053600D02*
X92109990Y-62876190D01*
X92109700Y-62875900D02*
X92109700Y-59070000D01*
X92109700Y-59070000D02*
X91559400Y-58519700D01*
X90000000Y-58519700D02*
X90000000Y-59160000D01*
X62164400Y-66957200D02*
X61557200Y-66350000D01*
X61557200Y-66350000D02*
X60608100Y-65400900D01*
X57409040Y-68600000D02*
X59307200Y-68600000D01*
X59307200Y-68600000D02*
X61557200Y-66350000D01*
X56320000Y-69689040D02*
X57409040Y-68600000D01*
X60040000Y-60500000D02*
X60040000Y-62325300D01*
X58180000Y-60500000D02*
X58180000Y-62325300D01*
X59290000Y-63892100D02*
X59290000Y-63075300D01*
X59583700Y-64185800D02*
X59290000Y-63892100D01*
X60040000Y-62325300D02*
X59290000Y-63075300D01*
X58930000Y-63075300D02*
X58180000Y-62325300D01*
X59290000Y-63075300D02*
X58930000Y-63075300D01*
X63957100Y-66957200D02*
X62164400Y-66957200D01*
X65013900Y-68014000D02*
X63957100Y-66957200D01*
X59583700Y-64376500D02*
X59583700Y-64185800D01*
X60608100Y-65400900D02*
X59583700Y-64376500D01*
X69369200Y-64509800D02*
X73119100Y-64509800D01*
X65780000Y-68099000D02*
X69369200Y-64509800D01*
X65098900Y-68099000D02*
X65780000Y-68099000D01*
X65013900Y-68014000D02*
X65098900Y-68099000D01*
X63140000Y-60500000D02*
X63140000Y-58750000D01*
X63140000Y-58750000D02*
X63563490Y-58326510D01*
X63563490Y-58326510D02*
X64209394Y-58326508D01*
X64209394Y-58326508D02*
X64887802Y-57648100D01*
X64887802Y-57648100D02*
X65065300Y-57648100D01*
X63760000Y-64132900D02*
X62701000Y-65191900D01*
X63760000Y-60500000D02*
X63760000Y-64132900D01*
X55700000Y-58364300D02*
X58370200Y-55694100D01*
X55700000Y-60500000D02*
X55700000Y-58364300D01*
X56320000Y-60500000D02*
X56320000Y-58674700D01*
X59050700Y-55898000D02*
X63100700Y-55898000D01*
X56320000Y-58628700D02*
X59050700Y-55898000D01*
X56320000Y-58674700D02*
X56320000Y-58628700D01*
X58887200Y-56698400D02*
X62946800Y-56698400D01*
X56940000Y-58645600D02*
X58887200Y-56698400D01*
X56940000Y-60500000D02*
X56940000Y-58645600D01*
X57560000Y-60500000D02*
X57560000Y-58750000D01*
X57560000Y-58750000D02*
X58553701Y-57756299D01*
X58553701Y-57756299D02*
X58820001Y-57756299D01*
X58820001Y-57756299D02*
X59120000Y-57456300D01*
X60660000Y-60500000D02*
X60660000Y-58674700D01*
X63734400Y-57876500D02*
X64256400Y-57354500D01*
X61458200Y-57876500D02*
X63734400Y-57876500D01*
X60660000Y-58674700D02*
X61458200Y-57876500D01*
X76113800Y-61591300D02*
X82006300Y-61591300D01*
X75473100Y-62232000D02*
X76113800Y-61591300D01*
X73312000Y-62232000D02*
X75473100Y-62232000D01*
X70409000Y-59329000D02*
X73312000Y-62232000D01*
X90770000Y-65200000D02*
X89520010Y-66449990D01*
X89520010Y-66449990D02*
X87193000Y-66449990D01*
X87193000Y-66449990D02*
X83437600Y-62694590D01*
X78683200Y-63492100D02*
X77839500Y-64335800D01*
X83437600Y-62694590D02*
X83437600Y-62694100D01*
X83437600Y-62694100D02*
X79347500Y-62694100D01*
X79347500Y-62694100D02*
X78683200Y-63358400D01*
X78683200Y-63358400D02*
X78683200Y-63492100D01*
X77839500Y-64335800D02*
X77171100Y-64335800D01*
X90770000Y-65200000D02*
X91659300Y-64310700D01*
X91659300Y-64310700D02*
X91659300Y-59319000D01*
X91659300Y-59319000D02*
X91500300Y-59160000D01*
X91500300Y-59160000D02*
X90950000Y-59160000D01*
X61280000Y-60500000D02*
X61280000Y-65298500D01*
X76963800Y-63237200D02*
X76963800Y-64128500D01*
X61280000Y-65298500D02*
X62259400Y-66277900D01*
X75750300Y-63228600D02*
X76110300Y-62868600D01*
X62259400Y-66277900D02*
X65800700Y-66277900D01*
X65800700Y-66277900D02*
X68850000Y-63228600D01*
X68850000Y-63228600D02*
X75750300Y-63228600D01*
X76110300Y-62868600D02*
X76595200Y-62868600D01*
X76595200Y-62868600D02*
X76963800Y-63237200D01*
X76963800Y-64128500D02*
X77171100Y-64335800D01*
X90950000Y-61840000D02*
X90950000Y-62200000D01*
X88230000Y-65200000D02*
X89217828Y-65200000D01*
X89217828Y-65200000D02*
X90950000Y-63467828D01*
X90950000Y-63467828D02*
X90950000Y-62200000D01*
X83624200Y-62243800D02*
X85480400Y-64100000D01*
X86580400Y-65200000D02*
X88230000Y-65200000D01*
X85480400Y-64100000D02*
X86580400Y-65200000D01*
X61900000Y-60500000D02*
X61900000Y-65281600D01*
X61900000Y-65281600D02*
X62446000Y-65827600D01*
X62446000Y-65827600D02*
X65354700Y-65827600D01*
X65354700Y-65827600D02*
X68500000Y-62682300D01*
X68500000Y-62682300D02*
X75659700Y-62682300D01*
X75659700Y-62682300D02*
X75923700Y-62418300D01*
X75923700Y-62418300D02*
X76800300Y-62418300D01*
X76800300Y-62418300D02*
X77580700Y-63198700D01*
X77580700Y-63569700D02*
X77635600Y-63624600D01*
X77580700Y-63198700D02*
X77580700Y-63569700D01*
X78535600Y-62243800D02*
X83624200Y-62243800D01*
X77580700Y-63198700D02*
X78535600Y-62243800D01*
X62520000Y-60500000D02*
X62520000Y-62325300D01*
X62525400Y-62330700D02*
X62525400Y-64379100D01*
X62520000Y-62325300D02*
X62525400Y-62330700D01*
X84034200Y-59793700D02*
X87061100Y-59793700D01*
X83182700Y-60645200D02*
X84034200Y-59793700D01*
X84920500Y-55989800D02*
X85065100Y-56134400D01*
X84920500Y-54401500D02*
X84920500Y-55989800D01*
X81780000Y-51261000D02*
X84920500Y-54401500D01*
X79240000Y-51139000D02*
X79851000Y-51750000D01*
X84123300Y-54523300D02*
X81884461Y-52284461D01*
X81884461Y-52284461D02*
X80385461Y-52284461D01*
X80385461Y-52284461D02*
X79851000Y-51750000D01*
X84123300Y-55156800D02*
X84123300Y-54523300D01*
X81883700Y-55600000D02*
X82074600Y-55790900D01*
X76700000Y-51260960D02*
X76700000Y-52950000D01*
X76700000Y-52950000D02*
X79223399Y-55473399D01*
X79223399Y-55473399D02*
X81757099Y-55473399D01*
X81757099Y-55473399D02*
X81883700Y-55600000D01*
X82074600Y-55790900D02*
X82074600Y-56696800D01*
X79119400Y-56098400D02*
X81448300Y-56098400D01*
X74160000Y-51139000D02*
X79119400Y-56098400D01*
X85738600Y-56624200D02*
X85646100Y-56716700D01*
X85738600Y-55800400D02*
X85738600Y-56624200D01*
X85370800Y-55432600D02*
X85738600Y-55800400D01*
X85370800Y-52189800D02*
X85370800Y-55432600D01*
X84320000Y-51139000D02*
X85370800Y-52189800D01*
X74602100Y-61086600D02*
X74602100Y-56305200D01*
X74602100Y-56305200D02*
X73738899Y-55441999D01*
X73738899Y-55441999D02*
X71891999Y-55441999D01*
X71891999Y-55441999D02*
X69080000Y-52630000D01*
X69080000Y-52630000D02*
X69080000Y-51139040D01*
X69080000Y-51139000D02*
X69435900Y-51139000D01*
X66624300Y-51261000D02*
X66540000Y-51261000D01*
X72437000Y-57073700D02*
X66624300Y-51261000D01*
X72437000Y-57799900D02*
X72437000Y-57073700D01*
X71791900Y-57313000D02*
X66763361Y-52284461D01*
X66763361Y-52284461D02*
X65773461Y-52284461D01*
X65773461Y-52284461D02*
X64628000Y-51139000D01*
X64628000Y-51139000D02*
X64000000Y-51139000D01*
X65478300Y-52750000D02*
X65076700Y-52348400D01*
X70691501Y-56849011D02*
X66592490Y-52750000D01*
X66592490Y-52750000D02*
X65478300Y-52750000D01*
X70991500Y-57478300D02*
X70691501Y-57178301D01*
X70691501Y-57178301D02*
X70691501Y-56849011D01*
X60129400Y-52348400D02*
X58920000Y-51139000D01*
X65076700Y-52348400D02*
X60129400Y-52348400D01*
X68541200Y-67627800D02*
X66480000Y-69689000D01*
X74519600Y-67627800D02*
X68541200Y-67627800D01*
X79807700Y-63778700D02*
X79807700Y-63778600D01*
X79670400Y-63778700D02*
X79807700Y-63778700D01*
X75189700Y-68259400D02*
X79670400Y-63778700D01*
X70571600Y-68259400D02*
X75189700Y-68259400D01*
X69020000Y-69811000D02*
X70571600Y-68259400D01*
X65111600Y-68639400D02*
X63940000Y-69811000D01*
X66675900Y-68639400D02*
X65111600Y-68639400D01*
X68342700Y-66972600D02*
X66675900Y-68639400D01*
X75221300Y-66972600D02*
X68342700Y-66972600D01*
X81937100Y-64453100D02*
X82620100Y-63770100D01*
X79653300Y-64453100D02*
X81937100Y-64453100D01*
X75396600Y-68709800D02*
X79653300Y-64453100D01*
X72539200Y-68709800D02*
X75396600Y-68709800D01*
X71560000Y-69689000D02*
X72539200Y-68709800D01*
X79379100Y-65364200D02*
X84577900Y-65364200D01*
X74932300Y-69811000D02*
X79379100Y-65364200D01*
X74100000Y-69811000D02*
X74932300Y-69811000D01*
X80107200Y-66221800D02*
X76640000Y-69689000D01*
X83916500Y-66221800D02*
X80107200Y-66221800D01*
X81720000Y-68239800D02*
X83095700Y-66864100D01*
X81720000Y-69689000D02*
X81720000Y-68239800D01*
X68043500Y-56051700D02*
X65195300Y-56051700D01*
X69593100Y-57601300D02*
X68043500Y-56051700D01*
X70230000Y-57601300D02*
X69593100Y-57601300D01*
X71053900Y-58425200D02*
X70230000Y-57601300D01*
X72696100Y-58425200D02*
X71053900Y-58425200D01*
X73474100Y-57647200D02*
X72696100Y-58425200D01*
X73474100Y-56067000D02*
X73474100Y-57647200D01*
D21*
G36*
X64078778Y-68153680D02*
X64078738Y-68199167D01*
X64193817Y-68477681D01*
X63675914Y-68477229D01*
X63185620Y-68679814D01*
X62810173Y-69054607D01*
X62701968Y-69315193D01*
X62569800Y-68996111D01*
X62334188Y-68934457D01*
X61579605Y-69689040D01*
X61593748Y-69703183D01*
X61414143Y-69882788D01*
X61400000Y-69868645D01*
X61385858Y-69882788D01*
X61206253Y-69703183D01*
X61220395Y-69689040D01*
X61206253Y-69674898D01*
X61385858Y-69495293D01*
X61400000Y-69509435D01*
X62154583Y-68754852D01*
X62092929Y-68519240D01*
X61626577Y-68355100D01*
X61954437Y-68355100D01*
X61986573Y-68387292D01*
X62330101Y-68529938D01*
X62702067Y-68530262D01*
X63045843Y-68388217D01*
X63309092Y-68125427D01*
X63451738Y-67781899D01*
X63451794Y-67717200D01*
X63642298Y-67717200D01*
X64078778Y-68153680D01*
X64078778Y-68153680D01*
G37*
X64078778Y-68153680D02*
X64078738Y-68199167D01*
X64193817Y-68477681D01*
X63675914Y-68477229D01*
X63185620Y-68679814D01*
X62810173Y-69054607D01*
X62701968Y-69315193D01*
X62569800Y-68996111D01*
X62334188Y-68934457D01*
X61579605Y-69689040D01*
X61593748Y-69703183D01*
X61414143Y-69882788D01*
X61400000Y-69868645D01*
X61385858Y-69882788D01*
X61206253Y-69703183D01*
X61220395Y-69689040D01*
X61206253Y-69674898D01*
X61385858Y-69495293D01*
X61400000Y-69509435D01*
X62154583Y-68754852D01*
X62092929Y-68519240D01*
X61626577Y-68355100D01*
X61954437Y-68355100D01*
X61986573Y-68387292D01*
X62330101Y-68529938D01*
X62702067Y-68530262D01*
X63045843Y-68388217D01*
X63309092Y-68125427D01*
X63451738Y-67781899D01*
X63451794Y-67717200D01*
X63642298Y-67717200D01*
X64078778Y-68153680D01*
G36*
X54033748Y-51124898D02*
X54019605Y-51139040D01*
X54820213Y-51939648D01*
X55062397Y-51870183D01*
X55089166Y-51795150D01*
X55194990Y-52051263D01*
X55587630Y-52444589D01*
X56100900Y-52657717D01*
X56656661Y-52658202D01*
X57170303Y-52445970D01*
X57563629Y-52053330D01*
X57675199Y-51784638D01*
X57734990Y-51929343D01*
X58127630Y-52322669D01*
X58640900Y-52535797D01*
X59196661Y-52536282D01*
X59229083Y-52522885D01*
X59591999Y-52885801D01*
X59838561Y-53050548D01*
X60129400Y-53108400D01*
X64761898Y-53108400D01*
X64940899Y-53287401D01*
X65187460Y-53452148D01*
X65478300Y-53510000D01*
X66277688Y-53510000D01*
X68063333Y-55295645D01*
X68043500Y-55291700D01*
X65757763Y-55291700D01*
X65725627Y-55259508D01*
X65382099Y-55116862D01*
X65010133Y-55116538D01*
X64666357Y-55258583D01*
X64403108Y-55521373D01*
X64260462Y-55864901D01*
X64260138Y-56236867D01*
X64335628Y-56419568D01*
X64071233Y-56419338D01*
X63876424Y-56499831D01*
X63860316Y-56460846D01*
X63892892Y-56428327D01*
X64035538Y-56084799D01*
X64035862Y-55712833D01*
X63893817Y-55369057D01*
X63631027Y-55105808D01*
X63287499Y-54963162D01*
X62915533Y-54962838D01*
X62571757Y-55104883D01*
X62538582Y-55138000D01*
X59136207Y-55138000D01*
X58900527Y-54901908D01*
X58556999Y-54759262D01*
X58185033Y-54758938D01*
X57841257Y-54900983D01*
X57578008Y-55163773D01*
X57435362Y-55507301D01*
X57435321Y-55554177D01*
X55162599Y-57826899D01*
X54997852Y-58073461D01*
X54940000Y-58364300D01*
X54940000Y-58415816D01*
X54669406Y-58235012D01*
X54187225Y-58139100D01*
X54137855Y-58139100D01*
X53655674Y-58235012D01*
X53246900Y-58508145D01*
X52973767Y-58916919D01*
X52877855Y-59399100D01*
X52973767Y-59881281D01*
X53246900Y-60290055D01*
X53655674Y-60563188D01*
X54137855Y-60659100D01*
X54187225Y-60659100D01*
X54669406Y-60563188D01*
X54892560Y-60414082D01*
X54892560Y-62000000D01*
X54936838Y-62235317D01*
X55075910Y-62451441D01*
X55288110Y-62596431D01*
X55540000Y-62647440D01*
X55860000Y-62647440D01*
X56015507Y-62618179D01*
X56160000Y-62647440D01*
X56480000Y-62647440D01*
X56635507Y-62618179D01*
X56780000Y-62647440D01*
X57100000Y-62647440D01*
X57255507Y-62618179D01*
X57400000Y-62647440D01*
X57498767Y-62647440D01*
X57642599Y-62862701D01*
X58392599Y-63612701D01*
X58530000Y-63704510D01*
X58530000Y-63892100D01*
X58587852Y-64182939D01*
X58648623Y-64273889D01*
X58648538Y-64370967D01*
X58790583Y-64714743D01*
X59053373Y-64977992D01*
X59150878Y-65018480D01*
X60482398Y-66350000D01*
X58992398Y-67840000D01*
X57409040Y-67840000D01*
X57118201Y-67897852D01*
X56871639Y-68062599D01*
X56578473Y-68355765D01*
X56055914Y-68355309D01*
X55565620Y-68557894D01*
X55190173Y-68932687D01*
X55024656Y-69331296D01*
X54911146Y-69056580D01*
X54536353Y-68681133D01*
X54046413Y-68477692D01*
X53515914Y-68477229D01*
X53025620Y-68679814D01*
X52650173Y-69054607D01*
X52573500Y-69239256D01*
X52573500Y-68864230D01*
X52476827Y-68630841D01*
X52298198Y-68452213D01*
X52064809Y-68355540D01*
X51525750Y-68355540D01*
X51367000Y-68514290D01*
X51367000Y-69562040D01*
X51387000Y-69562040D01*
X51387000Y-69816040D01*
X51367000Y-69816040D01*
X51367000Y-69836040D01*
X51113000Y-69836040D01*
X51113000Y-69816040D01*
X51093000Y-69816040D01*
X51093000Y-69562040D01*
X51113000Y-69562040D01*
X51113000Y-68514290D01*
X50954250Y-68355540D01*
X50685000Y-68355540D01*
X50685000Y-61697845D01*
X50922956Y-61856842D01*
X51462540Y-61964172D01*
X52002124Y-61856842D01*
X52459561Y-61551193D01*
X52765210Y-61093756D01*
X52872540Y-60554172D01*
X52872540Y-60244028D01*
X52765210Y-59704444D01*
X52459561Y-59247007D01*
X52002124Y-58941358D01*
X51462540Y-58834028D01*
X50922956Y-58941358D01*
X50685000Y-59100355D01*
X50685000Y-54697845D01*
X50922956Y-54856842D01*
X51462540Y-54964172D01*
X52002124Y-54856842D01*
X52459561Y-54551193D01*
X52561186Y-54399100D01*
X52877855Y-54399100D01*
X52973767Y-54881281D01*
X53246900Y-55290055D01*
X53655674Y-55563188D01*
X54137855Y-55659100D01*
X54187225Y-55659100D01*
X54669406Y-55563188D01*
X55078180Y-55290055D01*
X55351313Y-54881281D01*
X55447225Y-54399100D01*
X55351313Y-53916919D01*
X55078180Y-53508145D01*
X54669406Y-53235012D01*
X54187225Y-53139100D01*
X54137855Y-53139100D01*
X53655674Y-53235012D01*
X53246900Y-53508145D01*
X52973767Y-53916919D01*
X52877855Y-54399100D01*
X52561186Y-54399100D01*
X52765210Y-54093756D01*
X52872540Y-53554172D01*
X52872540Y-53244028D01*
X52765210Y-52704444D01*
X52459561Y-52247007D01*
X52378776Y-52193028D01*
X52395226Y-52176578D01*
X52337901Y-52119253D01*
X53039392Y-52119253D01*
X53108857Y-52361437D01*
X53632302Y-52548184D01*
X54187368Y-52520402D01*
X54571143Y-52361437D01*
X54640608Y-52119253D01*
X53840000Y-51318645D01*
X53039392Y-52119253D01*
X52337901Y-52119253D01*
X52280215Y-52061567D01*
X52522397Y-51992103D01*
X52589822Y-51803114D01*
X52617603Y-51870183D01*
X52859787Y-51939648D01*
X53660395Y-51139040D01*
X53646253Y-51124898D01*
X53825858Y-50945293D01*
X53840000Y-50959435D01*
X53854143Y-50945293D01*
X54033748Y-51124898D01*
X54033748Y-51124898D01*
G37*
X54033748Y-51124898D02*
X54019605Y-51139040D01*
X54820213Y-51939648D01*
X55062397Y-51870183D01*
X55089166Y-51795150D01*
X55194990Y-52051263D01*
X55587630Y-52444589D01*
X56100900Y-52657717D01*
X56656661Y-52658202D01*
X57170303Y-52445970D01*
X57563629Y-52053330D01*
X57675199Y-51784638D01*
X57734990Y-51929343D01*
X58127630Y-52322669D01*
X58640900Y-52535797D01*
X59196661Y-52536282D01*
X59229083Y-52522885D01*
X59591999Y-52885801D01*
X59838561Y-53050548D01*
X60129400Y-53108400D01*
X64761898Y-53108400D01*
X64940899Y-53287401D01*
X65187460Y-53452148D01*
X65478300Y-53510000D01*
X66277688Y-53510000D01*
X68063333Y-55295645D01*
X68043500Y-55291700D01*
X65757763Y-55291700D01*
X65725627Y-55259508D01*
X65382099Y-55116862D01*
X65010133Y-55116538D01*
X64666357Y-55258583D01*
X64403108Y-55521373D01*
X64260462Y-55864901D01*
X64260138Y-56236867D01*
X64335628Y-56419568D01*
X64071233Y-56419338D01*
X63876424Y-56499831D01*
X63860316Y-56460846D01*
X63892892Y-56428327D01*
X64035538Y-56084799D01*
X64035862Y-55712833D01*
X63893817Y-55369057D01*
X63631027Y-55105808D01*
X63287499Y-54963162D01*
X62915533Y-54962838D01*
X62571757Y-55104883D01*
X62538582Y-55138000D01*
X59136207Y-55138000D01*
X58900527Y-54901908D01*
X58556999Y-54759262D01*
X58185033Y-54758938D01*
X57841257Y-54900983D01*
X57578008Y-55163773D01*
X57435362Y-55507301D01*
X57435321Y-55554177D01*
X55162599Y-57826899D01*
X54997852Y-58073461D01*
X54940000Y-58364300D01*
X54940000Y-58415816D01*
X54669406Y-58235012D01*
X54187225Y-58139100D01*
X54137855Y-58139100D01*
X53655674Y-58235012D01*
X53246900Y-58508145D01*
X52973767Y-58916919D01*
X52877855Y-59399100D01*
X52973767Y-59881281D01*
X53246900Y-60290055D01*
X53655674Y-60563188D01*
X54137855Y-60659100D01*
X54187225Y-60659100D01*
X54669406Y-60563188D01*
X54892560Y-60414082D01*
X54892560Y-62000000D01*
X54936838Y-62235317D01*
X55075910Y-62451441D01*
X55288110Y-62596431D01*
X55540000Y-62647440D01*
X55860000Y-62647440D01*
X56015507Y-62618179D01*
X56160000Y-62647440D01*
X56480000Y-62647440D01*
X56635507Y-62618179D01*
X56780000Y-62647440D01*
X57100000Y-62647440D01*
X57255507Y-62618179D01*
X57400000Y-62647440D01*
X57498767Y-62647440D01*
X57642599Y-62862701D01*
X58392599Y-63612701D01*
X58530000Y-63704510D01*
X58530000Y-63892100D01*
X58587852Y-64182939D01*
X58648623Y-64273889D01*
X58648538Y-64370967D01*
X58790583Y-64714743D01*
X59053373Y-64977992D01*
X59150878Y-65018480D01*
X60482398Y-66350000D01*
X58992398Y-67840000D01*
X57409040Y-67840000D01*
X57118201Y-67897852D01*
X56871639Y-68062599D01*
X56578473Y-68355765D01*
X56055914Y-68355309D01*
X55565620Y-68557894D01*
X55190173Y-68932687D01*
X55024656Y-69331296D01*
X54911146Y-69056580D01*
X54536353Y-68681133D01*
X54046413Y-68477692D01*
X53515914Y-68477229D01*
X53025620Y-68679814D01*
X52650173Y-69054607D01*
X52573500Y-69239256D01*
X52573500Y-68864230D01*
X52476827Y-68630841D01*
X52298198Y-68452213D01*
X52064809Y-68355540D01*
X51525750Y-68355540D01*
X51367000Y-68514290D01*
X51367000Y-69562040D01*
X51387000Y-69562040D01*
X51387000Y-69816040D01*
X51367000Y-69816040D01*
X51367000Y-69836040D01*
X51113000Y-69836040D01*
X51113000Y-69816040D01*
X51093000Y-69816040D01*
X51093000Y-69562040D01*
X51113000Y-69562040D01*
X51113000Y-68514290D01*
X50954250Y-68355540D01*
X50685000Y-68355540D01*
X50685000Y-61697845D01*
X50922956Y-61856842D01*
X51462540Y-61964172D01*
X52002124Y-61856842D01*
X52459561Y-61551193D01*
X52765210Y-61093756D01*
X52872540Y-60554172D01*
X52872540Y-60244028D01*
X52765210Y-59704444D01*
X52459561Y-59247007D01*
X52002124Y-58941358D01*
X51462540Y-58834028D01*
X50922956Y-58941358D01*
X50685000Y-59100355D01*
X50685000Y-54697845D01*
X50922956Y-54856842D01*
X51462540Y-54964172D01*
X52002124Y-54856842D01*
X52459561Y-54551193D01*
X52561186Y-54399100D01*
X52877855Y-54399100D01*
X52973767Y-54881281D01*
X53246900Y-55290055D01*
X53655674Y-55563188D01*
X54137855Y-55659100D01*
X54187225Y-55659100D01*
X54669406Y-55563188D01*
X55078180Y-55290055D01*
X55351313Y-54881281D01*
X55447225Y-54399100D01*
X55351313Y-53916919D01*
X55078180Y-53508145D01*
X54669406Y-53235012D01*
X54187225Y-53139100D01*
X54137855Y-53139100D01*
X53655674Y-53235012D01*
X53246900Y-53508145D01*
X52973767Y-53916919D01*
X52877855Y-54399100D01*
X52561186Y-54399100D01*
X52765210Y-54093756D01*
X52872540Y-53554172D01*
X52872540Y-53244028D01*
X52765210Y-52704444D01*
X52459561Y-52247007D01*
X52378776Y-52193028D01*
X52395226Y-52176578D01*
X52337901Y-52119253D01*
X53039392Y-52119253D01*
X53108857Y-52361437D01*
X53632302Y-52548184D01*
X54187368Y-52520402D01*
X54571143Y-52361437D01*
X54640608Y-52119253D01*
X53840000Y-51318645D01*
X53039392Y-52119253D01*
X52337901Y-52119253D01*
X52280215Y-52061567D01*
X52522397Y-51992103D01*
X52589822Y-51803114D01*
X52617603Y-51870183D01*
X52859787Y-51939648D01*
X53660395Y-51139040D01*
X53646253Y-51124898D01*
X53825858Y-50945293D01*
X53840000Y-50959435D01*
X53854143Y-50945293D01*
X54033748Y-51124898D01*
G36*
X86469199Y-67437401D02*
X86715760Y-67602148D01*
X86764014Y-67611746D01*
X87006600Y-67660000D01*
X90065198Y-67660000D01*
X88796158Y-68929040D01*
X87997531Y-68929040D01*
X87985010Y-68898737D01*
X87592370Y-68505411D01*
X87079100Y-68292283D01*
X86523339Y-68291798D01*
X86009697Y-68504030D01*
X85616371Y-68896670D01*
X85504801Y-69165362D01*
X85445010Y-69020657D01*
X85052370Y-68627331D01*
X84539100Y-68414203D01*
X83983339Y-68413718D01*
X83469697Y-68625950D01*
X83076371Y-69018590D01*
X83015301Y-69165663D01*
X82905010Y-68898737D01*
X82520773Y-68513829D01*
X83235380Y-67799222D01*
X83280867Y-67799262D01*
X83624643Y-67657217D01*
X83887892Y-67394427D01*
X83986538Y-67156862D01*
X84101667Y-67156962D01*
X84445443Y-67014917D01*
X84708692Y-66752127D01*
X84851338Y-66408599D01*
X84851465Y-66262837D01*
X85106843Y-66157317D01*
X85148015Y-66116217D01*
X86469199Y-67437401D01*
X86469199Y-67437401D01*
G37*
X86469199Y-67437401D02*
X86715760Y-67602148D01*
X86764014Y-67611746D01*
X87006600Y-67660000D01*
X90065198Y-67660000D01*
X88796158Y-68929040D01*
X87997531Y-68929040D01*
X87985010Y-68898737D01*
X87592370Y-68505411D01*
X87079100Y-68292283D01*
X86523339Y-68291798D01*
X86009697Y-68504030D01*
X85616371Y-68896670D01*
X85504801Y-69165362D01*
X85445010Y-69020657D01*
X85052370Y-68627331D01*
X84539100Y-68414203D01*
X83983339Y-68413718D01*
X83469697Y-68625950D01*
X83076371Y-69018590D01*
X83015301Y-69165663D01*
X82905010Y-68898737D01*
X82520773Y-68513829D01*
X83235380Y-67799222D01*
X83280867Y-67799262D01*
X83624643Y-67657217D01*
X83887892Y-67394427D01*
X83986538Y-67156862D01*
X84101667Y-67156962D01*
X84445443Y-67014917D01*
X84708692Y-66752127D01*
X84851338Y-66408599D01*
X84851465Y-66262837D01*
X85106843Y-66157317D01*
X85148015Y-66116217D01*
X86469199Y-67437401D01*
G36*
X69055699Y-58138701D02*
X69302260Y-58303448D01*
X69593100Y-58361300D01*
X69915198Y-58361300D01*
X70028462Y-58474564D01*
X69880057Y-58535883D01*
X69616808Y-58798673D01*
X69474162Y-59142201D01*
X69473838Y-59514167D01*
X69615883Y-59857943D01*
X69878673Y-60121192D01*
X70222201Y-60263838D01*
X70269077Y-60263879D01*
X71927498Y-61922300D01*
X68500000Y-61922300D01*
X68209161Y-61980152D01*
X67962599Y-62144899D01*
X65039898Y-65067600D01*
X63900102Y-65067600D01*
X64297401Y-64670301D01*
X64462148Y-64423739D01*
X64520000Y-64132900D01*
X64520000Y-62234266D01*
X64567440Y-62000000D01*
X64567440Y-59000000D01*
X64564724Y-58985565D01*
X64583167Y-58973241D01*
X64746795Y-58863909D01*
X65027636Y-58583068D01*
X65250467Y-58583262D01*
X65594243Y-58441217D01*
X65857492Y-58178427D01*
X66000138Y-57834899D01*
X66000462Y-57462933D01*
X65858417Y-57119157D01*
X65625347Y-56885680D01*
X65724243Y-56844817D01*
X65757418Y-56811700D01*
X67728698Y-56811700D01*
X69055699Y-58138701D01*
X69055699Y-58138701D01*
G37*
X69055699Y-58138701D02*
X69302260Y-58303448D01*
X69593100Y-58361300D01*
X69915198Y-58361300D01*
X70028462Y-58474564D01*
X69880057Y-58535883D01*
X69616808Y-58798673D01*
X69474162Y-59142201D01*
X69473838Y-59514167D01*
X69615883Y-59857943D01*
X69878673Y-60121192D01*
X70222201Y-60263838D01*
X70269077Y-60263879D01*
X71927498Y-61922300D01*
X68500000Y-61922300D01*
X68209161Y-61980152D01*
X67962599Y-62144899D01*
X65039898Y-65067600D01*
X63900102Y-65067600D01*
X64297401Y-64670301D01*
X64462148Y-64423739D01*
X64520000Y-64132900D01*
X64520000Y-62234266D01*
X64567440Y-62000000D01*
X64567440Y-59000000D01*
X64564724Y-58985565D01*
X64583167Y-58973241D01*
X64746795Y-58863909D01*
X65027636Y-58583068D01*
X65250467Y-58583262D01*
X65594243Y-58441217D01*
X65857492Y-58178427D01*
X66000138Y-57834899D01*
X66000462Y-57462933D01*
X65858417Y-57119157D01*
X65625347Y-56885680D01*
X65724243Y-56844817D01*
X65757418Y-56811700D01*
X67728698Y-56811700D01*
X69055699Y-58138701D01*
G36*
X71813748Y-51246818D02*
X71799605Y-51260960D01*
X72554188Y-52015543D01*
X72789800Y-51953889D01*
X72911256Y-51608810D01*
X73028854Y-51893420D01*
X73403647Y-52268867D01*
X73893587Y-52472308D01*
X74418965Y-52472767D01*
X78581999Y-56635801D01*
X78828561Y-56800548D01*
X79119400Y-56858400D01*
X80885837Y-56858400D01*
X80917973Y-56890592D01*
X81189607Y-57003385D01*
X81281483Y-57225743D01*
X81544273Y-57488992D01*
X81887801Y-57631638D01*
X82259767Y-57631962D01*
X82603543Y-57489917D01*
X82866792Y-57227127D01*
X83009438Y-56883599D01*
X83009762Y-56511633D01*
X82867717Y-56167857D01*
X82834600Y-56134682D01*
X82834600Y-55790900D01*
X82797713Y-55605457D01*
X82776748Y-55500060D01*
X82612001Y-55253499D01*
X82294500Y-54935998D01*
X82047938Y-54771251D01*
X81757099Y-54713399D01*
X79538201Y-54713399D01*
X77460000Y-52635198D01*
X77460000Y-52386496D01*
X77829827Y-52017313D01*
X77995344Y-51618704D01*
X78108854Y-51893420D01*
X78483647Y-52268867D01*
X78973587Y-52472308D01*
X79498965Y-52472767D01*
X79848060Y-52821862D01*
X80094622Y-52986609D01*
X80385461Y-53044461D01*
X81569659Y-53044461D01*
X83278460Y-54753262D01*
X83188462Y-54970001D01*
X83188138Y-55341967D01*
X83330183Y-55685743D01*
X83592973Y-55948992D01*
X83936501Y-56091638D01*
X84130136Y-56091807D01*
X84129938Y-56319567D01*
X84271983Y-56663343D01*
X84534773Y-56926592D01*
X84759755Y-57020013D01*
X84852983Y-57245643D01*
X85115773Y-57508892D01*
X85459301Y-57651538D01*
X85831267Y-57651862D01*
X86175043Y-57509817D01*
X86438292Y-57247027D01*
X86580938Y-56903499D01*
X86581262Y-56531533D01*
X86498600Y-56331475D01*
X86498600Y-55800400D01*
X86440748Y-55509561D01*
X86349709Y-55373311D01*
X89173958Y-58197560D01*
X88825000Y-58197560D01*
X88589683Y-58241838D01*
X88373559Y-58380910D01*
X88228569Y-58593110D01*
X88177560Y-58845000D01*
X88177560Y-59289821D01*
X88103569Y-59398110D01*
X88052560Y-59650000D01*
X88052560Y-61350000D01*
X88096838Y-61585317D01*
X88177560Y-61710763D01*
X88177560Y-62155000D01*
X88221838Y-62390317D01*
X88360910Y-62606441D01*
X88573110Y-62751431D01*
X88825000Y-62802440D01*
X89275000Y-62802440D01*
X89510317Y-62758162D01*
X89534405Y-62742662D01*
X89648690Y-62790000D01*
X89728750Y-62790000D01*
X89887500Y-62631250D01*
X89887500Y-62327539D01*
X89922440Y-62155000D01*
X89922440Y-61997440D01*
X90077560Y-61997440D01*
X90077560Y-62155000D01*
X90112500Y-62340690D01*
X90112500Y-62631250D01*
X90190000Y-62708750D01*
X90190000Y-63153026D01*
X89129478Y-64213548D01*
X88986353Y-64070173D01*
X88496413Y-63866732D01*
X87965914Y-63866269D01*
X87475620Y-64068854D01*
X87103826Y-64440000D01*
X86895202Y-64440000D01*
X84161601Y-61706399D01*
X83915039Y-61541652D01*
X83624200Y-61483800D01*
X83601565Y-61483800D01*
X83711643Y-61438317D01*
X83974892Y-61175527D01*
X84117538Y-60831999D01*
X84117579Y-60785123D01*
X84349002Y-60553700D01*
X86498637Y-60553700D01*
X86530773Y-60585892D01*
X86874301Y-60728538D01*
X87246267Y-60728862D01*
X87590043Y-60586817D01*
X87853292Y-60324027D01*
X87995938Y-59980499D01*
X87996262Y-59608533D01*
X87854217Y-59264757D01*
X87591427Y-59001508D01*
X87247899Y-58858862D01*
X86875933Y-58858538D01*
X86532157Y-59000583D01*
X86498982Y-59033700D01*
X84034200Y-59033700D01*
X83743361Y-59091552D01*
X83496799Y-59256299D01*
X83043020Y-59710078D01*
X82997533Y-59710038D01*
X82653757Y-59852083D01*
X82390508Y-60114873D01*
X82247862Y-60458401D01*
X82247670Y-60679122D01*
X82193099Y-60656462D01*
X81821133Y-60656138D01*
X81477357Y-60798183D01*
X81444182Y-60831300D01*
X76113800Y-60831300D01*
X75822961Y-60889152D01*
X75576399Y-61053899D01*
X75537095Y-61093203D01*
X75537262Y-60901433D01*
X75395217Y-60557657D01*
X75362100Y-60524482D01*
X75362100Y-56305200D01*
X75304248Y-56014361D01*
X75139501Y-55767799D01*
X74276300Y-54904598D01*
X74029738Y-54739851D01*
X73738899Y-54681999D01*
X72206801Y-54681999D01*
X69840000Y-52315198D01*
X69840000Y-52264576D01*
X69909549Y-52195148D01*
X70865417Y-52195148D01*
X70927071Y-52430760D01*
X71427480Y-52606887D01*
X71957199Y-52578108D01*
X72312929Y-52430760D01*
X72374583Y-52195148D01*
X71620000Y-51440565D01*
X70865417Y-52195148D01*
X69909549Y-52195148D01*
X70209827Y-51895393D01*
X70318032Y-51634807D01*
X70450200Y-51953889D01*
X70685812Y-52015543D01*
X71440395Y-51260960D01*
X71426253Y-51246818D01*
X71605858Y-51067213D01*
X71620000Y-51081355D01*
X71634143Y-51067213D01*
X71813748Y-51246818D01*
X71813748Y-51246818D01*
G37*
X71813748Y-51246818D02*
X71799605Y-51260960D01*
X72554188Y-52015543D01*
X72789800Y-51953889D01*
X72911256Y-51608810D01*
X73028854Y-51893420D01*
X73403647Y-52268867D01*
X73893587Y-52472308D01*
X74418965Y-52472767D01*
X78581999Y-56635801D01*
X78828561Y-56800548D01*
X79119400Y-56858400D01*
X80885837Y-56858400D01*
X80917973Y-56890592D01*
X81189607Y-57003385D01*
X81281483Y-57225743D01*
X81544273Y-57488992D01*
X81887801Y-57631638D01*
X82259767Y-57631962D01*
X82603543Y-57489917D01*
X82866792Y-57227127D01*
X83009438Y-56883599D01*
X83009762Y-56511633D01*
X82867717Y-56167857D01*
X82834600Y-56134682D01*
X82834600Y-55790900D01*
X82797713Y-55605457D01*
X82776748Y-55500060D01*
X82612001Y-55253499D01*
X82294500Y-54935998D01*
X82047938Y-54771251D01*
X81757099Y-54713399D01*
X79538201Y-54713399D01*
X77460000Y-52635198D01*
X77460000Y-52386496D01*
X77829827Y-52017313D01*
X77995344Y-51618704D01*
X78108854Y-51893420D01*
X78483647Y-52268867D01*
X78973587Y-52472308D01*
X79498965Y-52472767D01*
X79848060Y-52821862D01*
X80094622Y-52986609D01*
X80385461Y-53044461D01*
X81569659Y-53044461D01*
X83278460Y-54753262D01*
X83188462Y-54970001D01*
X83188138Y-55341967D01*
X83330183Y-55685743D01*
X83592973Y-55948992D01*
X83936501Y-56091638D01*
X84130136Y-56091807D01*
X84129938Y-56319567D01*
X84271983Y-56663343D01*
X84534773Y-56926592D01*
X84759755Y-57020013D01*
X84852983Y-57245643D01*
X85115773Y-57508892D01*
X85459301Y-57651538D01*
X85831267Y-57651862D01*
X86175043Y-57509817D01*
X86438292Y-57247027D01*
X86580938Y-56903499D01*
X86581262Y-56531533D01*
X86498600Y-56331475D01*
X86498600Y-55800400D01*
X86440748Y-55509561D01*
X86349709Y-55373311D01*
X89173958Y-58197560D01*
X88825000Y-58197560D01*
X88589683Y-58241838D01*
X88373559Y-58380910D01*
X88228569Y-58593110D01*
X88177560Y-58845000D01*
X88177560Y-59289821D01*
X88103569Y-59398110D01*
X88052560Y-59650000D01*
X88052560Y-61350000D01*
X88096838Y-61585317D01*
X88177560Y-61710763D01*
X88177560Y-62155000D01*
X88221838Y-62390317D01*
X88360910Y-62606441D01*
X88573110Y-62751431D01*
X88825000Y-62802440D01*
X89275000Y-62802440D01*
X89510317Y-62758162D01*
X89534405Y-62742662D01*
X89648690Y-62790000D01*
X89728750Y-62790000D01*
X89887500Y-62631250D01*
X89887500Y-62327539D01*
X89922440Y-62155000D01*
X89922440Y-61997440D01*
X90077560Y-61997440D01*
X90077560Y-62155000D01*
X90112500Y-62340690D01*
X90112500Y-62631250D01*
X90190000Y-62708750D01*
X90190000Y-63153026D01*
X89129478Y-64213548D01*
X88986353Y-64070173D01*
X88496413Y-63866732D01*
X87965914Y-63866269D01*
X87475620Y-64068854D01*
X87103826Y-64440000D01*
X86895202Y-64440000D01*
X84161601Y-61706399D01*
X83915039Y-61541652D01*
X83624200Y-61483800D01*
X83601565Y-61483800D01*
X83711643Y-61438317D01*
X83974892Y-61175527D01*
X84117538Y-60831999D01*
X84117579Y-60785123D01*
X84349002Y-60553700D01*
X86498637Y-60553700D01*
X86530773Y-60585892D01*
X86874301Y-60728538D01*
X87246267Y-60728862D01*
X87590043Y-60586817D01*
X87853292Y-60324027D01*
X87995938Y-59980499D01*
X87996262Y-59608533D01*
X87854217Y-59264757D01*
X87591427Y-59001508D01*
X87247899Y-58858862D01*
X86875933Y-58858538D01*
X86532157Y-59000583D01*
X86498982Y-59033700D01*
X84034200Y-59033700D01*
X83743361Y-59091552D01*
X83496799Y-59256299D01*
X83043020Y-59710078D01*
X82997533Y-59710038D01*
X82653757Y-59852083D01*
X82390508Y-60114873D01*
X82247862Y-60458401D01*
X82247670Y-60679122D01*
X82193099Y-60656462D01*
X81821133Y-60656138D01*
X81477357Y-60798183D01*
X81444182Y-60831300D01*
X76113800Y-60831300D01*
X75822961Y-60889152D01*
X75576399Y-61053899D01*
X75537095Y-61093203D01*
X75537262Y-60901433D01*
X75395217Y-60557657D01*
X75362100Y-60524482D01*
X75362100Y-56305200D01*
X75304248Y-56014361D01*
X75139501Y-55767799D01*
X74276300Y-54904598D01*
X74029738Y-54739851D01*
X73738899Y-54681999D01*
X72206801Y-54681999D01*
X69840000Y-52315198D01*
X69840000Y-52264576D01*
X69909549Y-52195148D01*
X70865417Y-52195148D01*
X70927071Y-52430760D01*
X71427480Y-52606887D01*
X71957199Y-52578108D01*
X72312929Y-52430760D01*
X72374583Y-52195148D01*
X71620000Y-51440565D01*
X70865417Y-52195148D01*
X69909549Y-52195148D01*
X70209827Y-51895393D01*
X70318032Y-51634807D01*
X70450200Y-51953889D01*
X70685812Y-52015543D01*
X71440395Y-51260960D01*
X71426253Y-51246818D01*
X71605858Y-51067213D01*
X71620000Y-51081355D01*
X71634143Y-51067213D01*
X71813748Y-51246818D01*
G36*
X93315000Y-57927088D02*
X92450511Y-57062599D01*
X92203949Y-56897852D01*
X91913110Y-56840000D01*
X90602412Y-56840000D01*
X90152449Y-56390037D01*
X90152704Y-56097291D01*
X90010659Y-55753515D01*
X89747869Y-55490266D01*
X89404341Y-55347620D01*
X89032375Y-55347296D01*
X88688599Y-55489341D01*
X88651939Y-55525937D01*
X87185122Y-54059120D01*
X87185162Y-54013633D01*
X87043117Y-53669857D01*
X86780327Y-53406608D01*
X86436799Y-53263962D01*
X86130800Y-53263695D01*
X86130800Y-52600683D01*
X86161500Y-52606900D01*
X87558500Y-52606900D01*
X87793817Y-52562622D01*
X88009941Y-52423550D01*
X88154931Y-52211350D01*
X88205940Y-51959460D01*
X88205940Y-50685000D01*
X93315000Y-50685000D01*
X93315000Y-57927088D01*
X93315000Y-57927088D01*
G37*
X93315000Y-57927088D02*
X92450511Y-57062599D01*
X92203949Y-56897852D01*
X91913110Y-56840000D01*
X90602412Y-56840000D01*
X90152449Y-56390037D01*
X90152704Y-56097291D01*
X90010659Y-55753515D01*
X89747869Y-55490266D01*
X89404341Y-55347620D01*
X89032375Y-55347296D01*
X88688599Y-55489341D01*
X88651939Y-55525937D01*
X87185122Y-54059120D01*
X87185162Y-54013633D01*
X87043117Y-53669857D01*
X86780327Y-53406608D01*
X86436799Y-53263962D01*
X86130800Y-53263695D01*
X86130800Y-52600683D01*
X86161500Y-52606900D01*
X87558500Y-52606900D01*
X87793817Y-52562622D01*
X88009941Y-52423550D01*
X88154931Y-52211350D01*
X88205940Y-51959460D01*
X88205940Y-50685000D01*
X93315000Y-50685000D01*
X93315000Y-57927088D01*
G36*
X51493748Y-51246818D02*
X51479605Y-51260960D01*
X51493748Y-51275103D01*
X51314143Y-51454708D01*
X51300000Y-51440565D01*
X51285858Y-51454708D01*
X51106253Y-51275103D01*
X51120395Y-51260960D01*
X51106253Y-51246818D01*
X51285858Y-51067213D01*
X51300000Y-51081355D01*
X51314143Y-51067213D01*
X51493748Y-51246818D01*
X51493748Y-51246818D01*
G37*
X51493748Y-51246818D02*
X51479605Y-51260960D01*
X51493748Y-51275103D01*
X51314143Y-51454708D01*
X51300000Y-51440565D01*
X51285858Y-51454708D01*
X51106253Y-51275103D01*
X51120395Y-51260960D01*
X51106253Y-51246818D01*
X51285858Y-51067213D01*
X51300000Y-51081355D01*
X51314143Y-51067213D01*
X51493748Y-51246818D01*
M02*
