M48
;DRILL file {KiCad 4.0.4+dfsg1-stable} date Sat Jan 21 21:23:42 2017
;FORMAT={-:-/ absolute / inch / decimal}
FMAT,2
INCH,TZ
T1C0.016
T2C0.020
T3C0.022
T4C0.030
T5C0.032
%
G90
G05
M72
T1
X2.298Y-2.1927
X2.3276Y-2.2621
X2.3458Y-2.527
X2.4613Y-2.6612
X2.4616Y-2.5346
X2.4617Y-2.1174
X2.4685Y-2.5666
X2.4782Y-2.2322
X2.4843Y-2.2007
X2.5298Y-2.2581
X2.5596Y-2.6777
X2.5616Y-2.2696
X2.5667Y-2.2068
X2.5812Y-2.6539
X2.689Y-2.2609
X2.772Y-2.3358
X2.7949Y-2.2629
X2.8265Y-2.2564
X2.8519Y-2.2756
X2.8787Y-2.5398
X2.8927Y-2.2074
X2.9338Y-2.6625
X2.9371Y-2.405
X2.9615Y-2.6367
X2.965Y-2.4217
X3.0055Y-2.501
X3.0382Y-2.5329
X3.0565Y-2.5049
X3.0689Y-2.2953
X3.142Y-2.511
X3.2066Y-2.2086
X3.2283Y-2.3012
X3.2286Y-2.4249
X3.2313Y-2.2322
X3.2528Y-2.5106
X3.2715Y-2.6324
X3.2717Y-2.689
X3.2749Y-2.3876
X3.3038Y-2.6072
X3.3119Y-2.1715
X3.3298Y-2.5734
X3.349Y-2.21
X3.3719Y-2.2329
X3.3917Y-2.5136
X3.3957Y-2.1338
X3.4276Y-2.3541
X3.4724Y-2.2736
X3.5125Y-2.2158
X3.525Y-2.4918
X3.6476Y-2.6457
X3.6516Y-2.128
X3.6715Y-2.5905
T4
X2.0197Y-2.0181
X2.1197Y-2.0133
X2.2197Y-2.0181
X2.3197Y-2.0133
X2.4197Y-2.0181
X2.5197Y-2.0133
X2.9173Y-2.7485
X3.0173Y-2.7437
X3.1173Y-2.7485
X3.2173Y-2.7437
X3.3173Y-2.7485
X3.4173Y-2.7437
T5
X2.0173Y-2.7437
X2.1173Y-2.7485
X2.2173Y-2.7437
X2.3173Y-2.7485
X2.4173Y-2.7437
X2.5173Y-2.7485
X2.6173Y-2.7437
X2.6197Y-2.0181
X2.7173Y-2.7485
X2.7197Y-2.0133
X2.8173Y-2.7437
X2.8197Y-2.0181
X2.9197Y-2.0133
X3.0197Y-2.0181
X3.1197Y-2.0133
X3.2197Y-2.0181
X3.3197Y-2.0133
X3.4197Y-2.0181
X3.4736Y-2.5669
X3.5736Y-2.5669
T2
X2.0133Y-2.1023G85X2.0389Y-2.1023
G05
X2.0133Y-2.3779G85X2.0389Y-2.3779
G05
T3
X2.1324Y-2.1358G85X2.1324Y-2.1476
G05
X2.1324Y-2.3326G85X2.1324Y-2.3445
G05
T0
M30
