G04 #@! TF.FileFunction,Legend,Bot*
%FSLAX46Y46*%
G04 Gerber Fmt 4.6, Leading zero omitted, Abs format (unit mm)*
G04 Created by KiCad (PCBNEW 4.0.5+dfsg1-4) date Thu Apr  6 17:37:01 2017*
%MOMM*%
%LPD*%
G01*
G04 APERTURE LIST*
%ADD10C,0.100000*%
%ADD11C,0.150000*%
%ADD12C,0.010000*%
G04 APERTURE END LIST*
D10*
D11*
X83647620Y-52152381D02*
X83647620Y-51152381D01*
X83219048Y-52152381D02*
X83219048Y-51628571D01*
X83266667Y-51533333D01*
X83361905Y-51485714D01*
X83504763Y-51485714D01*
X83600001Y-51533333D01*
X83647620Y-51580952D01*
X82885715Y-51485714D02*
X82504763Y-51485714D01*
X82742858Y-51152381D02*
X82742858Y-52009524D01*
X82695239Y-52104762D01*
X82600001Y-52152381D01*
X82504763Y-52152381D01*
X82314286Y-51485714D02*
X81933334Y-51485714D01*
X82171429Y-51152381D02*
X82171429Y-52009524D01*
X82123810Y-52104762D01*
X82028572Y-52152381D01*
X81933334Y-52152381D01*
X81600000Y-51485714D02*
X81600000Y-52485714D01*
X81600000Y-51533333D02*
X81504762Y-51485714D01*
X81314285Y-51485714D01*
X81219047Y-51533333D01*
X81171428Y-51580952D01*
X81123809Y-51676190D01*
X81123809Y-51961905D01*
X81171428Y-52057143D01*
X81219047Y-52104762D01*
X81314285Y-52152381D01*
X81504762Y-52152381D01*
X81600000Y-52104762D01*
X80742857Y-52104762D02*
X80647619Y-52152381D01*
X80457143Y-52152381D01*
X80361904Y-52104762D01*
X80314285Y-52009524D01*
X80314285Y-51961905D01*
X80361904Y-51866667D01*
X80457143Y-51819048D01*
X80600000Y-51819048D01*
X80695238Y-51771429D01*
X80742857Y-51676190D01*
X80742857Y-51628571D01*
X80695238Y-51533333D01*
X80600000Y-51485714D01*
X80457143Y-51485714D01*
X80361904Y-51533333D01*
X79885714Y-52057143D02*
X79838095Y-52104762D01*
X79885714Y-52152381D01*
X79933333Y-52104762D01*
X79885714Y-52057143D01*
X79885714Y-52152381D01*
X79885714Y-51533333D02*
X79838095Y-51580952D01*
X79885714Y-51628571D01*
X79933333Y-51580952D01*
X79885714Y-51533333D01*
X79885714Y-51628571D01*
X78695238Y-51104762D02*
X79552381Y-52390476D01*
X77647619Y-51104762D02*
X78504762Y-52390476D01*
X76885714Y-51485714D02*
X76885714Y-52295238D01*
X76933333Y-52390476D01*
X76980952Y-52438095D01*
X77076191Y-52485714D01*
X77219048Y-52485714D01*
X77314286Y-52438095D01*
X76885714Y-52104762D02*
X76980952Y-52152381D01*
X77171429Y-52152381D01*
X77266667Y-52104762D01*
X77314286Y-52057143D01*
X77361905Y-51961905D01*
X77361905Y-51676190D01*
X77314286Y-51580952D01*
X77266667Y-51533333D01*
X77171429Y-51485714D01*
X76980952Y-51485714D01*
X76885714Y-51533333D01*
X76409524Y-52152381D02*
X76409524Y-51485714D01*
X76409524Y-51152381D02*
X76457143Y-51200000D01*
X76409524Y-51247619D01*
X76361905Y-51200000D01*
X76409524Y-51152381D01*
X76409524Y-51247619D01*
X76076191Y-51485714D02*
X75695239Y-51485714D01*
X75933334Y-51152381D02*
X75933334Y-52009524D01*
X75885715Y-52104762D01*
X75790477Y-52152381D01*
X75695239Y-52152381D01*
X75361905Y-52152381D02*
X75361905Y-51152381D01*
X74933333Y-52152381D02*
X74933333Y-51628571D01*
X74980952Y-51533333D01*
X75076190Y-51485714D01*
X75219048Y-51485714D01*
X75314286Y-51533333D01*
X75361905Y-51580952D01*
X74028571Y-51485714D02*
X74028571Y-52152381D01*
X74457143Y-51485714D02*
X74457143Y-52009524D01*
X74409524Y-52104762D01*
X74314286Y-52152381D01*
X74171428Y-52152381D01*
X74076190Y-52104762D01*
X74028571Y-52057143D01*
X73552381Y-52152381D02*
X73552381Y-51152381D01*
X73552381Y-51533333D02*
X73457143Y-51485714D01*
X73266666Y-51485714D01*
X73171428Y-51533333D01*
X73123809Y-51580952D01*
X73076190Y-51676190D01*
X73076190Y-51961905D01*
X73123809Y-52057143D01*
X73171428Y-52104762D01*
X73266666Y-52152381D01*
X73457143Y-52152381D01*
X73552381Y-52104762D01*
X72647619Y-52057143D02*
X72600000Y-52104762D01*
X72647619Y-52152381D01*
X72695238Y-52104762D01*
X72647619Y-52057143D01*
X72647619Y-52152381D01*
X71742857Y-52104762D02*
X71838095Y-52152381D01*
X72028572Y-52152381D01*
X72123810Y-52104762D01*
X72171429Y-52057143D01*
X72219048Y-51961905D01*
X72219048Y-51676190D01*
X72171429Y-51580952D01*
X72123810Y-51533333D01*
X72028572Y-51485714D01*
X71838095Y-51485714D01*
X71742857Y-51533333D01*
X71171429Y-52152381D02*
X71266667Y-52104762D01*
X71314286Y-52057143D01*
X71361905Y-51961905D01*
X71361905Y-51676190D01*
X71314286Y-51580952D01*
X71266667Y-51533333D01*
X71171429Y-51485714D01*
X71028571Y-51485714D01*
X70933333Y-51533333D01*
X70885714Y-51580952D01*
X70838095Y-51676190D01*
X70838095Y-51961905D01*
X70885714Y-52057143D01*
X70933333Y-52104762D01*
X71028571Y-52152381D01*
X71171429Y-52152381D01*
X70409524Y-52152381D02*
X70409524Y-51485714D01*
X70409524Y-51580952D02*
X70361905Y-51533333D01*
X70266667Y-51485714D01*
X70123809Y-51485714D01*
X70028571Y-51533333D01*
X69980952Y-51628571D01*
X69980952Y-52152381D01*
X69980952Y-51628571D02*
X69933333Y-51533333D01*
X69838095Y-51485714D01*
X69695238Y-51485714D01*
X69600000Y-51533333D01*
X69552381Y-51628571D01*
X69552381Y-52152381D01*
X68361905Y-51104762D02*
X69219048Y-52390476D01*
X67600000Y-52152381D02*
X67600000Y-51152381D01*
X67600000Y-52104762D02*
X67695238Y-52152381D01*
X67885715Y-52152381D01*
X67980953Y-52104762D01*
X68028572Y-52057143D01*
X68076191Y-51961905D01*
X68076191Y-51676190D01*
X68028572Y-51580952D01*
X67980953Y-51533333D01*
X67885715Y-51485714D01*
X67695238Y-51485714D01*
X67600000Y-51533333D01*
X66695238Y-52152381D02*
X66695238Y-51628571D01*
X66742857Y-51533333D01*
X66838095Y-51485714D01*
X67028572Y-51485714D01*
X67123810Y-51533333D01*
X66695238Y-52104762D02*
X66790476Y-52152381D01*
X67028572Y-52152381D01*
X67123810Y-52104762D01*
X67171429Y-52009524D01*
X67171429Y-51914286D01*
X67123810Y-51819048D01*
X67028572Y-51771429D01*
X66790476Y-51771429D01*
X66695238Y-51723810D01*
X66219048Y-51485714D02*
X66219048Y-52152381D01*
X66219048Y-51580952D02*
X66171429Y-51533333D01*
X66076191Y-51485714D01*
X65933333Y-51485714D01*
X65838095Y-51533333D01*
X65790476Y-51628571D01*
X65790476Y-52152381D01*
X65457143Y-51485714D02*
X65076191Y-51485714D01*
X65314286Y-52152381D02*
X65314286Y-51295238D01*
X65266667Y-51200000D01*
X65171429Y-51152381D01*
X65076191Y-51152381D01*
X64361904Y-52104762D02*
X64457142Y-52152381D01*
X64647619Y-52152381D01*
X64742857Y-52104762D01*
X64790476Y-52009524D01*
X64790476Y-51628571D01*
X64742857Y-51533333D01*
X64647619Y-51485714D01*
X64457142Y-51485714D01*
X64361904Y-51533333D01*
X64314285Y-51628571D01*
X64314285Y-51723810D01*
X64790476Y-51819048D01*
X63885714Y-52152381D02*
X63885714Y-51485714D01*
X63885714Y-51152381D02*
X63933333Y-51200000D01*
X63885714Y-51247619D01*
X63838095Y-51200000D01*
X63885714Y-51152381D01*
X63885714Y-51247619D01*
X62695238Y-51104762D02*
X63552381Y-52390476D01*
X62409524Y-51866667D02*
X61933333Y-51866667D01*
X62504762Y-52152381D02*
X62171429Y-51152381D01*
X61838095Y-52152381D01*
X61504762Y-52152381D02*
X61504762Y-51485714D01*
X61504762Y-51152381D02*
X61552381Y-51200000D01*
X61504762Y-51247619D01*
X61457143Y-51200000D01*
X61504762Y-51152381D01*
X61504762Y-51247619D01*
X61028572Y-52152381D02*
X61028572Y-51485714D01*
X61028572Y-51676190D02*
X60980953Y-51580952D01*
X60933334Y-51533333D01*
X60838096Y-51485714D01*
X60742857Y-51485714D01*
X60076190Y-51628571D02*
X59933333Y-51676190D01*
X59885714Y-51723810D01*
X59838095Y-51819048D01*
X59838095Y-51961905D01*
X59885714Y-52057143D01*
X59933333Y-52104762D01*
X60028571Y-52152381D01*
X60409524Y-52152381D01*
X60409524Y-51152381D01*
X60076190Y-51152381D01*
X59980952Y-51200000D01*
X59933333Y-51247619D01*
X59885714Y-51342857D01*
X59885714Y-51438095D01*
X59933333Y-51533333D01*
X59980952Y-51580952D01*
X60076190Y-51628571D01*
X60409524Y-51628571D01*
X59266667Y-52152381D02*
X59361905Y-52104762D01*
X59409524Y-52057143D01*
X59457143Y-51961905D01*
X59457143Y-51676190D01*
X59409524Y-51580952D01*
X59361905Y-51533333D01*
X59266667Y-51485714D01*
X59123809Y-51485714D01*
X59028571Y-51533333D01*
X58980952Y-51580952D01*
X58933333Y-51676190D01*
X58933333Y-51961905D01*
X58980952Y-52057143D01*
X59028571Y-52104762D01*
X59123809Y-52152381D01*
X59266667Y-52152381D01*
X58600000Y-52152381D02*
X58076190Y-51485714D01*
X58600000Y-51485714D02*
X58076190Y-52152381D01*
X57695238Y-51485714D02*
X57695238Y-52152381D01*
X57695238Y-51580952D02*
X57647619Y-51533333D01*
X57552381Y-51485714D01*
X57409523Y-51485714D01*
X57314285Y-51533333D01*
X57266666Y-51628571D01*
X57266666Y-52152381D01*
X56361904Y-52152381D02*
X56361904Y-51628571D01*
X56409523Y-51533333D01*
X56504761Y-51485714D01*
X56695238Y-51485714D01*
X56790476Y-51533333D01*
X56361904Y-52104762D02*
X56457142Y-52152381D01*
X56695238Y-52152381D01*
X56790476Y-52104762D01*
X56838095Y-52009524D01*
X56838095Y-51914286D01*
X56790476Y-51819048D01*
X56695238Y-51771429D01*
X56457142Y-51771429D01*
X56361904Y-51723810D01*
X55885714Y-51485714D02*
X55885714Y-52152381D01*
X55885714Y-51580952D02*
X55838095Y-51533333D01*
X55742857Y-51485714D01*
X55599999Y-51485714D01*
X55504761Y-51533333D01*
X55457142Y-51628571D01*
X55457142Y-52152381D01*
X54838095Y-52152381D02*
X54933333Y-52104762D01*
X54980952Y-52057143D01*
X55028571Y-51961905D01*
X55028571Y-51676190D01*
X54980952Y-51580952D01*
X54933333Y-51533333D01*
X54838095Y-51485714D01*
X54695237Y-51485714D01*
X54599999Y-51533333D01*
X54552380Y-51580952D01*
X54504761Y-51676190D01*
X54504761Y-51961905D01*
X54552380Y-52057143D01*
X54599999Y-52104762D01*
X54695237Y-52152381D01*
X54838095Y-52152381D01*
X90333333Y-69357143D02*
X90333333Y-68880952D01*
X90047619Y-69452381D02*
X91047619Y-69119048D01*
X90047619Y-68785714D01*
X90047619Y-68452381D02*
X90714286Y-68452381D01*
X91047619Y-68452381D02*
X91000000Y-68500000D01*
X90952381Y-68452381D01*
X91000000Y-68404762D01*
X91047619Y-68452381D01*
X90952381Y-68452381D01*
X90047619Y-67976191D02*
X90714286Y-67976191D01*
X90523810Y-67976191D02*
X90619048Y-67928572D01*
X90666667Y-67880953D01*
X90714286Y-67785715D01*
X90714286Y-67690476D01*
X90047619Y-67357143D02*
X91047619Y-67357143D01*
X90666667Y-67357143D02*
X90714286Y-67261905D01*
X90714286Y-67071428D01*
X90666667Y-66976190D01*
X90619048Y-66928571D01*
X90523810Y-66880952D01*
X90238095Y-66880952D01*
X90142857Y-66928571D01*
X90095238Y-66976190D01*
X90047619Y-67071428D01*
X90047619Y-67261905D01*
X90095238Y-67357143D01*
X90047619Y-66309524D02*
X90095238Y-66404762D01*
X90142857Y-66452381D01*
X90238095Y-66500000D01*
X90523810Y-66500000D01*
X90619048Y-66452381D01*
X90666667Y-66404762D01*
X90714286Y-66309524D01*
X90714286Y-66166666D01*
X90666667Y-66071428D01*
X90619048Y-66023809D01*
X90523810Y-65976190D01*
X90238095Y-65976190D01*
X90142857Y-66023809D01*
X90095238Y-66071428D01*
X90047619Y-66166666D01*
X90047619Y-66309524D01*
X90047619Y-65642857D02*
X90714286Y-65119047D01*
X90714286Y-65642857D02*
X90047619Y-65119047D01*
X90714286Y-64738095D02*
X90047619Y-64738095D01*
X90619048Y-64738095D02*
X90666667Y-64690476D01*
X90714286Y-64595238D01*
X90714286Y-64452380D01*
X90666667Y-64357142D01*
X90571429Y-64309523D01*
X90047619Y-64309523D01*
X90047619Y-63404761D02*
X90571429Y-63404761D01*
X90666667Y-63452380D01*
X90714286Y-63547618D01*
X90714286Y-63738095D01*
X90666667Y-63833333D01*
X90095238Y-63404761D02*
X90047619Y-63499999D01*
X90047619Y-63738095D01*
X90095238Y-63833333D01*
X90190476Y-63880952D01*
X90285714Y-63880952D01*
X90380952Y-63833333D01*
X90428571Y-63738095D01*
X90428571Y-63499999D01*
X90476190Y-63404761D01*
X90714286Y-62928571D02*
X90047619Y-62928571D01*
X90619048Y-62928571D02*
X90666667Y-62880952D01*
X90714286Y-62785714D01*
X90714286Y-62642856D01*
X90666667Y-62547618D01*
X90571429Y-62499999D01*
X90047619Y-62499999D01*
X90047619Y-61880952D02*
X90095238Y-61976190D01*
X90142857Y-62023809D01*
X90238095Y-62071428D01*
X90523810Y-62071428D01*
X90619048Y-62023809D01*
X90666667Y-61976190D01*
X90714286Y-61880952D01*
X90714286Y-61738094D01*
X90666667Y-61642856D01*
X90619048Y-61595237D01*
X90523810Y-61547618D01*
X90238095Y-61547618D01*
X90142857Y-61595237D01*
X90095238Y-61642856D01*
X90047619Y-61738094D01*
X90047619Y-61880952D01*
X90714286Y-60452380D02*
X90047619Y-60214285D01*
X90714286Y-59976189D01*
X91047619Y-59404761D02*
X91047619Y-59309522D01*
X91000000Y-59214284D01*
X90952381Y-59166665D01*
X90857143Y-59119046D01*
X90666667Y-59071427D01*
X90428571Y-59071427D01*
X90238095Y-59119046D01*
X90142857Y-59166665D01*
X90095238Y-59214284D01*
X90047619Y-59309522D01*
X90047619Y-59404761D01*
X90095238Y-59499999D01*
X90142857Y-59547618D01*
X90238095Y-59595237D01*
X90428571Y-59642856D01*
X90666667Y-59642856D01*
X90857143Y-59595237D01*
X90952381Y-59547618D01*
X91000000Y-59499999D01*
X91047619Y-59404761D01*
X90142857Y-58642856D02*
X90095238Y-58595237D01*
X90047619Y-58642856D01*
X90095238Y-58690475D01*
X90142857Y-58642856D01*
X90047619Y-58642856D01*
X91047619Y-58261904D02*
X91047619Y-57642856D01*
X90666667Y-57976190D01*
X90666667Y-57833332D01*
X90619048Y-57738094D01*
X90571429Y-57690475D01*
X90476190Y-57642856D01*
X90238095Y-57642856D01*
X90142857Y-57690475D01*
X90095238Y-57738094D01*
X90047619Y-57833332D01*
X90047619Y-58119047D01*
X90095238Y-58214285D01*
X90142857Y-58261904D01*
X63447619Y-68571428D02*
X64447619Y-68571428D01*
X63733333Y-68238094D01*
X64447619Y-67904761D01*
X63447619Y-67904761D01*
X63447619Y-67428571D02*
X64447619Y-67428571D01*
X63495238Y-67000000D02*
X63447619Y-66857143D01*
X63447619Y-66619047D01*
X63495238Y-66523809D01*
X63542857Y-66476190D01*
X63638095Y-66428571D01*
X63733333Y-66428571D01*
X63828571Y-66476190D01*
X63876190Y-66523809D01*
X63923810Y-66619047D01*
X63971429Y-66809524D01*
X64019048Y-66904762D01*
X64066667Y-66952381D01*
X64161905Y-67000000D01*
X64257143Y-67000000D01*
X64352381Y-66952381D01*
X64400000Y-66904762D01*
X64447619Y-66809524D01*
X64447619Y-66571428D01*
X64400000Y-66428571D01*
X64447619Y-65809524D02*
X64447619Y-65619047D01*
X64400000Y-65523809D01*
X64304762Y-65428571D01*
X64114286Y-65380952D01*
X63780952Y-65380952D01*
X63590476Y-65428571D01*
X63495238Y-65523809D01*
X63447619Y-65619047D01*
X63447619Y-65809524D01*
X63495238Y-65904762D01*
X63590476Y-66000000D01*
X63780952Y-66047619D01*
X64114286Y-66047619D01*
X64304762Y-66000000D01*
X64400000Y-65904762D01*
X64447619Y-65809524D01*
X61947619Y-68738095D02*
X61947619Y-68119047D01*
X61566667Y-68452381D01*
X61566667Y-68309523D01*
X61519048Y-68214285D01*
X61471429Y-68166666D01*
X61376190Y-68119047D01*
X61138095Y-68119047D01*
X61042857Y-68166666D01*
X60995238Y-68214285D01*
X60947619Y-68309523D01*
X60947619Y-68595238D01*
X60995238Y-68690476D01*
X61042857Y-68738095D01*
X61947619Y-67833333D02*
X60947619Y-67500000D01*
X61947619Y-67166666D01*
X61947619Y-66928571D02*
X61947619Y-66309523D01*
X61566667Y-66642857D01*
X61566667Y-66499999D01*
X61519048Y-66404761D01*
X61471429Y-66357142D01*
X61376190Y-66309523D01*
X61138095Y-66309523D01*
X61042857Y-66357142D01*
X60995238Y-66404761D01*
X60947619Y-66499999D01*
X60947619Y-66785714D01*
X60995238Y-66880952D01*
X61042857Y-66928571D01*
X58495238Y-68585714D02*
X58447619Y-68442857D01*
X58447619Y-68204761D01*
X58495238Y-68109523D01*
X58542857Y-68061904D01*
X58638095Y-68014285D01*
X58733333Y-68014285D01*
X58828571Y-68061904D01*
X58876190Y-68109523D01*
X58923810Y-68204761D01*
X58971429Y-68395238D01*
X59019048Y-68490476D01*
X59066667Y-68538095D01*
X59161905Y-68585714D01*
X59257143Y-68585714D01*
X59352381Y-68538095D01*
X59400000Y-68490476D01*
X59447619Y-68395238D01*
X59447619Y-68157142D01*
X59400000Y-68014285D01*
X58542857Y-67014285D02*
X58495238Y-67061904D01*
X58447619Y-67204761D01*
X58447619Y-67299999D01*
X58495238Y-67442857D01*
X58590476Y-67538095D01*
X58685714Y-67585714D01*
X58876190Y-67633333D01*
X59019048Y-67633333D01*
X59209524Y-67585714D01*
X59304762Y-67538095D01*
X59400000Y-67442857D01*
X59447619Y-67299999D01*
X59447619Y-67204761D01*
X59400000Y-67061904D01*
X59352381Y-67014285D01*
X58447619Y-66585714D02*
X59447619Y-66585714D01*
X58447619Y-66014285D02*
X59019048Y-66442857D01*
X59447619Y-66014285D02*
X58876190Y-66585714D01*
X55947619Y-68671428D02*
X56947619Y-68671428D01*
X56233333Y-68338094D01*
X56947619Y-68004761D01*
X55947619Y-68004761D01*
X56947619Y-67338095D02*
X56947619Y-67147618D01*
X56900000Y-67052380D01*
X56804762Y-66957142D01*
X56614286Y-66909523D01*
X56280952Y-66909523D01*
X56090476Y-66957142D01*
X55995238Y-67052380D01*
X55947619Y-67147618D01*
X55947619Y-67338095D01*
X55995238Y-67433333D01*
X56090476Y-67528571D01*
X56280952Y-67576190D01*
X56614286Y-67576190D01*
X56804762Y-67528571D01*
X56900000Y-67433333D01*
X56947619Y-67338095D01*
X55995238Y-66528571D02*
X55947619Y-66385714D01*
X55947619Y-66147618D01*
X55995238Y-66052380D01*
X56042857Y-66004761D01*
X56138095Y-65957142D01*
X56233333Y-65957142D01*
X56328571Y-66004761D01*
X56376190Y-66052380D01*
X56423810Y-66147618D01*
X56471429Y-66338095D01*
X56519048Y-66433333D01*
X56566667Y-66480952D01*
X56661905Y-66528571D01*
X56757143Y-66528571D01*
X56852381Y-66480952D01*
X56900000Y-66433333D01*
X56947619Y-66338095D01*
X56947619Y-66099999D01*
X56900000Y-65957142D01*
X55947619Y-65528571D02*
X56947619Y-65528571D01*
X53247619Y-68052381D02*
X53723810Y-68385715D01*
X53247619Y-68623810D02*
X54247619Y-68623810D01*
X54247619Y-68242857D01*
X54200000Y-68147619D01*
X54152381Y-68100000D01*
X54057143Y-68052381D01*
X53914286Y-68052381D01*
X53819048Y-68100000D01*
X53771429Y-68147619D01*
X53723810Y-68242857D01*
X53723810Y-68623810D01*
X53771429Y-67623810D02*
X53771429Y-67290476D01*
X53247619Y-67147619D02*
X53247619Y-67623810D01*
X54247619Y-67623810D01*
X54247619Y-67147619D01*
X53295238Y-66766667D02*
X53247619Y-66623810D01*
X53247619Y-66385714D01*
X53295238Y-66290476D01*
X53342857Y-66242857D01*
X53438095Y-66195238D01*
X53533333Y-66195238D01*
X53628571Y-66242857D01*
X53676190Y-66290476D01*
X53723810Y-66385714D01*
X53771429Y-66576191D01*
X53819048Y-66671429D01*
X53866667Y-66719048D01*
X53961905Y-66766667D01*
X54057143Y-66766667D01*
X54152381Y-66719048D01*
X54200000Y-66671429D01*
X54247619Y-66576191D01*
X54247619Y-66338095D01*
X54200000Y-66195238D01*
X53771429Y-65766667D02*
X53771429Y-65433333D01*
X53247619Y-65290476D02*
X53247619Y-65766667D01*
X54247619Y-65766667D01*
X54247619Y-65290476D01*
X54247619Y-65004762D02*
X54247619Y-64433333D01*
X53247619Y-64719048D02*
X54247619Y-64719048D01*
X51800000Y-67861904D02*
X51847619Y-67957142D01*
X51847619Y-68099999D01*
X51800000Y-68242857D01*
X51704762Y-68338095D01*
X51609524Y-68385714D01*
X51419048Y-68433333D01*
X51276190Y-68433333D01*
X51085714Y-68385714D01*
X50990476Y-68338095D01*
X50895238Y-68242857D01*
X50847619Y-68099999D01*
X50847619Y-68004761D01*
X50895238Y-67861904D01*
X50942857Y-67814285D01*
X51276190Y-67814285D01*
X51276190Y-68004761D01*
X50847619Y-67385714D02*
X51847619Y-67385714D01*
X50847619Y-66814285D01*
X51847619Y-66814285D01*
X50847619Y-66338095D02*
X51847619Y-66338095D01*
X51847619Y-66100000D01*
X51800000Y-65957142D01*
X51704762Y-65861904D01*
X51609524Y-65814285D01*
X51419048Y-65766666D01*
X51276190Y-65766666D01*
X51085714Y-65814285D01*
X50990476Y-65861904D01*
X50895238Y-65957142D01*
X50847619Y-66100000D01*
X50847619Y-66338095D01*
X64200000Y-60500000D02*
X64200000Y-64500000D01*
X64200000Y-60500000D02*
X64200000Y-56500000D01*
X55200000Y-56500000D02*
X55200000Y-55500000D01*
X55200000Y-55500000D02*
X60200000Y-55500000D01*
X60200000Y-55500000D02*
X60200000Y-56500000D01*
X55200000Y-60500000D02*
X55200000Y-56500000D01*
X55200000Y-56500000D02*
X86700000Y-56500000D01*
X86700000Y-56500000D02*
X86700000Y-64500000D01*
X86700000Y-64500000D02*
X55200000Y-64500000D01*
X55200000Y-64500000D02*
X55200000Y-60500000D01*
D12*
G36*
X87980082Y-56700256D02*
X87952432Y-56644799D01*
X87901520Y-56595852D01*
X87882662Y-56582371D01*
X87857985Y-56567686D01*
X87831184Y-56558158D01*
X87795413Y-56552707D01*
X87743831Y-56550253D01*
X87675733Y-56549714D01*
X87582412Y-56552148D01*
X87512343Y-56560606D01*
X87460069Y-56576826D01*
X87420131Y-56602546D01*
X87387071Y-56639503D01*
X87385114Y-56642218D01*
X87365092Y-56678640D01*
X87355185Y-56722498D01*
X87352743Y-56778276D01*
X87352743Y-56868952D01*
X87264717Y-56868990D01*
X87215692Y-56869834D01*
X87186935Y-56874976D01*
X87169689Y-56888413D01*
X87155192Y-56914142D01*
X87152231Y-56920321D01*
X87138352Y-56949236D01*
X87129586Y-56971624D01*
X87128829Y-56988271D01*
X87138977Y-56999964D01*
X87162927Y-57007490D01*
X87203574Y-57011634D01*
X87263814Y-57013185D01*
X87346545Y-57012929D01*
X87454661Y-57011651D01*
X87487000Y-57011252D01*
X87598476Y-57009815D01*
X87671397Y-57008528D01*
X87671397Y-56869029D01*
X87609501Y-56868245D01*
X87569003Y-56864760D01*
X87542292Y-56856876D01*
X87521756Y-56842895D01*
X87511740Y-56833403D01*
X87482433Y-56794596D01*
X87480048Y-56760237D01*
X87504250Y-56724784D01*
X87505143Y-56723886D01*
X87523847Y-56709461D01*
X87549268Y-56700687D01*
X87588416Y-56696261D01*
X87648303Y-56694882D01*
X87661570Y-56694857D01*
X87744099Y-56698188D01*
X87801309Y-56709031D01*
X87836234Y-56728660D01*
X87851906Y-56758350D01*
X87853486Y-56775509D01*
X87846074Y-56816234D01*
X87821670Y-56844168D01*
X87777020Y-56860983D01*
X87708870Y-56868350D01*
X87671397Y-56869029D01*
X87671397Y-57008528D01*
X87684755Y-57008292D01*
X87749667Y-57006323D01*
X87797042Y-57003550D01*
X87830710Y-56999612D01*
X87854502Y-56994151D01*
X87872247Y-56986808D01*
X87887776Y-56977223D01*
X87893619Y-56973113D01*
X87948815Y-56918595D01*
X87980110Y-56849664D01*
X87988835Y-56769928D01*
X87980082Y-56700256D01*
X87980082Y-56700256D01*
G37*
X87980082Y-56700256D02*
X87952432Y-56644799D01*
X87901520Y-56595852D01*
X87882662Y-56582371D01*
X87857985Y-56567686D01*
X87831184Y-56558158D01*
X87795413Y-56552707D01*
X87743831Y-56550253D01*
X87675733Y-56549714D01*
X87582412Y-56552148D01*
X87512343Y-56560606D01*
X87460069Y-56576826D01*
X87420131Y-56602546D01*
X87387071Y-56639503D01*
X87385114Y-56642218D01*
X87365092Y-56678640D01*
X87355185Y-56722498D01*
X87352743Y-56778276D01*
X87352743Y-56868952D01*
X87264717Y-56868990D01*
X87215692Y-56869834D01*
X87186935Y-56874976D01*
X87169689Y-56888413D01*
X87155192Y-56914142D01*
X87152231Y-56920321D01*
X87138352Y-56949236D01*
X87129586Y-56971624D01*
X87128829Y-56988271D01*
X87138977Y-56999964D01*
X87162927Y-57007490D01*
X87203574Y-57011634D01*
X87263814Y-57013185D01*
X87346545Y-57012929D01*
X87454661Y-57011651D01*
X87487000Y-57011252D01*
X87598476Y-57009815D01*
X87671397Y-57008528D01*
X87671397Y-56869029D01*
X87609501Y-56868245D01*
X87569003Y-56864760D01*
X87542292Y-56856876D01*
X87521756Y-56842895D01*
X87511740Y-56833403D01*
X87482433Y-56794596D01*
X87480048Y-56760237D01*
X87504250Y-56724784D01*
X87505143Y-56723886D01*
X87523847Y-56709461D01*
X87549268Y-56700687D01*
X87588416Y-56696261D01*
X87648303Y-56694882D01*
X87661570Y-56694857D01*
X87744099Y-56698188D01*
X87801309Y-56709031D01*
X87836234Y-56728660D01*
X87851906Y-56758350D01*
X87853486Y-56775509D01*
X87846074Y-56816234D01*
X87821670Y-56844168D01*
X87777020Y-56860983D01*
X87708870Y-56868350D01*
X87671397Y-56869029D01*
X87671397Y-57008528D01*
X87684755Y-57008292D01*
X87749667Y-57006323D01*
X87797042Y-57003550D01*
X87830710Y-56999612D01*
X87854502Y-56994151D01*
X87872247Y-56986808D01*
X87887776Y-56977223D01*
X87893619Y-56973113D01*
X87948815Y-56918595D01*
X87980110Y-56849664D01*
X87988835Y-56769928D01*
X87980082Y-56700256D01*
G36*
X87972220Y-55583907D02*
X87945277Y-55537328D01*
X87918534Y-55504943D01*
X87890516Y-55481258D01*
X87856252Y-55464941D01*
X87810773Y-55454661D01*
X87749108Y-55449086D01*
X87666289Y-55446884D01*
X87606754Y-55446629D01*
X87387609Y-55446629D01*
X87359956Y-55508314D01*
X87332303Y-55570000D01*
X87572330Y-55577257D01*
X87661972Y-55580256D01*
X87727038Y-55583402D01*
X87771974Y-55587299D01*
X87801230Y-55592553D01*
X87819252Y-55599769D01*
X87830489Y-55609550D01*
X87832921Y-55612688D01*
X87851917Y-55660239D01*
X87844400Y-55708303D01*
X87824457Y-55736914D01*
X87810325Y-55748553D01*
X87791780Y-55756609D01*
X87763666Y-55761729D01*
X87720827Y-55764559D01*
X87658105Y-55765744D01*
X87592739Y-55765943D01*
X87510732Y-55765982D01*
X87452684Y-55767386D01*
X87413535Y-55772086D01*
X87388220Y-55782013D01*
X87371677Y-55799097D01*
X87358844Y-55825268D01*
X87345509Y-55860225D01*
X87330993Y-55898404D01*
X87588611Y-55893859D01*
X87681481Y-55892029D01*
X87750111Y-55889888D01*
X87799289Y-55886819D01*
X87833802Y-55882206D01*
X87858438Y-55875432D01*
X87877984Y-55865881D01*
X87895230Y-55854366D01*
X87950320Y-55798810D01*
X87982178Y-55731020D01*
X87989809Y-55657287D01*
X87972220Y-55583907D01*
X87972220Y-55583907D01*
G37*
X87972220Y-55583907D02*
X87945277Y-55537328D01*
X87918534Y-55504943D01*
X87890516Y-55481258D01*
X87856252Y-55464941D01*
X87810773Y-55454661D01*
X87749108Y-55449086D01*
X87666289Y-55446884D01*
X87606754Y-55446629D01*
X87387609Y-55446629D01*
X87359956Y-55508314D01*
X87332303Y-55570000D01*
X87572330Y-55577257D01*
X87661972Y-55580256D01*
X87727038Y-55583402D01*
X87771974Y-55587299D01*
X87801230Y-55592553D01*
X87819252Y-55599769D01*
X87830489Y-55609550D01*
X87832921Y-55612688D01*
X87851917Y-55660239D01*
X87844400Y-55708303D01*
X87824457Y-55736914D01*
X87810325Y-55748553D01*
X87791780Y-55756609D01*
X87763666Y-55761729D01*
X87720827Y-55764559D01*
X87658105Y-55765744D01*
X87592739Y-55765943D01*
X87510732Y-55765982D01*
X87452684Y-55767386D01*
X87413535Y-55772086D01*
X87388220Y-55782013D01*
X87371677Y-55799097D01*
X87358844Y-55825268D01*
X87345509Y-55860225D01*
X87330993Y-55898404D01*
X87588611Y-55893859D01*
X87681481Y-55892029D01*
X87750111Y-55889888D01*
X87799289Y-55886819D01*
X87833802Y-55882206D01*
X87858438Y-55875432D01*
X87877984Y-55865881D01*
X87895230Y-55854366D01*
X87950320Y-55798810D01*
X87982178Y-55731020D01*
X87989809Y-55657287D01*
X87972220Y-55583907D01*
G36*
X87978038Y-57258885D02*
X87942267Y-57190855D01*
X87884699Y-57140649D01*
X87847688Y-57122815D01*
X87792118Y-57108937D01*
X87721904Y-57101833D01*
X87645273Y-57101160D01*
X87570448Y-57106573D01*
X87505658Y-57117730D01*
X87459127Y-57134286D01*
X87451113Y-57139374D01*
X87391293Y-57199645D01*
X87355465Y-57271231D01*
X87344980Y-57348908D01*
X87361190Y-57427452D01*
X87370908Y-57449311D01*
X87400857Y-57491878D01*
X87440567Y-57529237D01*
X87445603Y-57532768D01*
X87469876Y-57547119D01*
X87495822Y-57556606D01*
X87529978Y-57562210D01*
X87578881Y-57564914D01*
X87649065Y-57565701D01*
X87664800Y-57565714D01*
X87669808Y-57565678D01*
X87669808Y-57420571D01*
X87603570Y-57419727D01*
X87559614Y-57416404D01*
X87531221Y-57409417D01*
X87511675Y-57397584D01*
X87505143Y-57391543D01*
X87480320Y-57356814D01*
X87481452Y-57323097D01*
X87502984Y-57289005D01*
X87525971Y-57268671D01*
X87559522Y-57256629D01*
X87612431Y-57249866D01*
X87618601Y-57249402D01*
X87714487Y-57248248D01*
X87785701Y-57260312D01*
X87831806Y-57285430D01*
X87852365Y-57323440D01*
X87853486Y-57337008D01*
X87847848Y-57372636D01*
X87828314Y-57397006D01*
X87790958Y-57411907D01*
X87731850Y-57419125D01*
X87669808Y-57420571D01*
X87669808Y-57565678D01*
X87739587Y-57565174D01*
X87791841Y-57562904D01*
X87828051Y-57557932D01*
X87854701Y-57549287D01*
X87878278Y-57535995D01*
X87882662Y-57533057D01*
X87941751Y-57483687D01*
X87976053Y-57429891D01*
X87989669Y-57364398D01*
X87990335Y-57342158D01*
X87978038Y-57258885D01*
X87978038Y-57258885D01*
G37*
X87978038Y-57258885D02*
X87942267Y-57190855D01*
X87884699Y-57140649D01*
X87847688Y-57122815D01*
X87792118Y-57108937D01*
X87721904Y-57101833D01*
X87645273Y-57101160D01*
X87570448Y-57106573D01*
X87505658Y-57117730D01*
X87459127Y-57134286D01*
X87451113Y-57139374D01*
X87391293Y-57199645D01*
X87355465Y-57271231D01*
X87344980Y-57348908D01*
X87361190Y-57427452D01*
X87370908Y-57449311D01*
X87400857Y-57491878D01*
X87440567Y-57529237D01*
X87445603Y-57532768D01*
X87469876Y-57547119D01*
X87495822Y-57556606D01*
X87529978Y-57562210D01*
X87578881Y-57564914D01*
X87649065Y-57565701D01*
X87664800Y-57565714D01*
X87669808Y-57565678D01*
X87669808Y-57420571D01*
X87603570Y-57419727D01*
X87559614Y-57416404D01*
X87531221Y-57409417D01*
X87511675Y-57397584D01*
X87505143Y-57391543D01*
X87480320Y-57356814D01*
X87481452Y-57323097D01*
X87502984Y-57289005D01*
X87525971Y-57268671D01*
X87559522Y-57256629D01*
X87612431Y-57249866D01*
X87618601Y-57249402D01*
X87714487Y-57248248D01*
X87785701Y-57260312D01*
X87831806Y-57285430D01*
X87852365Y-57323440D01*
X87853486Y-57337008D01*
X87847848Y-57372636D01*
X87828314Y-57397006D01*
X87790958Y-57411907D01*
X87731850Y-57419125D01*
X87669808Y-57420571D01*
X87669808Y-57565678D01*
X87739587Y-57565174D01*
X87791841Y-57562904D01*
X87828051Y-57557932D01*
X87854701Y-57549287D01*
X87878278Y-57535995D01*
X87882662Y-57533057D01*
X87941751Y-57483687D01*
X87976053Y-57429891D01*
X87989669Y-57364398D01*
X87990335Y-57342158D01*
X87978038Y-57258885D01*
G36*
X87968761Y-56131697D02*
X87930265Y-56074473D01*
X87874665Y-56030251D01*
X87803914Y-56003833D01*
X87751838Y-55998490D01*
X87730107Y-55999097D01*
X87713469Y-56004178D01*
X87698563Y-56018145D01*
X87682027Y-56045411D01*
X87660502Y-56090388D01*
X87630626Y-56157489D01*
X87630476Y-56157829D01*
X87602187Y-56219593D01*
X87577067Y-56270241D01*
X87557821Y-56304596D01*
X87547152Y-56317482D01*
X87547066Y-56317486D01*
X87523834Y-56306128D01*
X87498226Y-56279569D01*
X87479779Y-56249077D01*
X87476114Y-56233630D01*
X87488788Y-56191485D01*
X87520529Y-56155192D01*
X87555428Y-56137483D01*
X87581155Y-56120448D01*
X87610454Y-56087078D01*
X87635765Y-56047851D01*
X87649529Y-56013244D01*
X87650286Y-56006007D01*
X87637840Y-55997861D01*
X87606028Y-55997370D01*
X87563134Y-56003357D01*
X87517442Y-56014643D01*
X87477239Y-56030050D01*
X87475678Y-56030829D01*
X87410938Y-56077196D01*
X87366903Y-56137289D01*
X87345289Y-56205535D01*
X87347815Y-56276362D01*
X87376196Y-56344196D01*
X87378192Y-56347212D01*
X87426552Y-56400573D01*
X87489648Y-56435660D01*
X87572613Y-56455078D01*
X87595922Y-56457684D01*
X87705945Y-56462299D01*
X87757252Y-56456767D01*
X87757252Y-56317486D01*
X87725247Y-56315676D01*
X87715907Y-56305778D01*
X87722895Y-56281102D01*
X87739413Y-56242205D01*
X87760119Y-56198725D01*
X87760667Y-56197644D01*
X87780051Y-56160791D01*
X87792987Y-56146000D01*
X87806549Y-56149647D01*
X87824368Y-56165005D01*
X87850155Y-56204077D01*
X87852050Y-56246154D01*
X87833283Y-56283897D01*
X87797085Y-56309966D01*
X87757252Y-56317486D01*
X87757252Y-56456767D01*
X87793973Y-56452806D01*
X87863788Y-56428450D01*
X87912698Y-56394544D01*
X87962122Y-56333347D01*
X87986641Y-56265937D01*
X87988203Y-56197120D01*
X87968761Y-56131697D01*
X87968761Y-56131697D01*
G37*
X87968761Y-56131697D02*
X87930265Y-56074473D01*
X87874665Y-56030251D01*
X87803914Y-56003833D01*
X87751838Y-55998490D01*
X87730107Y-55999097D01*
X87713469Y-56004178D01*
X87698563Y-56018145D01*
X87682027Y-56045411D01*
X87660502Y-56090388D01*
X87630626Y-56157489D01*
X87630476Y-56157829D01*
X87602187Y-56219593D01*
X87577067Y-56270241D01*
X87557821Y-56304596D01*
X87547152Y-56317482D01*
X87547066Y-56317486D01*
X87523834Y-56306128D01*
X87498226Y-56279569D01*
X87479779Y-56249077D01*
X87476114Y-56233630D01*
X87488788Y-56191485D01*
X87520529Y-56155192D01*
X87555428Y-56137483D01*
X87581155Y-56120448D01*
X87610454Y-56087078D01*
X87635765Y-56047851D01*
X87649529Y-56013244D01*
X87650286Y-56006007D01*
X87637840Y-55997861D01*
X87606028Y-55997370D01*
X87563134Y-56003357D01*
X87517442Y-56014643D01*
X87477239Y-56030050D01*
X87475678Y-56030829D01*
X87410938Y-56077196D01*
X87366903Y-56137289D01*
X87345289Y-56205535D01*
X87347815Y-56276362D01*
X87376196Y-56344196D01*
X87378192Y-56347212D01*
X87426552Y-56400573D01*
X87489648Y-56435660D01*
X87572613Y-56455078D01*
X87595922Y-56457684D01*
X87705945Y-56462299D01*
X87757252Y-56456767D01*
X87757252Y-56317486D01*
X87725247Y-56315676D01*
X87715907Y-56305778D01*
X87722895Y-56281102D01*
X87739413Y-56242205D01*
X87760119Y-56198725D01*
X87760667Y-56197644D01*
X87780051Y-56160791D01*
X87792987Y-56146000D01*
X87806549Y-56149647D01*
X87824368Y-56165005D01*
X87850155Y-56204077D01*
X87852050Y-56246154D01*
X87833283Y-56283897D01*
X87797085Y-56309966D01*
X87757252Y-56317486D01*
X87757252Y-56456767D01*
X87793973Y-56452806D01*
X87863788Y-56428450D01*
X87912698Y-56394544D01*
X87962122Y-56333347D01*
X87986641Y-56265937D01*
X87988203Y-56197120D01*
X87968761Y-56131697D01*
G36*
X88048711Y-54924114D02*
X87989387Y-54919861D01*
X87954428Y-54914975D01*
X87939180Y-54908205D01*
X87938985Y-54898298D01*
X87940805Y-54895086D01*
X87953985Y-54852356D01*
X87953215Y-54796773D01*
X87939667Y-54740263D01*
X87922139Y-54704918D01*
X87894139Y-54668679D01*
X87862451Y-54642187D01*
X87822187Y-54624001D01*
X87768457Y-54612678D01*
X87696374Y-54606778D01*
X87601049Y-54604857D01*
X87582763Y-54604823D01*
X87377354Y-54604800D01*
X87361420Y-54650509D01*
X87350580Y-54682973D01*
X87345532Y-54700785D01*
X87345486Y-54701309D01*
X87359172Y-54703063D01*
X87396924Y-54704556D01*
X87453776Y-54705674D01*
X87524766Y-54706303D01*
X87567927Y-54706400D01*
X87653027Y-54706602D01*
X87714019Y-54707642D01*
X87755823Y-54710169D01*
X87783358Y-54714836D01*
X87801544Y-54722293D01*
X87815302Y-54733189D01*
X87821927Y-54739993D01*
X87848625Y-54786728D01*
X87850625Y-54837728D01*
X87828045Y-54883999D01*
X87819893Y-54892556D01*
X87804564Y-54905107D01*
X87786382Y-54913812D01*
X87760091Y-54919369D01*
X87720438Y-54922474D01*
X87662168Y-54923824D01*
X87581827Y-54924114D01*
X87377354Y-54924114D01*
X87361420Y-54969823D01*
X87350580Y-55002287D01*
X87345532Y-55020099D01*
X87345486Y-55020623D01*
X87359377Y-55021963D01*
X87398561Y-55023172D01*
X87459300Y-55024199D01*
X87537859Y-55024998D01*
X87630502Y-55025519D01*
X87733491Y-55025714D01*
X88130658Y-55025714D01*
X88150556Y-54978543D01*
X88170453Y-54931371D01*
X88048711Y-54924114D01*
X88048711Y-54924114D01*
G37*
X88048711Y-54924114D02*
X87989387Y-54919861D01*
X87954428Y-54914975D01*
X87939180Y-54908205D01*
X87938985Y-54898298D01*
X87940805Y-54895086D01*
X87953985Y-54852356D01*
X87953215Y-54796773D01*
X87939667Y-54740263D01*
X87922139Y-54704918D01*
X87894139Y-54668679D01*
X87862451Y-54642187D01*
X87822187Y-54624001D01*
X87768457Y-54612678D01*
X87696374Y-54606778D01*
X87601049Y-54604857D01*
X87582763Y-54604823D01*
X87377354Y-54604800D01*
X87361420Y-54650509D01*
X87350580Y-54682973D01*
X87345532Y-54700785D01*
X87345486Y-54701309D01*
X87359172Y-54703063D01*
X87396924Y-54704556D01*
X87453776Y-54705674D01*
X87524766Y-54706303D01*
X87567927Y-54706400D01*
X87653027Y-54706602D01*
X87714019Y-54707642D01*
X87755823Y-54710169D01*
X87783358Y-54714836D01*
X87801544Y-54722293D01*
X87815302Y-54733189D01*
X87821927Y-54739993D01*
X87848625Y-54786728D01*
X87850625Y-54837728D01*
X87828045Y-54883999D01*
X87819893Y-54892556D01*
X87804564Y-54905107D01*
X87786382Y-54913812D01*
X87760091Y-54919369D01*
X87720438Y-54922474D01*
X87662168Y-54923824D01*
X87581827Y-54924114D01*
X87377354Y-54924114D01*
X87361420Y-54969823D01*
X87350580Y-55002287D01*
X87345532Y-55020099D01*
X87345486Y-55020623D01*
X87359377Y-55021963D01*
X87398561Y-55023172D01*
X87459300Y-55024199D01*
X87537859Y-55024998D01*
X87630502Y-55025519D01*
X87733491Y-55025714D01*
X88130658Y-55025714D01*
X88150556Y-54978543D01*
X88170453Y-54931371D01*
X88048711Y-54924114D01*
G36*
X87949032Y-54260256D02*
X87927913Y-54203384D01*
X87927507Y-54202733D01*
X87901620Y-54167560D01*
X87871367Y-54141593D01*
X87831942Y-54123330D01*
X87778538Y-54111268D01*
X87706349Y-54103904D01*
X87610568Y-54099736D01*
X87596922Y-54099371D01*
X87391158Y-54094124D01*
X87368322Y-54138284D01*
X87352890Y-54170237D01*
X87345577Y-54189530D01*
X87345486Y-54190422D01*
X87358978Y-54193761D01*
X87395374Y-54196413D01*
X87448548Y-54198044D01*
X87491607Y-54198400D01*
X87561359Y-54198408D01*
X87605163Y-54201597D01*
X87626056Y-54212712D01*
X87627075Y-54236499D01*
X87611259Y-54277704D01*
X87582185Y-54339914D01*
X87558037Y-54385659D01*
X87537087Y-54409187D01*
X87514253Y-54416104D01*
X87513123Y-54416114D01*
X87473788Y-54404701D01*
X87452538Y-54370908D01*
X87449461Y-54319191D01*
X87449994Y-54281939D01*
X87439265Y-54262297D01*
X87413495Y-54250048D01*
X87380663Y-54242998D01*
X87362034Y-54253158D01*
X87359368Y-54256983D01*
X87348660Y-54292999D01*
X87347144Y-54343434D01*
X87354241Y-54395374D01*
X87367212Y-54432178D01*
X87410415Y-54483062D01*
X87470554Y-54511986D01*
X87517538Y-54517714D01*
X87559918Y-54513343D01*
X87594512Y-54497525D01*
X87625237Y-54466203D01*
X87656010Y-54415322D01*
X87690748Y-54340824D01*
X87692712Y-54336286D01*
X87723713Y-54269179D01*
X87749138Y-54227768D01*
X87771986Y-54210019D01*
X87795255Y-54213893D01*
X87821944Y-54237357D01*
X87828086Y-54244373D01*
X87851900Y-54291370D01*
X87850897Y-54340067D01*
X87827549Y-54382478D01*
X87784325Y-54410616D01*
X87775840Y-54413231D01*
X87734692Y-54438692D01*
X87714872Y-54470999D01*
X87695230Y-54517714D01*
X87746050Y-54517714D01*
X87819918Y-54503504D01*
X87887673Y-54461325D01*
X87910339Y-54439376D01*
X87939431Y-54389483D01*
X87952600Y-54326033D01*
X87949032Y-54260256D01*
X87949032Y-54260256D01*
G37*
X87949032Y-54260256D02*
X87927913Y-54203384D01*
X87927507Y-54202733D01*
X87901620Y-54167560D01*
X87871367Y-54141593D01*
X87831942Y-54123330D01*
X87778538Y-54111268D01*
X87706349Y-54103904D01*
X87610568Y-54099736D01*
X87596922Y-54099371D01*
X87391158Y-54094124D01*
X87368322Y-54138284D01*
X87352890Y-54170237D01*
X87345577Y-54189530D01*
X87345486Y-54190422D01*
X87358978Y-54193761D01*
X87395374Y-54196413D01*
X87448548Y-54198044D01*
X87491607Y-54198400D01*
X87561359Y-54198408D01*
X87605163Y-54201597D01*
X87626056Y-54212712D01*
X87627075Y-54236499D01*
X87611259Y-54277704D01*
X87582185Y-54339914D01*
X87558037Y-54385659D01*
X87537087Y-54409187D01*
X87514253Y-54416104D01*
X87513123Y-54416114D01*
X87473788Y-54404701D01*
X87452538Y-54370908D01*
X87449461Y-54319191D01*
X87449994Y-54281939D01*
X87439265Y-54262297D01*
X87413495Y-54250048D01*
X87380663Y-54242998D01*
X87362034Y-54253158D01*
X87359368Y-54256983D01*
X87348660Y-54292999D01*
X87347144Y-54343434D01*
X87354241Y-54395374D01*
X87367212Y-54432178D01*
X87410415Y-54483062D01*
X87470554Y-54511986D01*
X87517538Y-54517714D01*
X87559918Y-54513343D01*
X87594512Y-54497525D01*
X87625237Y-54466203D01*
X87656010Y-54415322D01*
X87690748Y-54340824D01*
X87692712Y-54336286D01*
X87723713Y-54269179D01*
X87749138Y-54227768D01*
X87771986Y-54210019D01*
X87795255Y-54213893D01*
X87821944Y-54237357D01*
X87828086Y-54244373D01*
X87851900Y-54291370D01*
X87850897Y-54340067D01*
X87827549Y-54382478D01*
X87784325Y-54410616D01*
X87775840Y-54413231D01*
X87734692Y-54438692D01*
X87714872Y-54470999D01*
X87695230Y-54517714D01*
X87746050Y-54517714D01*
X87819918Y-54503504D01*
X87887673Y-54461325D01*
X87910339Y-54439376D01*
X87939431Y-54389483D01*
X87952600Y-54326033D01*
X87949032Y-54260256D01*
G36*
X87950245Y-53770074D02*
X87925916Y-53704142D01*
X87882883Y-53650727D01*
X87852591Y-53629836D01*
X87797006Y-53607061D01*
X87756814Y-53607534D01*
X87729783Y-53631438D01*
X87725187Y-53640283D01*
X87710856Y-53678470D01*
X87714528Y-53697972D01*
X87738593Y-53704578D01*
X87751886Y-53704914D01*
X87800790Y-53717008D01*
X87835001Y-53748529D01*
X87851524Y-53792341D01*
X87847366Y-53841305D01*
X87825773Y-53881106D01*
X87813456Y-53894550D01*
X87798513Y-53904079D01*
X87775925Y-53910515D01*
X87740672Y-53914683D01*
X87687734Y-53917403D01*
X87612093Y-53919498D01*
X87588143Y-53920040D01*
X87506210Y-53922019D01*
X87448545Y-53924269D01*
X87410392Y-53927643D01*
X87386996Y-53932994D01*
X87373602Y-53941176D01*
X87365455Y-53953041D01*
X87361856Y-53960638D01*
X87349548Y-53992898D01*
X87345486Y-54011889D01*
X87359052Y-54018164D01*
X87400066Y-54021994D01*
X87469001Y-54023400D01*
X87566331Y-54022402D01*
X87581343Y-54022092D01*
X87670141Y-54019899D01*
X87734981Y-54017307D01*
X87780933Y-54013618D01*
X87813065Y-54008136D01*
X87836447Y-54000165D01*
X87856148Y-53989007D01*
X87864590Y-53983170D01*
X87901943Y-53949704D01*
X87930997Y-53912273D01*
X87933533Y-53907691D01*
X87953557Y-53840574D01*
X87950245Y-53770074D01*
X87950245Y-53770074D01*
G37*
X87950245Y-53770074D02*
X87925916Y-53704142D01*
X87882883Y-53650727D01*
X87852591Y-53629836D01*
X87797006Y-53607061D01*
X87756814Y-53607534D01*
X87729783Y-53631438D01*
X87725187Y-53640283D01*
X87710856Y-53678470D01*
X87714528Y-53697972D01*
X87738593Y-53704578D01*
X87751886Y-53704914D01*
X87800790Y-53717008D01*
X87835001Y-53748529D01*
X87851524Y-53792341D01*
X87847366Y-53841305D01*
X87825773Y-53881106D01*
X87813456Y-53894550D01*
X87798513Y-53904079D01*
X87775925Y-53910515D01*
X87740672Y-53914683D01*
X87687734Y-53917403D01*
X87612093Y-53919498D01*
X87588143Y-53920040D01*
X87506210Y-53922019D01*
X87448545Y-53924269D01*
X87410392Y-53927643D01*
X87386996Y-53932994D01*
X87373602Y-53941176D01*
X87365455Y-53953041D01*
X87361856Y-53960638D01*
X87349548Y-53992898D01*
X87345486Y-54011889D01*
X87359052Y-54018164D01*
X87400066Y-54021994D01*
X87469001Y-54023400D01*
X87566331Y-54022402D01*
X87581343Y-54022092D01*
X87670141Y-54019899D01*
X87734981Y-54017307D01*
X87780933Y-54013618D01*
X87813065Y-54008136D01*
X87836447Y-54000165D01*
X87856148Y-53989007D01*
X87864590Y-53983170D01*
X87901943Y-53949704D01*
X87930997Y-53912273D01*
X87933533Y-53907691D01*
X87953557Y-53840574D01*
X87950245Y-53770074D01*
G36*
X87834642Y-53109883D02*
X87726163Y-53110067D01*
X87642713Y-53110781D01*
X87580296Y-53112325D01*
X87534915Y-53114999D01*
X87502571Y-53119106D01*
X87479267Y-53124945D01*
X87461005Y-53132818D01*
X87450582Y-53138779D01*
X87394055Y-53188145D01*
X87358623Y-53250736D01*
X87345910Y-53319987D01*
X87357537Y-53389332D01*
X87378432Y-53430625D01*
X87414578Y-53473975D01*
X87458724Y-53503519D01*
X87516538Y-53521345D01*
X87593687Y-53529537D01*
X87650286Y-53530698D01*
X87654353Y-53530542D01*
X87654353Y-53429143D01*
X87589450Y-53428524D01*
X87546486Y-53425686D01*
X87518378Y-53419160D01*
X87498047Y-53407477D01*
X87482712Y-53393517D01*
X87453110Y-53346635D01*
X87450581Y-53296299D01*
X87475295Y-53248724D01*
X87478644Y-53245021D01*
X87496065Y-53229217D01*
X87516791Y-53219307D01*
X87547638Y-53213942D01*
X87595423Y-53211772D01*
X87648252Y-53211429D01*
X87714619Y-53212173D01*
X87758894Y-53215252D01*
X87787991Y-53221939D01*
X87808827Y-53233504D01*
X87819893Y-53242987D01*
X87847802Y-53287040D01*
X87851157Y-53337776D01*
X87829841Y-53386204D01*
X87821927Y-53395550D01*
X87804353Y-53411460D01*
X87783413Y-53421390D01*
X87752218Y-53426722D01*
X87703878Y-53428837D01*
X87654353Y-53429143D01*
X87654353Y-53530542D01*
X87741432Y-53527190D01*
X87809914Y-53515274D01*
X87861400Y-53492865D01*
X87901557Y-53457876D01*
X87922139Y-53430625D01*
X87944375Y-53381093D01*
X87954696Y-53323684D01*
X87951933Y-53270318D01*
X87940788Y-53240457D01*
X87937617Y-53228739D01*
X87949443Y-53220963D01*
X87981134Y-53215535D01*
X88029407Y-53211429D01*
X88083171Y-53206933D01*
X88115518Y-53200687D01*
X88134015Y-53189324D01*
X88146230Y-53169472D01*
X88151638Y-53157000D01*
X88171399Y-53109829D01*
X87834642Y-53109883D01*
X87834642Y-53109883D01*
G37*
X87834642Y-53109883D02*
X87726163Y-53110067D01*
X87642713Y-53110781D01*
X87580296Y-53112325D01*
X87534915Y-53114999D01*
X87502571Y-53119106D01*
X87479267Y-53124945D01*
X87461005Y-53132818D01*
X87450582Y-53138779D01*
X87394055Y-53188145D01*
X87358623Y-53250736D01*
X87345910Y-53319987D01*
X87357537Y-53389332D01*
X87378432Y-53430625D01*
X87414578Y-53473975D01*
X87458724Y-53503519D01*
X87516538Y-53521345D01*
X87593687Y-53529537D01*
X87650286Y-53530698D01*
X87654353Y-53530542D01*
X87654353Y-53429143D01*
X87589450Y-53428524D01*
X87546486Y-53425686D01*
X87518378Y-53419160D01*
X87498047Y-53407477D01*
X87482712Y-53393517D01*
X87453110Y-53346635D01*
X87450581Y-53296299D01*
X87475295Y-53248724D01*
X87478644Y-53245021D01*
X87496065Y-53229217D01*
X87516791Y-53219307D01*
X87547638Y-53213942D01*
X87595423Y-53211772D01*
X87648252Y-53211429D01*
X87714619Y-53212173D01*
X87758894Y-53215252D01*
X87787991Y-53221939D01*
X87808827Y-53233504D01*
X87819893Y-53242987D01*
X87847802Y-53287040D01*
X87851157Y-53337776D01*
X87829841Y-53386204D01*
X87821927Y-53395550D01*
X87804353Y-53411460D01*
X87783413Y-53421390D01*
X87752218Y-53426722D01*
X87703878Y-53428837D01*
X87654353Y-53429143D01*
X87654353Y-53530542D01*
X87741432Y-53527190D01*
X87809914Y-53515274D01*
X87861400Y-53492865D01*
X87901557Y-53457876D01*
X87922139Y-53430625D01*
X87944375Y-53381093D01*
X87954696Y-53323684D01*
X87951933Y-53270318D01*
X87940788Y-53240457D01*
X87937617Y-53228739D01*
X87949443Y-53220963D01*
X87981134Y-53215535D01*
X88029407Y-53211429D01*
X88083171Y-53206933D01*
X88115518Y-53200687D01*
X88134015Y-53189324D01*
X88146230Y-53169472D01*
X88151638Y-53157000D01*
X88171399Y-53109829D01*
X87834642Y-53109883D01*
G36*
X87941337Y-52520167D02*
X87903150Y-52517952D01*
X87845114Y-52516216D01*
X87771820Y-52515101D01*
X87694945Y-52514743D01*
X87434804Y-52514743D01*
X87388873Y-52560674D01*
X87360571Y-52592325D01*
X87349107Y-52620110D01*
X87349832Y-52658085D01*
X87351679Y-52673160D01*
X87357052Y-52720274D01*
X87360131Y-52759244D01*
X87360415Y-52768743D01*
X87358555Y-52800767D01*
X87353886Y-52846568D01*
X87351679Y-52864326D01*
X87348265Y-52907943D01*
X87355680Y-52937255D01*
X87378573Y-52966320D01*
X87388873Y-52976812D01*
X87434804Y-53022743D01*
X87921398Y-53022743D01*
X87938242Y-52985774D01*
X87950718Y-52953941D01*
X87955086Y-52935317D01*
X87941282Y-52930542D01*
X87902714Y-52926079D01*
X87843644Y-52922225D01*
X87768337Y-52919278D01*
X87704714Y-52917857D01*
X87454343Y-52913886D01*
X87449444Y-52879241D01*
X87452869Y-52847732D01*
X87463959Y-52832292D01*
X87484692Y-52827977D01*
X87528855Y-52824292D01*
X87590854Y-52821531D01*
X87665091Y-52819988D01*
X87703294Y-52819765D01*
X87923217Y-52819543D01*
X87939151Y-52773834D01*
X87949985Y-52741482D01*
X87955038Y-52723885D01*
X87955086Y-52723377D01*
X87941352Y-52721612D01*
X87903270Y-52719671D01*
X87845518Y-52717718D01*
X87772773Y-52715916D01*
X87704714Y-52714657D01*
X87454343Y-52710686D01*
X87454343Y-52623600D01*
X87682760Y-52619604D01*
X87911178Y-52615608D01*
X87933132Y-52573153D01*
X87948207Y-52541808D01*
X87955049Y-52523256D01*
X87955086Y-52522721D01*
X87941337Y-52520167D01*
X87941337Y-52520167D01*
G37*
X87941337Y-52520167D02*
X87903150Y-52517952D01*
X87845114Y-52516216D01*
X87771820Y-52515101D01*
X87694945Y-52514743D01*
X87434804Y-52514743D01*
X87388873Y-52560674D01*
X87360571Y-52592325D01*
X87349107Y-52620110D01*
X87349832Y-52658085D01*
X87351679Y-52673160D01*
X87357052Y-52720274D01*
X87360131Y-52759244D01*
X87360415Y-52768743D01*
X87358555Y-52800767D01*
X87353886Y-52846568D01*
X87351679Y-52864326D01*
X87348265Y-52907943D01*
X87355680Y-52937255D01*
X87378573Y-52966320D01*
X87388873Y-52976812D01*
X87434804Y-53022743D01*
X87921398Y-53022743D01*
X87938242Y-52985774D01*
X87950718Y-52953941D01*
X87955086Y-52935317D01*
X87941282Y-52930542D01*
X87902714Y-52926079D01*
X87843644Y-52922225D01*
X87768337Y-52919278D01*
X87704714Y-52917857D01*
X87454343Y-52913886D01*
X87449444Y-52879241D01*
X87452869Y-52847732D01*
X87463959Y-52832292D01*
X87484692Y-52827977D01*
X87528855Y-52824292D01*
X87590854Y-52821531D01*
X87665091Y-52819988D01*
X87703294Y-52819765D01*
X87923217Y-52819543D01*
X87939151Y-52773834D01*
X87949985Y-52741482D01*
X87955038Y-52723885D01*
X87955086Y-52723377D01*
X87941352Y-52721612D01*
X87903270Y-52719671D01*
X87845518Y-52717718D01*
X87772773Y-52715916D01*
X87704714Y-52714657D01*
X87454343Y-52710686D01*
X87454343Y-52623600D01*
X87682760Y-52619604D01*
X87911178Y-52615608D01*
X87933132Y-52573153D01*
X87948207Y-52541808D01*
X87955049Y-52523256D01*
X87955086Y-52522721D01*
X87941337Y-52520167D01*
G36*
X87943665Y-52155124D02*
X87924656Y-52113333D01*
X87901622Y-52080531D01*
X87875867Y-52056497D01*
X87842642Y-52039903D01*
X87797200Y-52029423D01*
X87734793Y-52023729D01*
X87650673Y-52021493D01*
X87595279Y-52021257D01*
X87379174Y-52021257D01*
X87362330Y-52058226D01*
X87350019Y-52087344D01*
X87345486Y-52101769D01*
X87358975Y-52104528D01*
X87395347Y-52106718D01*
X87448458Y-52108058D01*
X87490628Y-52108343D01*
X87551553Y-52109566D01*
X87599885Y-52112864D01*
X87629482Y-52117679D01*
X87635771Y-52121504D01*
X87629348Y-52147217D01*
X87612875Y-52187582D01*
X87590542Y-52234321D01*
X87566543Y-52279155D01*
X87545070Y-52313807D01*
X87530315Y-52329998D01*
X87530155Y-52330062D01*
X87502848Y-52328670D01*
X87476781Y-52316182D01*
X87455608Y-52294257D01*
X87448526Y-52262257D01*
X87449351Y-52234908D01*
X87449958Y-52196174D01*
X87440884Y-52175842D01*
X87416908Y-52163631D01*
X87412387Y-52162091D01*
X87378194Y-52156797D01*
X87357432Y-52170953D01*
X87347538Y-52207852D01*
X87345708Y-52247711D01*
X87359273Y-52319438D01*
X87378645Y-52356568D01*
X87424155Y-52402424D01*
X87480017Y-52426744D01*
X87539043Y-52428927D01*
X87594047Y-52408371D01*
X87628514Y-52377451D01*
X87647811Y-52346580D01*
X87672241Y-52298058D01*
X87697015Y-52241515D01*
X87700801Y-52232090D01*
X87728209Y-52169981D01*
X87752366Y-52134178D01*
X87776381Y-52122663D01*
X87803365Y-52133420D01*
X87824457Y-52151886D01*
X87850428Y-52195531D01*
X87852376Y-52243554D01*
X87832363Y-52287594D01*
X87792449Y-52319291D01*
X87782152Y-52323451D01*
X87744276Y-52347673D01*
X87716158Y-52383035D01*
X87693083Y-52427657D01*
X87758515Y-52427657D01*
X87798494Y-52425031D01*
X87830003Y-52413770D01*
X87863622Y-52388801D01*
X87889516Y-52364831D01*
X87926183Y-52327559D01*
X87945879Y-52298599D01*
X87953780Y-52267495D01*
X87955086Y-52232287D01*
X87943665Y-52155124D01*
X87943665Y-52155124D01*
G37*
X87943665Y-52155124D02*
X87924656Y-52113333D01*
X87901622Y-52080531D01*
X87875867Y-52056497D01*
X87842642Y-52039903D01*
X87797200Y-52029423D01*
X87734793Y-52023729D01*
X87650673Y-52021493D01*
X87595279Y-52021257D01*
X87379174Y-52021257D01*
X87362330Y-52058226D01*
X87350019Y-52087344D01*
X87345486Y-52101769D01*
X87358975Y-52104528D01*
X87395347Y-52106718D01*
X87448458Y-52108058D01*
X87490628Y-52108343D01*
X87551553Y-52109566D01*
X87599885Y-52112864D01*
X87629482Y-52117679D01*
X87635771Y-52121504D01*
X87629348Y-52147217D01*
X87612875Y-52187582D01*
X87590542Y-52234321D01*
X87566543Y-52279155D01*
X87545070Y-52313807D01*
X87530315Y-52329998D01*
X87530155Y-52330062D01*
X87502848Y-52328670D01*
X87476781Y-52316182D01*
X87455608Y-52294257D01*
X87448526Y-52262257D01*
X87449351Y-52234908D01*
X87449958Y-52196174D01*
X87440884Y-52175842D01*
X87416908Y-52163631D01*
X87412387Y-52162091D01*
X87378194Y-52156797D01*
X87357432Y-52170953D01*
X87347538Y-52207852D01*
X87345708Y-52247711D01*
X87359273Y-52319438D01*
X87378645Y-52356568D01*
X87424155Y-52402424D01*
X87480017Y-52426744D01*
X87539043Y-52428927D01*
X87594047Y-52408371D01*
X87628514Y-52377451D01*
X87647811Y-52346580D01*
X87672241Y-52298058D01*
X87697015Y-52241515D01*
X87700801Y-52232090D01*
X87728209Y-52169981D01*
X87752366Y-52134178D01*
X87776381Y-52122663D01*
X87803365Y-52133420D01*
X87824457Y-52151886D01*
X87850428Y-52195531D01*
X87852376Y-52243554D01*
X87832363Y-52287594D01*
X87792449Y-52319291D01*
X87782152Y-52323451D01*
X87744276Y-52347673D01*
X87716158Y-52383035D01*
X87693083Y-52427657D01*
X87758515Y-52427657D01*
X87798494Y-52425031D01*
X87830003Y-52413770D01*
X87863622Y-52388801D01*
X87889516Y-52364831D01*
X87926183Y-52327559D01*
X87945879Y-52298599D01*
X87953780Y-52267495D01*
X87955086Y-52232287D01*
X87943665Y-52155124D01*
G36*
X87941248Y-51647400D02*
X87933666Y-51630052D01*
X87900872Y-51588644D01*
X87853453Y-51553235D01*
X87802849Y-51531336D01*
X87777902Y-51527771D01*
X87743073Y-51539721D01*
X87724643Y-51565933D01*
X87713484Y-51594036D01*
X87711428Y-51606905D01*
X87726351Y-51613171D01*
X87758825Y-51625544D01*
X87773498Y-51630972D01*
X87824256Y-51661410D01*
X87849573Y-51705480D01*
X87848794Y-51761990D01*
X87847797Y-51766175D01*
X87833493Y-51796345D01*
X87805607Y-51818524D01*
X87760713Y-51833673D01*
X87695385Y-51842750D01*
X87606196Y-51846714D01*
X87558739Y-51847086D01*
X87483929Y-51847270D01*
X87432931Y-51848478D01*
X87400529Y-51851691D01*
X87381505Y-51857891D01*
X87370644Y-51868060D01*
X87362728Y-51883181D01*
X87362330Y-51884054D01*
X87350019Y-51913172D01*
X87345486Y-51927597D01*
X87359191Y-51929814D01*
X87397075Y-51931711D01*
X87454285Y-51933153D01*
X87525973Y-51934002D01*
X87578435Y-51934171D01*
X87679953Y-51933308D01*
X87756968Y-51929930D01*
X87813977Y-51922858D01*
X87855474Y-51910912D01*
X87885957Y-51892910D01*
X87909920Y-51867673D01*
X87926645Y-51842753D01*
X87948903Y-51782829D01*
X87953924Y-51713089D01*
X87941248Y-51647400D01*
X87941248Y-51647400D01*
G37*
X87941248Y-51647400D02*
X87933666Y-51630052D01*
X87900872Y-51588644D01*
X87853453Y-51553235D01*
X87802849Y-51531336D01*
X87777902Y-51527771D01*
X87743073Y-51539721D01*
X87724643Y-51565933D01*
X87713484Y-51594036D01*
X87711428Y-51606905D01*
X87726351Y-51613171D01*
X87758825Y-51625544D01*
X87773498Y-51630972D01*
X87824256Y-51661410D01*
X87849573Y-51705480D01*
X87848794Y-51761990D01*
X87847797Y-51766175D01*
X87833493Y-51796345D01*
X87805607Y-51818524D01*
X87760713Y-51833673D01*
X87695385Y-51842750D01*
X87606196Y-51846714D01*
X87558739Y-51847086D01*
X87483929Y-51847270D01*
X87432931Y-51848478D01*
X87400529Y-51851691D01*
X87381505Y-51857891D01*
X87370644Y-51868060D01*
X87362728Y-51883181D01*
X87362330Y-51884054D01*
X87350019Y-51913172D01*
X87345486Y-51927597D01*
X87359191Y-51929814D01*
X87397075Y-51931711D01*
X87454285Y-51933153D01*
X87525973Y-51934002D01*
X87578435Y-51934171D01*
X87679953Y-51933308D01*
X87756968Y-51929930D01*
X87813977Y-51922858D01*
X87855474Y-51910912D01*
X87885957Y-51892910D01*
X87909920Y-51867673D01*
X87926645Y-51842753D01*
X87948903Y-51782829D01*
X87953924Y-51713089D01*
X87941248Y-51647400D01*
G36*
X87933034Y-51146405D02*
X87895503Y-51088979D01*
X87861904Y-51061281D01*
X87800936Y-51039338D01*
X87752692Y-51037595D01*
X87688184Y-51041543D01*
X87623066Y-51190314D01*
X87589798Y-51262651D01*
X87563036Y-51309916D01*
X87539856Y-51334493D01*
X87517333Y-51338763D01*
X87492545Y-51325111D01*
X87476114Y-51310057D01*
X87449765Y-51266254D01*
X87447919Y-51218611D01*
X87468454Y-51174855D01*
X87509248Y-51142711D01*
X87523653Y-51136962D01*
X87568644Y-51109424D01*
X87587818Y-51077742D01*
X87604221Y-51034286D01*
X87542034Y-51034286D01*
X87499717Y-51038128D01*
X87464031Y-51053177D01*
X87423057Y-51084720D01*
X87417733Y-51089408D01*
X87381280Y-51124494D01*
X87361717Y-51154653D01*
X87352717Y-51192385D01*
X87349770Y-51223665D01*
X87349035Y-51279615D01*
X87358340Y-51319445D01*
X87372154Y-51344292D01*
X87402533Y-51383344D01*
X87435387Y-51410375D01*
X87476706Y-51427483D01*
X87532479Y-51436762D01*
X87608695Y-51440307D01*
X87647378Y-51440590D01*
X87693753Y-51439628D01*
X87693753Y-51351993D01*
X87668874Y-51350977D01*
X87664800Y-51348444D01*
X87670335Y-51331726D01*
X87684983Y-51295751D01*
X87705810Y-51247669D01*
X87710286Y-51237614D01*
X87741186Y-51176848D01*
X87768343Y-51143368D01*
X87793780Y-51136010D01*
X87819519Y-51153609D01*
X87830891Y-51168144D01*
X87853636Y-51220590D01*
X87849878Y-51269678D01*
X87822116Y-51310773D01*
X87772848Y-51339242D01*
X87733743Y-51348369D01*
X87693753Y-51351993D01*
X87693753Y-51439628D01*
X87737751Y-51438715D01*
X87804616Y-51431804D01*
X87853305Y-51418116D01*
X87889151Y-51395904D01*
X87917487Y-51363426D01*
X87926645Y-51349267D01*
X87950493Y-51284947D01*
X87951994Y-51214527D01*
X87933034Y-51146405D01*
X87933034Y-51146405D01*
G37*
X87933034Y-51146405D02*
X87895503Y-51088979D01*
X87861904Y-51061281D01*
X87800936Y-51039338D01*
X87752692Y-51037595D01*
X87688184Y-51041543D01*
X87623066Y-51190314D01*
X87589798Y-51262651D01*
X87563036Y-51309916D01*
X87539856Y-51334493D01*
X87517333Y-51338763D01*
X87492545Y-51325111D01*
X87476114Y-51310057D01*
X87449765Y-51266254D01*
X87447919Y-51218611D01*
X87468454Y-51174855D01*
X87509248Y-51142711D01*
X87523653Y-51136962D01*
X87568644Y-51109424D01*
X87587818Y-51077742D01*
X87604221Y-51034286D01*
X87542034Y-51034286D01*
X87499717Y-51038128D01*
X87464031Y-51053177D01*
X87423057Y-51084720D01*
X87417733Y-51089408D01*
X87381280Y-51124494D01*
X87361717Y-51154653D01*
X87352717Y-51192385D01*
X87349770Y-51223665D01*
X87349035Y-51279615D01*
X87358340Y-51319445D01*
X87372154Y-51344292D01*
X87402533Y-51383344D01*
X87435387Y-51410375D01*
X87476706Y-51427483D01*
X87532479Y-51436762D01*
X87608695Y-51440307D01*
X87647378Y-51440590D01*
X87693753Y-51439628D01*
X87693753Y-51351993D01*
X87668874Y-51350977D01*
X87664800Y-51348444D01*
X87670335Y-51331726D01*
X87684983Y-51295751D01*
X87705810Y-51247669D01*
X87710286Y-51237614D01*
X87741186Y-51176848D01*
X87768343Y-51143368D01*
X87793780Y-51136010D01*
X87819519Y-51153609D01*
X87830891Y-51168144D01*
X87853636Y-51220590D01*
X87849878Y-51269678D01*
X87822116Y-51310773D01*
X87772848Y-51339242D01*
X87733743Y-51348369D01*
X87693753Y-51351993D01*
X87693753Y-51439628D01*
X87737751Y-51438715D01*
X87804616Y-51431804D01*
X87853305Y-51418116D01*
X87889151Y-51395904D01*
X87917487Y-51363426D01*
X87926645Y-51349267D01*
X87950493Y-51284947D01*
X87951994Y-51214527D01*
X87933034Y-51146405D01*
G36*
X92657652Y-54196090D02*
X92657222Y-54117546D01*
X92656058Y-54060702D01*
X92653793Y-54021895D01*
X92650060Y-53997462D01*
X92644494Y-53983738D01*
X92636727Y-53977060D01*
X92626395Y-53973764D01*
X92625057Y-53973444D01*
X92600921Y-53968438D01*
X92553299Y-53959171D01*
X92487259Y-53946608D01*
X92407872Y-53931713D01*
X92320204Y-53915449D01*
X92317125Y-53914881D01*
X92231211Y-53898590D01*
X92155304Y-53883348D01*
X92093955Y-53870139D01*
X92051718Y-53859946D01*
X92033145Y-53853752D01*
X92032816Y-53853457D01*
X92023747Y-53835212D01*
X92008633Y-53797595D01*
X91990738Y-53748729D01*
X91990642Y-53748457D01*
X91967507Y-53686907D01*
X91938035Y-53614343D01*
X91908403Y-53545943D01*
X91906938Y-53542706D01*
X91856374Y-53431298D01*
X92024840Y-53184601D01*
X92076197Y-53108923D01*
X92122111Y-53040369D01*
X92159970Y-52982912D01*
X92187163Y-52940524D01*
X92201079Y-52917175D01*
X92202111Y-52914958D01*
X92197516Y-52897990D01*
X92175345Y-52866299D01*
X92134553Y-52818648D01*
X92074095Y-52753802D01*
X92009773Y-52687603D01*
X91946388Y-52623786D01*
X91888549Y-52566671D01*
X91839825Y-52519695D01*
X91803790Y-52486297D01*
X91784016Y-52469915D01*
X91782998Y-52469306D01*
X91769428Y-52467495D01*
X91747267Y-52474317D01*
X91713522Y-52491460D01*
X91665200Y-52520607D01*
X91599308Y-52563445D01*
X91514483Y-52620552D01*
X91439823Y-52671234D01*
X91372860Y-52716539D01*
X91317484Y-52753850D01*
X91277580Y-52780548D01*
X91257038Y-52794015D01*
X91255644Y-52794863D01*
X91235962Y-52793219D01*
X91197707Y-52780755D01*
X91148111Y-52759952D01*
X91132272Y-52752538D01*
X91061710Y-52720186D01*
X90981647Y-52685672D01*
X90912371Y-52657635D01*
X90860955Y-52637432D01*
X90821881Y-52621385D01*
X90801459Y-52612112D01*
X90799886Y-52610959D01*
X90797279Y-52593904D01*
X90790137Y-52553702D01*
X90779477Y-52495698D01*
X90766315Y-52425237D01*
X90751667Y-52347665D01*
X90736551Y-52268328D01*
X90721982Y-52192569D01*
X90708978Y-52125736D01*
X90698555Y-52073172D01*
X90691730Y-52040224D01*
X90689801Y-52032143D01*
X90685038Y-52023795D01*
X90674282Y-52017494D01*
X90653902Y-52012955D01*
X90620266Y-52009896D01*
X90569745Y-52008033D01*
X90498708Y-52007082D01*
X90403524Y-52006760D01*
X90364508Y-52006743D01*
X90047201Y-52006743D01*
X90032161Y-52082943D01*
X90024005Y-52125337D01*
X90012101Y-52188600D01*
X89997884Y-52265038D01*
X89982790Y-52346957D01*
X89978645Y-52369600D01*
X89963947Y-52445194D01*
X89949495Y-52511047D01*
X89936625Y-52561634D01*
X89926678Y-52591426D01*
X89923713Y-52596388D01*
X89902717Y-52608574D01*
X89862033Y-52626047D01*
X89809678Y-52645423D01*
X89798400Y-52649266D01*
X89728477Y-52674661D01*
X89649582Y-52706183D01*
X89578734Y-52737031D01*
X89578405Y-52737183D01*
X89467267Y-52788553D01*
X89218747Y-52619601D01*
X88970228Y-52450648D01*
X88752942Y-52667571D01*
X88688274Y-52733181D01*
X88631267Y-52793021D01*
X88584967Y-52843733D01*
X88552416Y-52881954D01*
X88536657Y-52904325D01*
X88535657Y-52907534D01*
X88543531Y-52926374D01*
X88565422Y-52964820D01*
X88598733Y-53018670D01*
X88640869Y-53083724D01*
X88688057Y-53154060D01*
X88736190Y-53225445D01*
X88778072Y-53289092D01*
X88811129Y-53340959D01*
X88832782Y-53377005D01*
X88840457Y-53393133D01*
X88833963Y-53412811D01*
X88816850Y-53450125D01*
X88792674Y-53497379D01*
X88789987Y-53502388D01*
X88758073Y-53566023D01*
X88742421Y-53609659D01*
X88742255Y-53636798D01*
X88756796Y-53650943D01*
X88757000Y-53651025D01*
X88774221Y-53658095D01*
X88815101Y-53674958D01*
X88876475Y-53700305D01*
X88955181Y-53732829D01*
X89048053Y-53771222D01*
X89151928Y-53814178D01*
X89252498Y-53855778D01*
X89363484Y-53901496D01*
X89466297Y-53943474D01*
X89557785Y-53980452D01*
X89634799Y-54011173D01*
X89694185Y-54034378D01*
X89732791Y-54048810D01*
X89747200Y-54053257D01*
X89763728Y-54042104D01*
X89790070Y-54012931D01*
X89819113Y-53974029D01*
X89910961Y-53863243D01*
X90016241Y-53776649D01*
X90132734Y-53715284D01*
X90258224Y-53680185D01*
X90390493Y-53672392D01*
X90451543Y-53678057D01*
X90578205Y-53708922D01*
X90690059Y-53762080D01*
X90785999Y-53834233D01*
X90864924Y-53922083D01*
X90925730Y-54022335D01*
X90967313Y-54131690D01*
X90988572Y-54246853D01*
X90988401Y-54364525D01*
X90965699Y-54481410D01*
X90919362Y-54594211D01*
X90848287Y-54699631D01*
X90808089Y-54743632D01*
X90704871Y-54828021D01*
X90592075Y-54886778D01*
X90472990Y-54920296D01*
X90350905Y-54928965D01*
X90229107Y-54913177D01*
X90110884Y-54873322D01*
X89999525Y-54809793D01*
X89898316Y-54722979D01*
X89819113Y-54625971D01*
X89788838Y-54585563D01*
X89762781Y-54557018D01*
X89747175Y-54546743D01*
X89730157Y-54552123D01*
X89689500Y-54567425D01*
X89628358Y-54591388D01*
X89549881Y-54622756D01*
X89457220Y-54660268D01*
X89353528Y-54702667D01*
X89252474Y-54744337D01*
X89141393Y-54790310D01*
X89038459Y-54832893D01*
X88946835Y-54870779D01*
X88869684Y-54902660D01*
X88810169Y-54927229D01*
X88771456Y-54943180D01*
X88757000Y-54949090D01*
X88742315Y-54963052D01*
X88742358Y-54990060D01*
X88757901Y-55033587D01*
X88789716Y-55097110D01*
X88789987Y-55097612D01*
X88814677Y-55145440D01*
X88832662Y-55184103D01*
X88840386Y-55205905D01*
X88840457Y-55206867D01*
X88832622Y-55223279D01*
X88810835Y-55259513D01*
X88777672Y-55311526D01*
X88735709Y-55375275D01*
X88688057Y-55445940D01*
X88639809Y-55517884D01*
X88597849Y-55582726D01*
X88564773Y-55636265D01*
X88543179Y-55674303D01*
X88535657Y-55692467D01*
X88545543Y-55709192D01*
X88573174Y-55742820D01*
X88615505Y-55789990D01*
X88669495Y-55847342D01*
X88732101Y-55911516D01*
X88753017Y-55932503D01*
X88970377Y-56149501D01*
X89212780Y-55984332D01*
X89287219Y-55934136D01*
X89354028Y-55890081D01*
X89409335Y-55854638D01*
X89449271Y-55830281D01*
X89469964Y-55819478D01*
X89471437Y-55819162D01*
X89490942Y-55824857D01*
X89530178Y-55840174D01*
X89582570Y-55862463D01*
X89617645Y-55878107D01*
X89684799Y-55907359D01*
X89752642Y-55934906D01*
X89809966Y-55956263D01*
X89827428Y-55962065D01*
X89874062Y-55978548D01*
X89910095Y-55994660D01*
X89923713Y-56003510D01*
X89932048Y-56023040D01*
X89943863Y-56065666D01*
X89957819Y-56125855D01*
X89972578Y-56198078D01*
X89978645Y-56230400D01*
X89993727Y-56312478D01*
X90008331Y-56391205D01*
X90021020Y-56458891D01*
X90030358Y-56507840D01*
X90032161Y-56517057D01*
X90047201Y-56593257D01*
X90364508Y-56593257D01*
X90468846Y-56593086D01*
X90547787Y-56592384D01*
X90604962Y-56590866D01*
X90644001Y-56588251D01*
X90668535Y-56584254D01*
X90682195Y-56578591D01*
X90688611Y-56570980D01*
X90689801Y-56567857D01*
X90694020Y-56549022D01*
X90702438Y-56507412D01*
X90714039Y-56448370D01*
X90727805Y-56377243D01*
X90742720Y-56299375D01*
X90757768Y-56220113D01*
X90771931Y-56144802D01*
X90784194Y-56078787D01*
X90793539Y-56027413D01*
X90798950Y-55996025D01*
X90799886Y-55989041D01*
X90812404Y-55982715D01*
X90845754Y-55968710D01*
X90893623Y-55949645D01*
X90912371Y-55942366D01*
X90984805Y-55913004D01*
X91064830Y-55878429D01*
X91132272Y-55847463D01*
X91183841Y-55824677D01*
X91226215Y-55809518D01*
X91252166Y-55804458D01*
X91255644Y-55805264D01*
X91272064Y-55815959D01*
X91308583Y-55840380D01*
X91361313Y-55875905D01*
X91426365Y-55919913D01*
X91499849Y-55969783D01*
X91514355Y-55979644D01*
X91600296Y-56037508D01*
X91665739Y-56080044D01*
X91713696Y-56108946D01*
X91747180Y-56125910D01*
X91769205Y-56132633D01*
X91782783Y-56130810D01*
X91782869Y-56130764D01*
X91800703Y-56116414D01*
X91835183Y-56084677D01*
X91882732Y-56038990D01*
X91939778Y-55982796D01*
X92002745Y-55919532D01*
X92009773Y-55912398D01*
X92086980Y-55832670D01*
X92143670Y-55771143D01*
X92180890Y-55726579D01*
X92199685Y-55697743D01*
X92202111Y-55685042D01*
X92191529Y-55666506D01*
X92167084Y-55628039D01*
X92131388Y-55573614D01*
X92087053Y-55507202D01*
X92036689Y-55432775D01*
X92024840Y-55415399D01*
X91856374Y-55168703D01*
X91906938Y-55057294D01*
X91936405Y-54989543D01*
X91966041Y-54916817D01*
X91989670Y-54854297D01*
X91990642Y-54851543D01*
X92008543Y-54802640D01*
X92023680Y-54764943D01*
X92032790Y-54746575D01*
X92032816Y-54746544D01*
X92049283Y-54740715D01*
X92089781Y-54730808D01*
X92149758Y-54717805D01*
X92224660Y-54702691D01*
X92309936Y-54686448D01*
X92317125Y-54685119D01*
X92404986Y-54668825D01*
X92484740Y-54653867D01*
X92551319Y-54641209D01*
X92599653Y-54631814D01*
X92624675Y-54626646D01*
X92625057Y-54626556D01*
X92635701Y-54623411D01*
X92643738Y-54617296D01*
X92649533Y-54604547D01*
X92653453Y-54581500D01*
X92655865Y-54544491D01*
X92657135Y-54489856D01*
X92657629Y-54413933D01*
X92657714Y-54313056D01*
X92657714Y-54300000D01*
X92657652Y-54196090D01*
X92657652Y-54196090D01*
G37*
X92657652Y-54196090D02*
X92657222Y-54117546D01*
X92656058Y-54060702D01*
X92653793Y-54021895D01*
X92650060Y-53997462D01*
X92644494Y-53983738D01*
X92636727Y-53977060D01*
X92626395Y-53973764D01*
X92625057Y-53973444D01*
X92600921Y-53968438D01*
X92553299Y-53959171D01*
X92487259Y-53946608D01*
X92407872Y-53931713D01*
X92320204Y-53915449D01*
X92317125Y-53914881D01*
X92231211Y-53898590D01*
X92155304Y-53883348D01*
X92093955Y-53870139D01*
X92051718Y-53859946D01*
X92033145Y-53853752D01*
X92032816Y-53853457D01*
X92023747Y-53835212D01*
X92008633Y-53797595D01*
X91990738Y-53748729D01*
X91990642Y-53748457D01*
X91967507Y-53686907D01*
X91938035Y-53614343D01*
X91908403Y-53545943D01*
X91906938Y-53542706D01*
X91856374Y-53431298D01*
X92024840Y-53184601D01*
X92076197Y-53108923D01*
X92122111Y-53040369D01*
X92159970Y-52982912D01*
X92187163Y-52940524D01*
X92201079Y-52917175D01*
X92202111Y-52914958D01*
X92197516Y-52897990D01*
X92175345Y-52866299D01*
X92134553Y-52818648D01*
X92074095Y-52753802D01*
X92009773Y-52687603D01*
X91946388Y-52623786D01*
X91888549Y-52566671D01*
X91839825Y-52519695D01*
X91803790Y-52486297D01*
X91784016Y-52469915D01*
X91782998Y-52469306D01*
X91769428Y-52467495D01*
X91747267Y-52474317D01*
X91713522Y-52491460D01*
X91665200Y-52520607D01*
X91599308Y-52563445D01*
X91514483Y-52620552D01*
X91439823Y-52671234D01*
X91372860Y-52716539D01*
X91317484Y-52753850D01*
X91277580Y-52780548D01*
X91257038Y-52794015D01*
X91255644Y-52794863D01*
X91235962Y-52793219D01*
X91197707Y-52780755D01*
X91148111Y-52759952D01*
X91132272Y-52752538D01*
X91061710Y-52720186D01*
X90981647Y-52685672D01*
X90912371Y-52657635D01*
X90860955Y-52637432D01*
X90821881Y-52621385D01*
X90801459Y-52612112D01*
X90799886Y-52610959D01*
X90797279Y-52593904D01*
X90790137Y-52553702D01*
X90779477Y-52495698D01*
X90766315Y-52425237D01*
X90751667Y-52347665D01*
X90736551Y-52268328D01*
X90721982Y-52192569D01*
X90708978Y-52125736D01*
X90698555Y-52073172D01*
X90691730Y-52040224D01*
X90689801Y-52032143D01*
X90685038Y-52023795D01*
X90674282Y-52017494D01*
X90653902Y-52012955D01*
X90620266Y-52009896D01*
X90569745Y-52008033D01*
X90498708Y-52007082D01*
X90403524Y-52006760D01*
X90364508Y-52006743D01*
X90047201Y-52006743D01*
X90032161Y-52082943D01*
X90024005Y-52125337D01*
X90012101Y-52188600D01*
X89997884Y-52265038D01*
X89982790Y-52346957D01*
X89978645Y-52369600D01*
X89963947Y-52445194D01*
X89949495Y-52511047D01*
X89936625Y-52561634D01*
X89926678Y-52591426D01*
X89923713Y-52596388D01*
X89902717Y-52608574D01*
X89862033Y-52626047D01*
X89809678Y-52645423D01*
X89798400Y-52649266D01*
X89728477Y-52674661D01*
X89649582Y-52706183D01*
X89578734Y-52737031D01*
X89578405Y-52737183D01*
X89467267Y-52788553D01*
X89218747Y-52619601D01*
X88970228Y-52450648D01*
X88752942Y-52667571D01*
X88688274Y-52733181D01*
X88631267Y-52793021D01*
X88584967Y-52843733D01*
X88552416Y-52881954D01*
X88536657Y-52904325D01*
X88535657Y-52907534D01*
X88543531Y-52926374D01*
X88565422Y-52964820D01*
X88598733Y-53018670D01*
X88640869Y-53083724D01*
X88688057Y-53154060D01*
X88736190Y-53225445D01*
X88778072Y-53289092D01*
X88811129Y-53340959D01*
X88832782Y-53377005D01*
X88840457Y-53393133D01*
X88833963Y-53412811D01*
X88816850Y-53450125D01*
X88792674Y-53497379D01*
X88789987Y-53502388D01*
X88758073Y-53566023D01*
X88742421Y-53609659D01*
X88742255Y-53636798D01*
X88756796Y-53650943D01*
X88757000Y-53651025D01*
X88774221Y-53658095D01*
X88815101Y-53674958D01*
X88876475Y-53700305D01*
X88955181Y-53732829D01*
X89048053Y-53771222D01*
X89151928Y-53814178D01*
X89252498Y-53855778D01*
X89363484Y-53901496D01*
X89466297Y-53943474D01*
X89557785Y-53980452D01*
X89634799Y-54011173D01*
X89694185Y-54034378D01*
X89732791Y-54048810D01*
X89747200Y-54053257D01*
X89763728Y-54042104D01*
X89790070Y-54012931D01*
X89819113Y-53974029D01*
X89910961Y-53863243D01*
X90016241Y-53776649D01*
X90132734Y-53715284D01*
X90258224Y-53680185D01*
X90390493Y-53672392D01*
X90451543Y-53678057D01*
X90578205Y-53708922D01*
X90690059Y-53762080D01*
X90785999Y-53834233D01*
X90864924Y-53922083D01*
X90925730Y-54022335D01*
X90967313Y-54131690D01*
X90988572Y-54246853D01*
X90988401Y-54364525D01*
X90965699Y-54481410D01*
X90919362Y-54594211D01*
X90848287Y-54699631D01*
X90808089Y-54743632D01*
X90704871Y-54828021D01*
X90592075Y-54886778D01*
X90472990Y-54920296D01*
X90350905Y-54928965D01*
X90229107Y-54913177D01*
X90110884Y-54873322D01*
X89999525Y-54809793D01*
X89898316Y-54722979D01*
X89819113Y-54625971D01*
X89788838Y-54585563D01*
X89762781Y-54557018D01*
X89747175Y-54546743D01*
X89730157Y-54552123D01*
X89689500Y-54567425D01*
X89628358Y-54591388D01*
X89549881Y-54622756D01*
X89457220Y-54660268D01*
X89353528Y-54702667D01*
X89252474Y-54744337D01*
X89141393Y-54790310D01*
X89038459Y-54832893D01*
X88946835Y-54870779D01*
X88869684Y-54902660D01*
X88810169Y-54927229D01*
X88771456Y-54943180D01*
X88757000Y-54949090D01*
X88742315Y-54963052D01*
X88742358Y-54990060D01*
X88757901Y-55033587D01*
X88789716Y-55097110D01*
X88789987Y-55097612D01*
X88814677Y-55145440D01*
X88832662Y-55184103D01*
X88840386Y-55205905D01*
X88840457Y-55206867D01*
X88832622Y-55223279D01*
X88810835Y-55259513D01*
X88777672Y-55311526D01*
X88735709Y-55375275D01*
X88688057Y-55445940D01*
X88639809Y-55517884D01*
X88597849Y-55582726D01*
X88564773Y-55636265D01*
X88543179Y-55674303D01*
X88535657Y-55692467D01*
X88545543Y-55709192D01*
X88573174Y-55742820D01*
X88615505Y-55789990D01*
X88669495Y-55847342D01*
X88732101Y-55911516D01*
X88753017Y-55932503D01*
X88970377Y-56149501D01*
X89212780Y-55984332D01*
X89287219Y-55934136D01*
X89354028Y-55890081D01*
X89409335Y-55854638D01*
X89449271Y-55830281D01*
X89469964Y-55819478D01*
X89471437Y-55819162D01*
X89490942Y-55824857D01*
X89530178Y-55840174D01*
X89582570Y-55862463D01*
X89617645Y-55878107D01*
X89684799Y-55907359D01*
X89752642Y-55934906D01*
X89809966Y-55956263D01*
X89827428Y-55962065D01*
X89874062Y-55978548D01*
X89910095Y-55994660D01*
X89923713Y-56003510D01*
X89932048Y-56023040D01*
X89943863Y-56065666D01*
X89957819Y-56125855D01*
X89972578Y-56198078D01*
X89978645Y-56230400D01*
X89993727Y-56312478D01*
X90008331Y-56391205D01*
X90021020Y-56458891D01*
X90030358Y-56507840D01*
X90032161Y-56517057D01*
X90047201Y-56593257D01*
X90364508Y-56593257D01*
X90468846Y-56593086D01*
X90547787Y-56592384D01*
X90604962Y-56590866D01*
X90644001Y-56588251D01*
X90668535Y-56584254D01*
X90682195Y-56578591D01*
X90688611Y-56570980D01*
X90689801Y-56567857D01*
X90694020Y-56549022D01*
X90702438Y-56507412D01*
X90714039Y-56448370D01*
X90727805Y-56377243D01*
X90742720Y-56299375D01*
X90757768Y-56220113D01*
X90771931Y-56144802D01*
X90784194Y-56078787D01*
X90793539Y-56027413D01*
X90798950Y-55996025D01*
X90799886Y-55989041D01*
X90812404Y-55982715D01*
X90845754Y-55968710D01*
X90893623Y-55949645D01*
X90912371Y-55942366D01*
X90984805Y-55913004D01*
X91064830Y-55878429D01*
X91132272Y-55847463D01*
X91183841Y-55824677D01*
X91226215Y-55809518D01*
X91252166Y-55804458D01*
X91255644Y-55805264D01*
X91272064Y-55815959D01*
X91308583Y-55840380D01*
X91361313Y-55875905D01*
X91426365Y-55919913D01*
X91499849Y-55969783D01*
X91514355Y-55979644D01*
X91600296Y-56037508D01*
X91665739Y-56080044D01*
X91713696Y-56108946D01*
X91747180Y-56125910D01*
X91769205Y-56132633D01*
X91782783Y-56130810D01*
X91782869Y-56130764D01*
X91800703Y-56116414D01*
X91835183Y-56084677D01*
X91882732Y-56038990D01*
X91939778Y-55982796D01*
X92002745Y-55919532D01*
X92009773Y-55912398D01*
X92086980Y-55832670D01*
X92143670Y-55771143D01*
X92180890Y-55726579D01*
X92199685Y-55697743D01*
X92202111Y-55685042D01*
X92191529Y-55666506D01*
X92167084Y-55628039D01*
X92131388Y-55573614D01*
X92087053Y-55507202D01*
X92036689Y-55432775D01*
X92024840Y-55415399D01*
X91856374Y-55168703D01*
X91906938Y-55057294D01*
X91936405Y-54989543D01*
X91966041Y-54916817D01*
X91989670Y-54854297D01*
X91990642Y-54851543D01*
X92008543Y-54802640D01*
X92023680Y-54764943D01*
X92032790Y-54746575D01*
X92032816Y-54746544D01*
X92049283Y-54740715D01*
X92089781Y-54730808D01*
X92149758Y-54717805D01*
X92224660Y-54702691D01*
X92309936Y-54686448D01*
X92317125Y-54685119D01*
X92404986Y-54668825D01*
X92484740Y-54653867D01*
X92551319Y-54641209D01*
X92599653Y-54631814D01*
X92624675Y-54626646D01*
X92625057Y-54626556D01*
X92635701Y-54623411D01*
X92643738Y-54617296D01*
X92649533Y-54604547D01*
X92653453Y-54581500D01*
X92655865Y-54544491D01*
X92657135Y-54489856D01*
X92657629Y-54413933D01*
X92657714Y-54313056D01*
X92657714Y-54300000D01*
X92657652Y-54196090D01*
M02*
