G04 #@! TF.FileFunction,Legend,Top*
%FSLAX46Y46*%
G04 Gerber Fmt 4.6, Leading zero omitted, Abs format (unit mm)*
G04 Created by KiCad (PCBNEW 4.0.5+dfsg1-4) date Sun Feb 26 18:39:17 2017*
%MOMM*%
%LPD*%
G01*
G04 APERTURE LIST*
%ADD10C,0.100000*%
%ADD11C,0.150000*%
%ADD12C,0.120000*%
%ADD13C,0.254000*%
%ADD14C,0.304800*%
G04 APERTURE END LIST*
D10*
D11*
X77100000Y-52075000D02*
X76100000Y-52075000D01*
X76100000Y-50725000D02*
X77100000Y-50725000D01*
X72500000Y-51950000D02*
X74400000Y-51950000D01*
X72500000Y-50850000D02*
X74400000Y-50850000D01*
X73400000Y-51400000D02*
X73850000Y-51400000D01*
X73350000Y-51150000D02*
X73350000Y-51650000D01*
X73350000Y-51400000D02*
X73600000Y-51150000D01*
X73600000Y-51150000D02*
X73600000Y-51650000D01*
X73600000Y-51650000D02*
X73350000Y-51400000D01*
X70950000Y-55500000D02*
X70250000Y-55500000D01*
X70250000Y-54300000D02*
X70950000Y-54300000D01*
X66600000Y-69150000D02*
X66600000Y-68450000D01*
X67800000Y-68450000D02*
X67800000Y-69150000D01*
X69250000Y-65200000D02*
X68550000Y-65200000D01*
X68550000Y-64000000D02*
X69250000Y-64000000D01*
X84550000Y-50800000D02*
X85250000Y-50800000D01*
X85250000Y-52000000D02*
X84550000Y-52000000D01*
X87400000Y-53950000D02*
X87400000Y-54650000D01*
X86200000Y-54650000D02*
X86200000Y-53950000D01*
X70950000Y-57300000D02*
X70250000Y-57300000D01*
X70250000Y-56100000D02*
X70950000Y-56100000D01*
X61150000Y-56600000D02*
X60450000Y-56600000D01*
X60450000Y-55400000D02*
X61150000Y-55400000D01*
X63450000Y-65700000D02*
X64150000Y-65700000D01*
X64150000Y-66900000D02*
X63450000Y-66900000D01*
X54650000Y-62500000D02*
X55350000Y-62500000D01*
X55350000Y-63700000D02*
X54650000Y-63700000D01*
X58150000Y-62500000D02*
X58850000Y-62500000D01*
X58850000Y-63700000D02*
X58150000Y-63700000D01*
X67850000Y-57300000D02*
X67150000Y-57300000D01*
X67150000Y-56100000D02*
X67850000Y-56100000D01*
X48782540Y-52549100D02*
X48782540Y-61249100D01*
X55187540Y-52549100D02*
X55187540Y-61249100D01*
X55187540Y-61249100D02*
X48782540Y-61249100D01*
X50012540Y-61249100D02*
X50012540Y-52549100D01*
X48782540Y-52549100D02*
X55187540Y-52549100D01*
X63100000Y-57900000D02*
X70100000Y-57900000D01*
X63100000Y-63100000D02*
X70100000Y-63100000D01*
X70100000Y-63100000D02*
X70100000Y-62100000D01*
X93700000Y-53225000D02*
X92000000Y-53225000D01*
X92000000Y-53225000D02*
X92000000Y-50025000D01*
X92000000Y-50025000D02*
X88100000Y-50025000D01*
X88100000Y-50025000D02*
X88100000Y-66975000D01*
X88100000Y-66975000D02*
X92000000Y-66975000D01*
X92000000Y-66975000D02*
X92000000Y-65975000D01*
X94200000Y-54125000D02*
X94700000Y-53625000D01*
X94700000Y-53625000D02*
X94700000Y-54625000D01*
X94700000Y-54625000D02*
X94200000Y-54125000D01*
X70725000Y-64800000D02*
X70725000Y-63800000D01*
X72075000Y-63800000D02*
X72075000Y-64800000D01*
X56900000Y-56425000D02*
X57900000Y-56425000D01*
X57900000Y-57775000D02*
X56900000Y-57775000D01*
X56900000Y-54625000D02*
X57900000Y-54625000D01*
X57900000Y-55975000D02*
X56900000Y-55975000D01*
X75000000Y-69875000D02*
X74000000Y-69875000D01*
X74000000Y-68525000D02*
X75000000Y-68525000D01*
X75100000Y-67875000D02*
X74100000Y-67875000D01*
X74100000Y-66525000D02*
X75100000Y-66525000D01*
X86900000Y-68375000D02*
X85900000Y-68375000D01*
X85900000Y-67025000D02*
X86900000Y-67025000D01*
X64100000Y-65175000D02*
X63100000Y-65175000D01*
X63100000Y-63825000D02*
X64100000Y-63825000D01*
X68000000Y-55575000D02*
X67000000Y-55575000D01*
X67000000Y-54225000D02*
X68000000Y-54225000D01*
X79600000Y-53181445D02*
X79193414Y-53588031D01*
X86918555Y-60500000D02*
X86441258Y-60977297D01*
X79600000Y-67818555D02*
X80077297Y-67341258D01*
X72281445Y-60500000D02*
X72758742Y-60022703D01*
X79600000Y-53181445D02*
X80077297Y-53658742D01*
X72281445Y-60500000D02*
X72758742Y-60977297D01*
X79600000Y-67818555D02*
X79122703Y-67341258D01*
X86918555Y-60500000D02*
X86441258Y-60022703D01*
X79193414Y-53588031D02*
X78291852Y-52686470D01*
X69100000Y-67200000D02*
X72300000Y-67200000D01*
X72300000Y-67200000D02*
X72300000Y-69800000D01*
X72300000Y-69800000D02*
X69100000Y-69800000D01*
X69100000Y-69800000D02*
X69100000Y-67200000D01*
X83650000Y-70300000D02*
X82950000Y-70300000D01*
X82950000Y-69100000D02*
X83650000Y-69100000D01*
X67550000Y-52500000D02*
X68250000Y-52500000D01*
X68250000Y-53700000D02*
X67550000Y-53700000D01*
X58650000Y-66600000D02*
X59350000Y-66600000D01*
X59350000Y-67800000D02*
X58650000Y-67800000D01*
X58550000Y-64600000D02*
X59250000Y-64600000D01*
X59250000Y-65800000D02*
X58550000Y-65800000D01*
X55850000Y-50800000D02*
X55850000Y-52700000D01*
X56950000Y-50800000D02*
X56950000Y-52700000D01*
X56400000Y-51700000D02*
X56400000Y-52150000D01*
X56650000Y-51650000D02*
X56150000Y-51650000D01*
X56400000Y-51650000D02*
X56650000Y-51900000D01*
X56650000Y-51900000D02*
X56150000Y-51900000D01*
X56150000Y-51900000D02*
X56400000Y-51650000D01*
X86950000Y-69700000D02*
X87200000Y-69700000D01*
X86450000Y-69700000D02*
X86200000Y-69700000D01*
X86450000Y-69700000D02*
X86950000Y-69350000D01*
X86950000Y-69350000D02*
X86950000Y-70050000D01*
X86950000Y-70050000D02*
X86450000Y-69700000D01*
X86450000Y-69350000D02*
X86450000Y-70050000D01*
X85400000Y-70500000D02*
X87800000Y-70500000D01*
X85400000Y-68900000D02*
X87800000Y-68900000D01*
X59600000Y-50625000D02*
X60600000Y-50625000D01*
X60600000Y-51975000D02*
X59600000Y-51975000D01*
X67200000Y-50625000D02*
X68200000Y-50625000D01*
X68200000Y-51975000D02*
X67200000Y-51975000D01*
X52675000Y-65600000D02*
X52675000Y-66600000D01*
X51325000Y-66600000D02*
X51325000Y-65600000D01*
D12*
X63000000Y-53910000D02*
X64800000Y-53910000D01*
X64800000Y-50690000D02*
X62350000Y-50690000D01*
X54300000Y-67810000D02*
X56100000Y-67810000D01*
X56100000Y-64590000D02*
X53650000Y-64590000D01*
D13*
X50400000Y-70700000D02*
X65600000Y-70700000D01*
X65600000Y-68300000D02*
X50400000Y-68300000D01*
X63200000Y-70700000D02*
X63200000Y-68300000D01*
X65600000Y-68300000D02*
X65600000Y-70700000D01*
X50400000Y-70700000D02*
X50400000Y-68300000D01*
D11*
X76333334Y-53352381D02*
X76000000Y-52876190D01*
X75761905Y-53352381D02*
X75761905Y-52352381D01*
X76142858Y-52352381D01*
X76238096Y-52400000D01*
X76285715Y-52447619D01*
X76333334Y-52542857D01*
X76333334Y-52685714D01*
X76285715Y-52780952D01*
X76238096Y-52828571D01*
X76142858Y-52876190D01*
X75761905Y-52876190D01*
X76809524Y-53352381D02*
X77000000Y-53352381D01*
X77095239Y-53304762D01*
X77142858Y-53257143D01*
X77238096Y-53114286D01*
X77285715Y-52923810D01*
X77285715Y-52542857D01*
X77238096Y-52447619D01*
X77190477Y-52400000D01*
X77095239Y-52352381D01*
X76904762Y-52352381D01*
X76809524Y-52400000D01*
X76761905Y-52447619D01*
X76714286Y-52542857D01*
X76714286Y-52780952D01*
X76761905Y-52876190D01*
X76809524Y-52923810D01*
X76904762Y-52971429D01*
X77095239Y-52971429D01*
X77190477Y-52923810D01*
X77238096Y-52876190D01*
X77285715Y-52780952D01*
X72757143Y-55257143D02*
X72709524Y-55304762D01*
X72566667Y-55352381D01*
X72471429Y-55352381D01*
X72328571Y-55304762D01*
X72233333Y-55209524D01*
X72185714Y-55114286D01*
X72138095Y-54923810D01*
X72138095Y-54780952D01*
X72185714Y-54590476D01*
X72233333Y-54495238D01*
X72328571Y-54400000D01*
X72471429Y-54352381D01*
X72566667Y-54352381D01*
X72709524Y-54400000D01*
X72757143Y-54447619D01*
X73709524Y-55352381D02*
X73138095Y-55352381D01*
X73423809Y-55352381D02*
X73423809Y-54352381D01*
X73328571Y-54495238D01*
X73233333Y-54590476D01*
X73138095Y-54638095D01*
X74614286Y-54352381D02*
X74138095Y-54352381D01*
X74090476Y-54828571D01*
X74138095Y-54780952D01*
X74233333Y-54733333D01*
X74471429Y-54733333D01*
X74566667Y-54780952D01*
X74614286Y-54828571D01*
X74661905Y-54923810D01*
X74661905Y-55161905D01*
X74614286Y-55257143D01*
X74566667Y-55304762D01*
X74471429Y-55352381D01*
X74233333Y-55352381D01*
X74138095Y-55304762D01*
X74090476Y-55257143D01*
X67557143Y-66466666D02*
X67604762Y-66514285D01*
X67652381Y-66657142D01*
X67652381Y-66752380D01*
X67604762Y-66895238D01*
X67509524Y-66990476D01*
X67414286Y-67038095D01*
X67223810Y-67085714D01*
X67080952Y-67085714D01*
X66890476Y-67038095D01*
X66795238Y-66990476D01*
X66700000Y-66895238D01*
X66652381Y-66752380D01*
X66652381Y-66657142D01*
X66700000Y-66514285D01*
X66747619Y-66466666D01*
X67652381Y-65514285D02*
X67652381Y-66085714D01*
X67652381Y-65800000D02*
X66652381Y-65800000D01*
X66795238Y-65895238D01*
X66890476Y-65990476D01*
X66938095Y-66085714D01*
X68733334Y-66457143D02*
X68685715Y-66504762D01*
X68542858Y-66552381D01*
X68447620Y-66552381D01*
X68304762Y-66504762D01*
X68209524Y-66409524D01*
X68161905Y-66314286D01*
X68114286Y-66123810D01*
X68114286Y-65980952D01*
X68161905Y-65790476D01*
X68209524Y-65695238D01*
X68304762Y-65600000D01*
X68447620Y-65552381D01*
X68542858Y-65552381D01*
X68685715Y-65600000D01*
X68733334Y-65647619D01*
X69114286Y-65647619D02*
X69161905Y-65600000D01*
X69257143Y-65552381D01*
X69495239Y-65552381D01*
X69590477Y-65600000D01*
X69638096Y-65647619D01*
X69685715Y-65742857D01*
X69685715Y-65838095D01*
X69638096Y-65980952D01*
X69066667Y-66552381D01*
X69685715Y-66552381D01*
X84633334Y-53257143D02*
X84585715Y-53304762D01*
X84442858Y-53352381D01*
X84347620Y-53352381D01*
X84204762Y-53304762D01*
X84109524Y-53209524D01*
X84061905Y-53114286D01*
X84014286Y-52923810D01*
X84014286Y-52780952D01*
X84061905Y-52590476D01*
X84109524Y-52495238D01*
X84204762Y-52400000D01*
X84347620Y-52352381D01*
X84442858Y-52352381D01*
X84585715Y-52400000D01*
X84633334Y-52447619D01*
X85490477Y-52685714D02*
X85490477Y-53352381D01*
X85252381Y-52304762D02*
X85014286Y-53019048D01*
X85633334Y-53019048D01*
X85757143Y-54566666D02*
X85804762Y-54614285D01*
X85852381Y-54757142D01*
X85852381Y-54852380D01*
X85804762Y-54995238D01*
X85709524Y-55090476D01*
X85614286Y-55138095D01*
X85423810Y-55185714D01*
X85280952Y-55185714D01*
X85090476Y-55138095D01*
X84995238Y-55090476D01*
X84900000Y-54995238D01*
X84852381Y-54852380D01*
X84852381Y-54757142D01*
X84900000Y-54614285D01*
X84947619Y-54566666D01*
X84852381Y-53709523D02*
X84852381Y-53900000D01*
X84900000Y-53995238D01*
X84947619Y-54042857D01*
X85090476Y-54138095D01*
X85280952Y-54185714D01*
X85661905Y-54185714D01*
X85757143Y-54138095D01*
X85804762Y-54090476D01*
X85852381Y-53995238D01*
X85852381Y-53804761D01*
X85804762Y-53709523D01*
X85757143Y-53661904D01*
X85661905Y-53614285D01*
X85423810Y-53614285D01*
X85328571Y-53661904D01*
X85280952Y-53709523D01*
X85233333Y-53804761D01*
X85233333Y-53995238D01*
X85280952Y-54090476D01*
X85328571Y-54138095D01*
X85423810Y-54185714D01*
X72783334Y-57057143D02*
X72735715Y-57104762D01*
X72592858Y-57152381D01*
X72497620Y-57152381D01*
X72354762Y-57104762D01*
X72259524Y-57009524D01*
X72211905Y-56914286D01*
X72164286Y-56723810D01*
X72164286Y-56580952D01*
X72211905Y-56390476D01*
X72259524Y-56295238D01*
X72354762Y-56200000D01*
X72497620Y-56152381D01*
X72592858Y-56152381D01*
X72735715Y-56200000D01*
X72783334Y-56247619D01*
X73259524Y-57152381D02*
X73450000Y-57152381D01*
X73545239Y-57104762D01*
X73592858Y-57057143D01*
X73688096Y-56914286D01*
X73735715Y-56723810D01*
X73735715Y-56342857D01*
X73688096Y-56247619D01*
X73640477Y-56200000D01*
X73545239Y-56152381D01*
X73354762Y-56152381D01*
X73259524Y-56200000D01*
X73211905Y-56247619D01*
X73164286Y-56342857D01*
X73164286Y-56580952D01*
X73211905Y-56676190D01*
X73259524Y-56723810D01*
X73354762Y-56771429D01*
X73545239Y-56771429D01*
X73640477Y-56723810D01*
X73688096Y-56676190D01*
X73735715Y-56580952D01*
X60157143Y-57857143D02*
X60109524Y-57904762D01*
X59966667Y-57952381D01*
X59871429Y-57952381D01*
X59728571Y-57904762D01*
X59633333Y-57809524D01*
X59585714Y-57714286D01*
X59538095Y-57523810D01*
X59538095Y-57380952D01*
X59585714Y-57190476D01*
X59633333Y-57095238D01*
X59728571Y-57000000D01*
X59871429Y-56952381D01*
X59966667Y-56952381D01*
X60109524Y-57000000D01*
X60157143Y-57047619D01*
X61109524Y-57952381D02*
X60538095Y-57952381D01*
X60823809Y-57952381D02*
X60823809Y-56952381D01*
X60728571Y-57095238D01*
X60633333Y-57190476D01*
X60538095Y-57238095D01*
X61728571Y-56952381D02*
X61823810Y-56952381D01*
X61919048Y-57000000D01*
X61966667Y-57047619D01*
X62014286Y-57142857D01*
X62061905Y-57333333D01*
X62061905Y-57571429D01*
X62014286Y-57761905D01*
X61966667Y-57857143D01*
X61919048Y-57904762D01*
X61823810Y-57952381D01*
X61728571Y-57952381D01*
X61633333Y-57904762D01*
X61585714Y-57857143D01*
X61538095Y-57761905D01*
X61490476Y-57571429D01*
X61490476Y-57333333D01*
X61538095Y-57142857D01*
X61585714Y-57047619D01*
X61633333Y-57000000D01*
X61728571Y-56952381D01*
X62957143Y-67957143D02*
X62909524Y-68004762D01*
X62766667Y-68052381D01*
X62671429Y-68052381D01*
X62528571Y-68004762D01*
X62433333Y-67909524D01*
X62385714Y-67814286D01*
X62338095Y-67623810D01*
X62338095Y-67480952D01*
X62385714Y-67290476D01*
X62433333Y-67195238D01*
X62528571Y-67100000D01*
X62671429Y-67052381D01*
X62766667Y-67052381D01*
X62909524Y-67100000D01*
X62957143Y-67147619D01*
X63909524Y-68052381D02*
X63338095Y-68052381D01*
X63623809Y-68052381D02*
X63623809Y-67052381D01*
X63528571Y-67195238D01*
X63433333Y-67290476D01*
X63338095Y-67338095D01*
X64861905Y-68052381D02*
X64290476Y-68052381D01*
X64576190Y-68052381D02*
X64576190Y-67052381D01*
X64480952Y-67195238D01*
X64385714Y-67290476D01*
X64290476Y-67338095D01*
X51357143Y-62657143D02*
X51309524Y-62704762D01*
X51166667Y-62752381D01*
X51071429Y-62752381D01*
X50928571Y-62704762D01*
X50833333Y-62609524D01*
X50785714Y-62514286D01*
X50738095Y-62323810D01*
X50738095Y-62180952D01*
X50785714Y-61990476D01*
X50833333Y-61895238D01*
X50928571Y-61800000D01*
X51071429Y-61752381D01*
X51166667Y-61752381D01*
X51309524Y-61800000D01*
X51357143Y-61847619D01*
X52309524Y-62752381D02*
X51738095Y-62752381D01*
X52023809Y-62752381D02*
X52023809Y-61752381D01*
X51928571Y-61895238D01*
X51833333Y-61990476D01*
X51738095Y-62038095D01*
X52690476Y-61847619D02*
X52738095Y-61800000D01*
X52833333Y-61752381D01*
X53071429Y-61752381D01*
X53166667Y-61800000D01*
X53214286Y-61847619D01*
X53261905Y-61942857D01*
X53261905Y-62038095D01*
X53214286Y-62180952D01*
X52642857Y-62752381D01*
X53261905Y-62752381D01*
X60657143Y-63457143D02*
X60609524Y-63504762D01*
X60466667Y-63552381D01*
X60371429Y-63552381D01*
X60228571Y-63504762D01*
X60133333Y-63409524D01*
X60085714Y-63314286D01*
X60038095Y-63123810D01*
X60038095Y-62980952D01*
X60085714Y-62790476D01*
X60133333Y-62695238D01*
X60228571Y-62600000D01*
X60371429Y-62552381D01*
X60466667Y-62552381D01*
X60609524Y-62600000D01*
X60657143Y-62647619D01*
X61609524Y-63552381D02*
X61038095Y-63552381D01*
X61323809Y-63552381D02*
X61323809Y-62552381D01*
X61228571Y-62695238D01*
X61133333Y-62790476D01*
X61038095Y-62838095D01*
X61942857Y-62552381D02*
X62561905Y-62552381D01*
X62228571Y-62933333D01*
X62371429Y-62933333D01*
X62466667Y-62980952D01*
X62514286Y-63028571D01*
X62561905Y-63123810D01*
X62561905Y-63361905D01*
X62514286Y-63457143D01*
X62466667Y-63504762D01*
X62371429Y-63552381D01*
X62085714Y-63552381D01*
X61990476Y-63504762D01*
X61942857Y-63457143D01*
X63857143Y-57057143D02*
X63809524Y-57104762D01*
X63666667Y-57152381D01*
X63571429Y-57152381D01*
X63428571Y-57104762D01*
X63333333Y-57009524D01*
X63285714Y-56914286D01*
X63238095Y-56723810D01*
X63238095Y-56580952D01*
X63285714Y-56390476D01*
X63333333Y-56295238D01*
X63428571Y-56200000D01*
X63571429Y-56152381D01*
X63666667Y-56152381D01*
X63809524Y-56200000D01*
X63857143Y-56247619D01*
X64809524Y-57152381D02*
X64238095Y-57152381D01*
X64523809Y-57152381D02*
X64523809Y-56152381D01*
X64428571Y-56295238D01*
X64333333Y-56390476D01*
X64238095Y-56438095D01*
X65666667Y-56485714D02*
X65666667Y-57152381D01*
X65428571Y-56104762D02*
X65190476Y-56819048D01*
X65809524Y-56819048D01*
X71652381Y-62166666D02*
X71176190Y-62500000D01*
X71652381Y-62738095D02*
X70652381Y-62738095D01*
X70652381Y-62357142D01*
X70700000Y-62261904D01*
X70747619Y-62214285D01*
X70842857Y-62166666D01*
X70985714Y-62166666D01*
X71080952Y-62214285D01*
X71128571Y-62261904D01*
X71176190Y-62357142D01*
X71176190Y-62738095D01*
X71652381Y-61214285D02*
X71652381Y-61785714D01*
X71652381Y-61500000D02*
X70652381Y-61500000D01*
X70795238Y-61595238D01*
X70890476Y-61690476D01*
X70938095Y-61785714D01*
X57233334Y-59102381D02*
X56900000Y-58626190D01*
X56661905Y-59102381D02*
X56661905Y-58102381D01*
X57042858Y-58102381D01*
X57138096Y-58150000D01*
X57185715Y-58197619D01*
X57233334Y-58292857D01*
X57233334Y-58435714D01*
X57185715Y-58530952D01*
X57138096Y-58578571D01*
X57042858Y-58626190D01*
X56661905Y-58626190D01*
X57614286Y-58197619D02*
X57661905Y-58150000D01*
X57757143Y-58102381D01*
X57995239Y-58102381D01*
X58090477Y-58150000D01*
X58138096Y-58197619D01*
X58185715Y-58292857D01*
X58185715Y-58388095D01*
X58138096Y-58530952D01*
X57566667Y-59102381D01*
X58185715Y-59102381D01*
X57833334Y-54252381D02*
X57500000Y-53776190D01*
X57261905Y-54252381D02*
X57261905Y-53252381D01*
X57642858Y-53252381D01*
X57738096Y-53300000D01*
X57785715Y-53347619D01*
X57833334Y-53442857D01*
X57833334Y-53585714D01*
X57785715Y-53680952D01*
X57738096Y-53728571D01*
X57642858Y-53776190D01*
X57261905Y-53776190D01*
X58166667Y-53252381D02*
X58785715Y-53252381D01*
X58452381Y-53633333D01*
X58595239Y-53633333D01*
X58690477Y-53680952D01*
X58738096Y-53728571D01*
X58785715Y-53823810D01*
X58785715Y-54061905D01*
X58738096Y-54157143D01*
X58690477Y-54204762D01*
X58595239Y-54252381D01*
X58309524Y-54252381D01*
X58214286Y-54204762D01*
X58166667Y-54157143D01*
X76533334Y-69652381D02*
X76200000Y-69176190D01*
X75961905Y-69652381D02*
X75961905Y-68652381D01*
X76342858Y-68652381D01*
X76438096Y-68700000D01*
X76485715Y-68747619D01*
X76533334Y-68842857D01*
X76533334Y-68985714D01*
X76485715Y-69080952D01*
X76438096Y-69128571D01*
X76342858Y-69176190D01*
X75961905Y-69176190D01*
X77438096Y-68652381D02*
X76961905Y-68652381D01*
X76914286Y-69128571D01*
X76961905Y-69080952D01*
X77057143Y-69033333D01*
X77295239Y-69033333D01*
X77390477Y-69080952D01*
X77438096Y-69128571D01*
X77485715Y-69223810D01*
X77485715Y-69461905D01*
X77438096Y-69557143D01*
X77390477Y-69604762D01*
X77295239Y-69652381D01*
X77057143Y-69652381D01*
X76961905Y-69604762D01*
X76914286Y-69557143D01*
X73933334Y-66052381D02*
X73600000Y-65576190D01*
X73361905Y-66052381D02*
X73361905Y-65052381D01*
X73742858Y-65052381D01*
X73838096Y-65100000D01*
X73885715Y-65147619D01*
X73933334Y-65242857D01*
X73933334Y-65385714D01*
X73885715Y-65480952D01*
X73838096Y-65528571D01*
X73742858Y-65576190D01*
X73361905Y-65576190D01*
X74790477Y-65052381D02*
X74600000Y-65052381D01*
X74504762Y-65100000D01*
X74457143Y-65147619D01*
X74361905Y-65290476D01*
X74314286Y-65480952D01*
X74314286Y-65861905D01*
X74361905Y-65957143D01*
X74409524Y-66004762D01*
X74504762Y-66052381D01*
X74695239Y-66052381D01*
X74790477Y-66004762D01*
X74838096Y-65957143D01*
X74885715Y-65861905D01*
X74885715Y-65623810D01*
X74838096Y-65528571D01*
X74790477Y-65480952D01*
X74695239Y-65433333D01*
X74504762Y-65433333D01*
X74409524Y-65480952D01*
X74361905Y-65528571D01*
X74314286Y-65623810D01*
X85707143Y-66802381D02*
X85373809Y-66326190D01*
X85135714Y-66802381D02*
X85135714Y-65802381D01*
X85516667Y-65802381D01*
X85611905Y-65850000D01*
X85659524Y-65897619D01*
X85707143Y-65992857D01*
X85707143Y-66135714D01*
X85659524Y-66230952D01*
X85611905Y-66278571D01*
X85516667Y-66326190D01*
X85135714Y-66326190D01*
X86659524Y-66802381D02*
X86088095Y-66802381D01*
X86373809Y-66802381D02*
X86373809Y-65802381D01*
X86278571Y-65945238D01*
X86183333Y-66040476D01*
X86088095Y-66088095D01*
X87611905Y-66802381D02*
X87040476Y-66802381D01*
X87326190Y-66802381D02*
X87326190Y-65802381D01*
X87230952Y-65945238D01*
X87135714Y-66040476D01*
X87040476Y-66088095D01*
X65557143Y-65052381D02*
X65223809Y-64576190D01*
X64985714Y-65052381D02*
X64985714Y-64052381D01*
X65366667Y-64052381D01*
X65461905Y-64100000D01*
X65509524Y-64147619D01*
X65557143Y-64242857D01*
X65557143Y-64385714D01*
X65509524Y-64480952D01*
X65461905Y-64528571D01*
X65366667Y-64576190D01*
X64985714Y-64576190D01*
X66509524Y-65052381D02*
X65938095Y-65052381D01*
X66223809Y-65052381D02*
X66223809Y-64052381D01*
X66128571Y-64195238D01*
X66033333Y-64290476D01*
X65938095Y-64338095D01*
X66890476Y-64147619D02*
X66938095Y-64100000D01*
X67033333Y-64052381D01*
X67271429Y-64052381D01*
X67366667Y-64100000D01*
X67414286Y-64147619D01*
X67461905Y-64242857D01*
X67461905Y-64338095D01*
X67414286Y-64480952D01*
X66842857Y-65052381D01*
X67461905Y-65052381D01*
X64057143Y-55352381D02*
X63723809Y-54876190D01*
X63485714Y-55352381D02*
X63485714Y-54352381D01*
X63866667Y-54352381D01*
X63961905Y-54400000D01*
X64009524Y-54447619D01*
X64057143Y-54542857D01*
X64057143Y-54685714D01*
X64009524Y-54780952D01*
X63961905Y-54828571D01*
X63866667Y-54876190D01*
X63485714Y-54876190D01*
X65009524Y-55352381D02*
X64438095Y-55352381D01*
X64723809Y-55352381D02*
X64723809Y-54352381D01*
X64628571Y-54495238D01*
X64533333Y-54590476D01*
X64438095Y-54638095D01*
X65342857Y-54352381D02*
X65961905Y-54352381D01*
X65628571Y-54733333D01*
X65771429Y-54733333D01*
X65866667Y-54780952D01*
X65914286Y-54828571D01*
X65961905Y-54923810D01*
X65961905Y-55161905D01*
X65914286Y-55257143D01*
X65866667Y-55304762D01*
X65771429Y-55352381D01*
X65485714Y-55352381D01*
X65390476Y-55304762D01*
X65342857Y-55257143D01*
X70773809Y-66226190D02*
X70773809Y-66702381D01*
X70440476Y-65702381D02*
X70773809Y-66226190D01*
X71107143Y-65702381D01*
X71964286Y-66702381D02*
X71392857Y-66702381D01*
X71678571Y-66702381D02*
X71678571Y-65702381D01*
X71583333Y-65845238D01*
X71488095Y-65940476D01*
X71392857Y-65988095D01*
X83133334Y-68657143D02*
X83085715Y-68704762D01*
X82942858Y-68752381D01*
X82847620Y-68752381D01*
X82704762Y-68704762D01*
X82609524Y-68609524D01*
X82561905Y-68514286D01*
X82514286Y-68323810D01*
X82514286Y-68180952D01*
X82561905Y-67990476D01*
X82609524Y-67895238D01*
X82704762Y-67800000D01*
X82847620Y-67752381D01*
X82942858Y-67752381D01*
X83085715Y-67800000D01*
X83133334Y-67847619D01*
X83466667Y-67752381D02*
X84085715Y-67752381D01*
X83752381Y-68133333D01*
X83895239Y-68133333D01*
X83990477Y-68180952D01*
X84038096Y-68228571D01*
X84085715Y-68323810D01*
X84085715Y-68561905D01*
X84038096Y-68657143D01*
X83990477Y-68704762D01*
X83895239Y-68752381D01*
X83609524Y-68752381D01*
X83514286Y-68704762D01*
X83466667Y-68657143D01*
X70233334Y-53457143D02*
X70185715Y-53504762D01*
X70042858Y-53552381D01*
X69947620Y-53552381D01*
X69804762Y-53504762D01*
X69709524Y-53409524D01*
X69661905Y-53314286D01*
X69614286Y-53123810D01*
X69614286Y-52980952D01*
X69661905Y-52790476D01*
X69709524Y-52695238D01*
X69804762Y-52600000D01*
X69947620Y-52552381D01*
X70042858Y-52552381D01*
X70185715Y-52600000D01*
X70233334Y-52647619D01*
X71138096Y-52552381D02*
X70661905Y-52552381D01*
X70614286Y-53028571D01*
X70661905Y-52980952D01*
X70757143Y-52933333D01*
X70995239Y-52933333D01*
X71090477Y-52980952D01*
X71138096Y-53028571D01*
X71185715Y-53123810D01*
X71185715Y-53361905D01*
X71138096Y-53457143D01*
X71090477Y-53504762D01*
X70995239Y-53552381D01*
X70757143Y-53552381D01*
X70661905Y-53504762D01*
X70614286Y-53457143D01*
X61233334Y-67557143D02*
X61185715Y-67604762D01*
X61042858Y-67652381D01*
X60947620Y-67652381D01*
X60804762Y-67604762D01*
X60709524Y-67509524D01*
X60661905Y-67414286D01*
X60614286Y-67223810D01*
X60614286Y-67080952D01*
X60661905Y-66890476D01*
X60709524Y-66795238D01*
X60804762Y-66700000D01*
X60947620Y-66652381D01*
X61042858Y-66652381D01*
X61185715Y-66700000D01*
X61233334Y-66747619D01*
X61566667Y-66652381D02*
X62233334Y-66652381D01*
X61804762Y-67652381D01*
X61133334Y-65557143D02*
X61085715Y-65604762D01*
X60942858Y-65652381D01*
X60847620Y-65652381D01*
X60704762Y-65604762D01*
X60609524Y-65509524D01*
X60561905Y-65414286D01*
X60514286Y-65223810D01*
X60514286Y-65080952D01*
X60561905Y-64890476D01*
X60609524Y-64795238D01*
X60704762Y-64700000D01*
X60847620Y-64652381D01*
X60942858Y-64652381D01*
X61085715Y-64700000D01*
X61133334Y-64747619D01*
X61704762Y-65080952D02*
X61609524Y-65033333D01*
X61561905Y-64985714D01*
X61514286Y-64890476D01*
X61514286Y-64842857D01*
X61561905Y-64747619D01*
X61609524Y-64700000D01*
X61704762Y-64652381D01*
X61895239Y-64652381D01*
X61990477Y-64700000D01*
X62038096Y-64747619D01*
X62085715Y-64842857D01*
X62085715Y-64890476D01*
X62038096Y-64985714D01*
X61990477Y-65033333D01*
X61895239Y-65080952D01*
X61704762Y-65080952D01*
X61609524Y-65128571D01*
X61561905Y-65176190D01*
X61514286Y-65271429D01*
X61514286Y-65461905D01*
X61561905Y-65557143D01*
X61609524Y-65604762D01*
X61704762Y-65652381D01*
X61895239Y-65652381D01*
X61990477Y-65604762D01*
X62038096Y-65557143D01*
X62085715Y-65461905D01*
X62085715Y-65271429D01*
X62038096Y-65176190D01*
X61990477Y-65128571D01*
X61895239Y-65080952D01*
X58352381Y-52638095D02*
X57352381Y-52638095D01*
X57352381Y-52400000D01*
X57400000Y-52257142D01*
X57495238Y-52161904D01*
X57590476Y-52114285D01*
X57780952Y-52066666D01*
X57923810Y-52066666D01*
X58114286Y-52114285D01*
X58209524Y-52161904D01*
X58304762Y-52257142D01*
X58352381Y-52400000D01*
X58352381Y-52638095D01*
X58352381Y-51114285D02*
X58352381Y-51685714D01*
X58352381Y-51400000D02*
X57352381Y-51400000D01*
X57495238Y-51495238D01*
X57590476Y-51590476D01*
X57638095Y-51685714D01*
X88161905Y-68852381D02*
X88161905Y-67852381D01*
X88400000Y-67852381D01*
X88542858Y-67900000D01*
X88638096Y-67995238D01*
X88685715Y-68090476D01*
X88733334Y-68280952D01*
X88733334Y-68423810D01*
X88685715Y-68614286D01*
X88638096Y-68709524D01*
X88542858Y-68804762D01*
X88400000Y-68852381D01*
X88161905Y-68852381D01*
X89114286Y-67947619D02*
X89161905Y-67900000D01*
X89257143Y-67852381D01*
X89495239Y-67852381D01*
X89590477Y-67900000D01*
X89638096Y-67947619D01*
X89685715Y-68042857D01*
X89685715Y-68138095D01*
X89638096Y-68280952D01*
X89066667Y-68852381D01*
X89685715Y-68852381D01*
X95352381Y-69938095D02*
X94352381Y-69938095D01*
X94352381Y-69557142D01*
X94400000Y-69461904D01*
X94447619Y-69414285D01*
X94542857Y-69366666D01*
X94685714Y-69366666D01*
X94780952Y-69414285D01*
X94828571Y-69461904D01*
X94876190Y-69557142D01*
X94876190Y-69938095D01*
X94352381Y-69033333D02*
X94352381Y-68414285D01*
X94733333Y-68747619D01*
X94733333Y-68604761D01*
X94780952Y-68509523D01*
X94828571Y-68461904D01*
X94923810Y-68414285D01*
X95161905Y-68414285D01*
X95257143Y-68461904D01*
X95304762Y-68509523D01*
X95352381Y-68604761D01*
X95352381Y-68890476D01*
X95304762Y-68985714D01*
X95257143Y-69033333D01*
X89871429Y-68680952D02*
X89871429Y-67919047D01*
X89771429Y-70480952D02*
X89771429Y-69719047D01*
X90152381Y-70099999D02*
X89390476Y-70099999D01*
X59933334Y-53652381D02*
X59600000Y-53176190D01*
X59361905Y-53652381D02*
X59361905Y-52652381D01*
X59742858Y-52652381D01*
X59838096Y-52700000D01*
X59885715Y-52747619D01*
X59933334Y-52842857D01*
X59933334Y-52985714D01*
X59885715Y-53080952D01*
X59838096Y-53128571D01*
X59742858Y-53176190D01*
X59361905Y-53176190D01*
X60790477Y-52985714D02*
X60790477Y-53652381D01*
X60552381Y-52604762D02*
X60314286Y-53319048D01*
X60933334Y-53319048D01*
X69833334Y-51652381D02*
X69500000Y-51176190D01*
X69261905Y-51652381D02*
X69261905Y-50652381D01*
X69642858Y-50652381D01*
X69738096Y-50700000D01*
X69785715Y-50747619D01*
X69833334Y-50842857D01*
X69833334Y-50985714D01*
X69785715Y-51080952D01*
X69738096Y-51128571D01*
X69642858Y-51176190D01*
X69261905Y-51176190D01*
X70166667Y-50652381D02*
X70833334Y-50652381D01*
X70404762Y-51652381D01*
X51152381Y-66266666D02*
X50676190Y-66600000D01*
X51152381Y-66838095D02*
X50152381Y-66838095D01*
X50152381Y-66457142D01*
X50200000Y-66361904D01*
X50247619Y-66314285D01*
X50342857Y-66266666D01*
X50485714Y-66266666D01*
X50580952Y-66314285D01*
X50628571Y-66361904D01*
X50676190Y-66457142D01*
X50676190Y-66838095D01*
X50580952Y-65695238D02*
X50533333Y-65790476D01*
X50485714Y-65838095D01*
X50390476Y-65885714D01*
X50342857Y-65885714D01*
X50247619Y-65838095D01*
X50200000Y-65790476D01*
X50152381Y-65695238D01*
X50152381Y-65504761D01*
X50200000Y-65409523D01*
X50247619Y-65361904D01*
X50342857Y-65314285D01*
X50390476Y-65314285D01*
X50485714Y-65361904D01*
X50533333Y-65409523D01*
X50580952Y-65504761D01*
X50580952Y-65695238D01*
X50628571Y-65790476D01*
X50676190Y-65838095D01*
X50771429Y-65885714D01*
X50961905Y-65885714D01*
X51057143Y-65838095D01*
X51104762Y-65790476D01*
X51152381Y-65695238D01*
X51152381Y-65504761D01*
X51104762Y-65409523D01*
X51057143Y-65361904D01*
X50961905Y-65314285D01*
X50771429Y-65314285D01*
X50676190Y-65361904D01*
X50628571Y-65409523D01*
X50580952Y-65504761D01*
X60638095Y-53952381D02*
X60638095Y-54761905D01*
X60685714Y-54857143D01*
X60733333Y-54904762D01*
X60828571Y-54952381D01*
X61019048Y-54952381D01*
X61114286Y-54904762D01*
X61161905Y-54857143D01*
X61209524Y-54761905D01*
X61209524Y-53952381D01*
X61638095Y-54047619D02*
X61685714Y-54000000D01*
X61780952Y-53952381D01*
X62019048Y-53952381D01*
X62114286Y-54000000D01*
X62161905Y-54047619D01*
X62209524Y-54142857D01*
X62209524Y-54238095D01*
X62161905Y-54380952D01*
X61590476Y-54952381D01*
X62209524Y-54952381D01*
X51438095Y-63352381D02*
X51438095Y-64161905D01*
X51485714Y-64257143D01*
X51533333Y-64304762D01*
X51628571Y-64352381D01*
X51819048Y-64352381D01*
X51914286Y-64304762D01*
X51961905Y-64257143D01*
X52009524Y-64161905D01*
X52009524Y-63352381D01*
X52914286Y-63685714D02*
X52914286Y-64352381D01*
X52676190Y-63304762D02*
X52438095Y-64019048D01*
X53057143Y-64019048D01*
D14*
X56875143Y-72729429D02*
X56875143Y-71205429D01*
X57455715Y-71205429D01*
X57600857Y-71278000D01*
X57673429Y-71350571D01*
X57746000Y-71495714D01*
X57746000Y-71713429D01*
X57673429Y-71858571D01*
X57600857Y-71931143D01*
X57455715Y-72003714D01*
X56875143Y-72003714D01*
X59052286Y-71713429D02*
X59052286Y-72729429D01*
X58689429Y-71132857D02*
X58326572Y-72221429D01*
X59270000Y-72221429D01*
M02*
