G04 #@! TF.FileFunction,Legend,Bot*
%FSLAX46Y46*%
G04 Gerber Fmt 4.6, Leading zero omitted, Abs format (unit mm)*
G04 Created by KiCad (PCBNEW 4.0.5+dfsg1-4) date Sun Feb 26 18:39:17 2017*
%MOMM*%
%LPD*%
G01*
G04 APERTURE LIST*
%ADD10C,0.100000*%
%ADD11C,0.150000*%
G04 APERTURE END LIST*
D10*
D11*
X61252381Y-51866667D02*
X60776190Y-51866667D01*
X61347619Y-52152381D02*
X61014286Y-51152381D01*
X60680952Y-52152381D01*
X60347619Y-52152381D02*
X60347619Y-51485714D01*
X60347619Y-51152381D02*
X60395238Y-51200000D01*
X60347619Y-51247619D01*
X60300000Y-51200000D01*
X60347619Y-51152381D01*
X60347619Y-51247619D01*
X59871429Y-52152381D02*
X59871429Y-51485714D01*
X59871429Y-51676190D02*
X59823810Y-51580952D01*
X59776191Y-51533333D01*
X59680953Y-51485714D01*
X59585714Y-51485714D01*
X58919047Y-51628571D02*
X58776190Y-51676190D01*
X58728571Y-51723810D01*
X58680952Y-51819048D01*
X58680952Y-51961905D01*
X58728571Y-52057143D01*
X58776190Y-52104762D01*
X58871428Y-52152381D01*
X59252381Y-52152381D01*
X59252381Y-51152381D01*
X58919047Y-51152381D01*
X58823809Y-51200000D01*
X58776190Y-51247619D01*
X58728571Y-51342857D01*
X58728571Y-51438095D01*
X58776190Y-51533333D01*
X58823809Y-51580952D01*
X58919047Y-51628571D01*
X59252381Y-51628571D01*
X58109524Y-52152381D02*
X58204762Y-52104762D01*
X58252381Y-52057143D01*
X58300000Y-51961905D01*
X58300000Y-51676190D01*
X58252381Y-51580952D01*
X58204762Y-51533333D01*
X58109524Y-51485714D01*
X57966666Y-51485714D01*
X57871428Y-51533333D01*
X57823809Y-51580952D01*
X57776190Y-51676190D01*
X57776190Y-51961905D01*
X57823809Y-52057143D01*
X57871428Y-52104762D01*
X57966666Y-52152381D01*
X58109524Y-52152381D01*
X57442857Y-52152381D02*
X56919047Y-51485714D01*
X57442857Y-51485714D02*
X56919047Y-52152381D01*
X56538095Y-51485714D02*
X56538095Y-52152381D01*
X56538095Y-51580952D02*
X56490476Y-51533333D01*
X56395238Y-51485714D01*
X56252380Y-51485714D01*
X56157142Y-51533333D01*
X56109523Y-51628571D01*
X56109523Y-52152381D01*
X55204761Y-52152381D02*
X55204761Y-51628571D01*
X55252380Y-51533333D01*
X55347618Y-51485714D01*
X55538095Y-51485714D01*
X55633333Y-51533333D01*
X55204761Y-52104762D02*
X55299999Y-52152381D01*
X55538095Y-52152381D01*
X55633333Y-52104762D01*
X55680952Y-52009524D01*
X55680952Y-51914286D01*
X55633333Y-51819048D01*
X55538095Y-51771429D01*
X55299999Y-51771429D01*
X55204761Y-51723810D01*
X54728571Y-51485714D02*
X54728571Y-52152381D01*
X54728571Y-51580952D02*
X54680952Y-51533333D01*
X54585714Y-51485714D01*
X54442856Y-51485714D01*
X54347618Y-51533333D01*
X54299999Y-51628571D01*
X54299999Y-52152381D01*
X53680952Y-52152381D02*
X53776190Y-52104762D01*
X53823809Y-52057143D01*
X53871428Y-51961905D01*
X53871428Y-51676190D01*
X53823809Y-51580952D01*
X53776190Y-51533333D01*
X53680952Y-51485714D01*
X53538094Y-51485714D01*
X53442856Y-51533333D01*
X53395237Y-51580952D01*
X53347618Y-51676190D01*
X53347618Y-51961905D01*
X53395237Y-52057143D01*
X53442856Y-52104762D01*
X53538094Y-52152381D01*
X53680952Y-52152381D01*
X92728571Y-51585714D02*
X92490476Y-52252381D01*
X92252380Y-51585714D01*
X91680952Y-51252381D02*
X91585713Y-51252381D01*
X91490475Y-51300000D01*
X91442856Y-51347619D01*
X91395237Y-51442857D01*
X91347618Y-51633333D01*
X91347618Y-51871429D01*
X91395237Y-52061905D01*
X91442856Y-52157143D01*
X91490475Y-52204762D01*
X91585713Y-52252381D01*
X91680952Y-52252381D01*
X91776190Y-52204762D01*
X91823809Y-52157143D01*
X91871428Y-52061905D01*
X91919047Y-51871429D01*
X91919047Y-51633333D01*
X91871428Y-51442857D01*
X91823809Y-51347619D01*
X91776190Y-51300000D01*
X91680952Y-51252381D01*
X90919047Y-52157143D02*
X90871428Y-52204762D01*
X90919047Y-52252381D01*
X90966666Y-52204762D01*
X90919047Y-52157143D01*
X90919047Y-52252381D01*
X90490476Y-51347619D02*
X90442857Y-51300000D01*
X90347619Y-51252381D01*
X90109523Y-51252381D01*
X90014285Y-51300000D01*
X89966666Y-51347619D01*
X89919047Y-51442857D01*
X89919047Y-51538095D01*
X89966666Y-51680952D01*
X90538095Y-52252381D01*
X89919047Y-52252381D01*
X66171428Y-68252381D02*
X66171428Y-67252381D01*
X65838094Y-67966667D01*
X65504761Y-67252381D01*
X65504761Y-68252381D01*
X65028571Y-68252381D02*
X65028571Y-67252381D01*
X64600000Y-68204762D02*
X64457143Y-68252381D01*
X64219047Y-68252381D01*
X64123809Y-68204762D01*
X64076190Y-68157143D01*
X64028571Y-68061905D01*
X64028571Y-67966667D01*
X64076190Y-67871429D01*
X64123809Y-67823810D01*
X64219047Y-67776190D01*
X64409524Y-67728571D01*
X64504762Y-67680952D01*
X64552381Y-67633333D01*
X64600000Y-67538095D01*
X64600000Y-67442857D01*
X64552381Y-67347619D01*
X64504762Y-67300000D01*
X64409524Y-67252381D01*
X64171428Y-67252381D01*
X64028571Y-67300000D01*
X63409524Y-67252381D02*
X63219047Y-67252381D01*
X63123809Y-67300000D01*
X63028571Y-67395238D01*
X62980952Y-67585714D01*
X62980952Y-67919048D01*
X63028571Y-68109524D01*
X63123809Y-68204762D01*
X63219047Y-68252381D01*
X63409524Y-68252381D01*
X63504762Y-68204762D01*
X63600000Y-68109524D01*
X63647619Y-67919048D01*
X63647619Y-67585714D01*
X63600000Y-67395238D01*
X63504762Y-67300000D01*
X63409524Y-67252381D01*
X62133333Y-67352381D02*
X61800000Y-68352381D01*
X61466666Y-67352381D01*
X59485714Y-68304762D02*
X59342857Y-68352381D01*
X59104761Y-68352381D01*
X59009523Y-68304762D01*
X58961904Y-68257143D01*
X58914285Y-68161905D01*
X58914285Y-68066667D01*
X58961904Y-67971429D01*
X59009523Y-67923810D01*
X59104761Y-67876190D01*
X59295238Y-67828571D01*
X59390476Y-67780952D01*
X59438095Y-67733333D01*
X59485714Y-67638095D01*
X59485714Y-67542857D01*
X59438095Y-67447619D01*
X59390476Y-67400000D01*
X59295238Y-67352381D01*
X59057142Y-67352381D01*
X58914285Y-67400000D01*
X58271428Y-68352381D02*
X58271428Y-67352381D01*
X57938094Y-68066667D01*
X57604761Y-67352381D01*
X57604761Y-68352381D01*
X56938095Y-67352381D02*
X56747618Y-67352381D01*
X56652380Y-67400000D01*
X56557142Y-67495238D01*
X56509523Y-67685714D01*
X56509523Y-68019048D01*
X56557142Y-68209524D01*
X56652380Y-68304762D01*
X56747618Y-68352381D01*
X56938095Y-68352381D01*
X57033333Y-68304762D01*
X57128571Y-68209524D01*
X57176190Y-68019048D01*
X57176190Y-67685714D01*
X57128571Y-67495238D01*
X57033333Y-67400000D01*
X56938095Y-67352381D01*
X56128571Y-68304762D02*
X55985714Y-68352381D01*
X55747618Y-68352381D01*
X55652380Y-68304762D01*
X55604761Y-68257143D01*
X55557142Y-68161905D01*
X55557142Y-68066667D01*
X55604761Y-67971429D01*
X55652380Y-67923810D01*
X55747618Y-67876190D01*
X55938095Y-67828571D01*
X56033333Y-67780952D01*
X56080952Y-67733333D01*
X56128571Y-67638095D01*
X56128571Y-67542857D01*
X56080952Y-67447619D01*
X56033333Y-67400000D01*
X55938095Y-67352381D01*
X55699999Y-67352381D01*
X55557142Y-67400000D01*
X55128571Y-68352381D02*
X55128571Y-67352381D01*
X53890476Y-68352381D02*
X54223810Y-67876190D01*
X54461905Y-68352381D02*
X54461905Y-67352381D01*
X54080952Y-67352381D01*
X53985714Y-67400000D01*
X53938095Y-67447619D01*
X53890476Y-67542857D01*
X53890476Y-67685714D01*
X53938095Y-67780952D01*
X53985714Y-67828571D01*
X54080952Y-67876190D01*
X54461905Y-67876190D01*
X51538095Y-67500000D02*
X51633333Y-67452381D01*
X51776190Y-67452381D01*
X51919048Y-67500000D01*
X52014286Y-67595238D01*
X52061905Y-67690476D01*
X52109524Y-67880952D01*
X52109524Y-68023810D01*
X52061905Y-68214286D01*
X52014286Y-68309524D01*
X51919048Y-68404762D01*
X51776190Y-68452381D01*
X51680952Y-68452381D01*
X51538095Y-68404762D01*
X51490476Y-68357143D01*
X51490476Y-68023810D01*
X51680952Y-68023810D01*
X64200000Y-60500000D02*
X64200000Y-64500000D01*
X64200000Y-60500000D02*
X64200000Y-56500000D01*
X55200000Y-56500000D02*
X55200000Y-55500000D01*
X55200000Y-55500000D02*
X60200000Y-55500000D01*
X60200000Y-55500000D02*
X60200000Y-56500000D01*
X55200000Y-60500000D02*
X55200000Y-56500000D01*
X55200000Y-56500000D02*
X86700000Y-56500000D01*
X86700000Y-56500000D02*
X86700000Y-64500000D01*
X86700000Y-64500000D02*
X55200000Y-64500000D01*
X55200000Y-64500000D02*
X55200000Y-60500000D01*
X86400000Y-67100000D02*
X86400000Y-68900000D01*
X86400000Y-68900000D02*
X93600000Y-68900000D01*
X93600000Y-68900000D02*
X93600000Y-65300000D01*
X93600000Y-65300000D02*
X86400000Y-65300000D01*
X86400000Y-65300000D02*
X86400000Y-67100000D01*
X88350000Y-61525000D02*
X88350000Y-59475000D01*
X91650000Y-62230000D02*
X91650000Y-59475000D01*
X93633333Y-63404762D02*
X93490476Y-63452381D01*
X93252380Y-63452381D01*
X93157142Y-63404762D01*
X93109523Y-63357143D01*
X93061904Y-63261905D01*
X93061904Y-63166667D01*
X93109523Y-63071429D01*
X93157142Y-63023810D01*
X93252380Y-62976190D01*
X93442857Y-62928571D01*
X93538095Y-62880952D01*
X93585714Y-62833333D01*
X93633333Y-62738095D01*
X93633333Y-62642857D01*
X93585714Y-62547619D01*
X93538095Y-62500000D01*
X93442857Y-62452381D01*
X93204761Y-62452381D01*
X93061904Y-62500000D01*
X92728571Y-62452381D02*
X92490476Y-63452381D01*
X92299999Y-62738095D01*
X92109523Y-63452381D01*
X91871428Y-62452381D01*
X90966666Y-63452381D02*
X91538095Y-63452381D01*
X91252381Y-63452381D02*
X91252381Y-62452381D01*
X91347619Y-62595238D01*
X91442857Y-62690476D01*
X91538095Y-62738095D01*
X92027381Y-59738095D02*
X92836905Y-59738095D01*
X92932143Y-59785714D01*
X92979762Y-59833333D01*
X93027381Y-59928571D01*
X93027381Y-60119048D01*
X92979762Y-60214286D01*
X92932143Y-60261905D01*
X92836905Y-60309524D01*
X92027381Y-60309524D01*
X92027381Y-60690476D02*
X92027381Y-61309524D01*
X92408333Y-60976190D01*
X92408333Y-61119048D01*
X92455952Y-61214286D01*
X92503571Y-61261905D01*
X92598810Y-61309524D01*
X92836905Y-61309524D01*
X92932143Y-61261905D01*
X92979762Y-61214286D01*
X93027381Y-61119048D01*
X93027381Y-60833333D01*
X92979762Y-60738095D01*
X92932143Y-60690476D01*
M02*
