M48
;DRILL file {KiCad 4.0.5+dfsg1-4} date Thu Apr  6 17:37:03 2017
;FORMAT={-:-/ absolute / inch / decimal}
FMAT,2
INCH,TZ
T1C0.016
T2C0.020
T3C0.022
T4C0.032
%
G90
G05
M72
T1
X2.3122Y-2.2067
X2.3124Y-2.2841
X2.3325Y-2.2591
X2.3468Y-2.5502
X2.3695Y-2.2563
X2.5062Y-2.1141
X2.5308Y-2.0925
X2.5449Y-2.5437
X2.572Y-2.1289
X2.5896Y-2.1791
X2.6102Y-2.7441
X2.622Y-2.6063
X2.6285Y-2.4145
X2.6614Y-2.1791
X2.6727Y-2.3545
X2.6811Y-2.2598
X2.6941Y-2.1968
X2.6991Y-2.3041
X2.7153Y-2.388
X2.7323Y-2.5551
X2.7798Y-2.4467
X2.811Y-2.1929
X2.9129Y-2.2155
X2.9621Y-2.5983
X2.9646Y-2.3465
X2.9798Y-2.2887
X2.986Y-2.1425
X3.0082Y-2.1194
X3.0165Y-2.5118
X3.1494Y-2.611
X3.1496Y-2.7205
X3.1813Y-2.5236
X3.2402Y-2.4409
X3.3602Y-2.6039
X3.5507Y-2.5603
T4
X2.0177Y-2.7504
X2.1177Y-2.7456
X2.2177Y-2.7504
X2.3177Y-2.7456
X2.4177Y-2.7504
X2.5177Y-2.7456
T2
X2.0133Y-2.1023G85X2.0389Y-2.1023
G05
X2.0133Y-2.3779G85X2.0389Y-2.3779
G05
T3
X2.1324Y-2.1358G85X2.1324Y-2.1476
G05
X2.1324Y-2.3326G85X2.1324Y-2.3445
G05
T0
M30
