G04 #@! TF.FileFunction,Legend,Bot*
%FSLAX46Y46*%
G04 Gerber Fmt 4.6, Leading zero omitted, Abs format (unit mm)*
G04 Created by KiCad (PCBNEW 4.0.4+dfsg1-stable) date Sat Jan 21 21:23:35 2017*
%MOMM*%
%LPD*%
G01*
G04 APERTURE LIST*
%ADD10C,0.100000*%
%ADD11C,0.150000*%
%ADD12C,0.254000*%
G04 APERTURE END LIST*
D10*
D11*
X91304762Y-66609524D02*
X91352381Y-66752381D01*
X91352381Y-66990477D01*
X91304762Y-67085715D01*
X91257143Y-67133334D01*
X91161905Y-67180953D01*
X91066667Y-67180953D01*
X90971429Y-67133334D01*
X90923810Y-67085715D01*
X90876190Y-66990477D01*
X90828571Y-66800000D01*
X90780952Y-66704762D01*
X90733333Y-66657143D01*
X90638095Y-66609524D01*
X90542857Y-66609524D01*
X90447619Y-66657143D01*
X90400000Y-66704762D01*
X90352381Y-66800000D01*
X90352381Y-67038096D01*
X90400000Y-67180953D01*
X91257143Y-68180953D02*
X91304762Y-68133334D01*
X91352381Y-67990477D01*
X91352381Y-67895239D01*
X91304762Y-67752381D01*
X91209524Y-67657143D01*
X91114286Y-67609524D01*
X90923810Y-67561905D01*
X90780952Y-67561905D01*
X90590476Y-67609524D01*
X90495238Y-67657143D01*
X90400000Y-67752381D01*
X90352381Y-67895239D01*
X90352381Y-67990477D01*
X90400000Y-68133334D01*
X90447619Y-68180953D01*
X91352381Y-69085715D02*
X91352381Y-68609524D01*
X90352381Y-68609524D01*
X88704762Y-66685714D02*
X88752381Y-66828571D01*
X88752381Y-67066667D01*
X88704762Y-67161905D01*
X88657143Y-67209524D01*
X88561905Y-67257143D01*
X88466667Y-67257143D01*
X88371429Y-67209524D01*
X88323810Y-67161905D01*
X88276190Y-67066667D01*
X88228571Y-66876190D01*
X88180952Y-66780952D01*
X88133333Y-66733333D01*
X88038095Y-66685714D01*
X87942857Y-66685714D01*
X87847619Y-66733333D01*
X87800000Y-66780952D01*
X87752381Y-66876190D01*
X87752381Y-67114286D01*
X87800000Y-67257143D01*
X88752381Y-67685714D02*
X87752381Y-67685714D01*
X87752381Y-67923809D01*
X87800000Y-68066667D01*
X87895238Y-68161905D01*
X87990476Y-68209524D01*
X88180952Y-68257143D01*
X88323810Y-68257143D01*
X88514286Y-68209524D01*
X88609524Y-68161905D01*
X88704762Y-68066667D01*
X88752381Y-67923809D01*
X88752381Y-67685714D01*
X88466667Y-68638095D02*
X88466667Y-69114286D01*
X88752381Y-68542857D02*
X87752381Y-68876190D01*
X88752381Y-69209524D01*
X50800000Y-66638096D02*
X50752381Y-66542858D01*
X50752381Y-66400001D01*
X50800000Y-66257143D01*
X50895238Y-66161905D01*
X50990476Y-66114286D01*
X51180952Y-66066667D01*
X51323810Y-66066667D01*
X51514286Y-66114286D01*
X51609524Y-66161905D01*
X51704762Y-66257143D01*
X51752381Y-66400001D01*
X51752381Y-66495239D01*
X51704762Y-66638096D01*
X51657143Y-66685715D01*
X51323810Y-66685715D01*
X51323810Y-66495239D01*
X51752381Y-67114286D02*
X50752381Y-67114286D01*
X51752381Y-67685715D01*
X50752381Y-67685715D01*
X51752381Y-68161905D02*
X50752381Y-68161905D01*
X50752381Y-68400000D01*
X50800000Y-68542858D01*
X50895238Y-68638096D01*
X50990476Y-68685715D01*
X51180952Y-68733334D01*
X51323810Y-68733334D01*
X51514286Y-68685715D01*
X51609524Y-68638096D01*
X51704762Y-68542858D01*
X51752381Y-68400000D01*
X51752381Y-68161905D01*
X53302381Y-66461905D02*
X53302381Y-67080953D01*
X53683333Y-66747619D01*
X53683333Y-66890477D01*
X53730952Y-66985715D01*
X53778571Y-67033334D01*
X53873810Y-67080953D01*
X54111905Y-67080953D01*
X54207143Y-67033334D01*
X54254762Y-66985715D01*
X54302381Y-66890477D01*
X54302381Y-66604762D01*
X54254762Y-66509524D01*
X54207143Y-66461905D01*
X53302381Y-67366667D02*
X54302381Y-67700000D01*
X53302381Y-68033334D01*
X53302381Y-68271429D02*
X53302381Y-68890477D01*
X53683333Y-68557143D01*
X53683333Y-68700001D01*
X53730952Y-68795239D01*
X53778571Y-68842858D01*
X53873810Y-68890477D01*
X54111905Y-68890477D01*
X54207143Y-68842858D01*
X54254762Y-68795239D01*
X54302381Y-68700001D01*
X54302381Y-68414286D01*
X54254762Y-68319048D01*
X54207143Y-68271429D01*
X55902381Y-66311905D02*
X55902381Y-66930953D01*
X56283333Y-66597619D01*
X56283333Y-66740477D01*
X56330952Y-66835715D01*
X56378571Y-66883334D01*
X56473810Y-66930953D01*
X56711905Y-66930953D01*
X56807143Y-66883334D01*
X56854762Y-66835715D01*
X56902381Y-66740477D01*
X56902381Y-66454762D01*
X56854762Y-66359524D01*
X56807143Y-66311905D01*
X55902381Y-67216667D02*
X56902381Y-67550000D01*
X55902381Y-67883334D01*
X55902381Y-68121429D02*
X55902381Y-68740477D01*
X56283333Y-68407143D01*
X56283333Y-68550001D01*
X56330952Y-68645239D01*
X56378571Y-68692858D01*
X56473810Y-68740477D01*
X56711905Y-68740477D01*
X56807143Y-68692858D01*
X56854762Y-68645239D01*
X56902381Y-68550001D01*
X56902381Y-68264286D01*
X56854762Y-68169048D01*
X56807143Y-68121429D01*
X58402381Y-67909524D02*
X58402381Y-67433333D01*
X58878571Y-67385714D01*
X58830952Y-67433333D01*
X58783333Y-67528571D01*
X58783333Y-67766667D01*
X58830952Y-67861905D01*
X58878571Y-67909524D01*
X58973810Y-67957143D01*
X59211905Y-67957143D01*
X59307143Y-67909524D01*
X59354762Y-67861905D01*
X59402381Y-67766667D01*
X59402381Y-67528571D01*
X59354762Y-67433333D01*
X59307143Y-67385714D01*
X58402381Y-68242857D02*
X59402381Y-68576190D01*
X58402381Y-68909524D01*
X60950000Y-66638096D02*
X60902381Y-66542858D01*
X60902381Y-66400001D01*
X60950000Y-66257143D01*
X61045238Y-66161905D01*
X61140476Y-66114286D01*
X61330952Y-66066667D01*
X61473810Y-66066667D01*
X61664286Y-66114286D01*
X61759524Y-66161905D01*
X61854762Y-66257143D01*
X61902381Y-66400001D01*
X61902381Y-66495239D01*
X61854762Y-66638096D01*
X61807143Y-66685715D01*
X61473810Y-66685715D01*
X61473810Y-66495239D01*
X61902381Y-67114286D02*
X60902381Y-67114286D01*
X61902381Y-67685715D01*
X60902381Y-67685715D01*
X61902381Y-68161905D02*
X60902381Y-68161905D01*
X60902381Y-68400000D01*
X60950000Y-68542858D01*
X61045238Y-68638096D01*
X61140476Y-68685715D01*
X61330952Y-68733334D01*
X61473810Y-68733334D01*
X61664286Y-68685715D01*
X61759524Y-68638096D01*
X61854762Y-68542858D01*
X61902381Y-68400000D01*
X61902381Y-68161905D01*
X64452381Y-67311905D02*
X63452381Y-67311905D01*
X63452381Y-67550000D01*
X63500000Y-67692858D01*
X63595238Y-67788096D01*
X63690476Y-67835715D01*
X63880952Y-67883334D01*
X64023810Y-67883334D01*
X64214286Y-67835715D01*
X64309524Y-67788096D01*
X64404762Y-67692858D01*
X64452381Y-67550000D01*
X64452381Y-67311905D01*
X63452381Y-68502381D02*
X63452381Y-68597620D01*
X63500000Y-68692858D01*
X63547619Y-68740477D01*
X63642857Y-68788096D01*
X63833333Y-68835715D01*
X64071429Y-68835715D01*
X64261905Y-68788096D01*
X64357143Y-68740477D01*
X64404762Y-68692858D01*
X64452381Y-68597620D01*
X64452381Y-68502381D01*
X64404762Y-68407143D01*
X64357143Y-68359524D01*
X64261905Y-68311905D01*
X64071429Y-68264286D01*
X63833333Y-68264286D01*
X63642857Y-68311905D01*
X63547619Y-68359524D01*
X63500000Y-68407143D01*
X63452381Y-68502381D01*
X66952381Y-67361905D02*
X65952381Y-67361905D01*
X65952381Y-67600000D01*
X66000000Y-67742858D01*
X66095238Y-67838096D01*
X66190476Y-67885715D01*
X66380952Y-67933334D01*
X66523810Y-67933334D01*
X66714286Y-67885715D01*
X66809524Y-67838096D01*
X66904762Y-67742858D01*
X66952381Y-67600000D01*
X66952381Y-67361905D01*
X66952381Y-68885715D02*
X66952381Y-68314286D01*
X66952381Y-68600000D02*
X65952381Y-68600000D01*
X66095238Y-68504762D01*
X66190476Y-68409524D01*
X66238095Y-68314286D01*
X69502381Y-67311905D02*
X68502381Y-67311905D01*
X68502381Y-67550000D01*
X68550000Y-67692858D01*
X68645238Y-67788096D01*
X68740476Y-67835715D01*
X68930952Y-67883334D01*
X69073810Y-67883334D01*
X69264286Y-67835715D01*
X69359524Y-67788096D01*
X69454762Y-67692858D01*
X69502381Y-67550000D01*
X69502381Y-67311905D01*
X68502381Y-68216667D02*
X68502381Y-68883334D01*
X69502381Y-68454762D01*
X72052381Y-67261905D02*
X71052381Y-67261905D01*
X71052381Y-67500000D01*
X71100000Y-67642858D01*
X71195238Y-67738096D01*
X71290476Y-67785715D01*
X71480952Y-67833334D01*
X71623810Y-67833334D01*
X71814286Y-67785715D01*
X71909524Y-67738096D01*
X72004762Y-67642858D01*
X72052381Y-67500000D01*
X72052381Y-67261905D01*
X71480952Y-68404762D02*
X71433333Y-68309524D01*
X71385714Y-68261905D01*
X71290476Y-68214286D01*
X71242857Y-68214286D01*
X71147619Y-68261905D01*
X71100000Y-68309524D01*
X71052381Y-68404762D01*
X71052381Y-68595239D01*
X71100000Y-68690477D01*
X71147619Y-68738096D01*
X71242857Y-68785715D01*
X71290476Y-68785715D01*
X71385714Y-68738096D01*
X71433333Y-68690477D01*
X71480952Y-68595239D01*
X71480952Y-68404762D01*
X71528571Y-68309524D01*
X71576190Y-68261905D01*
X71671429Y-68214286D01*
X71861905Y-68214286D01*
X71957143Y-68261905D01*
X72004762Y-68309524D01*
X72052381Y-68404762D01*
X72052381Y-68595239D01*
X72004762Y-68690477D01*
X71957143Y-68738096D01*
X71861905Y-68785715D01*
X71671429Y-68785715D01*
X71576190Y-68738096D01*
X71528571Y-68690477D01*
X71480952Y-68595239D01*
X74602381Y-67261905D02*
X73602381Y-67261905D01*
X73602381Y-67500000D01*
X73650000Y-67642858D01*
X73745238Y-67738096D01*
X73840476Y-67785715D01*
X74030952Y-67833334D01*
X74173810Y-67833334D01*
X74364286Y-67785715D01*
X74459524Y-67738096D01*
X74554762Y-67642858D01*
X74602381Y-67500000D01*
X74602381Y-67261905D01*
X74602381Y-68309524D02*
X74602381Y-68500000D01*
X74554762Y-68595239D01*
X74507143Y-68642858D01*
X74364286Y-68738096D01*
X74173810Y-68785715D01*
X73792857Y-68785715D01*
X73697619Y-68738096D01*
X73650000Y-68690477D01*
X73602381Y-68595239D01*
X73602381Y-68404762D01*
X73650000Y-68309524D01*
X73697619Y-68261905D01*
X73792857Y-68214286D01*
X74030952Y-68214286D01*
X74126190Y-68261905D01*
X74173810Y-68309524D01*
X74221429Y-68404762D01*
X74221429Y-68595239D01*
X74173810Y-68690477D01*
X74126190Y-68738096D01*
X74030952Y-68785715D01*
X77102381Y-66235714D02*
X76102381Y-66235714D01*
X76102381Y-66473809D01*
X76150000Y-66616667D01*
X76245238Y-66711905D01*
X76340476Y-66759524D01*
X76530952Y-66807143D01*
X76673810Y-66807143D01*
X76864286Y-66759524D01*
X76959524Y-66711905D01*
X77054762Y-66616667D01*
X77102381Y-66473809D01*
X77102381Y-66235714D01*
X77102381Y-67759524D02*
X77102381Y-67188095D01*
X77102381Y-67473809D02*
X76102381Y-67473809D01*
X76245238Y-67378571D01*
X76340476Y-67283333D01*
X76388095Y-67188095D01*
X76102381Y-68378571D02*
X76102381Y-68473810D01*
X76150000Y-68569048D01*
X76197619Y-68616667D01*
X76292857Y-68664286D01*
X76483333Y-68711905D01*
X76721429Y-68711905D01*
X76911905Y-68664286D01*
X77007143Y-68616667D01*
X77054762Y-68569048D01*
X77102381Y-68473810D01*
X77102381Y-68378571D01*
X77054762Y-68283333D01*
X77007143Y-68235714D01*
X76911905Y-68188095D01*
X76721429Y-68140476D01*
X76483333Y-68140476D01*
X76292857Y-68188095D01*
X76197619Y-68235714D01*
X76150000Y-68283333D01*
X76102381Y-68378571D01*
X79602381Y-66335714D02*
X78602381Y-66335714D01*
X78602381Y-66573809D01*
X78650000Y-66716667D01*
X78745238Y-66811905D01*
X78840476Y-66859524D01*
X79030952Y-66907143D01*
X79173810Y-66907143D01*
X79364286Y-66859524D01*
X79459524Y-66811905D01*
X79554762Y-66716667D01*
X79602381Y-66573809D01*
X79602381Y-66335714D01*
X79602381Y-67859524D02*
X79602381Y-67288095D01*
X79602381Y-67573809D02*
X78602381Y-67573809D01*
X78745238Y-67478571D01*
X78840476Y-67383333D01*
X78888095Y-67288095D01*
X79602381Y-68811905D02*
X79602381Y-68240476D01*
X79602381Y-68526190D02*
X78602381Y-68526190D01*
X78745238Y-68430952D01*
X78840476Y-68335714D01*
X78888095Y-68240476D01*
X82202381Y-66285714D02*
X81202381Y-66285714D01*
X81202381Y-66523809D01*
X81250000Y-66666667D01*
X81345238Y-66761905D01*
X81440476Y-66809524D01*
X81630952Y-66857143D01*
X81773810Y-66857143D01*
X81964286Y-66809524D01*
X82059524Y-66761905D01*
X82154762Y-66666667D01*
X82202381Y-66523809D01*
X82202381Y-66285714D01*
X82202381Y-67809524D02*
X82202381Y-67238095D01*
X82202381Y-67523809D02*
X81202381Y-67523809D01*
X81345238Y-67428571D01*
X81440476Y-67333333D01*
X81488095Y-67238095D01*
X81297619Y-68190476D02*
X81250000Y-68238095D01*
X81202381Y-68333333D01*
X81202381Y-68571429D01*
X81250000Y-68666667D01*
X81297619Y-68714286D01*
X81392857Y-68761905D01*
X81488095Y-68761905D01*
X81630952Y-68714286D01*
X82202381Y-68142857D01*
X82202381Y-68761905D01*
X84752381Y-66335714D02*
X83752381Y-66335714D01*
X83752381Y-66573809D01*
X83800000Y-66716667D01*
X83895238Y-66811905D01*
X83990476Y-66859524D01*
X84180952Y-66907143D01*
X84323810Y-66907143D01*
X84514286Y-66859524D01*
X84609524Y-66811905D01*
X84704762Y-66716667D01*
X84752381Y-66573809D01*
X84752381Y-66335714D01*
X84752381Y-67859524D02*
X84752381Y-67288095D01*
X84752381Y-67573809D02*
X83752381Y-67573809D01*
X83895238Y-67478571D01*
X83990476Y-67383333D01*
X84038095Y-67288095D01*
X83752381Y-68192857D02*
X83752381Y-68811905D01*
X84133333Y-68478571D01*
X84133333Y-68621429D01*
X84180952Y-68716667D01*
X84228571Y-68764286D01*
X84323810Y-68811905D01*
X84561905Y-68811905D01*
X84657143Y-68764286D01*
X84704762Y-68716667D01*
X84752381Y-68621429D01*
X84752381Y-68335714D01*
X84704762Y-68240476D01*
X84657143Y-68192857D01*
X86366667Y-65580952D02*
X86366667Y-66057143D01*
X86652381Y-65485714D02*
X85652381Y-65819047D01*
X86652381Y-66152381D01*
X86652381Y-67057143D02*
X86176190Y-66723809D01*
X86652381Y-66485714D02*
X85652381Y-66485714D01*
X85652381Y-66866667D01*
X85700000Y-66961905D01*
X85747619Y-67009524D01*
X85842857Y-67057143D01*
X85985714Y-67057143D01*
X86080952Y-67009524D01*
X86128571Y-66961905D01*
X86176190Y-66866667D01*
X86176190Y-66485714D01*
X86128571Y-67485714D02*
X86128571Y-67819048D01*
X86652381Y-67961905D02*
X86652381Y-67485714D01*
X85652381Y-67485714D01*
X85652381Y-67961905D01*
X86128571Y-68723810D02*
X86128571Y-68390476D01*
X86652381Y-68390476D02*
X85652381Y-68390476D01*
X85652381Y-68866667D01*
X52450000Y-52438096D02*
X52402381Y-52342858D01*
X52402381Y-52200001D01*
X52450000Y-52057143D01*
X52545238Y-51961905D01*
X52640476Y-51914286D01*
X52830952Y-51866667D01*
X52973810Y-51866667D01*
X53164286Y-51914286D01*
X53259524Y-51961905D01*
X53354762Y-52057143D01*
X53402381Y-52200001D01*
X53402381Y-52295239D01*
X53354762Y-52438096D01*
X53307143Y-52485715D01*
X52973810Y-52485715D01*
X52973810Y-52295239D01*
X53402381Y-52914286D02*
X52402381Y-52914286D01*
X53402381Y-53485715D01*
X52402381Y-53485715D01*
X53402381Y-53961905D02*
X52402381Y-53961905D01*
X52402381Y-54200000D01*
X52450000Y-54342858D01*
X52545238Y-54438096D01*
X52640476Y-54485715D01*
X52830952Y-54533334D01*
X52973810Y-54533334D01*
X53164286Y-54485715D01*
X53259524Y-54438096D01*
X53354762Y-54342858D01*
X53402381Y-54200000D01*
X53402381Y-53961905D01*
X55802381Y-52809524D02*
X55802381Y-52333333D01*
X56278571Y-52285714D01*
X56230952Y-52333333D01*
X56183333Y-52428571D01*
X56183333Y-52666667D01*
X56230952Y-52761905D01*
X56278571Y-52809524D01*
X56373810Y-52857143D01*
X56611905Y-52857143D01*
X56707143Y-52809524D01*
X56754762Y-52761905D01*
X56802381Y-52666667D01*
X56802381Y-52428571D01*
X56754762Y-52333333D01*
X56707143Y-52285714D01*
X55802381Y-53142857D02*
X56802381Y-53476190D01*
X55802381Y-53809524D01*
X59352381Y-52178572D02*
X58352381Y-52178572D01*
X59066667Y-52511906D01*
X58352381Y-52845239D01*
X59352381Y-52845239D01*
X59352381Y-53321429D02*
X58352381Y-53321429D01*
X59304762Y-53750000D02*
X59352381Y-53892857D01*
X59352381Y-54130953D01*
X59304762Y-54226191D01*
X59257143Y-54273810D01*
X59161905Y-54321429D01*
X59066667Y-54321429D01*
X58971429Y-54273810D01*
X58923810Y-54226191D01*
X58876190Y-54130953D01*
X58828571Y-53940476D01*
X58780952Y-53845238D01*
X58733333Y-53797619D01*
X58638095Y-53750000D01*
X58542857Y-53750000D01*
X58447619Y-53797619D01*
X58400000Y-53845238D01*
X58352381Y-53940476D01*
X58352381Y-54178572D01*
X58400000Y-54321429D01*
X58352381Y-54940476D02*
X58352381Y-55130953D01*
X58400000Y-55226191D01*
X58495238Y-55321429D01*
X58685714Y-55369048D01*
X59019048Y-55369048D01*
X59209524Y-55321429D01*
X59304762Y-55226191D01*
X59352381Y-55130953D01*
X59352381Y-54940476D01*
X59304762Y-54845238D01*
X59209524Y-54750000D01*
X59019048Y-54702381D01*
X58685714Y-54702381D01*
X58495238Y-54750000D01*
X58400000Y-54845238D01*
X58352381Y-54940476D01*
X60902381Y-52809524D02*
X60902381Y-52333333D01*
X61378571Y-52285714D01*
X61330952Y-52333333D01*
X61283333Y-52428571D01*
X61283333Y-52666667D01*
X61330952Y-52761905D01*
X61378571Y-52809524D01*
X61473810Y-52857143D01*
X61711905Y-52857143D01*
X61807143Y-52809524D01*
X61854762Y-52761905D01*
X61902381Y-52666667D01*
X61902381Y-52428571D01*
X61854762Y-52333333D01*
X61807143Y-52285714D01*
X60902381Y-53142857D02*
X61902381Y-53476190D01*
X60902381Y-53809524D01*
X64404762Y-52114286D02*
X64452381Y-52257143D01*
X64452381Y-52495239D01*
X64404762Y-52590477D01*
X64357143Y-52638096D01*
X64261905Y-52685715D01*
X64166667Y-52685715D01*
X64071429Y-52638096D01*
X64023810Y-52590477D01*
X63976190Y-52495239D01*
X63928571Y-52304762D01*
X63880952Y-52209524D01*
X63833333Y-52161905D01*
X63738095Y-52114286D01*
X63642857Y-52114286D01*
X63547619Y-52161905D01*
X63500000Y-52209524D01*
X63452381Y-52304762D01*
X63452381Y-52542858D01*
X63500000Y-52685715D01*
X64357143Y-53685715D02*
X64404762Y-53638096D01*
X64452381Y-53495239D01*
X64452381Y-53400001D01*
X64404762Y-53257143D01*
X64309524Y-53161905D01*
X64214286Y-53114286D01*
X64023810Y-53066667D01*
X63880952Y-53066667D01*
X63690476Y-53114286D01*
X63595238Y-53161905D01*
X63500000Y-53257143D01*
X63452381Y-53400001D01*
X63452381Y-53495239D01*
X63500000Y-53638096D01*
X63547619Y-53685715D01*
X64452381Y-54114286D02*
X63452381Y-54114286D01*
X64452381Y-54685715D02*
X63880952Y-54257143D01*
X63452381Y-54685715D02*
X64023810Y-54114286D01*
X66952381Y-52228572D02*
X65952381Y-52228572D01*
X66666667Y-52561906D01*
X65952381Y-52895239D01*
X66952381Y-52895239D01*
X65952381Y-53561905D02*
X65952381Y-53752382D01*
X66000000Y-53847620D01*
X66095238Y-53942858D01*
X66285714Y-53990477D01*
X66619048Y-53990477D01*
X66809524Y-53942858D01*
X66904762Y-53847620D01*
X66952381Y-53752382D01*
X66952381Y-53561905D01*
X66904762Y-53466667D01*
X66809524Y-53371429D01*
X66619048Y-53323810D01*
X66285714Y-53323810D01*
X66095238Y-53371429D01*
X66000000Y-53466667D01*
X65952381Y-53561905D01*
X66904762Y-54371429D02*
X66952381Y-54514286D01*
X66952381Y-54752382D01*
X66904762Y-54847620D01*
X66857143Y-54895239D01*
X66761905Y-54942858D01*
X66666667Y-54942858D01*
X66571429Y-54895239D01*
X66523810Y-54847620D01*
X66476190Y-54752382D01*
X66428571Y-54561905D01*
X66380952Y-54466667D01*
X66333333Y-54419048D01*
X66238095Y-54371429D01*
X66142857Y-54371429D01*
X66047619Y-54419048D01*
X66000000Y-54466667D01*
X65952381Y-54561905D01*
X65952381Y-54800001D01*
X66000000Y-54942858D01*
X66952381Y-55371429D02*
X65952381Y-55371429D01*
X69602381Y-52680953D02*
X69126190Y-52347619D01*
X69602381Y-52109524D02*
X68602381Y-52109524D01*
X68602381Y-52490477D01*
X68650000Y-52585715D01*
X68697619Y-52633334D01*
X68792857Y-52680953D01*
X68935714Y-52680953D01*
X69030952Y-52633334D01*
X69078571Y-52585715D01*
X69126190Y-52490477D01*
X69126190Y-52109524D01*
X69078571Y-53109524D02*
X69078571Y-53442858D01*
X69602381Y-53585715D02*
X69602381Y-53109524D01*
X68602381Y-53109524D01*
X68602381Y-53585715D01*
X69554762Y-53966667D02*
X69602381Y-54109524D01*
X69602381Y-54347620D01*
X69554762Y-54442858D01*
X69507143Y-54490477D01*
X69411905Y-54538096D01*
X69316667Y-54538096D01*
X69221429Y-54490477D01*
X69173810Y-54442858D01*
X69126190Y-54347620D01*
X69078571Y-54157143D01*
X69030952Y-54061905D01*
X68983333Y-54014286D01*
X68888095Y-53966667D01*
X68792857Y-53966667D01*
X68697619Y-54014286D01*
X68650000Y-54061905D01*
X68602381Y-54157143D01*
X68602381Y-54395239D01*
X68650000Y-54538096D01*
X71200000Y-52788096D02*
X71152381Y-52692858D01*
X71152381Y-52550001D01*
X71200000Y-52407143D01*
X71295238Y-52311905D01*
X71390476Y-52264286D01*
X71580952Y-52216667D01*
X71723810Y-52216667D01*
X71914286Y-52264286D01*
X72009524Y-52311905D01*
X72104762Y-52407143D01*
X72152381Y-52550001D01*
X72152381Y-52645239D01*
X72104762Y-52788096D01*
X72057143Y-52835715D01*
X71723810Y-52835715D01*
X71723810Y-52645239D01*
X72152381Y-53264286D02*
X71152381Y-53264286D01*
X72152381Y-53835715D01*
X71152381Y-53835715D01*
X72152381Y-54311905D02*
X71152381Y-54311905D01*
X71152381Y-54550000D01*
X71200000Y-54692858D01*
X71295238Y-54788096D01*
X71390476Y-54835715D01*
X71580952Y-54883334D01*
X71723810Y-54883334D01*
X71914286Y-54835715D01*
X72009524Y-54788096D01*
X72104762Y-54692858D01*
X72152381Y-54550000D01*
X72152381Y-54311905D01*
X74366667Y-52185714D02*
X74366667Y-52661905D01*
X74652381Y-52090476D02*
X73652381Y-52423809D01*
X74652381Y-52757143D01*
X73652381Y-53566667D02*
X73652381Y-53090476D01*
X74128571Y-53042857D01*
X74080952Y-53090476D01*
X74033333Y-53185714D01*
X74033333Y-53423810D01*
X74080952Y-53519048D01*
X74128571Y-53566667D01*
X74223810Y-53614286D01*
X74461905Y-53614286D01*
X74557143Y-53566667D01*
X74604762Y-53519048D01*
X74652381Y-53423810D01*
X74652381Y-53185714D01*
X74604762Y-53090476D01*
X74557143Y-53042857D01*
X76866667Y-52285714D02*
X76866667Y-52761905D01*
X77152381Y-52190476D02*
X76152381Y-52523809D01*
X77152381Y-52857143D01*
X76485714Y-53619048D02*
X77152381Y-53619048D01*
X76104762Y-53380952D02*
X76819048Y-53142857D01*
X76819048Y-53761905D01*
X79516667Y-52085714D02*
X79516667Y-52561905D01*
X79802381Y-51990476D02*
X78802381Y-52323809D01*
X79802381Y-52657143D01*
X78802381Y-52895238D02*
X78802381Y-53514286D01*
X79183333Y-53180952D01*
X79183333Y-53323810D01*
X79230952Y-53419048D01*
X79278571Y-53466667D01*
X79373810Y-53514286D01*
X79611905Y-53514286D01*
X79707143Y-53466667D01*
X79754762Y-53419048D01*
X79802381Y-53323810D01*
X79802381Y-53038095D01*
X79754762Y-52942857D01*
X79707143Y-52895238D01*
X81916667Y-52285714D02*
X81916667Y-52761905D01*
X82202381Y-52190476D02*
X81202381Y-52523809D01*
X82202381Y-52857143D01*
X81297619Y-53142857D02*
X81250000Y-53190476D01*
X81202381Y-53285714D01*
X81202381Y-53523810D01*
X81250000Y-53619048D01*
X81297619Y-53666667D01*
X81392857Y-53714286D01*
X81488095Y-53714286D01*
X81630952Y-53666667D01*
X82202381Y-53095238D01*
X82202381Y-53714286D01*
X84416667Y-52185714D02*
X84416667Y-52661905D01*
X84702381Y-52090476D02*
X83702381Y-52423809D01*
X84702381Y-52757143D01*
X84702381Y-53614286D02*
X84702381Y-53042857D01*
X84702381Y-53328571D02*
X83702381Y-53328571D01*
X83845238Y-53233333D01*
X83940476Y-53138095D01*
X83988095Y-53042857D01*
X86916667Y-52335714D02*
X86916667Y-52811905D01*
X87202381Y-52240476D02*
X86202381Y-52573809D01*
X87202381Y-52907143D01*
X86202381Y-53430952D02*
X86202381Y-53526191D01*
X86250000Y-53621429D01*
X86297619Y-53669048D01*
X86392857Y-53716667D01*
X86583333Y-53764286D01*
X86821429Y-53764286D01*
X87011905Y-53716667D01*
X87107143Y-53669048D01*
X87154762Y-53621429D01*
X87202381Y-53526191D01*
X87202381Y-53430952D01*
X87154762Y-53335714D01*
X87107143Y-53288095D01*
X87011905Y-53240476D01*
X86821429Y-53192857D01*
X86583333Y-53192857D01*
X86392857Y-53240476D01*
X86297619Y-53288095D01*
X86250000Y-53335714D01*
X86202381Y-53430952D01*
D12*
X89500000Y-64000000D02*
X89500000Y-66400000D01*
X86900000Y-66400000D02*
X92100000Y-66400000D01*
X92100000Y-66400000D02*
X92100000Y-64000000D01*
X92100000Y-64000000D02*
X86900000Y-64000000D01*
X86900000Y-64000000D02*
X86900000Y-66400000D01*
D11*
X64200000Y-60500000D02*
X64200000Y-64500000D01*
X64200000Y-60500000D02*
X64200000Y-56500000D01*
X55200000Y-56500000D02*
X55200000Y-55500000D01*
X55200000Y-55500000D02*
X60200000Y-55500000D01*
X60200000Y-55500000D02*
X60200000Y-56500000D01*
X55200000Y-60500000D02*
X55200000Y-56500000D01*
X55200000Y-56500000D02*
X86700000Y-56500000D01*
X86700000Y-56500000D02*
X86700000Y-64500000D01*
X86700000Y-64500000D02*
X55200000Y-64500000D01*
X55200000Y-64500000D02*
X55200000Y-60500000D01*
X88350000Y-61525000D02*
X88350000Y-59475000D01*
X91650000Y-62230000D02*
X91650000Y-59475000D01*
M02*
