G04 #@! TF.FileFunction,Copper,L2,Bot,Signal*
%FSLAX46Y46*%
G04 Gerber Fmt 4.6, Leading zero omitted, Abs format (unit mm)*
G04 Created by KiCad (PCBNEW 4.0.5+dfsg1-4) date Sun Feb 26 18:39:17 2017*
%MOMM*%
%LPD*%
G01*
G04 APERTURE LIST*
%ADD10C,0.100000*%
%ADD11O,1.250000X1.250000*%
%ADD12O,1.550000X1.800000*%
%ADD13R,0.320000X3.000000*%
%ADD14R,0.700000X1.500000*%
%ADD15R,0.450000X1.000000*%
%ADD16R,1.300000X0.850000*%
%ADD17C,1.397000*%
%ADD18R,1.397000X1.397000*%
%ADD19C,0.600000*%
%ADD20C,0.250000*%
%ADD21C,0.254000*%
G04 APERTURE END LIST*
D10*
D11*
X54162540Y-54399100D03*
X54162540Y-59399100D03*
D12*
X51462540Y-53399100D03*
X51462540Y-60399100D03*
D13*
X55700000Y-60500000D03*
X56320000Y-60500000D03*
X56940000Y-60500000D03*
X57560000Y-60500000D03*
X58180000Y-60500000D03*
X58800000Y-60500000D03*
X59420000Y-60500000D03*
X60040000Y-60500000D03*
X60660000Y-60500000D03*
X61280000Y-60500000D03*
X61900000Y-60500000D03*
X62520000Y-60500000D03*
X63140000Y-60500000D03*
X63760000Y-60500000D03*
D14*
X87500000Y-69600000D03*
X90000000Y-69600000D03*
X92500000Y-69600000D03*
X87500000Y-64600000D03*
X90000000Y-64600000D03*
X92500000Y-64600000D03*
D15*
X90950000Y-62025000D03*
X90000000Y-62025000D03*
X89050000Y-62025000D03*
X89050000Y-58975000D03*
X90000000Y-58975000D03*
X90950000Y-58975000D03*
D16*
X89350000Y-60075000D03*
X90650000Y-60075000D03*
X89350000Y-60925000D03*
X90650000Y-60925000D03*
D17*
X59270000Y-69439040D03*
X56730000Y-69560960D03*
X61810000Y-69560960D03*
X54190000Y-69439040D03*
D18*
X64350000Y-69439040D03*
D17*
X51650000Y-69560960D03*
D19*
X75500000Y-60700000D03*
X68200000Y-68100000D03*
X78000000Y-59800000D03*
X88900000Y-63400000D03*
X92900000Y-66800000D03*
X61300000Y-65200000D03*
X79300000Y-68800000D03*
X66700000Y-60500000D03*
X91331700Y-63046900D03*
X86647500Y-69720000D03*
X82719500Y-63633500D03*
X74236800Y-70320000D03*
X80003100Y-65235700D03*
X83260100Y-61437700D03*
X85134200Y-60022200D03*
X62662500Y-58416900D03*
X63832800Y-63525200D03*
X54250000Y-62223500D03*
X55227800Y-63977600D03*
X57563500Y-63986800D03*
X59143000Y-64097900D03*
X62979600Y-56525000D03*
X76837200Y-63977300D03*
X77946000Y-64651100D03*
X62790800Y-62575000D03*
X81310800Y-65041300D03*
X88085700Y-58788700D03*
X86241500Y-63706100D03*
X87727200Y-60031500D03*
X83727600Y-58379700D03*
X93370100Y-63777600D03*
X66229300Y-57858900D03*
X68617800Y-63316900D03*
X71956700Y-59703200D03*
X74118400Y-59698400D03*
X74050800Y-60569500D03*
X75712900Y-54540300D03*
X59303000Y-57061000D03*
X76196700Y-53861000D03*
X58928100Y-55300000D03*
D20*
X68200000Y-68000000D02*
X75500000Y-60700000D01*
X68200000Y-68100000D02*
X68200000Y-68000000D01*
X90000000Y-62800000D02*
X89500000Y-62800000D01*
X89500000Y-62800000D02*
X88900000Y-63400000D01*
X90000000Y-62025000D02*
X90000000Y-62800000D01*
X90000000Y-62800000D02*
X90000000Y-62850300D01*
X91135100Y-62850300D02*
X90000000Y-62850300D01*
X91331700Y-63046900D02*
X91135100Y-62850300D01*
X55378200Y-58674700D02*
X59420000Y-58674700D01*
X55163800Y-58889100D02*
X55378200Y-58674700D01*
X55163800Y-60391100D02*
X55163800Y-58889100D01*
X51650000Y-63904900D02*
X55163800Y-60391100D01*
X51650000Y-69561000D02*
X51650000Y-63904900D01*
X59420000Y-60500000D02*
X59420000Y-58674700D01*
X86767500Y-69600000D02*
X86647500Y-69720000D01*
X87500000Y-69600000D02*
X86767500Y-69600000D01*
X87500000Y-69600000D02*
X87500000Y-68524700D01*
X87500000Y-64600000D02*
X87500000Y-65675300D01*
X85189300Y-66103300D02*
X82719500Y-63633500D01*
X87072000Y-66103300D02*
X85189300Y-66103300D01*
X87072000Y-68096700D02*
X87072000Y-66103300D01*
X87500000Y-68524700D02*
X87072000Y-68096700D01*
X87072000Y-66103300D02*
X87500000Y-65675300D01*
X60040000Y-60500000D02*
X60040000Y-62325300D01*
X58180000Y-60500000D02*
X58180000Y-62325300D01*
X60040000Y-62325300D02*
X59773700Y-62325300D01*
X59773700Y-62325300D02*
X58180000Y-62325300D01*
X60757300Y-70613700D02*
X61810000Y-69561000D01*
X53914500Y-70613700D02*
X60757300Y-70613700D01*
X53150700Y-69849900D02*
X53914500Y-70613700D01*
X53150700Y-68967800D02*
X53150700Y-69849900D01*
X55741000Y-66377500D02*
X53150700Y-68967800D01*
X57799300Y-66377500D02*
X55741000Y-66377500D01*
X59773700Y-64403100D02*
X57799300Y-66377500D01*
X59773700Y-62325300D02*
X59773700Y-64403100D01*
X74093900Y-70462900D02*
X74236800Y-70320000D01*
X62711900Y-70462900D02*
X74093900Y-70462900D01*
X61810000Y-69561000D02*
X62711900Y-70462900D01*
X90000000Y-58975000D02*
X90000000Y-58149700D01*
X79321100Y-65235700D02*
X80003100Y-65235700D01*
X74236800Y-70320000D02*
X79321100Y-65235700D01*
X80003100Y-64697900D02*
X83261700Y-61439300D01*
X80003100Y-65235700D02*
X80003100Y-64697900D01*
X83261700Y-61439300D02*
X83260100Y-61437700D01*
X84678800Y-60022200D02*
X85134200Y-60022200D01*
X83261700Y-61439300D02*
X84678800Y-60022200D01*
X87006700Y-58149700D02*
X85134200Y-60022200D01*
X90000000Y-58149700D02*
X87006700Y-58149700D01*
X62662500Y-58416900D02*
X63140000Y-58894400D01*
X63140000Y-58894400D02*
X63140000Y-60500000D01*
X63832800Y-62398100D02*
X63832800Y-63525200D01*
X63760000Y-62325300D02*
X63832800Y-62398100D01*
X63760000Y-60500000D02*
X63760000Y-62325300D01*
X54351800Y-62325300D02*
X54250000Y-62223500D01*
X55700000Y-62325300D02*
X54351800Y-62325300D01*
X55700000Y-60500000D02*
X55700000Y-62325300D01*
X56320000Y-62885400D02*
X55227800Y-63977600D01*
X56320000Y-60500000D02*
X56320000Y-62885400D01*
X56940000Y-63363300D02*
X57563500Y-63986800D01*
X56940000Y-60500000D02*
X56940000Y-63363300D01*
X57560000Y-62514900D02*
X59143000Y-64097900D01*
X57560000Y-60500000D02*
X57560000Y-62514900D01*
X62979600Y-56525000D02*
X60660000Y-58844600D01*
X60660000Y-58844600D02*
X60660000Y-60500000D01*
X76837200Y-63977300D02*
X76837200Y-60437200D01*
X75448000Y-59048000D02*
X71463000Y-59048000D01*
X76837200Y-60437200D02*
X75448000Y-59048000D01*
X71463000Y-59048000D02*
X66360200Y-64150800D01*
X66360200Y-64150800D02*
X63105500Y-64150800D01*
X63105500Y-64150800D02*
X61280000Y-62325300D01*
X61280000Y-62325300D02*
X61280000Y-60500000D01*
X90950000Y-58975000D02*
X90950000Y-58149700D01*
X90481600Y-57681300D02*
X90950000Y-58149700D01*
X86114400Y-57681300D02*
X90481600Y-57681300D01*
X78519300Y-65276400D02*
X86114400Y-57681300D01*
X77651200Y-65276400D02*
X78519300Y-65276400D01*
X76837200Y-64462400D02*
X77651200Y-65276400D01*
X76837200Y-63977300D02*
X76837200Y-64462400D01*
X66083800Y-58597700D02*
X74400000Y-58597700D01*
X74400000Y-58597700D02*
X83020598Y-58597700D01*
X85927900Y-57230900D02*
X83858800Y-59300000D01*
X83020598Y-58597700D02*
X83722898Y-59300000D01*
X83858800Y-59300000D02*
X80600000Y-62558800D01*
X83722898Y-59300000D02*
X83858800Y-59300000D01*
X78807699Y-64351101D02*
X80600000Y-62558800D01*
X77946000Y-64651100D02*
X78245999Y-64351101D01*
X78245999Y-64351101D02*
X78807699Y-64351101D01*
X65254900Y-57768800D02*
X66083800Y-58597700D01*
X62425600Y-57768800D02*
X65254900Y-57768800D01*
X61900000Y-58294400D02*
X62425600Y-57768800D01*
X61900000Y-60500000D02*
X61900000Y-58294400D01*
X90675700Y-57230900D02*
X85927900Y-57230900D01*
X91672200Y-58227400D02*
X90675700Y-57230900D01*
X91672200Y-61445300D02*
X91672200Y-58227400D01*
X91092500Y-62025000D02*
X91672200Y-61445300D01*
X90950000Y-62025000D02*
X91092500Y-62025000D01*
X62541100Y-62325300D02*
X62790800Y-62575000D01*
X62520000Y-62325300D02*
X62541100Y-62325300D01*
X62520000Y-60500000D02*
X62520000Y-62325300D01*
X83866300Y-63008100D02*
X88085700Y-58788700D01*
X82391800Y-63008100D02*
X83866300Y-63008100D01*
X81310800Y-64089100D02*
X82391800Y-63008100D01*
X81310800Y-65041300D02*
X81310800Y-64089100D01*
X87727200Y-62220400D02*
X86241500Y-63706100D01*
X87727200Y-60031500D02*
X87727200Y-62220400D01*
X90000000Y-64600000D02*
X90000000Y-69600000D01*
X90000000Y-64600000D02*
X90000000Y-63524700D01*
X92056100Y-63468700D02*
X92165600Y-63468700D01*
X91828000Y-63696800D02*
X92056100Y-63468700D01*
X90900600Y-63696800D02*
X91828000Y-63696800D01*
X90728500Y-63524700D02*
X90900600Y-63696800D01*
X90000000Y-63524700D02*
X90728500Y-63524700D01*
X93061200Y-63468700D02*
X93370100Y-63777600D01*
X92165600Y-63468700D02*
X93061200Y-63468700D01*
X85326800Y-56780500D02*
X83727600Y-58379700D01*
X90898900Y-56780500D02*
X85326800Y-56780500D01*
X92165600Y-58047200D02*
X90898900Y-56780500D01*
X92165600Y-63468700D02*
X92165600Y-58047200D01*
X83206800Y-57858900D02*
X66229300Y-57858900D01*
X83727600Y-58379700D02*
X83206800Y-57858900D01*
X56301300Y-67327700D02*
X54190000Y-69439000D01*
X64607000Y-67327700D02*
X56301300Y-67327700D01*
X68617800Y-63316900D02*
X64607000Y-67327700D01*
X58512900Y-67778100D02*
X56730000Y-69561000D01*
X65108300Y-67778100D02*
X58512900Y-67778100D01*
X71956700Y-60929700D02*
X65108300Y-67778100D01*
X71956700Y-59703200D02*
X71956700Y-60929700D01*
X73843400Y-59698400D02*
X74118400Y-59698400D01*
X65126700Y-68415100D02*
X73843400Y-59698400D01*
X60293900Y-68415100D02*
X65126700Y-68415100D01*
X59270000Y-69439000D02*
X60293900Y-68415100D01*
X64350000Y-69439000D02*
X65373800Y-69439000D01*
X65373800Y-69246500D02*
X74050800Y-60569500D01*
X65373800Y-69439000D02*
X65373800Y-69246500D01*
X61823700Y-54540300D02*
X59303000Y-57061000D01*
X75712900Y-54540300D02*
X61823700Y-54540300D01*
X60367100Y-53861000D02*
X76196700Y-53861000D01*
X58928100Y-55300000D02*
X60367100Y-53861000D01*
D21*
G36*
X91502560Y-65350000D02*
X91546838Y-65585317D01*
X91685910Y-65801441D01*
X91898110Y-65946431D01*
X92150000Y-65997440D01*
X92850000Y-65997440D01*
X93085317Y-65953162D01*
X93301441Y-65814090D01*
X93315000Y-65794246D01*
X93315000Y-68399973D01*
X93314090Y-68398559D01*
X93101890Y-68253569D01*
X92850000Y-68202560D01*
X92150000Y-68202560D01*
X91914683Y-68246838D01*
X91698559Y-68385910D01*
X91553569Y-68598110D01*
X91502560Y-68850000D01*
X91502560Y-70315000D01*
X90997440Y-70315000D01*
X90997440Y-68850000D01*
X90953162Y-68614683D01*
X90814090Y-68398559D01*
X90760000Y-68361601D01*
X90760000Y-67823698D01*
X90912954Y-67976919D01*
X91293223Y-68134820D01*
X91704971Y-68135179D01*
X92085515Y-67977942D01*
X92376919Y-67687046D01*
X92534820Y-67306777D01*
X92535179Y-66895029D01*
X92377942Y-66514485D01*
X92087046Y-66223081D01*
X91706777Y-66065180D01*
X91295029Y-66064821D01*
X90914485Y-66222058D01*
X90760000Y-66376274D01*
X90760000Y-65840757D01*
X90801441Y-65814090D01*
X90946431Y-65601890D01*
X90997440Y-65350000D01*
X90997440Y-64456800D01*
X91502560Y-64456800D01*
X91502560Y-65350000D01*
X91502560Y-65350000D01*
G37*
X91502560Y-65350000D02*
X91546838Y-65585317D01*
X91685910Y-65801441D01*
X91898110Y-65946431D01*
X92150000Y-65997440D01*
X92850000Y-65997440D01*
X93085317Y-65953162D01*
X93301441Y-65814090D01*
X93315000Y-65794246D01*
X93315000Y-68399973D01*
X93314090Y-68398559D01*
X93101890Y-68253569D01*
X92850000Y-68202560D01*
X92150000Y-68202560D01*
X91914683Y-68246838D01*
X91698559Y-68385910D01*
X91553569Y-68598110D01*
X91502560Y-68850000D01*
X91502560Y-70315000D01*
X90997440Y-70315000D01*
X90997440Y-68850000D01*
X90953162Y-68614683D01*
X90814090Y-68398559D01*
X90760000Y-68361601D01*
X90760000Y-67823698D01*
X90912954Y-67976919D01*
X91293223Y-68134820D01*
X91704971Y-68135179D01*
X92085515Y-67977942D01*
X92376919Y-67687046D01*
X92534820Y-67306777D01*
X92535179Y-66895029D01*
X92377942Y-66514485D01*
X92087046Y-66223081D01*
X91706777Y-66065180D01*
X91295029Y-66064821D01*
X90914485Y-66222058D01*
X90760000Y-66376274D01*
X90760000Y-65840757D01*
X90801441Y-65814090D01*
X90946431Y-65601890D01*
X90997440Y-65350000D01*
X90997440Y-64456800D01*
X91502560Y-64456800D01*
X91502560Y-65350000D01*
G36*
X82189173Y-64425692D02*
X82532701Y-64568338D01*
X82579577Y-64568379D01*
X84651899Y-66640701D01*
X84898461Y-66805448D01*
X85189300Y-66863300D01*
X86312000Y-66863300D01*
X86312000Y-68096700D01*
X86369852Y-68387539D01*
X86534599Y-68634101D01*
X86544313Y-68643815D01*
X86515746Y-68784885D01*
X86462333Y-68784838D01*
X86118557Y-68926883D01*
X85855308Y-69189673D01*
X85712662Y-69533201D01*
X85712338Y-69905167D01*
X85854383Y-70248943D01*
X85920325Y-70315000D01*
X75316602Y-70315000D01*
X79565292Y-66066310D01*
X79816301Y-66170538D01*
X80188267Y-66170862D01*
X80532043Y-66028817D01*
X80754137Y-65807110D01*
X80780473Y-65833492D01*
X81124001Y-65976138D01*
X81495967Y-65976462D01*
X81839743Y-65834417D01*
X82102992Y-65571627D01*
X82245638Y-65228099D01*
X82245962Y-64856133D01*
X82103917Y-64512357D01*
X82070800Y-64479182D01*
X82070800Y-64403902D01*
X82119153Y-64355549D01*
X82189173Y-64425692D01*
X82189173Y-64425692D01*
G37*
X82189173Y-64425692D02*
X82532701Y-64568338D01*
X82579577Y-64568379D01*
X84651899Y-66640701D01*
X84898461Y-66805448D01*
X85189300Y-66863300D01*
X86312000Y-66863300D01*
X86312000Y-68096700D01*
X86369852Y-68387539D01*
X86534599Y-68634101D01*
X86544313Y-68643815D01*
X86515746Y-68784885D01*
X86462333Y-68784838D01*
X86118557Y-68926883D01*
X85855308Y-69189673D01*
X85712662Y-69533201D01*
X85712338Y-69905167D01*
X85854383Y-70248943D01*
X85920325Y-70315000D01*
X75316602Y-70315000D01*
X79565292Y-66066310D01*
X79816301Y-66170538D01*
X80188267Y-66170862D01*
X80532043Y-66028817D01*
X80754137Y-65807110D01*
X80780473Y-65833492D01*
X81124001Y-65976138D01*
X81495967Y-65976462D01*
X81839743Y-65834417D01*
X82102992Y-65571627D01*
X82245638Y-65228099D01*
X82245962Y-64856133D01*
X82103917Y-64512357D01*
X82070800Y-64479182D01*
X82070800Y-64403902D01*
X82119153Y-64355549D01*
X82189173Y-64425692D01*
G36*
X93315000Y-62759184D02*
X93061200Y-62708700D01*
X92925600Y-62708700D01*
X92925600Y-58047200D01*
X92890718Y-57871838D01*
X92867748Y-57756360D01*
X92703001Y-57509799D01*
X91436301Y-56243099D01*
X91189739Y-56078352D01*
X90898900Y-56020500D01*
X85326800Y-56020500D01*
X85035960Y-56078352D01*
X84789399Y-56243099D01*
X83724298Y-57308200D01*
X83497639Y-57156752D01*
X83206800Y-57098900D01*
X66791763Y-57098900D01*
X66759627Y-57066708D01*
X66416099Y-56924062D01*
X66044133Y-56923738D01*
X65700357Y-57065783D01*
X65637840Y-57128191D01*
X65545739Y-57066652D01*
X65254900Y-57008800D01*
X63791112Y-57008800D01*
X63914438Y-56711799D01*
X63914762Y-56339833D01*
X63772717Y-55996057D01*
X63509927Y-55732808D01*
X63166399Y-55590162D01*
X62794433Y-55589838D01*
X62450657Y-55731883D01*
X62187408Y-55994673D01*
X62044762Y-56338201D01*
X62044721Y-56385077D01*
X60122599Y-58307199D01*
X60092290Y-58352560D01*
X59880000Y-58352560D01*
X59739913Y-58378919D01*
X59706309Y-58365000D01*
X59658750Y-58365000D01*
X59594837Y-58428913D01*
X59428559Y-58535910D01*
X59421245Y-58546615D01*
X59236924Y-58420674D01*
X59181250Y-58365000D01*
X59133691Y-58365000D01*
X59096829Y-58380269D01*
X58960000Y-58352560D01*
X58640000Y-58352560D01*
X58484493Y-58381821D01*
X58340000Y-58352560D01*
X58020000Y-58352560D01*
X57864493Y-58381821D01*
X57720000Y-58352560D01*
X57400000Y-58352560D01*
X57244493Y-58381821D01*
X57100000Y-58352560D01*
X56780000Y-58352560D01*
X56624493Y-58381821D01*
X56480000Y-58352560D01*
X56160000Y-58352560D01*
X56004493Y-58381821D01*
X55860000Y-58352560D01*
X55540000Y-58352560D01*
X55304683Y-58396838D01*
X55094274Y-58532232D01*
X55078180Y-58508145D01*
X54669406Y-58235012D01*
X54187225Y-58139100D01*
X54137855Y-58139100D01*
X53655674Y-58235012D01*
X53246900Y-58508145D01*
X52973767Y-58916919D01*
X52877855Y-59399100D01*
X52973767Y-59881281D01*
X53246900Y-60290055D01*
X53655674Y-60563188D01*
X54137855Y-60659100D01*
X54187225Y-60659100D01*
X54669406Y-60563188D01*
X54892560Y-60414082D01*
X54892560Y-61543737D01*
X54780327Y-61431308D01*
X54436799Y-61288662D01*
X54064833Y-61288338D01*
X53721057Y-61430383D01*
X53457808Y-61693173D01*
X53315162Y-62036701D01*
X53314838Y-62408667D01*
X53456883Y-62752443D01*
X53719673Y-63015692D01*
X54063201Y-63158338D01*
X54435167Y-63158662D01*
X54612717Y-63085300D01*
X54938899Y-63085300D01*
X54698857Y-63184483D01*
X54435608Y-63447273D01*
X54292962Y-63790801D01*
X54292638Y-64162767D01*
X54434683Y-64506543D01*
X54697473Y-64769792D01*
X55041001Y-64912438D01*
X55412967Y-64912762D01*
X55756743Y-64770717D01*
X56019992Y-64507927D01*
X56162638Y-64164399D01*
X56162679Y-64117523D01*
X56393347Y-63886855D01*
X56402599Y-63900701D01*
X56628378Y-64126480D01*
X56628338Y-64171967D01*
X56770383Y-64515743D01*
X57033173Y-64778992D01*
X57376701Y-64921638D01*
X57748667Y-64921962D01*
X58092443Y-64779917D01*
X58319484Y-64553272D01*
X58349883Y-64626843D01*
X58412464Y-64689534D01*
X57484498Y-65617500D01*
X55741000Y-65617500D01*
X55450160Y-65675352D01*
X55203599Y-65840099D01*
X52613299Y-68430399D01*
X52543373Y-68535051D01*
X52519837Y-68511515D01*
X52404582Y-68626770D01*
X52342929Y-68391160D01*
X51842520Y-68215033D01*
X51312801Y-68243812D01*
X50957071Y-68391160D01*
X50895417Y-68626772D01*
X51650000Y-69381355D01*
X51664143Y-69367213D01*
X51843748Y-69546818D01*
X51829605Y-69560960D01*
X51843748Y-69575103D01*
X51664143Y-69754708D01*
X51650000Y-69740565D01*
X51635858Y-69754708D01*
X51456253Y-69575103D01*
X51470395Y-69560960D01*
X50715812Y-68806377D01*
X50685000Y-68814440D01*
X50685000Y-61697845D01*
X50922956Y-61856842D01*
X51462540Y-61964172D01*
X52002124Y-61856842D01*
X52459561Y-61551193D01*
X52765210Y-61093756D01*
X52872540Y-60554172D01*
X52872540Y-60244028D01*
X52765210Y-59704444D01*
X52459561Y-59247007D01*
X52002124Y-58941358D01*
X51462540Y-58834028D01*
X50922956Y-58941358D01*
X50685000Y-59100355D01*
X50685000Y-54697845D01*
X50922956Y-54856842D01*
X51462540Y-54964172D01*
X52002124Y-54856842D01*
X52459561Y-54551193D01*
X52561186Y-54399100D01*
X52877855Y-54399100D01*
X52973767Y-54881281D01*
X53246900Y-55290055D01*
X53655674Y-55563188D01*
X54137855Y-55659100D01*
X54187225Y-55659100D01*
X54669406Y-55563188D01*
X54786173Y-55485167D01*
X57992938Y-55485167D01*
X58134983Y-55828943D01*
X58397773Y-56092192D01*
X58741301Y-56234838D01*
X58853795Y-56234936D01*
X58774057Y-56267883D01*
X58510808Y-56530673D01*
X58368162Y-56874201D01*
X58367838Y-57246167D01*
X58509883Y-57589943D01*
X58772673Y-57853192D01*
X59116201Y-57995838D01*
X59488167Y-57996162D01*
X59831943Y-57854117D01*
X60095192Y-57591327D01*
X60237838Y-57247799D01*
X60237879Y-57200923D01*
X62138502Y-55300300D01*
X75150437Y-55300300D01*
X75182573Y-55332492D01*
X75526101Y-55475138D01*
X75898067Y-55475462D01*
X76241843Y-55333417D01*
X76505092Y-55070627D01*
X76647738Y-54727099D01*
X76647774Y-54686292D01*
X76725643Y-54654117D01*
X76988892Y-54391327D01*
X77131538Y-54047799D01*
X77131862Y-53675833D01*
X76989817Y-53332057D01*
X76727027Y-53068808D01*
X76383499Y-52926162D01*
X76011533Y-52925838D01*
X75667757Y-53067883D01*
X75634582Y-53101000D01*
X60367100Y-53101000D01*
X60076260Y-53158852D01*
X59829699Y-53323599D01*
X58788420Y-54364878D01*
X58742933Y-54364838D01*
X58399157Y-54506883D01*
X58135908Y-54769673D01*
X57993262Y-55113201D01*
X57992938Y-55485167D01*
X54786173Y-55485167D01*
X55078180Y-55290055D01*
X55351313Y-54881281D01*
X55447225Y-54399100D01*
X55351313Y-53916919D01*
X55078180Y-53508145D01*
X54669406Y-53235012D01*
X54187225Y-53139100D01*
X54137855Y-53139100D01*
X53655674Y-53235012D01*
X53246900Y-53508145D01*
X52973767Y-53916919D01*
X52877855Y-54399100D01*
X52561186Y-54399100D01*
X52765210Y-54093756D01*
X52872540Y-53554172D01*
X52872540Y-53244028D01*
X52765210Y-52704444D01*
X52459561Y-52247007D01*
X52002124Y-51941358D01*
X51462540Y-51834028D01*
X50922956Y-51941358D01*
X50685000Y-52100355D01*
X50685000Y-50685000D01*
X93315000Y-50685000D01*
X93315000Y-62759184D01*
X93315000Y-62759184D01*
G37*
X93315000Y-62759184D02*
X93061200Y-62708700D01*
X92925600Y-62708700D01*
X92925600Y-58047200D01*
X92890718Y-57871838D01*
X92867748Y-57756360D01*
X92703001Y-57509799D01*
X91436301Y-56243099D01*
X91189739Y-56078352D01*
X90898900Y-56020500D01*
X85326800Y-56020500D01*
X85035960Y-56078352D01*
X84789399Y-56243099D01*
X83724298Y-57308200D01*
X83497639Y-57156752D01*
X83206800Y-57098900D01*
X66791763Y-57098900D01*
X66759627Y-57066708D01*
X66416099Y-56924062D01*
X66044133Y-56923738D01*
X65700357Y-57065783D01*
X65637840Y-57128191D01*
X65545739Y-57066652D01*
X65254900Y-57008800D01*
X63791112Y-57008800D01*
X63914438Y-56711799D01*
X63914762Y-56339833D01*
X63772717Y-55996057D01*
X63509927Y-55732808D01*
X63166399Y-55590162D01*
X62794433Y-55589838D01*
X62450657Y-55731883D01*
X62187408Y-55994673D01*
X62044762Y-56338201D01*
X62044721Y-56385077D01*
X60122599Y-58307199D01*
X60092290Y-58352560D01*
X59880000Y-58352560D01*
X59739913Y-58378919D01*
X59706309Y-58365000D01*
X59658750Y-58365000D01*
X59594837Y-58428913D01*
X59428559Y-58535910D01*
X59421245Y-58546615D01*
X59236924Y-58420674D01*
X59181250Y-58365000D01*
X59133691Y-58365000D01*
X59096829Y-58380269D01*
X58960000Y-58352560D01*
X58640000Y-58352560D01*
X58484493Y-58381821D01*
X58340000Y-58352560D01*
X58020000Y-58352560D01*
X57864493Y-58381821D01*
X57720000Y-58352560D01*
X57400000Y-58352560D01*
X57244493Y-58381821D01*
X57100000Y-58352560D01*
X56780000Y-58352560D01*
X56624493Y-58381821D01*
X56480000Y-58352560D01*
X56160000Y-58352560D01*
X56004493Y-58381821D01*
X55860000Y-58352560D01*
X55540000Y-58352560D01*
X55304683Y-58396838D01*
X55094274Y-58532232D01*
X55078180Y-58508145D01*
X54669406Y-58235012D01*
X54187225Y-58139100D01*
X54137855Y-58139100D01*
X53655674Y-58235012D01*
X53246900Y-58508145D01*
X52973767Y-58916919D01*
X52877855Y-59399100D01*
X52973767Y-59881281D01*
X53246900Y-60290055D01*
X53655674Y-60563188D01*
X54137855Y-60659100D01*
X54187225Y-60659100D01*
X54669406Y-60563188D01*
X54892560Y-60414082D01*
X54892560Y-61543737D01*
X54780327Y-61431308D01*
X54436799Y-61288662D01*
X54064833Y-61288338D01*
X53721057Y-61430383D01*
X53457808Y-61693173D01*
X53315162Y-62036701D01*
X53314838Y-62408667D01*
X53456883Y-62752443D01*
X53719673Y-63015692D01*
X54063201Y-63158338D01*
X54435167Y-63158662D01*
X54612717Y-63085300D01*
X54938899Y-63085300D01*
X54698857Y-63184483D01*
X54435608Y-63447273D01*
X54292962Y-63790801D01*
X54292638Y-64162767D01*
X54434683Y-64506543D01*
X54697473Y-64769792D01*
X55041001Y-64912438D01*
X55412967Y-64912762D01*
X55756743Y-64770717D01*
X56019992Y-64507927D01*
X56162638Y-64164399D01*
X56162679Y-64117523D01*
X56393347Y-63886855D01*
X56402599Y-63900701D01*
X56628378Y-64126480D01*
X56628338Y-64171967D01*
X56770383Y-64515743D01*
X57033173Y-64778992D01*
X57376701Y-64921638D01*
X57748667Y-64921962D01*
X58092443Y-64779917D01*
X58319484Y-64553272D01*
X58349883Y-64626843D01*
X58412464Y-64689534D01*
X57484498Y-65617500D01*
X55741000Y-65617500D01*
X55450160Y-65675352D01*
X55203599Y-65840099D01*
X52613299Y-68430399D01*
X52543373Y-68535051D01*
X52519837Y-68511515D01*
X52404582Y-68626770D01*
X52342929Y-68391160D01*
X51842520Y-68215033D01*
X51312801Y-68243812D01*
X50957071Y-68391160D01*
X50895417Y-68626772D01*
X51650000Y-69381355D01*
X51664143Y-69367213D01*
X51843748Y-69546818D01*
X51829605Y-69560960D01*
X51843748Y-69575103D01*
X51664143Y-69754708D01*
X51650000Y-69740565D01*
X51635858Y-69754708D01*
X51456253Y-69575103D01*
X51470395Y-69560960D01*
X50715812Y-68806377D01*
X50685000Y-68814440D01*
X50685000Y-61697845D01*
X50922956Y-61856842D01*
X51462540Y-61964172D01*
X52002124Y-61856842D01*
X52459561Y-61551193D01*
X52765210Y-61093756D01*
X52872540Y-60554172D01*
X52872540Y-60244028D01*
X52765210Y-59704444D01*
X52459561Y-59247007D01*
X52002124Y-58941358D01*
X51462540Y-58834028D01*
X50922956Y-58941358D01*
X50685000Y-59100355D01*
X50685000Y-54697845D01*
X50922956Y-54856842D01*
X51462540Y-54964172D01*
X52002124Y-54856842D01*
X52459561Y-54551193D01*
X52561186Y-54399100D01*
X52877855Y-54399100D01*
X52973767Y-54881281D01*
X53246900Y-55290055D01*
X53655674Y-55563188D01*
X54137855Y-55659100D01*
X54187225Y-55659100D01*
X54669406Y-55563188D01*
X54786173Y-55485167D01*
X57992938Y-55485167D01*
X58134983Y-55828943D01*
X58397773Y-56092192D01*
X58741301Y-56234838D01*
X58853795Y-56234936D01*
X58774057Y-56267883D01*
X58510808Y-56530673D01*
X58368162Y-56874201D01*
X58367838Y-57246167D01*
X58509883Y-57589943D01*
X58772673Y-57853192D01*
X59116201Y-57995838D01*
X59488167Y-57996162D01*
X59831943Y-57854117D01*
X60095192Y-57591327D01*
X60237838Y-57247799D01*
X60237879Y-57200923D01*
X62138502Y-55300300D01*
X75150437Y-55300300D01*
X75182573Y-55332492D01*
X75526101Y-55475138D01*
X75898067Y-55475462D01*
X76241843Y-55333417D01*
X76505092Y-55070627D01*
X76647738Y-54727099D01*
X76647774Y-54686292D01*
X76725643Y-54654117D01*
X76988892Y-54391327D01*
X77131538Y-54047799D01*
X77131862Y-53675833D01*
X76989817Y-53332057D01*
X76727027Y-53068808D01*
X76383499Y-52926162D01*
X76011533Y-52925838D01*
X75667757Y-53067883D01*
X75634582Y-53101000D01*
X60367100Y-53101000D01*
X60076260Y-53158852D01*
X59829699Y-53323599D01*
X58788420Y-54364878D01*
X58742933Y-54364838D01*
X58399157Y-54506883D01*
X58135908Y-54769673D01*
X57993262Y-55113201D01*
X57992938Y-55485167D01*
X54786173Y-55485167D01*
X55078180Y-55290055D01*
X55351313Y-54881281D01*
X55447225Y-54399100D01*
X55351313Y-53916919D01*
X55078180Y-53508145D01*
X54669406Y-53235012D01*
X54187225Y-53139100D01*
X54137855Y-53139100D01*
X53655674Y-53235012D01*
X53246900Y-53508145D01*
X52973767Y-53916919D01*
X52877855Y-54399100D01*
X52561186Y-54399100D01*
X52765210Y-54093756D01*
X52872540Y-53554172D01*
X52872540Y-53244028D01*
X52765210Y-52704444D01*
X52459561Y-52247007D01*
X52002124Y-51941358D01*
X51462540Y-51834028D01*
X50922956Y-51941358D01*
X50685000Y-52100355D01*
X50685000Y-50685000D01*
X93315000Y-50685000D01*
X93315000Y-62759184D01*
G36*
X76077200Y-60752002D02*
X76077200Y-63414837D01*
X76045008Y-63446973D01*
X75902362Y-63790501D01*
X75902038Y-64162467D01*
X76044083Y-64506243D01*
X76096332Y-64558584D01*
X76135052Y-64753239D01*
X76299799Y-64999801D01*
X77113799Y-65813801D01*
X77360361Y-65978548D01*
X77479710Y-66002288D01*
X74097120Y-69384878D01*
X74051633Y-69384838D01*
X73707857Y-69526883D01*
X73531533Y-69702900D01*
X66081307Y-69702900D01*
X66103432Y-69591670D01*
X74190480Y-61504622D01*
X74235967Y-61504662D01*
X74579743Y-61362617D01*
X74842992Y-61099827D01*
X74985638Y-60756299D01*
X74985962Y-60384333D01*
X74916143Y-60215358D01*
X75053238Y-59885199D01*
X75053305Y-59808000D01*
X75133198Y-59808000D01*
X76077200Y-60752002D01*
X76077200Y-60752002D01*
G37*
X76077200Y-60752002D02*
X76077200Y-63414837D01*
X76045008Y-63446973D01*
X75902362Y-63790501D01*
X75902038Y-64162467D01*
X76044083Y-64506243D01*
X76096332Y-64558584D01*
X76135052Y-64753239D01*
X76299799Y-64999801D01*
X77113799Y-65813801D01*
X77360361Y-65978548D01*
X77479710Y-66002288D01*
X74097120Y-69384878D01*
X74051633Y-69384838D01*
X73707857Y-69526883D01*
X73531533Y-69702900D01*
X66081307Y-69702900D01*
X66103432Y-69591670D01*
X74190480Y-61504622D01*
X74235967Y-61504662D01*
X74579743Y-61362617D01*
X74842992Y-61099827D01*
X74985638Y-60756299D01*
X74985962Y-60384333D01*
X74916143Y-60215358D01*
X75053238Y-59885199D01*
X75053305Y-59808000D01*
X75133198Y-59808000D01*
X76077200Y-60752002D01*
G36*
X60742599Y-62862701D02*
X62568099Y-64688201D01*
X62814661Y-64852948D01*
X63105500Y-64910800D01*
X65949098Y-64910800D01*
X64292198Y-66567700D01*
X58683902Y-66567700D01*
X60311101Y-64940501D01*
X60475848Y-64693940D01*
X60533700Y-64403100D01*
X60533700Y-62891901D01*
X60577401Y-62862701D01*
X60660000Y-62739083D01*
X60742599Y-62862701D01*
X60742599Y-62862701D01*
G37*
X60742599Y-62862701D02*
X62568099Y-64688201D01*
X62814661Y-64852948D01*
X63105500Y-64910800D01*
X65949098Y-64910800D01*
X64292198Y-66567700D01*
X58683902Y-66567700D01*
X60311101Y-64940501D01*
X60475848Y-64693940D01*
X60533700Y-64403100D01*
X60533700Y-62891901D01*
X60577401Y-62862701D01*
X60660000Y-62739083D01*
X60742599Y-62862701D01*
G36*
X88360910Y-62976441D02*
X88573110Y-63121431D01*
X88825000Y-63172440D01*
X89275000Y-63172440D01*
X89348080Y-63158689D01*
X89297852Y-63233861D01*
X89277743Y-63334957D01*
X89198559Y-63385910D01*
X89053569Y-63598110D01*
X89002560Y-63850000D01*
X89002560Y-65350000D01*
X89046838Y-65585317D01*
X89185910Y-65801441D01*
X89240000Y-65838399D01*
X89240000Y-66376302D01*
X89087046Y-66223081D01*
X88706777Y-66065180D01*
X88295029Y-66064821D01*
X88075642Y-66155470D01*
X88202148Y-65966140D01*
X88222257Y-65865043D01*
X88301441Y-65814090D01*
X88446431Y-65601890D01*
X88497440Y-65350000D01*
X88497440Y-63850000D01*
X88453162Y-63614683D01*
X88314090Y-63398559D01*
X88101890Y-63253569D01*
X87850000Y-63202560D01*
X87819842Y-63202560D01*
X88237596Y-62784806D01*
X88360910Y-62976441D01*
X88360910Y-62976441D01*
G37*
X88360910Y-62976441D02*
X88573110Y-63121431D01*
X88825000Y-63172440D01*
X89275000Y-63172440D01*
X89348080Y-63158689D01*
X89297852Y-63233861D01*
X89277743Y-63334957D01*
X89198559Y-63385910D01*
X89053569Y-63598110D01*
X89002560Y-63850000D01*
X89002560Y-65350000D01*
X89046838Y-65585317D01*
X89185910Y-65801441D01*
X89240000Y-65838399D01*
X89240000Y-66376302D01*
X89087046Y-66223081D01*
X88706777Y-66065180D01*
X88295029Y-66064821D01*
X88075642Y-66155470D01*
X88202148Y-65966140D01*
X88222257Y-65865043D01*
X88301441Y-65814090D01*
X88446431Y-65601890D01*
X88497440Y-65350000D01*
X88497440Y-63850000D01*
X88453162Y-63614683D01*
X88314090Y-63398559D01*
X88101890Y-63253569D01*
X87850000Y-63202560D01*
X87819842Y-63202560D01*
X88237596Y-62784806D01*
X88360910Y-62976441D01*
G36*
X82716047Y-59367951D02*
X78492897Y-63591101D01*
X78245999Y-63591101D01*
X77955160Y-63648953D01*
X77854787Y-63716020D01*
X77760833Y-63715938D01*
X77743789Y-63722980D01*
X77630317Y-63448357D01*
X77597200Y-63415182D01*
X77597200Y-60437200D01*
X77548946Y-60194614D01*
X77539348Y-60146360D01*
X77374601Y-59899799D01*
X76832502Y-59357700D01*
X82705796Y-59357700D01*
X82716047Y-59367951D01*
X82716047Y-59367951D01*
G37*
X82716047Y-59367951D02*
X78492897Y-63591101D01*
X78245999Y-63591101D01*
X77955160Y-63648953D01*
X77854787Y-63716020D01*
X77760833Y-63715938D01*
X77743789Y-63722980D01*
X77630317Y-63448357D01*
X77597200Y-63415182D01*
X77597200Y-60437200D01*
X77548946Y-60194614D01*
X77539348Y-60146360D01*
X77374601Y-59899799D01*
X76832502Y-59357700D01*
X82705796Y-59357700D01*
X82716047Y-59367951D01*
G36*
X65546399Y-59135101D02*
X65792961Y-59299848D01*
X66083800Y-59357700D01*
X70078498Y-59357700D01*
X66045398Y-63390800D01*
X64767918Y-63390800D01*
X64767962Y-63340033D01*
X64625917Y-62996257D01*
X64592800Y-62963082D01*
X64592800Y-62398100D01*
X64540285Y-62134094D01*
X64567440Y-62000000D01*
X64567440Y-59000000D01*
X64523162Y-58764683D01*
X64384090Y-58548559D01*
X64355172Y-58528800D01*
X64940098Y-58528800D01*
X65546399Y-59135101D01*
X65546399Y-59135101D01*
G37*
X65546399Y-59135101D02*
X65792961Y-59299848D01*
X66083800Y-59357700D01*
X70078498Y-59357700D01*
X66045398Y-63390800D01*
X64767918Y-63390800D01*
X64767962Y-63340033D01*
X64625917Y-62996257D01*
X64592800Y-62963082D01*
X64592800Y-62398100D01*
X64540285Y-62134094D01*
X64567440Y-62000000D01*
X64567440Y-59000000D01*
X64523162Y-58764683D01*
X64384090Y-58548559D01*
X64355172Y-58528800D01*
X64940098Y-58528800D01*
X65546399Y-59135101D01*
G36*
X90077560Y-62172000D02*
X89922440Y-62172000D01*
X89922440Y-61997440D01*
X90077560Y-61997440D01*
X90077560Y-62172000D01*
X90077560Y-62172000D01*
G37*
X90077560Y-62172000D02*
X89922440Y-62172000D01*
X89922440Y-61997440D01*
X90077560Y-61997440D01*
X90077560Y-62172000D01*
M02*
