G04 #@! TF.FileFunction,Copper,L1,Top,Signal*
%FSLAX46Y46*%
G04 Gerber Fmt 4.6, Leading zero omitted, Abs format (unit mm)*
G04 Created by KiCad (PCBNEW 4.0.5+dfsg1-4) date Sun Feb 26 18:39:17 2017*
%MOMM*%
%LPD*%
G01*
G04 APERTURE LIST*
%ADD10C,0.100000*%
%ADD11R,0.500000X0.900000*%
%ADD12R,0.797560X0.797560*%
%ADD13R,0.800000X0.750000*%
%ADD14R,0.750000X0.800000*%
%ADD15R,1.350000X0.400000*%
%ADD16O,1.250000X1.250000*%
%ADD17O,1.550000X1.800000*%
%ADD18R,1.600000X1.000000*%
%ADD19R,1.600000X0.800000*%
%ADD20R,3.000000X2.100000*%
%ADD21R,0.900000X0.500000*%
%ADD22R,1.400000X1.200000*%
%ADD23R,1.000000X1.000000*%
%ADD24R,3.000000X0.800000*%
%ADD25R,1.060000X0.650000*%
%ADD26C,1.397000*%
%ADD27R,1.397000X1.397000*%
%ADD28C,0.600000*%
%ADD29C,0.250000*%
%ADD30C,0.254000*%
G04 APERTURE END LIST*
D10*
D11*
X75850000Y-51400000D03*
X77350000Y-51400000D03*
D12*
X74349300Y-51400000D03*
X72850700Y-51400000D03*
D13*
X71350000Y-54900000D03*
X69850000Y-54900000D03*
D14*
X67200000Y-69550000D03*
X67200000Y-68050000D03*
D13*
X69650000Y-64600000D03*
X68150000Y-64600000D03*
X84150000Y-51400000D03*
X85650000Y-51400000D03*
D14*
X86800000Y-53550000D03*
X86800000Y-55050000D03*
D13*
X71350000Y-56700000D03*
X69850000Y-56700000D03*
X61550000Y-56000000D03*
X60050000Y-56000000D03*
X63050000Y-66300000D03*
X64550000Y-66300000D03*
X54250000Y-63100000D03*
X55750000Y-63100000D03*
X57750000Y-63100000D03*
X59250000Y-63100000D03*
X68250000Y-56700000D03*
X66750000Y-56700000D03*
D15*
X54162540Y-55599100D03*
X54162540Y-56249100D03*
X54162540Y-56899100D03*
X54162540Y-57549100D03*
X54162540Y-58199100D03*
D16*
X54162540Y-54399100D03*
X54162540Y-59399100D03*
D17*
X51462540Y-53399100D03*
X51462540Y-60399100D03*
D18*
X69100000Y-62100000D03*
X69100000Y-58900000D03*
X64100000Y-62100000D03*
X64100000Y-58900000D03*
D19*
X92900000Y-54125000D03*
X92900000Y-55375000D03*
X92900000Y-56625000D03*
X92900000Y-57875000D03*
X92900000Y-59125000D03*
X92900000Y-60375000D03*
X92900000Y-61625000D03*
X92900000Y-62875000D03*
D20*
X90000000Y-51575000D03*
X90000000Y-65425000D03*
D21*
X71400000Y-63550000D03*
X71400000Y-65050000D03*
D11*
X58150000Y-57100000D03*
X56650000Y-57100000D03*
X58150000Y-55300000D03*
X56650000Y-55300000D03*
X73750000Y-69200000D03*
X75250000Y-69200000D03*
X73850000Y-67200000D03*
X75350000Y-67200000D03*
X85650000Y-67700000D03*
X87150000Y-67700000D03*
X62850000Y-64500000D03*
X64350000Y-64500000D03*
X66750000Y-54900000D03*
X68250000Y-54900000D03*
D10*
G36*
X77673134Y-53305188D02*
X78062042Y-52916280D01*
X79122702Y-53976940D01*
X78733794Y-54365848D01*
X77673134Y-53305188D01*
X77673134Y-53305188D01*
G37*
G36*
X77107449Y-53870874D02*
X77496357Y-53481966D01*
X78557017Y-54542626D01*
X78168109Y-54931534D01*
X77107449Y-53870874D01*
X77107449Y-53870874D01*
G37*
G36*
X76541764Y-54436559D02*
X76930672Y-54047651D01*
X77991332Y-55108311D01*
X77602424Y-55497219D01*
X76541764Y-54436559D01*
X76541764Y-54436559D01*
G37*
G36*
X75976078Y-55002244D02*
X76364986Y-54613336D01*
X77425646Y-55673996D01*
X77036738Y-56062904D01*
X75976078Y-55002244D01*
X75976078Y-55002244D01*
G37*
G36*
X75410393Y-55567930D02*
X75799301Y-55179022D01*
X76859961Y-56239682D01*
X76471053Y-56628590D01*
X75410393Y-55567930D01*
X75410393Y-55567930D01*
G37*
G36*
X74844707Y-56133615D02*
X75233615Y-55744707D01*
X76294275Y-56805367D01*
X75905367Y-57194275D01*
X74844707Y-56133615D01*
X74844707Y-56133615D01*
G37*
G36*
X74279022Y-56699301D02*
X74667930Y-56310393D01*
X75728590Y-57371053D01*
X75339682Y-57759961D01*
X74279022Y-56699301D01*
X74279022Y-56699301D01*
G37*
G36*
X73713336Y-57264986D02*
X74102244Y-56876078D01*
X75162904Y-57936738D01*
X74773996Y-58325646D01*
X73713336Y-57264986D01*
X73713336Y-57264986D01*
G37*
G36*
X73147651Y-57830672D02*
X73536559Y-57441764D01*
X74597219Y-58502424D01*
X74208311Y-58891332D01*
X73147651Y-57830672D01*
X73147651Y-57830672D01*
G37*
G36*
X72581966Y-58396357D02*
X72970874Y-58007449D01*
X74031534Y-59068109D01*
X73642626Y-59457017D01*
X72581966Y-58396357D01*
X72581966Y-58396357D01*
G37*
G36*
X72016280Y-58962042D02*
X72405188Y-58573134D01*
X73465848Y-59633794D01*
X73076940Y-60022702D01*
X72016280Y-58962042D01*
X72016280Y-58962042D01*
G37*
G36*
X72405188Y-62426866D02*
X72016280Y-62037958D01*
X73076940Y-60977298D01*
X73465848Y-61366206D01*
X72405188Y-62426866D01*
X72405188Y-62426866D01*
G37*
G36*
X72970874Y-62992551D02*
X72581966Y-62603643D01*
X73642626Y-61542983D01*
X74031534Y-61931891D01*
X72970874Y-62992551D01*
X72970874Y-62992551D01*
G37*
G36*
X73536559Y-63558236D02*
X73147651Y-63169328D01*
X74208311Y-62108668D01*
X74597219Y-62497576D01*
X73536559Y-63558236D01*
X73536559Y-63558236D01*
G37*
G36*
X74102244Y-64123922D02*
X73713336Y-63735014D01*
X74773996Y-62674354D01*
X75162904Y-63063262D01*
X74102244Y-64123922D01*
X74102244Y-64123922D01*
G37*
G36*
X74667930Y-64689607D02*
X74279022Y-64300699D01*
X75339682Y-63240039D01*
X75728590Y-63628947D01*
X74667930Y-64689607D01*
X74667930Y-64689607D01*
G37*
G36*
X75233615Y-65255293D02*
X74844707Y-64866385D01*
X75905367Y-63805725D01*
X76294275Y-64194633D01*
X75233615Y-65255293D01*
X75233615Y-65255293D01*
G37*
G36*
X75799301Y-65820978D02*
X75410393Y-65432070D01*
X76471053Y-64371410D01*
X76859961Y-64760318D01*
X75799301Y-65820978D01*
X75799301Y-65820978D01*
G37*
G36*
X76364986Y-66386664D02*
X75976078Y-65997756D01*
X77036738Y-64937096D01*
X77425646Y-65326004D01*
X76364986Y-66386664D01*
X76364986Y-66386664D01*
G37*
G36*
X76930672Y-66952349D02*
X76541764Y-66563441D01*
X77602424Y-65502781D01*
X77991332Y-65891689D01*
X76930672Y-66952349D01*
X76930672Y-66952349D01*
G37*
G36*
X77496357Y-67518034D02*
X77107449Y-67129126D01*
X78168109Y-66068466D01*
X78557017Y-66457374D01*
X77496357Y-67518034D01*
X77496357Y-67518034D01*
G37*
G36*
X78062042Y-68083720D02*
X77673134Y-67694812D01*
X78733794Y-66634152D01*
X79122702Y-67023060D01*
X78062042Y-68083720D01*
X78062042Y-68083720D01*
G37*
G36*
X80077298Y-67023060D02*
X80466206Y-66634152D01*
X81526866Y-67694812D01*
X81137958Y-68083720D01*
X80077298Y-67023060D01*
X80077298Y-67023060D01*
G37*
G36*
X80642983Y-66457374D02*
X81031891Y-66068466D01*
X82092551Y-67129126D01*
X81703643Y-67518034D01*
X80642983Y-66457374D01*
X80642983Y-66457374D01*
G37*
G36*
X81208668Y-65891689D02*
X81597576Y-65502781D01*
X82658236Y-66563441D01*
X82269328Y-66952349D01*
X81208668Y-65891689D01*
X81208668Y-65891689D01*
G37*
G36*
X81774354Y-65326004D02*
X82163262Y-64937096D01*
X83223922Y-65997756D01*
X82835014Y-66386664D01*
X81774354Y-65326004D01*
X81774354Y-65326004D01*
G37*
G36*
X82340039Y-64760318D02*
X82728947Y-64371410D01*
X83789607Y-65432070D01*
X83400699Y-65820978D01*
X82340039Y-64760318D01*
X82340039Y-64760318D01*
G37*
G36*
X82905725Y-64194633D02*
X83294633Y-63805725D01*
X84355293Y-64866385D01*
X83966385Y-65255293D01*
X82905725Y-64194633D01*
X82905725Y-64194633D01*
G37*
G36*
X83471410Y-63628947D02*
X83860318Y-63240039D01*
X84920978Y-64300699D01*
X84532070Y-64689607D01*
X83471410Y-63628947D01*
X83471410Y-63628947D01*
G37*
G36*
X84037096Y-63063262D02*
X84426004Y-62674354D01*
X85486664Y-63735014D01*
X85097756Y-64123922D01*
X84037096Y-63063262D01*
X84037096Y-63063262D01*
G37*
G36*
X84602781Y-62497576D02*
X84991689Y-62108668D01*
X86052349Y-63169328D01*
X85663441Y-63558236D01*
X84602781Y-62497576D01*
X84602781Y-62497576D01*
G37*
G36*
X85168466Y-61931891D02*
X85557374Y-61542983D01*
X86618034Y-62603643D01*
X86229126Y-62992551D01*
X85168466Y-61931891D01*
X85168466Y-61931891D01*
G37*
G36*
X85734152Y-61366206D02*
X86123060Y-60977298D01*
X87183720Y-62037958D01*
X86794812Y-62426866D01*
X85734152Y-61366206D01*
X85734152Y-61366206D01*
G37*
G36*
X86123060Y-60022702D02*
X85734152Y-59633794D01*
X86794812Y-58573134D01*
X87183720Y-58962042D01*
X86123060Y-60022702D01*
X86123060Y-60022702D01*
G37*
G36*
X85557374Y-59457017D02*
X85168466Y-59068109D01*
X86229126Y-58007449D01*
X86618034Y-58396357D01*
X85557374Y-59457017D01*
X85557374Y-59457017D01*
G37*
G36*
X84991689Y-58891332D02*
X84602781Y-58502424D01*
X85663441Y-57441764D01*
X86052349Y-57830672D01*
X84991689Y-58891332D01*
X84991689Y-58891332D01*
G37*
G36*
X84426004Y-58325646D02*
X84037096Y-57936738D01*
X85097756Y-56876078D01*
X85486664Y-57264986D01*
X84426004Y-58325646D01*
X84426004Y-58325646D01*
G37*
G36*
X83860318Y-57759961D02*
X83471410Y-57371053D01*
X84532070Y-56310393D01*
X84920978Y-56699301D01*
X83860318Y-57759961D01*
X83860318Y-57759961D01*
G37*
G36*
X83294633Y-57194275D02*
X82905725Y-56805367D01*
X83966385Y-55744707D01*
X84355293Y-56133615D01*
X83294633Y-57194275D01*
X83294633Y-57194275D01*
G37*
G36*
X82728947Y-56628590D02*
X82340039Y-56239682D01*
X83400699Y-55179022D01*
X83789607Y-55567930D01*
X82728947Y-56628590D01*
X82728947Y-56628590D01*
G37*
G36*
X82163262Y-56062904D02*
X81774354Y-55673996D01*
X82835014Y-54613336D01*
X83223922Y-55002244D01*
X82163262Y-56062904D01*
X82163262Y-56062904D01*
G37*
G36*
X81597576Y-55497219D02*
X81208668Y-55108311D01*
X82269328Y-54047651D01*
X82658236Y-54436559D01*
X81597576Y-55497219D01*
X81597576Y-55497219D01*
G37*
G36*
X81031891Y-54931534D02*
X80642983Y-54542626D01*
X81703643Y-53481966D01*
X82092551Y-53870874D01*
X81031891Y-54931534D01*
X81031891Y-54931534D01*
G37*
G36*
X80466206Y-54365848D02*
X80077298Y-53976940D01*
X81137958Y-52916280D01*
X81526866Y-53305188D01*
X80466206Y-54365848D01*
X80466206Y-54365848D01*
G37*
D22*
X69600000Y-69300000D03*
X71800000Y-69300000D03*
X69600000Y-67700000D03*
X71800000Y-67700000D03*
D13*
X84050000Y-69700000D03*
X82550000Y-69700000D03*
X67150000Y-53100000D03*
X68650000Y-53100000D03*
X58250000Y-67200000D03*
X59750000Y-67200000D03*
X58150000Y-65200000D03*
X59650000Y-65200000D03*
D12*
X56400000Y-52649300D03*
X56400000Y-51150700D03*
D23*
X85645000Y-69700000D03*
X87755000Y-69700000D03*
D24*
X91900000Y-70100000D03*
X91900000Y-68300000D03*
D11*
X60850000Y-51300000D03*
X59350000Y-51300000D03*
X68450000Y-51300000D03*
X66950000Y-51300000D03*
D21*
X52000000Y-66850000D03*
X52000000Y-65350000D03*
D25*
X62800000Y-51350000D03*
X62800000Y-52300000D03*
X62800000Y-53250000D03*
X65000000Y-53250000D03*
X65000000Y-51350000D03*
X54100000Y-65250000D03*
X54100000Y-66200000D03*
X54100000Y-67150000D03*
X56300000Y-67150000D03*
X56300000Y-65250000D03*
D26*
X59270000Y-69439040D03*
X56730000Y-69560960D03*
X61810000Y-69560960D03*
X54190000Y-69439040D03*
D27*
X64350000Y-69439040D03*
D26*
X51650000Y-69560960D03*
D28*
X75500000Y-60700000D03*
X68200000Y-68100000D03*
X78000000Y-59800000D03*
X88900000Y-63400000D03*
X92900000Y-66800000D03*
X61300000Y-65200000D03*
X79300000Y-68800000D03*
X66700000Y-60500000D03*
X91331700Y-63046900D03*
X86647500Y-69720000D03*
X82719500Y-63633500D03*
X74236800Y-70320000D03*
X80003100Y-65235700D03*
X83260100Y-61437700D03*
X85134200Y-60022200D03*
X62662500Y-58416900D03*
X63832800Y-63525200D03*
X54250000Y-62223500D03*
X55227800Y-63977600D03*
X57563500Y-63986800D03*
X59143000Y-64097900D03*
X62979600Y-56525000D03*
X76837200Y-63977300D03*
X77946000Y-64651100D03*
X62790800Y-62575000D03*
X81310800Y-65041300D03*
X88085700Y-58788700D03*
X86241500Y-63706100D03*
X87727200Y-60031500D03*
X83727600Y-58379700D03*
X93370100Y-63777600D03*
X66229300Y-57858900D03*
X68617800Y-63316900D03*
X71956700Y-59703200D03*
X74118400Y-59698400D03*
X74050800Y-60569500D03*
X75712900Y-54540300D03*
X59303000Y-57061000D03*
X76196700Y-53861000D03*
X58928100Y-55300000D03*
D29*
X69600000Y-69300000D02*
X69600000Y-69762600D01*
X67200000Y-69550000D02*
X67900300Y-69550000D01*
X75569500Y-64530500D02*
X74809200Y-65290800D01*
X68112900Y-69762600D02*
X67900300Y-69550000D01*
X69600000Y-69762600D02*
X68112900Y-69762600D01*
X74809100Y-65290800D02*
X74809200Y-65290800D01*
X74526900Y-65290800D02*
X74809100Y-65290800D01*
X72887100Y-66930600D02*
X74526900Y-65290800D01*
X72887100Y-69981900D02*
X72887100Y-66930600D01*
X72643600Y-70225400D02*
X72887100Y-69981900D01*
X70062800Y-70225400D02*
X72643600Y-70225400D01*
X69600000Y-69762600D02*
X70062800Y-70225400D01*
X75500000Y-60700000D02*
X77100000Y-60700000D01*
X67200000Y-68050000D02*
X68150000Y-68050000D01*
X68150000Y-68050000D02*
X68200000Y-68100000D01*
X77100000Y-60700000D02*
X78000000Y-59800000D01*
X85650000Y-67700000D02*
X85650000Y-67900000D01*
X85650000Y-67900000D02*
X86235200Y-68485200D01*
X86235200Y-68485200D02*
X89889500Y-68485200D01*
X89889500Y-68485200D02*
X90074700Y-68300000D01*
X90074700Y-68300000D02*
X91900000Y-68300000D01*
X86449900Y-53550000D02*
X86090800Y-53909100D01*
X86090800Y-53909100D02*
X86090800Y-57408900D01*
X86090800Y-57408900D02*
X86500000Y-57818100D01*
X86500000Y-57818100D02*
X86500000Y-58125500D01*
X86500000Y-58125500D02*
X85893300Y-58732200D01*
X91900000Y-68300000D02*
X91900000Y-67800000D01*
X91900000Y-67800000D02*
X92900000Y-66800000D01*
X59650000Y-65200000D02*
X61300000Y-65200000D01*
X80802082Y-67358936D02*
X80741064Y-67358936D01*
X80741064Y-67358936D02*
X79300000Y-68800000D01*
X67974700Y-60500000D02*
X66700000Y-60500000D01*
X59750000Y-66000300D02*
X59650000Y-65900300D01*
X59750000Y-67200000D02*
X59750000Y-66000300D01*
X59650000Y-65200000D02*
X59650000Y-65900300D01*
X81367800Y-54206700D02*
X82128200Y-53446300D01*
X68250000Y-55999700D02*
X71350000Y-55999700D01*
X68250000Y-56700000D02*
X68250000Y-55999700D01*
X71350000Y-56700000D02*
X71350000Y-56349800D01*
X71350000Y-56349800D02*
X71350000Y-55999700D01*
X85650000Y-51400000D02*
X85650000Y-52100300D01*
X85650000Y-53100300D02*
X86099700Y-53550000D01*
X85650000Y-52100300D02*
X85650000Y-53100300D01*
X86449900Y-53550000D02*
X86099700Y-53550000D01*
X76135200Y-55903800D02*
X75374900Y-55143400D01*
X85650000Y-51400000D02*
X85650000Y-50699700D01*
X51224600Y-69135600D02*
X51650000Y-69561000D01*
X51224600Y-66462300D02*
X51224600Y-69135600D01*
X51486900Y-66200000D02*
X51224600Y-66462300D01*
X64550000Y-65475300D02*
X64350000Y-65275300D01*
X64550000Y-66300000D02*
X64550000Y-65475300D01*
X86625000Y-53550000D02*
X86449900Y-53550000D01*
X92900000Y-61625000D02*
X91774700Y-61625000D01*
X92243500Y-67956500D02*
X91900000Y-68300000D01*
X92243500Y-63958700D02*
X92243500Y-67956500D01*
X91331700Y-63046900D02*
X92243500Y-63958700D01*
X64350000Y-64500000D02*
X64350000Y-64887600D01*
X64350000Y-64887600D02*
X64350000Y-65275300D01*
X67137100Y-64887600D02*
X67424700Y-64600000D01*
X64350000Y-64887600D02*
X67137100Y-64887600D01*
X71350000Y-55999700D02*
X71350000Y-54900000D01*
X86625000Y-53550000D02*
X86800000Y-53550000D01*
X82128200Y-53446300D02*
X82128200Y-52156900D01*
X83585400Y-50699700D02*
X85650000Y-50699700D01*
X82128200Y-52156900D02*
X83585400Y-50699700D01*
X54162500Y-57549100D02*
X53162200Y-57549100D01*
X57411700Y-52300000D02*
X62800000Y-52300000D01*
X57036700Y-51925000D02*
X57411700Y-52300000D01*
X55259600Y-51925000D02*
X57036700Y-51925000D01*
X53162200Y-54022400D02*
X55259600Y-51925000D01*
X53162200Y-57549100D02*
X53162200Y-54022400D01*
X59750000Y-67200000D02*
X60475300Y-67200000D01*
X51486900Y-66200000D02*
X54100000Y-66200000D01*
X54100000Y-66200000D02*
X54955300Y-66200000D01*
X59104400Y-56220300D02*
X59324700Y-56000000D01*
X57829700Y-56220300D02*
X59104400Y-56220300D01*
X57350000Y-56700000D02*
X57829700Y-56220300D01*
X57350000Y-57575500D02*
X57350000Y-56700000D01*
X56726400Y-58199100D02*
X57350000Y-57575500D01*
X54162500Y-58199100D02*
X56726400Y-58199100D01*
X60050000Y-56000000D02*
X59324700Y-56000000D01*
X76774600Y-51648800D02*
X75062700Y-53360700D01*
X76774600Y-50740300D02*
X76774600Y-51648800D01*
X76945000Y-50569900D02*
X76774600Y-50740300D01*
X80541200Y-50569900D02*
X76945000Y-50569900D01*
X82128200Y-52156900D02*
X80541200Y-50569900D01*
X73574800Y-51998400D02*
X73574800Y-51400000D01*
X74937100Y-53360700D02*
X73574800Y-51998400D01*
X75062700Y-53360700D02*
X74937100Y-53360700D01*
X72850700Y-51400000D02*
X73574800Y-51400000D01*
X67787400Y-64600000D02*
X67424700Y-64600000D01*
X91331700Y-62068000D02*
X91774700Y-61625000D01*
X91331700Y-63046900D02*
X91331700Y-62068000D01*
X67968700Y-64600000D02*
X67787400Y-64600000D01*
X67968700Y-64600000D02*
X68150000Y-64600000D01*
X53162200Y-57549100D02*
X53162200Y-58199100D01*
X54162500Y-58199100D02*
X53162200Y-58199100D01*
X75148200Y-54916800D02*
X75374900Y-55143400D01*
X75148200Y-54859900D02*
X75148200Y-54916800D01*
X75087600Y-54799300D02*
X75148200Y-54859900D01*
X75087600Y-53921200D02*
X75087600Y-54799300D01*
X75062700Y-53896300D02*
X75087600Y-53921200D01*
X75062700Y-53360700D02*
X75062700Y-53896300D01*
X53162200Y-60517400D02*
X53162200Y-58199100D01*
X51224600Y-62455000D02*
X53162200Y-60517400D01*
X51224600Y-65937700D02*
X51224600Y-62455000D01*
X51486900Y-66200000D02*
X51224600Y-65937700D01*
X68650000Y-53100000D02*
X68650000Y-52399700D01*
X68450000Y-51300000D02*
X68450000Y-51625000D01*
X68450000Y-51625000D02*
X68450000Y-52075300D01*
X71901600Y-51625000D02*
X72126600Y-51400000D01*
X68450000Y-51625000D02*
X71901600Y-51625000D01*
X72850700Y-51400000D02*
X72126600Y-51400000D01*
X68387800Y-52137500D02*
X68650000Y-52399700D01*
X68225300Y-52300000D02*
X68387800Y-52137500D01*
X62800000Y-52300000D02*
X68225300Y-52300000D01*
X68387800Y-52137500D02*
X68450000Y-52075300D01*
X74438100Y-63399100D02*
X75198400Y-62638800D01*
X85650000Y-67700000D02*
X85074700Y-67700000D01*
X80802100Y-67358900D02*
X81311900Y-67868700D01*
X82550000Y-69700000D02*
X82550000Y-68999700D01*
X82442900Y-68999700D02*
X82550000Y-68999700D01*
X81311900Y-67868700D02*
X82442900Y-68999700D01*
X83849700Y-67700000D02*
X85074700Y-67700000D01*
X82550000Y-68999700D02*
X83849700Y-67700000D01*
X78571300Y-65128100D02*
X80802100Y-67358900D01*
X78571300Y-64392000D02*
X78571300Y-65128100D01*
X78205100Y-64025800D02*
X78571300Y-64392000D01*
X77830000Y-64025800D02*
X78205100Y-64025800D01*
X76863200Y-63059000D02*
X77830000Y-64025800D01*
X75915700Y-63059000D02*
X76863200Y-63059000D01*
X75495500Y-62638800D02*
X75915700Y-63059000D01*
X75198400Y-62638800D02*
X75495500Y-62638800D01*
X62839800Y-70030300D02*
X62839800Y-68418700D01*
X62284100Y-70586000D02*
X62839800Y-70030300D01*
X58917800Y-70586000D02*
X62284100Y-70586000D01*
X58061100Y-69729300D02*
X58917800Y-70586000D01*
X58061100Y-69444000D02*
X58061100Y-69729300D01*
X56517500Y-67900400D02*
X58061100Y-69444000D01*
X55723800Y-67900400D02*
X56517500Y-67900400D01*
X54955300Y-67131900D02*
X55723800Y-67900400D01*
X54955300Y-66200000D02*
X54955300Y-67131900D01*
X61621100Y-67200000D02*
X60475300Y-67200000D01*
X62839800Y-68418700D02*
X61621100Y-67200000D01*
X64258200Y-67000300D02*
X64550000Y-67000300D01*
X62839800Y-68418700D02*
X64258200Y-67000300D01*
X64550000Y-66300000D02*
X64550000Y-66650100D01*
X64550000Y-66650100D02*
X64550000Y-67000300D01*
X65099800Y-66650100D02*
X66499700Y-68050000D01*
X64550000Y-66650100D02*
X65099800Y-66650100D01*
X67200000Y-68050000D02*
X66499700Y-68050000D01*
X69100000Y-62100000D02*
X67974700Y-62100000D01*
X72211800Y-65625400D02*
X74438100Y-63399100D01*
X70775200Y-65625400D02*
X72211800Y-65625400D01*
X70612000Y-65462200D02*
X70775200Y-65625400D01*
X70612000Y-64319300D02*
X70612000Y-65462200D01*
X70192300Y-63899600D02*
X70612000Y-64319300D01*
X68919600Y-63899600D02*
X70192300Y-63899600D01*
X68856400Y-63962800D02*
X68919600Y-63899600D01*
X67974700Y-63962800D02*
X68856400Y-63962800D01*
X67787400Y-64150100D02*
X67974700Y-63962800D01*
X67787400Y-64600000D02*
X67787400Y-64150100D01*
X67974700Y-63962800D02*
X67974700Y-62100000D01*
X70675700Y-58074600D02*
X71350000Y-57400300D01*
X68164500Y-58074600D02*
X70675700Y-58074600D01*
X67974700Y-58264400D02*
X68164500Y-58074600D01*
X67974700Y-62100000D02*
X67974700Y-60500000D01*
X67974700Y-60500000D02*
X67974700Y-58264400D01*
X71350000Y-56700000D02*
X71350000Y-57400300D01*
X71800000Y-67700000D02*
X71800000Y-66774700D01*
X75003800Y-63964800D02*
X74243500Y-64725100D01*
X69650000Y-64600000D02*
X69650000Y-65300300D01*
X71800000Y-66256200D02*
X71800000Y-66774700D01*
X72318500Y-66256200D02*
X71800000Y-66256200D01*
X73849600Y-64725100D02*
X72318500Y-66256200D01*
X74243400Y-64725100D02*
X73849600Y-64725100D01*
X74243500Y-64725100D02*
X74243400Y-64725100D01*
X70605900Y-66256200D02*
X69650000Y-65300300D01*
X71800000Y-66256200D02*
X70605900Y-66256200D01*
X82719500Y-63633500D02*
X82719500Y-61822102D01*
X82719500Y-61822102D02*
X82600000Y-61702602D01*
X82600000Y-61702602D02*
X82600000Y-60158820D01*
X82600000Y-60158820D02*
X79341180Y-56900000D01*
X79341180Y-56900000D02*
X77295687Y-56900000D01*
X77295687Y-56900000D02*
X76595687Y-57600000D01*
X76595687Y-57600000D02*
X75568649Y-57600000D01*
X75568649Y-57600000D02*
X75384000Y-57415400D01*
X75384000Y-57415400D02*
X71768900Y-53800300D01*
X71768900Y-53800300D02*
X67150000Y-53800300D01*
X67150000Y-53800300D02*
X67150000Y-53100000D01*
X86909700Y-69720000D02*
X86929700Y-69700000D01*
X86647500Y-69720000D02*
X86909700Y-69720000D01*
X87342400Y-69700000D02*
X86929700Y-69700000D01*
X57724800Y-53250000D02*
X57124100Y-52649300D01*
X62800000Y-53250000D02*
X57724800Y-53250000D01*
X56400000Y-52649300D02*
X57124100Y-52649300D01*
X56400000Y-53559100D02*
X56400000Y-52649300D01*
X54360000Y-55599100D02*
X56400000Y-53559100D01*
X54162500Y-55599100D02*
X54360000Y-55599100D01*
X87342400Y-69700000D02*
X87755000Y-69700000D01*
X89674700Y-69700000D02*
X90074700Y-70100000D01*
X87755000Y-69700000D02*
X89674700Y-69700000D01*
X91900000Y-70100000D02*
X90074700Y-70100000D01*
X62800000Y-53250000D02*
X65000000Y-53250000D01*
X66274700Y-53250000D02*
X66424700Y-53100000D01*
X65000000Y-53250000D02*
X66274700Y-53250000D01*
X67150000Y-53100000D02*
X66424700Y-53100000D01*
X84150000Y-52555900D02*
X84150000Y-51400000D01*
X81933500Y-54772400D02*
X84150000Y-52555900D01*
X73872400Y-62833500D02*
X73205900Y-63500000D01*
X71400000Y-65050000D02*
X71600000Y-65050000D01*
X71600000Y-65050000D02*
X73150000Y-63500000D01*
X73150000Y-63500000D02*
X73205900Y-63500000D01*
X86800000Y-55050000D02*
X86800000Y-55775300D01*
X86800000Y-55775300D02*
X87132200Y-56107500D01*
X87132200Y-56107500D02*
X87132200Y-58624600D01*
X87132200Y-58624600D02*
X85698600Y-60058200D01*
X85698600Y-60058200D02*
X85170200Y-60058200D01*
X85170200Y-60058200D02*
X85134200Y-60022200D01*
X74547487Y-62158400D02*
X75300000Y-62158400D01*
X75300000Y-62158400D02*
X75652000Y-62158400D01*
X73872435Y-62833452D02*
X74547487Y-62158400D01*
X78433273Y-54807790D02*
X77832233Y-54206750D01*
X75569491Y-56469491D02*
X76053600Y-56953600D01*
X76053600Y-56953600D02*
X76605677Y-56953600D01*
X76605677Y-56953600D02*
X78433273Y-55126004D01*
X78433273Y-55126004D02*
X78433273Y-54807790D01*
X83260100Y-61437700D02*
X83260100Y-60182510D01*
X83260100Y-60182510D02*
X78433273Y-55355683D01*
X78433273Y-55355683D02*
X78433273Y-54807790D01*
X69850000Y-54900000D02*
X68250000Y-54900000D01*
X81367800Y-66793300D02*
X80607500Y-66032900D01*
X73750000Y-68075300D02*
X73850000Y-67975300D01*
X73750000Y-69200000D02*
X73750000Y-68075300D01*
X73850000Y-67200000D02*
X73850000Y-67975300D01*
X73892100Y-69975300D02*
X73750000Y-69975300D01*
X74236800Y-70320000D02*
X73892100Y-69975300D01*
X73750000Y-69200000D02*
X73750000Y-69975300D01*
X80003100Y-65235800D02*
X80003100Y-65235700D01*
X80089800Y-65322500D02*
X80003100Y-65235800D01*
X80089800Y-65366500D02*
X80089800Y-65322500D01*
X80158400Y-65435100D02*
X80089800Y-65366500D01*
X80158400Y-65583900D02*
X80158400Y-65435100D01*
X80607500Y-66032900D02*
X80158400Y-65583900D01*
X84452500Y-60022200D02*
X85134200Y-60022200D01*
X82626800Y-58196500D02*
X84452500Y-60022200D01*
X82626800Y-57844700D02*
X82626800Y-58196500D01*
X80317600Y-55535500D02*
X82626800Y-57844700D01*
X80317600Y-54125600D02*
X80317600Y-55535500D01*
X80802100Y-53641100D02*
X80317600Y-54125600D01*
X69850000Y-56700000D02*
X69850000Y-57400300D01*
X58150000Y-65200000D02*
X58150000Y-64499700D01*
X68250000Y-54900000D02*
X67674700Y-54900000D01*
X67500000Y-57400300D02*
X69850000Y-57400300D01*
X67500000Y-55074700D02*
X67674700Y-54900000D01*
X67500000Y-57400300D02*
X67500000Y-55074700D01*
X58475400Y-64174300D02*
X58150000Y-64499700D01*
X58475400Y-62598900D02*
X58475400Y-64174300D01*
X60327300Y-60747000D02*
X58475400Y-62598900D01*
X64242000Y-60747000D02*
X60327300Y-60747000D01*
X67500000Y-57489000D02*
X64242000Y-60747000D01*
X67500000Y-57400300D02*
X67500000Y-57489000D01*
X79021600Y-64254200D02*
X80003100Y-65235700D01*
X79021600Y-64205400D02*
X79021600Y-64254200D01*
X78391700Y-63575500D02*
X79021600Y-64205400D01*
X78342900Y-63575500D02*
X78391700Y-63575500D01*
X77376000Y-62608600D02*
X78342900Y-63575500D01*
X76739100Y-62608600D02*
X77376000Y-62608600D01*
X76739000Y-62608500D02*
X76739100Y-62608600D01*
X76102100Y-62608500D02*
X76739000Y-62608500D01*
X75652000Y-62158400D02*
X76102100Y-62608500D01*
X58250000Y-66000300D02*
X58150000Y-65900300D01*
X58250000Y-67200000D02*
X58250000Y-66000300D01*
X58150000Y-65200000D02*
X58150000Y-65900300D01*
X57374700Y-65250000D02*
X57424700Y-65200000D01*
X56300000Y-65250000D02*
X57374700Y-65250000D01*
X58150000Y-65200000D02*
X57424700Y-65200000D01*
X60149300Y-67900300D02*
X58250000Y-67900300D01*
X61810000Y-69561000D02*
X60149300Y-67900300D01*
X58250000Y-67200000D02*
X58250000Y-67900300D01*
X61550000Y-57304400D02*
X61550000Y-56000000D01*
X62662500Y-58416900D02*
X61550000Y-57304400D01*
X63750300Y-64899400D02*
X63050000Y-65599700D01*
X63750300Y-63607700D02*
X63750300Y-64899400D01*
X63832800Y-63525200D02*
X63750300Y-63607700D01*
X63050000Y-66300000D02*
X63050000Y-65599700D01*
X54250000Y-62223500D02*
X54250000Y-63100000D01*
X55750000Y-63100000D02*
X55750000Y-63800300D01*
X55405100Y-63800300D02*
X55227800Y-63977600D01*
X55750000Y-63800300D02*
X55405100Y-63800300D01*
X57750000Y-63100000D02*
X57750000Y-63800300D01*
X57563500Y-63986800D02*
X57750000Y-63800300D01*
X59250000Y-63100000D02*
X59250000Y-63800300D01*
X59143100Y-64097900D02*
X59143000Y-64097900D01*
X59143100Y-63907200D02*
X59143100Y-64097900D01*
X59250000Y-63800300D02*
X59143100Y-63907200D01*
X66750000Y-56700000D02*
X66024700Y-56700000D01*
X66750000Y-54900000D02*
X66750000Y-55675300D01*
X66750000Y-55675300D02*
X65875000Y-56550300D01*
X65875000Y-56550300D02*
X66024700Y-56700000D01*
X65849700Y-56525000D02*
X62979600Y-56525000D01*
X65875000Y-56550300D02*
X65849700Y-56525000D01*
X55162800Y-56211900D02*
X56074700Y-55300000D01*
X55162800Y-56249100D02*
X55162800Y-56211900D01*
X56650000Y-55300000D02*
X56074700Y-55300000D01*
X54162500Y-56249100D02*
X55162800Y-56249100D01*
X55873800Y-56899100D02*
X56074700Y-57100000D01*
X54162500Y-56899100D02*
X55873800Y-56899100D01*
X56650000Y-57100000D02*
X56074700Y-57100000D01*
X74349300Y-51400000D02*
X75850000Y-51400000D01*
X76290390Y-62158490D02*
X75700000Y-61568100D01*
X75700000Y-61568100D02*
X74162100Y-61568100D01*
X76641510Y-62158490D02*
X76290390Y-62158490D01*
X79916299Y-64416299D02*
X77600000Y-62100000D01*
X77600000Y-62100000D02*
X76700000Y-62100000D01*
X76700000Y-62100000D02*
X76641510Y-62158490D01*
X83064823Y-65096194D02*
X82384928Y-64416299D01*
X82384928Y-64416299D02*
X79916299Y-64416299D01*
X71962800Y-60637500D02*
X70225300Y-58900000D01*
X73231500Y-60637500D02*
X71962800Y-60637500D01*
X74162100Y-61568100D02*
X73231500Y-60637500D01*
X69100000Y-58900000D02*
X70225300Y-58900000D01*
X75350000Y-65881400D02*
X76135200Y-65096200D01*
X75350000Y-67200000D02*
X75350000Y-65881400D01*
X76135200Y-65096200D02*
X76895600Y-64335800D01*
X76837200Y-64277500D02*
X76895600Y-64335800D01*
X76837200Y-63977300D02*
X76837200Y-64277500D01*
X75250000Y-69200000D02*
X75825300Y-69200000D01*
X75940500Y-66422300D02*
X76700900Y-65661900D01*
X75940500Y-69084800D02*
X75940500Y-66422300D01*
X75825300Y-69200000D02*
X75940500Y-69084800D01*
X77695500Y-64901600D02*
X77461200Y-64901600D01*
X77946000Y-64651100D02*
X77695500Y-64901600D01*
X76700900Y-65661900D02*
X77461200Y-64901600D01*
X62790800Y-63665500D02*
X62850000Y-63724700D01*
X62790800Y-62575000D02*
X62790800Y-63665500D01*
X62850000Y-64500000D02*
X62850000Y-63724700D01*
X81933500Y-66227600D02*
X81305983Y-65600000D01*
X81310800Y-65041300D02*
X81310800Y-65595183D01*
X81310800Y-65595183D02*
X81305983Y-65600000D01*
X88999400Y-57875000D02*
X88085700Y-58788700D01*
X92900000Y-57875000D02*
X88999400Y-57875000D01*
X90868200Y-60031500D02*
X91774700Y-59125000D01*
X87727200Y-60031500D02*
X90868200Y-60031500D01*
X92900000Y-59125000D02*
X91774700Y-59125000D01*
X86200200Y-63706100D02*
X86241500Y-63706100D01*
X85327600Y-62833500D02*
X86200200Y-63706100D01*
X85327600Y-58166500D02*
X84800000Y-58694100D01*
X83727600Y-58379700D02*
X84042000Y-58694100D01*
X84042000Y-58694100D02*
X84800000Y-58694100D01*
X52000000Y-65350000D02*
X52775300Y-65350000D01*
X93370100Y-63345100D02*
X93370100Y-63777600D01*
X92900000Y-62875000D02*
X93370100Y-63345100D01*
X64100000Y-58900000D02*
X65225300Y-58900000D01*
X66229300Y-57896000D02*
X65225300Y-58900000D01*
X66229300Y-57858900D02*
X66229300Y-57896000D01*
X52875300Y-65250000D02*
X54100000Y-65250000D01*
X52775300Y-65350000D02*
X52875300Y-65250000D01*
X63636800Y-59363200D02*
X64100000Y-58900000D01*
X60244500Y-59363200D02*
X63636800Y-59363200D01*
X56499100Y-63108600D02*
X60244500Y-59363200D01*
X56499100Y-63706200D02*
X56499100Y-63108600D01*
X54955300Y-65250000D02*
X56499100Y-63706200D01*
X54100000Y-65250000D02*
X54955300Y-65250000D01*
X73306700Y-62267800D02*
X72700000Y-62874500D01*
X71400000Y-63550000D02*
X71600000Y-63550000D01*
X71600000Y-63550000D02*
X72275500Y-62874500D01*
X72275500Y-62874500D02*
X72700000Y-62874500D01*
X71400000Y-63550000D02*
X70624700Y-63550000D01*
X70391600Y-63316900D02*
X68617800Y-63316900D01*
X70624700Y-63550000D02*
X70391600Y-63316900D01*
X73306700Y-58732200D02*
X72546300Y-57971800D01*
X71677900Y-58840200D02*
X72546300Y-57971800D01*
X71677900Y-59424400D02*
X71677900Y-58840200D01*
X71956700Y-59703200D02*
X71677900Y-59424400D01*
X73872400Y-58166500D02*
X74405970Y-58700000D01*
X74118400Y-59698400D02*
X74418399Y-59398401D01*
X74418399Y-59398401D02*
X74418399Y-58712429D01*
X74418399Y-58712429D02*
X74405970Y-58700000D01*
X74012700Y-60569500D02*
X74050800Y-60569500D01*
X72741100Y-59297900D02*
X74012700Y-60569500D01*
X78450000Y-52500000D02*
X79600000Y-53650000D01*
X78450000Y-52500000D02*
X77350000Y-51400000D01*
X85893300Y-62267800D02*
X85133000Y-61507400D01*
X85133000Y-61507300D02*
X85133000Y-61507400D01*
X84508900Y-60883200D02*
X85133000Y-61507300D01*
X84508900Y-60794900D02*
X84508900Y-60883200D01*
X82017500Y-58303500D02*
X84508900Y-60794900D01*
X82017500Y-58144300D02*
X82017500Y-58303500D01*
X79600000Y-55726800D02*
X82017500Y-58144300D01*
X79600000Y-53650000D02*
X79600000Y-55726800D01*
X75750400Y-54577800D02*
X75712900Y-54540300D01*
X75940500Y-54577800D02*
X75750400Y-54577800D01*
X75940600Y-54577700D02*
X75940500Y-54577800D01*
X58764300Y-57061000D02*
X58725300Y-57100000D01*
X59303000Y-57061000D02*
X58764300Y-57061000D01*
X58150000Y-57100000D02*
X58725300Y-57100000D01*
X76700900Y-55338100D02*
X75940600Y-54577700D01*
X58150000Y-55300000D02*
X58725300Y-55300000D01*
X77266500Y-54772400D02*
X76506300Y-54012100D01*
X58725300Y-55300000D02*
X58928100Y-55300000D01*
X76355100Y-53861000D02*
X76196700Y-53861000D01*
X76506300Y-54012100D02*
X76355100Y-53861000D01*
X87150000Y-67700000D02*
X87150000Y-62393122D01*
X87150000Y-62393122D02*
X87056878Y-62300000D01*
X87056878Y-62300000D02*
X86458900Y-61702100D01*
X85645000Y-69700000D02*
X84050000Y-69700000D01*
X57273400Y-51300000D02*
X57124100Y-51150700D01*
X59350000Y-51300000D02*
X57273400Y-51300000D01*
X56400000Y-51150700D02*
X57124100Y-51150700D01*
X61475300Y-51350000D02*
X61425300Y-51300000D01*
X62800000Y-51350000D02*
X61475300Y-51350000D01*
X60850000Y-51300000D02*
X61425300Y-51300000D01*
X66324700Y-51350000D02*
X66374700Y-51300000D01*
X65000000Y-51350000D02*
X66324700Y-51350000D01*
X66950000Y-51300000D02*
X66374700Y-51300000D01*
X53075300Y-67150000D02*
X52775300Y-66850000D01*
X54100000Y-67150000D02*
X53075300Y-67150000D01*
X52000000Y-66850000D02*
X52775300Y-66850000D01*
D30*
G36*
X85711173Y-64498292D02*
X86054701Y-64640938D01*
X86390000Y-64641230D01*
X86390000Y-66841974D01*
X86259698Y-66711673D01*
X86026309Y-66615000D01*
X85933750Y-66615000D01*
X85775000Y-66773750D01*
X85775000Y-67573000D01*
X85797000Y-67573000D01*
X85797000Y-67827000D01*
X85775000Y-67827000D01*
X85775000Y-67847000D01*
X85525000Y-67847000D01*
X85525000Y-67827000D01*
X84923750Y-67827000D01*
X84765000Y-67985750D01*
X84765000Y-68276310D01*
X84861673Y-68509699D01*
X84942616Y-68590641D01*
X84909683Y-68596838D01*
X84703382Y-68729589D01*
X84701890Y-68728569D01*
X84450000Y-68677560D01*
X83650000Y-68677560D01*
X83414683Y-68721838D01*
X83311354Y-68788329D01*
X83309698Y-68786673D01*
X83076309Y-68690000D01*
X82835750Y-68690000D01*
X82677000Y-68848750D01*
X82677000Y-69573000D01*
X82697000Y-69573000D01*
X82697000Y-69827000D01*
X82677000Y-69827000D01*
X82677000Y-69847000D01*
X82423000Y-69847000D01*
X82423000Y-69827000D01*
X81673750Y-69827000D01*
X81515000Y-69985750D01*
X81515000Y-70201310D01*
X81562092Y-70315000D01*
X75171805Y-70315000D01*
X75171820Y-70297440D01*
X75500000Y-70297440D01*
X75735317Y-70253162D01*
X75951441Y-70114090D01*
X76093127Y-69906725D01*
X76116139Y-69902148D01*
X76362701Y-69737401D01*
X76477901Y-69622201D01*
X76642648Y-69375640D01*
X76670442Y-69235910D01*
X76677845Y-69198690D01*
X81515000Y-69198690D01*
X81515000Y-69414250D01*
X81673750Y-69573000D01*
X82423000Y-69573000D01*
X82423000Y-68848750D01*
X82264250Y-68690000D01*
X82023691Y-68690000D01*
X81790302Y-68786673D01*
X81611673Y-68965301D01*
X81515000Y-69198690D01*
X76677845Y-69198690D01*
X76700500Y-69084800D01*
X76700500Y-67637795D01*
X77038548Y-67975843D01*
X77147422Y-68050233D01*
X77215325Y-68152621D01*
X77604233Y-68541529D01*
X77801936Y-68676614D01*
X78053098Y-68731098D01*
X78305669Y-68683574D01*
X78519851Y-68541529D01*
X79081427Y-67979953D01*
X80360671Y-67979953D01*
X80360671Y-68204459D01*
X80778259Y-68622047D01*
X81011648Y-68718720D01*
X81264267Y-68718721D01*
X81497656Y-68622048D01*
X81579369Y-68540335D01*
X81579369Y-68315828D01*
X80802082Y-67538541D01*
X80360671Y-67979953D01*
X79081427Y-67979953D01*
X79580511Y-67480869D01*
X79603474Y-67447262D01*
X79956559Y-67800347D01*
X80181065Y-67800347D01*
X80622477Y-67358936D01*
X79845190Y-66581649D01*
X79620683Y-66581649D01*
X79603068Y-66599264D01*
X79580511Y-66565251D01*
X79191603Y-66176343D01*
X79082729Y-66101953D01*
X79014826Y-65999565D01*
X78625918Y-65610657D01*
X78517043Y-65536266D01*
X78460072Y-65450362D01*
X78474943Y-65444217D01*
X78738192Y-65181427D01*
X78778046Y-65085448D01*
X79067978Y-65375380D01*
X79067938Y-65420867D01*
X79209983Y-65764643D01*
X79472773Y-66027892D01*
X79591537Y-66077207D01*
X79620999Y-66121301D01*
X79621035Y-66121325D01*
X79621059Y-66121361D01*
X80006589Y-66506805D01*
X80043129Y-66701001D01*
X80185174Y-66915183D01*
X81245834Y-67975843D01*
X81443537Y-68110928D01*
X81694699Y-68165412D01*
X81849827Y-68136223D01*
X81983481Y-68136223D01*
X82065194Y-68054510D01*
X82073663Y-68034065D01*
X82161452Y-67975843D01*
X82550360Y-67586935D01*
X82624751Y-67478060D01*
X82727137Y-67410158D01*
X83013605Y-67123690D01*
X84765000Y-67123690D01*
X84765000Y-67414250D01*
X84923750Y-67573000D01*
X85525000Y-67573000D01*
X85525000Y-66773750D01*
X85366250Y-66615000D01*
X85273691Y-66615000D01*
X85040302Y-66711673D01*
X84861673Y-66890301D01*
X84765000Y-67123690D01*
X83013605Y-67123690D01*
X83116045Y-67021250D01*
X83190435Y-66912376D01*
X83292823Y-66844473D01*
X83681731Y-66455565D01*
X83756124Y-66346688D01*
X83858508Y-66278787D01*
X84247416Y-65889879D01*
X84321806Y-65781005D01*
X84424194Y-65713102D01*
X84813102Y-65324194D01*
X84887495Y-65215317D01*
X84989879Y-65147416D01*
X85378787Y-64758508D01*
X85453177Y-64649634D01*
X85555565Y-64581731D01*
X85675120Y-64462176D01*
X85711173Y-64498292D01*
X85711173Y-64498292D01*
G37*
X85711173Y-64498292D02*
X86054701Y-64640938D01*
X86390000Y-64641230D01*
X86390000Y-66841974D01*
X86259698Y-66711673D01*
X86026309Y-66615000D01*
X85933750Y-66615000D01*
X85775000Y-66773750D01*
X85775000Y-67573000D01*
X85797000Y-67573000D01*
X85797000Y-67827000D01*
X85775000Y-67827000D01*
X85775000Y-67847000D01*
X85525000Y-67847000D01*
X85525000Y-67827000D01*
X84923750Y-67827000D01*
X84765000Y-67985750D01*
X84765000Y-68276310D01*
X84861673Y-68509699D01*
X84942616Y-68590641D01*
X84909683Y-68596838D01*
X84703382Y-68729589D01*
X84701890Y-68728569D01*
X84450000Y-68677560D01*
X83650000Y-68677560D01*
X83414683Y-68721838D01*
X83311354Y-68788329D01*
X83309698Y-68786673D01*
X83076309Y-68690000D01*
X82835750Y-68690000D01*
X82677000Y-68848750D01*
X82677000Y-69573000D01*
X82697000Y-69573000D01*
X82697000Y-69827000D01*
X82677000Y-69827000D01*
X82677000Y-69847000D01*
X82423000Y-69847000D01*
X82423000Y-69827000D01*
X81673750Y-69827000D01*
X81515000Y-69985750D01*
X81515000Y-70201310D01*
X81562092Y-70315000D01*
X75171805Y-70315000D01*
X75171820Y-70297440D01*
X75500000Y-70297440D01*
X75735317Y-70253162D01*
X75951441Y-70114090D01*
X76093127Y-69906725D01*
X76116139Y-69902148D01*
X76362701Y-69737401D01*
X76477901Y-69622201D01*
X76642648Y-69375640D01*
X76670442Y-69235910D01*
X76677845Y-69198690D01*
X81515000Y-69198690D01*
X81515000Y-69414250D01*
X81673750Y-69573000D01*
X82423000Y-69573000D01*
X82423000Y-68848750D01*
X82264250Y-68690000D01*
X82023691Y-68690000D01*
X81790302Y-68786673D01*
X81611673Y-68965301D01*
X81515000Y-69198690D01*
X76677845Y-69198690D01*
X76700500Y-69084800D01*
X76700500Y-67637795D01*
X77038548Y-67975843D01*
X77147422Y-68050233D01*
X77215325Y-68152621D01*
X77604233Y-68541529D01*
X77801936Y-68676614D01*
X78053098Y-68731098D01*
X78305669Y-68683574D01*
X78519851Y-68541529D01*
X79081427Y-67979953D01*
X80360671Y-67979953D01*
X80360671Y-68204459D01*
X80778259Y-68622047D01*
X81011648Y-68718720D01*
X81264267Y-68718721D01*
X81497656Y-68622048D01*
X81579369Y-68540335D01*
X81579369Y-68315828D01*
X80802082Y-67538541D01*
X80360671Y-67979953D01*
X79081427Y-67979953D01*
X79580511Y-67480869D01*
X79603474Y-67447262D01*
X79956559Y-67800347D01*
X80181065Y-67800347D01*
X80622477Y-67358936D01*
X79845190Y-66581649D01*
X79620683Y-66581649D01*
X79603068Y-66599264D01*
X79580511Y-66565251D01*
X79191603Y-66176343D01*
X79082729Y-66101953D01*
X79014826Y-65999565D01*
X78625918Y-65610657D01*
X78517043Y-65536266D01*
X78460072Y-65450362D01*
X78474943Y-65444217D01*
X78738192Y-65181427D01*
X78778046Y-65085448D01*
X79067978Y-65375380D01*
X79067938Y-65420867D01*
X79209983Y-65764643D01*
X79472773Y-66027892D01*
X79591537Y-66077207D01*
X79620999Y-66121301D01*
X79621035Y-66121325D01*
X79621059Y-66121361D01*
X80006589Y-66506805D01*
X80043129Y-66701001D01*
X80185174Y-66915183D01*
X81245834Y-67975843D01*
X81443537Y-68110928D01*
X81694699Y-68165412D01*
X81849827Y-68136223D01*
X81983481Y-68136223D01*
X82065194Y-68054510D01*
X82073663Y-68034065D01*
X82161452Y-67975843D01*
X82550360Y-67586935D01*
X82624751Y-67478060D01*
X82727137Y-67410158D01*
X83013605Y-67123690D01*
X84765000Y-67123690D01*
X84765000Y-67414250D01*
X84923750Y-67573000D01*
X85525000Y-67573000D01*
X85525000Y-66773750D01*
X85366250Y-66615000D01*
X85273691Y-66615000D01*
X85040302Y-66711673D01*
X84861673Y-66890301D01*
X84765000Y-67123690D01*
X83013605Y-67123690D01*
X83116045Y-67021250D01*
X83190435Y-66912376D01*
X83292823Y-66844473D01*
X83681731Y-66455565D01*
X83756124Y-66346688D01*
X83858508Y-66278787D01*
X84247416Y-65889879D01*
X84321806Y-65781005D01*
X84424194Y-65713102D01*
X84813102Y-65324194D01*
X84887495Y-65215317D01*
X84989879Y-65147416D01*
X85378787Y-64758508D01*
X85453177Y-64649634D01*
X85555565Y-64581731D01*
X85675120Y-64462176D01*
X85711173Y-64498292D01*
G36*
X67652560Y-59400000D02*
X67696838Y-59635317D01*
X67835910Y-59851441D01*
X68048110Y-59996431D01*
X68300000Y-60047440D01*
X69900000Y-60047440D01*
X70135317Y-60003162D01*
X70207324Y-59956826D01*
X71425399Y-61174901D01*
X71671961Y-61339648D01*
X71777899Y-61360721D01*
X71558471Y-61580149D01*
X71423386Y-61777852D01*
X71368902Y-62029014D01*
X71416426Y-62281585D01*
X71558471Y-62495767D01*
X71568951Y-62506247D01*
X71422638Y-62652560D01*
X70950000Y-62652560D01*
X70785381Y-62683535D01*
X70682439Y-62614752D01*
X70535000Y-62585424D01*
X70535000Y-62385750D01*
X70376250Y-62227000D01*
X69227000Y-62227000D01*
X69227000Y-62247000D01*
X68973000Y-62247000D01*
X68973000Y-62227000D01*
X67823750Y-62227000D01*
X67665000Y-62385750D01*
X67665000Y-62726310D01*
X67757701Y-62950110D01*
X67682962Y-63130101D01*
X67682638Y-63502067D01*
X67718971Y-63590000D01*
X67623691Y-63590000D01*
X67390302Y-63686673D01*
X67211673Y-63865301D01*
X67115000Y-64098690D01*
X67115000Y-64314250D01*
X67273750Y-64473000D01*
X68023000Y-64473000D01*
X68023000Y-64453000D01*
X68277000Y-64453000D01*
X68277000Y-64473000D01*
X68297000Y-64473000D01*
X68297000Y-64727000D01*
X68277000Y-64727000D01*
X68277000Y-65451250D01*
X68435750Y-65610000D01*
X68676309Y-65610000D01*
X68909698Y-65513327D01*
X68911068Y-65511957D01*
X68935410Y-65528590D01*
X68947852Y-65591139D01*
X69112599Y-65837701D01*
X69727458Y-66452560D01*
X68900000Y-66452560D01*
X68664683Y-66496838D01*
X68448559Y-66635910D01*
X68303569Y-66848110D01*
X68252560Y-67100000D01*
X68252560Y-68300000D01*
X68291574Y-68507342D01*
X68252560Y-68700000D01*
X68252560Y-68888892D01*
X68191139Y-68847852D01*
X68126940Y-68835082D01*
X68111671Y-68811354D01*
X68113327Y-68809698D01*
X68210000Y-68576309D01*
X68210000Y-68335750D01*
X68051250Y-68177000D01*
X67327000Y-68177000D01*
X67327000Y-68197000D01*
X67073000Y-68197000D01*
X67073000Y-68177000D01*
X66348750Y-68177000D01*
X66190000Y-68335750D01*
X66190000Y-68576309D01*
X66286673Y-68809698D01*
X66288043Y-68811068D01*
X66228569Y-68898110D01*
X66177560Y-69150000D01*
X66177560Y-69950000D01*
X66221838Y-70185317D01*
X66305287Y-70315000D01*
X65660003Y-70315000D01*
X65695940Y-70137540D01*
X65695940Y-68740540D01*
X65651662Y-68505223D01*
X65512590Y-68289099D01*
X65300390Y-68144109D01*
X65048500Y-68093100D01*
X63651500Y-68093100D01*
X63416183Y-68137378D01*
X63200059Y-68276450D01*
X63055069Y-68488650D01*
X63004060Y-68740540D01*
X63004060Y-68958844D01*
X62941146Y-68806580D01*
X62566353Y-68431133D01*
X62076413Y-68227692D01*
X61551035Y-68227233D01*
X60847493Y-67523691D01*
X66190000Y-67523691D01*
X66190000Y-67764250D01*
X66348750Y-67923000D01*
X67073000Y-67923000D01*
X67073000Y-67173750D01*
X67327000Y-67173750D01*
X67327000Y-67923000D01*
X68051250Y-67923000D01*
X68210000Y-67764250D01*
X68210000Y-67523691D01*
X68113327Y-67290302D01*
X67934699Y-67111673D01*
X67701310Y-67015000D01*
X67485750Y-67015000D01*
X67327000Y-67173750D01*
X67073000Y-67173750D01*
X66914250Y-67015000D01*
X66698690Y-67015000D01*
X66465301Y-67111673D01*
X66286673Y-67290302D01*
X66190000Y-67523691D01*
X60847493Y-67523691D01*
X60686701Y-67362899D01*
X60440139Y-67198152D01*
X60149300Y-67140300D01*
X59603000Y-67140300D01*
X59603000Y-67073000D01*
X59623000Y-67073000D01*
X59623000Y-66348750D01*
X59464250Y-66190000D01*
X59384250Y-66190000D01*
X59523000Y-66051250D01*
X59523000Y-65327000D01*
X59777000Y-65327000D01*
X59777000Y-66051250D01*
X59935750Y-66210000D01*
X60015750Y-66210000D01*
X59877000Y-66348750D01*
X59877000Y-67073000D01*
X60626250Y-67073000D01*
X60785000Y-66914250D01*
X60785000Y-66698690D01*
X60688327Y-66465301D01*
X60509698Y-66286673D01*
X60276309Y-66190000D01*
X60224593Y-66190000D01*
X60409698Y-66113327D01*
X60588327Y-65934699D01*
X60685000Y-65701310D01*
X60685000Y-65485750D01*
X60526250Y-65327000D01*
X59777000Y-65327000D01*
X59523000Y-65327000D01*
X59503000Y-65327000D01*
X59503000Y-65073000D01*
X59523000Y-65073000D01*
X59523000Y-65053000D01*
X59777000Y-65053000D01*
X59777000Y-65073000D01*
X60526250Y-65073000D01*
X60685000Y-64914250D01*
X60685000Y-64698690D01*
X60588327Y-64465301D01*
X60409698Y-64286673D01*
X60176309Y-64190000D01*
X60077920Y-64190000D01*
X60078126Y-63954093D01*
X60101441Y-63939090D01*
X60246431Y-63726890D01*
X60297440Y-63475000D01*
X60297440Y-62725000D01*
X60253162Y-62489683D01*
X60114090Y-62273559D01*
X59972374Y-62176728D01*
X60642102Y-61507000D01*
X62671393Y-61507000D01*
X62652560Y-61600000D01*
X62652560Y-61639879D01*
X62605633Y-61639838D01*
X62261857Y-61781883D01*
X61998608Y-62044673D01*
X61855962Y-62388201D01*
X61855638Y-62760167D01*
X61997683Y-63103943D01*
X62030800Y-63137118D01*
X62030800Y-63665500D01*
X62045090Y-63737342D01*
X62003569Y-63798110D01*
X61952560Y-64050000D01*
X61952560Y-64950000D01*
X61996838Y-65185317D01*
X62135910Y-65401441D01*
X62211118Y-65452828D01*
X62198559Y-65460910D01*
X62053569Y-65673110D01*
X62002560Y-65925000D01*
X62002560Y-66675000D01*
X62046838Y-66910317D01*
X62185910Y-67126441D01*
X62398110Y-67271431D01*
X62650000Y-67322440D01*
X63450000Y-67322440D01*
X63685317Y-67278162D01*
X63788646Y-67211671D01*
X63790302Y-67213327D01*
X64023691Y-67310000D01*
X64264250Y-67310000D01*
X64423000Y-67151250D01*
X64423000Y-66427000D01*
X64677000Y-66427000D01*
X64677000Y-67151250D01*
X64835750Y-67310000D01*
X65076309Y-67310000D01*
X65309698Y-67213327D01*
X65488327Y-67034699D01*
X65585000Y-66801310D01*
X65585000Y-66585750D01*
X65426250Y-66427000D01*
X64677000Y-66427000D01*
X64423000Y-66427000D01*
X64403000Y-66427000D01*
X64403000Y-66173000D01*
X64423000Y-66173000D01*
X64423000Y-66153000D01*
X64677000Y-66153000D01*
X64677000Y-66173000D01*
X65426250Y-66173000D01*
X65585000Y-66014250D01*
X65585000Y-65798690D01*
X65488327Y-65565301D01*
X65309698Y-65386673D01*
X65134092Y-65313934D01*
X65138327Y-65309699D01*
X65235000Y-65076310D01*
X65235000Y-64885750D01*
X67115000Y-64885750D01*
X67115000Y-65101310D01*
X67211673Y-65334699D01*
X67390302Y-65513327D01*
X67623691Y-65610000D01*
X67864250Y-65610000D01*
X68023000Y-65451250D01*
X68023000Y-64727000D01*
X67273750Y-64727000D01*
X67115000Y-64885750D01*
X65235000Y-64885750D01*
X65235000Y-64785750D01*
X65076250Y-64627000D01*
X64510300Y-64627000D01*
X64510300Y-64373000D01*
X65076250Y-64373000D01*
X65235000Y-64214250D01*
X65235000Y-63923690D01*
X65138327Y-63690301D01*
X64959698Y-63511673D01*
X64767882Y-63432220D01*
X64767962Y-63340033D01*
X64729703Y-63247440D01*
X64900000Y-63247440D01*
X65135317Y-63203162D01*
X65351441Y-63064090D01*
X65496431Y-62851890D01*
X65547440Y-62600000D01*
X65547440Y-61600000D01*
X65523674Y-61473690D01*
X67665000Y-61473690D01*
X67665000Y-61814250D01*
X67823750Y-61973000D01*
X68973000Y-61973000D01*
X68973000Y-61123750D01*
X69227000Y-61123750D01*
X69227000Y-61973000D01*
X70376250Y-61973000D01*
X70535000Y-61814250D01*
X70535000Y-61473690D01*
X70438327Y-61240301D01*
X70259698Y-61061673D01*
X70026309Y-60965000D01*
X69385750Y-60965000D01*
X69227000Y-61123750D01*
X68973000Y-61123750D01*
X68814250Y-60965000D01*
X68173691Y-60965000D01*
X67940302Y-61061673D01*
X67761673Y-61240301D01*
X67665000Y-61473690D01*
X65523674Y-61473690D01*
X65503162Y-61364683D01*
X65364090Y-61148559D01*
X65151890Y-61003569D01*
X65075668Y-60988134D01*
X67652560Y-58411242D01*
X67652560Y-59400000D01*
X67652560Y-59400000D01*
G37*
X67652560Y-59400000D02*
X67696838Y-59635317D01*
X67835910Y-59851441D01*
X68048110Y-59996431D01*
X68300000Y-60047440D01*
X69900000Y-60047440D01*
X70135317Y-60003162D01*
X70207324Y-59956826D01*
X71425399Y-61174901D01*
X71671961Y-61339648D01*
X71777899Y-61360721D01*
X71558471Y-61580149D01*
X71423386Y-61777852D01*
X71368902Y-62029014D01*
X71416426Y-62281585D01*
X71558471Y-62495767D01*
X71568951Y-62506247D01*
X71422638Y-62652560D01*
X70950000Y-62652560D01*
X70785381Y-62683535D01*
X70682439Y-62614752D01*
X70535000Y-62585424D01*
X70535000Y-62385750D01*
X70376250Y-62227000D01*
X69227000Y-62227000D01*
X69227000Y-62247000D01*
X68973000Y-62247000D01*
X68973000Y-62227000D01*
X67823750Y-62227000D01*
X67665000Y-62385750D01*
X67665000Y-62726310D01*
X67757701Y-62950110D01*
X67682962Y-63130101D01*
X67682638Y-63502067D01*
X67718971Y-63590000D01*
X67623691Y-63590000D01*
X67390302Y-63686673D01*
X67211673Y-63865301D01*
X67115000Y-64098690D01*
X67115000Y-64314250D01*
X67273750Y-64473000D01*
X68023000Y-64473000D01*
X68023000Y-64453000D01*
X68277000Y-64453000D01*
X68277000Y-64473000D01*
X68297000Y-64473000D01*
X68297000Y-64727000D01*
X68277000Y-64727000D01*
X68277000Y-65451250D01*
X68435750Y-65610000D01*
X68676309Y-65610000D01*
X68909698Y-65513327D01*
X68911068Y-65511957D01*
X68935410Y-65528590D01*
X68947852Y-65591139D01*
X69112599Y-65837701D01*
X69727458Y-66452560D01*
X68900000Y-66452560D01*
X68664683Y-66496838D01*
X68448559Y-66635910D01*
X68303569Y-66848110D01*
X68252560Y-67100000D01*
X68252560Y-68300000D01*
X68291574Y-68507342D01*
X68252560Y-68700000D01*
X68252560Y-68888892D01*
X68191139Y-68847852D01*
X68126940Y-68835082D01*
X68111671Y-68811354D01*
X68113327Y-68809698D01*
X68210000Y-68576309D01*
X68210000Y-68335750D01*
X68051250Y-68177000D01*
X67327000Y-68177000D01*
X67327000Y-68197000D01*
X67073000Y-68197000D01*
X67073000Y-68177000D01*
X66348750Y-68177000D01*
X66190000Y-68335750D01*
X66190000Y-68576309D01*
X66286673Y-68809698D01*
X66288043Y-68811068D01*
X66228569Y-68898110D01*
X66177560Y-69150000D01*
X66177560Y-69950000D01*
X66221838Y-70185317D01*
X66305287Y-70315000D01*
X65660003Y-70315000D01*
X65695940Y-70137540D01*
X65695940Y-68740540D01*
X65651662Y-68505223D01*
X65512590Y-68289099D01*
X65300390Y-68144109D01*
X65048500Y-68093100D01*
X63651500Y-68093100D01*
X63416183Y-68137378D01*
X63200059Y-68276450D01*
X63055069Y-68488650D01*
X63004060Y-68740540D01*
X63004060Y-68958844D01*
X62941146Y-68806580D01*
X62566353Y-68431133D01*
X62076413Y-68227692D01*
X61551035Y-68227233D01*
X60847493Y-67523691D01*
X66190000Y-67523691D01*
X66190000Y-67764250D01*
X66348750Y-67923000D01*
X67073000Y-67923000D01*
X67073000Y-67173750D01*
X67327000Y-67173750D01*
X67327000Y-67923000D01*
X68051250Y-67923000D01*
X68210000Y-67764250D01*
X68210000Y-67523691D01*
X68113327Y-67290302D01*
X67934699Y-67111673D01*
X67701310Y-67015000D01*
X67485750Y-67015000D01*
X67327000Y-67173750D01*
X67073000Y-67173750D01*
X66914250Y-67015000D01*
X66698690Y-67015000D01*
X66465301Y-67111673D01*
X66286673Y-67290302D01*
X66190000Y-67523691D01*
X60847493Y-67523691D01*
X60686701Y-67362899D01*
X60440139Y-67198152D01*
X60149300Y-67140300D01*
X59603000Y-67140300D01*
X59603000Y-67073000D01*
X59623000Y-67073000D01*
X59623000Y-66348750D01*
X59464250Y-66190000D01*
X59384250Y-66190000D01*
X59523000Y-66051250D01*
X59523000Y-65327000D01*
X59777000Y-65327000D01*
X59777000Y-66051250D01*
X59935750Y-66210000D01*
X60015750Y-66210000D01*
X59877000Y-66348750D01*
X59877000Y-67073000D01*
X60626250Y-67073000D01*
X60785000Y-66914250D01*
X60785000Y-66698690D01*
X60688327Y-66465301D01*
X60509698Y-66286673D01*
X60276309Y-66190000D01*
X60224593Y-66190000D01*
X60409698Y-66113327D01*
X60588327Y-65934699D01*
X60685000Y-65701310D01*
X60685000Y-65485750D01*
X60526250Y-65327000D01*
X59777000Y-65327000D01*
X59523000Y-65327000D01*
X59503000Y-65327000D01*
X59503000Y-65073000D01*
X59523000Y-65073000D01*
X59523000Y-65053000D01*
X59777000Y-65053000D01*
X59777000Y-65073000D01*
X60526250Y-65073000D01*
X60685000Y-64914250D01*
X60685000Y-64698690D01*
X60588327Y-64465301D01*
X60409698Y-64286673D01*
X60176309Y-64190000D01*
X60077920Y-64190000D01*
X60078126Y-63954093D01*
X60101441Y-63939090D01*
X60246431Y-63726890D01*
X60297440Y-63475000D01*
X60297440Y-62725000D01*
X60253162Y-62489683D01*
X60114090Y-62273559D01*
X59972374Y-62176728D01*
X60642102Y-61507000D01*
X62671393Y-61507000D01*
X62652560Y-61600000D01*
X62652560Y-61639879D01*
X62605633Y-61639838D01*
X62261857Y-61781883D01*
X61998608Y-62044673D01*
X61855962Y-62388201D01*
X61855638Y-62760167D01*
X61997683Y-63103943D01*
X62030800Y-63137118D01*
X62030800Y-63665500D01*
X62045090Y-63737342D01*
X62003569Y-63798110D01*
X61952560Y-64050000D01*
X61952560Y-64950000D01*
X61996838Y-65185317D01*
X62135910Y-65401441D01*
X62211118Y-65452828D01*
X62198559Y-65460910D01*
X62053569Y-65673110D01*
X62002560Y-65925000D01*
X62002560Y-66675000D01*
X62046838Y-66910317D01*
X62185910Y-67126441D01*
X62398110Y-67271431D01*
X62650000Y-67322440D01*
X63450000Y-67322440D01*
X63685317Y-67278162D01*
X63788646Y-67211671D01*
X63790302Y-67213327D01*
X64023691Y-67310000D01*
X64264250Y-67310000D01*
X64423000Y-67151250D01*
X64423000Y-66427000D01*
X64677000Y-66427000D01*
X64677000Y-67151250D01*
X64835750Y-67310000D01*
X65076309Y-67310000D01*
X65309698Y-67213327D01*
X65488327Y-67034699D01*
X65585000Y-66801310D01*
X65585000Y-66585750D01*
X65426250Y-66427000D01*
X64677000Y-66427000D01*
X64423000Y-66427000D01*
X64403000Y-66427000D01*
X64403000Y-66173000D01*
X64423000Y-66173000D01*
X64423000Y-66153000D01*
X64677000Y-66153000D01*
X64677000Y-66173000D01*
X65426250Y-66173000D01*
X65585000Y-66014250D01*
X65585000Y-65798690D01*
X65488327Y-65565301D01*
X65309698Y-65386673D01*
X65134092Y-65313934D01*
X65138327Y-65309699D01*
X65235000Y-65076310D01*
X65235000Y-64885750D01*
X67115000Y-64885750D01*
X67115000Y-65101310D01*
X67211673Y-65334699D01*
X67390302Y-65513327D01*
X67623691Y-65610000D01*
X67864250Y-65610000D01*
X68023000Y-65451250D01*
X68023000Y-64727000D01*
X67273750Y-64727000D01*
X67115000Y-64885750D01*
X65235000Y-64885750D01*
X65235000Y-64785750D01*
X65076250Y-64627000D01*
X64510300Y-64627000D01*
X64510300Y-64373000D01*
X65076250Y-64373000D01*
X65235000Y-64214250D01*
X65235000Y-63923690D01*
X65138327Y-63690301D01*
X64959698Y-63511673D01*
X64767882Y-63432220D01*
X64767962Y-63340033D01*
X64729703Y-63247440D01*
X64900000Y-63247440D01*
X65135317Y-63203162D01*
X65351441Y-63064090D01*
X65496431Y-62851890D01*
X65547440Y-62600000D01*
X65547440Y-61600000D01*
X65523674Y-61473690D01*
X67665000Y-61473690D01*
X67665000Y-61814250D01*
X67823750Y-61973000D01*
X68973000Y-61973000D01*
X68973000Y-61123750D01*
X69227000Y-61123750D01*
X69227000Y-61973000D01*
X70376250Y-61973000D01*
X70535000Y-61814250D01*
X70535000Y-61473690D01*
X70438327Y-61240301D01*
X70259698Y-61061673D01*
X70026309Y-60965000D01*
X69385750Y-60965000D01*
X69227000Y-61123750D01*
X68973000Y-61123750D01*
X68814250Y-60965000D01*
X68173691Y-60965000D01*
X67940302Y-61061673D01*
X67761673Y-61240301D01*
X67665000Y-61473690D01*
X65523674Y-61473690D01*
X65503162Y-61364683D01*
X65364090Y-61148559D01*
X65151890Y-61003569D01*
X65075668Y-60988134D01*
X67652560Y-58411242D01*
X67652560Y-59400000D01*
G36*
X55353780Y-50751920D02*
X55353780Y-51549480D01*
X55398058Y-51784797D01*
X55472185Y-51899993D01*
X55404789Y-51998630D01*
X55353780Y-52250520D01*
X55353780Y-53048080D01*
X55398058Y-53283397D01*
X55477478Y-53406820D01*
X55197531Y-53686767D01*
X55078180Y-53508145D01*
X54669406Y-53235012D01*
X54187225Y-53139100D01*
X54137855Y-53139100D01*
X53655674Y-53235012D01*
X53246900Y-53508145D01*
X52973767Y-53916919D01*
X52877855Y-54399100D01*
X52973767Y-54881281D01*
X53022736Y-54954568D01*
X52891109Y-55147210D01*
X52840100Y-55399100D01*
X52840100Y-55799100D01*
X52864484Y-55928689D01*
X52840100Y-56049100D01*
X52840100Y-56449100D01*
X52864484Y-56578689D01*
X52840100Y-56699100D01*
X52840100Y-57099100D01*
X52859990Y-57204805D01*
X52852540Y-57222790D01*
X52852540Y-57290350D01*
X52881544Y-57319354D01*
X52884378Y-57334417D01*
X53023450Y-57550541D01*
X53032138Y-57556477D01*
X52949213Y-57639401D01*
X52898460Y-57761930D01*
X52852540Y-57807850D01*
X52852540Y-57940350D01*
X52898460Y-57986270D01*
X52949213Y-58108799D01*
X53127842Y-58287427D01*
X53156023Y-58299100D01*
X53011290Y-58299100D01*
X52852540Y-58457850D01*
X52852540Y-58525410D01*
X52949213Y-58758799D01*
X53027266Y-58836852D01*
X52973767Y-58916919D01*
X52877855Y-59399100D01*
X52973767Y-59881281D01*
X53246900Y-60290055D01*
X53655674Y-60563188D01*
X54137855Y-60659100D01*
X54187225Y-60659100D01*
X54669406Y-60563188D01*
X55078180Y-60290055D01*
X55351313Y-59881281D01*
X55447225Y-59399100D01*
X55351313Y-58916919D01*
X55297814Y-58836852D01*
X55375867Y-58758799D01*
X55472540Y-58525410D01*
X55472540Y-58457850D01*
X55313790Y-58299100D01*
X55169057Y-58299100D01*
X55197238Y-58287427D01*
X55375867Y-58108799D01*
X55426620Y-57986270D01*
X55472540Y-57940350D01*
X55472540Y-57807850D01*
X55426620Y-57761930D01*
X55391069Y-57676102D01*
X55472540Y-57676102D01*
X55472540Y-57659100D01*
X55569773Y-57659100D01*
X55761443Y-57787169D01*
X55783861Y-57802148D01*
X55811163Y-57807579D01*
X55935910Y-58001441D01*
X56148110Y-58146431D01*
X56400000Y-58197440D01*
X56900000Y-58197440D01*
X57135317Y-58153162D01*
X57351441Y-58014090D01*
X57399134Y-57944289D01*
X57435910Y-58001441D01*
X57648110Y-58146431D01*
X57900000Y-58197440D01*
X58400000Y-58197440D01*
X58635317Y-58153162D01*
X58851441Y-58014090D01*
X58919671Y-57914231D01*
X59116201Y-57995838D01*
X59488167Y-57996162D01*
X59831943Y-57854117D01*
X60095192Y-57591327D01*
X60237838Y-57247799D01*
X60238130Y-56912380D01*
X60335750Y-57010000D01*
X60576309Y-57010000D01*
X60790000Y-56921486D01*
X60790000Y-57304400D01*
X60847852Y-57595239D01*
X61012599Y-57841801D01*
X61727378Y-58556580D01*
X61727338Y-58602067D01*
X61727806Y-58603200D01*
X60244500Y-58603200D01*
X60003733Y-58651092D01*
X59953660Y-58661052D01*
X59707099Y-58825799D01*
X56403339Y-62129559D01*
X56401890Y-62128569D01*
X56150000Y-62077560D01*
X55350000Y-62077560D01*
X55185101Y-62108588D01*
X55185162Y-62038333D01*
X55043117Y-61694557D01*
X54780327Y-61431308D01*
X54436799Y-61288662D01*
X54064833Y-61288338D01*
X53721057Y-61430383D01*
X53457808Y-61693173D01*
X53315162Y-62036701D01*
X53314860Y-62383408D01*
X53253569Y-62473110D01*
X53202560Y-62725000D01*
X53202560Y-63475000D01*
X53246838Y-63710317D01*
X53385910Y-63926441D01*
X53598110Y-64071431D01*
X53850000Y-64122440D01*
X54292673Y-64122440D01*
X54292638Y-64162767D01*
X54340069Y-64277560D01*
X53570000Y-64277560D01*
X53334683Y-64321838D01*
X53118559Y-64460910D01*
X53098683Y-64490000D01*
X52875300Y-64490000D01*
X52725609Y-64519776D01*
X52701890Y-64503569D01*
X52450000Y-64452560D01*
X51550000Y-64452560D01*
X51314683Y-64496838D01*
X51098559Y-64635910D01*
X50953569Y-64848110D01*
X50902560Y-65100000D01*
X50902560Y-65600000D01*
X50946838Y-65835317D01*
X51085910Y-66051441D01*
X51155711Y-66099134D01*
X51098559Y-66135910D01*
X50953569Y-66348110D01*
X50902560Y-66600000D01*
X50902560Y-67100000D01*
X50946838Y-67335317D01*
X51085910Y-67551441D01*
X51298110Y-67696431D01*
X51550000Y-67747440D01*
X52450000Y-67747440D01*
X52588696Y-67721342D01*
X52784461Y-67852148D01*
X53075300Y-67910000D01*
X53095331Y-67910000D01*
X53105910Y-67926441D01*
X53318110Y-68071431D01*
X53570000Y-68122440D01*
X53884454Y-68122440D01*
X53435620Y-68307894D01*
X53060173Y-68682687D01*
X52901405Y-69065043D01*
X52819800Y-68868031D01*
X52584188Y-68806377D01*
X51829605Y-69560960D01*
X51843748Y-69575103D01*
X51664143Y-69754708D01*
X51650000Y-69740565D01*
X51635858Y-69754708D01*
X51456253Y-69575103D01*
X51470395Y-69560960D01*
X50715812Y-68806377D01*
X50685000Y-68814440D01*
X50685000Y-68626772D01*
X50895417Y-68626772D01*
X51650000Y-69381355D01*
X52404583Y-68626772D01*
X52342929Y-68391160D01*
X51842520Y-68215033D01*
X51312801Y-68243812D01*
X50957071Y-68391160D01*
X50895417Y-68626772D01*
X50685000Y-68626772D01*
X50685000Y-61697845D01*
X50922956Y-61856842D01*
X51462540Y-61964172D01*
X52002124Y-61856842D01*
X52459561Y-61551193D01*
X52765210Y-61093756D01*
X52872540Y-60554172D01*
X52872540Y-60244028D01*
X52765210Y-59704444D01*
X52459561Y-59247007D01*
X52002124Y-58941358D01*
X51462540Y-58834028D01*
X50922956Y-58941358D01*
X50685000Y-59100355D01*
X50685000Y-54697845D01*
X50922956Y-54856842D01*
X51462540Y-54964172D01*
X52002124Y-54856842D01*
X52459561Y-54551193D01*
X52765210Y-54093756D01*
X52872540Y-53554172D01*
X52872540Y-53244028D01*
X52765210Y-52704444D01*
X52459561Y-52247007D01*
X52002124Y-51941358D01*
X51462540Y-51834028D01*
X50922956Y-51941358D01*
X50685000Y-52100355D01*
X50685000Y-50685000D01*
X55367332Y-50685000D01*
X55353780Y-50751920D01*
X55353780Y-50751920D01*
G37*
X55353780Y-50751920D02*
X55353780Y-51549480D01*
X55398058Y-51784797D01*
X55472185Y-51899993D01*
X55404789Y-51998630D01*
X55353780Y-52250520D01*
X55353780Y-53048080D01*
X55398058Y-53283397D01*
X55477478Y-53406820D01*
X55197531Y-53686767D01*
X55078180Y-53508145D01*
X54669406Y-53235012D01*
X54187225Y-53139100D01*
X54137855Y-53139100D01*
X53655674Y-53235012D01*
X53246900Y-53508145D01*
X52973767Y-53916919D01*
X52877855Y-54399100D01*
X52973767Y-54881281D01*
X53022736Y-54954568D01*
X52891109Y-55147210D01*
X52840100Y-55399100D01*
X52840100Y-55799100D01*
X52864484Y-55928689D01*
X52840100Y-56049100D01*
X52840100Y-56449100D01*
X52864484Y-56578689D01*
X52840100Y-56699100D01*
X52840100Y-57099100D01*
X52859990Y-57204805D01*
X52852540Y-57222790D01*
X52852540Y-57290350D01*
X52881544Y-57319354D01*
X52884378Y-57334417D01*
X53023450Y-57550541D01*
X53032138Y-57556477D01*
X52949213Y-57639401D01*
X52898460Y-57761930D01*
X52852540Y-57807850D01*
X52852540Y-57940350D01*
X52898460Y-57986270D01*
X52949213Y-58108799D01*
X53127842Y-58287427D01*
X53156023Y-58299100D01*
X53011290Y-58299100D01*
X52852540Y-58457850D01*
X52852540Y-58525410D01*
X52949213Y-58758799D01*
X53027266Y-58836852D01*
X52973767Y-58916919D01*
X52877855Y-59399100D01*
X52973767Y-59881281D01*
X53246900Y-60290055D01*
X53655674Y-60563188D01*
X54137855Y-60659100D01*
X54187225Y-60659100D01*
X54669406Y-60563188D01*
X55078180Y-60290055D01*
X55351313Y-59881281D01*
X55447225Y-59399100D01*
X55351313Y-58916919D01*
X55297814Y-58836852D01*
X55375867Y-58758799D01*
X55472540Y-58525410D01*
X55472540Y-58457850D01*
X55313790Y-58299100D01*
X55169057Y-58299100D01*
X55197238Y-58287427D01*
X55375867Y-58108799D01*
X55426620Y-57986270D01*
X55472540Y-57940350D01*
X55472540Y-57807850D01*
X55426620Y-57761930D01*
X55391069Y-57676102D01*
X55472540Y-57676102D01*
X55472540Y-57659100D01*
X55569773Y-57659100D01*
X55761443Y-57787169D01*
X55783861Y-57802148D01*
X55811163Y-57807579D01*
X55935910Y-58001441D01*
X56148110Y-58146431D01*
X56400000Y-58197440D01*
X56900000Y-58197440D01*
X57135317Y-58153162D01*
X57351441Y-58014090D01*
X57399134Y-57944289D01*
X57435910Y-58001441D01*
X57648110Y-58146431D01*
X57900000Y-58197440D01*
X58400000Y-58197440D01*
X58635317Y-58153162D01*
X58851441Y-58014090D01*
X58919671Y-57914231D01*
X59116201Y-57995838D01*
X59488167Y-57996162D01*
X59831943Y-57854117D01*
X60095192Y-57591327D01*
X60237838Y-57247799D01*
X60238130Y-56912380D01*
X60335750Y-57010000D01*
X60576309Y-57010000D01*
X60790000Y-56921486D01*
X60790000Y-57304400D01*
X60847852Y-57595239D01*
X61012599Y-57841801D01*
X61727378Y-58556580D01*
X61727338Y-58602067D01*
X61727806Y-58603200D01*
X60244500Y-58603200D01*
X60003733Y-58651092D01*
X59953660Y-58661052D01*
X59707099Y-58825799D01*
X56403339Y-62129559D01*
X56401890Y-62128569D01*
X56150000Y-62077560D01*
X55350000Y-62077560D01*
X55185101Y-62108588D01*
X55185162Y-62038333D01*
X55043117Y-61694557D01*
X54780327Y-61431308D01*
X54436799Y-61288662D01*
X54064833Y-61288338D01*
X53721057Y-61430383D01*
X53457808Y-61693173D01*
X53315162Y-62036701D01*
X53314860Y-62383408D01*
X53253569Y-62473110D01*
X53202560Y-62725000D01*
X53202560Y-63475000D01*
X53246838Y-63710317D01*
X53385910Y-63926441D01*
X53598110Y-64071431D01*
X53850000Y-64122440D01*
X54292673Y-64122440D01*
X54292638Y-64162767D01*
X54340069Y-64277560D01*
X53570000Y-64277560D01*
X53334683Y-64321838D01*
X53118559Y-64460910D01*
X53098683Y-64490000D01*
X52875300Y-64490000D01*
X52725609Y-64519776D01*
X52701890Y-64503569D01*
X52450000Y-64452560D01*
X51550000Y-64452560D01*
X51314683Y-64496838D01*
X51098559Y-64635910D01*
X50953569Y-64848110D01*
X50902560Y-65100000D01*
X50902560Y-65600000D01*
X50946838Y-65835317D01*
X51085910Y-66051441D01*
X51155711Y-66099134D01*
X51098559Y-66135910D01*
X50953569Y-66348110D01*
X50902560Y-66600000D01*
X50902560Y-67100000D01*
X50946838Y-67335317D01*
X51085910Y-67551441D01*
X51298110Y-67696431D01*
X51550000Y-67747440D01*
X52450000Y-67747440D01*
X52588696Y-67721342D01*
X52784461Y-67852148D01*
X53075300Y-67910000D01*
X53095331Y-67910000D01*
X53105910Y-67926441D01*
X53318110Y-68071431D01*
X53570000Y-68122440D01*
X53884454Y-68122440D01*
X53435620Y-68307894D01*
X53060173Y-68682687D01*
X52901405Y-69065043D01*
X52819800Y-68868031D01*
X52584188Y-68806377D01*
X51829605Y-69560960D01*
X51843748Y-69575103D01*
X51664143Y-69754708D01*
X51650000Y-69740565D01*
X51635858Y-69754708D01*
X51456253Y-69575103D01*
X51470395Y-69560960D01*
X50715812Y-68806377D01*
X50685000Y-68814440D01*
X50685000Y-68626772D01*
X50895417Y-68626772D01*
X51650000Y-69381355D01*
X52404583Y-68626772D01*
X52342929Y-68391160D01*
X51842520Y-68215033D01*
X51312801Y-68243812D01*
X50957071Y-68391160D01*
X50895417Y-68626772D01*
X50685000Y-68626772D01*
X50685000Y-61697845D01*
X50922956Y-61856842D01*
X51462540Y-61964172D01*
X52002124Y-61856842D01*
X52459561Y-61551193D01*
X52765210Y-61093756D01*
X52872540Y-60554172D01*
X52872540Y-60244028D01*
X52765210Y-59704444D01*
X52459561Y-59247007D01*
X52002124Y-58941358D01*
X51462540Y-58834028D01*
X50922956Y-58941358D01*
X50685000Y-59100355D01*
X50685000Y-54697845D01*
X50922956Y-54856842D01*
X51462540Y-54964172D01*
X52002124Y-54856842D01*
X52459561Y-54551193D01*
X52765210Y-54093756D01*
X52872540Y-53554172D01*
X52872540Y-53244028D01*
X52765210Y-52704444D01*
X52459561Y-52247007D01*
X52002124Y-51941358D01*
X51462540Y-51834028D01*
X50922956Y-51941358D01*
X50685000Y-52100355D01*
X50685000Y-50685000D01*
X55367332Y-50685000D01*
X55353780Y-50751920D01*
G36*
X90464856Y-67265000D02*
X90273690Y-67265000D01*
X90040301Y-67361673D01*
X89861673Y-67540302D01*
X89765000Y-67773691D01*
X89765000Y-68014250D01*
X89923750Y-68173000D01*
X91773000Y-68173000D01*
X91773000Y-68153000D01*
X92027000Y-68153000D01*
X92027000Y-68173000D01*
X92047000Y-68173000D01*
X92047000Y-68427000D01*
X92027000Y-68427000D01*
X92027000Y-68447000D01*
X91773000Y-68447000D01*
X91773000Y-68427000D01*
X89923750Y-68427000D01*
X89765000Y-68585750D01*
X89765000Y-68826309D01*
X89824429Y-68969783D01*
X89674700Y-68940000D01*
X88842279Y-68940000D01*
X88719090Y-68748559D01*
X88506890Y-68603569D01*
X88255000Y-68552560D01*
X87893483Y-68552560D01*
X87996431Y-68401890D01*
X88047440Y-68150000D01*
X88047440Y-68032762D01*
X88293223Y-68134820D01*
X88704971Y-68135179D01*
X89085515Y-67977942D01*
X89376919Y-67687046D01*
X89534820Y-67306777D01*
X89534981Y-67122440D01*
X90464980Y-67122440D01*
X90464856Y-67265000D01*
X90464856Y-67265000D01*
G37*
X90464856Y-67265000D02*
X90273690Y-67265000D01*
X90040301Y-67361673D01*
X89861673Y-67540302D01*
X89765000Y-67773691D01*
X89765000Y-68014250D01*
X89923750Y-68173000D01*
X91773000Y-68173000D01*
X91773000Y-68153000D01*
X92027000Y-68153000D01*
X92027000Y-68173000D01*
X92047000Y-68173000D01*
X92047000Y-68427000D01*
X92027000Y-68427000D01*
X92027000Y-68447000D01*
X91773000Y-68447000D01*
X91773000Y-68427000D01*
X89923750Y-68427000D01*
X89765000Y-68585750D01*
X89765000Y-68826309D01*
X89824429Y-68969783D01*
X89674700Y-68940000D01*
X88842279Y-68940000D01*
X88719090Y-68748559D01*
X88506890Y-68603569D01*
X88255000Y-68552560D01*
X87893483Y-68552560D01*
X87996431Y-68401890D01*
X88047440Y-68150000D01*
X88047440Y-68032762D01*
X88293223Y-68134820D01*
X88704971Y-68135179D01*
X89085515Y-67977942D01*
X89376919Y-67687046D01*
X89534820Y-67306777D01*
X89534981Y-67122440D01*
X90464980Y-67122440D01*
X90464856Y-67265000D01*
G36*
X92100000Y-63922440D02*
X92434973Y-63922440D01*
X92434938Y-63962767D01*
X92576983Y-64306543D01*
X92839773Y-64569792D01*
X93183301Y-64712438D01*
X93315000Y-64712553D01*
X93315000Y-67265000D01*
X92534856Y-67265000D01*
X92535179Y-66895029D01*
X92377942Y-66514485D01*
X92147440Y-66283580D01*
X92147440Y-64375000D01*
X92103162Y-64139683D01*
X91964090Y-63923559D01*
X91904515Y-63882853D01*
X92100000Y-63922440D01*
X92100000Y-63922440D01*
G37*
X92100000Y-63922440D02*
X92434973Y-63922440D01*
X92434938Y-63962767D01*
X92576983Y-64306543D01*
X92839773Y-64569792D01*
X93183301Y-64712438D01*
X93315000Y-64712553D01*
X93315000Y-67265000D01*
X92534856Y-67265000D01*
X92535179Y-66895029D01*
X92377942Y-66514485D01*
X92147440Y-66283580D01*
X92147440Y-64375000D01*
X92103162Y-64139683D01*
X91964090Y-63923559D01*
X91904515Y-63882853D01*
X92100000Y-63922440D01*
G36*
X55305910Y-66026441D02*
X55518110Y-66171431D01*
X55655120Y-66199176D01*
X55534683Y-66221838D01*
X55318559Y-66360910D01*
X55246144Y-66466894D01*
X55106250Y-66327000D01*
X55025949Y-66327000D01*
X54881890Y-66228569D01*
X54744880Y-66200824D01*
X54865317Y-66178162D01*
X55028743Y-66073000D01*
X55106250Y-66073000D01*
X55222375Y-65956875D01*
X55246139Y-65952148D01*
X55254506Y-65946557D01*
X55305910Y-66026441D01*
X55305910Y-66026441D01*
G37*
X55305910Y-66026441D02*
X55518110Y-66171431D01*
X55655120Y-66199176D01*
X55534683Y-66221838D01*
X55318559Y-66360910D01*
X55246144Y-66466894D01*
X55106250Y-66327000D01*
X55025949Y-66327000D01*
X54881890Y-66228569D01*
X54744880Y-66200824D01*
X54865317Y-66178162D01*
X55028743Y-66073000D01*
X55106250Y-66073000D01*
X55222375Y-65956875D01*
X55246139Y-65952148D01*
X55254506Y-65946557D01*
X55305910Y-66026441D01*
G36*
X86934083Y-60560443D02*
X87196873Y-60823692D01*
X87540401Y-60966338D01*
X87912367Y-60966662D01*
X88256143Y-60824617D01*
X88289318Y-60791500D01*
X90868200Y-60791500D01*
X91159039Y-60733648D01*
X91405601Y-60568901D01*
X91452560Y-60521942D01*
X91452560Y-60775000D01*
X91496838Y-61010317D01*
X91499739Y-61014825D01*
X91465000Y-61098691D01*
X91465000Y-61339250D01*
X91623750Y-61498000D01*
X92773000Y-61498000D01*
X92773000Y-61478000D01*
X93027000Y-61478000D01*
X93027000Y-61498000D01*
X93047000Y-61498000D01*
X93047000Y-61752000D01*
X93027000Y-61752000D01*
X93027000Y-61772000D01*
X92773000Y-61772000D01*
X92773000Y-61752000D01*
X91623750Y-61752000D01*
X91465000Y-61910750D01*
X91465000Y-62151309D01*
X91500670Y-62237424D01*
X91452560Y-62475000D01*
X91452560Y-63275000D01*
X91496838Y-63510317D01*
X91635910Y-63726441D01*
X91695485Y-63767147D01*
X91500000Y-63727560D01*
X88500000Y-63727560D01*
X88264683Y-63771838D01*
X88048559Y-63910910D01*
X87910000Y-64113698D01*
X87910000Y-62393122D01*
X87882317Y-62253949D01*
X87852148Y-62102282D01*
X87827188Y-62064927D01*
X87831098Y-62046902D01*
X87783574Y-61794331D01*
X87641529Y-61580149D01*
X86580869Y-60519489D01*
X86551921Y-60499709D01*
X86580869Y-60480511D01*
X86807439Y-60253941D01*
X86934083Y-60560443D01*
X86934083Y-60560443D01*
G37*
X86934083Y-60560443D02*
X87196873Y-60823692D01*
X87540401Y-60966338D01*
X87912367Y-60966662D01*
X88256143Y-60824617D01*
X88289318Y-60791500D01*
X90868200Y-60791500D01*
X91159039Y-60733648D01*
X91405601Y-60568901D01*
X91452560Y-60521942D01*
X91452560Y-60775000D01*
X91496838Y-61010317D01*
X91499739Y-61014825D01*
X91465000Y-61098691D01*
X91465000Y-61339250D01*
X91623750Y-61498000D01*
X92773000Y-61498000D01*
X92773000Y-61478000D01*
X93027000Y-61478000D01*
X93027000Y-61498000D01*
X93047000Y-61498000D01*
X93047000Y-61752000D01*
X93027000Y-61752000D01*
X93027000Y-61772000D01*
X92773000Y-61772000D01*
X92773000Y-61752000D01*
X91623750Y-61752000D01*
X91465000Y-61910750D01*
X91465000Y-62151309D01*
X91500670Y-62237424D01*
X91452560Y-62475000D01*
X91452560Y-63275000D01*
X91496838Y-63510317D01*
X91635910Y-63726441D01*
X91695485Y-63767147D01*
X91500000Y-63727560D01*
X88500000Y-63727560D01*
X88264683Y-63771838D01*
X88048559Y-63910910D01*
X87910000Y-64113698D01*
X87910000Y-62393122D01*
X87882317Y-62253949D01*
X87852148Y-62102282D01*
X87827188Y-62064927D01*
X87831098Y-62046902D01*
X87783574Y-61794331D01*
X87641529Y-61580149D01*
X86580869Y-60519489D01*
X86551921Y-60499709D01*
X86580869Y-60480511D01*
X86807439Y-60253941D01*
X86934083Y-60560443D01*
G36*
X81840000Y-60473622D02*
X81840000Y-61702602D01*
X81897852Y-61993441D01*
X81959500Y-62085704D01*
X81959500Y-63071037D01*
X81927308Y-63103173D01*
X81784662Y-63446701D01*
X81784479Y-63656299D01*
X80231101Y-63656299D01*
X78137401Y-61562599D01*
X77890839Y-61397852D01*
X77600000Y-61340000D01*
X76700000Y-61340000D01*
X76572136Y-61365434D01*
X76237401Y-61030699D01*
X75990839Y-60865952D01*
X75700000Y-60808100D01*
X74964128Y-60808100D01*
X74985638Y-60756299D01*
X74985962Y-60384333D01*
X74916143Y-60215358D01*
X75053238Y-59885199D01*
X75053321Y-59789851D01*
X75120547Y-59689240D01*
X75178399Y-59398401D01*
X75178399Y-58818874D01*
X75231805Y-58783455D01*
X75620713Y-58394547D01*
X75644318Y-58360000D01*
X76595687Y-58360000D01*
X76886526Y-58302148D01*
X77133088Y-58137401D01*
X77610490Y-57660000D01*
X79026378Y-57660000D01*
X81840000Y-60473622D01*
X81840000Y-60473622D01*
G37*
X81840000Y-60473622D02*
X81840000Y-61702602D01*
X81897852Y-61993441D01*
X81959500Y-62085704D01*
X81959500Y-63071037D01*
X81927308Y-63103173D01*
X81784662Y-63446701D01*
X81784479Y-63656299D01*
X80231101Y-63656299D01*
X78137401Y-61562599D01*
X77890839Y-61397852D01*
X77600000Y-61340000D01*
X76700000Y-61340000D01*
X76572136Y-61365434D01*
X76237401Y-61030699D01*
X75990839Y-60865952D01*
X75700000Y-60808100D01*
X74964128Y-60808100D01*
X74985638Y-60756299D01*
X74985962Y-60384333D01*
X74916143Y-60215358D01*
X75053238Y-59885199D01*
X75053321Y-59789851D01*
X75120547Y-59689240D01*
X75178399Y-59398401D01*
X75178399Y-58818874D01*
X75231805Y-58783455D01*
X75620713Y-58394547D01*
X75644318Y-58360000D01*
X76595687Y-58360000D01*
X76886526Y-58302148D01*
X77133088Y-58137401D01*
X77610490Y-57660000D01*
X79026378Y-57660000D01*
X81840000Y-60473622D01*
G36*
X71477000Y-54773000D02*
X71497000Y-54773000D01*
X71497000Y-55027000D01*
X71477000Y-55027000D01*
X71477000Y-55751250D01*
X71525750Y-55800000D01*
X71477000Y-55848750D01*
X71477000Y-56573000D01*
X72226250Y-56573000D01*
X72385000Y-56414250D01*
X72385000Y-56198690D01*
X72288327Y-55965301D01*
X72123025Y-55800000D01*
X72288327Y-55634699D01*
X72358671Y-55464873D01*
X73478251Y-56584453D01*
X73255527Y-56807177D01*
X73181134Y-56916054D01*
X73078750Y-56983955D01*
X72800367Y-57262338D01*
X72546300Y-57211800D01*
X72365781Y-57247708D01*
X72385000Y-57201310D01*
X72385000Y-56985750D01*
X72226250Y-56827000D01*
X71477000Y-56827000D01*
X71477000Y-57551250D01*
X71635750Y-57710000D01*
X71733298Y-57710000D01*
X71140499Y-58302799D01*
X70975752Y-58549361D01*
X70971390Y-58571288D01*
X70762701Y-58362599D01*
X70516139Y-58197852D01*
X70509141Y-58196460D01*
X70503162Y-58164683D01*
X70366213Y-57951858D01*
X70387401Y-57937701D01*
X70552148Y-57691139D01*
X70564918Y-57626940D01*
X70588646Y-57611671D01*
X70590302Y-57613327D01*
X70823691Y-57710000D01*
X71064250Y-57710000D01*
X71223000Y-57551250D01*
X71223000Y-56827000D01*
X71203000Y-56827000D01*
X71203000Y-56573000D01*
X71223000Y-56573000D01*
X71223000Y-55848750D01*
X71174250Y-55800000D01*
X71223000Y-55751250D01*
X71223000Y-55027000D01*
X71203000Y-55027000D01*
X71203000Y-54773000D01*
X71223000Y-54773000D01*
X71223000Y-54753000D01*
X71477000Y-54753000D01*
X71477000Y-54773000D01*
X71477000Y-54773000D01*
G37*
X71477000Y-54773000D02*
X71497000Y-54773000D01*
X71497000Y-55027000D01*
X71477000Y-55027000D01*
X71477000Y-55751250D01*
X71525750Y-55800000D01*
X71477000Y-55848750D01*
X71477000Y-56573000D01*
X72226250Y-56573000D01*
X72385000Y-56414250D01*
X72385000Y-56198690D01*
X72288327Y-55965301D01*
X72123025Y-55800000D01*
X72288327Y-55634699D01*
X72358671Y-55464873D01*
X73478251Y-56584453D01*
X73255527Y-56807177D01*
X73181134Y-56916054D01*
X73078750Y-56983955D01*
X72800367Y-57262338D01*
X72546300Y-57211800D01*
X72365781Y-57247708D01*
X72385000Y-57201310D01*
X72385000Y-56985750D01*
X72226250Y-56827000D01*
X71477000Y-56827000D01*
X71477000Y-57551250D01*
X71635750Y-57710000D01*
X71733298Y-57710000D01*
X71140499Y-58302799D01*
X70975752Y-58549361D01*
X70971390Y-58571288D01*
X70762701Y-58362599D01*
X70516139Y-58197852D01*
X70509141Y-58196460D01*
X70503162Y-58164683D01*
X70366213Y-57951858D01*
X70387401Y-57937701D01*
X70552148Y-57691139D01*
X70564918Y-57626940D01*
X70588646Y-57611671D01*
X70590302Y-57613327D01*
X70823691Y-57710000D01*
X71064250Y-57710000D01*
X71223000Y-57551250D01*
X71223000Y-56827000D01*
X71203000Y-56827000D01*
X71203000Y-56573000D01*
X71223000Y-56573000D01*
X71223000Y-55848750D01*
X71174250Y-55800000D01*
X71223000Y-55751250D01*
X71223000Y-55027000D01*
X71203000Y-55027000D01*
X71203000Y-54773000D01*
X71223000Y-54773000D01*
X71223000Y-54753000D01*
X71477000Y-54753000D01*
X71477000Y-54773000D01*
G36*
X87852560Y-52625000D02*
X87896838Y-52860317D01*
X88035910Y-53076441D01*
X88248110Y-53221431D01*
X88500000Y-53272440D01*
X91500000Y-53272440D01*
X91684629Y-53237700D01*
X91648559Y-53260910D01*
X91503569Y-53473110D01*
X91452560Y-53725000D01*
X91452560Y-54525000D01*
X91496451Y-54758260D01*
X91452560Y-54975000D01*
X91452560Y-55775000D01*
X91496451Y-56008260D01*
X91452560Y-56225000D01*
X91452560Y-57025000D01*
X91469495Y-57115000D01*
X88999400Y-57115000D01*
X88708561Y-57172852D01*
X88461999Y-57337599D01*
X87946020Y-57853578D01*
X87900533Y-57853538D01*
X87892200Y-57856981D01*
X87892200Y-56107500D01*
X87834348Y-55816661D01*
X87764469Y-55712079D01*
X87771431Y-55701890D01*
X87822440Y-55450000D01*
X87822440Y-54650000D01*
X87778162Y-54414683D01*
X87711671Y-54311354D01*
X87713327Y-54309698D01*
X87810000Y-54076309D01*
X87810000Y-53835750D01*
X87651250Y-53677000D01*
X86927000Y-53677000D01*
X86927000Y-53697000D01*
X86673000Y-53697000D01*
X86673000Y-53677000D01*
X85948750Y-53677000D01*
X85790000Y-53835750D01*
X85790000Y-54076309D01*
X85886673Y-54309698D01*
X85888043Y-54311068D01*
X85828569Y-54398110D01*
X85777560Y-54650000D01*
X85777560Y-55450000D01*
X85821838Y-55685317D01*
X85960910Y-55901441D01*
X86081478Y-55983821D01*
X86097852Y-56066139D01*
X86262599Y-56312701D01*
X86372200Y-56422302D01*
X86372200Y-57234905D01*
X86121250Y-56983955D01*
X86012376Y-56909565D01*
X85944473Y-56807177D01*
X85555565Y-56418269D01*
X85446688Y-56343876D01*
X85378787Y-56241492D01*
X84989879Y-55852584D01*
X84881005Y-55778194D01*
X84813102Y-55675806D01*
X84424194Y-55286898D01*
X84315317Y-55212505D01*
X84247416Y-55110121D01*
X83858508Y-54721213D01*
X83749634Y-54646823D01*
X83681731Y-54544435D01*
X83458999Y-54321703D01*
X84687401Y-53093301D01*
X84733912Y-53023691D01*
X85790000Y-53023691D01*
X85790000Y-53264250D01*
X85948750Y-53423000D01*
X86673000Y-53423000D01*
X86673000Y-52673750D01*
X86927000Y-52673750D01*
X86927000Y-53423000D01*
X87651250Y-53423000D01*
X87810000Y-53264250D01*
X87810000Y-53023691D01*
X87713327Y-52790302D01*
X87534699Y-52611673D01*
X87301310Y-52515000D01*
X87085750Y-52515000D01*
X86927000Y-52673750D01*
X86673000Y-52673750D01*
X86514250Y-52515000D01*
X86298690Y-52515000D01*
X86065301Y-52611673D01*
X85886673Y-52790302D01*
X85790000Y-53023691D01*
X84733912Y-53023691D01*
X84852148Y-52846740D01*
X84910000Y-52555900D01*
X84910000Y-52321486D01*
X85123691Y-52410000D01*
X85364250Y-52410000D01*
X85523000Y-52251250D01*
X85523000Y-51527000D01*
X85777000Y-51527000D01*
X85777000Y-52251250D01*
X85935750Y-52410000D01*
X86176309Y-52410000D01*
X86409698Y-52313327D01*
X86588327Y-52134699D01*
X86685000Y-51901310D01*
X86685000Y-51685750D01*
X86526250Y-51527000D01*
X85777000Y-51527000D01*
X85523000Y-51527000D01*
X85503000Y-51527000D01*
X85503000Y-51273000D01*
X85523000Y-51273000D01*
X85523000Y-51253000D01*
X85777000Y-51253000D01*
X85777000Y-51273000D01*
X86526250Y-51273000D01*
X86685000Y-51114250D01*
X86685000Y-50898690D01*
X86596487Y-50685000D01*
X87852560Y-50685000D01*
X87852560Y-52625000D01*
X87852560Y-52625000D01*
G37*
X87852560Y-52625000D02*
X87896838Y-52860317D01*
X88035910Y-53076441D01*
X88248110Y-53221431D01*
X88500000Y-53272440D01*
X91500000Y-53272440D01*
X91684629Y-53237700D01*
X91648559Y-53260910D01*
X91503569Y-53473110D01*
X91452560Y-53725000D01*
X91452560Y-54525000D01*
X91496451Y-54758260D01*
X91452560Y-54975000D01*
X91452560Y-55775000D01*
X91496451Y-56008260D01*
X91452560Y-56225000D01*
X91452560Y-57025000D01*
X91469495Y-57115000D01*
X88999400Y-57115000D01*
X88708561Y-57172852D01*
X88461999Y-57337599D01*
X87946020Y-57853578D01*
X87900533Y-57853538D01*
X87892200Y-57856981D01*
X87892200Y-56107500D01*
X87834348Y-55816661D01*
X87764469Y-55712079D01*
X87771431Y-55701890D01*
X87822440Y-55450000D01*
X87822440Y-54650000D01*
X87778162Y-54414683D01*
X87711671Y-54311354D01*
X87713327Y-54309698D01*
X87810000Y-54076309D01*
X87810000Y-53835750D01*
X87651250Y-53677000D01*
X86927000Y-53677000D01*
X86927000Y-53697000D01*
X86673000Y-53697000D01*
X86673000Y-53677000D01*
X85948750Y-53677000D01*
X85790000Y-53835750D01*
X85790000Y-54076309D01*
X85886673Y-54309698D01*
X85888043Y-54311068D01*
X85828569Y-54398110D01*
X85777560Y-54650000D01*
X85777560Y-55450000D01*
X85821838Y-55685317D01*
X85960910Y-55901441D01*
X86081478Y-55983821D01*
X86097852Y-56066139D01*
X86262599Y-56312701D01*
X86372200Y-56422302D01*
X86372200Y-57234905D01*
X86121250Y-56983955D01*
X86012376Y-56909565D01*
X85944473Y-56807177D01*
X85555565Y-56418269D01*
X85446688Y-56343876D01*
X85378787Y-56241492D01*
X84989879Y-55852584D01*
X84881005Y-55778194D01*
X84813102Y-55675806D01*
X84424194Y-55286898D01*
X84315317Y-55212505D01*
X84247416Y-55110121D01*
X83858508Y-54721213D01*
X83749634Y-54646823D01*
X83681731Y-54544435D01*
X83458999Y-54321703D01*
X84687401Y-53093301D01*
X84733912Y-53023691D01*
X85790000Y-53023691D01*
X85790000Y-53264250D01*
X85948750Y-53423000D01*
X86673000Y-53423000D01*
X86673000Y-52673750D01*
X86927000Y-52673750D01*
X86927000Y-53423000D01*
X87651250Y-53423000D01*
X87810000Y-53264250D01*
X87810000Y-53023691D01*
X87713327Y-52790302D01*
X87534699Y-52611673D01*
X87301310Y-52515000D01*
X87085750Y-52515000D01*
X86927000Y-52673750D01*
X86673000Y-52673750D01*
X86514250Y-52515000D01*
X86298690Y-52515000D01*
X86065301Y-52611673D01*
X85886673Y-52790302D01*
X85790000Y-53023691D01*
X84733912Y-53023691D01*
X84852148Y-52846740D01*
X84910000Y-52555900D01*
X84910000Y-52321486D01*
X85123691Y-52410000D01*
X85364250Y-52410000D01*
X85523000Y-52251250D01*
X85523000Y-51527000D01*
X85777000Y-51527000D01*
X85777000Y-52251250D01*
X85935750Y-52410000D01*
X86176309Y-52410000D01*
X86409698Y-52313327D01*
X86588327Y-52134699D01*
X86685000Y-51901310D01*
X86685000Y-51685750D01*
X86526250Y-51527000D01*
X85777000Y-51527000D01*
X85523000Y-51527000D01*
X85503000Y-51527000D01*
X85503000Y-51273000D01*
X85523000Y-51273000D01*
X85523000Y-51253000D01*
X85777000Y-51253000D01*
X85777000Y-51273000D01*
X86526250Y-51273000D01*
X86685000Y-51114250D01*
X86685000Y-50898690D01*
X86596487Y-50685000D01*
X87852560Y-50685000D01*
X87852560Y-52625000D01*
G36*
X57187399Y-53787401D02*
X57433961Y-53952148D01*
X57724800Y-54010000D01*
X61795331Y-54010000D01*
X61805910Y-54026441D01*
X62018110Y-54171431D01*
X62270000Y-54222440D01*
X63330000Y-54222440D01*
X63565317Y-54178162D01*
X63781441Y-54039090D01*
X63801317Y-54010000D01*
X63995331Y-54010000D01*
X64005910Y-54026441D01*
X64218110Y-54171431D01*
X64470000Y-54222440D01*
X65530000Y-54222440D01*
X65765317Y-54178162D01*
X65981441Y-54039090D01*
X66001317Y-54010000D01*
X66032099Y-54010000D01*
X65903569Y-54198110D01*
X65852560Y-54450000D01*
X65852560Y-55350000D01*
X65875988Y-55474510D01*
X65585498Y-55765000D01*
X63542063Y-55765000D01*
X63509927Y-55732808D01*
X63166399Y-55590162D01*
X62794433Y-55589838D01*
X62597440Y-55671234D01*
X62597440Y-55625000D01*
X62553162Y-55389683D01*
X62414090Y-55173559D01*
X62201890Y-55028569D01*
X61950000Y-54977560D01*
X61150000Y-54977560D01*
X60914683Y-55021838D01*
X60811354Y-55088329D01*
X60809698Y-55086673D01*
X60576309Y-54990000D01*
X60335750Y-54990000D01*
X60177000Y-55148750D01*
X60177000Y-55873000D01*
X60197000Y-55873000D01*
X60197000Y-56127000D01*
X60177000Y-56127000D01*
X60177000Y-56147000D01*
X59923000Y-56147000D01*
X59923000Y-56127000D01*
X59903000Y-56127000D01*
X59903000Y-55873000D01*
X59923000Y-55873000D01*
X59923000Y-55148750D01*
X59845081Y-55070831D01*
X59721217Y-54771057D01*
X59458427Y-54507808D01*
X59114899Y-54365162D01*
X58814829Y-54364901D01*
X58651890Y-54253569D01*
X58400000Y-54202560D01*
X57900000Y-54202560D01*
X57664683Y-54246838D01*
X57448559Y-54385910D01*
X57400866Y-54455711D01*
X57364090Y-54398559D01*
X57151890Y-54253569D01*
X56900000Y-54202560D01*
X56831342Y-54202560D01*
X56937401Y-54096501D01*
X57102148Y-53849939D01*
X57126668Y-53726670D01*
X57187399Y-53787401D01*
X57187399Y-53787401D01*
G37*
X57187399Y-53787401D02*
X57433961Y-53952148D01*
X57724800Y-54010000D01*
X61795331Y-54010000D01*
X61805910Y-54026441D01*
X62018110Y-54171431D01*
X62270000Y-54222440D01*
X63330000Y-54222440D01*
X63565317Y-54178162D01*
X63781441Y-54039090D01*
X63801317Y-54010000D01*
X63995331Y-54010000D01*
X64005910Y-54026441D01*
X64218110Y-54171431D01*
X64470000Y-54222440D01*
X65530000Y-54222440D01*
X65765317Y-54178162D01*
X65981441Y-54039090D01*
X66001317Y-54010000D01*
X66032099Y-54010000D01*
X65903569Y-54198110D01*
X65852560Y-54450000D01*
X65852560Y-55350000D01*
X65875988Y-55474510D01*
X65585498Y-55765000D01*
X63542063Y-55765000D01*
X63509927Y-55732808D01*
X63166399Y-55590162D01*
X62794433Y-55589838D01*
X62597440Y-55671234D01*
X62597440Y-55625000D01*
X62553162Y-55389683D01*
X62414090Y-55173559D01*
X62201890Y-55028569D01*
X61950000Y-54977560D01*
X61150000Y-54977560D01*
X60914683Y-55021838D01*
X60811354Y-55088329D01*
X60809698Y-55086673D01*
X60576309Y-54990000D01*
X60335750Y-54990000D01*
X60177000Y-55148750D01*
X60177000Y-55873000D01*
X60197000Y-55873000D01*
X60197000Y-56127000D01*
X60177000Y-56127000D01*
X60177000Y-56147000D01*
X59923000Y-56147000D01*
X59923000Y-56127000D01*
X59903000Y-56127000D01*
X59903000Y-55873000D01*
X59923000Y-55873000D01*
X59923000Y-55148750D01*
X59845081Y-55070831D01*
X59721217Y-54771057D01*
X59458427Y-54507808D01*
X59114899Y-54365162D01*
X58814829Y-54364901D01*
X58651890Y-54253569D01*
X58400000Y-54202560D01*
X57900000Y-54202560D01*
X57664683Y-54246838D01*
X57448559Y-54385910D01*
X57400866Y-54455711D01*
X57364090Y-54398559D01*
X57151890Y-54253569D01*
X56900000Y-54202560D01*
X56831342Y-54202560D01*
X56937401Y-54096501D01*
X57102148Y-53849939D01*
X57126668Y-53726670D01*
X57187399Y-53787401D01*
G36*
X71816920Y-50874910D02*
X71816920Y-51114250D01*
X71975670Y-51273000D01*
X72723700Y-51273000D01*
X72723700Y-51253000D01*
X72977700Y-51253000D01*
X72977700Y-51273000D01*
X72997700Y-51273000D01*
X72997700Y-51527000D01*
X72977700Y-51527000D01*
X72977700Y-52275030D01*
X73136450Y-52433780D01*
X73375789Y-52433780D01*
X73609178Y-52337107D01*
X73610970Y-52335315D01*
X73698630Y-52395211D01*
X73950520Y-52446220D01*
X74748080Y-52446220D01*
X74983397Y-52401942D01*
X75137690Y-52302657D01*
X75348110Y-52446431D01*
X75600000Y-52497440D01*
X76100000Y-52497440D01*
X76335317Y-52453162D01*
X76551441Y-52314090D01*
X76599134Y-52244289D01*
X76635910Y-52301441D01*
X76848110Y-52446431D01*
X77100000Y-52497440D01*
X77372638Y-52497440D01*
X77468951Y-52593753D01*
X77215325Y-52847379D01*
X77140932Y-52956256D01*
X77038548Y-53024157D01*
X76860346Y-53202359D01*
X76727027Y-53068808D01*
X76383499Y-52926162D01*
X76011533Y-52925838D01*
X75667757Y-53067883D01*
X75404508Y-53330673D01*
X75261862Y-53674201D01*
X75261826Y-53715008D01*
X75183957Y-53747183D01*
X74920708Y-54009973D01*
X74778062Y-54353501D01*
X74777738Y-54725467D01*
X74919783Y-55069243D01*
X74965379Y-55114918D01*
X74872065Y-55208232D01*
X74863597Y-55228675D01*
X74775806Y-55286898D01*
X74553053Y-55509651D01*
X72306301Y-53262899D01*
X72059739Y-53098152D01*
X71768900Y-53040300D01*
X69685000Y-53040300D01*
X69685000Y-52972998D01*
X69526252Y-52972998D01*
X69685000Y-52814250D01*
X69685000Y-52598690D01*
X69588327Y-52365301D01*
X69409698Y-52186673D01*
X69234092Y-52113934D01*
X69238327Y-52109699D01*
X69335000Y-51876310D01*
X69335000Y-51685750D01*
X71816920Y-51685750D01*
X71816920Y-51925090D01*
X71913593Y-52158479D01*
X72092222Y-52337107D01*
X72325611Y-52433780D01*
X72564950Y-52433780D01*
X72723700Y-52275030D01*
X72723700Y-51527000D01*
X71975670Y-51527000D01*
X71816920Y-51685750D01*
X69335000Y-51685750D01*
X69335000Y-51585750D01*
X69176250Y-51427000D01*
X68575000Y-51427000D01*
X68575000Y-51447000D01*
X68325000Y-51447000D01*
X68325000Y-51427000D01*
X68303000Y-51427000D01*
X68303000Y-51173000D01*
X68325000Y-51173000D01*
X68325000Y-51153000D01*
X68575000Y-51153000D01*
X68575000Y-51173000D01*
X69176250Y-51173000D01*
X69335000Y-51014250D01*
X69335000Y-50723690D01*
X69318974Y-50685000D01*
X71895583Y-50685000D01*
X71816920Y-50874910D01*
X71816920Y-50874910D01*
G37*
X71816920Y-50874910D02*
X71816920Y-51114250D01*
X71975670Y-51273000D01*
X72723700Y-51273000D01*
X72723700Y-51253000D01*
X72977700Y-51253000D01*
X72977700Y-51273000D01*
X72997700Y-51273000D01*
X72997700Y-51527000D01*
X72977700Y-51527000D01*
X72977700Y-52275030D01*
X73136450Y-52433780D01*
X73375789Y-52433780D01*
X73609178Y-52337107D01*
X73610970Y-52335315D01*
X73698630Y-52395211D01*
X73950520Y-52446220D01*
X74748080Y-52446220D01*
X74983397Y-52401942D01*
X75137690Y-52302657D01*
X75348110Y-52446431D01*
X75600000Y-52497440D01*
X76100000Y-52497440D01*
X76335317Y-52453162D01*
X76551441Y-52314090D01*
X76599134Y-52244289D01*
X76635910Y-52301441D01*
X76848110Y-52446431D01*
X77100000Y-52497440D01*
X77372638Y-52497440D01*
X77468951Y-52593753D01*
X77215325Y-52847379D01*
X77140932Y-52956256D01*
X77038548Y-53024157D01*
X76860346Y-53202359D01*
X76727027Y-53068808D01*
X76383499Y-52926162D01*
X76011533Y-52925838D01*
X75667757Y-53067883D01*
X75404508Y-53330673D01*
X75261862Y-53674201D01*
X75261826Y-53715008D01*
X75183957Y-53747183D01*
X74920708Y-54009973D01*
X74778062Y-54353501D01*
X74777738Y-54725467D01*
X74919783Y-55069243D01*
X74965379Y-55114918D01*
X74872065Y-55208232D01*
X74863597Y-55228675D01*
X74775806Y-55286898D01*
X74553053Y-55509651D01*
X72306301Y-53262899D01*
X72059739Y-53098152D01*
X71768900Y-53040300D01*
X69685000Y-53040300D01*
X69685000Y-52972998D01*
X69526252Y-52972998D01*
X69685000Y-52814250D01*
X69685000Y-52598690D01*
X69588327Y-52365301D01*
X69409698Y-52186673D01*
X69234092Y-52113934D01*
X69238327Y-52109699D01*
X69335000Y-51876310D01*
X69335000Y-51685750D01*
X71816920Y-51685750D01*
X71816920Y-51925090D01*
X71913593Y-52158479D01*
X72092222Y-52337107D01*
X72325611Y-52433780D01*
X72564950Y-52433780D01*
X72723700Y-52275030D01*
X72723700Y-51527000D01*
X71975670Y-51527000D01*
X71816920Y-51685750D01*
X69335000Y-51685750D01*
X69335000Y-51585750D01*
X69176250Y-51427000D01*
X68575000Y-51427000D01*
X68575000Y-51447000D01*
X68325000Y-51447000D01*
X68325000Y-51427000D01*
X68303000Y-51427000D01*
X68303000Y-51173000D01*
X68325000Y-51173000D01*
X68325000Y-51153000D01*
X68575000Y-51153000D01*
X68575000Y-51173000D01*
X69176250Y-51173000D01*
X69335000Y-51014250D01*
X69335000Y-50723690D01*
X69318974Y-50685000D01*
X71895583Y-50685000D01*
X71816920Y-50874910D01*
G36*
X83153569Y-50773110D02*
X83102560Y-51025000D01*
X83102560Y-51775000D01*
X83146838Y-52010317D01*
X83285910Y-52226441D01*
X83356455Y-52274643D01*
X82219828Y-53411270D01*
X82150336Y-53424346D01*
X82174244Y-53314132D01*
X82145054Y-53158999D01*
X82145054Y-53025351D01*
X82063341Y-52943638D01*
X82042898Y-52935170D01*
X81984675Y-52847379D01*
X81595767Y-52458471D01*
X81398064Y-52323386D01*
X81146902Y-52268902D01*
X80894331Y-52316426D01*
X80680149Y-52458471D01*
X80081711Y-53056909D01*
X78247440Y-51222638D01*
X78247440Y-50950000D01*
X78203162Y-50714683D01*
X78184062Y-50685000D01*
X83213772Y-50685000D01*
X83153569Y-50773110D01*
X83153569Y-50773110D01*
G37*
X83153569Y-50773110D02*
X83102560Y-51025000D01*
X83102560Y-51775000D01*
X83146838Y-52010317D01*
X83285910Y-52226441D01*
X83356455Y-52274643D01*
X82219828Y-53411270D01*
X82150336Y-53424346D01*
X82174244Y-53314132D01*
X82145054Y-53158999D01*
X82145054Y-53025351D01*
X82063341Y-52943638D01*
X82042898Y-52935170D01*
X81984675Y-52847379D01*
X81595767Y-52458471D01*
X81398064Y-52323386D01*
X81146902Y-52268902D01*
X80894331Y-52316426D01*
X80680149Y-52458471D01*
X80081711Y-53056909D01*
X78247440Y-51222638D01*
X78247440Y-50950000D01*
X78203162Y-50714683D01*
X78184062Y-50685000D01*
X83213772Y-50685000D01*
X83153569Y-50773110D01*
M02*
