G04 #@! TF.FileFunction,Copper,L2,Bot,Signal*
%FSLAX46Y46*%
G04 Gerber Fmt 4.6, Leading zero omitted, Abs format (unit mm)*
G04 Created by KiCad (PCBNEW 4.0.5+dfsg1-4) date Thu Apr  6 17:37:01 2017*
%MOMM*%
%LPD*%
G01*
G04 APERTURE LIST*
%ADD10C,0.100000*%
%ADD11O,1.250000X1.250000*%
%ADD12O,1.550000X1.800000*%
%ADD13R,0.320000X3.000000*%
%ADD14C,1.397000*%
%ADD15R,1.397000X1.397000*%
%ADD16C,0.600000*%
%ADD17C,0.250000*%
%ADD18C,0.254000*%
G04 APERTURE END LIST*
D10*
D11*
X54162540Y-54399100D03*
X54162540Y-59399100D03*
D12*
X51462540Y-53399100D03*
X51462540Y-60399100D03*
D13*
X55700000Y-60500000D03*
X56320000Y-60500000D03*
X56940000Y-60500000D03*
X57560000Y-60500000D03*
X58180000Y-60500000D03*
X58800000Y-60500000D03*
X59420000Y-60500000D03*
X60040000Y-60500000D03*
X60660000Y-60500000D03*
X61280000Y-60500000D03*
X61900000Y-60500000D03*
X62520000Y-60500000D03*
X63140000Y-60500000D03*
X63760000Y-60500000D03*
D14*
X58870000Y-69739040D03*
X56330000Y-69860960D03*
X61410000Y-69860960D03*
X53790000Y-69739040D03*
D15*
X63950000Y-69739040D03*
D14*
X51250000Y-69860960D03*
D16*
X68100000Y-57400000D03*
X82300000Y-62000000D03*
X75300000Y-59600000D03*
X71400000Y-55700000D03*
X80000000Y-69100000D03*
X66300000Y-69700000D03*
X69400000Y-64900000D03*
X66600000Y-66200000D03*
X85350000Y-66138300D03*
X67885900Y-59805000D03*
X79994100Y-66318600D03*
X75688100Y-58132000D03*
X90188600Y-65031200D03*
X59609000Y-64775000D03*
X63657200Y-53697700D03*
X64640800Y-64610200D03*
X67600500Y-55348800D03*
X68430300Y-55798900D03*
X58728800Y-56050000D03*
X60186300Y-57311000D03*
X59245500Y-57380900D03*
X58733800Y-58015700D03*
X64282600Y-53150000D03*
X80805300Y-64100600D03*
X68556900Y-58523500D03*
X76620100Y-63800500D03*
X75237900Y-65996800D03*
X65777000Y-55348700D03*
X66764200Y-61328700D03*
X68968900Y-60655000D03*
X70606400Y-62145300D03*
X73987600Y-56274900D03*
X75844100Y-54418400D03*
X65329400Y-54074100D03*
X76408200Y-53832300D03*
D17*
X71400000Y-55700000D02*
X75300000Y-59600000D01*
X82300000Y-62000000D02*
X77700000Y-62000000D01*
X85350000Y-65050000D02*
X82300000Y-62000000D01*
X85350000Y-65050000D02*
X85350000Y-66138300D01*
X77700000Y-62000000D02*
X75300000Y-59600000D01*
X79994100Y-66318600D02*
X79994100Y-69094100D01*
X79994100Y-69094100D02*
X80000000Y-69100000D01*
X66600000Y-66200000D02*
X66600000Y-69400000D01*
X66600000Y-69400000D02*
X66300000Y-69700000D01*
X67900000Y-64900000D02*
X69400000Y-64900000D01*
X66600000Y-66200000D02*
X67900000Y-64900000D01*
X69198100Y-59805000D02*
X71293100Y-61900000D01*
X73521801Y-66621801D02*
X71293100Y-64393100D01*
X71293100Y-64393100D02*
X71293100Y-61900000D01*
X79994100Y-66318600D02*
X79569836Y-66318600D01*
X79569836Y-66318600D02*
X79266635Y-66621801D01*
X79266635Y-66621801D02*
X73521801Y-66621801D01*
X59420000Y-60500000D02*
X59420000Y-62325300D01*
X55674300Y-65436700D02*
X58951600Y-65436700D01*
X51250000Y-69861000D02*
X55674300Y-65436700D01*
X58951600Y-62793700D02*
X59420000Y-62325300D01*
X58951600Y-65436700D02*
X58951600Y-62793700D01*
X85169700Y-66318600D02*
X79994100Y-66318600D01*
X85350000Y-66138300D02*
X85169700Y-66318600D01*
X59842800Y-65436700D02*
X58951600Y-65436700D01*
X62195200Y-63084300D02*
X59842800Y-65436700D01*
X64116300Y-63084300D02*
X62195200Y-63084300D01*
X67395600Y-59805000D02*
X64116300Y-63084300D01*
X67885900Y-59805000D02*
X67395600Y-59805000D01*
X67885900Y-59805000D02*
X69198100Y-59805000D01*
X83289400Y-58132000D02*
X75688100Y-58132000D01*
X90188600Y-65031200D02*
X83289400Y-58132000D01*
X60040000Y-64344000D02*
X59609000Y-64775000D01*
X60040000Y-62325300D02*
X60040000Y-64344000D01*
X60040000Y-61412600D02*
X60040000Y-62325300D01*
X60040000Y-61412600D02*
X60040000Y-60500000D01*
X60040000Y-60500000D02*
X60040000Y-58674700D01*
X58180000Y-58968100D02*
X58180000Y-60500000D01*
X58473400Y-58674700D02*
X58180000Y-58968100D01*
X60040000Y-58674700D02*
X58473400Y-58674700D01*
X63657200Y-54724600D02*
X63657200Y-53697700D01*
X60040000Y-58341800D02*
X63657200Y-54724600D01*
X60040000Y-58674700D02*
X60040000Y-58341800D01*
X61410000Y-67841000D02*
X61410000Y-69861000D01*
X64640800Y-64610200D02*
X61410000Y-67841000D01*
X66525036Y-56000000D02*
X65814700Y-56000000D01*
X65814700Y-56000000D02*
X63140000Y-58674700D01*
X67600500Y-55348800D02*
X67176236Y-55348800D01*
X67176236Y-55348800D02*
X66525036Y-56000000D01*
X63140000Y-60500000D02*
X63140000Y-58674700D01*
X65851110Y-56600000D02*
X63760000Y-58691110D01*
X63760000Y-58691110D02*
X63760000Y-60500000D01*
X66561446Y-56600000D02*
X65851110Y-56600000D01*
X68430300Y-55798900D02*
X68130301Y-56098899D01*
X68130301Y-56098899D02*
X67062547Y-56098899D01*
X67062547Y-56098899D02*
X66561446Y-56600000D01*
X55700000Y-58625200D02*
X55700000Y-60500000D01*
X58275200Y-56050000D02*
X55700000Y-58625200D01*
X58728800Y-56050000D02*
X58275200Y-56050000D01*
X56320000Y-58654000D02*
X56320000Y-60500000D01*
X58228300Y-56745700D02*
X56320000Y-58654000D01*
X59621000Y-56745700D02*
X58228300Y-56745700D01*
X60186300Y-57311000D02*
X59621000Y-56745700D01*
X56940000Y-60500000D02*
X56940000Y-58674700D01*
X58233800Y-57380900D02*
X56940000Y-58674700D01*
X59245500Y-57380900D02*
X58233800Y-57380900D01*
X58465800Y-58015700D02*
X58733800Y-58015700D01*
X57560000Y-58921500D02*
X58465800Y-58015700D01*
X57560000Y-60500000D02*
X57560000Y-58921500D01*
X64282600Y-54736200D02*
X64282600Y-53150000D01*
X60660000Y-58358800D02*
X64282600Y-54736200D01*
X60660000Y-60500000D02*
X60660000Y-58358800D01*
X68556900Y-58523500D02*
X71411190Y-58523500D01*
X71411190Y-58523500D02*
X75995099Y-63107409D01*
X75995099Y-63107409D02*
X75995099Y-64059899D01*
X75995099Y-64059899D02*
X76375200Y-64440000D01*
X76375200Y-64440000D02*
X80465900Y-64440000D01*
X80465900Y-64440000D02*
X80805300Y-64100600D01*
X61280000Y-60500000D02*
X61280000Y-58674700D01*
X76620100Y-63096000D02*
X76620100Y-63800500D01*
X68247400Y-54723300D02*
X76620100Y-63096000D01*
X65231400Y-54723300D02*
X68247400Y-54723300D01*
X61280000Y-58674700D02*
X65231400Y-54723300D01*
X75237900Y-65996800D02*
X73533210Y-65996800D01*
X73533210Y-65996800D02*
X71743110Y-64206700D01*
X62284290Y-62634290D02*
X61900000Y-62250000D01*
X71743110Y-64206700D02*
X71743110Y-61712710D01*
X67384100Y-59179600D02*
X63929410Y-62634290D01*
X71743110Y-61712710D02*
X69210000Y-59179600D01*
X63929410Y-62634290D02*
X62284290Y-62634290D01*
X69210000Y-59179600D02*
X67384100Y-59179600D01*
X61900000Y-62250000D02*
X61900000Y-60500000D01*
X62520000Y-58605700D02*
X65777000Y-55348700D01*
X62520000Y-60500000D02*
X62520000Y-58605700D01*
X57800000Y-68391000D02*
X56330000Y-69861000D01*
X64165690Y-63534310D02*
X59309000Y-68391000D01*
X59309000Y-68391000D02*
X57800000Y-68391000D01*
X66764200Y-61328700D02*
X64558590Y-63534310D01*
X64558590Y-63534310D02*
X64165690Y-63534310D01*
X65639000Y-63984900D02*
X68968900Y-60655000D01*
X64381800Y-63984900D02*
X65639000Y-63984900D01*
X58870000Y-69496700D02*
X64381800Y-63984900D01*
X58870000Y-69739000D02*
X58870000Y-69496700D01*
X70606400Y-62145300D02*
X68154700Y-62145300D01*
X68154700Y-62145300D02*
X63950000Y-66350000D01*
X63950000Y-66350000D02*
X63950000Y-68715200D01*
X63950000Y-68715200D02*
X63950000Y-69739000D01*
X75844100Y-54418400D02*
X73987600Y-56274900D01*
X76310100Y-53734200D02*
X76408200Y-53832300D01*
X65669300Y-53734200D02*
X76310100Y-53734200D01*
X65329400Y-54074100D02*
X65669300Y-53734200D01*
D18*
G36*
X93315000Y-70315000D02*
X65295940Y-70315000D01*
X65295940Y-69040540D01*
X65251662Y-68805223D01*
X65112590Y-68589099D01*
X64900390Y-68444109D01*
X64710000Y-68405554D01*
X64710000Y-66664802D01*
X68469502Y-62905300D01*
X70043937Y-62905300D01*
X70076073Y-62937492D01*
X70419601Y-63080138D01*
X70791567Y-63080462D01*
X70983110Y-63001318D01*
X70983110Y-64206700D01*
X71040962Y-64497539D01*
X71205709Y-64744101D01*
X72995809Y-66534201D01*
X73242371Y-66698948D01*
X73533210Y-66756800D01*
X74675437Y-66756800D01*
X74707573Y-66788992D01*
X75051101Y-66931638D01*
X75423067Y-66931962D01*
X75766843Y-66789917D01*
X76030092Y-66527127D01*
X76172738Y-66183599D01*
X76173062Y-65811633D01*
X76031017Y-65467857D01*
X75768227Y-65204608D01*
X75424699Y-65061962D01*
X75052733Y-65061638D01*
X74708957Y-65203683D01*
X74675782Y-65236800D01*
X73848012Y-65236800D01*
X72503110Y-63891898D01*
X72503110Y-61712710D01*
X72445258Y-61421871D01*
X72280511Y-61175309D01*
X70388702Y-59283500D01*
X71096388Y-59283500D01*
X75235099Y-63422211D01*
X75235099Y-64059899D01*
X75292951Y-64350738D01*
X75457698Y-64597300D01*
X75837799Y-64977401D01*
X76084361Y-65142148D01*
X76375200Y-65200000D01*
X80465900Y-65200000D01*
X80756739Y-65142148D01*
X80916054Y-65035697D01*
X80990467Y-65035762D01*
X81334243Y-64893717D01*
X81597492Y-64630927D01*
X81740138Y-64287399D01*
X81740462Y-63915433D01*
X81598417Y-63571657D01*
X81335627Y-63308408D01*
X80992099Y-63165762D01*
X80620133Y-63165438D01*
X80276357Y-63307483D01*
X80013108Y-63570273D01*
X79967545Y-63680000D01*
X77555206Y-63680000D01*
X77555262Y-63615333D01*
X77413217Y-63271557D01*
X77380100Y-63238382D01*
X77380100Y-63096000D01*
X77322248Y-62805161D01*
X77157501Y-62558599D01*
X72916069Y-58317167D01*
X74752938Y-58317167D01*
X74894983Y-58660943D01*
X75157773Y-58924192D01*
X75501301Y-59066838D01*
X75873267Y-59067162D01*
X76217043Y-58925117D01*
X76250218Y-58892000D01*
X82974598Y-58892000D01*
X89253478Y-65170880D01*
X89253438Y-65216367D01*
X89395483Y-65560143D01*
X89658273Y-65823392D01*
X90001801Y-65966038D01*
X90373767Y-65966362D01*
X90717543Y-65824317D01*
X90980792Y-65561527D01*
X91123438Y-65217999D01*
X91123762Y-64846033D01*
X90981717Y-64502257D01*
X90718927Y-64239008D01*
X90375399Y-64096362D01*
X90328523Y-64096321D01*
X83826801Y-57594599D01*
X83580239Y-57429852D01*
X83289400Y-57372000D01*
X76250563Y-57372000D01*
X76218427Y-57339808D01*
X75874899Y-57197162D01*
X75502933Y-57196838D01*
X75159157Y-57338883D01*
X74895908Y-57601673D01*
X74753262Y-57945201D01*
X74752938Y-58317167D01*
X72916069Y-58317167D01*
X69093102Y-54494200D01*
X74693498Y-54494200D01*
X73847920Y-55339778D01*
X73802433Y-55339738D01*
X73458657Y-55481783D01*
X73195408Y-55744573D01*
X73052762Y-56088101D01*
X73052438Y-56460067D01*
X73194483Y-56803843D01*
X73457273Y-57067092D01*
X73800801Y-57209738D01*
X74172767Y-57210062D01*
X74516543Y-57068017D01*
X74779792Y-56805227D01*
X74922438Y-56461699D01*
X74922479Y-56414823D01*
X75983780Y-55353522D01*
X76029267Y-55353562D01*
X76373043Y-55211517D01*
X76636292Y-54948727D01*
X76736039Y-54708511D01*
X76937143Y-54625417D01*
X77200392Y-54362627D01*
X77343038Y-54019099D01*
X77343362Y-53647133D01*
X77201317Y-53303357D01*
X76938527Y-53040108D01*
X76594999Y-52897462D01*
X76223033Y-52897138D01*
X76036528Y-52974200D01*
X65669300Y-52974200D01*
X65378460Y-53032052D01*
X65218397Y-53139003D01*
X65217610Y-53139002D01*
X65217762Y-52964833D01*
X65075717Y-52621057D01*
X64812927Y-52357808D01*
X64469399Y-52215162D01*
X64097433Y-52214838D01*
X63753657Y-52356883D01*
X63490408Y-52619673D01*
X63422604Y-52782961D01*
X63128257Y-52904583D01*
X62865008Y-53167373D01*
X62722362Y-53510901D01*
X62722038Y-53882867D01*
X62864083Y-54226643D01*
X62897200Y-54259818D01*
X62897200Y-54409798D01*
X60752377Y-56554621D01*
X60716627Y-56518808D01*
X60373099Y-56376162D01*
X60326223Y-56376121D01*
X60158401Y-56208299D01*
X59911839Y-56043552D01*
X59663849Y-55994223D01*
X59663962Y-55864833D01*
X59521917Y-55521057D01*
X59259127Y-55257808D01*
X58915599Y-55115162D01*
X58543633Y-55114838D01*
X58199857Y-55256883D01*
X58139678Y-55316957D01*
X57984361Y-55347852D01*
X57737799Y-55512599D01*
X55162599Y-58087799D01*
X54997852Y-58334361D01*
X54976763Y-58440381D01*
X54669406Y-58235012D01*
X54187225Y-58139100D01*
X54137855Y-58139100D01*
X53655674Y-58235012D01*
X53246900Y-58508145D01*
X52973767Y-58916919D01*
X52877855Y-59399100D01*
X52973767Y-59881281D01*
X53246900Y-60290055D01*
X53655674Y-60563188D01*
X54137855Y-60659100D01*
X54187225Y-60659100D01*
X54669406Y-60563188D01*
X54892560Y-60414082D01*
X54892560Y-62000000D01*
X54936838Y-62235317D01*
X55075910Y-62451441D01*
X55288110Y-62596431D01*
X55540000Y-62647440D01*
X55860000Y-62647440D01*
X56015507Y-62618179D01*
X56160000Y-62647440D01*
X56480000Y-62647440D01*
X56635507Y-62618179D01*
X56780000Y-62647440D01*
X57100000Y-62647440D01*
X57255507Y-62618179D01*
X57400000Y-62647440D01*
X57720000Y-62647440D01*
X57875507Y-62618179D01*
X58020000Y-62647440D01*
X58340000Y-62647440D01*
X58495507Y-62618179D01*
X58640000Y-62647440D01*
X58960000Y-62647440D01*
X59100087Y-62621081D01*
X59133691Y-62635000D01*
X59181250Y-62635000D01*
X59245163Y-62571087D01*
X59280000Y-62548670D01*
X59280000Y-63899268D01*
X59080057Y-63981883D01*
X58816808Y-64244673D01*
X58674162Y-64588201D01*
X58673838Y-64960167D01*
X58815883Y-65303943D01*
X59078673Y-65567192D01*
X59422201Y-65709838D01*
X59794167Y-65710162D01*
X60137943Y-65568117D01*
X60401192Y-65305327D01*
X60543838Y-64961799D01*
X60543879Y-64914923D01*
X60577401Y-64881401D01*
X60742148Y-64634839D01*
X60800000Y-64344000D01*
X60800000Y-62647440D01*
X60820000Y-62647440D01*
X60975507Y-62618179D01*
X61120000Y-62647440D01*
X61269080Y-62647440D01*
X61362599Y-62787401D01*
X61746889Y-63171691D01*
X61993451Y-63336438D01*
X62284290Y-63394290D01*
X63230908Y-63394290D01*
X58994198Y-67631000D01*
X57800000Y-67631000D01*
X57509161Y-67688852D01*
X57262599Y-67853599D01*
X56588513Y-68527685D01*
X56065914Y-68527229D01*
X55575620Y-68729814D01*
X55200173Y-69104607D01*
X55085157Y-69381597D01*
X54921146Y-68984660D01*
X54546353Y-68609213D01*
X54056413Y-68405772D01*
X53525914Y-68405309D01*
X53035620Y-68607894D01*
X52660173Y-68982687D01*
X52501405Y-69365043D01*
X52419800Y-69168031D01*
X52184188Y-69106377D01*
X51429605Y-69860960D01*
X51443748Y-69875103D01*
X51264143Y-70054708D01*
X51250000Y-70040565D01*
X51235858Y-70054708D01*
X51056253Y-69875103D01*
X51070395Y-69860960D01*
X51056253Y-69846818D01*
X51235858Y-69667213D01*
X51250000Y-69681355D01*
X52004583Y-68926772D01*
X51942929Y-68691160D01*
X51442520Y-68515033D01*
X50912801Y-68543812D01*
X50685000Y-68638170D01*
X50685000Y-61697845D01*
X50922956Y-61856842D01*
X51462540Y-61964172D01*
X52002124Y-61856842D01*
X52459561Y-61551193D01*
X52765210Y-61093756D01*
X52872540Y-60554172D01*
X52872540Y-60244028D01*
X52765210Y-59704444D01*
X52459561Y-59247007D01*
X52002124Y-58941358D01*
X51462540Y-58834028D01*
X50922956Y-58941358D01*
X50685000Y-59100355D01*
X50685000Y-54697845D01*
X50922956Y-54856842D01*
X51462540Y-54964172D01*
X52002124Y-54856842D01*
X52459561Y-54551193D01*
X52561186Y-54399100D01*
X52877855Y-54399100D01*
X52973767Y-54881281D01*
X53246900Y-55290055D01*
X53655674Y-55563188D01*
X54137855Y-55659100D01*
X54187225Y-55659100D01*
X54669406Y-55563188D01*
X55078180Y-55290055D01*
X55351313Y-54881281D01*
X55447225Y-54399100D01*
X55351313Y-53916919D01*
X55078180Y-53508145D01*
X54669406Y-53235012D01*
X54187225Y-53139100D01*
X54137855Y-53139100D01*
X53655674Y-53235012D01*
X53246900Y-53508145D01*
X52973767Y-53916919D01*
X52877855Y-54399100D01*
X52561186Y-54399100D01*
X52765210Y-54093756D01*
X52872540Y-53554172D01*
X52872540Y-53244028D01*
X52765210Y-52704444D01*
X52459561Y-52247007D01*
X52002124Y-51941358D01*
X51462540Y-51834028D01*
X50922956Y-51941358D01*
X50685000Y-52100355D01*
X50685000Y-50685000D01*
X93315000Y-50685000D01*
X93315000Y-70315000D01*
X93315000Y-70315000D01*
G37*
X93315000Y-70315000D02*
X65295940Y-70315000D01*
X65295940Y-69040540D01*
X65251662Y-68805223D01*
X65112590Y-68589099D01*
X64900390Y-68444109D01*
X64710000Y-68405554D01*
X64710000Y-66664802D01*
X68469502Y-62905300D01*
X70043937Y-62905300D01*
X70076073Y-62937492D01*
X70419601Y-63080138D01*
X70791567Y-63080462D01*
X70983110Y-63001318D01*
X70983110Y-64206700D01*
X71040962Y-64497539D01*
X71205709Y-64744101D01*
X72995809Y-66534201D01*
X73242371Y-66698948D01*
X73533210Y-66756800D01*
X74675437Y-66756800D01*
X74707573Y-66788992D01*
X75051101Y-66931638D01*
X75423067Y-66931962D01*
X75766843Y-66789917D01*
X76030092Y-66527127D01*
X76172738Y-66183599D01*
X76173062Y-65811633D01*
X76031017Y-65467857D01*
X75768227Y-65204608D01*
X75424699Y-65061962D01*
X75052733Y-65061638D01*
X74708957Y-65203683D01*
X74675782Y-65236800D01*
X73848012Y-65236800D01*
X72503110Y-63891898D01*
X72503110Y-61712710D01*
X72445258Y-61421871D01*
X72280511Y-61175309D01*
X70388702Y-59283500D01*
X71096388Y-59283500D01*
X75235099Y-63422211D01*
X75235099Y-64059899D01*
X75292951Y-64350738D01*
X75457698Y-64597300D01*
X75837799Y-64977401D01*
X76084361Y-65142148D01*
X76375200Y-65200000D01*
X80465900Y-65200000D01*
X80756739Y-65142148D01*
X80916054Y-65035697D01*
X80990467Y-65035762D01*
X81334243Y-64893717D01*
X81597492Y-64630927D01*
X81740138Y-64287399D01*
X81740462Y-63915433D01*
X81598417Y-63571657D01*
X81335627Y-63308408D01*
X80992099Y-63165762D01*
X80620133Y-63165438D01*
X80276357Y-63307483D01*
X80013108Y-63570273D01*
X79967545Y-63680000D01*
X77555206Y-63680000D01*
X77555262Y-63615333D01*
X77413217Y-63271557D01*
X77380100Y-63238382D01*
X77380100Y-63096000D01*
X77322248Y-62805161D01*
X77157501Y-62558599D01*
X72916069Y-58317167D01*
X74752938Y-58317167D01*
X74894983Y-58660943D01*
X75157773Y-58924192D01*
X75501301Y-59066838D01*
X75873267Y-59067162D01*
X76217043Y-58925117D01*
X76250218Y-58892000D01*
X82974598Y-58892000D01*
X89253478Y-65170880D01*
X89253438Y-65216367D01*
X89395483Y-65560143D01*
X89658273Y-65823392D01*
X90001801Y-65966038D01*
X90373767Y-65966362D01*
X90717543Y-65824317D01*
X90980792Y-65561527D01*
X91123438Y-65217999D01*
X91123762Y-64846033D01*
X90981717Y-64502257D01*
X90718927Y-64239008D01*
X90375399Y-64096362D01*
X90328523Y-64096321D01*
X83826801Y-57594599D01*
X83580239Y-57429852D01*
X83289400Y-57372000D01*
X76250563Y-57372000D01*
X76218427Y-57339808D01*
X75874899Y-57197162D01*
X75502933Y-57196838D01*
X75159157Y-57338883D01*
X74895908Y-57601673D01*
X74753262Y-57945201D01*
X74752938Y-58317167D01*
X72916069Y-58317167D01*
X69093102Y-54494200D01*
X74693498Y-54494200D01*
X73847920Y-55339778D01*
X73802433Y-55339738D01*
X73458657Y-55481783D01*
X73195408Y-55744573D01*
X73052762Y-56088101D01*
X73052438Y-56460067D01*
X73194483Y-56803843D01*
X73457273Y-57067092D01*
X73800801Y-57209738D01*
X74172767Y-57210062D01*
X74516543Y-57068017D01*
X74779792Y-56805227D01*
X74922438Y-56461699D01*
X74922479Y-56414823D01*
X75983780Y-55353522D01*
X76029267Y-55353562D01*
X76373043Y-55211517D01*
X76636292Y-54948727D01*
X76736039Y-54708511D01*
X76937143Y-54625417D01*
X77200392Y-54362627D01*
X77343038Y-54019099D01*
X77343362Y-53647133D01*
X77201317Y-53303357D01*
X76938527Y-53040108D01*
X76594999Y-52897462D01*
X76223033Y-52897138D01*
X76036528Y-52974200D01*
X65669300Y-52974200D01*
X65378460Y-53032052D01*
X65218397Y-53139003D01*
X65217610Y-53139002D01*
X65217762Y-52964833D01*
X65075717Y-52621057D01*
X64812927Y-52357808D01*
X64469399Y-52215162D01*
X64097433Y-52214838D01*
X63753657Y-52356883D01*
X63490408Y-52619673D01*
X63422604Y-52782961D01*
X63128257Y-52904583D01*
X62865008Y-53167373D01*
X62722362Y-53510901D01*
X62722038Y-53882867D01*
X62864083Y-54226643D01*
X62897200Y-54259818D01*
X62897200Y-54409798D01*
X60752377Y-56554621D01*
X60716627Y-56518808D01*
X60373099Y-56376162D01*
X60326223Y-56376121D01*
X60158401Y-56208299D01*
X59911839Y-56043552D01*
X59663849Y-55994223D01*
X59663962Y-55864833D01*
X59521917Y-55521057D01*
X59259127Y-55257808D01*
X58915599Y-55115162D01*
X58543633Y-55114838D01*
X58199857Y-55256883D01*
X58139678Y-55316957D01*
X57984361Y-55347852D01*
X57737799Y-55512599D01*
X55162599Y-58087799D01*
X54997852Y-58334361D01*
X54976763Y-58440381D01*
X54669406Y-58235012D01*
X54187225Y-58139100D01*
X54137855Y-58139100D01*
X53655674Y-58235012D01*
X53246900Y-58508145D01*
X52973767Y-58916919D01*
X52877855Y-59399100D01*
X52973767Y-59881281D01*
X53246900Y-60290055D01*
X53655674Y-60563188D01*
X54137855Y-60659100D01*
X54187225Y-60659100D01*
X54669406Y-60563188D01*
X54892560Y-60414082D01*
X54892560Y-62000000D01*
X54936838Y-62235317D01*
X55075910Y-62451441D01*
X55288110Y-62596431D01*
X55540000Y-62647440D01*
X55860000Y-62647440D01*
X56015507Y-62618179D01*
X56160000Y-62647440D01*
X56480000Y-62647440D01*
X56635507Y-62618179D01*
X56780000Y-62647440D01*
X57100000Y-62647440D01*
X57255507Y-62618179D01*
X57400000Y-62647440D01*
X57720000Y-62647440D01*
X57875507Y-62618179D01*
X58020000Y-62647440D01*
X58340000Y-62647440D01*
X58495507Y-62618179D01*
X58640000Y-62647440D01*
X58960000Y-62647440D01*
X59100087Y-62621081D01*
X59133691Y-62635000D01*
X59181250Y-62635000D01*
X59245163Y-62571087D01*
X59280000Y-62548670D01*
X59280000Y-63899268D01*
X59080057Y-63981883D01*
X58816808Y-64244673D01*
X58674162Y-64588201D01*
X58673838Y-64960167D01*
X58815883Y-65303943D01*
X59078673Y-65567192D01*
X59422201Y-65709838D01*
X59794167Y-65710162D01*
X60137943Y-65568117D01*
X60401192Y-65305327D01*
X60543838Y-64961799D01*
X60543879Y-64914923D01*
X60577401Y-64881401D01*
X60742148Y-64634839D01*
X60800000Y-64344000D01*
X60800000Y-62647440D01*
X60820000Y-62647440D01*
X60975507Y-62618179D01*
X61120000Y-62647440D01*
X61269080Y-62647440D01*
X61362599Y-62787401D01*
X61746889Y-63171691D01*
X61993451Y-63336438D01*
X62284290Y-63394290D01*
X63230908Y-63394290D01*
X58994198Y-67631000D01*
X57800000Y-67631000D01*
X57509161Y-67688852D01*
X57262599Y-67853599D01*
X56588513Y-68527685D01*
X56065914Y-68527229D01*
X55575620Y-68729814D01*
X55200173Y-69104607D01*
X55085157Y-69381597D01*
X54921146Y-68984660D01*
X54546353Y-68609213D01*
X54056413Y-68405772D01*
X53525914Y-68405309D01*
X53035620Y-68607894D01*
X52660173Y-68982687D01*
X52501405Y-69365043D01*
X52419800Y-69168031D01*
X52184188Y-69106377D01*
X51429605Y-69860960D01*
X51443748Y-69875103D01*
X51264143Y-70054708D01*
X51250000Y-70040565D01*
X51235858Y-70054708D01*
X51056253Y-69875103D01*
X51070395Y-69860960D01*
X51056253Y-69846818D01*
X51235858Y-69667213D01*
X51250000Y-69681355D01*
X52004583Y-68926772D01*
X51942929Y-68691160D01*
X51442520Y-68515033D01*
X50912801Y-68543812D01*
X50685000Y-68638170D01*
X50685000Y-61697845D01*
X50922956Y-61856842D01*
X51462540Y-61964172D01*
X52002124Y-61856842D01*
X52459561Y-61551193D01*
X52765210Y-61093756D01*
X52872540Y-60554172D01*
X52872540Y-60244028D01*
X52765210Y-59704444D01*
X52459561Y-59247007D01*
X52002124Y-58941358D01*
X51462540Y-58834028D01*
X50922956Y-58941358D01*
X50685000Y-59100355D01*
X50685000Y-54697845D01*
X50922956Y-54856842D01*
X51462540Y-54964172D01*
X52002124Y-54856842D01*
X52459561Y-54551193D01*
X52561186Y-54399100D01*
X52877855Y-54399100D01*
X52973767Y-54881281D01*
X53246900Y-55290055D01*
X53655674Y-55563188D01*
X54137855Y-55659100D01*
X54187225Y-55659100D01*
X54669406Y-55563188D01*
X55078180Y-55290055D01*
X55351313Y-54881281D01*
X55447225Y-54399100D01*
X55351313Y-53916919D01*
X55078180Y-53508145D01*
X54669406Y-53235012D01*
X54187225Y-53139100D01*
X54137855Y-53139100D01*
X53655674Y-53235012D01*
X53246900Y-53508145D01*
X52973767Y-53916919D01*
X52877855Y-54399100D01*
X52561186Y-54399100D01*
X52765210Y-54093756D01*
X52872540Y-53554172D01*
X52872540Y-53244028D01*
X52765210Y-52704444D01*
X52459561Y-52247007D01*
X52002124Y-51941358D01*
X51462540Y-51834028D01*
X50922956Y-51941358D01*
X50685000Y-52100355D01*
X50685000Y-50685000D01*
X93315000Y-50685000D01*
X93315000Y-70315000D01*
G36*
X70212798Y-57763500D02*
X69119363Y-57763500D01*
X69087227Y-57731308D01*
X68743699Y-57588662D01*
X68371733Y-57588338D01*
X68027957Y-57730383D01*
X67764708Y-57993173D01*
X67622062Y-58336701D01*
X67621990Y-58419600D01*
X67384100Y-58419600D01*
X67172587Y-58461673D01*
X67093260Y-58477452D01*
X66846699Y-58642199D01*
X64567440Y-60921458D01*
X64567440Y-59000000D01*
X64560863Y-58965049D01*
X66165912Y-57360000D01*
X66561446Y-57360000D01*
X66852285Y-57302148D01*
X67098847Y-57137401D01*
X67377349Y-56858899D01*
X68130301Y-56858899D01*
X68421140Y-56801047D01*
X68521513Y-56733980D01*
X68615467Y-56734062D01*
X68959243Y-56592017D01*
X69000315Y-56551017D01*
X70212798Y-57763500D01*
X70212798Y-57763500D01*
G37*
X70212798Y-57763500D02*
X69119363Y-57763500D01*
X69087227Y-57731308D01*
X68743699Y-57588662D01*
X68371733Y-57588338D01*
X68027957Y-57730383D01*
X67764708Y-57993173D01*
X67622062Y-58336701D01*
X67621990Y-58419600D01*
X67384100Y-58419600D01*
X67172587Y-58461673D01*
X67093260Y-58477452D01*
X66846699Y-58642199D01*
X64567440Y-60921458D01*
X64567440Y-59000000D01*
X64560863Y-58965049D01*
X66165912Y-57360000D01*
X66561446Y-57360000D01*
X66852285Y-57302148D01*
X67098847Y-57137401D01*
X67377349Y-56858899D01*
X68130301Y-56858899D01*
X68421140Y-56801047D01*
X68521513Y-56733980D01*
X68615467Y-56734062D01*
X68959243Y-56592017D01*
X69000315Y-56551017D01*
X70212798Y-57763500D01*
M02*
