M48
;DRILL file {KiCad 4.0.5+dfsg1-4} date Sun Feb 26 18:39:20 2017
;FORMAT={-:-/ absolute / inch / decimal}
FMAT,2
INCH,TZ
T1C0.016
T2C0.020
T3C0.022
T4C0.032
%
G90
G05
M72
T1
X2.1358Y-2.4497
X2.1743Y-2.5188
X2.2663Y-2.5192
X2.32Y-2.1772
X2.3285Y-2.5235
X2.3348Y-2.2465
X2.4134Y-2.5669
X2.467Y-2.2999
X2.4721Y-2.4636
X2.4795Y-2.2254
X2.5131Y-2.501
X2.6075Y-2.2779
X2.626Y-2.3819
X2.685Y-2.6811
X2.7015Y-2.4928
X2.8329Y-2.3505
X2.9154Y-2.3846
X2.918Y-2.3503
X2.9227Y-2.7685
X2.9724Y-2.3898
X2.9808Y-2.1473
X2.9999Y-2.1205
X3.0251Y-2.5188
X3.0687Y-2.5453
X3.0709Y-2.3543
X3.122Y-2.7087
X3.1497Y-2.5683
X3.2012Y-2.5607
X3.2567Y-2.5053
X3.278Y-2.4188
X3.2964Y-2.2984
X3.3517Y-2.3631
X3.3953Y-2.5081
X3.4113Y-2.7449
X3.4538Y-2.3634
X3.4679Y-2.3145
X3.5Y-2.4961
X3.5957Y-2.4822
X3.6575Y-2.6299
X3.676Y-2.5109
T4
X2.0335Y-2.7386
X2.1335Y-2.7338
X2.2335Y-2.7386
X2.3335Y-2.7338
X2.4335Y-2.7386
X2.5335Y-2.7338
T2
X2.0133Y-2.1023G85X2.0389Y-2.1023
G05
X2.0133Y-2.3779G85X2.0389Y-2.3779
G05
T3
X2.1324Y-2.1358G85X2.1324Y-2.1476
G05
X2.1324Y-2.3326G85X2.1324Y-2.3445
G05
T0
M30
